<svg width="128" height="33" viewBox="0 0 128 33" fill="none" xmlns="http://www.w3.org/2000/svg">
<rect x="0.257965" y="0.00619507" width="127" height="33" rx="10" fill="#1E2C90"/>
<path d="M46.2532 11.8756H48.0472V18.2236H50.9212V19.7956H46.2532V11.8756ZM53.5146 15.8296C53.5146 16.2816 53.6066 16.6916 53.7906 17.0596C53.9786 17.4236 54.2366 17.7136 54.5646 17.9296C54.8966 18.1456 55.2806 18.2536 55.7166 18.2536C56.1526 18.2536 56.5346 18.1456 56.8626 17.9296C57.1946 17.7136 57.4526 17.4236 57.6366 17.0596C57.8246 16.6916 57.9186 16.2816 57.9186 15.8296C57.9186 15.3776 57.8246 14.9696 57.6366 14.6056C57.4526 14.2416 57.1946 13.9516 56.8626 13.7356C56.5346 13.5156 56.1526 13.4056 55.7166 13.4056C55.2806 13.4056 54.8966 13.5156 54.5646 13.7356C54.2366 13.9516 53.9786 14.2416 53.7906 14.6056C53.6066 14.9696 53.5146 15.3776 53.5146 15.8296ZM51.6486 15.8296C51.6486 15.2536 51.7506 14.7176 51.9546 14.2216C52.1586 13.7216 52.4446 13.2856 52.8126 12.9136C53.1806 12.5416 53.6126 12.2516 54.1086 12.0436C54.6046 11.8356 55.1406 11.7316 55.7166 11.7316C56.3006 11.7316 56.8386 11.8356 57.3306 12.0436C57.8266 12.2516 58.2566 12.5416 58.6206 12.9136C58.9886 13.2856 59.2726 13.7216 59.4726 14.2216C59.6766 14.7176 59.7786 15.2536 59.7786 15.8296C59.7786 16.4096 59.6806 16.9496 59.4846 17.4496C59.2886 17.9456 59.0086 18.3816 58.6446 18.7576C58.2806 19.1296 57.8506 19.4196 57.3546 19.6276C56.8586 19.8356 56.3126 19.9396 55.7166 19.9396C55.1086 19.9396 54.5546 19.8356 54.0546 19.6276C53.5586 19.4196 53.1306 19.1296 52.7706 18.7576C52.4106 18.3816 52.1326 17.9456 51.9366 17.4496C51.7446 16.9496 51.6486 16.4096 51.6486 15.8296ZM64.5628 15.3676H68.6008V15.8716C68.6008 16.4396 68.5048 16.9696 68.3128 17.4616C68.1248 17.9536 67.8548 18.3856 67.5028 18.7576C67.1508 19.1296 66.7308 19.4196 66.2428 19.6276C65.7548 19.8356 65.2148 19.9396 64.6228 19.9396C64.0108 19.9396 63.4548 19.8356 62.9548 19.6276C62.4588 19.4156 62.0308 19.1216 61.6708 18.7456C61.3108 18.3696 61.0348 17.9336 60.8428 17.4376C60.6508 16.9376 60.5548 16.4016 60.5548 15.8296C60.5548 15.2616 60.6508 14.7296 60.8428 14.2336C61.0348 13.7336 61.3108 13.2976 61.6708 12.9256C62.0308 12.5496 62.4588 12.2576 62.9548 12.0496C63.4548 11.8376 64.0108 11.7316 64.6228 11.7316C65.1228 11.7316 65.5628 11.7856 65.9428 11.8936C66.3268 12.0016 66.6568 12.1456 66.9328 12.3256C67.2088 12.5056 67.4428 12.7036 67.6348 12.9196C67.8268 13.1316 67.9868 13.3396 68.1148 13.5436L66.4108 14.3476C66.2468 14.0956 66.0228 13.8756 65.7388 13.6876C65.4588 13.4996 65.0868 13.4056 64.6228 13.4056C64.2988 13.4056 64.0008 13.4696 63.7288 13.5976C63.4608 13.7256 63.2288 13.9016 63.0328 14.1256C62.8368 14.3456 62.6848 14.6036 62.5768 14.8996C62.4728 15.1916 62.4208 15.5016 62.4208 15.8296C62.4208 16.1616 62.4728 16.4736 62.5768 16.7656C62.6848 17.0576 62.8368 17.3156 63.0328 17.5396C63.2288 17.7636 63.4608 17.9396 63.7288 18.0676C64.0008 18.1916 64.2988 18.2536 64.6228 18.2536C64.9068 18.2536 65.1648 18.2176 65.3968 18.1456C65.6288 18.0736 65.8288 17.9696 65.9968 17.8336C66.1688 17.6976 66.3028 17.5376 66.3988 17.3536C66.4988 17.1656 66.5588 16.9596 66.5788 16.7356H64.5628V15.3676ZM69.697 11.8756H71.491V19.7956H69.697V11.8756ZM74.5391 13.5196L74.6711 13.5436V19.7956H72.8771V11.8756H75.3251L78.5351 18.1156L78.4031 18.1396V11.8756H80.1971V19.7956H77.7371L74.5391 13.5196Z" fill="white"/>
</svg>
