<svg width="64" height="18" viewBox="0 0 64 18" fill="none" xmlns="http://www.w3.org/2000/svg">
<rect x="0.752869" y="0.589836" width="62" height="16" rx="8" fill="white" stroke="#1E2C90"/>
<path d="M14.4527 3.34458C14.9467 3.34458 15.3714 3.40091 15.7267 3.51358C16.0864 3.62625 16.3681 3.74541 16.5717 3.87108C16.7797 3.99675 16.9032 4.07908 16.9422 4.11808L16.3702 5.03458C16.3052 4.97825 16.1904 4.89808 16.0257 4.79408C15.8611 4.68575 15.6552 4.59041 15.4082 4.50808C15.1612 4.42141 14.8796 4.37808 14.5632 4.37808C14.0736 4.37808 13.6857 4.47775 13.3997 4.67708C13.1181 4.87208 12.9772 5.14941 12.9772 5.50908C12.9772 5.75175 13.0509 5.96625 13.1982 6.15258C13.3499 6.33458 13.5622 6.50141 13.8352 6.65308C14.1082 6.80475 14.4267 6.96075 14.7907 7.12108C15.0897 7.24675 15.3822 7.38975 15.6682 7.55008C15.9586 7.71041 16.2207 7.89891 16.4547 8.11558C16.6931 8.33225 16.8816 8.58358 17.0202 8.86958C17.1632 9.15558 17.2347 9.48491 17.2347 9.85758C17.2347 10.2259 17.1589 10.5574 17.0072 10.8521C16.8599 11.1467 16.6497 11.3981 16.3767 11.6061C16.1081 11.8097 15.7939 11.9657 15.4342 12.0741C15.0746 12.1824 14.6867 12.2366 14.2707 12.2366C13.7464 12.2366 13.2719 12.1716 12.8472 12.0416C12.4269 11.9116 12.0867 11.7751 11.8267 11.6321C11.5711 11.4891 11.4237 11.4002 11.3847 11.3656L11.9892 10.4101C12.0412 10.4534 12.1366 10.5184 12.2752 10.6051C12.4139 10.6874 12.5851 10.7741 12.7887 10.8651C12.9924 10.9561 13.2221 11.0341 13.4777 11.0991C13.7334 11.1597 14.0064 11.1901 14.2967 11.1901C14.8774 11.1901 15.3172 11.0601 15.6162 10.8001C15.9152 10.5401 16.0647 10.2064 16.0647 9.79908C16.0647 9.48708 15.9694 9.21841 15.7787 8.99308C15.5881 8.76775 15.3346 8.56625 15.0182 8.38858C14.7019 8.21091 14.3531 8.03975 13.9717 7.87508C13.5817 7.69741 13.2242 7.50241 12.8992 7.29008C12.5742 7.07775 12.3121 6.82425 12.1127 6.52958C11.9177 6.23058 11.8202 5.87091 11.8202 5.45058C11.8202 5.03458 11.9372 4.66841 12.1712 4.35208C12.4096 4.03575 12.7281 3.78875 13.1267 3.61108C13.5297 3.43341 13.9717 3.34458 14.4527 3.34458ZM18.7404 12.0806V6.74408H19.8714V12.0806H18.7404ZM19.3189 4.91758C19.1152 4.91758 18.9397 4.84608 18.7924 4.70308C18.6494 4.55575 18.5779 4.38025 18.5779 4.17658C18.5779 3.97291 18.6494 3.79741 18.7924 3.65008C18.9397 3.50275 19.1152 3.42908 19.3189 3.42908C19.4532 3.42908 19.5767 3.46375 19.6894 3.53308C19.8064 3.60241 19.8996 3.69341 19.9689 3.80608C20.0382 3.91441 20.0729 4.03791 20.0729 4.17658C20.0729 4.38025 19.9992 4.55575 19.8519 4.70308C19.7046 4.84608 19.5269 4.91758 19.3189 4.91758ZM24.1483 14.9341C23.728 14.9341 23.3466 14.8907 23.0043 14.8041C22.6663 14.7174 22.3695 14.5939 22.1138 14.4336C21.8625 14.2776 21.661 14.0934 21.5093 13.8811L22.2503 13.1726C22.3326 13.2852 22.4431 13.4044 22.5818 13.5301C22.7248 13.6601 22.9176 13.7706 23.1603 13.8616C23.403 13.9526 23.7193 13.9981 24.1093 13.9981C24.4906 13.9981 24.8135 13.9157 25.0778 13.7511C25.3421 13.5907 25.5436 13.3719 25.6823 13.0946C25.821 12.8172 25.8903 12.5052 25.8903 12.1586V11.9831H26.9953V12.2301C26.9953 12.8194 26.8675 13.3134 26.6118 13.7121C26.3605 14.1151 26.0203 14.4184 25.5913 14.6221C25.1623 14.8301 24.6813 14.9341 24.1483 14.9341ZM25.8903 12.0806V11.0406C25.8556 11.1489 25.7538 11.2984 25.5848 11.4891C25.4201 11.6797 25.1926 11.8531 24.9023 12.0091C24.6163 12.1607 24.2783 12.2366 23.8883 12.2366C23.3943 12.2366 22.9458 12.1196 22.5428 11.8856C22.1441 11.6516 21.8256 11.3244 21.5873 10.9041C21.3533 10.4794 21.2363 9.98325 21.2363 9.41558C21.2363 8.84791 21.3533 8.35391 21.5873 7.93358C21.8256 7.50891 22.1441 7.17958 22.5428 6.94558C22.9458 6.70725 23.3943 6.58808 23.8883 6.58808C24.274 6.58808 24.6076 6.65741 24.8893 6.79608C25.1753 6.93475 25.4028 7.09508 25.5718 7.27708C25.7451 7.45908 25.847 7.61508 25.8773 7.74508V6.74408H26.9953V12.0806H25.8903ZM22.3543 9.41558C22.3543 9.80125 22.4388 10.1349 22.6078 10.4166C22.7768 10.6982 22.9956 10.9171 23.2643 11.0731C23.5373 11.2247 23.8276 11.3006 24.1353 11.3006C24.4646 11.3006 24.7593 11.2226 25.0193 11.0666C25.2793 10.9106 25.4851 10.6917 25.6368 10.4101C25.7885 10.1241 25.8643 9.79258 25.8643 9.41558C25.8643 9.03858 25.7885 8.70925 25.6368 8.42758C25.4851 8.14158 25.2793 7.92058 25.0193 7.76458C24.7593 7.60425 24.4646 7.52408 24.1353 7.52408C23.8276 7.52408 23.5373 7.60208 23.2643 7.75808C22.9956 7.91408 22.7768 8.13291 22.6078 8.41458C22.4388 8.69625 22.3543 9.02991 22.3543 9.41558ZM31.5408 6.58808C31.8918 6.58808 32.232 6.66175 32.5613 6.80908C32.895 6.95641 33.168 7.19041 33.3803 7.51108C33.597 7.82741 33.7053 8.24125 33.7053 8.75258V12.0806H32.5613V8.97358C32.5613 8.44491 32.4378 8.06141 32.1908 7.82308C31.9438 7.58041 31.6253 7.45908 31.2353 7.45908C30.9797 7.45908 30.7327 7.53275 30.4943 7.68008C30.2603 7.82308 30.0675 8.02241 29.9158 8.27808C29.7642 8.52941 29.6883 8.81541 29.6883 9.13608V12.0806H28.5573V6.74408H29.6883V7.69308C29.7273 7.54575 29.8335 7.38541 30.0068 7.21208C30.1802 7.03875 30.4012 6.89141 30.6698 6.77008C30.9385 6.64875 31.2288 6.58808 31.5408 6.58808ZM43.8166 3.50058H44.9281V8.83058C44.9281 9.53691 44.7873 10.1457 44.5056 10.6571C44.2239 11.1641 43.8361 11.5541 43.3421 11.8271C42.8524 12.1001 42.2913 12.2366 41.6586 12.2366C41.0259 12.2366 40.4604 12.1001 39.9621 11.8271C39.4681 11.5541 39.0803 11.1641 38.7986 10.6571C38.5169 10.1457 38.3761 9.53691 38.3761 8.83058V3.50058H39.4811V8.77208C39.4811 9.27041 39.5764 9.70158 39.7671 10.0656C39.9578 10.4296 40.2178 10.7112 40.5471 10.9106C40.8764 11.1056 41.2469 11.2031 41.6586 11.2031C42.0703 11.2031 42.4386 11.1056 42.7636 10.9106C43.0886 10.7112 43.3443 10.4296 43.5306 10.0656C43.7213 9.70158 43.8166 9.27041 43.8166 8.77208V3.50058ZM47.6398 14.7846H46.5153V6.74408H47.6593V7.74508C47.6983 7.61075 47.8066 7.45258 47.9843 7.27058C48.162 7.08858 48.4003 6.93041 48.6993 6.79608C49.0026 6.65741 49.3493 6.58808 49.7393 6.58808C50.2333 6.58808 50.671 6.70725 51.0523 6.94558C51.438 7.17958 51.7391 7.50891 51.9558 7.93358C52.1768 8.35391 52.2873 8.84791 52.2873 9.41558C52.2873 9.98325 52.1746 10.4794 51.9493 10.9041C51.724 11.3244 51.4163 11.6516 51.0263 11.8856C50.6406 12.1196 50.1986 12.2366 49.7003 12.2366C49.2973 12.2366 48.9441 12.1607 48.6408 12.0091C48.3418 11.8574 48.1056 11.6862 47.9323 11.4956C47.7633 11.3049 47.6658 11.1532 47.6398 11.0406V14.7846ZM51.1693 9.41558C51.1693 9.02991 51.0891 8.69625 50.9288 8.41458C50.7728 8.13291 50.5648 7.91408 50.3048 7.75808C50.0448 7.60208 49.7631 7.52408 49.4598 7.52408C49.1261 7.52408 48.8228 7.60425 48.5498 7.76458C48.2768 7.92058 48.0601 8.14158 47.8998 8.42758C47.7395 8.70925 47.6593 9.03858 47.6593 9.41558C47.6593 9.79258 47.7395 10.1241 47.8998 10.4101C48.0601 10.6917 48.2768 10.9106 48.5498 11.0666C48.8228 11.2226 49.1261 11.3006 49.4598 11.3006C49.7631 11.3006 50.0448 11.2247 50.3048 11.0731C50.5648 10.9171 50.7728 10.6982 50.9288 10.4166C51.0891 10.1349 51.1693 9.80125 51.1693 9.41558Z" fill="#1E2C90"/>
</svg>
