<svg width="32" height="23" viewBox="0 0 32 23" fill="none" xmlns="http://www.w3.org/2000/svg">
<path d="M3.77416 17.8749V19.1546L31.9776 19.1868V22.9356L6.6501e-08 23V17.8782C-0.000108731 17.2024 0.13328 16.5332 0.392549 15.9088C0.651817 15.2844 1.03189 14.7171 1.51105 14.2391C1.99022 13.7612 2.5591 13.3821 3.1852 13.1235C3.8113 12.8648 4.48236 12.7317 5.16006 12.7317H28.1397V10.1923H16.601V5.19776C16.601 3.81923 17.1501 2.49716 18.1276 1.52239C19.1051 0.547619 20.4309 0 21.8132 0H31.976V3.81736H21.7039C21.3637 3.81736 21.0375 3.95206 20.7968 4.19186C20.5562 4.43166 20.4209 4.75692 20.4207 5.09615V6.37824H31.976V16.5962H5.0532C4.71367 16.597 4.38835 16.7321 4.14858 16.9719C3.90881 17.2116 3.77416 17.5364 3.77416 17.8749Z" fill="#1E2C90"/>
<path d="M7.99438 6.86288L8.53699 7.20404C9.35395 7.71805 10.05 8.40618 10.5765 9.22033L10.9994 9.87119L11.3186 9.37276C11.8938 8.47304 12.6597 7.71381 13.5608 7.15L14.0149 6.86611L13.4036 6.46285C12.534 5.89019 11.7988 5.13241 11.2492 4.24251L11.0098 3.84973L10.7561 4.27154C10.1892 5.21182 9.406 5.99981 8.47315 6.5685L7.99438 6.86288Z" fill="#1E2C90"/>
</svg>
