<svg width="700" height="400" viewBox="0 0 700 400" fill="none" xmlns="http://www.w3.org/2000/svg">
<rect width="700" height="400" rx="10" fill="#1E2C90"/>
<g opacity="0.3">
<path d="M417.933 332.927V345.783L688.403 346.106V383.769L381.739 384.416V332.96C381.738 326.17 383.017 319.447 385.504 313.174C387.99 306.901 391.635 301.201 396.23 296.399C400.825 291.598 406.281 287.789 412.285 285.191C418.289 282.592 424.725 281.255 431.224 281.255H651.597V255.742H540.942V205.564C540.942 191.715 546.208 178.432 555.582 168.639C564.956 158.846 577.67 153.344 590.927 153.344H688.387V191.696H589.878C586.616 191.696 583.487 193.049 581.18 195.458C578.872 197.867 577.575 201.135 577.573 204.543V217.424H688.387V320.079H430.199C426.943 320.088 423.823 321.446 421.524 323.854C419.224 326.262 417.933 329.525 417.933 332.927Z" fill="#121B5E"/>
<path d="M458.405 222.294L463.609 225.721C471.443 230.885 478.118 237.798 483.168 245.978L487.223 252.517L490.284 247.509C495.8 238.47 503.145 230.842 511.787 225.178L516.141 222.326L510.28 218.275C501.94 212.521 494.889 204.908 489.619 195.968L487.323 192.022L484.889 196.259C479.453 205.706 471.942 213.623 462.996 219.336L458.405 222.294Z" fill="#121B5E"/>
</g>
<g opacity="0.3">
<path d="M412.843 315.594V328.45L683.313 328.774V366.436L376.649 367.084V315.627C376.648 308.838 377.927 302.114 380.414 295.841C382.9 289.568 386.545 283.868 391.14 279.067C395.735 274.265 401.191 270.457 407.195 267.858C413.199 265.26 419.635 263.922 426.134 263.922H646.507V238.41H535.852V188.232C535.852 174.382 541.118 161.1 550.492 151.307C559.866 141.513 572.58 136.012 585.837 136.012H683.297V174.363H584.788C581.526 174.363 578.397 175.717 576.09 178.126C573.782 180.535 572.485 183.803 572.483 187.211V200.091H683.297V302.747H425.109C421.853 302.756 418.733 304.113 416.434 306.521C414.134 308.93 412.843 312.193 412.843 315.594Z" fill="white"/>
<path d="M453.315 204.961L458.519 208.388C466.353 213.553 473.028 220.466 478.078 228.645L482.133 235.184L485.194 230.177C490.71 221.138 498.055 213.51 506.697 207.846L511.051 204.993L505.19 200.942C496.85 195.189 489.799 187.576 484.529 178.635L482.233 174.689L479.799 178.927C474.363 188.373 466.852 196.29 457.906 202.003L453.315 204.961Z" fill="white"/>
</g>
<g opacity="0.3">
<path d="M319.953 240.931V253.787L590.423 254.11V291.773L283.759 292.42V240.964C283.758 234.174 285.037 227.451 287.524 221.178C290.01 214.905 293.655 209.205 298.25 204.403C302.845 199.602 308.301 195.793 314.305 193.195C320.31 190.596 326.745 189.259 333.244 189.259H553.617V163.746H442.962V113.568C442.962 99.7187 448.228 86.4364 457.602 76.6432C466.976 66.8501 479.69 61.3484 492.947 61.3484H590.407V99.6999H491.899C488.636 99.6999 485.507 101.053 483.2 103.462C480.892 105.872 479.595 109.139 479.593 112.547V125.428H590.407V228.083H332.219C328.963 228.092 325.843 229.45 323.544 231.858C321.245 234.266 319.953 237.529 319.953 240.931Z" fill="#121B5E"/>
<path d="M360.425 130.298L365.629 133.725C373.464 138.889 380.139 145.802 385.188 153.982L389.244 160.521L392.305 155.513C397.821 146.474 405.165 138.847 413.807 133.182L418.161 130.33L412.3 126.279C403.96 120.525 396.909 112.912 391.639 103.972L389.343 100.026L386.91 104.263C381.473 113.71 373.963 121.627 365.017 127.34L360.425 130.298Z" fill="#121B5E"/>
</g>
<g opacity="0.3">
<path d="M314.864 223.598V236.454L585.333 236.778V274.44L278.67 275.088V223.632C278.668 216.842 279.948 210.119 282.434 203.845C284.92 197.572 288.565 191.872 293.16 187.071C297.756 182.27 303.211 178.461 309.215 175.862C315.22 173.264 321.655 171.926 328.154 171.926H548.528V146.414H437.872V96.2357C437.872 82.3861 443.138 69.1038 452.513 59.3107C461.887 49.5175 474.6 44.0158 487.857 44.0158H585.317V82.3674H486.809C483.546 82.3674 480.418 83.7207 478.11 86.1298C475.803 88.5389 474.505 91.8067 474.503 95.2149V108.096H585.317V210.751H327.129C323.873 210.76 320.754 212.117 318.454 214.526C316.155 216.934 314.863 220.197 314.864 223.598Z" fill="white"/>
<path d="M355.335 112.965L360.539 116.393C368.374 121.557 375.049 128.47 380.098 136.649L384.154 143.188L387.215 138.181C392.731 129.142 400.075 121.514 408.717 115.85L413.072 112.997L407.21 108.946C398.871 103.193 391.819 95.5797 386.549 86.6392L384.253 82.6931L381.82 86.9309C376.383 96.3775 368.873 104.294 359.927 110.008L355.335 112.965Z" fill="white"/>
</g>
<path d="M375.942 272.93V285.785L646.412 286.109V323.772L339.748 324.419V272.963C339.747 266.173 341.026 259.45 343.512 253.177C345.999 246.903 349.644 241.203 354.239 236.402C358.834 231.601 364.289 227.792 370.294 225.193C376.298 222.595 382.733 221.257 389.233 221.257H609.606V195.745H498.95V145.567C498.95 131.717 504.217 118.435 513.591 108.642C522.965 98.8487 535.679 93.347 548.936 93.347H646.396V131.699H547.887C544.625 131.699 541.496 133.052 539.188 135.461C536.881 137.87 535.583 141.138 535.581 144.546V157.427H646.396V260.082H388.208C384.952 260.091 381.832 261.448 379.532 263.857C377.233 266.265 375.942 269.528 375.942 272.93Z" fill="#121B5E"/>
<path d="M416.414 162.296L421.617 165.724C429.452 170.888 436.127 177.801 441.176 185.981L445.232 192.52L448.293 187.512C453.809 178.473 461.154 170.845 469.796 165.181L474.15 162.329L468.288 158.277C459.949 152.524 452.897 144.911 447.627 135.97L445.331 132.024L442.898 136.262C437.462 145.709 429.951 153.625 421.005 159.339L416.414 162.296Z" fill="#121B5E"/>
<path d="M364.49 255.597V268.453L634.959 268.776V306.439L328.296 307.086V255.63C328.295 248.84 329.574 242.117 332.06 235.844C334.547 229.571 338.191 223.871 342.787 219.069C347.382 214.268 352.837 210.459 358.842 207.861C364.846 205.262 371.281 203.925 377.78 203.925H598.154V178.412H487.498V128.234C487.498 114.385 492.765 101.102 502.139 91.3092C511.513 81.5161 524.227 76.0144 537.484 76.0144H634.943V114.366H536.435C533.173 114.366 530.044 115.719 527.736 118.128C525.429 120.538 524.131 123.805 524.129 127.213V140.094H634.943V242.749H376.756C373.499 242.758 370.38 244.116 368.08 246.524C365.781 248.933 364.49 252.195 364.49 255.597Z" fill="white"/>
<path d="M404.962 144.964L410.165 148.391C418 153.555 424.675 160.469 429.724 168.648L433.78 175.187L436.841 170.179C442.357 161.14 449.702 153.513 458.344 147.848L462.698 144.996L456.836 140.945C448.497 135.191 441.445 127.578 436.175 118.638L433.879 114.692L431.446 118.929C426.009 128.376 418.499 136.293 409.553 142.006L404.962 144.964Z" fill="white"/>
<path d="M496.606 13.001H498.627C499.542 13.001 500.293 13.1852 500.883 13.5535C501.476 13.9175 501.916 14.4223 502.202 15.068C502.488 15.7137 502.631 16.4525 502.631 17.2845C502.631 18.1208 502.488 18.8618 502.202 19.5075C501.916 20.1532 501.479 20.6602 500.889 21.0285C500.3 21.3968 499.546 21.581 498.627 21.581H496.606V13.001ZM497.711 14.015V20.567H498.536C499.212 20.567 499.765 20.4262 500.194 20.1445C500.623 19.8628 500.939 19.4772 501.143 18.9875C501.351 18.4935 501.457 17.9302 501.461 17.2975C501.461 16.6605 501.359 16.0972 501.156 15.6075C500.952 15.1135 500.634 14.7257 500.2 14.444C499.767 14.158 499.212 14.015 498.536 14.015H497.711ZM506.483 21.737C505.933 21.737 505.443 21.6135 505.014 21.3665C504.59 21.1195 504.256 20.7858 504.013 20.3655C503.771 19.9408 503.649 19.462 503.649 18.929C503.649 18.396 503.771 17.915 504.013 17.486C504.256 17.057 504.59 16.7168 505.014 16.4655C505.443 16.2142 505.933 16.0885 506.483 16.0885C507.029 16.0885 507.513 16.2142 507.933 16.4655C508.358 16.7168 508.689 17.057 508.927 17.486C509.166 17.915 509.285 18.396 509.285 18.929C509.285 19.462 509.166 19.9408 508.927 20.3655C508.689 20.7858 508.358 21.1195 507.933 21.3665C507.513 21.6135 507.029 21.737 506.483 21.737ZM506.483 20.7685C506.83 20.7685 507.131 20.6883 507.387 20.528C507.647 20.3677 507.848 20.1488 507.991 19.8715C508.134 19.5898 508.206 19.2735 508.206 18.9225C508.206 18.5715 508.134 18.2552 507.991 17.9735C507.848 17.6918 507.647 17.4687 507.387 17.304C507.131 17.1393 506.83 17.057 506.483 17.057C506.132 17.057 505.827 17.1393 505.567 17.304C505.307 17.4687 505.103 17.6918 504.956 17.9735C504.813 18.2552 504.741 18.5715 504.741 18.9225C504.741 19.2735 504.813 19.5898 504.956 19.8715C505.103 20.1488 505.307 20.3677 505.567 20.528C505.827 20.6883 506.132 20.7685 506.483 20.7685ZM513.522 16.0885C513.873 16.0885 514.213 16.1622 514.543 16.3095C514.876 16.4568 515.149 16.6908 515.362 17.0115C515.578 17.3278 515.687 17.7417 515.687 18.253V21.581H514.543V18.474C514.543 17.9453 514.419 17.5618 514.172 17.3235C513.925 17.0808 513.607 16.9595 513.217 16.9595C512.961 16.9595 512.714 17.0332 512.476 17.1805C512.242 17.3235 512.049 17.5228 511.897 17.7785C511.746 18.0298 511.67 18.3158 511.67 18.6365V21.581H510.539V16.2445H511.67V17.1935C511.709 17.0462 511.815 16.8858 511.988 16.7125C512.162 16.5392 512.383 16.3918 512.651 16.2705C512.92 16.1492 513.21 16.0885 513.522 16.0885ZM517.458 16.1795L517.114 15.7895C517.222 15.7462 517.343 15.666 517.478 15.549C517.616 15.4277 517.736 15.2912 517.835 15.1395C517.939 14.9835 517.993 14.8297 517.998 14.678C517.963 14.7257 517.896 14.769 517.796 14.808C517.701 14.8427 517.601 14.86 517.497 14.86C517.302 14.86 517.127 14.7885 516.971 14.6455C516.819 14.5025 516.743 14.3032 516.743 14.0475C516.743 13.7442 516.836 13.5037 517.023 13.326C517.213 13.1483 517.452 13.0595 517.738 13.0595C518.019 13.0595 518.256 13.1592 518.446 13.3585C518.637 13.5535 518.732 13.8352 518.732 14.2035C518.732 14.5415 518.667 14.8405 518.537 15.1005C518.407 15.3605 518.245 15.5815 518.05 15.7635C517.855 15.9412 517.658 16.0798 517.458 16.1795ZM519.643 16.2445H520.69V14.054H521.814V16.2445H523.186V17.213H521.814V19.852C521.814 20.164 521.869 20.3937 521.977 20.541C522.09 20.6883 522.239 20.762 522.425 20.762C522.59 20.762 522.718 20.7317 522.809 20.671C522.9 20.6103 522.954 20.5692 522.971 20.5475L523.42 21.3795C523.394 21.4012 523.325 21.4423 523.212 21.503C523.099 21.5637 522.954 21.6178 522.776 21.6655C522.599 21.7132 522.391 21.737 522.152 21.737C521.736 21.737 521.388 21.6113 521.106 21.36C520.829 21.1043 520.69 20.7013 520.69 20.151V17.213H519.643V16.2445ZM530.662 16.0885C531.013 16.0885 531.353 16.1622 531.682 16.3095C532.016 16.4568 532.289 16.6908 532.501 17.0115C532.718 17.3278 532.826 17.7417 532.826 18.253V21.581H531.682V18.474C531.682 17.9453 531.561 17.5618 531.318 17.3235C531.08 17.0808 530.766 16.9595 530.376 16.9595C530.116 16.9595 529.867 17.0332 529.628 17.1805C529.39 17.3235 529.193 17.5228 529.037 17.7785C528.885 18.0298 528.809 18.3158 528.809 18.6365V21.581H527.665V12.637H528.809V17.1935C528.848 17.0462 528.952 16.8858 529.121 16.7125C529.295 16.5392 529.516 16.3918 529.784 16.2705C530.053 16.1492 530.346 16.0885 530.662 16.0885ZM538.645 21.581V20.541C538.611 20.6493 538.509 20.7988 538.34 20.9895C538.175 21.1802 537.948 21.3535 537.657 21.5095C537.371 21.6612 537.033 21.737 536.643 21.737C536.149 21.737 535.701 21.62 535.298 21.386C534.899 21.152 534.581 20.8248 534.342 20.4045C534.108 19.9798 533.991 19.4837 533.991 18.916C533.991 18.3483 534.108 17.8543 534.342 17.434C534.581 17.0093 534.899 16.68 535.298 16.446C535.701 16.2077 536.149 16.0885 536.643 16.0885C537.029 16.0885 537.363 16.1578 537.644 16.2965C537.93 16.4352 538.158 16.5955 538.327 16.7775C538.5 16.9595 538.602 17.1155 538.632 17.2455V16.2445H539.75V21.581H538.645ZM535.109 18.916C535.109 19.3017 535.194 19.6353 535.363 19.917C535.532 20.1987 535.751 20.4175 536.019 20.5735C536.292 20.7252 536.583 20.801 536.89 20.801C537.22 20.801 537.514 20.723 537.774 20.567C538.034 20.411 538.24 20.1922 538.392 19.9105C538.543 19.6245 538.619 19.293 538.619 18.916C538.619 18.539 538.543 18.2097 538.392 17.928C538.24 17.642 538.034 17.421 537.774 17.265C537.514 17.1047 537.22 17.0245 536.89 17.0245C536.583 17.0245 536.292 17.1025 536.019 17.2585C535.751 17.4145 535.532 17.6333 535.363 17.915C535.194 18.1967 535.109 18.5303 535.109 18.916ZM540.728 16.2445H541.944L543.686 20.5345L545.428 16.2445H546.637L544.355 21.581H543.023L540.728 16.2445ZM548.406 19.1435C548.411 19.4642 548.48 19.7567 548.614 20.021C548.749 20.2853 548.948 20.4955 549.212 20.6515C549.481 20.8075 549.81 20.8855 550.2 20.8855C550.53 20.8855 550.809 20.8378 551.039 20.7425C551.273 20.6428 551.464 20.5258 551.611 20.3915C551.758 20.2528 551.864 20.1293 551.929 20.021L552.482 20.7035C552.339 20.9115 552.163 21.0935 551.955 21.2495C551.752 21.4055 551.503 21.5247 551.208 21.607C550.913 21.6937 550.554 21.737 550.129 21.737C549.557 21.737 549.061 21.6157 548.64 21.373C548.224 21.126 547.904 20.7858 547.678 20.3525C547.453 19.9148 547.34 19.4143 547.34 18.851C547.34 18.331 547.447 17.863 547.659 17.447C547.871 17.0267 548.179 16.6952 548.582 16.4525C548.989 16.2098 549.479 16.0885 550.051 16.0885C550.575 16.0885 551.03 16.199 551.416 16.42C551.806 16.6367 552.107 16.9443 552.319 17.343C552.536 17.7417 552.644 18.2183 552.644 18.773C552.644 18.8077 552.642 18.8705 552.638 18.9615C552.634 19.0482 552.629 19.1088 552.625 19.1435H548.406ZM551.565 18.292C551.561 18.1143 551.509 17.9193 551.409 17.707C551.314 17.4947 551.158 17.3127 550.941 17.161C550.725 17.0093 550.432 16.9335 550.064 16.9335C549.683 16.9335 549.375 17.0072 549.141 17.1545C548.911 17.3018 548.742 17.4817 548.634 17.694C548.526 17.902 548.463 18.1013 548.445 18.292H551.565ZM561.421 21.581V20.541C561.386 20.6493 561.284 20.7988 561.115 20.9895C560.95 21.1802 560.723 21.3535 560.433 21.5095C560.147 21.6612 559.809 21.737 559.419 21.737C558.925 21.737 558.476 21.62 558.073 21.386C557.674 21.152 557.356 20.8248 557.118 20.4045C556.884 19.9798 556.767 19.4837 556.767 18.916C556.767 18.3483 556.884 17.8543 557.118 17.434C557.356 17.0093 557.674 16.68 558.073 16.446C558.476 16.2077 558.925 16.0885 559.419 16.0885C559.804 16.0885 560.138 16.1578 560.42 16.2965C560.706 16.4352 560.933 16.5955 561.102 16.7775C561.275 16.9595 561.377 17.1155 561.408 17.2455V16.2445H562.526V21.581H561.421ZM557.885 18.916C557.885 19.3017 557.969 19.6353 558.138 19.917C558.307 20.1987 558.526 20.4175 558.795 20.5735C559.068 20.7252 559.358 20.801 559.666 20.801C559.995 20.801 560.29 20.723 560.55 20.567C560.81 20.411 561.015 20.1922 561.167 19.9105C561.319 19.6245 561.395 19.293 561.395 18.916C561.395 18.539 561.319 18.2097 561.167 17.928C561.015 17.642 560.81 17.421 560.55 17.265C560.29 17.1047 559.995 17.0245 559.666 17.0245C559.358 17.0245 559.068 17.1025 558.795 17.2585C558.526 17.4145 558.307 17.6333 558.138 17.915C557.969 18.1967 557.885 18.5303 557.885 18.916ZM567.02 16.0885C567.371 16.0885 567.711 16.1622 568.041 16.3095C568.374 16.4568 568.647 16.6908 568.86 17.0115C569.076 17.3278 569.185 17.7417 569.185 18.253V21.581H568.041V18.474C568.041 17.9453 567.917 17.5618 567.67 17.3235C567.423 17.0808 567.105 16.9595 566.715 16.9595C566.459 16.9595 566.212 17.0332 565.974 17.1805C565.74 17.3235 565.547 17.5228 565.395 17.7785C565.244 18.0298 565.168 18.3158 565.168 18.6365V21.581H564.037V16.2445H565.168V17.1935C565.207 17.0462 565.313 16.8858 565.486 16.7125C565.66 16.5392 565.881 16.3918 566.149 16.2705C566.418 16.1492 566.708 16.0885 567.02 16.0885ZM578.191 21.581V20.541C578.156 20.6493 578.055 20.7988 577.886 20.9895C577.721 21.1802 577.493 21.3535 577.203 21.5095C576.917 21.6612 576.579 21.737 576.189 21.737C575.695 21.737 575.247 21.62 574.844 21.386C574.445 21.152 574.126 20.8248 573.888 20.4045C573.654 19.9798 573.537 19.4837 573.537 18.916C573.537 18.3483 573.654 17.8543 573.888 17.434C574.126 17.0093 574.445 16.68 574.844 16.446C575.247 16.2077 575.695 16.0885 576.189 16.0885C576.575 16.0885 576.908 16.1578 577.19 16.2965C577.476 16.4352 577.704 16.5955 577.873 16.7775C578.046 16.9595 578.148 17.1155 578.178 17.2455V16.2445H579.296V21.581H578.191ZM574.655 18.916C574.655 19.3017 574.74 19.6353 574.909 19.917C575.078 20.1987 575.296 20.4175 575.565 20.5735C575.838 20.7252 576.128 20.801 576.436 20.801C576.765 20.801 577.06 20.723 577.32 20.567C577.58 20.411 577.786 20.1922 577.938 19.9105C578.089 19.6245 578.165 19.293 578.165 18.916C578.165 18.539 578.089 18.2097 577.938 17.928C577.786 17.642 577.58 17.421 577.32 17.265C577.06 17.1047 576.765 17.0245 576.436 17.0245C576.128 17.0245 575.838 17.1025 575.565 17.2585C575.296 17.4145 575.078 17.6333 574.909 17.915C574.74 18.1967 574.655 18.5303 574.655 18.916ZM583.323 20.801C583.661 20.801 583.934 20.7468 584.142 20.6385C584.35 20.5302 584.48 20.4522 584.532 20.4045L585.084 21.217C585.041 21.256 584.937 21.3188 584.772 21.4055C584.612 21.4878 584.404 21.5637 584.148 21.633C583.897 21.7023 583.611 21.737 583.29 21.737C582.801 21.737 582.346 21.6287 581.925 21.412C581.505 21.191 581.165 20.8703 580.905 20.45C580.649 20.0297 580.521 19.5162 580.521 18.9095C580.521 18.2985 580.649 17.785 580.905 17.369C581.165 16.9487 581.505 16.6302 581.925 16.4135C582.346 16.1968 582.801 16.0885 583.29 16.0885C583.607 16.0885 583.888 16.1275 584.135 16.2055C584.382 16.2792 584.586 16.3615 584.746 16.4525C584.907 16.5435 585.013 16.6128 585.065 16.6605L584.506 17.473C584.471 17.4383 584.404 17.3863 584.304 17.317C584.209 17.2433 584.079 17.1762 583.914 17.1155C583.75 17.0548 583.552 17.0245 583.323 17.0245C583.045 17.0245 582.775 17.1003 582.51 17.252C582.25 17.3993 582.036 17.6138 581.867 17.8955C581.698 18.1772 581.613 18.5152 581.613 18.9095C581.613 19.3038 581.698 19.644 581.867 19.93C582.036 20.2117 582.25 20.4283 582.51 20.58C582.775 20.7273 583.045 20.801 583.323 20.801ZM588.718 20.801C589.056 20.801 589.329 20.7468 589.537 20.6385C589.745 20.5302 589.875 20.4522 589.927 20.4045L590.48 21.217C590.437 21.256 590.333 21.3188 590.168 21.4055C590.008 21.4878 589.8 21.5637 589.544 21.633C589.293 21.7023 589.007 21.737 588.686 21.737C588.196 21.737 587.741 21.6287 587.321 21.412C586.901 21.191 586.56 20.8703 586.3 20.45C586.045 20.0297 585.917 19.5162 585.917 18.9095C585.917 18.2985 586.045 17.785 586.3 17.369C586.56 16.9487 586.901 16.6302 587.321 16.4135C587.741 16.1968 588.196 16.0885 588.686 16.0885C589.002 16.0885 589.284 16.1275 589.531 16.2055C589.778 16.2792 589.982 16.3615 590.142 16.4525C590.302 16.5435 590.408 16.6128 590.46 16.6605L589.901 17.473C589.867 17.4383 589.8 17.3863 589.7 17.317C589.605 17.2433 589.475 17.1762 589.31 17.1155C589.145 17.0548 588.948 17.0245 588.718 17.0245C588.441 17.0245 588.17 17.1003 587.906 17.252C587.646 17.3993 587.431 17.6138 587.262 17.8955C587.093 18.1772 587.009 18.5152 587.009 18.9095C587.009 19.3038 587.093 19.644 587.262 19.93C587.431 20.2117 587.646 20.4283 587.906 20.58C588.17 20.7273 588.441 20.801 588.718 20.801ZM594.068 21.737C593.518 21.737 593.028 21.6135 592.599 21.3665C592.175 21.1195 591.841 20.7858 591.598 20.3655C591.356 19.9408 591.234 19.462 591.234 18.929C591.234 18.396 591.356 17.915 591.598 17.486C591.841 17.057 592.175 16.7168 592.599 16.4655C593.028 16.2142 593.518 16.0885 594.068 16.0885C594.614 16.0885 595.098 16.2142 595.518 16.4655C595.943 16.7168 596.274 17.057 596.512 17.486C596.751 17.915 596.87 18.396 596.87 18.929C596.87 19.462 596.751 19.9408 596.512 20.3655C596.274 20.7858 595.943 21.1195 595.518 21.3665C595.098 21.6135 594.614 21.737 594.068 21.737ZM594.068 20.7685C594.415 20.7685 594.716 20.6883 594.972 20.528C595.232 20.3677 595.433 20.1488 595.576 19.8715C595.719 19.5898 595.791 19.2735 595.791 18.9225C595.791 18.5715 595.719 18.2552 595.576 17.9735C595.433 17.6918 595.232 17.4687 594.972 17.304C594.716 17.1393 594.415 17.057 594.068 17.057C593.717 17.057 593.412 17.1393 593.152 17.304C592.892 17.4687 592.688 17.6918 592.541 17.9735C592.398 18.2552 592.326 18.5715 592.326 18.9225C592.326 19.2735 592.398 19.5898 592.541 19.8715C592.688 20.1488 592.892 20.3677 593.152 20.528C593.412 20.6883 593.717 20.7685 594.068 20.7685ZM599.183 18.9355C599.183 19.4945 599.302 19.9408 599.541 20.2745C599.783 20.6038 600.154 20.7685 600.652 20.7685C601.155 20.7685 601.525 20.6038 601.764 20.2745C602.002 19.9408 602.121 19.4945 602.121 18.9355V16.2445H603.239V19.0915C603.239 19.6115 603.137 20.0708 602.934 20.4695C602.734 20.8682 602.442 21.1802 602.056 21.4055C601.675 21.6265 601.207 21.737 600.652 21.737C600.102 21.737 599.634 21.6265 599.248 21.4055C598.867 21.1802 598.574 20.8682 598.371 20.4695C598.171 20.0708 598.072 19.6115 598.072 19.0915V16.2445H599.183V18.9355ZM607.76 16.0885C608.111 16.0885 608.451 16.1622 608.78 16.3095C609.114 16.4568 609.387 16.6908 609.599 17.0115C609.816 17.3278 609.924 17.7417 609.924 18.253V21.581H608.78V18.474C608.78 17.9453 608.657 17.5618 608.41 17.3235C608.163 17.0808 607.844 16.9595 607.454 16.9595C607.198 16.9595 606.951 17.0332 606.713 17.1805C606.479 17.3235 606.286 17.5228 606.135 17.7785C605.983 18.0298 605.907 18.3158 605.907 18.6365V21.581H604.776V16.2445H605.907V17.1935C605.946 17.0462 606.052 16.8858 606.226 16.7125C606.399 16.5392 606.62 16.3918 606.889 16.2705C607.157 16.1492 607.448 16.0885 607.76 16.0885ZM610.948 16.2445H611.995V14.054H613.119V16.2445H614.491V17.213H613.119V19.852C613.119 20.164 613.173 20.3937 613.282 20.541C613.394 20.6883 613.544 20.762 613.73 20.762C613.895 20.762 614.023 20.7317 614.114 20.671C614.205 20.6103 614.259 20.5692 614.276 20.5475L614.725 21.3795C614.699 21.4012 614.629 21.4423 614.517 21.503C614.404 21.5637 614.259 21.6178 614.081 21.6655C613.903 21.7132 613.695 21.737 613.457 21.737C613.041 21.737 612.692 21.6113 612.411 21.36C612.133 21.1043 611.995 20.7013 611.995 20.151V17.213H610.948V16.2445ZM617.332 19.202V17.6225C617.332 17.3582 617.39 17.1523 617.507 17.005C617.624 16.8577 617.789 16.7233 618.001 16.602C618.192 16.485 618.385 16.3485 618.58 16.1925C618.775 16.0322 618.937 15.848 619.067 15.64C619.202 15.432 619.269 15.198 619.269 14.938C619.269 14.561 619.137 14.2815 618.872 14.0995C618.608 13.9132 618.257 13.82 617.819 13.82C617.512 13.82 617.247 13.8828 617.026 14.0085C616.805 14.1342 616.628 14.2837 616.493 14.457C616.363 14.626 616.277 14.782 616.233 14.925L615.291 14.522C615.299 14.4527 615.341 14.353 615.414 14.223C615.488 14.0887 615.592 13.9435 615.726 13.7875C615.865 13.6315 616.038 13.482 616.246 13.339C616.454 13.196 616.699 13.079 616.981 12.988C617.262 12.8927 617.581 12.845 617.936 12.845C618.443 12.845 618.885 12.9273 619.262 13.092C619.644 13.2523 619.938 13.4798 620.146 13.7745C620.354 14.0648 620.458 14.4072 620.458 14.8015C620.458 15.1655 620.376 15.4862 620.211 15.7635C620.047 16.0365 619.836 16.2792 619.581 16.4915C619.329 16.6995 619.072 16.8902 618.807 17.0635C618.617 17.1805 618.491 17.3062 618.43 17.4405C618.37 17.5705 618.339 17.7612 618.339 18.0125V19.202H617.332ZM617.845 21.737C617.607 21.737 617.401 21.6525 617.228 21.4835C617.059 21.3102 616.974 21.1043 616.974 20.866C616.974 20.619 617.059 20.411 617.228 20.242C617.401 20.0687 617.607 19.982 617.845 19.982C618.088 19.982 618.294 20.0687 618.463 20.242C618.636 20.411 618.723 20.619 618.723 20.866C618.723 21.1043 618.636 21.3102 618.463 21.4835C618.294 21.6525 618.088 21.737 617.845 21.737Z" fill="white"/>
<rect x="7.51219" y="6.44007" width="254.049" height="387.12" rx="10" fill="white"/>
<path d="M55.9884 160.677C55.9884 161.601 55.7269 162.503 55.237 163.271C54.7472 164.039 54.0509 164.637 53.2365 164.99C52.422 165.343 51.526 165.434 50.6618 165.253C49.7975 165.072 49.004 164.627 48.3816 163.973C47.7592 163.319 47.3359 162.486 47.1654 161.58C46.9948 160.674 47.0846 159.736 47.4234 158.883C47.7623 158.031 48.3349 157.303 49.0687 156.792C49.8026 156.28 50.6648 156.009 51.5461 156.011C52.7253 156.014 53.8552 156.507 54.688 157.382C55.5207 158.257 55.9884 159.442 55.9884 160.677Z" stroke="#202C89" stroke-width="2" stroke-linecap="round" stroke-linejoin="round"/>
<path d="M52.1766 168.01C50.1579 168.01 48.2213 168.852 46.7897 170.35C45.3581 171.849 44.548 173.884 44.5362 176.01H59.8058C59.794 173.886 58.9854 171.853 57.5563 170.355C56.1271 168.856 54.1933 168.013 52.1766 168.01Z" stroke="#202C89" stroke-width="2" stroke-linecap="round" stroke-linejoin="round"/>
<path d="M57.8243 216.008H46.5177C45.4234 216.008 44.5362 217.008 44.5362 218.242V227.107C44.5362 228.341 45.4234 229.341 46.5177 229.341H57.8243C58.9187 229.341 59.8058 228.341 59.8058 227.107V218.242C59.8058 217.008 58.9187 216.008 57.8243 216.008Z" stroke="#202C89" stroke-width="2" stroke-linecap="round" stroke-linejoin="round"/>
<path d="M47.0812 216.008V214.624C47.141 213.202 47.7034 211.859 48.6514 210.875C49.5993 209.891 50.8599 209.342 52.171 209.342C53.4821 209.342 54.7427 209.891 55.6907 210.875C56.6387 211.859 57.201 213.202 57.2609 214.624V216.008" stroke="#202C89" stroke-width="2" stroke-linecap="round" stroke-linejoin="round"/>
<path d="M24.6395 19.7492L25.9829 20.2067C25.7018 20.6656 25.3085 21.0371 24.8438 21.2826C24.3792 21.5281 23.8602 21.6386 23.3409 21.6025C22.524 21.6519 21.7209 21.3658 21.102 20.8049C20.832 20.5383 20.6202 20.2137 20.4811 19.8533C20.342 19.493 20.2789 19.1054 20.296 18.717C20.2856 18.3118 20.3536 17.9085 20.496 17.5315C20.6384 17.1545 20.8522 16.8117 21.1244 16.5236C21.3994 16.231 21.7296 16.0017 22.0939 15.8502C22.4581 15.6987 22.8485 15.6285 23.2402 15.6439C23.8125 15.635 24.3742 15.8067 24.8522 16.1365C25.2767 16.4387 25.6044 16.8679 25.7926 17.3681C25.9722 17.8907 26.0594 18.4432 26.0501 18.9985H22.0088C22.0017 19.2077 22.0404 19.4158 22.1219 19.6069C22.2034 19.7981 22.3255 19.9671 22.479 20.1011C22.7434 20.3026 23.059 20.4169 23.3857 20.4296C23.6279 20.4118 23.8641 20.3422 24.0798 20.2252C24.2954 20.1082 24.4859 19.9463 24.6395 19.7492ZM24.3149 17.9898C24.2882 17.7029 24.1833 17.43 24.0126 17.2039C23.9067 17.0938 23.7808 17.007 23.6424 16.9485C23.504 16.8901 23.3558 16.8613 23.2066 16.8638C22.5685 16.8638 22.1991 17.2508 22.0871 18.0367L24.3149 17.9898Z" fill="#1E2C90"/>
<path d="M32.9684 21.4735H31.0205V18.7757C31.0317 18.5569 31.0317 18.3376 31.0205 18.1188C31.0162 17.952 30.9781 17.788 30.9085 17.6379C30.8401 17.519 30.7385 17.4248 30.6175 17.3681C30.4555 17.3104 30.2844 17.2865 30.1137 17.2977C29.9509 17.2973 29.7888 17.321 29.6323 17.3681C29.4521 17.4383 29.2763 17.5206 29.1062 17.6144V21.4735H27.1135V16.0309H29.0726V16.6409C29.3573 16.3985 29.6694 16.1936 30.0018 16.0309C30.3223 15.8987 30.6649 15.8349 31.0093 15.8433C31.2744 15.8205 31.5411 15.8545 31.7932 15.9432C32.0453 16.032 32.2776 16.1735 32.4758 16.3594C32.6581 16.5708 32.796 16.8199 32.8809 17.0906C32.9657 17.3613 32.9955 17.6476 32.9684 17.9311V21.4735Z" fill="#1E2C90"/>
<path d="M38.0283 21.2272V20.5703C37.8314 20.8584 37.573 21.0943 37.2737 21.2593C36.9744 21.4242 36.6425 21.5136 36.3044 21.5204C35.9716 21.5291 35.6411 21.4599 35.3371 21.3178C35.0331 21.1758 34.7631 20.9645 34.5468 20.6994C34.0765 20.1314 33.8286 19.3982 33.8527 18.6467C33.8344 17.8969 34.0953 17.169 34.5804 16.6174C34.7944 16.3517 35.0621 16.1391 35.3641 15.9951C35.6661 15.8511 35.995 15.7792 36.3268 15.7846C36.6535 15.8067 36.9724 15.8994 37.2633 16.0568C37.5542 16.2143 37.8109 16.4331 38.0171 16.6995V15.9254H39.6852V21.626C39.6657 22.0091 39.5623 22.3824 39.3829 22.7169C39.1706 23.1426 38.8097 23.4662 38.3754 23.62C37.8486 23.8224 37.2908 23.9218 36.7298 23.9133C36.0833 23.9433 35.4411 23.7893 34.8714 23.4676C34.3725 23.1145 34.0173 22.5791 33.8751 21.9662H35.7334C35.8591 22.1829 36.0324 22.3652 36.2387 22.4978C36.4451 22.6304 36.6787 22.7095 36.9201 22.7286C37.0754 22.7291 37.2288 22.6923 37.3685 22.6212C37.5082 22.55 37.6305 22.4463 37.7261 22.3181C37.9362 21.9979 38.0422 21.6154 38.0283 21.2272ZM35.6215 18.6936C35.6249 18.8533 35.6595 19.0106 35.723 19.1558C35.7865 19.301 35.8777 19.4311 35.9909 19.5381C36.0984 19.6699 36.2325 19.7751 36.3835 19.8461C36.5345 19.9171 36.6986 19.9521 36.8641 19.9487C37.0203 19.9483 37.1747 19.9136 37.3174 19.847C37.4601 19.7803 37.5878 19.6831 37.6925 19.5616C37.9087 19.2945 38.0273 18.9558 38.0273 18.6056C38.0273 18.2555 37.9087 17.9167 37.6925 17.6496C37.5833 17.5294 37.451 17.4348 37.3044 17.3722C37.1577 17.3095 37 17.2801 36.8417 17.286C36.6761 17.2779 36.5109 17.3084 36.358 17.3754C36.205 17.4423 36.0682 17.544 35.9573 17.6731C35.8384 17.8106 35.7474 17.9719 35.6896 18.1473C35.6319 18.3227 35.6087 18.5085 35.6215 18.6936Z" fill="#1E2C90"/>
<path d="M41.0845 12.8405H43.0436V18.154L44.9467 15.9606H47.2752L45.1146 18.4473L47.5214 21.6025H45.2825L43.0436 18.6115V21.6025H41.0845V12.8405Z" fill="#1E2C90"/>
<path d="M47.9804 15.8667H49.6148V18.5763C49.6043 18.9241 49.7025 19.266 49.8947 19.5499C49.9732 19.6697 50.0785 19.7677 50.2014 19.8352C50.3244 19.9026 50.4612 19.9376 50.5999 19.9369C50.7438 19.937 50.8858 19.9034 51.0156 19.8384C51.1454 19.7735 51.2597 19.6789 51.35 19.5616C51.5532 19.2914 51.6601 18.9554 51.6522 18.6115V15.8667H53.2867V19.151C53.2914 19.4833 53.2256 19.8125 53.0939 20.1147C52.9622 20.417 52.7681 20.6848 52.5254 20.8988C52.0029 21.3765 51.3266 21.6281 50.6335 21.6025C49.927 21.6377 49.2355 21.3808 48.708 20.887C48.4643 20.648 48.2731 20.3564 48.1475 20.0324C48.0218 19.7084 47.9648 19.3597 47.9804 19.0103V15.8667Z" fill="#1E2C90"/>
<path d="M58.5369 19.5499V21.2272C58.1199 21.4532 57.6623 21.5851 57.1936 21.6143C56.8363 21.6236 56.4808 21.5591 56.1473 21.4245C55.8139 21.2898 55.509 21.0876 55.2501 20.8295C54.9913 20.5713 54.7835 20.2622 54.6387 19.9199C54.4938 19.5776 54.4148 19.2087 54.4061 18.8343V18.6819C54.3803 17.9076 54.6456 17.1536 55.145 16.5822C55.3825 16.3094 55.6735 16.0936 55.9982 15.9499C56.3229 15.8061 56.6734 15.7377 57.0257 15.7494C57.5599 15.7527 58.0857 15.8894 58.5593 16.1483V17.6731C58.1681 17.4582 57.7358 17.338 57.2943 17.3212C57.1377 17.3123 56.981 17.338 56.8344 17.3966C56.6879 17.4552 56.5547 17.5454 56.4435 17.6614C56.232 17.9089 56.1197 18.2324 56.1301 18.5646C56.1185 18.7298 56.1405 18.8957 56.1945 19.0513C56.2485 19.207 56.3334 19.3489 56.4435 19.4677C56.5524 19.5844 56.6834 19.6759 56.8279 19.7365C56.9725 19.7971 57.1275 19.8254 57.2831 19.8196C57.7128 19.8059 58.1369 19.7146 58.5369 19.5499Z" fill="#1E2C90"/>
<path d="M59.6676 13.0282H61.3916V21.5204H59.6676V13.0282Z" fill="#1E2C90"/>
<path d="M66.877 19.7258L68.2204 20.1833C67.9388 20.6409 67.545 21.0107 67.0802 21.2542C66.6154 21.4977 66.0967 21.6059 65.5784 21.5674C65.1742 21.5972 64.7684 21.5431 64.3842 21.4083C64 21.2734 63.645 21.0604 63.3395 20.7815C63.0713 20.5134 62.8607 20.1886 62.7217 19.8286C62.5827 19.4685 62.5185 19.0816 62.5335 18.6936C62.5123 17.9011 62.7912 17.1319 63.3092 16.554C63.8272 15.9761 64.5423 15.6363 65.2985 15.6087H65.4329C66.0052 15.5998 66.5669 15.7715 67.0449 16.1013C67.4635 16.3847 67.7911 16.7934 67.9853 17.2743C68.1657 17.8007 68.253 18.3572 68.2427 18.9165H64.2462C64.2366 19.126 64.2741 19.335 64.3558 19.5265C64.4375 19.7181 64.561 19.8868 64.7164 20.019C64.9791 20.2224 65.2966 20.3333 65.6232 20.3357C66.101 20.3113 66.5509 20.0925 66.877 19.7258ZM66.5523 17.9663C66.5173 17.6626 66.3964 17.3767 66.2053 17.1453C66.1047 17.0383 65.9843 16.954 65.8515 16.8975C65.7186 16.841 65.5762 16.8136 65.4329 16.8168C64.7948 16.8168 64.4254 17.1922 64.3134 17.9898L66.5523 17.9663Z" fill="#1E2C90"/>
<path d="M73.5267 21.4852V20.5469C73.3024 20.8622 73.0255 21.1324 72.7094 21.3445C72.3956 21.5155 72.0441 21.5965 71.6907 21.5791C71.3515 21.587 71.015 21.514 70.7066 21.3657C70.3983 21.2174 70.1261 20.9975 69.9108 20.7228C69.4349 20.1761 69.171 19.4629 69.171 18.7229C69.171 17.9829 69.4349 17.2697 69.9108 16.723C70.1371 16.4567 70.4148 16.2437 70.7255 16.0982C71.0362 15.9526 71.3728 15.8777 71.7131 15.8785C72.023 15.8774 72.3291 15.9495 72.6087 16.0896C72.9204 16.2647 73.2038 16.4904 73.4483 16.7582V16.0309H75.1723V21.4735L73.5267 21.4852ZM72.1497 17.4502L72.0042 17.6966C71.7814 18.0807 71.4695 18.3995 71.0974 18.6232L70.8623 18.7757L71.0638 18.9047C71.43 19.1336 71.7343 19.4566 71.9482 19.8431L72.1161 20.1598L72.2729 19.8548C72.4696 19.447 72.788 19.1175 73.1796 18.9164L73.4595 18.7757L73.2356 18.6467C72.8456 18.4254 72.5205 18.0969 72.2952 17.6966L72.1497 17.4502Z" fill="#1E2C90"/>
<path d="M81.9674 21.4852H79.986V18.1306C79.9728 17.9638 79.9311 17.8009 79.8628 17.6497C79.8005 17.5255 79.697 17.4296 79.5718 17.3799C79.4099 17.3222 79.2387 17.2983 79.068 17.3095C78.9052 17.309 78.7431 17.3327 78.5866 17.3799C78.4064 17.4501 78.2306 17.5323 78.0605 17.6262V21.4852H76.1014V16.031H78.0493V16.6292C78.3405 16.3998 78.6516 16.1995 78.9785 16.031C79.2999 15.9006 79.6413 15.833 79.986 15.8316C80.2516 15.8137 80.5179 15.8512 80.7696 15.9418C81.0213 16.0323 81.2534 16.1743 81.4525 16.3594C81.6335 16.563 81.7726 16.8034 81.8612 17.0657C81.9498 17.3281 81.986 17.6067 81.9674 17.8842V21.4852Z" fill="#1E2C90"/>
<path d="M17.2174 21.6025C16.8397 21.6145 16.4623 21.567 16.098 21.4618C15.8144 21.379 15.5374 21.2731 15.2696 21.1451V19.6437H15.4487L15.7062 19.8548C15.8324 19.9506 15.9674 20.0331 16.1092 20.1012C16.2712 20.1829 16.4398 20.2496 16.6129 20.3006C16.8099 20.3567 17.0133 20.3843 17.2174 20.3827C17.4211 20.3904 17.6238 20.3504 17.8108 20.2654C17.8609 20.2517 17.9079 20.2278 17.9492 20.1951C17.9904 20.1623 18.025 20.1212 18.0511 20.0743C18.0771 20.0274 18.094 19.9756 18.1008 19.9218C18.1076 19.868 18.1041 19.8134 18.0906 19.761C18.0676 19.6778 18.0207 19.6041 17.9563 19.5499C17.8147 19.4602 17.6594 19.3967 17.4973 19.3622L17.0383 19.2566C16.8711 19.2221 16.7065 19.1751 16.5458 19.1159C16.1918 19.0128 15.8758 18.8002 15.639 18.5059C15.4276 18.1953 15.3212 17.8197 15.3367 17.4385C15.3379 17.1908 15.3914 16.9465 15.4935 16.723C15.6052 16.489 15.7659 16.2845 15.9636 16.1248C16.1844 15.9359 16.4396 15.7962 16.7137 15.7143C17.039 15.6048 17.3796 15.5532 17.7212 15.5618C18.0529 15.5595 18.3836 15.5989 18.7063 15.6791C18.9697 15.7722 19.2244 15.8899 19.4676 16.031V17.4502H19.3444L19.0758 17.2626L18.7399 17.0514C18.597 16.9794 18.4468 16.9243 18.2921 16.8872C18.1242 16.8401 17.951 16.8164 17.7772 16.8168C17.5762 16.8121 17.3769 16.8562 17.195 16.9459C17.1287 16.9761 17.0716 17.0249 17.0301 17.087C16.9886 17.1491 16.9643 17.2221 16.96 17.2978C16.9555 17.3541 16.9632 17.4109 16.9826 17.4637C17.002 17.5165 17.0325 17.564 17.0719 17.6027C17.2285 17.7106 17.4033 17.7862 17.5869 17.8256L18.057 17.9312C18.2316 17.9656 18.4036 18.0127 18.572 18.0719C18.8954 18.1754 19.1832 18.3751 19.4004 18.6467C19.6014 18.9443 19.7036 19.3028 19.6915 19.6672C19.6923 19.933 19.6341 20.1954 19.5214 20.4336C19.4087 20.6718 19.2446 20.8793 19.0422 21.0395C18.8126 21.2277 18.5503 21.3672 18.2697 21.4501C17.9277 21.5533 17.5734 21.6046 17.2174 21.6025Z" fill="#1E2C90"/>
<path d="M107.498 108.16H111.086V120.856H116.834V124H107.498V108.16ZM124.196 124.288C123.116 124.288 122.156 124.068 121.316 123.628C120.484 123.18 119.828 122.568 119.348 121.792C118.876 121.008 118.64 120.112 118.64 119.104C118.64 118.096 118.876 117.2 119.348 116.416C119.828 115.624 120.484 115 121.316 114.544C122.156 114.088 123.116 113.86 124.196 113.86C125.276 113.86 126.228 114.088 127.052 114.544C127.876 115 128.52 115.624 128.984 116.416C129.448 117.2 129.68 118.096 129.68 119.104C129.68 120.112 129.448 121.008 128.984 121.792C128.52 122.568 127.876 123.18 127.052 123.628C126.228 124.068 125.276 124.288 124.196 124.288ZM124.196 121.288C124.612 121.288 124.972 121.196 125.276 121.012C125.58 120.828 125.816 120.568 125.984 120.232C126.152 119.896 126.236 119.516 126.236 119.092C126.236 118.66 126.152 118.276 125.984 117.94C125.816 117.604 125.58 117.34 125.276 117.148C124.972 116.956 124.612 116.86 124.196 116.86C123.78 116.86 123.416 116.956 123.104 117.148C122.8 117.34 122.56 117.604 122.384 117.94C122.216 118.276 122.132 118.66 122.132 119.092C122.132 119.516 122.216 119.896 122.384 120.232C122.56 120.568 122.8 120.828 123.104 121.012C123.416 121.196 123.78 121.288 124.196 121.288ZM136.75 129.268C136.062 129.268 135.378 129.208 134.698 129.088C134.026 128.968 133.398 128.764 132.814 128.476C132.23 128.188 131.738 127.792 131.338 127.288L133.474 125.068C133.658 125.284 133.882 125.496 134.146 125.704C134.418 125.912 134.75 126.084 135.142 126.22C135.542 126.356 136.026 126.424 136.594 126.424C137.122 126.424 137.582 126.332 137.974 126.148C138.366 125.964 138.67 125.696 138.886 125.344C139.11 124.992 139.222 124.564 139.222 124.06V123.82H142.81V124.276C142.81 125.364 142.538 126.28 141.994 127.024C141.458 127.768 140.734 128.328 139.822 128.704C138.91 129.08 137.886 129.268 136.75 129.268ZM139.222 124V122.404C139.15 122.564 138.966 122.796 138.67 123.1C138.382 123.404 137.998 123.68 137.518 123.928C137.038 124.168 136.478 124.288 135.838 124.288C134.878 124.288 134.038 124.056 133.318 123.592C132.598 123.12 132.038 122.492 131.638 121.708C131.238 120.916 131.038 120.04 131.038 119.08C131.038 118.12 131.238 117.248 131.638 116.464C132.038 115.672 132.598 115.04 133.318 114.568C134.038 114.096 134.878 113.86 135.838 113.86C136.454 113.86 136.994 113.96 137.458 114.16C137.922 114.352 138.298 114.584 138.586 114.856C138.874 115.12 139.074 115.364 139.186 115.588V114.148H142.81V124H139.222ZM134.614 119.08C134.614 119.528 134.718 119.932 134.926 120.292C135.134 120.644 135.41 120.92 135.754 121.12C136.106 121.32 136.494 121.42 136.918 121.42C137.358 121.42 137.746 121.32 138.082 121.12C138.418 120.92 138.682 120.644 138.874 120.292C139.074 119.932 139.174 119.528 139.174 119.08C139.174 118.632 139.074 118.232 138.874 117.88C138.682 117.52 138.418 117.24 138.082 117.04C137.746 116.832 137.358 116.728 136.918 116.728C136.494 116.728 136.106 116.832 135.754 117.04C135.41 117.24 135.134 117.52 134.926 117.88C134.718 118.232 134.614 118.632 134.614 119.08ZM145.269 124V114.148H148.917V124H145.269ZM147.141 112.12C146.565 112.12 146.077 111.92 145.677 111.52C145.277 111.112 145.077 110.628 145.077 110.068C145.077 109.508 145.277 109.024 145.677 108.616C146.085 108.2 146.573 107.992 147.141 107.992C147.517 107.992 147.861 108.088 148.173 108.28C148.485 108.464 148.737 108.712 148.929 109.024C149.121 109.336 149.217 109.684 149.217 110.068C149.217 110.628 149.013 111.112 148.605 111.52C148.197 111.92 147.709 112.12 147.141 112.12ZM158.21 113.86C158.898 113.86 159.57 114 160.226 114.28C160.882 114.56 161.422 115.004 161.846 115.612C162.27 116.212 162.482 117.004 162.482 117.988V124H158.822V118.588C158.822 117.884 158.654 117.356 158.318 117.004C157.982 116.644 157.542 116.464 156.998 116.464C156.638 116.464 156.298 116.56 155.978 116.752C155.666 116.936 155.41 117.2 155.21 117.544C155.018 117.88 154.922 118.268 154.922 118.708V124H151.274V114.148H154.922V115.6C155.018 115.336 155.218 115.072 155.522 114.808C155.834 114.536 156.222 114.312 156.686 114.136C157.158 113.952 157.666 113.86 158.21 113.86Z" fill="#1E2C90"/>
</svg>
