<svg width="550" height="300" viewBox="0 0 550 300" fill="none" xmlns="http://www.w3.org/2000/svg">
<rect width="550" height="300" rx="10" fill="#1E2C90"/>
<rect x="175" y="5" width="200" height="290" rx="10" fill="white"/>
<path d="M213 78.5C213 79.1926 212.794 79.8697 212.41 80.4454C212.025 81.0212 211.477 81.4698 210.837 81.7344C210.197 81.9991 209.493 82.0679 208.814 81.9321C208.135 81.7963 207.511 81.4621 207.022 80.9717C206.533 80.4813 206.2 79.8569 206.066 79.1774C205.932 78.4978 206.003 77.7938 206.269 77.1544C206.535 76.5151 206.985 75.969 207.562 75.5855C208.139 75.202 208.816 74.9982 209.509 75C210.436 75.0024 211.324 75.3722 211.978 76.0283C212.632 76.6844 213 77.5733 213 78.5Z" stroke="#202C89" stroke-width="1.5" stroke-linecap="round" stroke-linejoin="round"/>
<path d="M210.004 84C208.418 84 206.896 84.631 205.771 85.7552C204.646 86.8794 204.009 88.4055 204 90H216C215.991 88.407 215.355 86.8823 214.232 85.7583C213.109 84.6343 211.589 84.0023 210.004 84Z" stroke="#202C89" stroke-width="1.5" stroke-linecap="round" stroke-linejoin="round"/>
<rect x="226.5" y="73.5" width="119" height="17" rx="4.5" fill="white" stroke="#202C89"/>
<path d="M214.443 109H205.557C204.697 109 204 109.75 204 110.675V117.325C204 118.25 204.697 119 205.557 119H214.443C215.303 119 216 118.25 216 117.325V110.675C216 109.75 215.303 109 214.443 109Z" stroke="#202C89" stroke-width="1.5" stroke-linecap="round" stroke-linejoin="round"/>
<path d="M206 109V107.962C206.047 106.895 206.489 105.888 207.234 105.15C207.979 104.412 208.97 104 210 104C211.03 104 212.021 104.412 212.766 105.15C213.511 105.888 213.953 106.895 214 107.962V109" stroke="#202C89" stroke-width="1.5" stroke-linecap="round" stroke-linejoin="round"/>
<rect x="226.5" y="102.5" width="119" height="17" rx="4.5" fill="white" stroke="#202C89"/>
<path d="M214.443 138H205.557C204.697 138 204 138.75 204 139.675V146.325C204 147.25 204.697 148 205.557 148H214.443C215.303 148 216 147.25 216 146.325V139.675C216 138.75 215.303 138 214.443 138Z" stroke="#202C89" stroke-width="1.5" stroke-linecap="round" stroke-linejoin="round"/>
<path d="M206 138V136.962C206.047 135.895 206.489 134.888 207.234 134.15C207.979 133.412 208.97 133 210 133C211.03 133 212.021 133.412 212.766 134.15C213.511 134.888 213.953 135.895 214 136.962V138" stroke="#202C89" stroke-width="1.5" stroke-linecap="round" stroke-linejoin="round"/>
<rect x="226.5" y="131.5" width="119" height="17" rx="4.5" fill="white" stroke="#202C89"/>
<rect x="226.5" y="159.5" width="119" height="17" rx="4.5" fill="white" stroke="#202C89"/>
<path d="M202.029 163.531V172.082C202.029 172.35 202.135 172.607 202.325 172.797C202.515 172.986 202.772 173.093 203.04 173.093H205.463V167.339L209.5 170.399L213.538 167.339V173.093H215.96C216.228 173.093 216.486 172.986 216.675 172.797C216.865 172.607 216.972 172.35 216.972 172.082V163.531C216.967 163.236 216.882 162.949 216.726 162.699C216.57 162.45 216.349 162.248 216.087 162.115C215.824 161.982 215.53 161.923 215.237 161.945C214.943 161.966 214.661 162.068 214.422 162.239L209.5 165.953L204.621 162.239C204.381 162.056 204.095 161.944 203.795 161.916C203.495 161.888 203.193 161.944 202.923 162.079C202.653 162.213 202.427 162.42 202.269 162.677C202.111 162.933 202.027 163.229 202.029 163.531Z" stroke="#1E2C90" stroke-width="1.3" stroke-linejoin="round"/>
<rect x="226.5" y="188.5" width="119" height="17" rx="4.5" fill="white" stroke="#202C89"/>
<path d="M211.439 200.784L212.547 199.675C212.718 199.502 212.921 199.365 213.144 199.271C213.368 199.178 213.609 199.13 213.851 199.13C214.094 199.13 214.334 199.178 214.558 199.271C214.782 199.365 214.985 199.502 215.155 199.675L216.455 200.975C216.628 201.146 216.765 201.349 216.858 201.573C216.952 201.797 217 202.037 217 202.28C217 202.523 216.952 202.763 216.858 202.987C216.765 203.211 216.628 203.414 216.455 203.584L215.864 204.185C215.456 204.596 214.929 204.869 214.357 204.963C213.785 205.058 213.199 204.969 212.68 204.71C208.221 202.413 204.588 198.782 202.289 194.323C202.03 193.804 201.942 193.216 202.038 192.644C202.134 192.072 202.408 191.544 202.822 191.138L203.414 190.538C203.761 190.193 204.229 190 204.718 190C205.207 190 205.676 190.193 206.022 190.538L207.331 191.847C207.675 192.194 207.868 192.663 207.868 193.152C207.868 193.64 207.675 194.109 207.331 194.456L206.222 195.565C206.955 196.557 207.76 197.493 208.63 198.366C209.496 199.233 210.426 200.033 211.414 200.759L211.439 200.784Z" stroke="#1E2C90" stroke-linecap="round" stroke-linejoin="round"/>
<rect x="225" y="230" width="100" height="25" rx="10" fill="#1E2C90"/>
<path d="M259.109 238.28C259.519 238.28 259.877 238.325 260.184 238.415C260.491 238.505 260.737 238.6 260.924 238.7C261.111 238.8 261.224 238.867 261.264 238.9L260.544 240.105C260.491 240.065 260.399 240.007 260.269 239.93C260.142 239.853 259.991 239.785 259.814 239.725C259.641 239.665 259.459 239.635 259.269 239.635C259.012 239.635 258.804 239.682 258.644 239.775C258.487 239.865 258.409 240 258.409 240.18C258.409 240.303 258.451 240.415 258.534 240.515C258.621 240.612 258.751 240.705 258.924 240.795C259.101 240.882 259.324 240.977 259.594 241.08C259.841 241.17 260.072 241.277 260.289 241.4C260.506 241.523 260.696 241.67 260.859 241.84C261.026 242.007 261.157 242.2 261.254 242.42C261.351 242.64 261.399 242.89 261.399 243.17C261.399 243.503 261.331 243.793 261.194 244.04C261.057 244.283 260.871 244.485 260.634 244.645C260.401 244.805 260.134 244.923 259.834 245C259.537 245.08 259.229 245.12 258.909 245.12C258.456 245.12 258.049 245.068 257.689 244.965C257.332 244.862 257.044 244.75 256.824 244.63C256.604 244.51 256.472 244.43 256.429 244.39L257.174 243.135C257.214 243.165 257.291 243.213 257.404 243.28C257.521 243.347 257.662 243.417 257.829 243.49C257.996 243.56 258.172 243.62 258.359 243.67C258.549 243.72 258.736 243.745 258.919 243.745C259.226 243.745 259.456 243.687 259.609 243.57C259.762 243.45 259.839 243.293 259.839 243.1C259.839 242.957 259.791 242.828 259.694 242.715C259.597 242.602 259.452 242.495 259.259 242.395C259.066 242.292 258.824 242.183 258.534 242.07C258.244 241.953 257.972 241.812 257.719 241.645C257.469 241.478 257.266 241.27 257.109 241.02C256.952 240.77 256.874 240.46 256.874 240.09C256.874 239.72 256.977 239.4 257.184 239.13C257.394 238.857 257.669 238.647 258.009 238.5C258.352 238.353 258.719 238.28 259.109 238.28ZM262.355 238.4H263.85V245H262.355V238.4ZM268.135 241.31H271.5V241.73C271.5 242.203 271.42 242.645 271.26 243.055C271.103 243.465 270.878 243.825 270.585 244.135C270.292 244.445 269.942 244.687 269.535 244.86C269.128 245.033 268.678 245.12 268.185 245.12C267.675 245.12 267.212 245.033 266.795 244.86C266.382 244.683 266.025 244.438 265.725 244.125C265.425 243.812 265.195 243.448 265.035 243.035C264.875 242.618 264.795 242.172 264.795 241.695C264.795 241.222 264.875 240.778 265.035 240.365C265.195 239.948 265.425 239.585 265.725 239.275C266.025 238.962 266.382 238.718 266.795 238.545C267.212 238.368 267.675 238.28 268.185 238.28C268.602 238.28 268.968 238.325 269.285 238.415C269.605 238.505 269.88 238.625 270.11 238.775C270.34 238.925 270.535 239.09 270.695 239.27C270.855 239.447 270.988 239.62 271.095 239.79L269.675 240.46C269.538 240.25 269.352 240.067 269.115 239.91C268.882 239.753 268.572 239.675 268.185 239.675C267.915 239.675 267.667 239.728 267.44 239.835C267.217 239.942 267.023 240.088 266.86 240.275C266.697 240.458 266.57 240.673 266.48 240.92C266.393 241.163 266.35 241.422 266.35 241.695C266.35 241.972 266.393 242.232 266.48 242.475C266.57 242.718 266.697 242.933 266.86 243.12C267.023 243.307 267.217 243.453 267.44 243.56C267.667 243.663 267.915 243.715 268.185 243.715C268.422 243.715 268.637 243.685 268.83 243.625C269.023 243.565 269.19 243.478 269.33 243.365C269.473 243.252 269.585 243.118 269.665 242.965C269.748 242.808 269.798 242.637 269.815 242.45H268.135V241.31ZM273.743 239.77L273.853 239.79V245H272.358V238.4H274.398L277.073 243.6L276.963 243.62V238.4H278.458V245H276.408L273.743 239.77ZM286.046 238.4H287.541V242.455C287.541 242.998 287.435 243.47 287.221 243.87C287.008 244.267 286.703 244.575 286.306 244.795C285.91 245.012 285.436 245.12 284.886 245.12C284.333 245.12 283.856 245.012 283.456 244.795C283.056 244.575 282.75 244.267 282.536 243.87C282.326 243.47 282.221 242.998 282.221 242.455V238.4H283.711V242.375C283.711 242.675 283.758 242.928 283.851 243.135C283.948 243.342 284.085 243.498 284.261 243.605C284.438 243.708 284.646 243.76 284.886 243.76C285.123 243.76 285.328 243.708 285.501 243.605C285.675 243.498 285.808 243.342 285.901 243.135C285.998 242.928 286.046 242.675 286.046 242.375V238.4ZM288.609 238.4H291.009C291.432 238.4 291.814 238.475 292.154 238.625C292.494 238.772 292.764 238.997 292.964 239.3C293.167 239.6 293.269 239.977 293.269 240.43C293.269 240.88 293.167 241.263 292.964 241.58C292.764 241.893 292.494 242.133 292.154 242.3C291.814 242.463 291.432 242.545 291.009 242.545H290.104V245H288.609V238.4ZM290.104 241.365H290.594C290.797 241.365 290.979 241.335 291.139 241.275C291.302 241.215 291.432 241.12 291.529 240.99C291.625 240.857 291.674 240.682 291.674 240.465C291.674 240.245 291.625 240.072 291.529 239.945C291.432 239.815 291.302 239.722 291.139 239.665C290.979 239.608 290.797 239.58 290.594 239.58H290.104V241.365Z" fill="white"/>
<path d="M259.585 37.936C260.077 37.936 260.507 37.99 260.875 38.098C261.243 38.206 261.539 38.32 261.763 38.44C261.987 38.56 262.123 38.64 262.171 38.68L261.307 40.126C261.243 40.078 261.133 40.008 260.977 39.916C260.825 39.824 260.643 39.742 260.431 39.67C260.223 39.598 260.005 39.562 259.777 39.562C259.469 39.562 259.219 39.618 259.027 39.73C258.839 39.838 258.745 40 258.745 40.216C258.745 40.364 258.795 40.498 258.895 40.618C258.999 40.734 259.155 40.846 259.363 40.954C259.575 41.058 259.843 41.172 260.167 41.296C260.463 41.404 260.741 41.532 261.001 41.68C261.261 41.828 261.489 42.004 261.685 42.208C261.885 42.408 262.043 42.64 262.159 42.904C262.275 43.168 262.333 43.468 262.333 43.804C262.333 44.204 262.251 44.552 262.087 44.848C261.923 45.14 261.699 45.382 261.415 45.574C261.135 45.766 260.815 45.908 260.455 46C260.099 46.096 259.729 46.144 259.345 46.144C258.801 46.144 258.313 46.082 257.881 45.958C257.453 45.834 257.107 45.7 256.843 45.556C256.579 45.412 256.421 45.316 256.369 45.268L257.263 43.762C257.311 43.798 257.403 43.856 257.539 43.936C257.679 44.016 257.849 44.1 258.049 44.188C258.249 44.272 258.461 44.344 258.685 44.404C258.913 44.464 259.137 44.494 259.357 44.494C259.725 44.494 260.001 44.424 260.185 44.284C260.369 44.14 260.461 43.952 260.461 43.72C260.461 43.548 260.403 43.394 260.287 43.258C260.171 43.122 259.997 42.994 259.765 42.874C259.533 42.75 259.243 42.62 258.895 42.484C258.547 42.344 258.221 42.174 257.917 41.974C257.617 41.774 257.373 41.524 257.185 41.224C256.997 40.924 256.903 40.552 256.903 40.108C256.903 39.664 257.027 39.28 257.275 38.956C257.527 38.628 257.857 38.376 258.265 38.2C258.677 38.024 259.117 37.936 259.585 37.936ZM263.48 46V41.074H265.304V46H263.48ZM264.416 40.06C264.128 40.06 263.884 39.96 263.684 39.76C263.484 39.556 263.384 39.314 263.384 39.034C263.384 38.754 263.484 38.512 263.684 38.308C263.888 38.1 264.132 37.996 264.416 37.996C264.604 37.996 264.776 38.044 264.932 38.14C265.088 38.232 265.214 38.356 265.31 38.512C265.406 38.668 265.454 38.842 265.454 39.034C265.454 39.314 265.352 39.556 265.148 39.76C264.944 39.96 264.7 40.06 264.416 40.06ZM269.147 48.634C268.803 48.634 268.461 48.604 268.121 48.544C267.785 48.484 267.471 48.382 267.179 48.238C266.887 48.094 266.641 47.896 266.441 47.644L267.509 46.534C267.601 46.642 267.713 46.748 267.845 46.852C267.981 46.956 268.147 47.042 268.343 47.11C268.543 47.178 268.785 47.212 269.069 47.212C269.333 47.212 269.563 47.166 269.759 47.074C269.955 46.982 270.107 46.848 270.215 46.672C270.327 46.496 270.383 46.282 270.383 46.03V45.91H272.177V46.138C272.177 46.682 272.041 47.14 271.769 47.512C271.501 47.884 271.139 48.164 270.683 48.352C270.227 48.54 269.715 48.634 269.147 48.634ZM270.383 46V45.202C270.347 45.282 270.255 45.398 270.107 45.55C269.963 45.702 269.771 45.84 269.531 45.964C269.291 46.084 269.011 46.144 268.691 46.144C268.211 46.144 267.791 46.028 267.431 45.796C267.071 45.56 266.791 45.246 266.591 44.854C266.391 44.458 266.291 44.02 266.291 43.54C266.291 43.06 266.391 42.624 266.591 42.232C266.791 41.836 267.071 41.52 267.431 41.284C267.791 41.048 268.211 40.93 268.691 40.93C268.999 40.93 269.269 40.98 269.501 41.08C269.733 41.176 269.921 41.292 270.065 41.428C270.209 41.56 270.309 41.682 270.365 41.794V41.074H272.177V46H270.383ZM268.079 43.54C268.079 43.764 268.131 43.966 268.235 44.146C268.339 44.322 268.477 44.46 268.649 44.56C268.825 44.66 269.019 44.71 269.231 44.71C269.451 44.71 269.645 44.66 269.813 44.56C269.981 44.46 270.113 44.322 270.209 44.146C270.309 43.966 270.359 43.764 270.359 43.54C270.359 43.316 270.309 43.116 270.209 42.94C270.113 42.76 269.981 42.62 269.813 42.52C269.645 42.416 269.451 42.364 269.231 42.364C269.019 42.364 268.825 42.416 268.649 42.52C268.477 42.62 268.339 42.76 268.235 42.94C268.131 43.116 268.079 43.316 268.079 43.54ZM276.736 40.93C277.08 40.93 277.416 41 277.744 41.14C278.072 41.28 278.342 41.502 278.554 41.806C278.766 42.106 278.872 42.502 278.872 42.994V46H277.042V43.294C277.042 42.942 276.958 42.678 276.79 42.502C276.622 42.322 276.402 42.232 276.13 42.232C275.95 42.232 275.78 42.28 275.62 42.376C275.464 42.468 275.336 42.6 275.236 42.772C275.14 42.94 275.092 43.134 275.092 43.354V46H273.268V41.074H275.092V41.8C275.14 41.668 275.24 41.536 275.392 41.404C275.548 41.268 275.742 41.156 275.974 41.068C276.21 40.976 276.464 40.93 276.736 40.93ZM281.66 43.354C281.66 43.746 281.734 44.06 281.882 44.296C282.03 44.528 282.278 44.644 282.626 44.644C282.982 44.644 283.232 44.528 283.376 44.296C283.524 44.06 283.598 43.746 283.598 43.354V41.074H285.398V43.546C285.398 44.074 285.288 44.534 285.068 44.926C284.852 45.314 284.538 45.614 284.126 45.826C283.714 46.038 283.214 46.144 282.626 46.144C282.042 46.144 281.544 46.038 281.132 45.826C280.72 45.614 280.406 45.314 280.19 44.926C279.974 44.534 279.866 44.074 279.866 43.546V41.074H281.66V43.354ZM288.3 48.496H286.494V41.074H288.318V41.794C288.374 41.682 288.48 41.56 288.636 41.428C288.796 41.292 288.998 41.176 289.242 41.08C289.49 40.98 289.77 40.93 290.082 40.93C290.562 40.93 290.972 41.048 291.312 41.284C291.656 41.52 291.92 41.836 292.104 42.232C292.288 42.624 292.38 43.06 292.38 43.54C292.38 44.02 292.282 44.458 292.086 44.854C291.89 45.246 291.614 45.56 291.258 45.796C290.906 46.028 290.49 46.144 290.01 46.144C289.666 46.144 289.372 46.084 289.128 45.964C288.888 45.84 288.698 45.704 288.558 45.556C288.422 45.404 288.336 45.286 288.3 45.202V48.496ZM290.598 43.54C290.598 43.316 290.548 43.116 290.448 42.94C290.348 42.76 290.212 42.62 290.04 42.52C289.872 42.416 289.682 42.364 289.47 42.364C289.25 42.364 289.052 42.416 288.876 42.52C288.704 42.62 288.568 42.76 288.468 42.94C288.368 43.116 288.318 43.316 288.318 43.54C288.318 43.764 288.368 43.966 288.468 44.146C288.568 44.322 288.704 44.46 288.876 44.56C289.052 44.66 289.25 44.71 289.47 44.71C289.682 44.71 289.872 44.66 290.04 44.56C290.212 44.46 290.348 44.322 290.448 44.146C290.548 43.966 290.598 43.764 290.598 43.54Z" fill="#1E2C90"/>
<g opacity="0.75" clip-path="url(#clip0_54_15)">
<path d="M426.535 227.013V240.527L722.735 240.867V280.457L386.915 281.137V227.048C386.914 219.911 388.314 212.845 391.037 206.251C393.759 199.657 397.75 193.666 402.781 188.619C407.813 183.572 413.786 179.568 420.361 176.836C426.935 174.104 433.982 172.698 441.099 172.696H682.428V145.878H561.246V93.1323C561.246 78.5739 567.013 64.6119 577.279 54.3176C587.545 44.0233 601.468 38.24 615.986 38.24H722.718V78.5542H614.838C611.265 78.5542 607.839 79.9768 605.312 82.5092C602.784 85.0416 601.364 88.4767 601.361 92.0592V105.599H722.718V213.508H439.968C436.403 213.519 432.987 214.947 430.47 217.478C427.952 220.009 426.537 223.438 426.535 227.013Z" fill="white"/>
<path d="M466.345 110.828L472.091 114.401C480.74 119.789 488.11 126.997 493.689 135.522L498.168 142.34L501.548 137.119C507.641 127.696 515.751 119.743 525.292 113.835L530.1 110.861L523.628 106.637C514.418 100.64 506.631 92.7019 500.813 83.3791L498.278 79.2648L495.59 83.6833C489.593 93.5463 481.299 101.813 471.415 107.778L466.345 110.828Z" fill="white"/>
</g>
<g opacity="0.75" clip-path="url(#clip1_54_15)">
<path d="M-132.51 223.809V237.323L163.69 237.663V277.253L-172.13 277.933V223.844C-172.131 216.707 -170.73 209.641 -168.008 203.047C-165.285 196.453 -161.295 190.462 -156.263 185.415C-151.232 180.368 -145.258 176.364 -138.684 173.632C-132.109 170.9 -125.063 169.494 -117.946 169.492H123.383V142.674H2.2011V89.9283C2.2011 75.3699 7.96837 61.4079 18.2342 51.1136C28.5 40.8193 42.4234 35.036 56.9415 35.036H163.673V75.3502H55.7931C52.2205 75.3502 48.794 76.7728 46.267 79.3052C43.7399 81.8377 42.3191 85.2727 42.3168 88.8552V102.395H163.673V210.304H-119.077C-122.642 210.315 -126.057 211.743 -128.575 214.274C-131.093 216.805 -132.507 220.234 -132.51 223.809Z" fill="white"/>
</g>
<rect x="500.5" y="7.5" width="39" height="9" rx="4.5" fill="#1E2C90" stroke="white"/>
<path d="M511.705 9.38H512.58V13.2265H514.312V14H511.705V9.38ZM516.437 14.084C516.131 14.084 515.858 14.0187 515.618 13.888C515.38 13.7573 515.193 13.5788 515.058 13.3525C514.923 13.1238 514.855 12.8637 514.855 12.572C514.855 12.2803 514.923 12.0202 515.058 11.7915C515.193 11.5605 515.38 11.3785 515.618 11.2455C515.858 11.1102 516.131 11.0425 516.437 11.0425C516.745 11.0425 517.017 11.1102 517.253 11.2455C517.488 11.3785 517.673 11.5605 517.806 11.7915C517.939 12.0202 518.005 12.2803 518.005 12.572C518.005 12.8637 517.939 13.1238 517.806 13.3525C517.673 13.5788 517.488 13.7573 517.253 13.888C517.017 14.0187 516.745 14.084 516.437 14.084ZM516.437 13.3455C516.584 13.3455 516.711 13.3128 516.819 13.2475C516.928 13.1798 517.012 13.0877 517.071 12.971C517.131 12.852 517.162 12.7178 517.162 12.5685C517.162 12.4192 517.131 12.285 517.071 12.166C517.012 12.047 516.928 11.9537 516.819 11.886C516.711 11.816 516.584 11.781 516.437 11.781C516.29 11.781 516.162 11.816 516.052 11.886C515.945 11.9537 515.861 12.047 515.8 12.166C515.739 12.285 515.709 12.4192 515.709 12.5685C515.709 12.7178 515.739 12.852 515.8 12.971C515.861 13.0877 515.945 13.1798 516.052 13.2475C516.162 13.3128 516.29 13.3455 516.437 13.3455ZM520.058 15.5365C519.848 15.5365 519.646 15.5167 519.452 15.477C519.261 15.4373 519.087 15.3755 518.931 15.2915C518.774 15.2075 518.644 15.0978 518.539 14.9625L519.078 14.4165C519.127 14.4795 519.19 14.5425 519.267 14.6055C519.346 14.6708 519.446 14.7245 519.568 14.7665C519.689 14.8108 519.841 14.833 520.023 14.833C520.195 14.833 520.344 14.7992 520.467 14.7315C520.593 14.6662 520.69 14.5728 520.758 14.4515C520.828 14.3302 520.863 14.189 520.863 14.028V13.9475H521.734V14.0805C521.734 14.3978 521.66 14.665 521.51 14.882C521.361 15.099 521.16 15.2623 520.908 15.372C520.656 15.4817 520.373 15.5365 520.058 15.5365ZM520.863 14V13.4995C520.842 13.5508 520.788 13.6232 520.702 13.7165C520.615 13.8098 520.499 13.895 520.352 13.972C520.207 14.0467 520.037 14.084 519.841 14.084C519.565 14.084 519.322 14.0187 519.109 13.888C518.897 13.755 518.73 13.5742 518.609 13.3455C518.49 13.1145 518.43 12.8543 518.43 12.565C518.43 12.2757 518.49 12.0167 518.609 11.788C518.73 11.557 518.897 11.375 519.109 11.242C519.322 11.109 519.565 11.0425 519.841 11.0425C520.032 11.0425 520.198 11.0752 520.338 11.1405C520.48 11.2035 520.594 11.2782 520.681 11.3645C520.769 11.4485 520.827 11.5243 520.852 11.592V11.1265H521.734V14H520.863ZM519.302 12.565C519.302 12.726 519.338 12.8683 519.41 12.992C519.483 13.1133 519.578 13.2078 519.697 13.2755C519.816 13.3432 519.946 13.377 520.086 13.377C520.233 13.377 520.363 13.3432 520.478 13.2755C520.592 13.2055 520.682 13.1098 520.747 12.9885C520.815 12.8648 520.849 12.7237 520.849 12.565C520.849 12.4063 520.815 12.2663 520.747 12.145C520.682 12.0213 520.592 11.9245 520.478 11.8545C520.363 11.7845 520.233 11.7495 520.086 11.7495C519.946 11.7495 519.816 11.7845 519.697 11.8545C519.578 11.9222 519.483 12.0178 519.41 12.1415C519.338 12.2628 519.302 12.404 519.302 12.565ZM522.527 14V11.1265H523.412V14H522.527ZM522.982 10.3845C522.835 10.3845 522.71 10.3332 522.607 10.2305C522.507 10.1278 522.457 10.0053 522.457 9.863C522.457 9.72067 522.508 9.597 522.611 9.492C522.713 9.387 522.837 9.3345 522.982 9.3345C523.077 9.3345 523.165 9.359 523.244 9.408C523.324 9.45467 523.388 9.51767 523.437 9.597C523.486 9.67633 523.51 9.765 523.51 9.863C523.51 10.0053 523.458 10.1278 523.353 10.2305C523.25 10.3332 523.126 10.3845 522.982 10.3845ZM526.055 11.0425C526.251 11.0425 526.442 11.0833 526.629 11.165C526.816 11.2443 526.968 11.3715 527.087 11.5465C527.209 11.7215 527.269 11.9502 527.269 12.2325V14H526.377V12.3865C526.377 12.1508 526.321 11.9758 526.209 11.8615C526.099 11.7472 525.955 11.69 525.775 11.69C525.658 11.69 525.546 11.7227 525.439 11.788C525.334 11.851 525.248 11.9397 525.18 12.054C525.115 12.166 525.082 12.2943 525.082 12.439V14H524.193V11.1265H525.082V11.585C525.108 11.5057 525.166 11.424 525.257 11.34C525.348 11.256 525.463 11.186 525.603 11.13C525.743 11.0717 525.894 11.0425 526.055 11.0425Z" fill="white"/>
<path d="M426.163 9.38H426.786L428.494 14H427.853L427.454 12.887H425.494L425.088 14H424.448L426.163 9.38ZM425.687 12.348H427.265L426.481 10.115H426.471L425.687 12.348ZM429.604 14H428.991V9.184H429.604V14ZM431.079 14H430.474V11.1265H431.079V11.6235H431.062C431.073 11.5628 431.117 11.487 431.191 11.396C431.266 11.305 431.369 11.2233 431.499 11.151C431.63 11.0787 431.786 11.0425 431.968 11.0425C432.101 11.0425 432.218 11.0612 432.318 11.0985C432.421 11.1335 432.493 11.1685 432.535 11.2035L432.287 11.7075C432.254 11.6748 432.197 11.6422 432.115 11.6095C432.034 11.5745 431.932 11.557 431.811 11.557C431.657 11.557 431.525 11.6048 431.415 11.7005C431.306 11.7962 431.222 11.9117 431.163 12.047C431.107 12.18 431.079 12.3037 431.079 12.418V14ZM433.248 12.6875C433.25 12.8602 433.288 13.0177 433.36 13.16C433.432 13.3023 433.54 13.4155 433.682 13.4995C433.827 13.5835 434.004 13.6255 434.214 13.6255C434.391 13.6255 434.542 13.5998 434.666 13.5485C434.792 13.4948 434.894 13.4318 434.974 13.3595C435.053 13.2848 435.11 13.2183 435.145 13.16L435.443 13.5275C435.366 13.6395 435.271 13.7375 435.159 13.8215C435.049 13.9055 434.915 13.9697 434.757 14.014C434.598 14.0607 434.404 14.084 434.176 14.084C433.868 14.084 433.6 14.0187 433.374 13.888C433.15 13.755 432.977 13.5718 432.856 13.3385C432.735 13.1028 432.674 12.8333 432.674 12.53C432.674 12.25 432.731 11.998 432.846 11.774C432.96 11.5477 433.126 11.3692 433.343 11.2385C433.562 11.1078 433.826 11.0425 434.134 11.0425C434.416 11.0425 434.661 11.102 434.869 11.221C435.079 11.3377 435.241 11.5033 435.355 11.718C435.472 11.9327 435.53 12.1893 435.53 12.488C435.53 12.5067 435.529 12.5405 435.527 12.5895C435.524 12.6362 435.522 12.6688 435.52 12.6875H433.248ZM434.949 12.229C434.947 12.1333 434.919 12.0283 434.865 11.914C434.814 11.7997 434.73 11.7017 434.613 11.62C434.496 11.5383 434.339 11.4975 434.141 11.4975C433.935 11.4975 433.77 11.5372 433.644 11.6165C433.52 11.6958 433.429 11.7927 433.371 11.907C433.312 12.019 433.278 12.1263 433.269 12.229H434.949ZM438.512 14V13.44C438.494 13.4983 438.439 13.5788 438.348 13.6815C438.259 13.7842 438.137 13.8775 437.98 13.9615C437.826 14.0432 437.644 14.084 437.434 14.084C437.168 14.084 436.927 14.021 436.71 13.895C436.495 13.769 436.324 13.5928 436.195 13.3665C436.069 13.1378 436.006 12.8707 436.006 12.565C436.006 12.2593 436.069 11.9933 436.195 11.767C436.324 11.5383 436.495 11.361 436.71 11.235C436.927 11.1067 437.168 11.0425 437.434 11.0425C437.642 11.0425 437.822 11.0798 437.973 11.1545C438.127 11.2292 438.25 11.3155 438.341 11.4135C438.434 11.5115 438.489 11.5955 438.505 11.6655V11.1265H439.107V14H438.512ZM436.608 12.565C436.608 12.7727 436.654 12.9523 436.745 13.104C436.836 13.2557 436.954 13.3735 437.098 13.4575C437.245 13.5392 437.402 13.58 437.567 13.58C437.745 13.58 437.903 13.538 438.043 13.454C438.183 13.37 438.294 13.2522 438.376 13.1005C438.458 12.9465 438.498 12.768 438.498 12.565C438.498 12.362 438.458 12.1847 438.376 12.033C438.294 11.879 438.183 11.76 438.043 11.676C437.903 11.5897 437.745 11.5465 437.567 11.5465C437.402 11.5465 437.245 11.5885 437.098 11.6725C436.954 11.7565 436.836 11.8743 436.745 12.026C436.654 12.1777 436.608 12.3573 436.608 12.565ZM441.188 14.084C440.925 14.084 440.688 14.021 440.478 13.895C440.27 13.769 440.106 13.5928 439.984 13.3665C439.865 13.1378 439.806 12.8707 439.806 12.565C439.806 12.2593 439.865 11.9933 439.984 11.767C440.106 11.5383 440.27 11.361 440.478 11.235C440.688 11.1067 440.925 11.0425 441.188 11.0425C441.401 11.0425 441.587 11.0798 441.748 11.1545C441.909 11.2268 442.038 11.312 442.133 11.41C442.229 11.508 442.284 11.5932 442.298 11.6655V9.184H442.91V14H442.308V13.44C442.283 13.5193 442.218 13.6092 442.116 13.7095C442.015 13.8098 441.886 13.8973 441.727 13.972C441.569 14.0467 441.389 14.084 441.188 14.084ZM441.328 13.58C441.506 13.58 441.668 13.538 441.815 13.454C441.962 13.37 442.078 13.2522 442.165 13.1005C442.253 12.9465 442.298 12.768 442.298 12.565C442.298 12.362 442.253 12.1847 442.165 12.033C442.078 11.879 441.962 11.76 441.815 11.676C441.668 11.5897 441.506 11.5465 441.328 11.5465C441.165 11.5465 441.013 11.5885 440.873 11.6725C440.733 11.7565 440.62 11.8743 440.534 12.026C440.45 12.1777 440.408 12.3573 440.408 12.565C440.408 12.7727 440.45 12.9523 440.534 13.104C440.62 13.2557 440.733 13.3735 440.873 13.4575C441.013 13.5392 441.165 13.58 441.328 13.58ZM444.786 13.4435L445.755 11.1265H446.364L444.425 15.456H443.809L444.46 14L443.277 11.1265H443.897L444.786 13.4435ZM450.196 11.0425C450.385 11.0425 450.568 11.0822 450.746 11.1615C450.925 11.2408 451.072 11.3668 451.187 11.5395C451.303 11.7098 451.362 11.9327 451.362 12.208V14H450.746V12.327C450.746 12.0423 450.68 11.8358 450.55 11.7075C450.421 11.5768 450.252 11.5115 450.042 11.5115C449.902 11.5115 449.768 11.5512 449.64 11.6305C449.511 11.7075 449.405 11.8148 449.321 11.9525C449.24 12.0878 449.199 12.2418 449.199 12.4145V14H448.583V9.184H449.199V11.6375C449.22 11.5582 449.276 11.4718 449.367 11.3785C449.46 11.2852 449.579 11.2058 449.724 11.1405C449.868 11.0752 450.026 11.0425 450.196 11.0425ZM454.495 14V13.44C454.476 13.4983 454.421 13.5788 454.33 13.6815C454.242 13.7842 454.119 13.8775 453.963 13.9615C453.809 14.0432 453.627 14.084 453.417 14.084C453.151 14.084 452.909 14.021 452.692 13.895C452.478 13.769 452.306 13.5928 452.178 13.3665C452.052 13.1378 451.989 12.8707 451.989 12.565C451.989 12.2593 452.052 11.9933 452.178 11.767C452.306 11.5383 452.478 11.361 452.692 11.235C452.909 11.1067 453.151 11.0425 453.417 11.0425C453.625 11.0425 453.804 11.0798 453.956 11.1545C454.11 11.2292 454.232 11.3155 454.323 11.4135C454.417 11.5115 454.472 11.5955 454.488 11.6655V11.1265H455.09V14H454.495ZM452.591 12.565C452.591 12.7727 452.636 12.9523 452.727 13.104C452.818 13.2557 452.936 13.3735 453.081 13.4575C453.228 13.5392 453.384 13.58 453.55 13.58C453.727 13.58 453.886 13.538 454.026 13.454C454.166 13.37 454.277 13.2522 454.358 13.1005C454.44 12.9465 454.481 12.768 454.481 12.565C454.481 12.362 454.44 12.1847 454.358 12.033C454.277 11.879 454.166 11.76 454.026 11.676C453.886 11.5897 453.727 11.5465 453.55 11.5465C453.384 11.5465 453.228 11.5885 453.081 11.6725C452.936 11.7565 452.818 11.8743 452.727 12.026C452.636 12.1777 452.591 12.3573 452.591 12.565ZM455.617 11.1265H456.271L457.209 13.4365L458.147 11.1265H458.798L457.57 14H456.852L455.617 11.1265ZM459.751 12.6875C459.753 12.8602 459.791 13.0177 459.863 13.16C459.935 13.3023 460.043 13.4155 460.185 13.4995C460.33 13.5835 460.507 13.6255 460.717 13.6255C460.894 13.6255 461.045 13.5998 461.168 13.5485C461.294 13.4948 461.397 13.4318 461.476 13.3595C461.556 13.2848 461.613 13.2183 461.648 13.16L461.945 13.5275C461.868 13.6395 461.774 13.7375 461.662 13.8215C461.552 13.9055 461.418 13.9697 461.259 14.014C461.101 14.0607 460.907 14.084 460.678 14.084C460.37 14.084 460.103 14.0187 459.877 13.888C459.653 13.755 459.48 13.5718 459.359 13.3385C459.238 13.1028 459.177 12.8333 459.177 12.53C459.177 12.25 459.234 11.998 459.348 11.774C459.463 11.5477 459.628 11.3692 459.845 11.2385C460.065 11.1078 460.328 11.0425 460.636 11.0425C460.919 11.0425 461.164 11.102 461.371 11.221C461.581 11.3377 461.744 11.5033 461.858 11.718C461.975 11.9327 462.033 12.1893 462.033 12.488C462.033 12.5067 462.032 12.5405 462.029 12.5895C462.027 12.6362 462.025 12.6688 462.022 12.6875H459.751ZM461.452 12.229C461.45 12.1333 461.422 12.0283 461.368 11.914C461.317 11.7997 461.233 11.7017 461.116 11.62C460.999 11.5383 460.842 11.4975 460.643 11.4975C460.438 11.4975 460.272 11.5372 460.146 11.6165C460.023 11.6958 459.932 11.7927 459.873 11.907C459.815 12.019 459.781 12.1263 459.772 12.229H461.452ZM466.759 14V13.44C466.74 13.4983 466.685 13.5788 466.594 13.6815C466.505 13.7842 466.383 13.8775 466.227 13.9615C466.073 14.0432 465.891 14.084 465.681 14.084C465.415 14.084 465.173 14.021 464.956 13.895C464.741 13.769 464.57 13.5928 464.442 13.3665C464.316 13.1378 464.253 12.8707 464.253 12.565C464.253 12.2593 464.316 11.9933 464.442 11.767C464.57 11.5383 464.741 11.361 464.956 11.235C465.173 11.1067 465.415 11.0425 465.681 11.0425C465.888 11.0425 466.068 11.0798 466.22 11.1545C466.374 11.2292 466.496 11.3155 466.587 11.4135C466.68 11.5115 466.735 11.5955 466.752 11.6655V11.1265H467.354V14H466.759ZM464.855 12.565C464.855 12.7727 464.9 12.9523 464.991 13.104C465.082 13.2557 465.2 13.3735 465.345 13.4575C465.492 13.5392 465.648 13.58 465.814 13.58C465.991 13.58 466.15 13.538 466.29 13.454C466.43 13.37 466.54 13.2522 466.622 13.1005C466.704 12.9465 466.745 12.768 466.745 12.565C466.745 12.362 466.704 12.1847 466.622 12.033C466.54 11.879 466.43 11.76 466.29 11.676C466.15 11.5897 465.991 11.5465 465.814 11.5465C465.648 11.5465 465.492 11.5885 465.345 11.6725C465.2 11.7565 465.082 11.8743 464.991 12.026C464.9 12.1777 464.855 12.3573 464.855 12.565ZM469.774 11.0425C469.963 11.0425 470.146 11.0822 470.323 11.1615C470.503 11.2408 470.65 11.3668 470.764 11.5395C470.881 11.7098 470.939 11.9327 470.939 12.208V14H470.323V12.327C470.323 12.0423 470.257 11.8358 470.124 11.7075C469.991 11.5768 469.819 11.5115 469.609 11.5115C469.472 11.5115 469.339 11.5512 469.21 11.6305C469.084 11.7075 468.98 11.8148 468.899 11.9525C468.817 12.0878 468.776 12.2418 468.776 12.4145V14H468.167V11.1265H468.776V11.6375C468.797 11.5582 468.854 11.4718 468.948 11.3785C469.041 11.2852 469.16 11.2058 469.305 11.1405C469.449 11.0752 469.606 11.0425 469.774 11.0425ZM475.789 14V13.44C475.77 13.4983 475.715 13.5788 475.624 13.6815C475.536 13.7842 475.413 13.8775 475.257 13.9615C475.103 14.0432 474.921 14.084 474.711 14.084C474.445 14.084 474.203 14.021 473.986 13.895C473.772 13.769 473.6 13.5928 473.472 13.3665C473.346 13.1378 473.283 12.8707 473.283 12.565C473.283 12.2593 473.346 11.9933 473.472 11.767C473.6 11.5383 473.772 11.361 473.986 11.235C474.203 11.1067 474.445 11.0425 474.711 11.0425C474.918 11.0425 475.098 11.0798 475.25 11.1545C475.404 11.2292 475.526 11.3155 475.617 11.4135C475.711 11.5115 475.765 11.5955 475.782 11.6655V11.1265H476.384V14H475.789ZM473.885 12.565C473.885 12.7727 473.93 12.9523 474.021 13.104C474.112 13.2557 474.23 13.3735 474.375 13.4575C474.522 13.5392 474.678 13.58 474.844 13.58C475.021 13.58 475.18 13.538 475.32 13.454C475.46 13.37 475.571 13.2522 475.652 13.1005C475.734 12.9465 475.775 12.768 475.775 12.565C475.775 12.362 475.734 12.1847 475.652 12.033C475.571 11.879 475.46 11.76 475.32 11.676C475.18 11.5897 475.021 11.5465 474.844 11.5465C474.678 11.5465 474.522 11.5885 474.375 11.6725C474.23 11.7565 474.112 11.8743 474.021 12.026C473.93 12.1777 473.885 12.3573 473.885 12.565ZM478.552 13.58C478.734 13.58 478.881 13.5508 478.993 13.4925C479.105 13.4342 479.175 13.3922 479.203 13.3665L479.501 13.804C479.477 13.825 479.421 13.8588 479.333 13.9055C479.246 13.9498 479.134 13.9907 478.997 14.028C478.861 14.0653 478.707 14.084 478.535 14.084C478.271 14.084 478.026 14.0257 477.8 13.909C477.573 13.79 477.39 13.6173 477.25 13.391C477.112 13.1647 477.044 12.8882 477.044 12.5615C477.044 12.2325 477.112 11.956 477.25 11.732C477.39 11.5057 477.573 11.3342 477.8 11.2175C478.026 11.1008 478.271 11.0425 478.535 11.0425C478.705 11.0425 478.857 11.0635 478.99 11.1055C479.123 11.1452 479.232 11.1895 479.319 11.2385C479.405 11.2875 479.462 11.3248 479.49 11.3505L479.189 11.788C479.17 11.7693 479.134 11.7413 479.081 11.704C479.029 11.6643 478.959 11.6282 478.871 11.5955C478.782 11.5628 478.676 11.5465 478.552 11.5465C478.403 11.5465 478.257 11.5873 478.115 11.669C477.975 11.7483 477.859 11.8638 477.768 12.0155C477.677 12.1672 477.632 12.3492 477.632 12.5615C477.632 12.7738 477.677 12.957 477.768 13.111C477.859 13.2627 477.975 13.3793 478.115 13.461C478.257 13.5403 478.403 13.58 478.552 13.58ZM481.457 13.58C481.639 13.58 481.786 13.5508 481.898 13.4925C482.01 13.4342 482.08 13.3922 482.108 13.3665L482.406 13.804C482.383 13.825 482.327 13.8588 482.238 13.9055C482.152 13.9498 482.04 13.9907 481.902 14.028C481.767 14.0653 481.613 14.084 481.44 14.084C481.176 14.084 480.931 14.0257 480.705 13.909C480.479 13.79 480.295 13.6173 480.155 13.391C480.018 13.1647 479.949 12.8882 479.949 12.5615C479.949 12.2325 480.018 11.956 480.155 11.732C480.295 11.5057 480.479 11.3342 480.705 11.2175C480.931 11.1008 481.176 11.0425 481.44 11.0425C481.61 11.0425 481.762 11.0635 481.895 11.1055C482.028 11.1452 482.138 11.1895 482.224 11.2385C482.31 11.2875 482.367 11.3248 482.395 11.3505L482.094 11.788C482.076 11.7693 482.04 11.7413 481.986 11.704C481.935 11.6643 481.865 11.6282 481.776 11.5955C481.687 11.5628 481.581 11.5465 481.457 11.5465C481.308 11.5465 481.162 11.5873 481.02 11.669C480.88 11.7483 480.764 11.8638 480.673 12.0155C480.582 12.1672 480.537 12.3492 480.537 12.5615C480.537 12.7738 480.582 12.957 480.673 13.111C480.764 13.2627 480.88 13.3793 481.02 13.461C481.162 13.5403 481.308 13.58 481.457 13.58ZM484.338 14.084C484.042 14.084 483.778 14.0175 483.547 13.8845C483.318 13.7515 483.139 13.5718 483.008 13.3455C482.877 13.1168 482.812 12.859 482.812 12.572C482.812 12.285 482.877 12.026 483.008 11.795C483.139 11.564 483.318 11.3808 483.547 11.2455C483.778 11.1102 484.042 11.0425 484.338 11.0425C484.632 11.0425 484.892 11.1102 485.119 11.2455C485.347 11.3808 485.526 11.564 485.654 11.795C485.782 12.026 485.847 12.285 485.847 12.572C485.847 12.859 485.782 13.1168 485.654 13.3455C485.526 13.5718 485.347 13.7515 485.119 13.8845C484.892 14.0175 484.632 14.084 484.338 14.084ZM484.338 13.5625C484.525 13.5625 484.687 13.5193 484.825 13.433C484.965 13.3467 485.073 13.2288 485.15 13.0795C485.227 12.9278 485.266 12.7575 485.266 12.5685C485.266 12.3795 485.227 12.2092 485.15 12.0575C485.073 11.9058 484.965 11.7857 484.825 11.697C484.687 11.6083 484.525 11.564 484.338 11.564C484.149 11.564 483.985 11.6083 483.845 11.697C483.705 11.7857 483.595 11.9058 483.516 12.0575C483.439 12.2092 483.4 12.3795 483.4 12.5685C483.4 12.7575 483.439 12.9278 483.516 13.0795C483.595 13.2288 483.705 13.3467 483.845 13.433C483.985 13.5193 484.149 13.5625 484.338 13.5625ZM487.092 12.5755C487.092 12.8765 487.156 13.1168 487.285 13.2965C487.415 13.4738 487.615 13.5625 487.883 13.5625C488.154 13.5625 488.353 13.4738 488.482 13.2965C488.61 13.1168 488.674 12.8765 488.674 12.5755V11.1265H489.276V12.6595C489.276 12.9395 489.221 13.1868 489.112 13.4015C489.004 13.6162 488.847 13.7842 488.639 13.9055C488.434 14.0245 488.182 14.084 487.883 14.084C487.587 14.084 487.335 14.0245 487.127 13.9055C486.922 13.7842 486.764 13.6162 486.655 13.4015C486.547 13.1868 486.494 12.9395 486.494 12.6595V11.1265H487.092V12.5755ZM491.71 11.0425C491.899 11.0425 492.082 11.0822 492.26 11.1615C492.439 11.2408 492.586 11.3668 492.701 11.5395C492.817 11.7098 492.876 11.9327 492.876 12.208V14H492.26V12.327C492.26 12.0423 492.193 11.8358 492.06 11.7075C491.927 11.5768 491.756 11.5115 491.546 11.5115C491.408 11.5115 491.275 11.5512 491.147 11.6305C491.021 11.7075 490.917 11.8148 490.835 11.9525C490.754 12.0878 490.713 12.2418 490.713 12.4145V14H490.104V11.1265H490.713V11.6375C490.734 11.5582 490.791 11.4718 490.884 11.3785C490.978 11.2852 491.097 11.2058 491.241 11.1405C491.386 11.0752 491.542 11.0425 491.71 11.0425ZM493.427 11.1265H493.991V9.947H494.596V11.1265H495.335V11.648H494.596V13.069C494.596 13.237 494.625 13.3607 494.684 13.44C494.744 13.5193 494.825 13.559 494.925 13.559C495.014 13.559 495.083 13.5427 495.132 13.51C495.181 13.4773 495.21 13.4552 495.219 13.4435L495.461 13.8915C495.447 13.9032 495.409 13.9253 495.349 13.958C495.288 13.9907 495.21 14.0198 495.114 14.0455C495.019 14.0712 494.907 14.084 494.778 14.084C494.554 14.084 494.366 14.0163 494.215 13.881C494.065 13.7433 493.991 13.5263 493.991 13.23V11.648H493.427V11.1265Z" fill="white"/>
<defs>
<clipPath id="clip0_54_15">
<rect width="169" height="245" fill="white" transform="translate(381 50)"/>
</clipPath>
<clipPath id="clip1_54_15">
<rect width="174" height="253" fill="white" transform="translate(0 32)"/>
</clipPath>
</defs>
</svg>
