<svg width="206" height="46" viewBox="0 0 206 46" fill="none" xmlns="http://www.w3.org/2000/svg">
<path d="M0.363086 2H21.4381V8.55H7.81309V15.275H21.3131V21.625H7.81309V28.45H21.4381V35H0.363086V2ZM55.3221 13.875C56.8721 13.875 58.2387 14.2 59.4221 14.85C60.6054 15.4833 61.5304 16.4667 62.1971 17.8C62.8804 19.1333 63.2221 20.85 63.2221 22.95V35H55.7471V24.1C55.7471 22.6667 55.5304 21.5083 55.0971 20.625C54.6637 19.7417 53.8054 19.3 52.5221 19.3C51.7554 19.3 51.0804 19.5 50.4971 19.9C49.9137 20.3 49.4637 20.8583 49.1471 21.575C48.8304 22.275 48.6721 23.1167 48.6721 24.1V35H41.6971V24.1C41.6971 22.6667 41.4554 21.5083 40.9721 20.625C40.5054 19.7417 39.6721 19.3 38.4721 19.3C37.7054 19.3 37.0304 19.5 36.4471 19.9C35.8637 20.2833 35.4137 20.8333 35.0971 21.55C34.7971 22.25 34.6471 23.1 34.6471 24.1V35H27.0971V14.475H34.6471V17.4C34.8471 16.8833 35.2804 16.3583 35.9471 15.825C36.6304 15.275 37.4721 14.8167 38.4721 14.45C39.4721 14.0667 40.5304 13.875 41.6471 13.875C42.8637 13.875 43.8804 14.0583 44.6971 14.425C45.5137 14.775 46.1804 15.25 46.6971 15.85C47.2304 16.45 47.6554 17.1 47.9721 17.8C48.2054 17.2 48.6637 16.6 49.3471 16C50.0471 15.3833 50.9137 14.875 51.9471 14.475C52.9971 14.075 54.1221 13.875 55.3221 13.875ZM75.0994 45.4H67.5744V14.475H75.1744V17.475C75.4077 17.0083 75.8494 16.5 76.4994 15.95C77.1661 15.3833 78.0077 14.9 79.0244 14.5C80.0577 14.0833 81.2244 13.875 82.5244 13.875C84.5244 13.875 86.2327 14.3667 87.6494 15.35C89.0827 16.3333 90.1827 17.65 90.9494 19.3C91.7161 20.9333 92.0994 22.75 92.0994 24.75C92.0994 26.75 91.6911 28.575 90.8744 30.225C90.0577 31.8583 88.9077 33.1667 87.4244 34.15C85.9577 35.1167 84.2244 35.6 82.2244 35.6C80.7911 35.6 79.5661 35.35 78.5494 34.85C77.5494 34.3333 76.7577 33.7667 76.1744 33.15C75.6077 32.5167 75.2494 32.025 75.0994 31.675V45.4ZM84.6744 24.75C84.6744 23.8167 84.4661 22.9833 84.0494 22.25C83.6327 21.5 83.0661 20.9167 82.3494 20.5C81.6494 20.0667 80.8577 19.85 79.9744 19.85C79.0577 19.85 78.2327 20.0667 77.4994 20.5C76.7827 20.9167 76.2161 21.5 75.7994 22.25C75.3827 22.9833 75.1744 23.8167 75.1744 24.75C75.1744 25.6833 75.3827 26.525 75.7994 27.275C76.2161 28.0083 76.7827 28.5833 77.4994 29C78.2327 29.4167 79.0577 29.625 79.9744 29.625C80.8577 29.625 81.6494 29.4167 82.3494 29C83.0661 28.5833 83.6327 28.0083 84.0494 27.275C84.4661 26.525 84.6744 25.6833 84.6744 24.75ZM103.545 35H95.9197V0.599999H103.545V35ZM118.895 35.6C116.645 35.6 114.645 35.1417 112.895 34.225C111.161 33.2917 109.795 32.0167 108.795 30.4C107.811 28.7667 107.32 26.9 107.32 24.8C107.32 22.7 107.811 20.8333 108.795 19.2C109.795 17.55 111.161 16.25 112.895 15.3C114.645 14.35 116.645 13.875 118.895 13.875C121.145 13.875 123.128 14.35 124.845 15.3C126.561 16.25 127.903 17.55 128.87 19.2C129.836 20.8333 130.32 22.7 130.32 24.8C130.32 26.9 129.836 28.7667 128.87 30.4C127.903 32.0167 126.561 33.2917 124.845 34.225C123.128 35.1417 121.145 35.6 118.895 35.6ZM118.895 29.35C119.761 29.35 120.511 29.1583 121.145 28.775C121.778 28.3917 122.27 27.85 122.62 27.15C122.97 26.45 123.145 25.6583 123.145 24.775C123.145 23.875 122.97 23.075 122.62 22.375C122.27 21.675 121.778 21.125 121.145 20.725C120.511 20.325 119.761 20.125 118.895 20.125C118.028 20.125 117.27 20.325 116.62 20.725C115.986 21.125 115.486 21.675 115.12 22.375C114.77 23.075 114.595 23.875 114.595 24.775C114.595 25.6583 114.77 26.45 115.12 27.15C115.486 27.85 115.986 28.3917 116.62 28.775C117.27 29.1583 118.028 29.35 118.895 29.35ZM144.625 28.425L150.175 14.475H157.625L143.525 45.4H135.925L140.675 35L132.1 14.475H139.675L144.625 28.425ZM166.057 26.35C166.107 27.0833 166.341 27.7333 166.757 28.3C167.174 28.8667 167.749 29.3167 168.482 29.65C169.232 29.9667 170.116 30.125 171.132 30.125C172.099 30.125 172.966 30.025 173.732 29.825C174.516 29.625 175.191 29.375 175.757 29.075C176.341 28.775 176.791 28.4667 177.107 28.15L180.057 32.85C179.641 33.3 179.049 33.7417 178.282 34.175C177.532 34.5917 176.541 34.9333 175.307 35.2C174.074 35.4667 172.516 35.6 170.632 35.6C168.366 35.6 166.349 35.175 164.582 34.325C162.816 33.475 161.424 32.225 160.407 30.575C159.391 28.925 158.882 26.9083 158.882 24.525C158.882 22.525 159.316 20.725 160.182 19.125C161.066 17.5083 162.341 16.2333 164.007 15.3C165.674 14.35 167.682 13.875 170.032 13.875C172.266 13.875 174.199 14.2833 175.832 15.1C177.482 15.9167 178.749 17.1333 179.632 18.75C180.532 20.35 180.982 22.35 180.982 24.75C180.982 24.8833 180.974 25.15 180.957 25.55C180.957 25.95 180.941 26.2167 180.907 26.35H166.057ZM173.832 22.375C173.816 21.8417 173.674 21.3167 173.407 20.8C173.141 20.2667 172.741 19.8333 172.207 19.5C171.674 19.15 170.991 18.975 170.157 18.975C169.324 18.975 168.616 19.1417 168.032 19.475C167.466 19.7917 167.032 20.2083 166.732 20.725C166.432 21.2417 166.266 21.7917 166.232 22.375H173.832ZM190.96 26.35C191.01 27.0833 191.243 27.7333 191.66 28.3C192.076 28.8667 192.651 29.3167 193.385 29.65C194.135 29.9667 195.018 30.125 196.035 30.125C197.001 30.125 197.868 30.025 198.635 29.825C199.418 29.625 200.093 29.375 200.66 29.075C201.243 28.775 201.693 28.4667 202.01 28.15L204.96 32.85C204.543 33.3 203.951 33.7417 203.185 34.175C202.435 34.5917 201.443 34.9333 200.21 35.2C198.976 35.4667 197.418 35.6 195.535 35.6C193.268 35.6 191.251 35.175 189.485 34.325C187.718 33.475 186.326 32.225 185.31 30.575C184.293 28.925 183.785 26.9083 183.785 24.525C183.785 22.525 184.218 20.725 185.085 19.125C185.968 17.5083 187.243 16.2333 188.91 15.3C190.576 14.35 192.585 13.875 194.935 13.875C197.168 13.875 199.101 14.2833 200.735 15.1C202.385 15.9167 203.651 17.1333 204.535 18.75C205.435 20.35 205.885 22.35 205.885 24.75C205.885 24.8833 205.876 25.15 205.86 25.55C205.86 25.95 205.843 26.2167 205.81 26.35H190.96ZM198.735 22.375C198.718 21.8417 198.576 21.3167 198.31 20.8C198.043 20.2667 197.643 19.8333 197.11 19.5C196.576 19.15 195.893 18.975 195.06 18.975C194.226 18.975 193.518 19.1417 192.935 19.475C192.368 19.7917 191.935 20.2083 191.635 20.725C191.335 21.2417 191.168 21.7917 191.135 22.375H198.735Z" fill="#1E2C90"/>
</svg>
