<svg width="224" height="226" viewBox="0 0 224 226" fill="none" xmlns="http://www.w3.org/2000/svg">
<circle cx="112" cy="113" r="100" fill="white"/>
<path d="M156.865 179.022C144.105 187.866 128.652 193.042 112 193.042C95.3484 193.042 79.8955 187.865 67.1347 179.021C61.4987 175.115 59.0902 167.675 62.3671 161.62C69.1601 149.068 83.1575 141.25 112 141.25C140.843 141.25 154.84 149.069 161.633 161.62C164.91 167.675 162.501 175.116 156.865 179.022Z" fill="#1E2C90"/>
<path d="M112 113C127.464 113 140 100.352 140 84.75C140 69.148 127.464 56.5 112 56.5C96.5365 56.5 84.0004 69.148 84.0004 84.75C84.0004 100.352 96.5365 113 112 113Z" fill="#1E2C90"/>
</svg>
