<svg width="63" height="17" viewBox="0 0 63 17" fill="none" xmlns="http://www.w3.org/2000/svg">
<rect x="0.5" y="0.5" width="62" height="16" rx="4.5" stroke="#1E2C90"/>
<path d="M18.0232 3.42H19.6482V10.5635H22.8657V12H18.0232V3.42ZM26.8117 12.156C26.2441 12.156 25.7371 12.0347 25.2907 11.792C24.8487 11.5493 24.5021 11.2178 24.2507 10.7975C23.9994 10.3728 23.8737 9.88967 23.8737 9.348C23.8737 8.80633 23.9994 8.32317 24.2507 7.8985C24.5021 7.4695 24.8487 7.1315 25.2907 6.8845C25.7371 6.63317 26.2441 6.5075 26.8117 6.5075C27.3837 6.5075 27.8886 6.63317 28.3262 6.8845C28.7639 7.1315 29.1062 7.4695 29.3532 7.8985C29.6002 8.32317 29.7237 8.80633 29.7237 9.348C29.7237 9.88967 29.6002 10.3728 29.3532 10.7975C29.1062 11.2178 28.7639 11.5493 28.3262 11.792C27.8886 12.0347 27.3837 12.156 26.8117 12.156ZM26.8117 10.7845C27.0847 10.7845 27.3209 10.7238 27.5202 10.6025C27.7239 10.4768 27.8799 10.3057 27.9882 10.089C28.1009 9.868 28.1572 9.61883 28.1572 9.3415C28.1572 9.06417 28.1009 8.815 27.9882 8.594C27.8799 8.373 27.7239 8.19967 27.5202 8.074C27.3209 7.944 27.0847 7.879 26.8117 7.879C26.5387 7.879 26.3004 7.944 26.0967 8.074C25.8974 8.19967 25.7414 8.373 25.6287 8.594C25.5161 8.815 25.4597 9.06417 25.4597 9.3415C25.4597 9.61883 25.5161 9.868 25.6287 10.089C25.7414 10.3057 25.8974 10.4768 26.0967 10.6025C26.3004 10.7238 26.5387 10.7845 26.8117 10.7845ZM33.5359 14.8535C33.1459 14.8535 32.7711 14.8167 32.4114 14.743C32.0561 14.6693 31.7332 14.5545 31.4429 14.3985C31.1526 14.2425 30.9099 14.0388 30.7149 13.7875L31.7159 12.7735C31.8069 12.8905 31.9239 13.0075 32.0669 13.1245C32.2142 13.2458 32.4006 13.3455 32.6259 13.4235C32.8512 13.5058 33.1329 13.547 33.4709 13.547C33.7916 13.547 34.0667 13.4842 34.2964 13.3585C34.5304 13.2372 34.7102 13.0638 34.8359 12.8385C34.9659 12.6132 35.0309 12.351 35.0309 12.052V11.9025H36.6494V12.1495C36.6494 12.7388 36.5107 13.235 36.2334 13.638C35.9561 14.041 35.5834 14.3443 35.1154 14.548C34.6474 14.7517 34.1209 14.8535 33.5359 14.8535ZM35.0309 12V11.0705C34.9919 11.1658 34.8922 11.3002 34.7319 11.4735C34.5716 11.6468 34.3549 11.805 34.0819 11.948C33.8132 12.0867 33.4969 12.156 33.1329 12.156C32.6216 12.156 32.1687 12.0347 31.7744 11.792C31.3801 11.545 31.0702 11.2092 30.8449 10.7845C30.6239 10.3555 30.5134 9.87233 30.5134 9.335C30.5134 8.79767 30.6239 8.31667 30.8449 7.892C31.0702 7.463 31.3801 7.125 31.7744 6.878C32.1687 6.631 32.6216 6.5075 33.1329 6.5075C33.4882 6.5075 33.7959 6.56817 34.0559 6.6895C34.3202 6.8065 34.5326 6.94517 34.6929 7.1055C34.8576 7.2615 34.9637 7.40233 35.0114 7.528V6.6635H36.6494V12H35.0309ZM32.1319 9.335C32.1319 9.634 32.1991 9.89833 32.3334 10.128C32.4677 10.3533 32.6454 10.5288 32.8664 10.6545C33.0874 10.7802 33.3279 10.843 33.5879 10.843C33.8609 10.843 34.1036 10.7802 34.3159 10.6545C34.5282 10.5245 34.6951 10.3468 34.8164 10.1215C34.9421 9.89183 35.0049 9.62967 35.0049 9.335C35.0049 9.04033 34.9421 8.78033 34.8164 8.555C34.6951 8.32533 34.5282 8.1455 34.3159 8.0155C34.1036 7.8855 33.8609 7.8205 33.5879 7.8205C33.3279 7.8205 33.0874 7.8855 32.8664 8.0155C32.6454 8.14117 32.4677 8.31883 32.3334 8.5485C32.1991 8.77383 32.1319 9.036 32.1319 9.335ZM38.1211 12V6.6635H39.7656V12H38.1211ZM38.9661 5.2855C38.6931 5.2855 38.4613 5.19017 38.2706 4.9995C38.0843 4.80883 37.9911 4.58133 37.9911 4.317C37.9911 4.05267 38.0865 3.823 38.2771 3.628C38.4678 3.433 38.6975 3.3355 38.9661 3.3355C39.1438 3.3355 39.3063 3.381 39.4536 3.472C39.601 3.55867 39.7201 3.67567 39.8111 3.823C39.9021 3.97033 39.9476 4.135 39.9476 4.317C39.9476 4.58133 39.8501 4.80883 39.6551 4.9995C39.4645 5.19017 39.2348 5.2855 38.9661 5.2855ZM44.6734 6.5075C45.0374 6.5075 45.3928 6.58333 45.7394 6.735C46.0861 6.88233 46.3699 7.1185 46.5909 7.4435C46.8163 7.7685 46.9289 8.19317 46.9289 8.7175V12H45.2714V9.0035C45.2714 8.56583 45.1674 8.24083 44.9594 8.0285C44.7558 7.81617 44.4871 7.71 44.1534 7.71C43.9368 7.71 43.7288 7.77067 43.5294 7.892C43.3344 8.009 43.1741 8.17367 43.0484 8.386C42.9271 8.594 42.8664 8.83233 42.8664 9.101V12H41.2154V6.6635H42.8664V7.515C42.9141 7.36767 43.0224 7.216 43.1914 7.06C43.3604 6.904 43.5749 6.774 43.8349 6.67C44.0949 6.56167 44.3744 6.5075 44.6734 6.5075Z" fill="#1E2C90"/>
</svg>
