<svg width="63" height="17" viewBox="0 0 63 17" fill="none" xmlns="http://www.w3.org/2000/svg">
<path d="M58 0.5H5C2.51472 0.5 0.5 2.51472 0.5 5V12C0.5 14.4853 2.51472 16.5 5 16.5H58C60.4853 16.5 62.5 14.4853 62.5 12V5C62.5 2.51472 60.4853 0.5 58 0.5Z" fill="#1E2C90" stroke="#1E2C90"/>
<path d="M18.7538 4.08H19.7798V11.07H22.8938V12H18.7538V4.08ZM26.4998 12.144C25.9918 12.144 25.5398 12.03 25.1438 11.802C24.7518 11.574 24.4438 11.266 24.2198 10.878C23.9958 10.486 23.8838 10.044 23.8838 9.552C23.8838 9.06 23.9958 8.616 24.2198 8.22C24.4438 7.824 24.7518 7.51 25.1438 7.278C25.5398 7.046 25.9918 6.93 26.4998 6.93C27.0038 6.93 27.4498 7.046 27.8378 7.278C28.2298 7.51 28.5358 7.824 28.7558 8.22C28.9758 8.616 29.0858 9.06 29.0858 9.552C29.0858 10.044 28.9758 10.486 28.7558 10.878C28.5358 11.266 28.2298 11.574 27.8378 11.802C27.4498 12.03 27.0038 12.144 26.4998 12.144ZM26.4998 11.25C26.8198 11.25 27.0978 11.176 27.3338 11.028C27.5738 10.88 27.7598 10.678 27.8918 10.422C28.0238 10.162 28.0898 9.87 28.0898 9.546C28.0898 9.222 28.0238 8.93 27.8918 8.67C27.7598 8.41 27.5738 8.204 27.3338 8.052C27.0978 7.9 26.8198 7.824 26.4998 7.824C26.1758 7.824 25.8938 7.9 25.6538 8.052C25.4138 8.204 25.2258 8.41 25.0898 8.67C24.9578 8.93 24.8918 9.222 24.8918 9.546C24.8918 9.87 24.9578 10.162 25.0898 10.422C25.2258 10.678 25.4138 10.88 25.6538 11.028C25.8938 11.176 26.1758 11.25 26.4998 11.25ZM32.5953 14.634C32.2073 14.634 31.8553 14.594 31.5393 14.514C31.2273 14.434 30.9533 14.32 30.7173 14.172C30.4853 14.028 30.2993 13.858 30.1593 13.662L30.8433 13.008C30.9193 13.112 31.0213 13.222 31.1493 13.338C31.2813 13.458 31.4593 13.56 31.6833 13.644C31.9073 13.728 32.1993 13.77 32.5593 13.77C32.9113 13.77 33.2093 13.694 33.4533 13.542C33.6973 13.394 33.8833 13.192 34.0113 12.936C34.1393 12.68 34.2033 12.392 34.2033 12.072V11.91H35.2233V12.138C35.2233 12.682 35.1053 13.138 34.8693 13.506C34.6373 13.878 34.3233 14.158 33.9273 14.346C33.5313 14.538 33.0873 14.634 32.5953 14.634ZM34.2033 12V11.04C34.1713 11.14 34.0773 11.278 33.9213 11.454C33.7693 11.63 33.5593 11.79 33.2913 11.934C33.0273 12.074 32.7153 12.144 32.3553 12.144C31.8993 12.144 31.4853 12.036 31.1133 11.82C30.7453 11.604 30.4513 11.302 30.2313 10.914C30.0153 10.522 29.9073 10.064 29.9073 9.54C29.9073 9.016 30.0153 8.56 30.2313 8.172C30.4513 7.78 30.7453 7.476 31.1133 7.26C31.4853 7.04 31.8993 6.93 32.3553 6.93C32.7113 6.93 33.0193 6.994 33.2793 7.122C33.5433 7.25 33.7533 7.398 33.9093 7.566C34.0693 7.734 34.1633 7.878 34.1913 7.998V7.074H35.2233V12H34.2033ZM30.9393 9.54C30.9393 9.896 31.0173 10.204 31.1733 10.464C31.3293 10.724 31.5313 10.926 31.7793 11.07C32.0313 11.21 32.2993 11.28 32.5833 11.28C32.8873 11.28 33.1593 11.208 33.3993 11.064C33.6393 10.92 33.8293 10.718 33.9693 10.458C34.1093 10.194 34.1793 9.888 34.1793 9.54C34.1793 9.192 34.1093 8.888 33.9693 8.628C33.8293 8.364 33.6393 8.16 33.3993 8.016C33.1593 7.868 32.8873 7.794 32.5833 7.794C32.2993 7.794 32.0313 7.866 31.7793 8.01C31.5313 8.154 31.3293 8.356 31.1733 8.616C31.0173 8.876 30.9393 9.184 30.9393 9.54ZM36.7792 12V7.074H37.8232V12H36.7792ZM37.3132 5.388C37.1252 5.388 36.9632 5.322 36.8272 5.19C36.6952 5.054 36.6292 4.892 36.6292 4.704C36.6292 4.516 36.6952 4.354 36.8272 4.218C36.9632 4.082 37.1252 4.014 37.3132 4.014C37.4372 4.014 37.5512 4.046 37.6552 4.11C37.7632 4.174 37.8492 4.258 37.9132 4.362C37.9772 4.462 38.0092 4.576 38.0092 4.704C38.0092 4.892 37.9412 5.054 37.8052 5.19C37.6692 5.322 37.5052 5.388 37.3132 5.388ZM42.1731 6.93C42.4971 6.93 42.8111 6.998 43.1151 7.134C43.4231 7.27 43.6751 7.486 43.8711 7.782C44.0711 8.074 44.1711 8.456 44.1711 8.928V12H43.1151V9.132C43.1151 8.644 43.0011 8.29 42.7731 8.07C42.5451 7.846 42.2511 7.734 41.8911 7.734C41.6551 7.734 41.4271 7.802 41.2071 7.938C40.9911 8.07 40.8131 8.254 40.6731 8.49C40.5331 8.722 40.4631 8.986 40.4631 9.282V12H39.4191V7.074H40.4631V7.95C40.4991 7.814 40.5971 7.666 40.7571 7.506C40.9171 7.346 41.1211 7.21 41.3691 7.098C41.6171 6.986 41.8851 6.93 42.1731 6.93Z" fill="white"/>
</svg>
