<svg width="128" height="33" viewBox="0 0 128 33" fill="none" xmlns="http://www.w3.org/2000/svg">
<g clip-path="url(#clip0_2427_890)">
<path d="M117.258 0.00622559H10.2579C4.73509 0.00622559 0.257935 4.48338 0.257935 10.0062V23.0062C0.257935 28.5291 4.73509 33.0062 10.2579 33.0062H117.258C122.781 33.0062 127.258 28.5291 127.258 23.0062V10.0062C127.258 4.48338 122.781 0.00622559 117.258 0.00622559Z" fill="#EBEBEB"/>
<path d="M43.9786 11.592C44.5339 11.592 45.0169 11.655 45.4276 11.781C45.8429 11.9023 46.1719 12.033 46.4146 12.173C46.6619 12.313 46.8112 12.404 46.8626 12.446L46.0086 13.867C45.9339 13.8063 45.8056 13.7223 45.6236 13.615C45.4462 13.503 45.2316 13.405 44.9796 13.321C44.7276 13.2323 44.4546 13.188 44.1606 13.188C43.7359 13.188 43.3952 13.2697 43.1386 13.433C42.8866 13.5917 42.7606 13.8227 42.7606 14.126C42.7606 14.3313 42.8282 14.5157 42.9636 14.679C43.0989 14.8377 43.2972 14.987 43.5586 15.127C43.8246 15.267 44.1489 15.414 44.5316 15.568C44.8676 15.6987 45.1872 15.8503 45.4906 16.023C45.7986 16.1957 46.0716 16.3987 46.3096 16.632C46.5522 16.8653 46.7436 17.136 46.8836 17.444C47.0282 17.752 47.1006 18.1043 47.1006 18.501C47.1006 18.9443 47.0096 19.3317 46.8276 19.663C46.6502 19.9943 46.4029 20.272 46.0856 20.496C45.7729 20.72 45.4136 20.888 45.0076 21C44.6016 21.112 44.1746 21.168 43.7266 21.168C43.1199 21.168 42.5739 21.098 42.0886 20.958C41.6079 20.8133 41.2182 20.6593 40.9196 20.496C40.6209 20.3327 40.4459 20.2277 40.3946 20.181L41.2906 18.704C41.3466 18.746 41.4516 18.8137 41.6056 18.907C41.7642 19.0003 41.9556 19.096 42.1796 19.194C42.4082 19.292 42.6556 19.376 42.9216 19.446C43.1922 19.516 43.4676 19.551 43.7476 19.551C44.2516 19.551 44.6319 19.446 44.8886 19.236C45.1452 19.026 45.2736 18.753 45.2736 18.417C45.2736 18.165 45.1919 17.9433 45.0286 17.752C44.8652 17.5607 44.6342 17.3857 44.3356 17.227C44.0416 17.0637 43.6892 16.898 43.2786 16.73C42.8679 16.5573 42.4852 16.3567 42.1306 16.128C41.7806 15.8947 41.4982 15.61 41.2836 15.274C41.0689 14.9333 40.9616 14.5157 40.9616 14.021C40.9616 13.531 41.0992 13.104 41.3746 12.74C41.6546 12.376 42.0232 12.0937 42.4806 11.893C42.9426 11.6923 43.4419 11.592 43.9786 11.592ZM48.5545 11.76H50.3045V21H48.5545V11.76ZM56.3012 15.89H60.9912V16.443C60.9912 17.101 60.8792 17.717 60.6552 18.291C60.4359 18.8603 60.1209 19.362 59.7102 19.796C59.2995 20.2253 58.8119 20.5613 58.2472 20.804C57.6872 21.0467 57.0689 21.168 56.3922 21.168C55.6969 21.168 55.0622 21.0443 54.4882 20.797C53.9142 20.5497 53.4195 20.2067 53.0042 19.768C52.5889 19.3293 52.2669 18.8207 52.0382 18.242C51.8142 17.6587 51.7022 17.0357 51.7022 16.373C51.7022 15.715 51.8142 15.0967 52.0382 14.518C52.2669 13.9347 52.5889 13.426 53.0042 12.992C53.4195 12.5533 53.9142 12.2103 54.4882 11.963C55.0622 11.7157 55.6969 11.592 56.3922 11.592C56.9289 11.592 57.4072 11.6503 57.8272 11.767C58.2472 11.8837 58.6135 12.0423 58.9262 12.243C59.2435 12.439 59.5165 12.6583 59.7452 12.901C59.9785 13.139 60.1722 13.3793 60.3262 13.622L58.6882 14.42C58.4642 14.0933 58.1655 13.8133 57.7922 13.58C57.4235 13.3467 56.9569 13.23 56.3922 13.23C55.9722 13.23 55.5849 13.314 55.2302 13.482C54.8802 13.6453 54.5769 13.8717 54.3202 14.161C54.0682 14.4503 53.8722 14.7863 53.7322 15.169C53.5922 15.547 53.5222 15.9483 53.5222 16.373C53.5222 16.8023 53.5922 17.206 53.7322 17.584C53.8722 17.962 54.0682 18.298 54.3202 18.592C54.5769 18.8813 54.8802 19.1077 55.2302 19.271C55.5849 19.4343 55.9722 19.516 56.3922 19.516C56.7749 19.516 57.1225 19.46 57.4352 19.348C57.7479 19.236 58.0185 19.0773 58.2472 18.872C58.4805 18.6667 58.6649 18.4263 58.8002 18.151C58.9355 17.871 59.0125 17.57 59.0312 17.248H56.3012V15.89ZM63.8894 13.377L64.0084 13.398V21H62.2654V11.76H64.6734L68.8174 19.348L68.6984 19.376V11.76H70.4414V21H68.0194L63.8894 13.377ZM77.6385 11.76H79.3885V17.458C79.3885 18.2187 79.2368 18.8767 78.9335 19.432C78.6348 19.9873 78.2125 20.4167 77.6665 20.72C77.1252 21.0187 76.4858 21.168 75.7485 21.168C75.0065 21.168 74.3602 21.0187 73.8095 20.72C73.2635 20.4167 72.8388 19.9873 72.5355 19.432C72.2368 18.8767 72.0875 18.2187 72.0875 17.458V11.76H73.8305V17.367C73.8305 17.8337 73.9098 18.2327 74.0685 18.564C74.2318 18.8907 74.4582 19.1403 74.7475 19.313C75.0368 19.481 75.3705 19.565 75.7485 19.565C76.1218 19.565 76.4508 19.481 76.7355 19.313C77.0202 19.1403 77.2418 18.8907 77.4005 18.564C77.5592 18.2327 77.6385 17.8337 77.6385 17.367V11.76ZM81.0035 11.76H84.0765C84.6599 11.76 85.1872 11.8603 85.6585 12.061C86.1345 12.2617 86.5125 12.5697 86.7925 12.985C87.0725 13.3957 87.2125 13.9207 87.2125 14.56C87.2125 15.1947 87.0725 15.729 86.7925 16.163C86.5125 16.597 86.1345 16.926 85.6585 17.15C85.1872 17.3693 84.6599 17.479 84.0765 17.479H82.7465V21H81.0035V11.76ZM82.7465 16.072H83.5935C83.9202 16.072 84.2142 16.0253 84.4755 15.932C84.7415 15.834 84.9539 15.6777 85.1125 15.463C85.2712 15.2483 85.3505 14.9613 85.3505 14.602C85.3505 14.238 85.2712 13.9533 85.1125 13.748C84.9539 13.538 84.7415 13.3887 84.4755 13.3C84.2142 13.2067 83.9202 13.16 83.5935 13.16H82.7465V16.072Z" fill="#1E2C90"/>
</g>
<defs>
<clipPath id="clip0_2427_890">
<rect width="128" height="33" fill="white"/>
</clipPath>
</defs>
</svg>
