<svg width="128" height="34" viewBox="0 0 128 34" fill="none" xmlns="http://www.w3.org/2000/svg">
<rect x="0.363647" y="0.666656" width="127.273" height="33.3333" rx="10" fill="#1E2C90"/>
<path d="M44.9309 13.2693C45.4229 13.2693 45.8529 13.3233 46.2209 13.4313C46.5889 13.5393 46.8849 13.6533 47.1089 13.7733C47.3329 13.8933 47.4689 13.9733 47.5169 14.0133L46.6529 15.4593C46.5889 15.4113 46.4789 15.3413 46.3229 15.2493C46.1709 15.1573 45.9889 15.0753 45.7769 15.0033C45.5689 14.9313 45.3509 14.8953 45.1229 14.8953C44.8149 14.8953 44.5649 14.9513 44.3729 15.0633C44.1849 15.1713 44.0909 15.3333 44.0909 15.5493C44.0909 15.6973 44.1409 15.8313 44.2409 15.9513C44.3449 16.0673 44.5009 16.1793 44.7089 16.2873C44.9209 16.3913 45.1889 16.5053 45.5129 16.6293C45.8089 16.7373 46.0869 16.8653 46.3469 17.0133C46.6069 17.1613 46.8349 17.3373 47.0309 17.5413C47.2309 17.7413 47.3889 17.9733 47.5049 18.2373C47.6209 18.5013 47.6789 18.8013 47.6789 19.1373C47.6789 19.5373 47.5969 19.8853 47.4329 20.1813C47.2689 20.4733 47.0449 20.7153 46.7609 20.9073C46.4809 21.0993 46.1609 21.2413 45.8009 21.3333C45.4449 21.4293 45.0749 21.4773 44.6909 21.4773C44.1469 21.4773 43.6589 21.4153 43.2269 21.2913C42.7989 21.1673 42.4529 21.0333 42.1889 20.8893C41.9249 20.7453 41.7669 20.6493 41.7149 20.6013L42.6089 19.0953C42.6569 19.1313 42.7489 19.1893 42.8849 19.2693C43.0249 19.3493 43.1949 19.4333 43.3949 19.5213C43.5949 19.6053 43.8069 19.6773 44.0309 19.7373C44.2589 19.7973 44.4829 19.8273 44.7029 19.8273C45.0709 19.8273 45.3469 19.7573 45.5309 19.6173C45.7149 19.4733 45.8069 19.2853 45.8069 19.0533C45.8069 18.8813 45.7489 18.7273 45.6329 18.5913C45.5169 18.4553 45.3429 18.3273 45.1109 18.2073C44.8789 18.0833 44.5889 17.9533 44.2409 17.8173C43.8929 17.6773 43.5669 17.5073 43.2629 17.3073C42.9629 17.1073 42.7189 16.8573 42.5309 16.5573C42.3429 16.2573 42.2489 15.8853 42.2489 15.4413C42.2489 14.9973 42.3729 14.6133 42.6209 14.2893C42.8729 13.9613 43.2029 13.7093 43.6109 13.5333C44.0229 13.3573 44.4629 13.2693 44.9309 13.2693ZM48.8258 13.4133H50.6198V21.3333H48.8258V13.4133ZM55.7619 16.9053H59.7999V17.4093C59.7999 17.9773 59.7039 18.5073 59.5119 18.9993C59.3239 19.4913 59.0539 19.9233 58.7019 20.2953C58.3499 20.6673 57.9299 20.9573 57.4419 21.1653C56.9539 21.3733 56.4139 21.4773 55.8219 21.4773C55.2099 21.4773 54.6539 21.3733 54.1539 21.1653C53.6579 20.9533 53.2299 20.6593 52.8699 20.2833C52.5099 19.9073 52.2339 19.4713 52.0419 18.9753C51.8499 18.4753 51.7539 17.9393 51.7539 17.3673C51.7539 16.7993 51.8499 16.2673 52.0419 15.7713C52.2339 15.2713 52.5099 14.8353 52.8699 14.4633C53.2299 14.0873 53.6579 13.7953 54.1539 13.5873C54.6539 13.3753 55.2099 13.2693 55.8219 13.2693C56.3219 13.2693 56.7619 13.3233 57.1419 13.4313C57.5259 13.5393 57.8559 13.6833 58.1319 13.8633C58.4079 14.0433 58.6419 14.2413 58.8339 14.4573C59.0259 14.6693 59.1859 14.8773 59.3139 15.0813L57.6099 15.8853C57.4459 15.6333 57.2219 15.4133 56.9379 15.2253C56.6579 15.0373 56.2859 14.9433 55.8219 14.9433C55.4979 14.9433 55.1999 15.0073 54.9279 15.1353C54.6599 15.2633 54.4279 15.4393 54.2319 15.6633C54.0359 15.8833 53.8839 16.1413 53.7759 16.4373C53.6719 16.7293 53.6199 17.0393 53.6199 17.3673C53.6199 17.6993 53.6719 18.0113 53.7759 18.3033C53.8839 18.5953 54.0359 18.8533 54.2319 19.0773C54.4279 19.3013 54.6599 19.4773 54.9279 19.6053C55.1999 19.7293 55.4979 19.7913 55.8219 19.7913C56.1059 19.7913 56.3639 19.7553 56.5959 19.6833C56.8279 19.6113 57.0279 19.5073 57.1959 19.3713C57.3679 19.2353 57.5019 19.0753 57.5979 18.8913C57.6979 18.7033 57.7579 18.4973 57.7779 18.2733H55.7619V16.9053ZM62.4921 15.0573L62.6241 15.0813V21.3333H60.8301V13.4133H63.2781L66.4881 19.6533L66.3561 19.6773V13.4133H68.1501V21.3333H65.6901L62.4921 15.0573ZM77.2557 13.4133H79.0497V18.2793C79.0497 18.9313 78.9217 19.4973 78.6657 19.9773C78.4097 20.4533 78.0437 20.8233 77.5677 21.0873C77.0917 21.3473 76.5237 21.4773 75.8637 21.4773C75.1997 21.4773 74.6277 21.3473 74.1477 21.0873C73.6677 20.8233 73.2997 20.4533 73.0437 19.9773C72.7917 19.4973 72.6657 18.9313 72.6657 18.2793V13.4133H74.4537V18.1833C74.4537 18.5433 74.5097 18.8473 74.6217 19.0953C74.7377 19.3433 74.9017 19.5313 75.1137 19.6593C75.3257 19.7833 75.5757 19.8453 75.8637 19.8453C76.1477 19.8453 76.3937 19.7833 76.6017 19.6593C76.8097 19.5313 76.9697 19.3433 77.0817 19.0953C77.1977 18.8473 77.2557 18.5433 77.2557 18.1833V13.4133ZM80.3304 13.4133H83.2104C83.7184 13.4133 84.1764 13.5033 84.5844 13.6833C84.9924 13.8593 85.3164 14.1293 85.5564 14.4933C85.8004 14.8533 85.9224 15.3053 85.9224 15.8493C85.9224 16.3893 85.8004 16.8493 85.5564 17.2293C85.3164 17.6053 84.9924 17.8933 84.5844 18.0933C84.1764 18.2893 83.7184 18.3873 83.2104 18.3873H82.1244V21.3333H80.3304V13.4133ZM82.1244 16.9713H82.7124C82.9564 16.9713 83.1744 16.9353 83.3664 16.8633C83.5624 16.7913 83.7184 16.6773 83.8344 16.5213C83.9504 16.3613 84.0084 16.1513 84.0084 15.8913C84.0084 15.6273 83.9504 15.4193 83.8344 15.2673C83.7184 15.1113 83.5624 14.9993 83.3664 14.9313C83.1744 14.8633 82.9564 14.8293 82.7124 14.8293H82.1244V16.9713Z" fill="white"/>
</svg>
