<svg width="128" height="33" viewBox="0 0 128 33" fill="none" xmlns="http://www.w3.org/2000/svg">
<g clip-path="url(#clip0_2427_887)">
<path d="M117.258 0.00622559H10.2579C4.73509 0.00622559 0.257935 4.48338 0.257935 10.0062V23.0062C0.257935 28.5291 4.73509 33.0062 10.2579 33.0062H117.258C122.781 33.0062 127.258 28.5291 127.258 23.0062V10.0062C127.258 4.48338 122.781 0.00622559 117.258 0.00622559Z" fill="#1E2C90"/>
<path d="M42.9786 11.592C43.5339 11.592 44.0169 11.655 44.4276 11.781C44.8429 11.9023 45.1719 12.033 45.4146 12.173C45.6619 12.313 45.8112 12.404 45.8626 12.446L45.0086 13.867C44.9339 13.8063 44.8056 13.7223 44.6236 13.615C44.4462 13.503 44.2316 13.405 43.9796 13.321C43.7276 13.2323 43.4546 13.188 43.1606 13.188C42.7359 13.188 42.3952 13.2697 42.1386 13.433C41.8866 13.5917 41.7606 13.8227 41.7606 14.126C41.7606 14.3313 41.8282 14.5157 41.9636 14.679C42.0989 14.8377 42.2972 14.987 42.5586 15.127C42.8246 15.267 43.1489 15.414 43.5316 15.568C43.8676 15.6987 44.1872 15.8503 44.4906 16.023C44.7986 16.1957 45.0716 16.3987 45.3096 16.632C45.5522 16.8653 45.7436 17.136 45.8836 17.444C46.0282 17.752 46.1006 18.1043 46.1006 18.501C46.1006 18.9443 46.0096 19.3317 45.8276 19.663C45.6502 19.9943 45.4029 20.272 45.0856 20.496C44.7729 20.72 44.4136 20.888 44.0076 21C43.6016 21.112 43.1746 21.168 42.7266 21.168C42.1199 21.168 41.5739 21.098 41.0886 20.958C40.6079 20.8133 40.2182 20.6593 39.9196 20.496C39.6209 20.3327 39.4459 20.2277 39.3946 20.181L40.2906 18.704C40.3466 18.746 40.4516 18.8137 40.6056 18.907C40.7642 19.0003 40.9556 19.096 41.1796 19.194C41.4082 19.292 41.6556 19.376 41.9216 19.446C42.1922 19.516 42.4676 19.551 42.7476 19.551C43.2516 19.551 43.6319 19.446 43.8886 19.236C44.1452 19.026 44.2736 18.753 44.2736 18.417C44.2736 18.165 44.1919 17.9433 44.0286 17.752C43.8652 17.5607 43.6342 17.3857 43.3356 17.227C43.0416 17.0637 42.6892 16.898 42.2786 16.73C41.8679 16.5573 41.4852 16.3567 41.1306 16.128C40.7806 15.8947 40.4982 15.61 40.2836 15.274C40.0689 14.9333 39.9616 14.5157 39.9616 14.021C39.9616 13.531 40.0992 13.104 40.3746 12.74C40.6546 12.376 41.0232 12.0937 41.4806 11.893C41.9426 11.6923 42.4419 11.592 42.9786 11.592ZM47.5545 11.76H49.3045V21H47.5545V11.76ZM55.3012 15.89H59.9912V16.443C59.9912 17.101 59.8792 17.717 59.6552 18.291C59.4359 18.8603 59.1209 19.362 58.7102 19.796C58.2995 20.2253 57.8119 20.5613 57.2472 20.804C56.6872 21.0467 56.0689 21.168 55.3922 21.168C54.6969 21.168 54.0622 21.0443 53.4882 20.797C52.9142 20.5497 52.4195 20.2067 52.0042 19.768C51.5889 19.3293 51.2669 18.8207 51.0382 18.242C50.8142 17.6587 50.7022 17.0357 50.7022 16.373C50.7022 15.715 50.8142 15.0967 51.0382 14.518C51.2669 13.9347 51.5889 13.426 52.0042 12.992C52.4195 12.5533 52.9142 12.2103 53.4882 11.963C54.0622 11.7157 54.6969 11.592 55.3922 11.592C55.9289 11.592 56.4072 11.6503 56.8272 11.767C57.2472 11.8837 57.6135 12.0423 57.9262 12.243C58.2435 12.439 58.5165 12.6583 58.7452 12.901C58.9785 13.139 59.1722 13.3793 59.3262 13.622L57.6882 14.42C57.4642 14.0933 57.1655 13.8133 56.7922 13.58C56.4235 13.3467 55.9569 13.23 55.3922 13.23C54.9722 13.23 54.5849 13.314 54.2302 13.482C53.8802 13.6453 53.5769 13.8717 53.3202 14.161C53.0682 14.4503 52.8722 14.7863 52.7322 15.169C52.5922 15.547 52.5222 15.9483 52.5222 16.373C52.5222 16.8023 52.5922 17.206 52.7322 17.584C52.8722 17.962 53.0682 18.298 53.3202 18.592C53.5769 18.8813 53.8802 19.1077 54.2302 19.271C54.5849 19.4343 54.9722 19.516 55.3922 19.516C55.7749 19.516 56.1225 19.46 56.4352 19.348C56.7479 19.236 57.0185 19.0773 57.2472 18.872C57.4805 18.6667 57.6649 18.4263 57.8002 18.151C57.9355 17.871 58.0125 17.57 58.0312 17.248H55.3012V15.89ZM62.8894 13.377L63.0084 13.398V21H61.2654V11.76H63.6734L67.8174 19.348L67.6984 19.376V11.76H69.4414V21H67.0194L62.8894 13.377ZM76.6385 11.76H78.3885V17.458C78.3885 18.2187 78.2368 18.8767 77.9335 19.432C77.6348 19.9873 77.2125 20.4167 76.6665 20.72C76.1252 21.0187 75.4858 21.168 74.7485 21.168C74.0065 21.168 73.3602 21.0187 72.8095 20.72C72.2635 20.4167 71.8388 19.9873 71.5355 19.432C71.2368 18.8767 71.0875 18.2187 71.0875 17.458V11.76H72.8305V17.367C72.8305 17.8337 72.9098 18.2327 73.0685 18.564C73.2318 18.8907 73.4582 19.1403 73.7475 19.313C74.0368 19.481 74.3705 19.565 74.7485 19.565C75.1218 19.565 75.4508 19.481 75.7355 19.313C76.0202 19.1403 76.2418 18.8907 76.4005 18.564C76.5592 18.2327 76.6385 17.8337 76.6385 17.367V11.76ZM80.0035 11.76H83.0765C83.6599 11.76 84.1872 11.8603 84.6585 12.061C85.1345 12.2617 85.5125 12.5697 85.7925 12.985C86.0725 13.3957 86.2125 13.9207 86.2125 14.56C86.2125 15.1947 86.0725 15.729 85.7925 16.163C85.5125 16.597 85.1345 16.926 84.6585 17.15C84.1872 17.3693 83.6599 17.479 83.0765 17.479H81.7465V21H80.0035V11.76ZM81.7465 16.072H82.5935C82.9202 16.072 83.2142 16.0253 83.4755 15.932C83.7415 15.834 83.9539 15.6777 84.1125 15.463C84.2712 15.2483 84.3505 14.9613 84.3505 14.602C84.3505 14.238 84.2712 13.9533 84.1125 13.748C83.9539 13.538 83.7415 13.3887 83.4755 13.3C83.2142 13.2067 82.9202 13.16 82.5935 13.16H81.7465V16.072Z" fill="white"/>
</g>
<defs>
<clipPath id="clip0_2427_887">
<rect width="128" height="33" fill="white"/>
</clipPath>
</defs>
</svg>
