<svg width="700" height="400" viewBox="0 0 700 400" fill="none" xmlns="http://www.w3.org/2000/svg">
<rect width="700" height="400" rx="10" fill="#1E2C90"/>
<rect x="222.727" y="6.66667" width="254.545" height="386.667" rx="10" fill="white"/>
<path d="M271.091 89.6667C271.091 90.5902 270.829 91.4929 270.339 92.2606C269.849 93.0283 269.153 93.6264 268.338 93.9792C267.524 94.3321 266.627 94.4238 265.763 94.2428C264.899 94.0618 264.105 93.6161 263.482 92.9623C262.86 92.3085 262.437 91.4758 262.266 90.5698C262.095 89.6638 262.185 88.7251 262.524 87.8726C262.863 87.0201 263.436 86.2921 264.17 85.7807C264.904 85.2694 265.766 84.9977 266.648 85C267.827 85.0032 268.957 85.4962 269.79 86.371C270.623 87.2459 271.091 88.4311 271.091 89.6667Z" stroke="#202C89" stroke-width="2" stroke-linecap="round" stroke-linejoin="round"/>
<path d="M267.278 97C265.259 97 263.322 97.8413 261.89 99.3403C260.458 100.839 259.648 102.874 259.636 105H274.909C274.897 102.876 274.089 100.843 272.659 99.3444C271.23 97.8458 269.295 97.0031 267.278 97Z" stroke="#202C89" stroke-width="2" stroke-linecap="round" stroke-linejoin="round"/>
<path d="M272.927 130.333H261.618C260.524 130.333 259.636 131.333 259.636 132.567V141.433C259.636 142.667 260.524 143.667 261.618 143.667H272.927C274.022 143.667 274.909 142.667 274.909 141.433V132.567C274.909 131.333 274.022 130.333 272.927 130.333Z" stroke="#202C89" stroke-width="2" stroke-linecap="round" stroke-linejoin="round"/>
<path d="M262.182 130.333V128.949C262.242 127.527 262.804 126.184 263.752 125.2C264.7 124.216 265.961 123.667 267.273 123.667C268.584 123.667 269.845 124.216 270.793 125.2C271.741 126.184 272.304 127.527 272.364 128.949V130.333" stroke="#202C89" stroke-width="2" stroke-linecap="round" stroke-linejoin="round"/>
<path d="M272.927 169H261.618C260.524 169 259.636 170 259.636 171.234V180.1C259.636 181.333 260.524 182.333 261.618 182.333H272.927C274.022 182.333 274.909 181.333 274.909 180.1V171.234C274.909 170 274.022 169 272.927 169Z" stroke="#202C89" stroke-width="2" stroke-linecap="round" stroke-linejoin="round"/>
<path d="M262.182 169V167.616C262.242 166.193 262.804 164.85 263.752 163.866C264.7 162.882 265.961 162.333 267.273 162.333C268.584 162.333 269.845 162.882 270.793 163.866C271.741 164.85 272.304 166.193 272.364 167.616V169" stroke="#202C89" stroke-width="2" stroke-linecap="round" stroke-linejoin="round"/>
<path d="M257.127 203.041V214.442C257.127 214.8 257.263 215.143 257.504 215.396C257.746 215.649 258.073 215.791 258.415 215.791H261.498V208.118L266.636 212.198L271.775 208.118V215.791H274.858C275.2 215.791 275.527 215.649 275.769 215.396C276.01 215.143 276.146 214.8 276.146 214.442V203.041C276.14 202.648 276.032 202.265 275.833 201.932C275.635 201.6 275.353 201.33 275.019 201.153C274.685 200.975 274.311 200.897 273.938 200.926C273.564 200.955 273.205 201.091 272.9 201.318L266.636 206.271L260.427 201.318C260.121 201.075 259.757 200.926 259.375 200.888C258.993 200.851 258.609 200.926 258.266 201.105C257.923 201.284 257.634 201.56 257.433 201.902C257.232 202.245 257.126 202.639 257.127 203.041Z" stroke="#1E2C90" stroke-width="1.8" stroke-linejoin="round"/>
<path d="M269.104 252.711L270.514 251.233C270.732 251.003 270.99 250.82 271.275 250.695C271.56 250.57 271.865 250.506 272.174 250.506C272.483 250.506 272.789 250.57 273.074 250.695C273.359 250.82 273.617 251.003 273.834 251.233L275.488 252.967C275.708 253.194 275.883 253.465 276.002 253.764C276.121 254.062 276.182 254.383 276.182 254.706C276.182 255.03 276.121 255.351 276.002 255.649C275.883 255.948 275.708 256.218 275.488 256.446L274.735 257.246C274.217 257.795 273.546 258.159 272.818 258.284C272.091 258.41 271.344 258.292 270.684 257.947C265.008 254.884 260.385 250.043 257.459 244.097C257.129 243.405 257.017 242.621 257.139 241.858C257.261 241.095 257.611 240.393 258.138 239.851L258.891 239.051C259.332 238.591 259.928 238.333 260.55 238.333C261.172 238.333 261.769 238.591 262.21 239.051L263.875 240.796C264.314 241.258 264.56 241.884 264.56 242.535C264.56 243.187 264.314 243.813 263.875 244.275L262.465 245.753C263.397 247.075 264.422 248.324 265.53 249.488C266.631 250.644 267.815 251.711 269.072 252.678L269.104 252.711Z" stroke="#1E2C90" stroke-width="2" stroke-linecap="round" stroke-linejoin="round"/>
<path d="M319.67 32.872C320.654 32.872 321.514 32.98 322.25 33.196C322.986 33.412 323.578 33.64 324.026 33.88C324.474 34.12 324.746 34.28 324.842 34.36L323.114 37.252C322.986 37.156 322.766 37.016 322.454 36.832C322.15 36.648 321.786 36.484 321.362 36.34C320.946 36.196 320.51 36.124 320.054 36.124C319.438 36.124 318.938 36.236 318.554 36.46C318.178 36.676 317.99 37 317.99 37.432C317.99 37.728 318.09 37.996 318.29 38.236C318.498 38.468 318.81 38.692 319.226 38.908C319.65 39.116 320.186 39.344 320.834 39.592C321.426 39.808 321.982 40.064 322.502 40.36C323.022 40.656 323.478 41.008 323.87 41.416C324.27 41.816 324.586 42.28 324.818 42.808C325.05 43.336 325.166 43.936 325.166 44.608C325.166 45.408 325.002 46.104 324.674 46.696C324.346 47.28 323.898 47.764 323.33 48.148C322.77 48.532 322.13 48.816 321.41 49C320.698 49.192 319.958 49.288 319.19 49.288C318.102 49.288 317.126 49.164 316.262 48.916C315.406 48.668 314.714 48.4 314.186 48.112C313.658 47.824 313.342 47.632 313.238 47.536L315.026 44.524C315.122 44.596 315.306 44.712 315.578 44.872C315.858 45.032 316.198 45.2 316.598 45.376C316.998 45.544 317.422 45.688 317.87 45.808C318.326 45.928 318.774 45.988 319.214 45.988C319.95 45.988 320.502 45.848 320.87 45.568C321.238 45.28 321.422 44.904 321.422 44.44C321.422 44.096 321.306 43.788 321.074 43.516C320.842 43.244 320.494 42.988 320.03 42.748C319.566 42.5 318.986 42.24 318.29 41.968C317.594 41.688 316.942 41.348 316.334 40.948C315.734 40.548 315.246 40.048 314.87 39.448C314.494 38.848 314.306 38.104 314.306 37.216C314.306 36.328 314.554 35.56 315.05 34.912C315.554 34.256 316.214 33.752 317.03 33.4C317.854 33.048 318.734 32.872 319.67 32.872ZM327.46 49V39.148H331.108V49H327.46ZM329.332 37.12C328.756 37.12 328.268 36.92 327.868 36.52C327.468 36.112 327.268 35.628 327.268 35.068C327.268 34.508 327.468 34.024 327.868 33.616C328.276 33.2 328.764 32.992 329.332 32.992C329.708 32.992 330.052 33.088 330.364 33.28C330.676 33.464 330.928 33.712 331.12 34.024C331.312 34.336 331.408 34.684 331.408 35.068C331.408 35.628 331.204 36.112 330.796 36.52C330.388 36.92 329.9 37.12 329.332 37.12ZM338.793 54.268C338.105 54.268 337.421 54.208 336.741 54.088C336.069 53.968 335.441 53.764 334.857 53.476C334.273 53.188 333.781 52.792 333.381 52.288L335.517 50.068C335.701 50.284 335.925 50.496 336.189 50.704C336.461 50.912 336.793 51.084 337.185 51.22C337.585 51.356 338.069 51.424 338.637 51.424C339.165 51.424 339.625 51.332 340.017 51.148C340.409 50.964 340.713 50.696 340.929 50.344C341.153 49.992 341.265 49.564 341.265 49.06V48.82H344.853V49.276C344.853 50.364 344.581 51.28 344.037 52.024C343.501 52.768 342.777 53.328 341.865 53.704C340.953 54.08 339.929 54.268 338.793 54.268ZM341.265 49V47.404C341.193 47.564 341.009 47.796 340.713 48.1C340.425 48.404 340.041 48.68 339.561 48.928C339.081 49.168 338.521 49.288 337.881 49.288C336.921 49.288 336.081 49.056 335.361 48.592C334.641 48.12 334.081 47.492 333.681 46.708C333.281 45.916 333.081 45.04 333.081 44.08C333.081 43.12 333.281 42.248 333.681 41.464C334.081 40.672 334.641 40.04 335.361 39.568C336.081 39.096 336.921 38.86 337.881 38.86C338.497 38.86 339.037 38.96 339.501 39.16C339.965 39.352 340.341 39.584 340.629 39.856C340.917 40.12 341.117 40.364 341.229 40.588V39.148H344.853V49H341.265ZM336.657 44.08C336.657 44.528 336.761 44.932 336.969 45.292C337.177 45.644 337.453 45.92 337.797 46.12C338.149 46.32 338.537 46.42 338.961 46.42C339.401 46.42 339.789 46.32 340.125 46.12C340.461 45.92 340.725 45.644 340.917 45.292C341.117 44.932 341.217 44.528 341.217 44.08C341.217 43.632 341.117 43.232 340.917 42.88C340.725 42.52 340.461 42.24 340.125 42.04C339.789 41.832 339.401 41.728 338.961 41.728C338.537 41.728 338.149 41.832 337.797 42.04C337.453 42.24 337.177 42.52 336.969 42.88C336.761 43.232 336.657 43.632 336.657 44.08ZM353.972 38.86C354.66 38.86 355.332 39 355.988 39.28C356.644 39.56 357.184 40.004 357.608 40.612C358.032 41.212 358.244 42.004 358.244 42.988V49H354.584V43.588C354.584 42.884 354.416 42.356 354.08 42.004C353.744 41.644 353.304 41.464 352.76 41.464C352.4 41.464 352.06 41.56 351.74 41.752C351.428 41.936 351.172 42.2 350.972 42.544C350.78 42.88 350.684 43.268 350.684 43.708V49H347.036V39.148H350.684V40.6C350.78 40.336 350.98 40.072 351.284 39.808C351.596 39.536 351.984 39.312 352.448 39.136C352.92 38.952 353.428 38.86 353.972 38.86ZM363.819 43.708C363.819 44.492 363.967 45.12 364.263 45.592C364.559 46.056 365.055 46.288 365.751 46.288C366.463 46.288 366.963 46.056 367.251 45.592C367.547 45.12 367.695 44.492 367.695 43.708V39.148H371.295V44.092C371.295 45.148 371.075 46.068 370.635 46.852C370.203 47.628 369.575 48.228 368.751 48.652C367.927 49.076 366.927 49.288 365.751 49.288C364.583 49.288 363.587 49.076 362.763 48.652C361.939 48.228 361.311 47.628 360.879 46.852C360.447 46.068 360.231 45.148 360.231 44.092V39.148H363.819V43.708ZM377.1 53.992H373.488V39.148H377.136V40.588C377.248 40.364 377.46 40.12 377.772 39.856C378.092 39.584 378.496 39.352 378.984 39.16C379.48 38.96 380.04 38.86 380.664 38.86C381.624 38.86 382.444 39.096 383.124 39.568C383.812 40.04 384.34 40.672 384.708 41.464C385.076 42.248 385.26 43.12 385.26 44.08C385.26 45.04 385.064 45.916 384.672 46.708C384.28 47.492 383.728 48.12 383.016 48.592C382.312 49.056 381.48 49.288 380.52 49.288C379.832 49.288 379.244 49.168 378.756 48.928C378.276 48.68 377.896 48.408 377.616 48.112C377.344 47.808 377.172 47.572 377.1 47.404V53.992ZM381.696 44.08C381.696 43.632 381.596 43.232 381.396 42.88C381.196 42.52 380.924 42.24 380.58 42.04C380.244 41.832 379.864 41.728 379.44 41.728C379 41.728 378.604 41.832 378.252 42.04C377.908 42.24 377.636 42.52 377.436 42.88C377.236 43.232 377.136 43.632 377.136 44.08C377.136 44.528 377.236 44.932 377.436 45.292C377.636 45.644 377.908 45.92 378.252 46.12C378.604 46.32 379 46.42 379.44 46.42C379.864 46.42 380.244 46.32 380.58 46.12C380.924 45.92 381.196 45.644 381.396 45.292C381.596 44.932 381.696 44.528 381.696 44.08Z" fill="#1E2C90"/>
<path d="M286.66 331.42H287.817L290.989 340H289.799L289.058 337.933H285.418L284.664 340H283.475L286.66 331.42ZM285.776 336.932H288.707L287.251 332.785H287.232L285.776 336.932ZM293.049 340H291.912V331.056H293.049V340ZM295.79 340H294.666V334.663H295.79V335.586H295.758C295.779 335.474 295.859 335.333 295.998 335.164C296.137 334.995 296.327 334.843 296.57 334.709C296.813 334.575 297.103 334.507 297.441 334.507C297.688 334.507 297.905 334.542 298.091 334.611C298.282 334.676 298.416 334.741 298.494 334.806L298.033 335.742C297.972 335.682 297.866 335.621 297.714 335.56C297.562 335.495 297.374 335.463 297.149 335.463C296.863 335.463 296.618 335.552 296.414 335.729C296.21 335.907 296.054 336.122 295.946 336.373C295.842 336.62 295.79 336.85 295.79 337.062V340ZM299.818 337.562C299.822 337.883 299.891 338.176 300.026 338.44C300.16 338.704 300.359 338.914 300.624 339.07C300.892 339.226 301.222 339.304 301.612 339.304C301.941 339.304 302.221 339.257 302.45 339.161C302.684 339.062 302.875 338.945 303.022 338.81C303.17 338.672 303.276 338.548 303.341 338.44L303.893 339.122C303.75 339.33 303.575 339.512 303.367 339.668C303.163 339.824 302.914 339.944 302.619 340.026C302.325 340.113 301.965 340.156 301.54 340.156C300.968 340.156 300.472 340.035 300.052 339.792C299.636 339.545 299.315 339.205 299.09 338.771C298.864 338.334 298.752 337.833 298.752 337.27C298.752 336.75 298.858 336.282 299.07 335.866C299.283 335.446 299.59 335.114 299.993 334.871C300.401 334.629 300.89 334.507 301.462 334.507C301.987 334.507 302.442 334.618 302.827 334.839C303.217 335.056 303.518 335.363 303.731 335.762C303.947 336.161 304.056 336.637 304.056 337.192C304.056 337.227 304.054 337.289 304.049 337.38C304.045 337.467 304.041 337.528 304.036 337.562H299.818ZM302.977 336.711C302.972 336.533 302.92 336.338 302.821 336.126C302.725 335.914 302.569 335.732 302.353 335.58C302.136 335.428 301.844 335.352 301.475 335.352C301.094 335.352 300.786 335.426 300.552 335.573C300.323 335.721 300.154 335.901 300.045 336.113C299.937 336.321 299.874 336.52 299.857 336.711H302.977ZM309.595 340V338.96C309.56 339.068 309.458 339.218 309.289 339.408C309.124 339.599 308.897 339.772 308.607 339.928C308.321 340.08 307.983 340.156 307.593 340.156C307.099 340.156 306.65 340.039 306.247 339.805C305.848 339.571 305.53 339.244 305.292 338.823C305.058 338.399 304.941 337.903 304.941 337.335C304.941 336.767 305.058 336.273 305.292 335.853C305.53 335.428 305.848 335.099 306.247 334.865C306.65 334.627 307.099 334.507 307.593 334.507C307.978 334.507 308.312 334.577 308.594 334.715C308.88 334.854 309.107 335.014 309.276 335.196C309.449 335.378 309.551 335.534 309.582 335.664V334.663H310.7V340H309.595ZM306.059 337.335C306.059 337.721 306.143 338.054 306.312 338.336C306.481 338.618 306.7 338.836 306.969 338.992C307.242 339.144 307.532 339.22 307.84 339.22C308.169 339.22 308.464 339.142 308.724 338.986C308.984 338.83 309.189 338.611 309.341 338.33C309.493 338.043 309.569 337.712 309.569 337.335C309.569 336.958 309.493 336.629 309.341 336.347C309.189 336.061 308.984 335.84 308.724 335.684C308.464 335.524 308.169 335.443 307.84 335.443C307.532 335.443 307.242 335.521 306.969 335.677C306.7 335.833 306.481 336.052 306.312 336.334C306.143 336.616 306.059 336.949 306.059 337.335ZM314.564 340.156C314.074 340.156 313.634 340.039 313.244 339.805C312.859 339.571 312.553 339.244 312.328 338.823C312.107 338.399 311.996 337.903 311.996 337.335C311.996 336.767 312.107 336.273 312.328 335.853C312.553 335.428 312.859 335.099 313.244 334.865C313.634 334.627 314.074 334.507 314.564 334.507C314.958 334.507 315.305 334.577 315.604 334.715C315.903 334.85 316.141 335.008 316.319 335.19C316.496 335.372 316.598 335.53 316.624 335.664V331.056H317.762V340H316.644V338.96C316.596 339.107 316.477 339.274 316.286 339.46C316.1 339.647 315.859 339.809 315.565 339.948C315.27 340.087 314.936 340.156 314.564 340.156ZM314.824 339.22C315.153 339.22 315.454 339.142 315.727 338.986C316 338.83 316.217 338.611 316.377 338.33C316.542 338.043 316.624 337.712 316.624 337.335C316.624 336.958 316.542 336.629 316.377 336.347C316.217 336.061 316 335.84 315.727 335.684C315.454 335.524 315.153 335.443 314.824 335.443C314.52 335.443 314.239 335.521 313.979 335.677C313.719 335.833 313.509 336.052 313.348 336.334C313.192 336.616 313.114 336.949 313.114 337.335C313.114 337.721 313.192 338.054 313.348 338.336C313.509 338.618 313.719 338.836 313.979 338.992C314.239 339.144 314.52 339.22 314.824 339.22ZM321.245 338.966L323.045 334.663H324.176L320.575 342.704H319.431L320.64 340L318.443 334.663H319.594L321.245 338.966ZM331.293 334.507C331.644 334.507 331.984 334.581 332.313 334.728C332.647 334.876 332.92 335.11 333.132 335.43C333.349 335.747 333.457 336.161 333.457 336.672V340H332.313V336.893C332.313 336.364 332.192 335.981 331.949 335.742C331.711 335.5 331.397 335.378 331.007 335.378C330.747 335.378 330.498 335.452 330.259 335.599C330.021 335.742 329.824 335.942 329.668 336.197C329.516 336.449 329.44 336.735 329.44 337.055V340H328.296V331.056H329.44V335.612C329.479 335.465 329.583 335.305 329.752 335.131C329.926 334.958 330.147 334.811 330.415 334.689C330.684 334.568 330.977 334.507 331.293 334.507ZM339.276 340V338.96C339.242 339.068 339.14 339.218 338.971 339.408C338.806 339.599 338.579 339.772 338.288 339.928C338.002 340.08 337.664 340.156 337.274 340.156C336.78 340.156 336.332 340.039 335.929 339.805C335.53 339.571 335.212 339.244 334.973 338.823C334.739 338.399 334.622 337.903 334.622 337.335C334.622 336.767 334.739 336.273 334.973 335.853C335.212 335.428 335.53 335.099 335.929 334.865C336.332 334.627 336.78 334.507 337.274 334.507C337.66 334.507 337.994 334.577 338.275 334.715C338.561 334.854 338.789 335.014 338.958 335.196C339.131 335.378 339.233 335.534 339.263 335.664V334.663H340.381V340H339.276ZM335.74 337.335C335.74 337.721 335.825 338.054 335.994 338.336C336.163 338.618 336.382 338.836 336.65 338.992C336.923 339.144 337.214 339.22 337.521 339.22C337.851 339.22 338.145 339.142 338.405 338.986C338.665 338.83 338.871 338.611 339.023 338.33C339.174 338.043 339.25 337.712 339.25 337.335C339.25 336.958 339.174 336.629 339.023 336.347C338.871 336.061 338.665 335.84 338.405 335.684C338.145 335.524 337.851 335.443 337.521 335.443C337.214 335.443 336.923 335.521 336.65 335.677C336.382 335.833 336.163 336.052 335.994 336.334C335.825 336.616 335.74 336.949 335.74 337.335ZM341.359 334.663H342.575L344.317 338.953L346.059 334.663H347.268L344.986 340H343.654L341.359 334.663ZM349.037 337.562C349.042 337.883 349.111 338.176 349.245 338.44C349.38 338.704 349.579 338.914 349.843 339.07C350.112 339.226 350.441 339.304 350.831 339.304C351.161 339.304 351.44 339.257 351.67 339.161C351.904 339.062 352.095 338.945 352.242 338.81C352.389 338.672 352.495 338.548 352.56 338.44L353.113 339.122C352.97 339.33 352.794 339.512 352.586 339.668C352.383 339.824 352.134 339.944 351.839 340.026C351.544 340.113 351.185 340.156 350.76 340.156C350.188 340.156 349.692 340.035 349.271 339.792C348.855 339.545 348.535 339.205 348.309 338.771C348.084 338.334 347.971 337.833 347.971 337.27C347.971 336.75 348.078 336.282 348.29 335.866C348.502 335.446 348.81 335.114 349.213 334.871C349.62 334.629 350.11 334.507 350.682 334.507C351.206 334.507 351.661 334.618 352.047 334.839C352.437 335.056 352.738 335.363 352.95 335.762C353.167 336.161 353.275 336.637 353.275 337.192C353.275 337.227 353.273 337.289 353.269 337.38C353.265 337.467 353.26 337.528 353.256 337.562H349.037ZM352.196 336.711C352.192 336.533 352.14 336.338 352.04 336.126C351.945 335.914 351.789 335.732 351.572 335.58C351.356 335.428 351.063 335.352 350.695 335.352C350.314 335.352 350.006 335.426 349.772 335.573C349.542 335.721 349.373 335.901 349.265 336.113C349.157 336.321 349.094 336.52 349.076 336.711H352.196ZM362.052 340V338.96C362.017 339.068 361.915 339.218 361.746 339.408C361.581 339.599 361.354 339.772 361.064 339.928C360.778 340.08 360.44 340.156 360.05 340.156C359.556 340.156 359.107 340.039 358.704 339.805C358.305 339.571 357.987 339.244 357.749 338.823C357.515 338.399 357.398 337.903 357.398 337.335C357.398 336.767 357.515 336.273 357.749 335.853C357.987 335.428 358.305 335.099 358.704 334.865C359.107 334.627 359.556 334.507 360.05 334.507C360.435 334.507 360.769 334.577 361.051 334.715C361.337 334.854 361.564 335.014 361.733 335.196C361.906 335.378 362.008 335.534 362.039 335.664V334.663H363.157V340H362.052ZM358.516 337.335C358.516 337.721 358.6 338.054 358.769 338.336C358.938 338.618 359.157 338.836 359.426 338.992C359.699 339.144 359.989 339.22 360.297 339.22C360.626 339.22 360.921 339.142 361.181 338.986C361.441 338.83 361.646 338.611 361.798 338.33C361.95 338.043 362.026 337.712 362.026 337.335C362.026 336.958 361.95 336.629 361.798 336.347C361.646 336.061 361.441 335.84 361.181 335.684C360.921 335.524 360.626 335.443 360.297 335.443C359.989 335.443 359.699 335.521 359.426 335.677C359.157 335.833 358.938 336.052 358.769 336.334C358.6 336.616 358.516 336.949 358.516 337.335ZM367.651 334.507C368.002 334.507 368.343 334.581 368.672 334.728C369.006 334.876 369.279 335.11 369.491 335.43C369.708 335.747 369.816 336.161 369.816 336.672V340H368.672V336.893C368.672 336.364 368.548 335.981 368.301 335.742C368.054 335.5 367.736 335.378 367.346 335.378C367.09 335.378 366.843 335.452 366.605 335.599C366.371 335.742 366.178 335.942 366.026 336.197C365.875 336.449 365.799 336.735 365.799 337.055V340H364.668V334.663H365.799V335.612C365.838 335.465 365.944 335.305 366.117 335.131C366.291 334.958 366.512 334.811 366.78 334.689C367.049 334.568 367.339 334.507 367.651 334.507ZM378.822 340V338.96C378.787 339.068 378.686 339.218 378.517 339.408C378.352 339.599 378.124 339.772 377.834 339.928C377.548 340.08 377.21 340.156 376.82 340.156C376.326 340.156 375.878 340.039 375.475 339.805C375.076 339.571 374.757 339.244 374.519 338.823C374.285 338.399 374.168 337.903 374.168 337.335C374.168 336.767 374.285 336.273 374.519 335.853C374.757 335.428 375.076 335.099 375.475 334.865C375.878 334.627 376.326 334.507 376.82 334.507C377.206 334.507 377.539 334.577 377.821 334.715C378.107 334.854 378.335 335.014 378.504 335.196C378.677 335.378 378.779 335.534 378.809 335.664V334.663H379.927V340H378.822ZM375.286 337.335C375.286 337.721 375.371 338.054 375.54 338.336C375.709 338.618 375.927 338.836 376.196 338.992C376.469 339.144 376.759 339.22 377.067 339.22C377.396 339.22 377.691 339.142 377.951 338.986C378.211 338.83 378.417 338.611 378.569 338.33C378.72 338.043 378.796 337.712 378.796 337.335C378.796 336.958 378.72 336.629 378.569 336.347C378.417 336.061 378.211 335.84 377.951 335.684C377.691 335.524 377.396 335.443 377.067 335.443C376.759 335.443 376.469 335.521 376.196 335.677C375.927 335.833 375.709 336.052 375.54 336.334C375.371 336.616 375.286 336.949 375.286 337.335ZM383.954 339.22C384.292 339.22 384.565 339.166 384.773 339.057C384.981 338.949 385.111 338.871 385.163 338.823L385.715 339.636C385.672 339.675 385.568 339.738 385.403 339.824C385.243 339.907 385.035 339.983 384.779 340.052C384.528 340.121 384.242 340.156 383.921 340.156C383.432 340.156 382.977 340.048 382.556 339.831C382.136 339.61 381.796 339.289 381.536 338.869C381.28 338.449 381.152 337.935 381.152 337.328C381.152 336.717 381.28 336.204 381.536 335.788C381.796 335.368 382.136 335.049 382.556 334.832C382.977 334.616 383.432 334.507 383.921 334.507C384.238 334.507 384.519 334.546 384.766 334.624C385.013 334.698 385.217 334.78 385.377 334.871C385.538 334.962 385.644 335.032 385.696 335.079L385.137 335.892C385.102 335.857 385.035 335.805 384.935 335.736C384.84 335.662 384.71 335.595 384.545 335.534C384.381 335.474 384.184 335.443 383.954 335.443C383.677 335.443 383.406 335.519 383.141 335.671C382.881 335.818 382.667 336.033 382.498 336.314C382.329 336.596 382.244 336.934 382.244 337.328C382.244 337.723 382.329 338.063 382.498 338.349C382.667 338.631 382.881 338.847 383.141 338.999C383.406 339.146 383.677 339.22 383.954 339.22ZM389.349 339.22C389.687 339.22 389.96 339.166 390.168 339.057C390.376 338.949 390.506 338.871 390.558 338.823L391.111 339.636C391.068 339.675 390.964 339.738 390.799 339.824C390.639 339.907 390.431 339.983 390.175 340.052C389.924 340.121 389.638 340.156 389.317 340.156C388.827 340.156 388.372 340.048 387.952 339.831C387.532 339.61 387.191 339.289 386.931 338.869C386.676 338.449 386.548 337.935 386.548 337.328C386.548 336.717 386.676 336.204 386.931 335.788C387.191 335.368 387.532 335.049 387.952 334.832C388.372 334.616 388.827 334.507 389.317 334.507C389.633 334.507 389.915 334.546 390.162 334.624C390.409 334.698 390.613 334.78 390.773 334.871C390.933 334.962 391.039 335.032 391.091 335.079L390.532 335.892C390.498 335.857 390.431 335.805 390.331 335.736C390.236 335.662 390.106 335.595 389.941 335.534C389.776 335.474 389.579 335.443 389.349 335.443C389.072 335.443 388.801 335.519 388.537 335.671C388.277 335.818 388.062 336.033 387.893 336.314C387.724 336.596 387.64 336.934 387.64 337.328C387.64 337.723 387.724 338.063 387.893 338.349C388.062 338.631 388.277 338.847 388.537 338.999C388.801 339.146 389.072 339.22 389.349 339.22ZM394.699 340.156C394.149 340.156 393.659 340.033 393.23 339.786C392.806 339.538 392.472 339.205 392.229 338.784C391.987 338.36 391.865 337.881 391.865 337.348C391.865 336.815 391.987 336.334 392.229 335.905C392.472 335.476 392.806 335.136 393.23 334.884C393.659 334.633 394.149 334.507 394.699 334.507C395.245 334.507 395.729 334.633 396.149 334.884C396.574 335.136 396.905 335.476 397.143 335.905C397.382 336.334 397.501 336.815 397.501 337.348C397.501 337.881 397.382 338.36 397.143 338.784C396.905 339.205 396.574 339.538 396.149 339.786C395.729 340.033 395.245 340.156 394.699 340.156ZM394.699 339.188C395.046 339.188 395.347 339.107 395.603 338.947C395.863 338.787 396.064 338.568 396.207 338.29C396.35 338.009 396.422 337.692 396.422 337.341C396.422 336.99 396.35 336.674 396.207 336.392C396.064 336.111 395.863 335.888 395.603 335.723C395.347 335.558 395.046 335.476 394.699 335.476C394.348 335.476 394.043 335.558 393.783 335.723C393.523 335.888 393.319 336.111 393.172 336.392C393.029 336.674 392.957 336.99 392.957 337.341C392.957 337.692 393.029 338.009 393.172 338.29C393.319 338.568 393.523 338.787 393.783 338.947C394.043 339.107 394.348 339.188 394.699 339.188ZM399.814 337.354C399.814 337.913 399.933 338.36 400.172 338.693C400.414 339.023 400.785 339.188 401.283 339.188C401.786 339.188 402.156 339.023 402.395 338.693C402.633 338.36 402.752 337.913 402.752 337.354V334.663H403.87V337.51C403.87 338.03 403.768 338.49 403.565 338.888C403.365 339.287 403.073 339.599 402.687 339.824C402.306 340.045 401.838 340.156 401.283 340.156C400.733 340.156 400.265 340.045 399.879 339.824C399.498 339.599 399.205 339.287 399.002 338.888C398.802 338.49 398.703 338.03 398.703 337.51V334.663H399.814V337.354ZM408.391 334.507C408.742 334.507 409.082 334.581 409.411 334.728C409.745 334.876 410.018 335.11 410.23 335.43C410.447 335.747 410.555 336.161 410.555 336.672V340H409.411V336.893C409.411 336.364 409.288 335.981 409.041 335.742C408.794 335.5 408.475 335.378 408.085 335.378C407.829 335.378 407.582 335.452 407.344 335.599C407.11 335.742 406.917 335.942 406.766 336.197C406.614 336.449 406.538 336.735 406.538 337.055V340H405.407V334.663H406.538V335.612C406.577 335.465 406.683 335.305 406.857 335.131C407.03 334.958 407.251 334.811 407.52 334.689C407.788 334.568 408.079 334.507 408.391 334.507ZM411.579 334.663H412.626V332.473H413.75V334.663H415.122V335.632H413.75V338.271C413.75 338.583 413.804 338.813 413.913 338.96C414.025 339.107 414.175 339.181 414.361 339.181C414.526 339.181 414.654 339.151 414.745 339.09C414.836 339.029 414.89 338.988 414.907 338.966L415.356 339.798C415.33 339.82 415.26 339.861 415.148 339.922C415.035 339.983 414.89 340.037 414.712 340.085C414.534 340.132 414.326 340.156 414.088 340.156C413.672 340.156 413.323 340.03 413.042 339.779C412.764 339.523 412.626 339.12 412.626 338.57V335.632H411.579V334.663Z" fill="#1E2C90"/>
<g opacity="0.75" clip-path="url(#clip0_104_23)">
<path d="M524.993 285.868V299.61L826.644 299.956V340.215L484.644 340.907V285.903C484.643 278.647 486.069 271.46 488.842 264.755C491.614 258.051 495.678 251.958 500.802 246.826C505.926 241.694 512.01 237.622 518.705 234.844C525.401 232.066 532.577 230.635 539.825 230.634H785.595V203.363H662.183V149.726C662.183 134.922 668.056 120.724 678.511 110.256C688.966 99.7876 703.145 93.9067 717.931 93.9067H826.626V134.902H716.761C713.123 134.902 709.633 136.348 707.06 138.924C704.486 141.499 703.039 144.992 703.037 148.635V162.403H826.626V272.135H538.673C535.042 272.147 531.564 273.598 529 276.172C526.436 278.746 524.995 282.233 524.993 285.868Z" fill="white"/>
<path d="M545.644 155.941L553.124 160.814C564.384 168.16 573.979 177.987 581.242 189.611L587.073 198.907L591.473 191.788C599.405 178.94 609.963 168.097 622.385 160.042L628.644 155.987L620.218 150.228C608.228 142.051 598.09 131.228 590.516 118.516L587.216 112.907L583.717 118.931C575.91 132.379 565.112 143.65 552.244 151.783L545.644 155.941Z" fill="white"/>
</g>
<g opacity="0.75" clip-path="url(#clip1_104_23)">
<path d="M-126.46 278.831V294.353L214 294.744V340.218L-172 341V278.871C-172.001 270.674 -170.391 262.557 -167.262 254.983C-164.133 247.409 -159.546 240.528 -153.763 234.731C-147.98 228.933 -141.113 224.334 -133.557 221.196C-126 218.058 -117.9 216.442 -109.72 216.441H167.67V185.637H28.38V125.051C28.38 108.329 35.0091 92.2916 46.8089 80.4672C58.6086 68.6429 74.6126 62 91.3 62H213.98V108.306H89.98C85.8735 108.306 81.9351 109.94 79.0305 112.849C76.1258 115.758 74.4927 119.703 74.49 123.819V139.371H213.98V263.319H-111.02C-115.118 263.332 -119.043 264.972 -121.937 267.879C-124.831 270.786 -126.457 274.724 -126.46 278.831Z" fill="white"/>
</g>
<defs>
<clipPath id="clip0_104_23">
<rect width="215.091" height="326.667" fill="white" transform="translate(484.909 66.6667)"/>
</clipPath>
<clipPath id="clip1_104_23">
<rect width="221.455" height="337.333" fill="white" transform="translate(0 42.6667)"/>
</clipPath>
</defs>
</svg>
