<svg width="479" height="238" viewBox="0 0 479 238" fill="none" xmlns="http://www.w3.org/2000/svg">
<g filter="url(#filter0_d_142_70)">
<rect x="15" y="15" width="439" height="198" rx="25" fill="#4B70F5"/>
</g>
<path d="M388 20H425C438.807 20 450 31.1929 450 45V183C450 196.807 438.807 208 425 208H388V20Z" fill="white"/>
<path d="M63.3942 61.96H52.9142V73H47.9542V46.6H52.9142V57.56H63.3942V46.6H68.3542V73H63.3942V61.96ZM81.5677 46.6H86.5877L96.7477 73H91.4277L89.3677 67.3H78.8077L76.7077 73H71.3677L81.5677 46.6ZM80.4477 62.88H87.7277L84.1077 52.64H84.0477L80.4477 62.88ZM99.0852 46.6H109.245C110.738 46.6 112.078 46.9133 113.265 47.54C114.452 48.1533 115.392 49.0533 116.085 50.24C116.792 51.4133 117.145 52.8333 117.145 54.5C117.145 56.1533 116.838 57.5133 116.225 58.58C115.612 59.6333 114.872 60.4267 114.005 60.96C113.152 61.4933 112.358 61.8 111.625 61.88L118.105 73H112.465L106.605 62.26H104.065V73H99.0852V46.6ZM104.065 58.74H107.465C108.732 58.74 109.805 58.4267 110.685 57.8C111.578 57.1733 112.025 56.12 112.025 54.64C112.025 53.16 111.585 52.12 110.705 51.52C109.825 50.9067 108.758 50.6 107.505 50.6H104.065V58.74ZM122.251 46.6H129.531C132.344 46.6 134.664 47.1667 136.491 48.3C138.331 49.42 139.704 50.9733 140.611 52.96C141.518 54.9467 141.971 57.22 141.971 59.78C141.971 62.3533 141.518 64.6333 140.611 66.62C139.704 68.6067 138.331 70.1667 136.491 71.3C134.664 72.4333 132.344 73 129.531 73H122.251V46.6ZM127.211 51.06V68.54H129.091C130.811 68.54 132.224 68.1667 133.331 67.42C134.451 66.66 135.284 65.62 135.831 64.3C136.391 62.98 136.671 61.4867 136.671 59.82C136.684 58.14 136.418 56.64 135.871 55.32C135.324 54 134.484 52.96 133.351 52.2C132.231 51.44 130.811 51.06 129.091 51.06H127.211Z" fill="white"/>
<path d="M59.135 157.768C56.319 157.768 53.695 157.235 51.263 156.168C48.831 155.101 46.8577 153.629 45.343 151.752C43.8283 149.853 43.071 147.667 43.071 145.192C43.071 143.272 43.3803 141.619 43.999 140.232C44.639 138.845 45.5137 137.672 46.623 136.712C47.7323 135.731 48.9803 134.899 50.367 134.216C49.3003 133.576 48.351 132.861 47.519 132.072C46.687 131.261 46.0363 130.312 45.567 129.224C45.0977 128.115 44.863 126.76 44.863 125.16C44.863 122.856 45.503 120.872 46.783 119.208C48.0843 117.544 49.8123 116.264 51.967 115.368C54.1217 114.451 56.4897 113.992 59.071 113.992C61.7163 113.992 64.095 114.451 66.207 115.368C68.3403 116.264 70.0257 117.544 71.263 119.208C72.5003 120.872 73.119 122.856 73.119 125.16C73.119 127.549 72.6177 129.416 71.615 130.76C70.6337 132.083 69.3643 133.235 67.807 134.216C69.1937 134.899 70.431 135.731 71.519 136.712C72.6283 137.672 73.503 138.845 74.143 140.232C74.783 141.619 75.103 143.272 75.103 145.192C75.103 147.667 74.3563 149.853 72.863 151.752C71.3697 153.629 69.407 155.101 66.975 156.168C64.543 157.235 61.9297 157.768 59.135 157.768ZM59.071 148.136C59.903 148.136 60.6497 147.944 61.311 147.56C61.9937 147.155 62.5377 146.611 62.943 145.928C63.3483 145.245 63.551 144.499 63.551 143.688C63.551 142.877 63.3483 142.131 62.943 141.448C62.5377 140.765 61.9937 140.232 61.311 139.848C60.6497 139.443 59.903 139.24 59.071 139.24C58.2603 139.24 57.5137 139.443 56.831 139.848C56.1697 140.253 55.6363 140.797 55.231 141.48C54.8257 142.141 54.623 142.877 54.623 143.688C54.623 144.499 54.8257 145.245 55.231 145.928C55.6363 146.589 56.1697 147.123 56.831 147.528C57.5137 147.933 58.2603 148.136 59.071 148.136ZM59.135 130.792C59.8817 130.792 60.5643 130.611 61.183 130.248C61.8017 129.864 62.2923 129.352 62.655 128.712C63.039 128.072 63.231 127.379 63.231 126.632C63.231 125.864 63.039 125.171 62.655 124.552C62.2923 123.933 61.8017 123.443 61.183 123.08C60.5643 122.696 59.8817 122.504 59.135 122.504C58.367 122.504 57.663 122.696 57.023 123.08C56.4043 123.443 55.903 123.933 55.519 124.552C55.1563 125.171 54.975 125.864 54.975 126.632C54.975 127.379 55.1563 128.072 55.519 128.712C55.903 129.331 56.4043 129.832 57.023 130.216C57.663 130.6 58.367 130.792 59.135 130.792ZM78.6505 135.912C78.6505 132.285 79.1198 129.107 80.0585 126.376C80.9972 123.624 82.2878 121.331 83.9305 119.496C85.5945 117.661 87.4825 116.285 89.5945 115.368C91.7065 114.451 93.9358 113.992 96.2825 113.992C98.6718 113.992 100.923 114.451 103.035 115.368C105.147 116.285 107.013 117.661 108.635 119.496C110.277 121.331 111.568 123.624 112.507 126.376C113.445 129.107 113.915 132.285 113.915 135.912C113.915 139.859 113.445 143.219 112.507 145.992C111.568 148.765 110.277 151.016 108.635 152.744C107.013 154.472 105.147 155.741 103.035 156.552C100.923 157.363 98.6718 157.768 96.2825 157.768C93.9358 157.768 91.7065 157.363 89.5945 156.552C87.4825 155.741 85.5945 154.472 83.9305 152.744C82.2878 151.016 80.9972 148.765 80.0585 145.992C79.1198 143.219 78.6505 139.859 78.6505 135.912ZM89.7865 135.912C89.7865 138.685 90.0318 140.968 90.5225 142.76C91.0345 144.531 91.7705 145.853 92.7305 146.728C93.6905 147.581 94.8745 148.008 96.2825 148.008C97.7118 148.008 98.9065 147.581 99.8665 146.728C100.827 145.853 101.541 144.52 102.011 142.728C102.501 140.936 102.747 138.664 102.747 135.912C102.747 133.373 102.501 131.208 102.011 129.416C101.541 127.603 100.827 126.205 99.8665 125.224C98.9065 124.243 97.7118 123.752 96.2825 123.752C94.8745 123.752 93.6905 124.243 92.7305 125.224C91.7705 126.205 91.0345 127.603 90.5225 129.416C90.0318 131.229 89.7865 133.395 89.7865 135.912ZM137.989 134.984L153.541 157H140.293L128.357 138.92V157H117.221V114.76H128.357V131.272L139.237 114.76H151.781L137.989 134.984Z" fill="white"/>
<path d="M47.5502 84.16H56.5742V85.42H48.8822V91.432H56.3822V92.68H48.8822V98.74H56.5742V100H47.5502V84.16ZM63.2944 89.86C63.7504 89.86 64.1784 89.912 64.5784 90.016C64.9864 90.112 65.3424 90.236 65.6464 90.388C65.9504 90.532 66.1784 90.664 66.3304 90.784L65.6704 91.732C65.5024 91.572 65.2104 91.404 64.7944 91.228C64.3784 91.044 63.9104 90.952 63.3904 90.952C62.7504 90.952 62.2024 91.084 61.7464 91.348C61.2984 91.612 61.0744 91.996 61.0744 92.5C61.0744 92.988 61.3024 93.376 61.7584 93.664C62.2144 93.952 62.8144 94.188 63.5584 94.372C64.1264 94.516 64.6424 94.696 65.1064 94.912C65.5784 95.128 65.9544 95.424 66.2344 95.8C66.5144 96.168 66.6544 96.66 66.6544 97.276C66.6544 97.804 66.5464 98.26 66.3304 98.644C66.1144 99.02 65.8184 99.328 65.4424 99.568C65.0744 99.808 64.6544 99.988 64.1824 100.108C63.7104 100.228 63.2144 100.288 62.6944 100.288C62.1584 100.288 61.6624 100.228 61.2064 100.108C60.7504 99.988 60.3584 99.844 60.0304 99.676C59.7104 99.508 59.4664 99.352 59.2984 99.208L59.9824 98.14C60.1904 98.356 60.5304 98.58 61.0024 98.812C61.4824 99.036 62.0424 99.148 62.6824 99.148C63.4264 99.148 64.0384 98.976 64.5184 98.632C65.0064 98.288 65.2504 97.836 65.2504 97.276C65.2504 96.868 65.1344 96.54 64.9024 96.292C64.6704 96.044 64.3664 95.848 63.9904 95.704C63.6144 95.552 63.2144 95.424 62.7904 95.32C62.3824 95.216 61.9904 95.092 61.6144 94.948C61.2464 94.796 60.9184 94.608 60.6304 94.384C60.3424 94.16 60.1144 93.892 59.9464 93.58C59.7864 93.26 59.7064 92.888 59.7064 92.464C59.7064 91.936 59.8704 91.48 60.1984 91.096C60.5264 90.704 60.9624 90.4 61.5064 90.184C62.0584 89.968 62.6544 89.86 63.2944 89.86ZM68.2939 90.148H70.3459V86.104H71.7019V90.148H74.3899V91.384H71.7019V97.228C71.7019 97.884 71.8219 98.352 72.0619 98.632C72.3019 98.912 72.6019 99.052 72.9619 99.052C73.3059 99.052 73.5659 98.992 73.7419 98.872C73.9179 98.752 74.0219 98.672 74.0539 98.632L74.6899 99.676C74.6419 99.716 74.5339 99.788 74.3659 99.892C74.1979 99.988 73.9779 100.076 73.7059 100.156C73.4339 100.244 73.1059 100.288 72.7219 100.288C72.0579 100.288 71.4939 100.076 71.0299 99.652C70.5739 99.22 70.3459 98.532 70.3459 97.588V91.384H68.2939V90.148ZM77.0037 100V90.148H78.3597V100H77.0037ZM77.6997 86.152C77.4117 86.152 77.1637 86.052 76.9557 85.852C76.7557 85.644 76.6557 85.396 76.6557 85.108C76.6557 84.812 76.7597 84.564 76.9677 84.364C77.1757 84.156 77.4197 84.052 77.6997 84.052C77.8917 84.052 78.0677 84.1 78.2277 84.196C78.3957 84.292 78.5277 84.42 78.6237 84.58C78.7277 84.732 78.7797 84.908 78.7797 85.108C78.7797 85.396 78.6717 85.644 78.4557 85.852C78.2477 86.052 77.9957 86.152 77.6997 86.152ZM92.8999 89.86C93.6279 89.86 94.2399 90.02 94.7359 90.34C95.2319 90.66 95.6039 91.148 95.8519 91.804C96.1079 92.452 96.2359 93.28 96.2359 94.288V100H94.8799V94.648C94.8799 93.408 94.7119 92.496 94.3759 91.912C94.0399 91.328 93.4399 91.036 92.5759 91.036C92.1359 91.036 91.6999 91.16 91.2679 91.408C90.8439 91.648 90.4919 92.032 90.2119 92.56C89.9319 93.088 89.7919 93.784 89.7919 94.648V100H88.4839V94.648C88.4839 93.408 88.2679 92.496 87.8359 91.912C87.4039 91.328 86.8359 91.036 86.1319 91.036C85.6839 91.036 85.2479 91.152 84.8239 91.384C84.4079 91.616 84.0639 92 83.7919 92.536C83.5279 93.064 83.3959 93.768 83.3959 94.648V100H82.0399V90.148H83.3959V91.708C83.4759 91.46 83.6559 91.192 83.9359 90.904C84.2239 90.616 84.5919 90.372 85.0399 90.172C85.4879 89.964 85.9999 89.86 86.5759 89.86C87.1839 89.86 87.6879 89.996 88.0879 90.268C88.4879 90.54 88.7999 90.864 89.0239 91.24C89.2479 91.616 89.3879 91.96 89.4439 92.272C89.5639 91.896 89.7799 91.524 90.0919 91.156C90.4039 90.788 90.7999 90.48 91.2799 90.232C91.7599 89.984 92.2999 89.86 92.8999 89.86ZM107.502 100V97.936C107.446 98.152 107.258 98.448 106.938 98.824C106.626 99.2 106.19 99.54 105.63 99.844C105.078 100.14 104.422 100.288 103.662 100.288C102.774 100.288 101.954 100.084 101.202 99.676C100.458 99.26 99.858 98.664 99.402 97.888C98.954 97.104 98.73 96.168 98.73 95.08C98.73 93.992 98.954 93.06 99.402 92.284C99.858 91.5 100.458 90.9 101.202 90.484C101.954 90.068 102.774 89.86 103.662 89.86C104.422 89.86 105.078 90.004 105.63 90.292C106.182 90.572 106.618 90.896 106.938 91.264C107.266 91.632 107.45 91.94 107.49 92.188V90.148H108.834V100H107.502ZM100.086 95.08C100.086 95.912 100.266 96.628 100.626 97.228C100.986 97.828 101.45 98.288 102.018 98.608C102.594 98.928 103.198 99.088 103.83 99.088C104.526 99.088 105.146 98.924 105.69 98.596C106.234 98.268 106.662 97.804 106.974 97.204C107.294 96.604 107.454 95.896 107.454 95.08C107.454 94.264 107.294 93.556 106.974 92.956C106.662 92.356 106.234 91.892 105.69 91.564C105.146 91.228 104.526 91.06 103.83 91.06C103.198 91.06 102.594 91.224 102.018 91.552C101.45 91.872 100.986 92.332 100.626 92.932C100.266 93.532 100.086 94.248 100.086 95.08ZM115.208 89.86C115.664 89.86 116.092 89.912 116.492 90.016C116.9 90.112 117.256 90.236 117.56 90.388C117.864 90.532 118.092 90.664 118.244 90.784L117.584 91.732C117.416 91.572 117.124 91.404 116.708 91.228C116.292 91.044 115.824 90.952 115.304 90.952C114.664 90.952 114.116 91.084 113.66 91.348C113.212 91.612 112.988 91.996 112.988 92.5C112.988 92.988 113.216 93.376 113.672 93.664C114.128 93.952 114.728 94.188 115.472 94.372C116.04 94.516 116.556 94.696 117.02 94.912C117.492 95.128 117.868 95.424 118.148 95.8C118.428 96.168 118.568 96.66 118.568 97.276C118.568 97.804 118.46 98.26 118.244 98.644C118.028 99.02 117.732 99.328 117.356 99.568C116.988 99.808 116.568 99.988 116.096 100.108C115.624 100.228 115.128 100.288 114.608 100.288C114.072 100.288 113.576 100.228 113.12 100.108C112.664 99.988 112.272 99.844 111.944 99.676C111.624 99.508 111.38 99.352 111.212 99.208L111.896 98.14C112.104 98.356 112.444 98.58 112.916 98.812C113.396 99.036 113.956 99.148 114.596 99.148C115.34 99.148 115.952 98.976 116.432 98.632C116.92 98.288 117.164 97.836 117.164 97.276C117.164 96.868 117.048 96.54 116.816 96.292C116.584 96.044 116.28 95.848 115.904 95.704C115.528 95.552 115.128 95.424 114.704 95.32C114.296 95.216 113.904 95.092 113.528 94.948C113.16 94.796 112.832 94.608 112.544 94.384C112.256 94.16 112.028 93.892 111.86 93.58C111.7 93.26 111.62 92.888 111.62 92.464C111.62 91.936 111.784 91.48 112.112 91.096C112.44 90.704 112.876 90.4 113.42 90.184C113.972 89.968 114.568 89.86 115.208 89.86ZM121.488 100V90.148H122.844V100H121.488ZM122.184 86.152C121.896 86.152 121.648 86.052 121.44 85.852C121.24 85.644 121.14 85.396 121.14 85.108C121.14 84.812 121.244 84.564 121.452 84.364C121.66 84.156 121.904 84.052 122.184 84.052C122.376 84.052 122.552 84.1 122.712 84.196C122.88 84.292 123.012 84.42 123.108 84.58C123.212 84.732 123.264 84.908 123.264 85.108C123.264 85.396 123.156 85.644 122.94 85.852C122.732 86.052 122.48 86.152 122.184 86.152ZM127.988 100.288C127.612 100.288 127.292 100.156 127.028 99.892C126.772 99.628 126.644 99.312 126.644 98.944C126.644 98.56 126.772 98.236 127.028 97.972C127.292 97.708 127.612 97.576 127.988 97.576C128.364 97.576 128.684 97.708 128.948 97.972C129.212 98.236 129.344 98.56 129.344 98.944C129.344 99.312 129.212 99.628 128.948 99.892C128.684 100.156 128.364 100.288 127.988 100.288ZM127.988 92.38C127.612 92.38 127.292 92.248 127.028 91.984C126.772 91.72 126.644 91.404 126.644 91.036C126.644 90.652 126.772 90.328 127.028 90.064C127.292 89.8 127.612 89.668 127.988 89.668C128.364 89.668 128.684 89.8 128.948 90.064C129.212 90.328 129.344 90.652 129.344 91.036C129.344 91.404 129.212 91.72 128.948 91.984C128.684 92.248 128.364 92.38 127.988 92.38ZM138.119 86.392C138.159 86.264 138.271 86.064 138.455 85.792C138.647 85.52 138.919 85.24 139.271 84.952C139.631 84.656 140.087 84.404 140.639 84.196C141.199 83.98 141.863 83.872 142.631 83.872C143.647 83.872 144.499 84.06 145.187 84.436C145.875 84.812 146.391 85.312 146.735 85.936C147.087 86.56 147.263 87.256 147.263 88.024C147.263 88.672 147.131 89.256 146.867 89.776C146.603 90.296 146.263 90.72 145.847 91.048C145.431 91.368 144.987 91.56 144.515 91.624C144.995 91.664 145.479 91.84 145.967 92.152C146.463 92.464 146.875 92.9 147.203 93.46C147.539 94.012 147.707 94.68 147.707 95.464C147.707 96.368 147.491 97.188 147.059 97.924C146.635 98.652 146.039 99.228 145.271 99.652C144.511 100.076 143.615 100.288 142.583 100.288C141.615 100.288 140.787 100.124 140.099 99.796C139.411 99.468 138.855 99.068 138.431 98.596C138.015 98.124 137.727 97.668 137.567 97.228L138.803 96.556C138.931 96.908 139.151 97.276 139.463 97.66C139.783 98.044 140.203 98.372 140.723 98.644C141.243 98.908 141.855 99.04 142.559 99.04C143.367 99.04 144.051 98.876 144.611 98.548C145.171 98.22 145.595 97.784 145.883 97.24C146.171 96.696 146.315 96.096 146.315 95.44C146.315 94.696 146.135 94.092 145.775 93.628C145.423 93.164 144.963 92.82 144.395 92.596C143.827 92.372 143.215 92.26 142.559 92.26H142.247V91.132H142.655C143.231 91.132 143.771 91.012 144.275 90.772C144.787 90.532 145.199 90.188 145.511 89.74C145.823 89.284 145.979 88.736 145.979 88.096C145.979 87.256 145.699 86.544 145.139 85.96C144.587 85.376 143.739 85.084 142.595 85.084C141.987 85.084 141.475 85.172 141.059 85.348C140.643 85.516 140.311 85.716 140.063 85.948C139.815 86.18 139.631 86.396 139.511 86.596C139.399 86.788 139.339 86.904 139.331 86.944L138.119 86.392ZM156.203 95.14V93.928H162.383V95.14H156.203ZM173.517 85.792L170.661 87.46V86.104L173.937 84.16H174.873V100H173.517V85.792ZM185.67 84.16V95.404H187.47V96.664H185.67V100H184.314V96.664H177.582V95.488L184.314 84.16H185.67ZM184.314 95.404V86.584L179.094 95.404H184.314ZM195.72 84.16H198.984C200.672 84.16 202.056 84.5 203.136 85.18C204.216 85.852 205.012 86.784 205.524 87.976C206.044 89.168 206.304 90.532 206.304 92.068C206.304 93.612 206.048 94.98 205.536 96.172C205.024 97.364 204.228 98.3 203.148 98.98C202.068 99.66 200.68 100 198.984 100H195.72V84.16ZM197.052 85.432V98.728H198.876C200.284 98.728 201.428 98.444 202.308 97.876C203.196 97.308 203.848 96.528 204.264 95.536C204.688 94.536 204.904 93.388 204.912 92.092C204.92 90.796 204.716 89.648 204.3 88.648C203.884 87.648 203.228 86.864 202.332 86.296C201.444 85.72 200.292 85.432 198.876 85.432H197.052ZM217.096 100V97.936C217.04 98.152 216.852 98.448 216.532 98.824C216.22 99.2 215.784 99.54 215.224 99.844C214.672 100.14 214.016 100.288 213.256 100.288C212.368 100.288 211.548 100.084 210.796 99.676C210.052 99.26 209.452 98.664 208.996 97.888C208.548 97.104 208.324 96.168 208.324 95.08C208.324 93.992 208.548 93.06 208.996 92.284C209.452 91.5 210.052 90.9 210.796 90.484C211.548 90.068 212.368 89.86 213.256 89.86C214.016 89.86 214.672 90.004 215.224 90.292C215.776 90.572 216.212 90.896 216.532 91.264C216.86 91.632 217.044 91.94 217.084 92.188V90.148H218.428V100H217.096ZM209.68 95.08C209.68 95.912 209.86 96.628 210.22 97.228C210.58 97.828 211.044 98.288 211.612 98.608C212.188 98.928 212.792 99.088 213.424 99.088C214.12 99.088 214.74 98.924 215.284 98.596C215.828 98.268 216.256 97.804 216.568 97.204C216.888 96.604 217.048 95.896 217.048 95.08C217.048 94.264 216.888 93.556 216.568 92.956C216.256 92.356 215.828 91.892 215.284 91.564C214.74 91.228 214.12 91.06 213.424 91.06C212.792 91.06 212.188 91.224 211.612 91.552C211.044 91.872 210.58 92.332 210.22 92.932C209.86 93.532 209.68 94.248 209.68 95.08ZM225.138 98.68L228.762 90.148H230.178L223.578 104.992H222.162L224.394 100L220.35 90.148H221.778L225.138 98.68ZM235.302 89.86C235.758 89.86 236.186 89.912 236.586 90.016C236.994 90.112 237.35 90.236 237.654 90.388C237.958 90.532 238.186 90.664 238.338 90.784L237.678 91.732C237.51 91.572 237.218 91.404 236.802 91.228C236.386 91.044 235.918 90.952 235.398 90.952C234.758 90.952 234.21 91.084 233.754 91.348C233.306 91.612 233.082 91.996 233.082 92.5C233.082 92.988 233.31 93.376 233.766 93.664C234.222 93.952 234.822 94.188 235.566 94.372C236.134 94.516 236.65 94.696 237.114 94.912C237.586 95.128 237.962 95.424 238.242 95.8C238.522 96.168 238.662 96.66 238.662 97.276C238.662 97.804 238.554 98.26 238.338 98.644C238.122 99.02 237.826 99.328 237.45 99.568C237.082 99.808 236.662 99.988 236.19 100.108C235.718 100.228 235.222 100.288 234.702 100.288C234.166 100.288 233.67 100.228 233.214 100.108C232.758 99.988 232.366 99.844 232.038 99.676C231.718 99.508 231.474 99.352 231.306 99.208L231.99 98.14C232.198 98.356 232.538 98.58 233.01 98.812C233.49 99.036 234.05 99.148 234.69 99.148C235.434 99.148 236.046 98.976 236.526 98.632C237.014 98.288 237.258 97.836 237.258 97.276C237.258 96.868 237.142 96.54 236.91 96.292C236.678 96.044 236.374 95.848 235.998 95.704C235.622 95.552 235.222 95.424 234.798 95.32C234.39 95.216 233.998 95.092 233.622 94.948C233.254 94.796 232.926 94.608 232.638 94.384C232.35 94.16 232.122 93.892 231.954 93.58C231.794 93.26 231.714 92.888 231.714 92.464C231.714 91.936 231.878 91.48 232.206 91.096C232.534 90.704 232.97 90.4 233.514 90.184C234.066 89.968 234.662 89.86 235.302 89.86Z" fill="white"/>
<line x1="411.325" y1="98.502" x2="430.05" y2="115.066" stroke="#1E2C90" stroke-width="4"/>
<line y1="-2" x2="25" y2="-2" transform="matrix(0.748997 -0.662574 -0.662574 -0.748997 410 128.564)" stroke="#1E2C90" stroke-width="4"/>
<defs>
<filter id="filter0_d_142_70" x="0" y="0" width="479" height="238" filterUnits="userSpaceOnUse" color-interpolation-filters="sRGB">
<feFlood flood-opacity="0" result="BackgroundImageFix"/>
<feColorMatrix in="SourceAlpha" type="matrix" values="0 0 0 0 0 0 0 0 0 0 0 0 0 0 0 0 0 0 127 0" result="hardAlpha"/>
<feOffset dx="5" dy="5"/>
<feGaussianBlur stdDeviation="10"/>
<feComposite in2="hardAlpha" operator="out"/>
<feColorMatrix type="matrix" values="0 0 0 0 0 0 0 0 0 0 0 0 0 0 0 0 0 0 0.5 0"/>
<feBlend mode="normal" in2="BackgroundImageFix" result="effect1_dropShadow_142_70"/>
<feBlend mode="normal" in="SourceGraphic" in2="effect1_dropShadow_142_70" result="shape"/>
</filter>
</defs>
</svg>
