<svg width="479" height="238" viewBox="0 0 479 238" fill="none" xmlns="http://www.w3.org/2000/svg">
<g filter="url(#filter0_d_142_61)">
<rect x="15" y="15" width="439" height="198" rx="25" fill="#3DC2EC"/>
</g>
<path d="M388 20H425C438.807 20 450 31.1929 450 45V183C450 196.807 438.807 208 425 208H388V20Z" fill="white"/>
<path d="M74.6413 46.6V73H69.6613V56.1L69.9013 52.26L69.0013 56.62L63.8213 71.12H58.9013L53.7413 56.62L52.8613 52.26L53.0813 56.1V73H48.0813V46.6H55.0013L61.0413 65.42L61.3613 67.22L61.6813 65.42L67.7413 46.6H74.6413ZM79.7238 46.6H96.1038V51.02H84.6838V57.62H95.9438V61.9H84.6838V68.58H96.1038V73H79.7238V46.6ZM100.974 46.6H108.254C111.067 46.6 113.387 47.1667 115.214 48.3C117.054 49.42 118.427 50.9733 119.334 52.96C120.24 54.9467 120.694 57.22 120.694 59.78C120.694 62.3533 120.24 64.6333 119.334 66.62C118.427 68.6067 117.054 70.1667 115.214 71.3C113.387 72.4333 111.067 73 108.254 73H100.974V46.6ZM105.934 51.06V68.54H107.814C109.534 68.54 110.947 68.1667 112.054 67.42C113.174 66.66 114.007 65.62 114.554 64.3C115.114 62.98 115.394 61.4867 115.394 59.82C115.407 58.14 115.14 56.64 114.594 55.32C114.047 54 113.207 52.96 112.074 52.2C110.954 51.44 109.534 51.06 107.814 51.06H105.934ZM124.768 46.6H129.768V73H124.768V46.6ZM150.522 46.6H155.522V62.88C155.522 65.0533 155.089 66.9333 154.222 68.52C153.369 70.1067 152.162 71.3333 150.602 72.2C149.055 73.0533 147.229 73.48 145.122 73.48C143.002 73.48 141.155 73.0533 139.582 72.2C138.022 71.3333 136.809 70.1067 135.942 68.52C135.089 66.9333 134.662 65.0533 134.662 62.88V46.6H139.642V62.62C139.642 63.9533 139.869 65.0933 140.322 66.04C140.789 66.9733 141.435 67.6867 142.262 68.18C143.089 68.66 144.042 68.9 145.122 68.9C146.189 68.9 147.129 68.66 147.942 68.18C148.755 67.6867 149.389 66.9733 149.842 66.04C150.295 65.0933 150.522 63.9533 150.522 62.62V46.6ZM186.516 46.6V73H181.536V56.1L181.776 52.26L180.876 56.62L175.696 71.12H170.776L165.616 56.62L164.736 52.26L164.956 56.1V73H159.956V46.6H166.876L172.916 65.42L173.236 67.22L173.556 65.42L179.616 46.6H186.516Z" fill="white"/>
<path d="M65.894 123.368C64.614 123.368 63.4833 123.699 62.502 124.36C61.5207 125.021 60.6887 125.789 60.006 126.664C59.3447 127.539 58.8327 128.339 58.47 129.064C58.1073 129.789 57.9047 130.216 57.862 130.344L48.39 125.96C48.4327 125.683 48.6353 125.096 48.998 124.2C49.3607 123.304 49.9367 122.28 50.726 121.128C51.5367 119.976 52.6033 118.856 53.926 117.768C55.27 116.68 56.9233 115.784 58.886 115.08C60.8487 114.355 63.1847 113.992 65.894 113.992C69.158 113.992 71.8247 114.461 73.894 115.4C75.9847 116.339 77.606 117.544 78.758 119.016C79.9313 120.467 80.7527 122.003 81.222 123.624C81.7127 125.224 81.958 126.685 81.958 128.008C81.958 129.864 81.606 131.624 80.902 133.288C80.198 134.931 79.2913 136.467 78.182 137.896C77.094 139.304 75.9207 140.584 74.662 141.736C73.4247 142.867 72.23 143.848 71.078 144.68C69.9473 145.491 68.998 146.131 68.23 146.6C67.462 147.048 67.0247 147.304 66.918 147.368H81.606V157H50.246V148.232C50.438 148.104 51.0567 147.688 52.102 146.984C53.1687 146.259 54.47 145.331 56.006 144.2C57.5633 143.069 59.1953 141.811 60.902 140.424C62.6087 139.037 64.2087 137.608 65.702 136.136C67.1953 134.643 68.4113 133.192 69.35 131.784C70.31 130.355 70.79 129.043 70.79 127.848C70.79 126.227 70.3633 125.075 69.51 124.392C68.6567 123.709 67.4513 123.368 65.894 123.368ZM85.9005 135.912C85.9005 132.285 86.3698 129.107 87.3085 126.376C88.2472 123.624 89.5378 121.331 91.1805 119.496C92.8445 117.661 94.7325 116.285 96.8445 115.368C98.9565 114.451 101.186 113.992 103.533 113.992C105.922 113.992 108.173 114.451 110.285 115.368C112.397 116.285 114.263 117.661 115.885 119.496C117.527 121.331 118.818 123.624 119.757 126.376C120.695 129.107 121.165 132.285 121.165 135.912C121.165 139.859 120.695 143.219 119.757 145.992C118.818 148.765 117.527 151.016 115.885 152.744C114.263 154.472 112.397 155.741 110.285 156.552C108.173 157.363 105.922 157.768 103.533 157.768C101.186 157.768 98.9565 157.363 96.8445 156.552C94.7325 155.741 92.8445 154.472 91.1805 152.744C89.5378 151.016 88.2472 148.765 87.3085 145.992C86.3698 143.219 85.9005 139.859 85.9005 135.912ZM97.0365 135.912C97.0365 138.685 97.2818 140.968 97.7725 142.76C98.2845 144.531 99.0205 145.853 99.9805 146.728C100.941 147.581 102.125 148.008 103.533 148.008C104.962 148.008 106.157 147.581 107.117 146.728C108.077 145.853 108.791 144.52 109.261 142.728C109.751 140.936 109.997 138.664 109.997 135.912C109.997 133.373 109.751 131.208 109.261 129.416C108.791 127.603 108.077 126.205 107.117 125.224C106.157 124.243 104.962 123.752 103.533 123.752C102.125 123.752 100.941 124.243 99.9805 125.224C99.0205 126.205 98.2845 127.603 97.7725 129.416C97.2818 131.229 97.0365 133.395 97.0365 135.912ZM143.798 147.24V137.64H160.278V147.24H143.798ZM202.291 128.616C204.446 128.616 206.536 129.171 208.563 130.28C210.59 131.389 212.264 133 213.587 135.112C214.931 137.224 215.603 139.763 215.603 142.728C215.603 145.651 214.878 148.243 213.427 150.504C211.998 152.765 210.067 154.547 207.635 155.848C205.203 157.128 202.515 157.768 199.571 157.768C196.606 157.768 193.896 157.171 191.443 155.976C189.011 154.781 187.059 153.043 185.587 150.76C184.136 148.456 183.411 145.683 183.411 142.44C183.411 138.792 183.987 135.752 185.139 133.32C186.312 130.867 187.614 128.776 189.043 127.048L199.187 114.76H212.147L199.475 129.352C199.646 129.16 199.955 128.989 200.403 128.84C200.851 128.691 201.48 128.616 202.291 128.616ZM199.507 148.744C200.552 148.744 201.502 148.499 202.355 148.008C203.208 147.496 203.88 146.813 204.371 145.96C204.883 145.085 205.139 144.125 205.139 143.08C205.139 142.056 204.883 141.117 204.371 140.264C203.88 139.411 203.208 138.728 202.355 138.216C201.502 137.704 200.552 137.448 199.507 137.448C198.483 137.448 197.534 137.704 196.659 138.216C195.784 138.728 195.091 139.411 194.579 140.264C194.088 141.117 193.843 142.056 193.843 143.08C193.843 144.125 194.088 145.085 194.579 145.96C195.091 146.813 195.784 147.496 196.659 148.008C197.534 148.499 198.483 148.744 199.507 148.744ZM219.276 135.912C219.276 132.285 219.745 129.107 220.684 126.376C221.622 123.624 222.913 121.331 224.556 119.496C226.22 117.661 228.108 116.285 230.22 115.368C232.332 114.451 234.561 113.992 236.908 113.992C239.297 113.992 241.548 114.451 243.66 115.368C245.772 116.285 247.638 117.661 249.26 119.496C250.902 121.331 252.193 123.624 253.132 126.376C254.07 129.107 254.54 132.285 254.54 135.912C254.54 139.859 254.07 143.219 253.132 145.992C252.193 148.765 250.902 151.016 249.26 152.744C247.638 154.472 245.772 155.741 243.66 156.552C241.548 157.363 239.297 157.768 236.908 157.768C234.561 157.768 232.332 157.363 230.22 156.552C228.108 155.741 226.22 154.472 224.556 152.744C222.913 151.016 221.622 148.765 220.684 145.992C219.745 143.219 219.276 139.859 219.276 135.912ZM230.412 135.912C230.412 138.685 230.657 140.968 231.148 142.76C231.66 144.531 232.396 145.853 233.356 146.728C234.316 147.581 235.5 148.008 236.908 148.008C238.337 148.008 239.532 147.581 240.492 146.728C241.452 145.853 242.166 144.52 242.636 142.728C243.126 140.936 243.372 138.664 243.372 135.912C243.372 133.373 243.126 131.208 242.636 129.416C242.166 127.603 241.452 126.205 240.492 125.224C239.532 124.243 238.337 123.752 236.908 123.752C235.5 123.752 234.316 124.243 233.356 125.224C232.396 126.205 231.66 127.603 231.148 129.416C230.657 131.229 230.412 133.395 230.412 135.912ZM278.614 134.984L294.166 157H280.918L268.982 138.92V157H257.846V114.76H268.982V131.272L279.862 114.76H292.406L278.614 134.984Z" fill="white"/>
<path d="M48.5502 84.16H57.5742V85.42H49.8822V91.432H57.3822V92.68H49.8822V98.74H57.5742V100H48.5502V84.16ZM64.2944 89.86C64.7504 89.86 65.1784 89.912 65.5784 90.016C65.9864 90.112 66.3424 90.236 66.6464 90.388C66.9504 90.532 67.1784 90.664 67.3304 90.784L66.6704 91.732C66.5024 91.572 66.2104 91.404 65.7944 91.228C65.3784 91.044 64.9104 90.952 64.3904 90.952C63.7504 90.952 63.2024 91.084 62.7464 91.348C62.2984 91.612 62.0744 91.996 62.0744 92.5C62.0744 92.988 62.3024 93.376 62.7584 93.664C63.2144 93.952 63.8144 94.188 64.5584 94.372C65.1264 94.516 65.6424 94.696 66.1064 94.912C66.5784 95.128 66.9544 95.424 67.2344 95.8C67.5144 96.168 67.6544 96.66 67.6544 97.276C67.6544 97.804 67.5464 98.26 67.3304 98.644C67.1144 99.02 66.8184 99.328 66.4424 99.568C66.0744 99.808 65.6544 99.988 65.1824 100.108C64.7104 100.228 64.2144 100.288 63.6944 100.288C63.1584 100.288 62.6624 100.228 62.2064 100.108C61.7504 99.988 61.3584 99.844 61.0304 99.676C60.7104 99.508 60.4664 99.352 60.2984 99.208L60.9824 98.14C61.1904 98.356 61.5304 98.58 62.0024 98.812C62.4824 99.036 63.0424 99.148 63.6824 99.148C64.4264 99.148 65.0384 98.976 65.5184 98.632C66.0064 98.288 66.2504 97.836 66.2504 97.276C66.2504 96.868 66.1344 96.54 65.9024 96.292C65.6704 96.044 65.3664 95.848 64.9904 95.704C64.6144 95.552 64.2144 95.424 63.7904 95.32C63.3824 95.216 62.9904 95.092 62.6144 94.948C62.2464 94.796 61.9184 94.608 61.6304 94.384C61.3424 94.16 61.1144 93.892 60.9464 93.58C60.7864 93.26 60.7064 92.888 60.7064 92.464C60.7064 91.936 60.8704 91.48 61.1984 91.096C61.5264 90.704 61.9624 90.4 62.5064 90.184C63.0584 89.968 63.6544 89.86 64.2944 89.86ZM69.2939 90.148H71.3459V86.104H72.7019V90.148H75.3899V91.384H72.7019V97.228C72.7019 97.884 72.8219 98.352 73.0619 98.632C73.3019 98.912 73.6019 99.052 73.9619 99.052C74.3059 99.052 74.5659 98.992 74.7419 98.872C74.9179 98.752 75.0219 98.672 75.0539 98.632L75.6899 99.676C75.6419 99.716 75.5339 99.788 75.3659 99.892C75.1979 99.988 74.9779 100.076 74.7059 100.156C74.4339 100.244 74.1059 100.288 73.7219 100.288C73.0579 100.288 72.4939 100.076 72.0299 99.652C71.5739 99.22 71.3459 98.532 71.3459 97.588V91.384H69.2939V90.148ZM78.0037 100V90.148H79.3597V100H78.0037ZM78.6997 86.152C78.4117 86.152 78.1637 86.052 77.9557 85.852C77.7557 85.644 77.6557 85.396 77.6557 85.108C77.6557 84.812 77.7597 84.564 77.9677 84.364C78.1757 84.156 78.4197 84.052 78.6997 84.052C78.8917 84.052 79.0677 84.1 79.2277 84.196C79.3957 84.292 79.5277 84.42 79.6237 84.58C79.7277 84.732 79.7797 84.908 79.7797 85.108C79.7797 85.396 79.6717 85.644 79.4557 85.852C79.2477 86.052 78.9957 86.152 78.6997 86.152ZM93.8999 89.86C94.6279 89.86 95.2399 90.02 95.7359 90.34C96.2319 90.66 96.6039 91.148 96.8519 91.804C97.1079 92.452 97.2359 93.28 97.2359 94.288V100H95.8799V94.648C95.8799 93.408 95.7119 92.496 95.3759 91.912C95.0399 91.328 94.4399 91.036 93.5759 91.036C93.1359 91.036 92.6999 91.16 92.2679 91.408C91.8439 91.648 91.4919 92.032 91.2119 92.56C90.9319 93.088 90.7919 93.784 90.7919 94.648V100H89.4839V94.648C89.4839 93.408 89.2679 92.496 88.8359 91.912C88.4039 91.328 87.8359 91.036 87.1319 91.036C86.6839 91.036 86.2479 91.152 85.8239 91.384C85.4079 91.616 85.0639 92 84.7919 92.536C84.5279 93.064 84.3959 93.768 84.3959 94.648V100H83.0399V90.148H84.3959V91.708C84.4759 91.46 84.6559 91.192 84.9359 90.904C85.2239 90.616 85.5919 90.372 86.0399 90.172C86.4879 89.964 86.9999 89.86 87.5759 89.86C88.1839 89.86 88.6879 89.996 89.0879 90.268C89.4879 90.54 89.7999 90.864 90.0239 91.24C90.2479 91.616 90.3879 91.96 90.4439 92.272C90.5639 91.896 90.7799 91.524 91.0919 91.156C91.4039 90.788 91.7999 90.48 92.2799 90.232C92.7599 89.984 93.2999 89.86 93.8999 89.86ZM108.502 100V97.936C108.446 98.152 108.258 98.448 107.938 98.824C107.626 99.2 107.19 99.54 106.63 99.844C106.078 100.14 105.422 100.288 104.662 100.288C103.774 100.288 102.954 100.084 102.202 99.676C101.458 99.26 100.858 98.664 100.402 97.888C99.954 97.104 99.73 96.168 99.73 95.08C99.73 93.992 99.954 93.06 100.402 92.284C100.858 91.5 101.458 90.9 102.202 90.484C102.954 90.068 103.774 89.86 104.662 89.86C105.422 89.86 106.078 90.004 106.63 90.292C107.182 90.572 107.618 90.896 107.938 91.264C108.266 91.632 108.45 91.94 108.49 92.188V90.148H109.834V100H108.502ZM101.086 95.08C101.086 95.912 101.266 96.628 101.626 97.228C101.986 97.828 102.45 98.288 103.018 98.608C103.594 98.928 104.198 99.088 104.83 99.088C105.526 99.088 106.146 98.924 106.69 98.596C107.234 98.268 107.662 97.804 107.974 97.204C108.294 96.604 108.454 95.896 108.454 95.08C108.454 94.264 108.294 93.556 107.974 92.956C107.662 92.356 107.234 91.892 106.69 91.564C106.146 91.228 105.526 91.06 104.83 91.06C104.198 91.06 103.594 91.224 103.018 91.552C102.45 91.872 101.986 92.332 101.626 92.932C101.266 93.532 101.086 94.248 101.086 95.08ZM116.208 89.86C116.664 89.86 117.092 89.912 117.492 90.016C117.9 90.112 118.256 90.236 118.56 90.388C118.864 90.532 119.092 90.664 119.244 90.784L118.584 91.732C118.416 91.572 118.124 91.404 117.708 91.228C117.292 91.044 116.824 90.952 116.304 90.952C115.664 90.952 115.116 91.084 114.66 91.348C114.212 91.612 113.988 91.996 113.988 92.5C113.988 92.988 114.216 93.376 114.672 93.664C115.128 93.952 115.728 94.188 116.472 94.372C117.04 94.516 117.556 94.696 118.02 94.912C118.492 95.128 118.868 95.424 119.148 95.8C119.428 96.168 119.568 96.66 119.568 97.276C119.568 97.804 119.46 98.26 119.244 98.644C119.028 99.02 118.732 99.328 118.356 99.568C117.988 99.808 117.568 99.988 117.096 100.108C116.624 100.228 116.128 100.288 115.608 100.288C115.072 100.288 114.576 100.228 114.12 100.108C113.664 99.988 113.272 99.844 112.944 99.676C112.624 99.508 112.38 99.352 112.212 99.208L112.896 98.14C113.104 98.356 113.444 98.58 113.916 98.812C114.396 99.036 114.956 99.148 115.596 99.148C116.34 99.148 116.952 98.976 117.432 98.632C117.92 98.288 118.164 97.836 118.164 97.276C118.164 96.868 118.048 96.54 117.816 96.292C117.584 96.044 117.28 95.848 116.904 95.704C116.528 95.552 116.128 95.424 115.704 95.32C115.296 95.216 114.904 95.092 114.528 94.948C114.16 94.796 113.832 94.608 113.544 94.384C113.256 94.16 113.028 93.892 112.86 93.58C112.7 93.26 112.62 92.888 112.62 92.464C112.62 91.936 112.784 91.48 113.112 91.096C113.44 90.704 113.876 90.4 114.42 90.184C114.972 89.968 115.568 89.86 116.208 89.86ZM122.488 100V90.148H123.844V100H122.488ZM123.184 86.152C122.896 86.152 122.648 86.052 122.44 85.852C122.24 85.644 122.14 85.396 122.14 85.108C122.14 84.812 122.244 84.564 122.452 84.364C122.66 84.156 122.904 84.052 123.184 84.052C123.376 84.052 123.552 84.1 123.712 84.196C123.88 84.292 124.012 84.42 124.108 84.58C124.212 84.732 124.264 84.908 124.264 85.108C124.264 85.396 124.156 85.644 123.94 85.852C123.732 86.052 123.48 86.152 123.184 86.152ZM128.988 100.288C128.612 100.288 128.292 100.156 128.028 99.892C127.772 99.628 127.644 99.312 127.644 98.944C127.644 98.56 127.772 98.236 128.028 97.972C128.292 97.708 128.612 97.576 128.988 97.576C129.364 97.576 129.684 97.708 129.948 97.972C130.212 98.236 130.344 98.56 130.344 98.944C130.344 99.312 130.212 99.628 129.948 99.892C129.684 100.156 129.364 100.288 128.988 100.288ZM128.988 92.38C128.612 92.38 128.292 92.248 128.028 91.984C127.772 91.72 127.644 91.404 127.644 91.036C127.644 90.652 127.772 90.328 128.028 90.064C128.292 89.8 128.612 89.668 128.988 89.668C129.364 89.668 129.684 89.8 129.948 90.064C130.212 90.328 130.344 90.652 130.344 91.036C130.344 91.404 130.212 91.72 129.948 91.984C129.684 92.248 129.364 92.38 128.988 92.38ZM139.119 86.392C139.159 86.264 139.271 86.064 139.455 85.792C139.647 85.52 139.919 85.24 140.271 84.952C140.631 84.656 141.087 84.404 141.639 84.196C142.199 83.98 142.863 83.872 143.631 83.872C144.647 83.872 145.499 84.06 146.187 84.436C146.875 84.812 147.391 85.312 147.735 85.936C148.087 86.56 148.263 87.256 148.263 88.024C148.263 88.672 148.131 89.256 147.867 89.776C147.603 90.296 147.263 90.72 146.847 91.048C146.431 91.368 145.987 91.56 145.515 91.624C145.995 91.664 146.479 91.84 146.967 92.152C147.463 92.464 147.875 92.9 148.203 93.46C148.539 94.012 148.707 94.68 148.707 95.464C148.707 96.368 148.491 97.188 148.059 97.924C147.635 98.652 147.039 99.228 146.271 99.652C145.511 100.076 144.615 100.288 143.583 100.288C142.615 100.288 141.787 100.124 141.099 99.796C140.411 99.468 139.855 99.068 139.431 98.596C139.015 98.124 138.727 97.668 138.567 97.228L139.803 96.556C139.931 96.908 140.151 97.276 140.463 97.66C140.783 98.044 141.203 98.372 141.723 98.644C142.243 98.908 142.855 99.04 143.559 99.04C144.367 99.04 145.051 98.876 145.611 98.548C146.171 98.22 146.595 97.784 146.883 97.24C147.171 96.696 147.315 96.096 147.315 95.44C147.315 94.696 147.135 94.092 146.775 93.628C146.423 93.164 145.963 92.82 145.395 92.596C144.827 92.372 144.215 92.26 143.559 92.26H143.247V91.132H143.655C144.231 91.132 144.771 91.012 145.275 90.772C145.787 90.532 146.199 90.188 146.511 89.74C146.823 89.284 146.979 88.736 146.979 88.096C146.979 87.256 146.699 86.544 146.139 85.96C145.587 85.376 144.739 85.084 143.595 85.084C142.987 85.084 142.475 85.172 142.059 85.348C141.643 85.516 141.311 85.716 141.063 85.948C140.815 86.18 140.631 86.396 140.511 86.596C140.399 86.788 140.339 86.904 140.331 86.944L139.119 86.392ZM157.203 95.14V93.928H163.383V95.14H157.203ZM174.517 85.792L171.661 87.46V86.104L174.937 84.16H175.873V100H174.517V85.792ZM186.67 84.16V95.404H188.47V96.664H186.67V100H185.314V96.664H178.582V95.488L185.314 84.16H186.67ZM185.314 95.404V86.584L180.094 95.404H185.314ZM196.72 84.16H199.984C201.672 84.16 203.056 84.5 204.136 85.18C205.216 85.852 206.012 86.784 206.524 87.976C207.044 89.168 207.304 90.532 207.304 92.068C207.304 93.612 207.048 94.98 206.536 96.172C206.024 97.364 205.228 98.3 204.148 98.98C203.068 99.66 201.68 100 199.984 100H196.72V84.16ZM198.052 85.432V98.728H199.876C201.284 98.728 202.428 98.444 203.308 97.876C204.196 97.308 204.848 96.528 205.264 95.536C205.688 94.536 205.904 93.388 205.912 92.092C205.92 90.796 205.716 89.648 205.3 88.648C204.884 87.648 204.228 86.864 203.332 86.296C202.444 85.72 201.292 85.432 199.876 85.432H198.052ZM218.096 100V97.936C218.04 98.152 217.852 98.448 217.532 98.824C217.22 99.2 216.784 99.54 216.224 99.844C215.672 100.14 215.016 100.288 214.256 100.288C213.368 100.288 212.548 100.084 211.796 99.676C211.052 99.26 210.452 98.664 209.996 97.888C209.548 97.104 209.324 96.168 209.324 95.08C209.324 93.992 209.548 93.06 209.996 92.284C210.452 91.5 211.052 90.9 211.796 90.484C212.548 90.068 213.368 89.86 214.256 89.86C215.016 89.86 215.672 90.004 216.224 90.292C216.776 90.572 217.212 90.896 217.532 91.264C217.86 91.632 218.044 91.94 218.084 92.188V90.148H219.428V100H218.096ZM210.68 95.08C210.68 95.912 210.86 96.628 211.22 97.228C211.58 97.828 212.044 98.288 212.612 98.608C213.188 98.928 213.792 99.088 214.424 99.088C215.12 99.088 215.74 98.924 216.284 98.596C216.828 98.268 217.256 97.804 217.568 97.204C217.888 96.604 218.048 95.896 218.048 95.08C218.048 94.264 217.888 93.556 217.568 92.956C217.256 92.356 216.828 91.892 216.284 91.564C215.74 91.228 215.12 91.06 214.424 91.06C213.792 91.06 213.188 91.224 212.612 91.552C212.044 91.872 211.58 92.332 211.22 92.932C210.86 93.532 210.68 94.248 210.68 95.08ZM226.138 98.68L229.762 90.148H231.178L224.578 104.992H223.162L225.394 100L221.35 90.148H222.778L226.138 98.68ZM236.302 89.86C236.758 89.86 237.186 89.912 237.586 90.016C237.994 90.112 238.35 90.236 238.654 90.388C238.958 90.532 239.186 90.664 239.338 90.784L238.678 91.732C238.51 91.572 238.218 91.404 237.802 91.228C237.386 91.044 236.918 90.952 236.398 90.952C235.758 90.952 235.21 91.084 234.754 91.348C234.306 91.612 234.082 91.996 234.082 92.5C234.082 92.988 234.31 93.376 234.766 93.664C235.222 93.952 235.822 94.188 236.566 94.372C237.134 94.516 237.65 94.696 238.114 94.912C238.586 95.128 238.962 95.424 239.242 95.8C239.522 96.168 239.662 96.66 239.662 97.276C239.662 97.804 239.554 98.26 239.338 98.644C239.122 99.02 238.826 99.328 238.45 99.568C238.082 99.808 237.662 99.988 237.19 100.108C236.718 100.228 236.222 100.288 235.702 100.288C235.166 100.288 234.67 100.228 234.214 100.108C233.758 99.988 233.366 99.844 233.038 99.676C232.718 99.508 232.474 99.352 232.306 99.208L232.99 98.14C233.198 98.356 233.538 98.58 234.01 98.812C234.49 99.036 235.05 99.148 235.69 99.148C236.434 99.148 237.046 98.976 237.526 98.632C238.014 98.288 238.258 97.836 238.258 97.276C238.258 96.868 238.142 96.54 237.91 96.292C237.678 96.044 237.374 95.848 236.998 95.704C236.622 95.552 236.222 95.424 235.798 95.32C235.39 95.216 234.998 95.092 234.622 94.948C234.254 94.796 233.926 94.608 233.638 94.384C233.35 94.16 233.122 93.892 232.954 93.58C232.794 93.26 232.714 92.888 232.714 92.464C232.714 91.936 232.878 91.48 233.206 91.096C233.534 90.704 233.97 90.4 234.514 90.184C235.066 89.968 235.662 89.86 236.302 89.86Z" fill="white"/>
<line x1="411.325" y1="98.502" x2="430.05" y2="115.066" stroke="#1E2C90" stroke-width="4"/>
<line y1="-2" x2="25" y2="-2" transform="matrix(0.748997 -0.662574 -0.662574 -0.748997 410 128.564)" stroke="#1E2C90" stroke-width="4"/>
<defs>
<filter id="filter0_d_142_61" x="0" y="0" width="479" height="238" filterUnits="userSpaceOnUse" color-interpolation-filters="sRGB">
<feFlood flood-opacity="0" result="BackgroundImageFix"/>
<feColorMatrix in="SourceAlpha" type="matrix" values="0 0 0 0 0 0 0 0 0 0 0 0 0 0 0 0 0 0 127 0" result="hardAlpha"/>
<feOffset dx="5" dy="5"/>
<feGaussianBlur stdDeviation="10"/>
<feComposite in2="hardAlpha" operator="out"/>
<feColorMatrix type="matrix" values="0 0 0 0 0 0 0 0 0 0 0 0 0 0 0 0 0 0 0.5 0"/>
<feBlend mode="normal" in2="BackgroundImageFix" result="effect1_dropShadow_142_61"/>
<feBlend mode="normal" in="SourceGraphic" in2="effect1_dropShadow_142_61" result="shape"/>
</filter>
</defs>
</svg>
