<svg width="144" height="46" viewBox="0 0 144 46" fill="none" xmlns="http://www.w3.org/2000/svg">
<path d="M0.145703 2H13.5957C15.5124 2 17.2207 2.4 18.7207 3.2C20.2207 4 21.404 5.15833 22.2707 6.675C23.154 8.175 23.5957 9.96666 23.5957 12.05C23.5957 14.1333 23.2207 15.8417 22.4707 17.175C21.7374 18.4917 20.854 19.4833 19.8207 20.15C18.7874 20.8 17.829 21.1917 16.9457 21.325L24.9707 35H16.5707L9.4207 21.9H7.6207V35H0.145703V2ZM7.6207 16.725H10.9207C12.254 16.725 13.4207 16.4 14.4207 15.75C15.4207 15.1 15.9207 13.95 15.9207 12.3C15.9207 10.65 15.429 9.50833 14.4457 8.875C13.4624 8.225 12.304 7.9 10.9707 7.9H7.6207V16.725ZM35.9605 26.35C36.0105 27.0833 36.2439 27.7333 36.6605 28.3C37.0772 28.8667 37.6522 29.3167 38.3855 29.65C39.1355 29.9667 40.0189 30.125 41.0355 30.125C42.0022 30.125 42.8689 30.025 43.6355 29.825C44.4189 29.625 45.0939 29.375 45.6605 29.075C46.2439 28.775 46.6939 28.4667 47.0105 28.15L49.9605 32.85C49.5439 33.3 48.9522 33.7417 48.1855 34.175C47.4355 34.5917 46.4439 34.9333 45.2105 35.2C43.9772 35.4667 42.4189 35.6 40.5355 35.6C38.2689 35.6 36.2522 35.175 34.4855 34.325C32.7189 33.475 31.3272 32.225 30.3105 30.575C29.2939 28.925 28.7855 26.9083 28.7855 24.525C28.7855 22.525 29.2189 20.725 30.0855 19.125C30.9689 17.5083 32.2439 16.2333 33.9105 15.3C35.5772 14.35 37.5855 13.875 39.9355 13.875C42.1689 13.875 44.1022 14.2833 45.7355 15.1C47.3855 15.9167 48.6522 17.1333 49.5355 18.75C50.4355 20.35 50.8855 22.35 50.8855 24.75C50.8855 24.8833 50.8772 25.15 50.8605 25.55C50.8605 25.95 50.8439 26.2167 50.8105 26.35H35.9605ZM43.7355 22.375C43.7189 21.8417 43.5772 21.3167 43.3105 20.8C43.0439 20.2667 42.6439 19.8333 42.1105 19.5C41.5772 19.15 40.8939 18.975 40.0605 18.975C39.2272 18.975 38.5189 19.1417 37.9355 19.475C37.3689 19.7917 36.9355 20.2083 36.6355 20.725C36.3355 21.2417 36.1689 21.7917 36.1355 22.375H43.7355ZM65.5879 45.975C64.1546 45.975 62.7296 45.85 61.3129 45.6C59.9129 45.35 58.6046 44.925 57.3879 44.325C56.1712 43.725 55.1462 42.9 54.3129 41.85L58.7629 37.225C59.1462 37.675 59.6129 38.1167 60.1629 38.55C60.7296 38.9833 61.4212 39.3417 62.2379 39.625C63.0712 39.9083 64.0796 40.05 65.2629 40.05C66.3629 40.05 67.3212 39.8583 68.1379 39.475C68.9546 39.0917 69.5879 38.5333 70.0379 37.8C70.5046 37.0667 70.7379 36.175 70.7379 35.125V34.625H78.2129V35.575C78.2129 37.8417 77.6462 39.75 76.5129 41.3C75.3962 42.85 73.8879 44.0167 71.9879 44.8C70.0879 45.5833 67.9546 45.975 65.5879 45.975ZM70.7379 35V31.675C70.5879 32.0083 70.2046 32.4917 69.5879 33.125C68.9879 33.7583 68.1879 34.3333 67.1879 34.85C66.1879 35.35 65.0212 35.6 63.6879 35.6C61.6879 35.6 59.9379 35.1167 58.4379 34.15C56.9379 33.1667 55.7712 31.8583 54.9379 30.225C54.1046 28.575 53.6879 26.75 53.6879 24.75C53.6879 22.75 54.1046 20.9333 54.9379 19.3C55.7712 17.65 56.9379 16.3333 58.4379 15.35C59.9379 14.3667 61.6879 13.875 63.6879 13.875C64.9712 13.875 66.0962 14.0833 67.0629 14.5C68.0296 14.9 68.8129 15.3833 69.4129 15.95C70.0129 16.5 70.4296 17.0083 70.6629 17.475V14.475H78.2129V35H70.7379ZM61.1379 24.75C61.1379 25.6833 61.3546 26.525 61.7879 27.275C62.2212 28.0083 62.7962 28.5833 63.5129 29C64.2462 29.4167 65.0546 29.625 65.9379 29.625C66.8546 29.625 67.6629 29.4167 68.3629 29C69.0629 28.5833 69.6129 28.0083 70.0129 27.275C70.4296 26.525 70.6379 25.6833 70.6379 24.75C70.6379 23.8167 70.4296 22.9833 70.0129 22.25C69.6129 21.5 69.0629 20.9167 68.3629 20.5C67.6629 20.0667 66.8546 19.85 65.9379 19.85C65.0546 19.85 64.2462 20.0667 63.5129 20.5C62.7962 20.9167 62.2212 21.5 61.7879 22.25C61.3546 22.9833 61.1379 23.8167 61.1379 24.75ZM90.6844 35H83.0594V0.599999H90.6844V35ZM102.784 23.975C102.784 25.6083 103.093 26.9167 103.709 27.9C104.326 28.8667 105.359 29.35 106.809 29.35C108.293 29.35 109.334 28.8667 109.934 27.9C110.551 26.9167 110.859 25.6083 110.859 23.975V14.475H118.359V24.775C118.359 26.975 117.901 28.8917 116.984 30.525C116.084 32.1417 114.776 33.3917 113.059 34.275C111.343 35.1583 109.259 35.6 106.809 35.6C104.376 35.6 102.301 35.1583 100.584 34.275C98.8677 33.3917 97.5594 32.1417 96.6594 30.525C95.7594 28.8917 95.3094 26.975 95.3094 24.775V14.475H102.784V23.975ZM129.027 26.35C129.077 27.0833 129.31 27.7333 129.727 28.3C130.144 28.8667 130.719 29.3167 131.452 29.65C132.202 29.9667 133.085 30.125 134.102 30.125C135.069 30.125 135.935 30.025 136.702 29.825C137.485 29.625 138.16 29.375 138.727 29.075C139.31 28.775 139.76 28.4667 140.077 28.15L143.027 32.85C142.61 33.3 142.019 33.7417 141.252 34.175C140.502 34.5917 139.51 34.9333 138.277 35.2C137.044 35.4667 135.485 35.6 133.602 35.6C131.335 35.6 129.319 35.175 127.552 34.325C125.785 33.475 124.394 32.225 123.377 30.575C122.36 28.925 121.852 26.9083 121.852 24.525C121.852 22.525 122.285 20.725 123.152 19.125C124.035 17.5083 125.31 16.2333 126.977 15.3C128.644 14.35 130.652 13.875 133.002 13.875C135.235 13.875 137.169 14.2833 138.802 15.1C140.452 15.9167 141.719 17.1333 142.602 18.75C143.502 20.35 143.952 22.35 143.952 24.75C143.952 24.8833 143.944 25.15 143.927 25.55C143.927 25.95 143.91 26.2167 143.877 26.35H129.027ZM136.802 22.375C136.785 21.8417 136.644 21.3167 136.377 20.8C136.11 20.2667 135.71 19.8333 135.177 19.5C134.644 19.15 133.96 18.975 133.127 18.975C132.294 18.975 131.585 19.1417 131.002 19.475C130.435 19.7917 130.002 20.2083 129.702 20.725C129.402 21.2417 129.235 21.7917 129.202 22.375H136.802Z" fill="#1E2C90"/>
</svg>
