<svg width="479" height="238" viewBox="0 0 479 238" fill="none" xmlns="http://www.w3.org/2000/svg">
<g filter="url(#filter0_d_142_52)">
<rect x="15" y="15" width="439" height="198" rx="25" fill="#FFB656"/>
</g>
<path d="M388 20H425C438.807 20 450 31.1929 450 45V183C450 196.807 438.807 208 425 208H388V20Z" fill="white"/>
<path d="M57.1514 46.12C58.7381 46.12 60.1181 46.3 61.2914 46.66C62.4781 47.0067 63.4181 47.38 64.1114 47.78C64.8181 48.18 65.2447 48.44 65.3914 48.56L62.9514 52.62C62.7381 52.4467 62.3714 52.2067 61.8514 51.9C61.3447 51.58 60.7314 51.3 60.0114 51.06C59.2914 50.8067 58.5114 50.68 57.6714 50.68C56.4581 50.68 55.4847 50.9133 54.7514 51.38C54.0314 51.8333 53.6714 52.4933 53.6714 53.36C53.6714 53.9467 53.8647 54.4733 54.2514 54.94C54.6381 55.3933 55.2047 55.82 55.9514 56.22C56.7114 56.62 57.6381 57.04 58.7314 57.48C59.6914 57.8533 60.6047 58.2867 61.4714 58.78C62.3514 59.2733 63.1314 59.8533 63.8114 60.52C64.5047 61.1867 65.0514 61.96 65.4514 62.84C65.8647 63.72 66.0714 64.7267 66.0714 65.86C66.0714 67.1267 65.8114 68.2333 65.2914 69.18C64.7847 70.1267 64.0781 70.92 63.1714 71.56C62.2781 72.2 61.2514 72.68 60.0914 73C58.9314 73.32 57.7114 73.48 56.4314 73.48C54.6981 73.48 53.1381 73.28 51.7514 72.88C50.3781 72.4667 49.2647 72.0267 48.4114 71.56C47.5581 71.0933 47.0581 70.7933 46.9114 70.66L49.4714 66.44C49.6314 66.56 49.9314 66.7533 50.3714 67.02C50.8247 67.2867 51.3714 67.56 52.0114 67.84C52.6647 68.12 53.3714 68.36 54.1314 68.56C54.9047 68.76 55.6914 68.86 56.4914 68.86C57.9314 68.86 59.0181 68.56 59.7514 67.96C60.4847 67.36 60.8514 66.58 60.8514 65.62C60.8514 64.9 60.6181 64.2667 60.1514 63.72C59.6847 63.1733 59.0247 62.6733 58.1714 62.22C57.3314 61.7533 56.3247 61.28 55.1514 60.8C53.9781 60.3067 52.8847 59.7333 51.8714 59.08C50.8714 58.4133 50.0647 57.6 49.4514 56.64C48.8381 55.6667 48.5314 54.4733 48.5314 53.06C48.5314 51.66 48.9247 50.44 49.7114 49.4C50.5114 48.36 51.5647 47.5533 52.8714 46.98C54.1914 46.4067 55.6181 46.12 57.1514 46.12ZM96.4655 46.6V73H91.4855V56.1L91.7255 52.26L90.8255 56.62L85.6455 71.12H80.7255L75.5655 56.62L74.6855 52.26L74.9055 56.1V73H69.9055V46.6H76.8255L82.8655 65.42L83.1855 67.22L83.5055 65.42L89.5655 46.6H96.4655ZM109.888 46.6H114.908L125.068 73H119.748L117.688 67.3H107.128L105.028 73H99.688L109.888 46.6ZM108.768 62.88H116.048L112.428 52.64H112.368L108.768 62.88ZM127.565 46.6H132.565V68.58H142.465V73H127.565V46.6ZM146.667 46.6H151.667V68.58H161.567V73H146.667V46.6Z" fill="white"/>
<path d="M57.3823 128.936L50.8863 132.2V121.704L63.4623 114.76H68.5183V157H57.3823V128.936ZM82.3063 144.136C82.5196 144.797 82.7863 145.405 83.1063 145.96C83.4263 146.493 83.8103 146.952 84.2583 147.336C84.7276 147.72 85.2716 148.019 85.8903 148.232C86.5089 148.424 87.2236 148.52 88.0343 148.52C89.6983 148.52 90.9783 147.997 91.8743 146.952C92.7703 145.885 93.2183 144.52 93.2183 142.856C93.2183 141.235 92.7809 139.955 91.9062 139.016C91.0316 138.056 89.8049 137.576 88.2263 137.576C87.2236 137.576 86.3489 137.757 85.6023 138.12C84.8769 138.461 84.2903 138.856 83.8423 139.304C83.3943 139.752 83.0849 140.157 82.9143 140.52L73.7943 137.16L77.6023 114.76H102.37V124.392H86.9143L85.8263 130.344C85.9543 130.216 86.2849 130.035 86.8183 129.8C87.3516 129.544 88.0343 129.32 88.8663 129.128C89.7196 128.915 90.6369 128.808 91.6183 128.808C93.6876 128.808 95.6929 129.267 97.6343 130.184C99.5969 131.08 101.218 132.52 102.498 134.504C103.778 136.467 104.418 139.027 104.418 142.184C104.44 145.384 103.746 148.157 102.338 150.504C100.93 152.829 99.0209 154.621 96.6103 155.88C94.2209 157.139 91.5116 157.768 88.4823 157.768C86.1783 157.768 84.1409 157.501 82.3703 156.968C80.5996 156.413 79.0849 155.688 77.8263 154.792C76.5676 153.896 75.5223 152.883 74.6903 151.752C73.8583 150.6 73.2183 149.427 72.7703 148.232L82.3063 144.136ZM128.957 134.984L144.509 157H131.261L119.325 138.92V157H108.189V114.76H119.325V131.272L130.205 114.76H142.749L128.957 134.984Z" fill="white"/>
<path d="M48.0502 84.16H57.0742V85.42H49.3822V91.432H56.8822V92.68H49.3822V98.74H57.0742V100H48.0502V84.16ZM63.7944 89.86C64.2504 89.86 64.6784 89.912 65.0784 90.016C65.4864 90.112 65.8424 90.236 66.1464 90.388C66.4504 90.532 66.6784 90.664 66.8304 90.784L66.1704 91.732C66.0024 91.572 65.7104 91.404 65.2944 91.228C64.8784 91.044 64.4104 90.952 63.8904 90.952C63.2504 90.952 62.7024 91.084 62.2464 91.348C61.7984 91.612 61.5744 91.996 61.5744 92.5C61.5744 92.988 61.8024 93.376 62.2584 93.664C62.7144 93.952 63.3144 94.188 64.0584 94.372C64.6264 94.516 65.1424 94.696 65.6064 94.912C66.0784 95.128 66.4544 95.424 66.7344 95.8C67.0144 96.168 67.1544 96.66 67.1544 97.276C67.1544 97.804 67.0464 98.26 66.8304 98.644C66.6144 99.02 66.3184 99.328 65.9424 99.568C65.5744 99.808 65.1544 99.988 64.6824 100.108C64.2104 100.228 63.7144 100.288 63.1944 100.288C62.6584 100.288 62.1624 100.228 61.7064 100.108C61.2504 99.988 60.8584 99.844 60.5304 99.676C60.2104 99.508 59.9664 99.352 59.7984 99.208L60.4824 98.14C60.6904 98.356 61.0304 98.58 61.5024 98.812C61.9824 99.036 62.5424 99.148 63.1824 99.148C63.9264 99.148 64.5384 98.976 65.0184 98.632C65.5064 98.288 65.7504 97.836 65.7504 97.276C65.7504 96.868 65.6344 96.54 65.4024 96.292C65.1704 96.044 64.8664 95.848 64.4904 95.704C64.1144 95.552 63.7144 95.424 63.2904 95.32C62.8824 95.216 62.4904 95.092 62.1144 94.948C61.7464 94.796 61.4184 94.608 61.1304 94.384C60.8424 94.16 60.6144 93.892 60.4464 93.58C60.2864 93.26 60.2064 92.888 60.2064 92.464C60.2064 91.936 60.3704 91.48 60.6984 91.096C61.0264 90.704 61.4624 90.4 62.0064 90.184C62.5584 89.968 63.1544 89.86 63.7944 89.86ZM68.7939 90.148H70.8459V86.104H72.2019V90.148H74.8899V91.384H72.2019V97.228C72.2019 97.884 72.3219 98.352 72.5619 98.632C72.8019 98.912 73.1019 99.052 73.4619 99.052C73.8059 99.052 74.0659 98.992 74.2419 98.872C74.4179 98.752 74.5219 98.672 74.5539 98.632L75.1899 99.676C75.1419 99.716 75.0339 99.788 74.8659 99.892C74.6979 99.988 74.4779 100.076 74.2059 100.156C73.9339 100.244 73.6059 100.288 73.2219 100.288C72.5579 100.288 71.9939 100.076 71.5299 99.652C71.0739 99.22 70.8459 98.532 70.8459 97.588V91.384H68.7939V90.148ZM77.5037 100V90.148H78.8597V100H77.5037ZM78.1997 86.152C77.9117 86.152 77.6637 86.052 77.4557 85.852C77.2557 85.644 77.1557 85.396 77.1557 85.108C77.1557 84.812 77.2597 84.564 77.4677 84.364C77.6757 84.156 77.9197 84.052 78.1997 84.052C78.3917 84.052 78.5677 84.1 78.7277 84.196C78.8957 84.292 79.0277 84.42 79.1237 84.58C79.2277 84.732 79.2797 84.908 79.2797 85.108C79.2797 85.396 79.1717 85.644 78.9557 85.852C78.7477 86.052 78.4957 86.152 78.1997 86.152ZM93.3999 89.86C94.1279 89.86 94.7399 90.02 95.2359 90.34C95.7319 90.66 96.1039 91.148 96.3519 91.804C96.6079 92.452 96.7359 93.28 96.7359 94.288V100H95.3799V94.648C95.3799 93.408 95.2119 92.496 94.8759 91.912C94.5399 91.328 93.9399 91.036 93.0759 91.036C92.6359 91.036 92.1999 91.16 91.7679 91.408C91.3439 91.648 90.9919 92.032 90.7119 92.56C90.4319 93.088 90.2919 93.784 90.2919 94.648V100H88.9839V94.648C88.9839 93.408 88.7679 92.496 88.3359 91.912C87.9039 91.328 87.3359 91.036 86.6319 91.036C86.1839 91.036 85.7479 91.152 85.3239 91.384C84.9079 91.616 84.5639 92 84.2919 92.536C84.0279 93.064 83.8959 93.768 83.8959 94.648V100H82.5399V90.148H83.8959V91.708C83.9759 91.46 84.1559 91.192 84.4359 90.904C84.7239 90.616 85.0919 90.372 85.5399 90.172C85.9879 89.964 86.4999 89.86 87.0759 89.86C87.6839 89.86 88.1879 89.996 88.5879 90.268C88.9879 90.54 89.2999 90.864 89.5239 91.24C89.7479 91.616 89.8879 91.96 89.9439 92.272C90.0639 91.896 90.2799 91.524 90.5919 91.156C90.9039 90.788 91.2999 90.48 91.7799 90.232C92.2599 89.984 92.7999 89.86 93.3999 89.86ZM108.002 100V97.936C107.946 98.152 107.758 98.448 107.438 98.824C107.126 99.2 106.69 99.54 106.13 99.844C105.578 100.14 104.922 100.288 104.162 100.288C103.274 100.288 102.454 100.084 101.702 99.676C100.958 99.26 100.358 98.664 99.902 97.888C99.454 97.104 99.23 96.168 99.23 95.08C99.23 93.992 99.454 93.06 99.902 92.284C100.358 91.5 100.958 90.9 101.702 90.484C102.454 90.068 103.274 89.86 104.162 89.86C104.922 89.86 105.578 90.004 106.13 90.292C106.682 90.572 107.118 90.896 107.438 91.264C107.766 91.632 107.95 91.94 107.99 92.188V90.148H109.334V100H108.002ZM100.586 95.08C100.586 95.912 100.766 96.628 101.126 97.228C101.486 97.828 101.95 98.288 102.518 98.608C103.094 98.928 103.698 99.088 104.33 99.088C105.026 99.088 105.646 98.924 106.19 98.596C106.734 98.268 107.162 97.804 107.474 97.204C107.794 96.604 107.954 95.896 107.954 95.08C107.954 94.264 107.794 93.556 107.474 92.956C107.162 92.356 106.734 91.892 106.19 91.564C105.646 91.228 105.026 91.06 104.33 91.06C103.698 91.06 103.094 91.224 102.518 91.552C101.95 91.872 101.486 92.332 101.126 92.932C100.766 93.532 100.586 94.248 100.586 95.08ZM115.708 89.86C116.164 89.86 116.592 89.912 116.992 90.016C117.4 90.112 117.756 90.236 118.06 90.388C118.364 90.532 118.592 90.664 118.744 90.784L118.084 91.732C117.916 91.572 117.624 91.404 117.208 91.228C116.792 91.044 116.324 90.952 115.804 90.952C115.164 90.952 114.616 91.084 114.16 91.348C113.712 91.612 113.488 91.996 113.488 92.5C113.488 92.988 113.716 93.376 114.172 93.664C114.628 93.952 115.228 94.188 115.972 94.372C116.54 94.516 117.056 94.696 117.52 94.912C117.992 95.128 118.368 95.424 118.648 95.8C118.928 96.168 119.068 96.66 119.068 97.276C119.068 97.804 118.96 98.26 118.744 98.644C118.528 99.02 118.232 99.328 117.856 99.568C117.488 99.808 117.068 99.988 116.596 100.108C116.124 100.228 115.628 100.288 115.108 100.288C114.572 100.288 114.076 100.228 113.62 100.108C113.164 99.988 112.772 99.844 112.444 99.676C112.124 99.508 111.88 99.352 111.712 99.208L112.396 98.14C112.604 98.356 112.944 98.58 113.416 98.812C113.896 99.036 114.456 99.148 115.096 99.148C115.84 99.148 116.452 98.976 116.932 98.632C117.42 98.288 117.664 97.836 117.664 97.276C117.664 96.868 117.548 96.54 117.316 96.292C117.084 96.044 116.78 95.848 116.404 95.704C116.028 95.552 115.628 95.424 115.204 95.32C114.796 95.216 114.404 95.092 114.028 94.948C113.66 94.796 113.332 94.608 113.044 94.384C112.756 94.16 112.528 93.892 112.36 93.58C112.2 93.26 112.12 92.888 112.12 92.464C112.12 91.936 112.284 91.48 112.612 91.096C112.94 90.704 113.376 90.4 113.92 90.184C114.472 89.968 115.068 89.86 115.708 89.86ZM121.988 100V90.148H123.344V100H121.988ZM122.684 86.152C122.396 86.152 122.148 86.052 121.94 85.852C121.74 85.644 121.64 85.396 121.64 85.108C121.64 84.812 121.744 84.564 121.952 84.364C122.16 84.156 122.404 84.052 122.684 84.052C122.876 84.052 123.052 84.1 123.212 84.196C123.38 84.292 123.512 84.42 123.608 84.58C123.712 84.732 123.764 84.908 123.764 85.108C123.764 85.396 123.656 85.644 123.44 85.852C123.232 86.052 122.98 86.152 122.684 86.152ZM128.488 100.288C128.112 100.288 127.792 100.156 127.528 99.892C127.272 99.628 127.144 99.312 127.144 98.944C127.144 98.56 127.272 98.236 127.528 97.972C127.792 97.708 128.112 97.576 128.488 97.576C128.864 97.576 129.184 97.708 129.448 97.972C129.712 98.236 129.844 98.56 129.844 98.944C129.844 99.312 129.712 99.628 129.448 99.892C129.184 100.156 128.864 100.288 128.488 100.288ZM128.488 92.38C128.112 92.38 127.792 92.248 127.528 91.984C127.272 91.72 127.144 91.404 127.144 91.036C127.144 90.652 127.272 90.328 127.528 90.064C127.792 89.8 128.112 89.668 128.488 89.668C128.864 89.668 129.184 89.8 129.448 90.064C129.712 90.328 129.844 90.652 129.844 91.036C129.844 91.404 129.712 91.72 129.448 91.984C129.184 92.248 128.864 92.38 128.488 92.38ZM138.619 86.392C138.659 86.264 138.771 86.064 138.955 85.792C139.147 85.52 139.419 85.24 139.771 84.952C140.131 84.656 140.587 84.404 141.139 84.196C141.699 83.98 142.363 83.872 143.131 83.872C144.147 83.872 144.999 84.06 145.687 84.436C146.375 84.812 146.891 85.312 147.235 85.936C147.587 86.56 147.763 87.256 147.763 88.024C147.763 88.672 147.631 89.256 147.367 89.776C147.103 90.296 146.763 90.72 146.347 91.048C145.931 91.368 145.487 91.56 145.015 91.624C145.495 91.664 145.979 91.84 146.467 92.152C146.963 92.464 147.375 92.9 147.703 93.46C148.039 94.012 148.207 94.68 148.207 95.464C148.207 96.368 147.991 97.188 147.559 97.924C147.135 98.652 146.539 99.228 145.771 99.652C145.011 100.076 144.115 100.288 143.083 100.288C142.115 100.288 141.287 100.124 140.599 99.796C139.911 99.468 139.355 99.068 138.931 98.596C138.515 98.124 138.227 97.668 138.067 97.228L139.303 96.556C139.431 96.908 139.651 97.276 139.963 97.66C140.283 98.044 140.703 98.372 141.223 98.644C141.743 98.908 142.355 99.04 143.059 99.04C143.867 99.04 144.551 98.876 145.111 98.548C145.671 98.22 146.095 97.784 146.383 97.24C146.671 96.696 146.815 96.096 146.815 95.44C146.815 94.696 146.635 94.092 146.275 93.628C145.923 93.164 145.463 92.82 144.895 92.596C144.327 92.372 143.715 92.26 143.059 92.26H142.747V91.132H143.155C143.731 91.132 144.271 91.012 144.775 90.772C145.287 90.532 145.699 90.188 146.011 89.74C146.323 89.284 146.479 88.736 146.479 88.096C146.479 87.256 146.199 86.544 145.639 85.96C145.087 85.376 144.239 85.084 143.095 85.084C142.487 85.084 141.975 85.172 141.559 85.348C141.143 85.516 140.811 85.716 140.563 85.948C140.315 86.18 140.131 86.396 140.011 86.596C139.899 86.788 139.839 86.904 139.831 86.944L138.619 86.392ZM156.703 95.14V93.928H162.883V95.14H156.703ZM174.017 85.792L171.161 87.46V86.104L174.437 84.16H175.373V100H174.017V85.792ZM186.17 84.16V95.404H187.97V96.664H186.17V100H184.814V96.664H178.082V95.488L184.814 84.16H186.17ZM184.814 95.404V86.584L179.594 95.404H184.814ZM196.22 84.16H199.484C201.172 84.16 202.556 84.5 203.636 85.18C204.716 85.852 205.512 86.784 206.024 87.976C206.544 89.168 206.804 90.532 206.804 92.068C206.804 93.612 206.548 94.98 206.036 96.172C205.524 97.364 204.728 98.3 203.648 98.98C202.568 99.66 201.18 100 199.484 100H196.22V84.16ZM197.552 85.432V98.728H199.376C200.784 98.728 201.928 98.444 202.808 97.876C203.696 97.308 204.348 96.528 204.764 95.536C205.188 94.536 205.404 93.388 205.412 92.092C205.42 90.796 205.216 89.648 204.8 88.648C204.384 87.648 203.728 86.864 202.832 86.296C201.944 85.72 200.792 85.432 199.376 85.432H197.552ZM217.596 100V97.936C217.54 98.152 217.352 98.448 217.032 98.824C216.72 99.2 216.284 99.54 215.724 99.844C215.172 100.14 214.516 100.288 213.756 100.288C212.868 100.288 212.048 100.084 211.296 99.676C210.552 99.26 209.952 98.664 209.496 97.888C209.048 97.104 208.824 96.168 208.824 95.08C208.824 93.992 209.048 93.06 209.496 92.284C209.952 91.5 210.552 90.9 211.296 90.484C212.048 90.068 212.868 89.86 213.756 89.86C214.516 89.86 215.172 90.004 215.724 90.292C216.276 90.572 216.712 90.896 217.032 91.264C217.36 91.632 217.544 91.94 217.584 92.188V90.148H218.928V100H217.596ZM210.18 95.08C210.18 95.912 210.36 96.628 210.72 97.228C211.08 97.828 211.544 98.288 212.112 98.608C212.688 98.928 213.292 99.088 213.924 99.088C214.62 99.088 215.24 98.924 215.784 98.596C216.328 98.268 216.756 97.804 217.068 97.204C217.388 96.604 217.548 95.896 217.548 95.08C217.548 94.264 217.388 93.556 217.068 92.956C216.756 92.356 216.328 91.892 215.784 91.564C215.24 91.228 214.62 91.06 213.924 91.06C213.292 91.06 212.688 91.224 212.112 91.552C211.544 91.872 211.08 92.332 210.72 92.932C210.36 93.532 210.18 94.248 210.18 95.08ZM225.638 98.68L229.262 90.148H230.678L224.078 104.992H222.662L224.894 100L220.85 90.148H222.278L225.638 98.68ZM235.802 89.86C236.258 89.86 236.686 89.912 237.086 90.016C237.494 90.112 237.85 90.236 238.154 90.388C238.458 90.532 238.686 90.664 238.838 90.784L238.178 91.732C238.01 91.572 237.718 91.404 237.302 91.228C236.886 91.044 236.418 90.952 235.898 90.952C235.258 90.952 234.71 91.084 234.254 91.348C233.806 91.612 233.582 91.996 233.582 92.5C233.582 92.988 233.81 93.376 234.266 93.664C234.722 93.952 235.322 94.188 236.066 94.372C236.634 94.516 237.15 94.696 237.614 94.912C238.086 95.128 238.462 95.424 238.742 95.8C239.022 96.168 239.162 96.66 239.162 97.276C239.162 97.804 239.054 98.26 238.838 98.644C238.622 99.02 238.326 99.328 237.95 99.568C237.582 99.808 237.162 99.988 236.69 100.108C236.218 100.228 235.722 100.288 235.202 100.288C234.666 100.288 234.17 100.228 233.714 100.108C233.258 99.988 232.866 99.844 232.538 99.676C232.218 99.508 231.974 99.352 231.806 99.208L232.49 98.14C232.698 98.356 233.038 98.58 233.51 98.812C233.99 99.036 234.55 99.148 235.19 99.148C235.934 99.148 236.546 98.976 237.026 98.632C237.514 98.288 237.758 97.836 237.758 97.276C237.758 96.868 237.642 96.54 237.41 96.292C237.178 96.044 236.874 95.848 236.498 95.704C236.122 95.552 235.722 95.424 235.298 95.32C234.89 95.216 234.498 95.092 234.122 94.948C233.754 94.796 233.426 94.608 233.138 94.384C232.85 94.16 232.622 93.892 232.454 93.58C232.294 93.26 232.214 92.888 232.214 92.464C232.214 91.936 232.378 91.48 232.706 91.096C233.034 90.704 233.47 90.4 234.014 90.184C234.566 89.968 235.162 89.86 235.802 89.86Z" fill="white"/>
<line x1="411.325" y1="98.502" x2="430.05" y2="115.066" stroke="#FFB656" stroke-width="4"/>
<line y1="-2" x2="25" y2="-2" transform="matrix(0.748997 -0.662574 -0.662574 -0.748997 410 128.564)" stroke="#FFB656" stroke-width="4"/>
<defs>
<filter id="filter0_d_142_52" x="0" y="0" width="479" height="238" filterUnits="userSpaceOnUse" color-interpolation-filters="sRGB">
<feFlood flood-opacity="0" result="BackgroundImageFix"/>
<feColorMatrix in="SourceAlpha" type="matrix" values="0 0 0 0 0 0 0 0 0 0 0 0 0 0 0 0 0 0 127 0" result="hardAlpha"/>
<feOffset dx="5" dy="5"/>
<feGaussianBlur stdDeviation="10"/>
<feComposite in2="hardAlpha" operator="out"/>
<feColorMatrix type="matrix" values="0 0 0 0 0 0 0 0 0 0 0 0 0 0 0 0 0 0 0.5 0"/>
<feBlend mode="normal" in2="BackgroundImageFix" result="effect1_dropShadow_142_52"/>
<feBlend mode="normal" in="SourceGraphic" in2="effect1_dropShadow_142_52" result="shape"/>
</filter>
</defs>
</svg>
