<svg width="479" height="238" viewBox="0 0 479 238" fill="none" xmlns="http://www.w3.org/2000/svg">
<g filter="url(#filter0_d_142_79)">
<rect x="15" y="15" width="439" height="198" rx="25" fill="#4C3BCF"/>
</g>
<path d="M388 20H425C438.807 20 450 31.1929 450 45V183C450 196.807 438.807 208 425 208H388V20Z" fill="white"/>
<path d="M53.1367 51.02H46.5167V46.6H64.7367V51.02H58.1367V73H53.1367V51.02ZM71.3173 59.78C71.3173 61.46 71.664 62.98 72.3573 64.34C73.064 65.7 74.0307 66.78 75.2573 67.58C76.484 68.3667 77.904 68.76 79.5173 68.76C81.1307 68.76 82.5507 68.3667 83.7773 67.58C85.0173 66.78 85.984 65.7 86.6773 64.34C87.3707 62.98 87.7173 61.46 87.7173 59.78C87.7173 58.1 87.3707 56.5867 86.6773 55.24C85.984 53.88 85.0173 52.8 83.7773 52C82.5507 51.2 81.1307 50.8 79.5173 50.8C77.904 50.8 76.484 51.2 75.2573 52C74.0307 52.8 73.064 53.88 72.3573 55.24C71.664 56.5867 71.3173 58.1 71.3173 59.78ZM66.1173 59.78C66.1173 57.86 66.4507 56.0733 67.1173 54.42C67.7973 52.7533 68.744 51.3 69.9573 50.06C71.1707 48.82 72.5907 47.8533 74.2173 47.16C75.8573 46.4667 77.624 46.12 79.5173 46.12C81.4373 46.12 83.2107 46.4667 84.8373 47.16C86.464 47.8533 87.8773 48.82 89.0773 50.06C90.2907 51.3 91.2307 52.7533 91.8973 54.42C92.564 56.0733 92.8973 57.86 92.8973 59.78C92.8973 61.7133 92.5707 63.5133 91.9173 65.18C91.264 66.8333 90.3373 68.2867 89.1373 69.54C87.9373 70.78 86.524 71.7467 84.8973 72.44C83.2707 73.1333 81.4773 73.48 79.5173 73.48C77.5307 73.48 75.7173 73.1333 74.0773 72.44C72.4507 71.7467 71.0373 70.78 69.8373 69.54C68.6507 68.2867 67.7307 66.8333 67.0773 65.18C66.4373 63.5133 66.1173 61.7133 66.1173 59.78ZM100.637 51.02H94.0167V46.6H112.237V51.02H105.637V73H100.637V51.02ZM121.044 46.6H126.064L136.224 73H130.904L128.844 67.3H118.284L116.184 73H110.844L121.044 46.6ZM119.924 62.88H127.204L123.584 52.64H123.524L119.924 62.88ZM138.722 46.6H143.722V68.58H153.622V73H138.722V46.6Z" fill="white"/>
<path d="M54.5698 128.936L48.0738 132.2V121.704L60.6498 114.76H65.7058V157H54.5698V128.936ZM70.1818 135.912C70.1818 132.285 70.6511 129.107 71.5898 126.376C72.5284 123.624 73.8191 121.331 75.4618 119.496C77.1258 117.661 79.0138 116.285 81.1258 115.368C83.2378 114.451 85.4671 113.992 87.8138 113.992C90.2031 113.992 92.4538 114.451 94.5658 115.368C96.6778 116.285 98.5444 117.661 100.166 119.496C101.808 121.331 103.099 123.624 104.038 126.376C104.976 129.107 105.446 132.285 105.446 135.912C105.446 139.859 104.976 143.219 104.038 145.992C103.099 148.765 101.808 151.016 100.166 152.744C98.5444 154.472 96.6778 155.741 94.5658 156.552C92.4538 157.363 90.2031 157.768 87.8138 157.768C85.4671 157.768 83.2378 157.363 81.1258 156.552C79.0138 155.741 77.1258 154.472 75.4618 152.744C73.8191 151.016 72.5284 148.765 71.5898 145.992C70.6511 143.219 70.1818 139.859 70.1818 135.912ZM81.3178 135.912C81.3178 138.685 81.5631 140.968 82.0538 142.76C82.5658 144.531 83.3018 145.853 84.2618 146.728C85.2218 147.581 86.4058 148.008 87.8138 148.008C89.2431 148.008 90.4378 147.581 91.3978 146.728C92.3578 145.853 93.0724 144.52 93.5418 142.728C94.0324 140.936 94.2778 138.664 94.2778 135.912C94.2778 133.373 94.0324 131.208 93.5418 129.416C93.0724 127.603 92.3578 126.205 91.3978 125.224C90.4378 124.243 89.2431 123.752 87.8138 123.752C86.4058 123.752 85.2218 124.243 84.2618 125.224C83.3018 126.205 82.5658 127.603 82.0538 129.416C81.5631 131.229 81.3178 133.395 81.3178 135.912ZM108.432 135.912C108.432 132.285 108.901 129.107 109.84 126.376C110.778 123.624 112.069 121.331 113.712 119.496C115.376 117.661 117.264 116.285 119.376 115.368C121.488 114.451 123.717 113.992 126.064 113.992C128.453 113.992 130.704 114.451 132.816 115.368C134.928 116.285 136.794 117.661 138.416 119.496C140.058 121.331 141.349 123.624 142.288 126.376C143.226 129.107 143.696 132.285 143.696 135.912C143.696 139.859 143.226 143.219 142.288 145.992C141.349 148.765 140.058 151.016 138.416 152.744C136.794 154.472 134.928 155.741 132.816 156.552C130.704 157.363 128.453 157.768 126.064 157.768C123.717 157.768 121.488 157.363 119.376 156.552C117.264 155.741 115.376 154.472 113.712 152.744C112.069 151.016 110.778 148.765 109.84 145.992C108.901 143.219 108.432 139.859 108.432 135.912ZM119.568 135.912C119.568 138.685 119.813 140.968 120.304 142.76C120.816 144.531 121.552 145.853 122.512 146.728C123.472 147.581 124.656 148.008 126.064 148.008C127.493 148.008 128.688 147.581 129.648 146.728C130.608 145.853 131.322 144.52 131.792 142.728C132.282 140.936 132.528 138.664 132.528 135.912C132.528 133.373 132.282 131.208 131.792 129.416C131.322 127.603 130.608 126.205 129.648 125.224C128.688 124.243 127.493 123.752 126.064 123.752C124.656 123.752 123.472 124.243 122.512 125.224C121.552 126.205 120.816 127.603 120.304 129.416C119.813 131.229 119.568 133.395 119.568 135.912ZM167.77 134.984L183.322 157H170.074L158.138 138.92V157H147.002V114.76H158.138V131.272L169.018 114.76H181.562L167.77 134.984Z" fill="white"/>
<path d="M47.5502 84.16H56.5742V85.42H48.8822V91.432H56.3822V92.68H48.8822V98.74H56.5742V100H47.5502V84.16ZM63.2944 89.86C63.7504 89.86 64.1784 89.912 64.5784 90.016C64.9864 90.112 65.3424 90.236 65.6464 90.388C65.9504 90.532 66.1784 90.664 66.3304 90.784L65.6704 91.732C65.5024 91.572 65.2104 91.404 64.7944 91.228C64.3784 91.044 63.9104 90.952 63.3904 90.952C62.7504 90.952 62.2024 91.084 61.7464 91.348C61.2984 91.612 61.0744 91.996 61.0744 92.5C61.0744 92.988 61.3024 93.376 61.7584 93.664C62.2144 93.952 62.8144 94.188 63.5584 94.372C64.1264 94.516 64.6424 94.696 65.1064 94.912C65.5784 95.128 65.9544 95.424 66.2344 95.8C66.5144 96.168 66.6544 96.66 66.6544 97.276C66.6544 97.804 66.5464 98.26 66.3304 98.644C66.1144 99.02 65.8184 99.328 65.4424 99.568C65.0744 99.808 64.6544 99.988 64.1824 100.108C63.7104 100.228 63.2144 100.288 62.6944 100.288C62.1584 100.288 61.6624 100.228 61.2064 100.108C60.7504 99.988 60.3584 99.844 60.0304 99.676C59.7104 99.508 59.4664 99.352 59.2984 99.208L59.9824 98.14C60.1904 98.356 60.5304 98.58 61.0024 98.812C61.4824 99.036 62.0424 99.148 62.6824 99.148C63.4264 99.148 64.0384 98.976 64.5184 98.632C65.0064 98.288 65.2504 97.836 65.2504 97.276C65.2504 96.868 65.1344 96.54 64.9024 96.292C64.6704 96.044 64.3664 95.848 63.9904 95.704C63.6144 95.552 63.2144 95.424 62.7904 95.32C62.3824 95.216 61.9904 95.092 61.6144 94.948C61.2464 94.796 60.9184 94.608 60.6304 94.384C60.3424 94.16 60.1144 93.892 59.9464 93.58C59.7864 93.26 59.7064 92.888 59.7064 92.464C59.7064 91.936 59.8704 91.48 60.1984 91.096C60.5264 90.704 60.9624 90.4 61.5064 90.184C62.0584 89.968 62.6544 89.86 63.2944 89.86ZM68.2939 90.148H70.3459V86.104H71.7019V90.148H74.3899V91.384H71.7019V97.228C71.7019 97.884 71.8219 98.352 72.0619 98.632C72.3019 98.912 72.6019 99.052 72.9619 99.052C73.3059 99.052 73.5659 98.992 73.7419 98.872C73.9179 98.752 74.0219 98.672 74.0539 98.632L74.6899 99.676C74.6419 99.716 74.5339 99.788 74.3659 99.892C74.1979 99.988 73.9779 100.076 73.7059 100.156C73.4339 100.244 73.1059 100.288 72.7219 100.288C72.0579 100.288 71.4939 100.076 71.0299 99.652C70.5739 99.22 70.3459 98.532 70.3459 97.588V91.384H68.2939V90.148ZM77.0037 100V90.148H78.3597V100H77.0037ZM77.6997 86.152C77.4117 86.152 77.1637 86.052 76.9557 85.852C76.7557 85.644 76.6557 85.396 76.6557 85.108C76.6557 84.812 76.7597 84.564 76.9677 84.364C77.1757 84.156 77.4197 84.052 77.6997 84.052C77.8917 84.052 78.0677 84.1 78.2277 84.196C78.3957 84.292 78.5277 84.42 78.6237 84.58C78.7277 84.732 78.7797 84.908 78.7797 85.108C78.7797 85.396 78.6717 85.644 78.4557 85.852C78.2477 86.052 77.9957 86.152 77.6997 86.152ZM92.8999 89.86C93.6279 89.86 94.2399 90.02 94.7359 90.34C95.2319 90.66 95.6039 91.148 95.8519 91.804C96.1079 92.452 96.2359 93.28 96.2359 94.288V100H94.8799V94.648C94.8799 93.408 94.7119 92.496 94.3759 91.912C94.0399 91.328 93.4399 91.036 92.5759 91.036C92.1359 91.036 91.6999 91.16 91.2679 91.408C90.8439 91.648 90.4919 92.032 90.2119 92.56C89.9319 93.088 89.7919 93.784 89.7919 94.648V100H88.4839V94.648C88.4839 93.408 88.2679 92.496 87.8359 91.912C87.4039 91.328 86.8359 91.036 86.1319 91.036C85.6839 91.036 85.2479 91.152 84.8239 91.384C84.4079 91.616 84.0639 92 83.7919 92.536C83.5279 93.064 83.3959 93.768 83.3959 94.648V100H82.0399V90.148H83.3959V91.708C83.4759 91.46 83.6559 91.192 83.9359 90.904C84.2239 90.616 84.5919 90.372 85.0399 90.172C85.4879 89.964 85.9999 89.86 86.5759 89.86C87.1839 89.86 87.6879 89.996 88.0879 90.268C88.4879 90.54 88.7999 90.864 89.0239 91.24C89.2479 91.616 89.3879 91.96 89.4439 92.272C89.5639 91.896 89.7799 91.524 90.0919 91.156C90.4039 90.788 90.7999 90.48 91.2799 90.232C91.7599 89.984 92.2999 89.86 92.8999 89.86ZM107.502 100V97.936C107.446 98.152 107.258 98.448 106.938 98.824C106.626 99.2 106.19 99.54 105.63 99.844C105.078 100.14 104.422 100.288 103.662 100.288C102.774 100.288 101.954 100.084 101.202 99.676C100.458 99.26 99.858 98.664 99.402 97.888C98.954 97.104 98.73 96.168 98.73 95.08C98.73 93.992 98.954 93.06 99.402 92.284C99.858 91.5 100.458 90.9 101.202 90.484C101.954 90.068 102.774 89.86 103.662 89.86C104.422 89.86 105.078 90.004 105.63 90.292C106.182 90.572 106.618 90.896 106.938 91.264C107.266 91.632 107.45 91.94 107.49 92.188V90.148H108.834V100H107.502ZM100.086 95.08C100.086 95.912 100.266 96.628 100.626 97.228C100.986 97.828 101.45 98.288 102.018 98.608C102.594 98.928 103.198 99.088 103.83 99.088C104.526 99.088 105.146 98.924 105.69 98.596C106.234 98.268 106.662 97.804 106.974 97.204C107.294 96.604 107.454 95.896 107.454 95.08C107.454 94.264 107.294 93.556 106.974 92.956C106.662 92.356 106.234 91.892 105.69 91.564C105.146 91.228 104.526 91.06 103.83 91.06C103.198 91.06 102.594 91.224 102.018 91.552C101.45 91.872 100.986 92.332 100.626 92.932C100.266 93.532 100.086 94.248 100.086 95.08ZM115.208 89.86C115.664 89.86 116.092 89.912 116.492 90.016C116.9 90.112 117.256 90.236 117.56 90.388C117.864 90.532 118.092 90.664 118.244 90.784L117.584 91.732C117.416 91.572 117.124 91.404 116.708 91.228C116.292 91.044 115.824 90.952 115.304 90.952C114.664 90.952 114.116 91.084 113.66 91.348C113.212 91.612 112.988 91.996 112.988 92.5C112.988 92.988 113.216 93.376 113.672 93.664C114.128 93.952 114.728 94.188 115.472 94.372C116.04 94.516 116.556 94.696 117.02 94.912C117.492 95.128 117.868 95.424 118.148 95.8C118.428 96.168 118.568 96.66 118.568 97.276C118.568 97.804 118.46 98.26 118.244 98.644C118.028 99.02 117.732 99.328 117.356 99.568C116.988 99.808 116.568 99.988 116.096 100.108C115.624 100.228 115.128 100.288 114.608 100.288C114.072 100.288 113.576 100.228 113.12 100.108C112.664 99.988 112.272 99.844 111.944 99.676C111.624 99.508 111.38 99.352 111.212 99.208L111.896 98.14C112.104 98.356 112.444 98.58 112.916 98.812C113.396 99.036 113.956 99.148 114.596 99.148C115.34 99.148 115.952 98.976 116.432 98.632C116.92 98.288 117.164 97.836 117.164 97.276C117.164 96.868 117.048 96.54 116.816 96.292C116.584 96.044 116.28 95.848 115.904 95.704C115.528 95.552 115.128 95.424 114.704 95.32C114.296 95.216 113.904 95.092 113.528 94.948C113.16 94.796 112.832 94.608 112.544 94.384C112.256 94.16 112.028 93.892 111.86 93.58C111.7 93.26 111.62 92.888 111.62 92.464C111.62 91.936 111.784 91.48 112.112 91.096C112.44 90.704 112.876 90.4 113.42 90.184C113.972 89.968 114.568 89.86 115.208 89.86ZM121.488 100V90.148H122.844V100H121.488ZM122.184 86.152C121.896 86.152 121.648 86.052 121.44 85.852C121.24 85.644 121.14 85.396 121.14 85.108C121.14 84.812 121.244 84.564 121.452 84.364C121.66 84.156 121.904 84.052 122.184 84.052C122.376 84.052 122.552 84.1 122.712 84.196C122.88 84.292 123.012 84.42 123.108 84.58C123.212 84.732 123.264 84.908 123.264 85.108C123.264 85.396 123.156 85.644 122.94 85.852C122.732 86.052 122.48 86.152 122.184 86.152ZM127.988 100.288C127.612 100.288 127.292 100.156 127.028 99.892C126.772 99.628 126.644 99.312 126.644 98.944C126.644 98.56 126.772 98.236 127.028 97.972C127.292 97.708 127.612 97.576 127.988 97.576C128.364 97.576 128.684 97.708 128.948 97.972C129.212 98.236 129.344 98.56 129.344 98.944C129.344 99.312 129.212 99.628 128.948 99.892C128.684 100.156 128.364 100.288 127.988 100.288ZM127.988 92.38C127.612 92.38 127.292 92.248 127.028 91.984C126.772 91.72 126.644 91.404 126.644 91.036C126.644 90.652 126.772 90.328 127.028 90.064C127.292 89.8 127.612 89.668 127.988 89.668C128.364 89.668 128.684 89.8 128.948 90.064C129.212 90.328 129.344 90.652 129.344 91.036C129.344 91.404 129.212 91.72 128.948 91.984C128.684 92.248 128.364 92.38 127.988 92.38ZM138.119 86.392C138.159 86.264 138.271 86.064 138.455 85.792C138.647 85.52 138.919 85.24 139.271 84.952C139.631 84.656 140.087 84.404 140.639 84.196C141.199 83.98 141.863 83.872 142.631 83.872C143.647 83.872 144.499 84.06 145.187 84.436C145.875 84.812 146.391 85.312 146.735 85.936C147.087 86.56 147.263 87.256 147.263 88.024C147.263 88.672 147.131 89.256 146.867 89.776C146.603 90.296 146.263 90.72 145.847 91.048C145.431 91.368 144.987 91.56 144.515 91.624C144.995 91.664 145.479 91.84 145.967 92.152C146.463 92.464 146.875 92.9 147.203 93.46C147.539 94.012 147.707 94.68 147.707 95.464C147.707 96.368 147.491 97.188 147.059 97.924C146.635 98.652 146.039 99.228 145.271 99.652C144.511 100.076 143.615 100.288 142.583 100.288C141.615 100.288 140.787 100.124 140.099 99.796C139.411 99.468 138.855 99.068 138.431 98.596C138.015 98.124 137.727 97.668 137.567 97.228L138.803 96.556C138.931 96.908 139.151 97.276 139.463 97.66C139.783 98.044 140.203 98.372 140.723 98.644C141.243 98.908 141.855 99.04 142.559 99.04C143.367 99.04 144.051 98.876 144.611 98.548C145.171 98.22 145.595 97.784 145.883 97.24C146.171 96.696 146.315 96.096 146.315 95.44C146.315 94.696 146.135 94.092 145.775 93.628C145.423 93.164 144.963 92.82 144.395 92.596C143.827 92.372 143.215 92.26 142.559 92.26H142.247V91.132H142.655C143.231 91.132 143.771 91.012 144.275 90.772C144.787 90.532 145.199 90.188 145.511 89.74C145.823 89.284 145.979 88.736 145.979 88.096C145.979 87.256 145.699 86.544 145.139 85.96C144.587 85.376 143.739 85.084 142.595 85.084C141.987 85.084 141.475 85.172 141.059 85.348C140.643 85.516 140.311 85.716 140.063 85.948C139.815 86.18 139.631 86.396 139.511 86.596C139.399 86.788 139.339 86.904 139.331 86.944L138.119 86.392ZM156.203 95.14V93.928H162.383V95.14H156.203ZM173.517 85.792L170.661 87.46V86.104L173.937 84.16H174.873V100H173.517V85.792ZM185.67 84.16V95.404H187.47V96.664H185.67V100H184.314V96.664H177.582V95.488L184.314 84.16H185.67ZM184.314 95.404V86.584L179.094 95.404H184.314ZM195.72 84.16H198.984C200.672 84.16 202.056 84.5 203.136 85.18C204.216 85.852 205.012 86.784 205.524 87.976C206.044 89.168 206.304 90.532 206.304 92.068C206.304 93.612 206.048 94.98 205.536 96.172C205.024 97.364 204.228 98.3 203.148 98.98C202.068 99.66 200.68 100 198.984 100H195.72V84.16ZM197.052 85.432V98.728H198.876C200.284 98.728 201.428 98.444 202.308 97.876C203.196 97.308 203.848 96.528 204.264 95.536C204.688 94.536 204.904 93.388 204.912 92.092C204.92 90.796 204.716 89.648 204.3 88.648C203.884 87.648 203.228 86.864 202.332 86.296C201.444 85.72 200.292 85.432 198.876 85.432H197.052ZM217.096 100V97.936C217.04 98.152 216.852 98.448 216.532 98.824C216.22 99.2 215.784 99.54 215.224 99.844C214.672 100.14 214.016 100.288 213.256 100.288C212.368 100.288 211.548 100.084 210.796 99.676C210.052 99.26 209.452 98.664 208.996 97.888C208.548 97.104 208.324 96.168 208.324 95.08C208.324 93.992 208.548 93.06 208.996 92.284C209.452 91.5 210.052 90.9 210.796 90.484C211.548 90.068 212.368 89.86 213.256 89.86C214.016 89.86 214.672 90.004 215.224 90.292C215.776 90.572 216.212 90.896 216.532 91.264C216.86 91.632 217.044 91.94 217.084 92.188V90.148H218.428V100H217.096ZM209.68 95.08C209.68 95.912 209.86 96.628 210.22 97.228C210.58 97.828 211.044 98.288 211.612 98.608C212.188 98.928 212.792 99.088 213.424 99.088C214.12 99.088 214.74 98.924 215.284 98.596C215.828 98.268 216.256 97.804 216.568 97.204C216.888 96.604 217.048 95.896 217.048 95.08C217.048 94.264 216.888 93.556 216.568 92.956C216.256 92.356 215.828 91.892 215.284 91.564C214.74 91.228 214.12 91.06 213.424 91.06C212.792 91.06 212.188 91.224 211.612 91.552C211.044 91.872 210.58 92.332 210.22 92.932C209.86 93.532 209.68 94.248 209.68 95.08ZM225.138 98.68L228.762 90.148H230.178L223.578 104.992H222.162L224.394 100L220.35 90.148H221.778L225.138 98.68ZM235.302 89.86C235.758 89.86 236.186 89.912 236.586 90.016C236.994 90.112 237.35 90.236 237.654 90.388C237.958 90.532 238.186 90.664 238.338 90.784L237.678 91.732C237.51 91.572 237.218 91.404 236.802 91.228C236.386 91.044 235.918 90.952 235.398 90.952C234.758 90.952 234.21 91.084 233.754 91.348C233.306 91.612 233.082 91.996 233.082 92.5C233.082 92.988 233.31 93.376 233.766 93.664C234.222 93.952 234.822 94.188 235.566 94.372C236.134 94.516 236.65 94.696 237.114 94.912C237.586 95.128 237.962 95.424 238.242 95.8C238.522 96.168 238.662 96.66 238.662 97.276C238.662 97.804 238.554 98.26 238.338 98.644C238.122 99.02 237.826 99.328 237.45 99.568C237.082 99.808 236.662 99.988 236.19 100.108C235.718 100.228 235.222 100.288 234.702 100.288C234.166 100.288 233.67 100.228 233.214 100.108C232.758 99.988 232.366 99.844 232.038 99.676C231.718 99.508 231.474 99.352 231.306 99.208L231.99 98.14C232.198 98.356 232.538 98.58 233.01 98.812C233.49 99.036 234.05 99.148 234.69 99.148C235.434 99.148 236.046 98.976 236.526 98.632C237.014 98.288 237.258 97.836 237.258 97.276C237.258 96.868 237.142 96.54 236.91 96.292C236.678 96.044 236.374 95.848 235.998 95.704C235.622 95.552 235.222 95.424 234.798 95.32C234.39 95.216 233.998 95.092 233.622 94.948C233.254 94.796 232.926 94.608 232.638 94.384C232.35 94.16 232.122 93.892 231.954 93.58C231.794 93.26 231.714 92.888 231.714 92.464C231.714 91.936 231.878 91.48 232.206 91.096C232.534 90.704 232.97 90.4 233.514 90.184C234.066 89.968 234.662 89.86 235.302 89.86Z" fill="white"/>
<line x1="411.325" y1="98.502" x2="430.05" y2="115.066" stroke="#1E2C90" stroke-width="4"/>
<line y1="-2" x2="25" y2="-2" transform="matrix(0.748997 -0.662574 -0.662574 -0.748997 410 128.564)" stroke="#1E2C90" stroke-width="4"/>
<defs>
<filter id="filter0_d_142_79" x="0" y="0" width="479" height="238" filterUnits="userSpaceOnUse" color-interpolation-filters="sRGB">
<feFlood flood-opacity="0" result="BackgroundImageFix"/>
<feColorMatrix in="SourceAlpha" type="matrix" values="0 0 0 0 0 0 0 0 0 0 0 0 0 0 0 0 0 0 127 0" result="hardAlpha"/>
<feOffset dx="5" dy="5"/>
<feGaussianBlur stdDeviation="10"/>
<feComposite in2="hardAlpha" operator="out"/>
<feColorMatrix type="matrix" values="0 0 0 0 0 0 0 0 0 0 0 0 0 0 0 0 0 0 0.5 0"/>
<feBlend mode="normal" in2="BackgroundImageFix" result="effect1_dropShadow_142_79"/>
<feBlend mode="normal" in="SourceGraphic" in2="effect1_dropShadow_142_79" result="shape"/>
</filter>
</defs>
</svg>
