<svg width="54" height="54" viewBox="0 0 54 54" fill="none" xmlns="http://www.w3.org/2000/svg">
<path d="M26.9996 54C41.8872 54 53.999 41.8877 53.999 26.9999C53.999 12.1123 41.8872 0 26.9996 0C12.1121 0 0 12.1123 0 26.9999C0 41.8877 12.1121 54 26.9996 54ZM26.9996 3.69608C39.8492 3.69608 50.3029 14.1501 50.3032 26.9999C50.3032 39.8497 39.8494 50.3037 26.9996 50.3039C14.1501 50.3037 3.69633 39.8497 3.69633 26.9996C3.69633 14.1503 14.1501 3.69608 26.9996 3.69608Z" fill="#1E2C90"/>
<path d="M23.3739 38.5641C24.0956 39.2856 25.2658 39.2853 25.9873 38.5641C26.7093 37.8421 26.7093 36.6722 25.987 35.9502L18.8856 28.8491L39.4499 28.8471C40.4705 28.8469 41.2977 28.0197 41.2977 26.9986C41.2974 25.978 40.4703 25.151 39.4497 25.151L18.8847 25.153L25.9878 18.0504C26.7095 17.3286 26.7095 16.1582 25.9878 15.4367C25.6268 15.076 25.1539 14.8954 24.6808 14.8954C24.208 14.8954 23.7351 15.076 23.3742 15.4365L13.1165 25.6939C12.7699 26.0403 12.5752 26.5102 12.5752 27.0005C12.5754 27.4909 12.7701 27.9605 13.1168 28.3077L23.3739 38.5641Z" fill="#1E2C90"/>
</svg>
