<svg width="191" height="46" viewBox="0 0 191 46" fill="none" xmlns="http://www.w3.org/2000/svg">
<path d="M19.0041 28.2C20.5374 28.2 21.9291 27.975 23.1791 27.525C24.4458 27.075 25.3874 26.6333 26.0041 26.2L29.2041 32.55C28.4208 33.2167 27.0791 33.8917 25.1791 34.575C23.2958 35.2583 21.0541 35.6 18.4541 35.6C16.0208 35.6 13.7374 35.175 11.6041 34.325C9.47077 33.475 7.58744 32.2833 5.9541 30.75C4.33744 29.2 3.06244 27.3917 2.1291 25.325C1.21243 23.2417 0.754102 20.9833 0.754102 18.55C0.754102 16.1167 1.21243 13.8583 2.1291 11.775C3.04577 9.675 4.31243 7.85 5.9291 6.3C7.56244 4.75 9.44577 3.55 11.5791 2.7C13.7291 1.83333 16.0208 1.4 18.4541 1.4C21.0541 1.4 23.2958 1.74166 25.1791 2.425C27.0791 3.10833 28.4208 3.78333 29.2041 4.45L26.0041 10.8C25.3874 10.35 24.4458 9.90833 23.1791 9.475C21.9291 9.025 20.5374 8.8 19.0041 8.8C17.3041 8.8 15.8208 9.06666 14.5541 9.6C13.2874 10.1167 12.2291 10.8333 11.3791 11.75C10.5291 12.6667 9.89577 13.7 9.4791 14.85C9.06244 16 8.8541 17.2083 8.8541 18.475C8.8541 19.7583 9.06244 20.9833 9.4791 22.15C9.89577 23.3 10.5291 24.3333 11.3791 25.25C12.2291 26.1667 13.2874 26.8917 14.5541 27.425C15.8208 27.9417 17.3041 28.2 19.0041 28.2ZM41.3807 35H33.7557V0.599999H41.3807V35ZM52.3307 26.35C52.3807 27.0833 52.614 27.7333 53.0307 28.3C53.4473 28.8667 54.0223 29.3167 54.7557 29.65C55.5057 29.9667 56.389 30.125 57.4057 30.125C58.3723 30.125 59.239 30.025 60.0057 29.825C60.789 29.625 61.464 29.375 62.0307 29.075C62.614 28.775 63.064 28.4667 63.3807 28.15L66.3307 32.85C65.914 33.3 65.3223 33.7417 64.5557 34.175C63.8057 34.5917 62.814 34.9333 61.5807 35.2C60.3473 35.4667 58.789 35.6 56.9057 35.6C54.639 35.6 52.6223 35.175 50.8557 34.325C49.089 33.475 47.6973 32.225 46.6807 30.575C45.664 28.925 45.1557 26.9083 45.1557 24.525C45.1557 22.525 45.589 20.725 46.4557 19.125C47.339 17.5083 48.614 16.2333 50.2807 15.3C51.9473 14.35 53.9557 13.875 56.3057 13.875C58.539 13.875 60.4723 14.2833 62.1057 15.1C63.7557 15.9167 65.0223 17.1333 65.9057 18.75C66.8057 20.35 67.2557 22.35 67.2557 24.75C67.2557 24.8833 67.2473 25.15 67.2307 25.55C67.2307 25.95 67.214 26.2167 67.1807 26.35H52.3307ZM60.1057 22.375C60.089 21.8417 59.9473 21.3167 59.6807 20.8C59.414 20.2667 59.014 19.8333 58.4807 19.5C57.9473 19.15 57.264 18.975 56.4307 18.975C55.5973 18.975 54.889 19.1417 54.3057 19.475C53.739 19.7917 53.3057 20.2083 53.0057 20.725C52.7057 21.2417 52.539 21.7917 52.5057 22.375H60.1057ZM87.108 35V31.675C86.958 32.0083 86.5747 32.4917 85.958 33.125C85.358 33.7583 84.558 34.3333 83.558 34.85C82.558 35.35 81.3913 35.6 80.058 35.6C78.058 35.6 76.308 35.1167 74.808 34.15C73.308 33.1667 72.1413 31.8583 71.308 30.225C70.4747 28.575 70.058 26.75 70.058 24.75C70.058 22.75 70.4747 20.9333 71.308 19.3C72.1413 17.65 73.308 16.3333 74.808 15.35C76.308 14.3667 78.058 13.875 80.058 13.875C81.3413 13.875 82.4663 14.0833 83.433 14.5C84.3997 14.9 85.183 15.3833 85.783 15.95C86.383 16.5 86.7997 17.0083 87.033 17.475V14.475H94.583V35H87.108ZM77.508 24.75C77.508 25.6833 77.7247 26.525 78.158 27.275C78.5913 28.0083 79.1663 28.5833 79.883 29C80.6163 29.4167 81.4247 29.625 82.308 29.625C83.2247 29.625 84.033 29.4167 84.733 29C85.433 28.5833 85.983 28.0083 86.383 27.275C86.7997 26.525 87.008 25.6833 87.008 24.75C87.008 23.8167 86.7997 22.9833 86.383 22.25C85.983 21.5 85.433 20.9167 84.733 20.5C84.033 20.0667 83.2247 19.85 82.308 19.85C81.4247 19.85 80.6163 20.0667 79.883 20.5C79.1663 20.9167 78.5913 21.5 78.158 22.25C77.7247 22.9833 77.508 23.8167 77.508 24.75ZM113.531 13.875C114.964 13.875 116.364 14.1667 117.731 14.75C119.097 15.3333 120.222 16.2583 121.106 17.525C121.989 18.775 122.431 20.425 122.431 22.475V35H114.806V23.725C114.806 22.2583 114.456 21.1583 113.756 20.425C113.056 19.675 112.139 19.3 111.006 19.3C110.256 19.3 109.547 19.5 108.881 19.9C108.231 20.2833 107.697 20.8333 107.281 21.55C106.881 22.25 106.681 23.0583 106.681 23.975V35H99.0807V14.475H106.681V17.5C106.881 16.95 107.297 16.4 107.931 15.85C108.581 15.2833 109.389 14.8167 110.356 14.45C111.339 14.0667 112.397 13.875 113.531 13.875ZM127.097 35V14.475H134.697V35H127.097ZM130.997 10.25C129.797 10.25 128.78 9.83333 127.947 9C127.114 8.15 126.697 7.14167 126.697 5.975C126.697 4.80833 127.114 3.8 127.947 2.95C128.797 2.08333 129.814 1.65 130.997 1.65C131.78 1.65 132.497 1.85 133.147 2.25C133.797 2.63333 134.322 3.15 134.722 3.8C135.122 4.45 135.322 5.175 135.322 5.975C135.322 7.14167 134.897 8.15 134.047 9C133.197 9.83333 132.18 10.25 130.997 10.25ZM154.058 13.875C155.491 13.875 156.891 14.1667 158.258 14.75C159.625 15.3333 160.75 16.2583 161.633 17.525C162.516 18.775 162.958 20.425 162.958 22.475V35H155.333V23.725C155.333 22.2583 154.983 21.1583 154.283 20.425C153.583 19.675 152.666 19.3 151.533 19.3C150.783 19.3 150.075 19.5 149.408 19.9C148.758 20.2833 148.225 20.8333 147.808 21.55C147.408 22.25 147.208 23.0583 147.208 23.975V35H139.608V14.475H147.208V17.5C147.408 16.95 147.825 16.4 148.458 15.85C149.108 15.2833 149.916 14.8167 150.883 14.45C151.866 14.0667 152.925 13.875 154.058 13.875ZM178.149 45.975C176.716 45.975 175.291 45.85 173.874 45.6C172.474 45.35 171.166 44.925 169.949 44.325C168.733 43.725 167.708 42.9 166.874 41.85L171.324 37.225C171.708 37.675 172.174 38.1167 172.724 38.55C173.291 38.9833 173.983 39.3417 174.799 39.625C175.633 39.9083 176.641 40.05 177.824 40.05C178.924 40.05 179.883 39.8583 180.699 39.475C181.516 39.0917 182.149 38.5333 182.599 37.8C183.066 37.0667 183.299 36.175 183.299 35.125V34.625H190.774V35.575C190.774 37.8417 190.208 39.75 189.074 41.3C187.958 42.85 186.449 44.0167 184.549 44.8C182.649 45.5833 180.516 45.975 178.149 45.975ZM183.299 35V31.675C183.149 32.0083 182.766 32.4917 182.149 33.125C181.549 33.7583 180.749 34.3333 179.749 34.85C178.749 35.35 177.583 35.6 176.249 35.6C174.249 35.6 172.499 35.1167 170.999 34.15C169.499 33.1667 168.333 31.8583 167.499 30.225C166.666 28.575 166.249 26.75 166.249 24.75C166.249 22.75 166.666 20.9333 167.499 19.3C168.333 17.65 169.499 16.3333 170.999 15.35C172.499 14.3667 174.249 13.875 176.249 13.875C177.533 13.875 178.658 14.0833 179.624 14.5C180.591 14.9 181.374 15.3833 181.974 15.95C182.574 16.5 182.991 17.0083 183.224 17.475V14.475H190.774V35H183.299ZM173.699 24.75C173.699 25.6833 173.916 26.525 174.349 27.275C174.783 28.0083 175.358 28.5833 176.074 29C176.808 29.4167 177.616 29.625 178.499 29.625C179.416 29.625 180.224 29.4167 180.924 29C181.624 28.5833 182.174 28.0083 182.574 27.275C182.991 26.525 183.199 25.6833 183.199 24.75C183.199 23.8167 182.991 22.9833 182.574 22.25C182.174 21.5 181.624 20.9167 180.924 20.5C180.224 20.0667 179.416 19.85 178.499 19.85C177.616 19.85 176.808 20.0667 176.074 20.5C175.358 20.9167 174.783 21.5 174.349 22.25C173.916 22.9833 173.699 23.8167 173.699 24.75Z" fill="#1E2C90"/>
</svg>
