<svg width="479" height="238" viewBox="0 0 479 238" fill="none" xmlns="http://www.w3.org/2000/svg">
<g filter="url(#filter0_d_141_5)">
<rect x="15" y="15" width="439" height="198" rx="25" fill="#3DC2EC"/>
</g>
<path d="M388 20H425C438.807 20 450 31.1929 450 45V183C450 196.807 438.807 208 425 208H388V20Z" fill="white"/>
<path d="M48.0714 46.6H55.3514C58.1647 46.6 60.4847 47.1667 62.3114 48.3C64.1514 49.42 65.5247 50.9733 66.4314 52.96C67.3381 54.9467 67.7914 57.22 67.7914 59.78C67.7914 62.3533 67.3381 64.6333 66.4314 66.62C65.5247 68.6067 64.1514 70.1667 62.3114 71.3C60.4847 72.4333 58.1647 73 55.3514 73H48.0714V46.6ZM53.0314 51.06V68.54H54.9114C56.6314 68.54 58.0447 68.1667 59.1514 67.42C60.2714 66.66 61.1047 65.62 61.6514 64.3C62.2114 62.98 62.4914 61.4867 62.4914 59.82C62.5047 58.14 62.2381 56.64 61.6914 55.32C61.1447 54 60.3047 52.96 59.1714 52.2C58.0514 51.44 56.6314 51.06 54.9114 51.06H53.0314ZM71.6261 46.6H88.0061V51.02H76.5861V57.62H87.8461V61.9H76.5861V68.58H88.0061V73H71.6261V46.6ZM92.8761 46.6H109.256V51.02H97.8361V57.62H109.096V61.9H97.8361V68.58H109.256V73H92.8761V46.6ZM114.226 46.6H123.006C124.673 46.6 126.179 46.8867 127.526 47.46C128.886 48.0333 129.966 48.9133 130.766 50.1C131.566 51.2733 131.966 52.7733 131.966 54.6C131.966 56.4133 131.566 57.94 130.766 59.18C129.966 60.42 128.886 61.36 127.526 62C126.179 62.6267 124.673 62.94 123.006 62.94H119.206V73H114.226V46.6ZM119.206 58.92H121.626C122.559 58.92 123.399 58.7867 124.146 58.52C124.906 58.24 125.513 57.7933 125.966 57.18C126.419 56.5667 126.646 55.7467 126.646 54.72C126.646 53.68 126.419 52.8667 125.966 52.28C125.513 51.68 124.906 51.2533 124.146 51C123.399 50.7333 122.559 50.6 121.626 50.6H119.206V58.92Z" fill="white"/>
<path d="M43.856 123.88C44.112 122.877 44.6027 121.8 45.328 120.648C46.0747 119.496 47.0667 118.419 48.304 117.416C49.5413 116.413 51.0453 115.592 52.816 114.952C54.608 114.312 56.6667 113.992 58.992 113.992C61.6587 113.992 64.0693 114.483 66.224 115.464C68.3787 116.445 70.0853 117.843 71.344 119.656C72.6027 121.448 73.232 123.581 73.232 126.056C73.232 127.4 72.9973 128.637 72.528 129.768C72.0587 130.899 71.4613 131.848 70.736 132.616C70.0107 133.363 69.2427 133.864 68.432 134.12C69.4133 134.269 70.4053 134.76 71.408 135.592C72.4107 136.424 73.2533 137.523 73.936 138.888C74.6187 140.232 74.96 141.821 74.96 143.656C74.96 146.408 74.256 148.851 72.848 150.984C71.44 153.096 69.52 154.76 67.088 155.976C64.6773 157.171 61.9253 157.768 58.832 157.768C55.5253 157.768 52.7307 157.192 50.448 156.04C48.1653 154.867 46.3627 153.427 45.04 151.72C43.7173 150.013 42.8427 148.381 42.416 146.824L52.624 141.8C52.8373 142.717 53.2107 143.677 53.744 144.68C54.2987 145.661 55.0027 146.493 55.856 147.176C56.7093 147.859 57.6907 148.2 58.8 148.2C59.8667 148.2 60.784 147.997 61.552 147.592C62.32 147.165 62.9173 146.589 63.344 145.864C63.7707 145.117 63.984 144.253 63.984 143.272C63.984 142.269 63.7493 141.437 63.28 140.776C62.8107 140.115 62.1813 139.613 61.392 139.272C60.624 138.931 59.76 138.76 58.8 138.76H57.968V130.952H59.056C59.8667 130.952 60.592 130.792 61.232 130.472C61.872 130.131 62.3733 129.651 62.736 129.032C63.12 128.413 63.312 127.699 63.312 126.888C63.312 125.757 62.9173 124.808 62.128 124.04C61.36 123.251 60.2827 122.856 58.896 122.856C57.9573 122.856 57.1253 123.027 56.4 123.368C55.696 123.709 55.088 124.157 54.576 124.712C54.0853 125.267 53.68 125.843 53.36 126.44C53.0613 127.037 52.8587 127.592 52.752 128.104L43.856 123.88ZM78.0255 135.912C78.0255 132.285 78.4948 129.107 79.4335 126.376C80.3722 123.624 81.6628 121.331 83.3055 119.496C84.9695 117.661 86.8575 116.285 88.9695 115.368C91.0815 114.451 93.3108 113.992 95.6575 113.992C98.0468 113.992 100.298 114.451 102.41 115.368C104.522 116.285 106.388 117.661 108.01 119.496C109.652 121.331 110.943 123.624 111.882 126.376C112.82 129.107 113.29 132.285 113.29 135.912C113.29 139.859 112.82 143.219 111.882 145.992C110.943 148.765 109.652 151.016 108.01 152.744C106.388 154.472 104.522 155.741 102.41 156.552C100.298 157.363 98.0468 157.768 95.6575 157.768C93.3108 157.768 91.0815 157.363 88.9695 156.552C86.8575 155.741 84.9695 154.472 83.3055 152.744C81.6628 151.016 80.3722 148.765 79.4335 145.992C78.4948 143.219 78.0255 139.859 78.0255 135.912ZM89.1615 135.912C89.1615 138.685 89.4068 140.968 89.8975 142.76C90.4095 144.531 91.1455 145.853 92.1055 146.728C93.0655 147.581 94.2495 148.008 95.6575 148.008C97.0868 148.008 98.2815 147.581 99.2415 146.728C100.202 145.853 100.916 144.52 101.386 142.728C101.876 140.936 102.122 138.664 102.122 135.912C102.122 133.373 101.876 131.208 101.386 129.416C100.916 127.603 100.202 126.205 99.2415 125.224C98.2815 124.243 97.0868 123.752 95.6575 123.752C94.2495 123.752 93.0655 124.243 92.1055 125.224C91.1455 126.205 90.4095 127.603 89.8975 129.416C89.4068 131.229 89.1615 133.395 89.1615 135.912ZM137.364 134.984L152.916 157H139.668L127.732 138.92V157H116.596V114.76H127.732V131.272L138.612 114.76H151.156L137.364 134.984Z" fill="white"/>
<path d="M48.101 84.16H57.125V85.42H49.433V91.432H56.933V92.68H49.433V98.74H57.125V100H48.101V84.16ZM63.8452 89.86C64.3012 89.86 64.7292 89.912 65.1292 90.016C65.5372 90.112 65.8932 90.236 66.1972 90.388C66.5012 90.532 66.7292 90.664 66.8812 90.784L66.2212 91.732C66.0532 91.572 65.7612 91.404 65.3452 91.228C64.9292 91.044 64.4612 90.952 63.9412 90.952C63.3012 90.952 62.7532 91.084 62.2972 91.348C61.8492 91.612 61.6252 91.996 61.6252 92.5C61.6252 92.988 61.8532 93.376 62.3092 93.664C62.7652 93.952 63.3652 94.188 64.1092 94.372C64.6772 94.516 65.1932 94.696 65.6572 94.912C66.1292 95.128 66.5052 95.424 66.7852 95.8C67.0652 96.168 67.2052 96.66 67.2052 97.276C67.2052 97.804 67.0972 98.26 66.8812 98.644C66.6652 99.02 66.3692 99.328 65.9932 99.568C65.6252 99.808 65.2052 99.988 64.7332 100.108C64.2612 100.228 63.7652 100.288 63.2452 100.288C62.7092 100.288 62.2132 100.228 61.7572 100.108C61.3012 99.988 60.9092 99.844 60.5812 99.676C60.2612 99.508 60.0172 99.352 59.8492 99.208L60.5332 98.14C60.7412 98.356 61.0812 98.58 61.5532 98.812C62.0332 99.036 62.5932 99.148 63.2332 99.148C63.9772 99.148 64.5892 98.976 65.0692 98.632C65.5572 98.288 65.8012 97.836 65.8012 97.276C65.8012 96.868 65.6852 96.54 65.4532 96.292C65.2212 96.044 64.9172 95.848 64.5412 95.704C64.1652 95.552 63.7652 95.424 63.3412 95.32C62.9332 95.216 62.5412 95.092 62.1652 94.948C61.7972 94.796 61.4692 94.608 61.1812 94.384C60.8932 94.16 60.6652 93.892 60.4972 93.58C60.3372 93.26 60.2572 92.888 60.2572 92.464C60.2572 91.936 60.4212 91.48 60.7492 91.096C61.0772 90.704 61.5132 90.4 62.0572 90.184C62.6092 89.968 63.2052 89.86 63.8452 89.86ZM68.8447 90.148H70.8967V86.104H72.2527V90.148H74.9407V91.384H72.2527V97.228C72.2527 97.884 72.3727 98.352 72.6127 98.632C72.8527 98.912 73.1527 99.052 73.5127 99.052C73.8567 99.052 74.1167 98.992 74.2927 98.872C74.4687 98.752 74.5727 98.672 74.6047 98.632L75.2407 99.676C75.1927 99.716 75.0847 99.788 74.9167 99.892C74.7487 99.988 74.5287 100.076 74.2567 100.156C73.9847 100.244 73.6567 100.288 73.2727 100.288C72.6087 100.288 72.0447 100.076 71.5807 99.652C71.1247 99.22 70.8967 98.532 70.8967 97.588V91.384H68.8447V90.148ZM77.5544 100V90.148H78.9104V100H77.5544ZM78.2504 86.152C77.9624 86.152 77.7144 86.052 77.5064 85.852C77.3064 85.644 77.2064 85.396 77.2064 85.108C77.2064 84.812 77.3104 84.564 77.5184 84.364C77.7264 84.156 77.9704 84.052 78.2504 84.052C78.4424 84.052 78.6184 84.1 78.7784 84.196C78.9464 84.292 79.0784 84.42 79.1744 84.58C79.2784 84.732 79.3304 84.908 79.3304 85.108C79.3304 85.396 79.2224 85.644 79.0064 85.852C78.7984 86.052 78.5464 86.152 78.2504 86.152ZM93.4507 89.86C94.1787 89.86 94.7907 90.02 95.2867 90.34C95.7827 90.66 96.1547 91.148 96.4027 91.804C96.6587 92.452 96.7867 93.28 96.7867 94.288V100H95.4307V94.648C95.4307 93.408 95.2627 92.496 94.9267 91.912C94.5907 91.328 93.9907 91.036 93.1267 91.036C92.6867 91.036 92.2507 91.16 91.8187 91.408C91.3947 91.648 91.0427 92.032 90.7627 92.56C90.4827 93.088 90.3427 93.784 90.3427 94.648V100H89.0347V94.648C89.0347 93.408 88.8187 92.496 88.3867 91.912C87.9547 91.328 87.3867 91.036 86.6827 91.036C86.2347 91.036 85.7987 91.152 85.3747 91.384C84.9587 91.616 84.6147 92 84.3427 92.536C84.0787 93.064 83.9467 93.768 83.9467 94.648V100H82.5907V90.148H83.9467V91.708C84.0267 91.46 84.2067 91.192 84.4867 90.904C84.7747 90.616 85.1427 90.372 85.5907 90.172C86.0387 89.964 86.5507 89.86 87.1267 89.86C87.7347 89.86 88.2387 89.996 88.6387 90.268C89.0387 90.54 89.3507 90.864 89.5747 91.24C89.7987 91.616 89.9387 91.96 89.9947 92.272C90.1147 91.896 90.3307 91.524 90.6427 91.156C90.9547 90.788 91.3507 90.48 91.8307 90.232C92.3107 89.984 92.8507 89.86 93.4507 89.86ZM108.053 100V97.936C107.997 98.152 107.809 98.448 107.489 98.824C107.177 99.2 106.741 99.54 106.181 99.844C105.629 100.14 104.973 100.288 104.213 100.288C103.325 100.288 102.505 100.084 101.753 99.676C101.009 99.26 100.409 98.664 99.9528 97.888C99.5048 97.104 99.2808 96.168 99.2808 95.08C99.2808 93.992 99.5048 93.06 99.9528 92.284C100.409 91.5 101.009 90.9 101.753 90.484C102.505 90.068 103.325 89.86 104.213 89.86C104.973 89.86 105.629 90.004 106.181 90.292C106.733 90.572 107.169 90.896 107.489 91.264C107.817 91.632 108.001 91.94 108.041 92.188V90.148H109.385V100H108.053ZM100.637 95.08C100.637 95.912 100.817 96.628 101.177 97.228C101.537 97.828 102.001 98.288 102.569 98.608C103.145 98.928 103.749 99.088 104.381 99.088C105.077 99.088 105.697 98.924 106.241 98.596C106.785 98.268 107.213 97.804 107.525 97.204C107.845 96.604 108.005 95.896 108.005 95.08C108.005 94.264 107.845 93.556 107.525 92.956C107.213 92.356 106.785 91.892 106.241 91.564C105.697 91.228 105.077 91.06 104.381 91.06C103.749 91.06 103.145 91.224 102.569 91.552C102.001 91.872 101.537 92.332 101.177 92.932C100.817 93.532 100.637 94.248 100.637 95.08ZM115.759 89.86C116.215 89.86 116.643 89.912 117.043 90.016C117.451 90.112 117.807 90.236 118.111 90.388C118.415 90.532 118.643 90.664 118.795 90.784L118.135 91.732C117.967 91.572 117.675 91.404 117.259 91.228C116.843 91.044 116.375 90.952 115.855 90.952C115.215 90.952 114.667 91.084 114.211 91.348C113.763 91.612 113.539 91.996 113.539 92.5C113.539 92.988 113.767 93.376 114.223 93.664C114.679 93.952 115.279 94.188 116.023 94.372C116.591 94.516 117.107 94.696 117.571 94.912C118.043 95.128 118.419 95.424 118.699 95.8C118.979 96.168 119.119 96.66 119.119 97.276C119.119 97.804 119.011 98.26 118.795 98.644C118.579 99.02 118.283 99.328 117.907 99.568C117.539 99.808 117.119 99.988 116.647 100.108C116.175 100.228 115.679 100.288 115.159 100.288C114.623 100.288 114.127 100.228 113.671 100.108C113.215 99.988 112.823 99.844 112.495 99.676C112.175 99.508 111.931 99.352 111.763 99.208L112.447 98.14C112.655 98.356 112.995 98.58 113.467 98.812C113.947 99.036 114.507 99.148 115.147 99.148C115.891 99.148 116.503 98.976 116.983 98.632C117.471 98.288 117.715 97.836 117.715 97.276C117.715 96.868 117.599 96.54 117.367 96.292C117.135 96.044 116.831 95.848 116.455 95.704C116.079 95.552 115.679 95.424 115.255 95.32C114.847 95.216 114.455 95.092 114.079 94.948C113.711 94.796 113.383 94.608 113.095 94.384C112.807 94.16 112.579 93.892 112.411 93.58C112.251 93.26 112.171 92.888 112.171 92.464C112.171 91.936 112.335 91.48 112.663 91.096C112.991 90.704 113.427 90.4 113.971 90.184C114.523 89.968 115.119 89.86 115.759 89.86ZM122.039 100V90.148H123.395V100H122.039ZM122.735 86.152C122.447 86.152 122.199 86.052 121.991 85.852C121.791 85.644 121.691 85.396 121.691 85.108C121.691 84.812 121.795 84.564 122.003 84.364C122.211 84.156 122.455 84.052 122.735 84.052C122.927 84.052 123.103 84.1 123.263 84.196C123.431 84.292 123.563 84.42 123.659 84.58C123.763 84.732 123.815 84.908 123.815 85.108C123.815 85.396 123.707 85.644 123.491 85.852C123.283 86.052 123.031 86.152 122.735 86.152ZM128.539 100.288C128.163 100.288 127.843 100.156 127.579 99.892C127.323 99.628 127.195 99.312 127.195 98.944C127.195 98.56 127.323 98.236 127.579 97.972C127.843 97.708 128.163 97.576 128.539 97.576C128.915 97.576 129.235 97.708 129.499 97.972C129.763 98.236 129.895 98.56 129.895 98.944C129.895 99.312 129.763 99.628 129.499 99.892C129.235 100.156 128.915 100.288 128.539 100.288ZM128.539 92.38C128.163 92.38 127.843 92.248 127.579 91.984C127.323 91.72 127.195 91.404 127.195 91.036C127.195 90.652 127.323 90.328 127.579 90.064C127.843 89.8 128.163 89.668 128.539 89.668C128.915 89.668 129.235 89.8 129.499 90.064C129.763 90.328 129.895 90.652 129.895 91.036C129.895 91.404 129.763 91.72 129.499 91.984C129.235 92.248 128.915 92.38 128.539 92.38ZM138.67 86.392C138.71 86.264 138.822 86.064 139.006 85.792C139.198 85.52 139.47 85.24 139.822 84.952C140.182 84.656 140.638 84.404 141.19 84.196C141.75 83.98 142.414 83.872 143.182 83.872C144.198 83.872 145.05 84.06 145.738 84.436C146.426 84.812 146.942 85.312 147.286 85.936C147.638 86.56 147.814 87.256 147.814 88.024C147.814 88.672 147.682 89.256 147.418 89.776C147.154 90.296 146.814 90.72 146.398 91.048C145.982 91.368 145.538 91.56 145.066 91.624C145.546 91.664 146.03 91.84 146.518 92.152C147.014 92.464 147.426 92.9 147.754 93.46C148.09 94.012 148.258 94.68 148.258 95.464C148.258 96.368 148.042 97.188 147.61 97.924C147.186 98.652 146.59 99.228 145.822 99.652C145.062 100.076 144.166 100.288 143.134 100.288C142.166 100.288 141.338 100.124 140.65 99.796C139.962 99.468 139.406 99.068 138.982 98.596C138.566 98.124 138.278 97.668 138.118 97.228L139.354 96.556C139.482 96.908 139.702 97.276 140.014 97.66C140.334 98.044 140.754 98.372 141.274 98.644C141.794 98.908 142.406 99.04 143.11 99.04C143.918 99.04 144.602 98.876 145.162 98.548C145.722 98.22 146.146 97.784 146.434 97.24C146.722 96.696 146.866 96.096 146.866 95.44C146.866 94.696 146.686 94.092 146.326 93.628C145.974 93.164 145.514 92.82 144.946 92.596C144.378 92.372 143.766 92.26 143.11 92.26H142.798V91.132H143.206C143.782 91.132 144.322 91.012 144.826 90.772C145.338 90.532 145.75 90.188 146.062 89.74C146.374 89.284 146.53 88.736 146.53 88.096C146.53 87.256 146.25 86.544 145.69 85.96C145.138 85.376 144.29 85.084 143.146 85.084C142.538 85.084 142.026 85.172 141.61 85.348C141.194 85.516 140.862 85.716 140.614 85.948C140.366 86.18 140.182 86.396 140.062 86.596C139.95 86.788 139.89 86.904 139.882 86.944L138.67 86.392ZM156.754 95.14V93.928H162.934V95.14H156.754ZM179.12 84.16V95.404H180.92V96.664H179.12V100H177.764V96.664H171.032V95.488L177.764 84.16H179.12ZM177.764 95.404V86.584L172.544 95.404H177.764ZM189.169 84.16H192.433C194.121 84.16 195.505 84.5 196.585 85.18C197.665 85.852 198.461 86.784 198.973 87.976C199.493 89.168 199.753 90.532 199.753 92.068C199.753 93.612 199.497 94.98 198.985 96.172C198.473 97.364 197.677 98.3 196.597 98.98C195.517 99.66 194.129 100 192.433 100H189.169V84.16ZM190.501 85.432V98.728H192.325C193.733 98.728 194.877 98.444 195.757 97.876C196.645 97.308 197.297 96.528 197.713 95.536C198.137 94.536 198.353 93.388 198.361 92.092C198.369 90.796 198.165 89.648 197.749 88.648C197.333 87.648 196.677 86.864 195.781 86.296C194.893 85.72 193.741 85.432 192.325 85.432H190.501ZM210.545 100V97.936C210.489 98.152 210.301 98.448 209.981 98.824C209.669 99.2 209.233 99.54 208.673 99.844C208.121 100.14 207.465 100.288 206.705 100.288C205.817 100.288 204.997 100.084 204.245 99.676C203.501 99.26 202.901 98.664 202.445 97.888C201.997 97.104 201.773 96.168 201.773 95.08C201.773 93.992 201.997 93.06 202.445 92.284C202.901 91.5 203.501 90.9 204.245 90.484C204.997 90.068 205.817 89.86 206.705 89.86C207.465 89.86 208.121 90.004 208.673 90.292C209.225 90.572 209.661 90.896 209.981 91.264C210.309 91.632 210.493 91.94 210.533 92.188V90.148H211.877V100H210.545ZM203.129 95.08C203.129 95.912 203.309 96.628 203.669 97.228C204.029 97.828 204.493 98.288 205.061 98.608C205.637 98.928 206.241 99.088 206.873 99.088C207.569 99.088 208.189 98.924 208.733 98.596C209.277 98.268 209.705 97.804 210.017 97.204C210.337 96.604 210.497 95.896 210.497 95.08C210.497 94.264 210.337 93.556 210.017 92.956C209.705 92.356 209.277 91.892 208.733 91.564C208.189 91.228 207.569 91.06 206.873 91.06C206.241 91.06 205.637 91.224 205.061 91.552C204.493 91.872 204.029 92.332 203.669 92.932C203.309 93.532 203.129 94.248 203.129 95.08ZM218.587 98.68L222.211 90.148H223.627L217.027 104.992H215.611L217.843 100L213.799 90.148H215.227L218.587 98.68ZM228.751 89.86C229.207 89.86 229.635 89.912 230.035 90.016C230.443 90.112 230.799 90.236 231.103 90.388C231.407 90.532 231.635 90.664 231.787 90.784L231.127 91.732C230.959 91.572 230.667 91.404 230.251 91.228C229.835 91.044 229.367 90.952 228.847 90.952C228.207 90.952 227.659 91.084 227.203 91.348C226.755 91.612 226.531 91.996 226.531 92.5C226.531 92.988 226.759 93.376 227.215 93.664C227.671 93.952 228.271 94.188 229.015 94.372C229.583 94.516 230.099 94.696 230.563 94.912C231.035 95.128 231.411 95.424 231.691 95.8C231.971 96.168 232.111 96.66 232.111 97.276C232.111 97.804 232.003 98.26 231.787 98.644C231.571 99.02 231.275 99.328 230.899 99.568C230.531 99.808 230.111 99.988 229.639 100.108C229.167 100.228 228.671 100.288 228.151 100.288C227.615 100.288 227.119 100.228 226.663 100.108C226.207 99.988 225.815 99.844 225.487 99.676C225.167 99.508 224.923 99.352 224.755 99.208L225.439 98.14C225.647 98.356 225.987 98.58 226.459 98.812C226.939 99.036 227.499 99.148 228.139 99.148C228.883 99.148 229.495 98.976 229.975 98.632C230.463 98.288 230.707 97.836 230.707 97.276C230.707 96.868 230.591 96.54 230.359 96.292C230.127 96.044 229.823 95.848 229.447 95.704C229.071 95.552 228.671 95.424 228.247 95.32C227.839 95.216 227.447 95.092 227.071 94.948C226.703 94.796 226.375 94.608 226.087 94.384C225.799 94.16 225.571 93.892 225.403 93.58C225.243 93.26 225.163 92.888 225.163 92.464C225.163 91.936 225.327 91.48 225.655 91.096C225.983 90.704 226.419 90.4 226.963 90.184C227.515 89.968 228.111 89.86 228.751 89.86Z" fill="white"/>
<line x1="411.325" y1="98.502" x2="430.05" y2="115.066" stroke="#3DC2EC" stroke-width="4"/>
<line y1="-2" x2="25" y2="-2" transform="matrix(0.748997 -0.662574 -0.662574 -0.748997 410 128.564)" stroke="#3DC2EC" stroke-width="4"/>
<defs>
<filter id="filter0_d_141_5" x="0" y="0" width="479" height="238" filterUnits="userSpaceOnUse" color-interpolation-filters="sRGB">
<feFlood flood-opacity="0" result="BackgroundImageFix"/>
<feColorMatrix in="SourceAlpha" type="matrix" values="0 0 0 0 0 0 0 0 0 0 0 0 0 0 0 0 0 0 127 0" result="hardAlpha"/>
<feOffset dx="5" dy="5"/>
<feGaussianBlur stdDeviation="10"/>
<feComposite in2="hardAlpha" operator="out"/>
<feColorMatrix type="matrix" values="0 0 0 0 0 0 0 0 0 0 0 0 0 0 0 0 0 0 0.5 0"/>
<feBlend mode="normal" in2="BackgroundImageFix" result="effect1_dropShadow_141_5"/>
<feBlend mode="normal" in="SourceGraphic" in2="effect1_dropShadow_141_5" result="shape"/>
</filter>
</defs>
</svg>
