<svg width="479" height="238" viewBox="0 0 479 238" fill="none" xmlns="http://www.w3.org/2000/svg">
<g filter="url(#filter0_d_140_22)">
<rect x="15" y="15" width="439" height="198" rx="25" fill="#FFB656"/>
</g>
<path d="M388 20H425C438.807 20 450 31.1929 450 45V183C450 196.807 438.807 208 425 208H388V20Z" fill="white"/>
<path d="M48.2258 46.6H58.3858C59.8791 46.6 61.2191 46.9133 62.4058 47.54C63.5924 48.1533 64.5324 49.0533 65.2258 50.24C65.9324 51.4133 66.2858 52.8333 66.2858 54.5C66.2858 56.1533 65.9791 57.5133 65.3658 58.58C64.7524 59.6333 64.0124 60.4267 63.1458 60.96C62.2924 61.4933 61.4991 61.8 60.7658 61.88L67.2458 73H61.6058L55.7458 62.26H53.2058V73H48.2258V46.6ZM53.2058 58.74H56.6058C57.8724 58.74 58.9458 58.4267 59.8258 57.8C60.7191 57.1733 61.1658 56.12 61.1658 54.64C61.1658 53.16 60.7258 52.12 59.8458 51.52C58.9658 50.9067 57.8991 50.6 56.6458 50.6H53.2058V58.74ZM71.3917 46.6H87.7717V51.02H76.3517V57.62H87.6117V61.9H76.3517V68.58H87.7717V73H71.3917V46.6ZM104.742 58.4H118.142V59.98C118.142 61.86 117.822 63.62 117.182 65.26C116.555 66.8867 115.655 68.32 114.482 69.56C113.308 70.7867 111.915 71.7467 110.302 72.44C108.702 73.1333 106.935 73.48 105.002 73.48C103.015 73.48 101.202 73.1267 99.5617 72.42C97.9217 71.7133 96.5084 70.7333 95.3217 69.48C94.1351 68.2267 93.2151 66.7733 92.5617 65.12C91.9217 63.4533 91.6017 61.6733 91.6017 59.78C91.6017 57.9 91.9217 56.1333 92.5617 54.48C93.2151 52.8133 94.1351 51.36 95.3217 50.12C96.5084 48.8667 97.9217 47.8867 99.5617 47.18C101.202 46.4733 103.015 46.12 105.002 46.12C106.535 46.12 107.902 46.2867 109.102 46.62C110.302 46.9533 111.348 47.4067 112.242 47.98C113.148 48.54 113.928 49.1667 114.582 49.86C115.248 50.54 115.802 51.2267 116.242 51.92L111.562 54.2C110.922 53.2667 110.068 52.4667 109.002 51.8C107.948 51.1333 106.615 50.8 105.002 50.8C103.802 50.8 102.695 51.04 101.682 51.52C100.682 51.9867 99.8151 52.6333 99.0817 53.46C98.3617 54.2867 97.8017 55.2467 97.4017 56.34C97.0017 57.42 96.8017 58.5667 96.8017 59.78C96.8017 61.0067 97.0017 62.16 97.4017 63.24C97.8017 64.32 98.3617 65.28 99.0817 66.12C99.8151 66.9467 100.682 67.5933 101.682 68.06C102.695 68.5267 103.802 68.76 105.002 68.76C106.095 68.76 107.088 68.6 107.982 68.28C108.875 67.96 109.648 67.5067 110.302 66.92C110.968 66.3333 111.495 65.6467 111.882 64.86C112.268 64.06 112.488 63.2 112.542 62.28H104.742V58.4ZM137.502 46.6H142.502V62.88C142.502 65.0533 142.069 66.9333 141.202 68.52C140.349 70.1067 139.142 71.3333 137.582 72.2C136.036 73.0533 134.209 73.48 132.102 73.48C129.982 73.48 128.136 73.0533 126.562 72.2C125.002 71.3333 123.789 70.1067 122.922 68.52C122.069 66.9333 121.642 65.0533 121.642 62.88V46.6H126.622V62.62C126.622 63.9533 126.849 65.0933 127.302 66.04C127.769 66.9733 128.416 67.6867 129.242 68.18C130.069 68.66 131.022 68.9 132.102 68.9C133.169 68.9 134.109 68.66 134.922 68.18C135.736 67.6867 136.369 66.9733 136.822 66.04C137.276 65.0933 137.502 63.9533 137.502 62.62V46.6ZM147.097 46.6H152.097V68.58H161.997V73H147.097V46.6ZM166.118 46.6H182.498V51.02H171.078V57.62H182.338V61.9H171.078V68.58H182.498V73H166.118V46.6ZM187.288 46.6H197.448C198.942 46.6 200.282 46.9133 201.468 47.54C202.655 48.1533 203.595 49.0533 204.288 50.24C204.995 51.4133 205.348 52.8333 205.348 54.5C205.348 56.1533 205.042 57.5133 204.428 58.58C203.815 59.6333 203.075 60.4267 202.208 60.96C201.355 61.4933 200.562 61.8 199.828 61.88L206.308 73H200.668L194.808 62.26H192.268V73H187.288V46.6ZM192.268 58.74H195.668C196.935 58.74 198.008 58.4267 198.888 57.8C199.782 57.1733 200.228 56.12 200.228 54.64C200.228 53.16 199.788 52.12 198.908 51.52C198.028 50.9067 196.962 50.6 195.708 50.6H192.268V58.74Z" fill="white"/>
<path d="M60.769 123.368C59.489 123.368 58.3583 123.699 57.377 124.36C56.3957 125.021 55.5637 125.789 54.881 126.664C54.2197 127.539 53.7077 128.339 53.345 129.064C52.9823 129.789 52.7797 130.216 52.737 130.344L43.265 125.96C43.3077 125.683 43.5103 125.096 43.873 124.2C44.2357 123.304 44.8117 122.28 45.601 121.128C46.4117 119.976 47.4783 118.856 48.801 117.768C50.145 116.68 51.7983 115.784 53.761 115.08C55.7237 114.355 58.0597 113.992 60.769 113.992C64.033 113.992 66.6997 114.461 68.769 115.4C70.8597 116.339 72.481 117.544 73.633 119.016C74.8063 120.467 75.6277 122.003 76.097 123.624C76.5877 125.224 76.833 126.685 76.833 128.008C76.833 129.864 76.481 131.624 75.777 133.288C75.073 134.931 74.1663 136.467 73.057 137.896C71.969 139.304 70.7957 140.584 69.537 141.736C68.2997 142.867 67.105 143.848 65.953 144.68C64.8223 145.491 63.873 146.131 63.105 146.6C62.337 147.048 61.8997 147.304 61.793 147.368H76.481V157H45.121V148.232C45.313 148.104 45.9317 147.688 46.977 146.984C48.0437 146.259 49.345 145.331 50.881 144.2C52.4383 143.069 54.0703 141.811 55.777 140.424C57.4837 139.037 59.0837 137.608 60.577 136.136C62.0703 134.643 63.2863 133.192 64.225 131.784C65.185 130.355 65.665 129.043 65.665 127.848C65.665 126.227 65.2383 125.075 64.385 124.392C63.5317 123.709 62.3263 123.368 60.769 123.368ZM90.0875 144.136C90.3008 144.797 90.5675 145.405 90.8875 145.96C91.2075 146.493 91.5915 146.952 92.0395 147.336C92.5088 147.72 93.0528 148.019 93.6715 148.232C94.2902 148.424 95.0048 148.52 95.8155 148.52C97.4795 148.52 98.7595 147.997 99.6555 146.952C100.552 145.885 101 144.52 101 142.856C101 141.235 100.562 139.955 99.6875 139.016C98.8128 138.056 97.5862 137.576 96.0075 137.576C95.0048 137.576 94.1302 137.757 93.3835 138.12C92.6582 138.461 92.0715 138.856 91.6235 139.304C91.1755 139.752 90.8662 140.157 90.6955 140.52L81.5755 137.16L85.3835 114.76H110.152V124.392H94.6955L93.6075 130.344C93.7355 130.216 94.0662 130.035 94.5995 129.8C95.1328 129.544 95.8155 129.32 96.6475 129.128C97.5008 128.915 98.4182 128.808 99.3995 128.808C101.469 128.808 103.474 129.267 105.416 130.184C107.378 131.08 109 132.52 110.28 134.504C111.56 136.467 112.2 139.027 112.2 142.184C112.221 145.384 111.528 148.157 110.12 150.504C108.712 152.829 106.802 154.621 104.392 155.88C102.002 157.139 99.2928 157.768 96.2635 157.768C93.9595 157.768 91.9222 157.501 90.1515 156.968C88.3808 156.413 86.8662 155.688 85.6075 154.792C84.3488 153.896 83.3035 152.883 82.4715 151.752C81.6395 150.6 80.9995 149.427 80.5515 148.232L90.0875 144.136ZM136.739 134.984L152.291 157H139.043L127.107 138.92V157H115.971V114.76H127.107V131.272L137.987 114.76H150.531L136.739 134.984Z" fill="white"/>
<path d="M47.4448 84.16H56.4688V85.42H48.7768V91.432H56.2768V92.68H48.7768V98.74H56.4688V100H47.4448V84.16ZM63.1889 89.86C63.6449 89.86 64.0729 89.912 64.4729 90.016C64.8809 90.112 65.2369 90.236 65.5409 90.388C65.8449 90.532 66.0729 90.664 66.2249 90.784L65.5649 91.732C65.3969 91.572 65.1049 91.404 64.6889 91.228C64.2729 91.044 63.8049 90.952 63.2849 90.952C62.6449 90.952 62.0969 91.084 61.6409 91.348C61.1929 91.612 60.9689 91.996 60.9689 92.5C60.9689 92.988 61.1969 93.376 61.6529 93.664C62.1089 93.952 62.7089 94.188 63.4529 94.372C64.0209 94.516 64.5369 94.696 65.0009 94.912C65.4729 95.128 65.8489 95.424 66.1289 95.8C66.4089 96.168 66.5489 96.66 66.5489 97.276C66.5489 97.804 66.4409 98.26 66.2249 98.644C66.0089 99.02 65.7129 99.328 65.3369 99.568C64.9689 99.808 64.5489 99.988 64.0769 100.108C63.6049 100.228 63.1089 100.288 62.5889 100.288C62.0529 100.288 61.5569 100.228 61.1009 100.108C60.6449 99.988 60.2529 99.844 59.9249 99.676C59.6049 99.508 59.3609 99.352 59.1929 99.208L59.8769 98.14C60.0849 98.356 60.4249 98.58 60.8969 98.812C61.3769 99.036 61.9369 99.148 62.5769 99.148C63.3209 99.148 63.9329 98.976 64.4129 98.632C64.9009 98.288 65.1449 97.836 65.1449 97.276C65.1449 96.868 65.0289 96.54 64.7969 96.292C64.5649 96.044 64.2609 95.848 63.8849 95.704C63.5089 95.552 63.1089 95.424 62.6849 95.32C62.2769 95.216 61.8849 95.092 61.5089 94.948C61.1409 94.796 60.8129 94.608 60.5249 94.384C60.2369 94.16 60.0089 93.892 59.8409 93.58C59.6809 93.26 59.6009 92.888 59.6009 92.464C59.6009 91.936 59.7649 91.48 60.0929 91.096C60.4209 90.704 60.8569 90.4 61.4009 90.184C61.9529 89.968 62.5489 89.86 63.1889 89.86ZM68.1884 90.148H70.2404V86.104H71.5964V90.148H74.2844V91.384H71.5964V97.228C71.5964 97.884 71.7164 98.352 71.9564 98.632C72.1964 98.912 72.4964 99.052 72.8564 99.052C73.2004 99.052 73.4604 98.992 73.6364 98.872C73.8124 98.752 73.9164 98.672 73.9484 98.632L74.5844 99.676C74.5364 99.716 74.4284 99.788 74.2604 99.892C74.0924 99.988 73.8724 100.076 73.6004 100.156C73.3284 100.244 73.0004 100.288 72.6164 100.288C71.9524 100.288 71.3884 100.076 70.9244 99.652C70.4684 99.22 70.2404 98.532 70.2404 97.588V91.384H68.1884V90.148ZM76.8982 100V90.148H78.2542V100H76.8982ZM77.5942 86.152C77.3062 86.152 77.0582 86.052 76.8502 85.852C76.6502 85.644 76.5502 85.396 76.5502 85.108C76.5502 84.812 76.6542 84.564 76.8622 84.364C77.0702 84.156 77.3142 84.052 77.5942 84.052C77.7862 84.052 77.9622 84.1 78.1222 84.196C78.2902 84.292 78.4222 84.42 78.5182 84.58C78.6222 84.732 78.6742 84.908 78.6742 85.108C78.6742 85.396 78.5662 85.644 78.3502 85.852C78.1422 86.052 77.8902 86.152 77.5942 86.152ZM92.7944 89.86C93.5224 89.86 94.1344 90.02 94.6304 90.34C95.1264 90.66 95.4984 91.148 95.7464 91.804C96.0024 92.452 96.1304 93.28 96.1304 94.288V100H94.7744V94.648C94.7744 93.408 94.6064 92.496 94.2704 91.912C93.9344 91.328 93.3344 91.036 92.4704 91.036C92.0304 91.036 91.5944 91.16 91.1624 91.408C90.7384 91.648 90.3864 92.032 90.1064 92.56C89.8264 93.088 89.6864 93.784 89.6864 94.648V100H88.3784V94.648C88.3784 93.408 88.1624 92.496 87.7304 91.912C87.2984 91.328 86.7304 91.036 86.0264 91.036C85.5784 91.036 85.1424 91.152 84.7184 91.384C84.3024 91.616 83.9584 92 83.6864 92.536C83.4224 93.064 83.2904 93.768 83.2904 94.648V100H81.9344V90.148H83.2904V91.708C83.3704 91.46 83.5504 91.192 83.8304 90.904C84.1184 90.616 84.4864 90.372 84.9344 90.172C85.3824 89.964 85.8944 89.86 86.4704 89.86C87.0784 89.86 87.5824 89.996 87.9824 90.268C88.3824 90.54 88.6944 90.864 88.9184 91.24C89.1424 91.616 89.2824 91.96 89.3384 92.272C89.4584 91.896 89.6744 91.524 89.9864 91.156C90.2984 90.788 90.6944 90.48 91.1744 90.232C91.6544 89.984 92.1944 89.86 92.7944 89.86ZM107.397 100V97.936C107.341 98.152 107.153 98.448 106.833 98.824C106.521 99.2 106.085 99.54 105.525 99.844C104.973 100.14 104.317 100.288 103.557 100.288C102.669 100.288 101.849 100.084 101.097 99.676C100.353 99.26 99.7526 98.664 99.2966 97.888C98.8486 97.104 98.6246 96.168 98.6246 95.08C98.6246 93.992 98.8486 93.06 99.2966 92.284C99.7526 91.5 100.353 90.9 101.097 90.484C101.849 90.068 102.669 89.86 103.557 89.86C104.317 89.86 104.973 90.004 105.525 90.292C106.077 90.572 106.513 90.896 106.833 91.264C107.161 91.632 107.345 91.94 107.385 92.188V90.148H108.729V100H107.397ZM99.9806 95.08C99.9806 95.912 100.161 96.628 100.521 97.228C100.881 97.828 101.345 98.288 101.913 98.608C102.489 98.928 103.093 99.088 103.725 99.088C104.421 99.088 105.041 98.924 105.585 98.596C106.129 98.268 106.557 97.804 106.869 97.204C107.189 96.604 107.349 95.896 107.349 95.08C107.349 94.264 107.189 93.556 106.869 92.956C106.557 92.356 106.129 91.892 105.585 91.564C105.041 91.228 104.421 91.06 103.725 91.06C103.093 91.06 102.489 91.224 101.913 91.552C101.345 91.872 100.881 92.332 100.521 92.932C100.161 93.532 99.9806 94.248 99.9806 95.08ZM115.103 89.86C115.559 89.86 115.987 89.912 116.387 90.016C116.795 90.112 117.151 90.236 117.455 90.388C117.759 90.532 117.987 90.664 118.139 90.784L117.479 91.732C117.311 91.572 117.019 91.404 116.603 91.228C116.187 91.044 115.719 90.952 115.199 90.952C114.559 90.952 114.011 91.084 113.555 91.348C113.107 91.612 112.883 91.996 112.883 92.5C112.883 92.988 113.111 93.376 113.567 93.664C114.023 93.952 114.623 94.188 115.367 94.372C115.935 94.516 116.451 94.696 116.915 94.912C117.387 95.128 117.763 95.424 118.043 95.8C118.323 96.168 118.463 96.66 118.463 97.276C118.463 97.804 118.355 98.26 118.139 98.644C117.923 99.02 117.627 99.328 117.251 99.568C116.883 99.808 116.463 99.988 115.991 100.108C115.519 100.228 115.023 100.288 114.503 100.288C113.967 100.288 113.471 100.228 113.015 100.108C112.559 99.988 112.167 99.844 111.839 99.676C111.519 99.508 111.275 99.352 111.107 99.208L111.791 98.14C111.999 98.356 112.339 98.58 112.811 98.812C113.291 99.036 113.851 99.148 114.491 99.148C115.235 99.148 115.847 98.976 116.327 98.632C116.815 98.288 117.059 97.836 117.059 97.276C117.059 96.868 116.943 96.54 116.711 96.292C116.479 96.044 116.175 95.848 115.799 95.704C115.423 95.552 115.023 95.424 114.599 95.32C114.191 95.216 113.799 95.092 113.423 94.948C113.055 94.796 112.727 94.608 112.439 94.384C112.151 94.16 111.923 93.892 111.755 93.58C111.595 93.26 111.515 92.888 111.515 92.464C111.515 91.936 111.679 91.48 112.007 91.096C112.335 90.704 112.771 90.4 113.315 90.184C113.867 89.968 114.463 89.86 115.103 89.86ZM121.383 100V90.148H122.739V100H121.383ZM122.079 86.152C121.791 86.152 121.543 86.052 121.335 85.852C121.135 85.644 121.035 85.396 121.035 85.108C121.035 84.812 121.139 84.564 121.347 84.364C121.555 84.156 121.799 84.052 122.079 84.052C122.271 84.052 122.447 84.1 122.607 84.196C122.775 84.292 122.907 84.42 123.003 84.58C123.107 84.732 123.159 84.908 123.159 85.108C123.159 85.396 123.051 85.644 122.835 85.852C122.627 86.052 122.375 86.152 122.079 86.152ZM127.883 100.288C127.507 100.288 127.187 100.156 126.923 99.892C126.667 99.628 126.539 99.312 126.539 98.944C126.539 98.56 126.667 98.236 126.923 97.972C127.187 97.708 127.507 97.576 127.883 97.576C128.259 97.576 128.579 97.708 128.843 97.972C129.107 98.236 129.239 98.56 129.239 98.944C129.239 99.312 129.107 99.628 128.843 99.892C128.579 100.156 128.259 100.288 127.883 100.288ZM127.883 92.38C127.507 92.38 127.187 92.248 126.923 91.984C126.667 91.72 126.539 91.404 126.539 91.036C126.539 90.652 126.667 90.328 126.923 90.064C127.187 89.8 127.507 89.668 127.883 89.668C128.259 89.668 128.579 89.8 128.843 90.064C129.107 90.328 129.239 90.652 129.239 91.036C129.239 91.404 129.107 91.72 128.843 91.984C128.579 92.248 128.259 92.38 127.883 92.38ZM143.078 85.12C142.366 85.12 141.738 85.256 141.194 85.528C140.658 85.8 140.21 86.12 139.85 86.488C139.498 86.856 139.23 87.188 139.046 87.484C138.862 87.78 138.762 87.944 138.746 87.976L137.522 87.46C137.538 87.404 137.614 87.248 137.75 86.992C137.886 86.736 138.094 86.436 138.374 86.092C138.654 85.74 139.01 85.396 139.442 85.06C139.874 84.716 140.39 84.432 140.99 84.208C141.598 83.984 142.294 83.872 143.078 83.872C143.838 83.872 144.506 83.976 145.082 84.184C145.658 84.384 146.146 84.684 146.546 85.084C146.946 85.476 147.25 85.964 147.458 86.548C147.666 87.132 147.77 87.804 147.77 88.564C147.77 89.228 147.598 89.928 147.254 90.664C146.918 91.392 146.478 92.12 145.934 92.848C145.39 93.568 144.806 94.256 144.182 94.912C143.558 95.568 142.95 96.164 142.358 96.7C141.766 97.236 141.254 97.684 140.822 98.044C140.39 98.396 140.102 98.628 139.958 98.74H147.638V100H137.774V98.848C138.078 98.6 138.494 98.26 139.022 97.828C139.558 97.388 140.15 96.88 140.798 96.304C141.454 95.728 142.106 95.112 142.754 94.456C143.402 93.8 144.002 93.132 144.554 92.452C145.106 91.764 145.546 91.088 145.874 90.424C146.21 89.76 146.378 89.14 146.378 88.564C146.378 87.284 146.09 86.392 145.514 85.888C144.946 85.376 144.134 85.12 143.078 85.12ZM156.684 95.14V93.928H162.864V95.14H156.684ZM171.693 86.392C171.733 86.264 171.845 86.064 172.029 85.792C172.221 85.52 172.493 85.24 172.845 84.952C173.205 84.656 173.661 84.404 174.213 84.196C174.773 83.98 175.437 83.872 176.205 83.872C177.221 83.872 178.073 84.06 178.761 84.436C179.449 84.812 179.965 85.312 180.309 85.936C180.661 86.56 180.837 87.256 180.837 88.024C180.837 88.672 180.705 89.256 180.441 89.776C180.177 90.296 179.837 90.72 179.421 91.048C179.005 91.368 178.561 91.56 178.089 91.624C178.569 91.664 179.053 91.84 179.541 92.152C180.037 92.464 180.449 92.9 180.777 93.46C181.113 94.012 181.281 94.68 181.281 95.464C181.281 96.368 181.065 97.188 180.633 97.924C180.209 98.652 179.613 99.228 178.845 99.652C178.085 100.076 177.189 100.288 176.157 100.288C175.189 100.288 174.361 100.124 173.673 99.796C172.985 99.468 172.429 99.068 172.005 98.596C171.589 98.124 171.301 97.668 171.141 97.228L172.377 96.556C172.505 96.908 172.725 97.276 173.037 97.66C173.357 98.044 173.777 98.372 174.297 98.644C174.817 98.908 175.429 99.04 176.133 99.04C176.941 99.04 177.625 98.876 178.185 98.548C178.745 98.22 179.169 97.784 179.457 97.24C179.745 96.696 179.889 96.096 179.889 95.44C179.889 94.696 179.709 94.092 179.349 93.628C178.997 93.164 178.537 92.82 177.969 92.596C177.401 92.372 176.789 92.26 176.133 92.26H175.821V91.132H176.229C176.805 91.132 177.345 91.012 177.849 90.772C178.361 90.532 178.773 90.188 179.085 89.74C179.397 89.284 179.553 88.736 179.553 88.096C179.553 87.256 179.273 86.544 178.713 85.96C178.161 85.376 177.313 85.084 176.169 85.084C175.561 85.084 175.049 85.172 174.633 85.348C174.217 85.516 173.885 85.716 173.637 85.948C173.389 86.18 173.205 86.396 173.085 86.596C172.973 86.788 172.913 86.904 172.905 86.944L171.693 86.392ZM189.825 84.16H193.089C194.777 84.16 196.161 84.5 197.241 85.18C198.321 85.852 199.117 86.784 199.629 87.976C200.149 89.168 200.409 90.532 200.409 92.068C200.409 93.612 200.153 94.98 199.641 96.172C199.129 97.364 198.333 98.3 197.253 98.98C196.173 99.66 194.785 100 193.089 100H189.825V84.16ZM191.157 85.432V98.728H192.981C194.389 98.728 195.533 98.444 196.413 97.876C197.301 97.308 197.953 96.528 198.369 95.536C198.793 94.536 199.009 93.388 199.017 92.092C199.025 90.796 198.821 89.648 198.405 88.648C197.989 87.648 197.333 86.864 196.437 86.296C195.549 85.72 194.397 85.432 192.981 85.432H191.157ZM211.201 100V97.936C211.145 98.152 210.957 98.448 210.637 98.824C210.325 99.2 209.889 99.54 209.329 99.844C208.777 100.14 208.121 100.288 207.361 100.288C206.473 100.288 205.653 100.084 204.901 99.676C204.157 99.26 203.557 98.664 203.101 97.888C202.653 97.104 202.429 96.168 202.429 95.08C202.429 93.992 202.653 93.06 203.101 92.284C203.557 91.5 204.157 90.9 204.901 90.484C205.653 90.068 206.473 89.86 207.361 89.86C208.121 89.86 208.777 90.004 209.329 90.292C209.881 90.572 210.317 90.896 210.637 91.264C210.965 91.632 211.149 91.94 211.189 92.188V90.148H212.533V100H211.201ZM203.785 95.08C203.785 95.912 203.965 96.628 204.325 97.228C204.685 97.828 205.149 98.288 205.717 98.608C206.293 98.928 206.897 99.088 207.529 99.088C208.225 99.088 208.845 98.924 209.389 98.596C209.933 98.268 210.361 97.804 210.673 97.204C210.993 96.604 211.153 95.896 211.153 95.08C211.153 94.264 210.993 93.556 210.673 92.956C210.361 92.356 209.933 91.892 209.389 91.564C208.845 91.228 208.225 91.06 207.529 91.06C206.897 91.06 206.293 91.224 205.717 91.552C205.149 91.872 204.685 92.332 204.325 92.932C203.965 93.532 203.785 94.248 203.785 95.08ZM219.244 98.68L222.868 90.148H224.284L217.684 104.992H216.268L218.5 100L214.456 90.148H215.884L219.244 98.68ZM229.408 89.86C229.864 89.86 230.292 89.912 230.692 90.016C231.1 90.112 231.456 90.236 231.76 90.388C232.064 90.532 232.292 90.664 232.444 90.784L231.784 91.732C231.616 91.572 231.324 91.404 230.908 91.228C230.492 91.044 230.024 90.952 229.504 90.952C228.864 90.952 228.316 91.084 227.86 91.348C227.412 91.612 227.188 91.996 227.188 92.5C227.188 92.988 227.416 93.376 227.872 93.664C228.328 93.952 228.928 94.188 229.672 94.372C230.24 94.516 230.756 94.696 231.22 94.912C231.692 95.128 232.068 95.424 232.348 95.8C232.628 96.168 232.768 96.66 232.768 97.276C232.768 97.804 232.66 98.26 232.444 98.644C232.228 99.02 231.932 99.328 231.556 99.568C231.188 99.808 230.768 99.988 230.296 100.108C229.824 100.228 229.328 100.288 228.808 100.288C228.272 100.288 227.776 100.228 227.32 100.108C226.864 99.988 226.472 99.844 226.144 99.676C225.824 99.508 225.58 99.352 225.412 99.208L226.096 98.14C226.304 98.356 226.644 98.58 227.116 98.812C227.596 99.036 228.156 99.148 228.796 99.148C229.54 99.148 230.152 98.976 230.632 98.632C231.12 98.288 231.364 97.836 231.364 97.276C231.364 96.868 231.248 96.54 231.016 96.292C230.784 96.044 230.48 95.848 230.104 95.704C229.728 95.552 229.328 95.424 228.904 95.32C228.496 95.216 228.104 95.092 227.728 94.948C227.36 94.796 227.032 94.608 226.744 94.384C226.456 94.16 226.228 93.892 226.06 93.58C225.9 93.26 225.82 92.888 225.82 92.464C225.82 91.936 225.984 91.48 226.312 91.096C226.64 90.704 227.076 90.4 227.62 90.184C228.172 89.968 228.768 89.86 229.408 89.86Z" fill="white"/>
<line x1="411.325" y1="98.502" x2="430.05" y2="115.066" stroke="#FFB656" stroke-width="4"/>
<line y1="-2" x2="25" y2="-2" transform="matrix(0.748997 -0.662574 -0.662574 -0.748997 410 128.564)" stroke="#FFB656" stroke-width="4"/>
<defs>
<filter id="filter0_d_140_22" x="0" y="0" width="479" height="238" filterUnits="userSpaceOnUse" color-interpolation-filters="sRGB">
<feFlood flood-opacity="0" result="BackgroundImageFix"/>
<feColorMatrix in="SourceAlpha" type="matrix" values="0 0 0 0 0 0 0 0 0 0 0 0 0 0 0 0 0 0 127 0" result="hardAlpha"/>
<feOffset dx="5" dy="5"/>
<feGaussianBlur stdDeviation="10"/>
<feComposite in2="hardAlpha" operator="out"/>
<feColorMatrix type="matrix" values="0 0 0 0 0 0 0 0 0 0 0 0 0 0 0 0 0 0 0.5 0"/>
<feBlend mode="normal" in2="BackgroundImageFix" result="effect1_dropShadow_140_22"/>
<feBlend mode="normal" in="SourceGraphic" in2="effect1_dropShadow_140_22" result="shape"/>
</filter>
</defs>
</svg>
