<svg width="479" height="238" viewBox="0 0 479 238" fill="none" xmlns="http://www.w3.org/2000/svg">
<g filter="url(#filter0_d_141_15)">
<rect x="15" y="15" width="439" height="198" rx="25" fill="#4B70F5"/>
</g>
<path d="M388 20H425C438.807 20 450 31.1929 450 45V183C450 196.807 438.807 208 425 208H388V20Z" fill="white"/>
<path d="M63.9086 46.6H68.9086V62.88C68.9086 65.0533 68.4753 66.9333 67.6086 68.52C66.7553 70.1067 65.5486 71.3333 63.9886 72.2C62.4419 73.0533 60.6153 73.48 58.5086 73.48C56.3886 73.48 54.5419 73.0533 52.9686 72.2C51.4086 71.3333 50.1953 70.1067 49.3286 68.52C48.4753 66.9333 48.0486 65.0533 48.0486 62.88V46.6H53.0286V62.62C53.0286 63.9533 53.2553 65.0933 53.7086 66.04C54.1753 66.9733 54.8219 67.6867 55.6486 68.18C56.4753 68.66 57.4286 68.9 58.5086 68.9C59.5753 68.9 60.5153 68.66 61.3286 68.18C62.1419 67.6867 62.7753 66.9733 63.2286 66.04C63.6819 65.0933 63.9086 63.9533 63.9086 62.62V46.6ZM78.063 51.22L78.403 51.28V73H73.423V46.6H80.303L92.143 68.28L91.803 68.36V46.6H96.783V73H89.863L78.063 51.22ZM108.326 63.5L99.3061 46.6H105.366L110.806 57.76L116.266 46.6H122.286L113.326 63.5V73H108.326V63.5ZM124.907 46.6H141.287V51.02H129.867V57.62H141.127V61.9H129.867V68.58H141.287V73H124.907V46.6ZM146.237 46.6H151.237V68.58H161.137V73H146.237V46.6ZM165.339 46.6H170.339V68.58H180.239V73H165.339V46.6ZM187.895 59.78C187.895 61.46 188.242 62.98 188.935 64.34C189.642 65.7 190.609 66.78 191.835 67.58C193.062 68.3667 194.482 68.76 196.095 68.76C197.709 68.76 199.129 68.3667 200.355 67.58C201.595 66.78 202.562 65.7 203.255 64.34C203.949 62.98 204.295 61.46 204.295 59.78C204.295 58.1 203.949 56.5867 203.255 55.24C202.562 53.88 201.595 52.8 200.355 52C199.129 51.2 197.709 50.8 196.095 50.8C194.482 50.8 193.062 51.2 191.835 52C190.609 52.8 189.642 53.88 188.935 55.24C188.242 56.5867 187.895 58.1 187.895 59.78ZM182.695 59.78C182.695 57.86 183.029 56.0733 183.695 54.42C184.375 52.7533 185.322 51.3 186.535 50.06C187.749 48.82 189.169 47.8533 190.795 47.16C192.435 46.4667 194.202 46.12 196.095 46.12C198.015 46.12 199.789 46.4667 201.415 47.16C203.042 47.8533 204.455 48.82 205.655 50.06C206.869 51.3 207.809 52.7533 208.475 54.42C209.142 56.0733 209.475 57.86 209.475 59.78C209.475 61.7133 209.149 63.5133 208.495 65.18C207.842 66.8333 206.915 68.2867 205.715 69.54C204.515 70.78 203.102 71.7467 201.475 72.44C199.849 73.1333 198.055 73.48 196.095 73.48C194.109 73.48 192.295 73.1333 190.655 72.44C189.029 71.7467 187.615 70.78 186.415 69.54C185.229 68.2867 184.309 66.8333 183.655 65.18C183.015 63.5133 182.695 61.7133 182.695 59.78ZM238.299 73H232.219L227.319 53.04H228.239L223.319 73H217.219L211.379 46.6H217.099L220.599 66.44H220.539L225.779 46.6H229.759L235.019 66.44H234.939L238.459 46.6H244.179L238.299 73ZM248.194 46.6H253.194V73H248.194V46.6ZM262.868 51.22L263.208 51.28V73H258.228V46.6H265.108L276.948 68.28L276.608 68.36V46.6H281.588V73H274.668L262.868 51.22ZM298.531 58.4H311.931V59.98C311.931 61.86 311.611 63.62 310.971 65.26C310.344 66.8867 309.444 68.32 308.271 69.56C307.097 70.7867 305.704 71.7467 304.091 72.44C302.491 73.1333 300.724 73.48 298.791 73.48C296.804 73.48 294.991 73.1267 293.351 72.42C291.711 71.7133 290.297 70.7333 289.111 69.48C287.924 68.2267 287.004 66.7733 286.351 65.12C285.711 63.4533 285.391 61.6733 285.391 59.78C285.391 57.9 285.711 56.1333 286.351 54.48C287.004 52.8133 287.924 51.36 289.111 50.12C290.297 48.8667 291.711 47.8867 293.351 47.18C294.991 46.4733 296.804 46.12 298.791 46.12C300.324 46.12 301.691 46.2867 302.891 46.62C304.091 46.9533 305.137 47.4067 306.031 47.98C306.937 48.54 307.717 49.1667 308.371 49.86C309.037 50.54 309.591 51.2267 310.031 51.92L305.351 54.2C304.711 53.2667 303.857 52.4667 302.791 51.8C301.737 51.1333 300.404 50.8 298.791 50.8C297.591 50.8 296.484 51.04 295.471 51.52C294.471 51.9867 293.604 52.6333 292.871 53.46C292.151 54.2867 291.591 55.2467 291.191 56.34C290.791 57.42 290.591 58.5667 290.591 59.78C290.591 61.0067 290.791 62.16 291.191 63.24C291.591 64.32 292.151 65.28 292.871 66.12C293.604 66.9467 294.471 67.5933 295.471 68.06C296.484 68.5267 297.591 68.76 298.791 68.76C299.884 68.76 300.877 68.6 301.771 68.28C302.664 67.96 303.437 67.5067 304.091 66.92C304.757 66.3333 305.284 65.6467 305.671 64.86C306.057 64.06 306.277 63.2 306.331 62.28H298.531V58.4Z" fill="white"/>
<path d="M52.4313 144.136C52.6446 144.797 52.9113 145.405 53.2313 145.96C53.5513 146.493 53.9353 146.952 54.3833 147.336C54.8526 147.72 55.3966 148.019 56.0153 148.232C56.6339 148.424 57.3486 148.52 58.1593 148.52C59.8233 148.52 61.1033 147.997 61.9993 146.952C62.8953 145.885 63.3433 144.52 63.3433 142.856C63.3433 141.235 62.9059 139.955 62.0312 139.016C61.1566 138.056 59.9299 137.576 58.3513 137.576C57.3486 137.576 56.4739 137.757 55.7273 138.12C55.0019 138.461 54.4153 138.856 53.9673 139.304C53.5193 139.752 53.2099 140.157 53.0393 140.52L43.9193 137.16L47.7273 114.76H72.4953V124.392H57.0393L55.9513 130.344C56.0793 130.216 56.4099 130.035 56.9433 129.8C57.4766 129.544 58.1593 129.32 58.9913 129.128C59.8446 128.915 60.7619 128.808 61.7433 128.808C63.8126 128.808 65.8179 129.267 67.7593 130.184C69.7219 131.08 71.3433 132.52 72.6233 134.504C73.9033 136.467 74.5433 139.027 74.5433 142.184C74.5646 145.384 73.8713 148.157 72.4633 150.504C71.0553 152.829 69.1459 154.621 66.7353 155.88C64.3459 157.139 61.6366 157.768 58.6073 157.768C56.3033 157.768 54.2659 157.501 52.4953 156.968C50.7246 156.413 49.2099 155.688 47.9513 154.792C46.6926 153.896 45.6473 152.883 44.8153 151.752C43.9833 150.6 43.3433 149.427 42.8953 148.232L52.4313 144.136ZM77.9943 135.912C77.9943 132.285 78.4636 129.107 79.4023 126.376C80.3409 123.624 81.6316 121.331 83.2743 119.496C84.9383 117.661 86.8263 116.285 88.9383 115.368C91.0503 114.451 93.2796 113.992 95.6263 113.992C98.0156 113.992 100.266 114.451 102.378 115.368C104.49 116.285 106.357 117.661 107.978 119.496C109.621 121.331 110.912 123.624 111.85 126.376C112.789 129.107 113.258 132.285 113.258 135.912C113.258 139.859 112.789 143.219 111.85 145.992C110.912 148.765 109.621 151.016 107.978 152.744C106.357 154.472 104.49 155.741 102.378 156.552C100.266 157.363 98.0156 157.768 95.6263 157.768C93.2796 157.768 91.0503 157.363 88.9383 156.552C86.8263 155.741 84.9383 154.472 83.2743 152.744C81.6316 151.016 80.3409 148.765 79.4023 145.992C78.4636 143.219 77.9943 139.859 77.9943 135.912ZM89.1303 135.912C89.1303 138.685 89.3756 140.968 89.8663 142.76C90.3783 144.531 91.1143 145.853 92.0743 146.728C93.0343 147.581 94.2183 148.008 95.6263 148.008C97.0556 148.008 98.2503 147.581 99.2103 146.728C100.17 145.853 100.885 144.52 101.354 142.728C101.845 140.936 102.09 138.664 102.09 135.912C102.09 133.373 101.845 131.208 101.354 129.416C100.885 127.603 100.17 126.205 99.2103 125.224C98.2503 124.243 97.0556 123.752 95.6263 123.752C94.2183 123.752 93.0343 124.243 92.0743 125.224C91.1143 126.205 90.3783 127.603 89.8663 129.416C89.3756 131.229 89.1303 133.395 89.1303 135.912ZM137.332 134.984L152.884 157H139.636L127.7 138.92V157H116.564V114.76H127.7V131.272L138.58 114.76H151.124L137.332 134.984Z" fill="white"/>
<path d="M47.9135 84.16H56.9375V85.42H49.2455V91.432H56.7455V92.68H49.2455V98.74H56.9375V100H47.9135V84.16ZM63.6577 89.86C64.1137 89.86 64.5417 89.912 64.9417 90.016C65.3497 90.112 65.7057 90.236 66.0097 90.388C66.3137 90.532 66.5417 90.664 66.6937 90.784L66.0337 91.732C65.8657 91.572 65.5737 91.404 65.1577 91.228C64.7417 91.044 64.2737 90.952 63.7537 90.952C63.1137 90.952 62.5657 91.084 62.1097 91.348C61.6617 91.612 61.4377 91.996 61.4377 92.5C61.4377 92.988 61.6657 93.376 62.1217 93.664C62.5777 93.952 63.1777 94.188 63.9217 94.372C64.4897 94.516 65.0057 94.696 65.4697 94.912C65.9417 95.128 66.3177 95.424 66.5977 95.8C66.8777 96.168 67.0177 96.66 67.0177 97.276C67.0177 97.804 66.9097 98.26 66.6937 98.644C66.4777 99.02 66.1817 99.328 65.8057 99.568C65.4377 99.808 65.0177 99.988 64.5457 100.108C64.0737 100.228 63.5777 100.288 63.0577 100.288C62.5217 100.288 62.0257 100.228 61.5697 100.108C61.1137 99.988 60.7217 99.844 60.3937 99.676C60.0737 99.508 59.8297 99.352 59.6617 99.208L60.3457 98.14C60.5537 98.356 60.8937 98.58 61.3657 98.812C61.8457 99.036 62.4057 99.148 63.0457 99.148C63.7897 99.148 64.4017 98.976 64.8817 98.632C65.3697 98.288 65.6137 97.836 65.6137 97.276C65.6137 96.868 65.4977 96.54 65.2657 96.292C65.0337 96.044 64.7297 95.848 64.3537 95.704C63.9777 95.552 63.5777 95.424 63.1537 95.32C62.7457 95.216 62.3537 95.092 61.9777 94.948C61.6097 94.796 61.2817 94.608 60.9937 94.384C60.7057 94.16 60.4777 93.892 60.3097 93.58C60.1497 93.26 60.0697 92.888 60.0697 92.464C60.0697 91.936 60.2337 91.48 60.5617 91.096C60.8897 90.704 61.3257 90.4 61.8697 90.184C62.4217 89.968 63.0177 89.86 63.6577 89.86ZM68.6572 90.148H70.7092V86.104H72.0652V90.148H74.7532V91.384H72.0652V97.228C72.0652 97.884 72.1852 98.352 72.4252 98.632C72.6652 98.912 72.9652 99.052 73.3252 99.052C73.6692 99.052 73.9292 98.992 74.1052 98.872C74.2812 98.752 74.3852 98.672 74.4172 98.632L75.0532 99.676C75.0052 99.716 74.8972 99.788 74.7292 99.892C74.5612 99.988 74.3412 100.076 74.0692 100.156C73.7972 100.244 73.4692 100.288 73.0852 100.288C72.4212 100.288 71.8572 100.076 71.3932 99.652C70.9372 99.22 70.7092 98.532 70.7092 97.588V91.384H68.6572V90.148ZM77.3669 100V90.148H78.7229V100H77.3669ZM78.0629 86.152C77.7749 86.152 77.5269 86.052 77.3189 85.852C77.1189 85.644 77.0189 85.396 77.0189 85.108C77.0189 84.812 77.1229 84.564 77.3309 84.364C77.5389 84.156 77.7829 84.052 78.0629 84.052C78.2549 84.052 78.4309 84.1 78.5909 84.196C78.7589 84.292 78.8909 84.42 78.9869 84.58C79.0909 84.732 79.1429 84.908 79.1429 85.108C79.1429 85.396 79.0349 85.644 78.8189 85.852C78.6109 86.052 78.3589 86.152 78.0629 86.152ZM93.2632 89.86C93.9912 89.86 94.6032 90.02 95.0992 90.34C95.5952 90.66 95.9672 91.148 96.2152 91.804C96.4712 92.452 96.5992 93.28 96.5992 94.288V100H95.2432V94.648C95.2432 93.408 95.0752 92.496 94.7392 91.912C94.4032 91.328 93.8032 91.036 92.9392 91.036C92.4992 91.036 92.0632 91.16 91.6312 91.408C91.2072 91.648 90.8552 92.032 90.5752 92.56C90.2952 93.088 90.1552 93.784 90.1552 94.648V100H88.8472V94.648C88.8472 93.408 88.6312 92.496 88.1992 91.912C87.7672 91.328 87.1992 91.036 86.4952 91.036C86.0472 91.036 85.6112 91.152 85.1872 91.384C84.7712 91.616 84.4272 92 84.1552 92.536C83.8912 93.064 83.7592 93.768 83.7592 94.648V100H82.4032V90.148H83.7592V91.708C83.8392 91.46 84.0192 91.192 84.2992 90.904C84.5872 90.616 84.9552 90.372 85.4032 90.172C85.8512 89.964 86.3632 89.86 86.9392 89.86C87.5472 89.86 88.0512 89.996 88.4512 90.268C88.8512 90.54 89.1632 90.864 89.3872 91.24C89.6112 91.616 89.7512 91.96 89.8072 92.272C89.9272 91.896 90.1432 91.524 90.4552 91.156C90.7672 90.788 91.1632 90.48 91.6432 90.232C92.1232 89.984 92.6632 89.86 93.2632 89.86ZM107.865 100V97.936C107.809 98.152 107.621 98.448 107.301 98.824C106.989 99.2 106.553 99.54 105.993 99.844C105.441 100.14 104.785 100.288 104.025 100.288C103.137 100.288 102.317 100.084 101.565 99.676C100.821 99.26 100.221 98.664 99.7653 97.888C99.3173 97.104 99.0933 96.168 99.0933 95.08C99.0933 93.992 99.3173 93.06 99.7653 92.284C100.221 91.5 100.821 90.9 101.565 90.484C102.317 90.068 103.137 89.86 104.025 89.86C104.785 89.86 105.441 90.004 105.993 90.292C106.545 90.572 106.981 90.896 107.301 91.264C107.629 91.632 107.813 91.94 107.853 92.188V90.148H109.197V100H107.865ZM100.449 95.08C100.449 95.912 100.629 96.628 100.989 97.228C101.349 97.828 101.813 98.288 102.381 98.608C102.957 98.928 103.561 99.088 104.193 99.088C104.889 99.088 105.509 98.924 106.053 98.596C106.597 98.268 107.025 97.804 107.337 97.204C107.657 96.604 107.817 95.896 107.817 95.08C107.817 94.264 107.657 93.556 107.337 92.956C107.025 92.356 106.597 91.892 106.053 91.564C105.509 91.228 104.889 91.06 104.193 91.06C103.561 91.06 102.957 91.224 102.381 91.552C101.813 91.872 101.349 92.332 100.989 92.932C100.629 93.532 100.449 94.248 100.449 95.08ZM115.572 89.86C116.028 89.86 116.456 89.912 116.856 90.016C117.264 90.112 117.62 90.236 117.924 90.388C118.228 90.532 118.456 90.664 118.608 90.784L117.948 91.732C117.78 91.572 117.488 91.404 117.072 91.228C116.656 91.044 116.188 90.952 115.668 90.952C115.028 90.952 114.48 91.084 114.024 91.348C113.576 91.612 113.352 91.996 113.352 92.5C113.352 92.988 113.58 93.376 114.036 93.664C114.492 93.952 115.092 94.188 115.836 94.372C116.404 94.516 116.92 94.696 117.384 94.912C117.856 95.128 118.232 95.424 118.512 95.8C118.792 96.168 118.932 96.66 118.932 97.276C118.932 97.804 118.824 98.26 118.608 98.644C118.392 99.02 118.096 99.328 117.72 99.568C117.352 99.808 116.932 99.988 116.46 100.108C115.988 100.228 115.492 100.288 114.972 100.288C114.436 100.288 113.94 100.228 113.484 100.108C113.028 99.988 112.636 99.844 112.308 99.676C111.988 99.508 111.744 99.352 111.576 99.208L112.26 98.14C112.468 98.356 112.808 98.58 113.28 98.812C113.76 99.036 114.32 99.148 114.96 99.148C115.704 99.148 116.316 98.976 116.796 98.632C117.284 98.288 117.528 97.836 117.528 97.276C117.528 96.868 117.412 96.54 117.18 96.292C116.948 96.044 116.644 95.848 116.268 95.704C115.892 95.552 115.492 95.424 115.068 95.32C114.66 95.216 114.268 95.092 113.892 94.948C113.524 94.796 113.196 94.608 112.908 94.384C112.62 94.16 112.392 93.892 112.224 93.58C112.064 93.26 111.984 92.888 111.984 92.464C111.984 91.936 112.148 91.48 112.476 91.096C112.804 90.704 113.24 90.4 113.784 90.184C114.336 89.968 114.932 89.86 115.572 89.86ZM121.851 100V90.148H123.207V100H121.851ZM122.547 86.152C122.259 86.152 122.011 86.052 121.803 85.852C121.603 85.644 121.503 85.396 121.503 85.108C121.503 84.812 121.607 84.564 121.815 84.364C122.023 84.156 122.267 84.052 122.547 84.052C122.739 84.052 122.915 84.1 123.075 84.196C123.243 84.292 123.375 84.42 123.471 84.58C123.575 84.732 123.627 84.908 123.627 85.108C123.627 85.396 123.519 85.644 123.303 85.852C123.095 86.052 122.843 86.152 122.547 86.152ZM128.352 100.288C127.976 100.288 127.656 100.156 127.392 99.892C127.136 99.628 127.008 99.312 127.008 98.944C127.008 98.56 127.136 98.236 127.392 97.972C127.656 97.708 127.976 97.576 128.352 97.576C128.728 97.576 129.048 97.708 129.312 97.972C129.576 98.236 129.708 98.56 129.708 98.944C129.708 99.312 129.576 99.628 129.312 99.892C129.048 100.156 128.728 100.288 128.352 100.288ZM128.352 92.38C127.976 92.38 127.656 92.248 127.392 91.984C127.136 91.72 127.008 91.404 127.008 91.036C127.008 90.652 127.136 90.328 127.392 90.064C127.656 89.8 127.976 89.668 128.352 89.668C128.728 89.668 129.048 89.8 129.312 90.064C129.576 90.328 129.708 90.652 129.708 91.036C129.708 91.404 129.576 91.72 129.312 91.984C129.048 92.248 128.728 92.38 128.352 92.38ZM145.838 84.16V95.404H147.638V96.664H145.838V100H144.482V96.664H137.75V95.488L144.482 84.16H145.838ZM144.482 95.404V86.584L139.262 95.404H144.482ZM155.84 95.14V93.928H162.02V95.14H155.84ZM171.966 96.94C172.006 97.052 172.098 97.224 172.242 97.456C172.386 97.68 172.594 97.916 172.866 98.164C173.146 98.404 173.498 98.612 173.922 98.788C174.346 98.964 174.858 99.052 175.458 99.052C176.666 99.052 177.614 98.664 178.302 97.888C178.998 97.112 179.338 96.08 179.322 94.792C179.306 93.6 178.99 92.688 178.374 92.056C177.758 91.416 176.95 91.096 175.95 91.096C175.326 91.096 174.778 91.212 174.306 91.444C173.842 91.668 173.462 91.944 173.166 92.272C172.878 92.6 172.674 92.912 172.554 93.208L171.294 92.812L172.614 84.16H180.042V85.42H173.826L172.962 91.252C173.002 91.172 173.146 91.024 173.394 90.808C173.642 90.592 174.002 90.388 174.474 90.196C174.946 89.996 175.53 89.896 176.226 89.896C177.034 89.896 177.774 90.076 178.446 90.436C179.118 90.796 179.658 91.336 180.066 92.056C180.474 92.776 180.678 93.676 180.678 94.756C180.686 95.828 180.49 96.78 180.09 97.612C179.698 98.444 179.114 99.1 178.338 99.58C177.562 100.052 176.614 100.288 175.494 100.288C174.686 100.288 173.994 100.18 173.418 99.964C172.85 99.748 172.378 99.484 172.002 99.172C171.626 98.86 171.338 98.56 171.138 98.272C170.938 97.976 170.81 97.756 170.754 97.612L171.966 96.94ZM189.357 84.16H192.621C194.309 84.16 195.693 84.5 196.773 85.18C197.853 85.852 198.649 86.784 199.161 87.976C199.681 89.168 199.941 90.532 199.941 92.068C199.941 93.612 199.685 94.98 199.173 96.172C198.661 97.364 197.865 98.3 196.785 98.98C195.705 99.66 194.317 100 192.621 100H189.357V84.16ZM190.689 85.432V98.728H192.513C193.921 98.728 195.065 98.444 195.945 97.876C196.833 97.308 197.485 96.528 197.901 95.536C198.325 94.536 198.541 93.388 198.549 92.092C198.557 90.796 198.353 89.648 197.937 88.648C197.521 87.648 196.865 86.864 195.969 86.296C195.081 85.72 193.929 85.432 192.513 85.432H190.689ZM210.733 100V97.936C210.677 98.152 210.489 98.448 210.169 98.824C209.857 99.2 209.421 99.54 208.861 99.844C208.309 100.14 207.653 100.288 206.893 100.288C206.005 100.288 205.185 100.084 204.433 99.676C203.689 99.26 203.089 98.664 202.633 97.888C202.185 97.104 201.961 96.168 201.961 95.08C201.961 93.992 202.185 93.06 202.633 92.284C203.089 91.5 203.689 90.9 204.433 90.484C205.185 90.068 206.005 89.86 206.893 89.86C207.653 89.86 208.309 90.004 208.861 90.292C209.413 90.572 209.849 90.896 210.169 91.264C210.497 91.632 210.681 91.94 210.721 92.188V90.148H212.065V100H210.733ZM203.317 95.08C203.317 95.912 203.497 96.628 203.857 97.228C204.217 97.828 204.681 98.288 205.249 98.608C205.825 98.928 206.429 99.088 207.061 99.088C207.757 99.088 208.377 98.924 208.921 98.596C209.465 98.268 209.893 97.804 210.205 97.204C210.525 96.604 210.685 95.896 210.685 95.08C210.685 94.264 210.525 93.556 210.205 92.956C209.893 92.356 209.465 91.892 208.921 91.564C208.377 91.228 207.757 91.06 207.061 91.06C206.429 91.06 205.825 91.224 205.249 91.552C204.681 91.872 204.217 92.332 203.857 92.932C203.497 93.532 203.317 94.248 203.317 95.08ZM218.775 98.68L222.399 90.148H223.815L217.215 104.992H215.799L218.031 100L213.987 90.148H215.415L218.775 98.68ZM228.939 89.86C229.395 89.86 229.823 89.912 230.223 90.016C230.631 90.112 230.987 90.236 231.291 90.388C231.595 90.532 231.823 90.664 231.975 90.784L231.315 91.732C231.147 91.572 230.855 91.404 230.439 91.228C230.023 91.044 229.555 90.952 229.035 90.952C228.395 90.952 227.847 91.084 227.391 91.348C226.943 91.612 226.719 91.996 226.719 92.5C226.719 92.988 226.947 93.376 227.403 93.664C227.859 93.952 228.459 94.188 229.203 94.372C229.771 94.516 230.287 94.696 230.751 94.912C231.223 95.128 231.599 95.424 231.879 95.8C232.159 96.168 232.299 96.66 232.299 97.276C232.299 97.804 232.191 98.26 231.975 98.644C231.759 99.02 231.463 99.328 231.087 99.568C230.719 99.808 230.299 99.988 229.827 100.108C229.355 100.228 228.859 100.288 228.339 100.288C227.803 100.288 227.307 100.228 226.851 100.108C226.395 99.988 226.003 99.844 225.675 99.676C225.355 99.508 225.111 99.352 224.943 99.208L225.627 98.14C225.835 98.356 226.175 98.58 226.647 98.812C227.127 99.036 227.687 99.148 228.327 99.148C229.071 99.148 229.683 98.976 230.163 98.632C230.651 98.288 230.895 97.836 230.895 97.276C230.895 96.868 230.779 96.54 230.547 96.292C230.315 96.044 230.011 95.848 229.635 95.704C229.259 95.552 228.859 95.424 228.435 95.32C228.027 95.216 227.635 95.092 227.259 94.948C226.891 94.796 226.563 94.608 226.275 94.384C225.987 94.16 225.759 93.892 225.591 93.58C225.431 93.26 225.351 92.888 225.351 92.464C225.351 91.936 225.515 91.48 225.843 91.096C226.171 90.704 226.607 90.4 227.151 90.184C227.703 89.968 228.299 89.86 228.939 89.86Z" fill="white"/>
<line x1="411.325" y1="98.502" x2="430.05" y2="115.066" stroke="#4B70F5" stroke-width="4"/>
<line y1="-2" x2="25" y2="-2" transform="matrix(0.748997 -0.662574 -0.662574 -0.748997 410 128.564)" stroke="#4B70F5" stroke-width="4"/>
<defs>
<filter id="filter0_d_141_15" x="0" y="0" width="479" height="238" filterUnits="userSpaceOnUse" color-interpolation-filters="sRGB">
<feFlood flood-opacity="0" result="BackgroundImageFix"/>
<feColorMatrix in="SourceAlpha" type="matrix" values="0 0 0 0 0 0 0 0 0 0 0 0 0 0 0 0 0 0 127 0" result="hardAlpha"/>
<feOffset dx="5" dy="5"/>
<feGaussianBlur stdDeviation="10"/>
<feComposite in2="hardAlpha" operator="out"/>
<feColorMatrix type="matrix" values="0 0 0 0 0 0 0 0 0 0 0 0 0 0 0 0 0 0 0.5 0"/>
<feBlend mode="normal" in2="BackgroundImageFix" result="effect1_dropShadow_141_15"/>
<feBlend mode="normal" in="SourceGraphic" in2="effect1_dropShadow_141_15" result="shape"/>
</filter>
</defs>
</svg>
