<svg width="479" height="238" viewBox="0 0 479 238" fill="none" xmlns="http://www.w3.org/2000/svg">
<g filter="url(#filter0_d_141_24)">
<rect x="15" y="15" width="439" height="198" rx="25" fill="#4C3BCF"/>
</g>
<path d="M388 20H425C438.807 20 450 31.1929 450 45V183C450 196.807 438.807 208 425 208H388V20Z" fill="white"/>
<path d="M73.5919 73H67.5119L62.6119 53.04H63.5319L58.6119 73H52.5119L46.6719 46.6H52.3919L55.8919 66.44H55.8319L61.0719 46.6H65.0519L70.3119 66.44H70.2319L73.7519 46.6H79.4719L73.5919 73ZM98.6872 61.96H88.2072V73H83.2472V46.6H88.2072V57.56H98.6872V46.6H103.647V73H98.6872V61.96ZM108.761 46.6H113.761V73H108.761V46.6ZM123.602 51.02H116.982V46.6H135.202V51.02H128.602V73H123.602V51.02ZM138.638 46.6H155.018V51.02H143.598V57.62H154.858V61.9H143.598V68.58H155.018V73H138.638V46.6ZM164.528 51.22L164.868 51.28V73H159.888V46.6H166.768L178.608 68.28L178.268 68.36V46.6H183.248V73H176.328L164.528 51.22ZM188.331 46.6H193.331V73H188.331V46.6ZM203.004 51.22L203.344 51.28V73H198.364V46.6H205.244L217.084 68.28L216.744 68.36V46.6H221.724V73H214.804L203.004 51.22ZM238.668 58.4H252.068V59.98C252.068 61.86 251.748 63.62 251.108 65.26C250.481 66.8867 249.581 68.32 248.408 69.56C247.234 70.7867 245.841 71.7467 244.228 72.44C242.628 73.1333 240.861 73.48 238.928 73.48C236.941 73.48 235.128 73.1267 233.488 72.42C231.848 71.7133 230.434 70.7333 229.248 69.48C228.061 68.2267 227.141 66.7733 226.488 65.12C225.848 63.4533 225.528 61.6733 225.528 59.78C225.528 57.9 225.848 56.1333 226.488 54.48C227.141 52.8133 228.061 51.36 229.248 50.12C230.434 48.8667 231.848 47.8867 233.488 47.18C235.128 46.4733 236.941 46.12 238.928 46.12C240.461 46.12 241.828 46.2867 243.028 46.62C244.228 46.9533 245.274 47.4067 246.168 47.98C247.074 48.54 247.854 49.1667 248.508 49.86C249.174 50.54 249.728 51.2267 250.168 51.92L245.488 54.2C244.848 53.2667 243.994 52.4667 242.928 51.8C241.874 51.1333 240.541 50.8 238.928 50.8C237.728 50.8 236.621 51.04 235.608 51.52C234.608 51.9867 233.741 52.6333 233.008 53.46C232.288 54.2867 231.728 55.2467 231.328 56.34C230.928 57.42 230.728 58.5667 230.728 59.78C230.728 61.0067 230.928 62.16 231.328 63.24C231.728 64.32 232.288 65.28 233.008 66.12C233.741 66.9467 234.608 67.5933 235.608 68.06C236.621 68.5267 237.728 68.76 238.928 68.76C240.021 68.76 241.014 68.6 241.908 68.28C242.801 67.96 243.574 67.5067 244.228 66.92C244.894 66.3333 245.421 65.6467 245.807 64.86C246.194 64.06 246.414 63.2 246.468 62.28H238.668V58.4Z" fill="white"/>
<path d="M44.8228 114.76H76.4068V122.12L56.5348 157H44.3108L63.4148 124.392H44.8228V114.76ZM78.3068 135.912C78.3068 132.285 78.7761 129.107 79.7148 126.376C80.6534 123.624 81.9441 121.331 83.5868 119.496C85.2508 117.661 87.1388 116.285 89.2508 115.368C91.3628 114.451 93.5921 113.992 95.9388 113.992C98.3281 113.992 100.579 114.451 102.691 115.368C104.803 116.285 106.669 117.661 108.291 119.496C109.933 121.331 111.224 123.624 112.163 126.376C113.101 129.107 113.571 132.285 113.571 135.912C113.571 139.859 113.101 143.219 112.163 145.992C111.224 148.765 109.933 151.016 108.291 152.744C106.669 154.472 104.803 155.741 102.691 156.552C100.579 157.363 98.3281 157.768 95.9388 157.768C93.5921 157.768 91.3628 157.363 89.2508 156.552C87.1388 155.741 85.2508 154.472 83.5868 152.744C81.9441 151.016 80.6534 148.765 79.7148 145.992C78.7761 143.219 78.3068 139.859 78.3068 135.912ZM89.4428 135.912C89.4428 138.685 89.6881 140.968 90.1788 142.76C90.6908 144.531 91.4268 145.853 92.3868 146.728C93.3468 147.581 94.5308 148.008 95.9388 148.008C97.3681 148.008 98.5628 147.581 99.5228 146.728C100.483 145.853 101.197 144.52 101.667 142.728C102.157 140.936 102.403 138.664 102.403 135.912C102.403 133.373 102.157 131.208 101.667 129.416C101.197 127.603 100.483 126.205 99.5228 125.224C98.5628 124.243 97.3681 123.752 95.9388 123.752C94.5308 123.752 93.3468 124.243 92.3868 125.224C91.4268 126.205 90.6908 127.603 90.1788 129.416C89.6881 131.229 89.4428 133.395 89.4428 135.912ZM137.645 134.984L153.197 157H139.949L128.013 138.92V157H116.877V114.76H128.013V131.272L138.893 114.76H151.437L137.645 134.984Z" fill="white"/>
<path d="M47.1049 84.16H56.1289V85.42H48.4369V91.432H55.9369V92.68H48.4369V98.74H56.1289V100H47.1049V84.16ZM62.8491 89.86C63.3051 89.86 63.7331 89.912 64.1331 90.016C64.5411 90.112 64.8971 90.236 65.2011 90.388C65.5051 90.532 65.7331 90.664 65.8851 90.784L65.2251 91.732C65.0571 91.572 64.7651 91.404 64.3491 91.228C63.9331 91.044 63.4651 90.952 62.9451 90.952C62.3051 90.952 61.7571 91.084 61.3011 91.348C60.8531 91.612 60.6291 91.996 60.6291 92.5C60.6291 92.988 60.8571 93.376 61.3131 93.664C61.7691 93.952 62.3691 94.188 63.1131 94.372C63.6811 94.516 64.1971 94.696 64.6611 94.912C65.1331 95.128 65.5091 95.424 65.7891 95.8C66.0691 96.168 66.2091 96.66 66.2091 97.276C66.2091 97.804 66.1011 98.26 65.8851 98.644C65.6691 99.02 65.3731 99.328 64.9971 99.568C64.6291 99.808 64.2091 99.988 63.7371 100.108C63.2651 100.228 62.7691 100.288 62.2491 100.288C61.7131 100.288 61.2171 100.228 60.7611 100.108C60.3051 99.988 59.9131 99.844 59.5851 99.676C59.2651 99.508 59.0211 99.352 58.8531 99.208L59.5371 98.14C59.7451 98.356 60.0851 98.58 60.5571 98.812C61.0371 99.036 61.5971 99.148 62.2371 99.148C62.9811 99.148 63.5931 98.976 64.0731 98.632C64.5611 98.288 64.8051 97.836 64.8051 97.276C64.8051 96.868 64.6891 96.54 64.4571 96.292C64.2251 96.044 63.9211 95.848 63.5451 95.704C63.1691 95.552 62.7691 95.424 62.3451 95.32C61.9371 95.216 61.5451 95.092 61.1691 94.948C60.8011 94.796 60.4731 94.608 60.1851 94.384C59.8971 94.16 59.6691 93.892 59.5011 93.58C59.3411 93.26 59.2611 92.888 59.2611 92.464C59.2611 91.936 59.4251 91.48 59.7531 91.096C60.0811 90.704 60.5171 90.4 61.0611 90.184C61.6131 89.968 62.2091 89.86 62.8491 89.86ZM67.8486 90.148H69.9006V86.104H71.2566V90.148H73.9446V91.384H71.2566V97.228C71.2566 97.884 71.3766 98.352 71.6166 98.632C71.8566 98.912 72.1566 99.052 72.5166 99.052C72.8606 99.052 73.1206 98.992 73.2966 98.872C73.4726 98.752 73.5766 98.672 73.6086 98.632L74.2446 99.676C74.1966 99.716 74.0886 99.788 73.9206 99.892C73.7526 99.988 73.5326 100.076 73.2606 100.156C72.9886 100.244 72.6606 100.288 72.2766 100.288C71.6126 100.288 71.0486 100.076 70.5846 99.652C70.1286 99.22 69.9006 98.532 69.9006 97.588V91.384H67.8486V90.148ZM76.5583 100V90.148H77.9143V100H76.5583ZM77.2543 86.152C76.9663 86.152 76.7183 86.052 76.5103 85.852C76.3103 85.644 76.2103 85.396 76.2103 85.108C76.2103 84.812 76.3143 84.564 76.5223 84.364C76.7303 84.156 76.9743 84.052 77.2543 84.052C77.4463 84.052 77.6223 84.1 77.7823 84.196C77.9503 84.292 78.0823 84.42 78.1783 84.58C78.2823 84.732 78.3343 84.908 78.3343 85.108C78.3343 85.396 78.2263 85.644 78.0103 85.852C77.8023 86.052 77.5503 86.152 77.2543 86.152ZM92.4546 89.86C93.1826 89.86 93.7946 90.02 94.2906 90.34C94.7866 90.66 95.1586 91.148 95.4066 91.804C95.6626 92.452 95.7906 93.28 95.7906 94.288V100H94.4346V94.648C94.4346 93.408 94.2666 92.496 93.9306 91.912C93.5946 91.328 92.9946 91.036 92.1306 91.036C91.6906 91.036 91.2546 91.16 90.8226 91.408C90.3986 91.648 90.0466 92.032 89.7666 92.56C89.4866 93.088 89.3466 93.784 89.3466 94.648V100H88.0386V94.648C88.0386 93.408 87.8226 92.496 87.3906 91.912C86.9586 91.328 86.3906 91.036 85.6866 91.036C85.2386 91.036 84.8026 91.152 84.3786 91.384C83.9626 91.616 83.6186 92 83.3466 92.536C83.0826 93.064 82.9506 93.768 82.9506 94.648V100H81.5946V90.148H82.9506V91.708C83.0306 91.46 83.2106 91.192 83.4906 90.904C83.7786 90.616 84.1466 90.372 84.5946 90.172C85.0426 89.964 85.5546 89.86 86.1306 89.86C86.7386 89.86 87.2426 89.996 87.6426 90.268C88.0426 90.54 88.3546 90.864 88.5786 91.24C88.8026 91.616 88.9426 91.96 88.9986 92.272C89.1186 91.896 89.3346 91.524 89.6466 91.156C89.9586 90.788 90.3546 90.48 90.8346 90.232C91.3146 89.984 91.8546 89.86 92.4546 89.86ZM107.057 100V97.936C107.001 98.152 106.813 98.448 106.493 98.824C106.181 99.2 105.745 99.54 105.185 99.844C104.633 100.14 103.977 100.288 103.217 100.288C102.329 100.288 101.509 100.084 100.757 99.676C100.013 99.26 99.4127 98.664 98.9567 97.888C98.5087 97.104 98.2847 96.168 98.2847 95.08C98.2847 93.992 98.5087 93.06 98.9567 92.284C99.4127 91.5 100.013 90.9 100.757 90.484C101.509 90.068 102.329 89.86 103.217 89.86C103.977 89.86 104.633 90.004 105.185 90.292C105.737 90.572 106.173 90.896 106.493 91.264C106.821 91.632 107.005 91.94 107.045 92.188V90.148H108.389V100H107.057ZM99.6407 95.08C99.6407 95.912 99.8207 96.628 100.181 97.228C100.541 97.828 101.005 98.288 101.573 98.608C102.149 98.928 102.753 99.088 103.385 99.088C104.081 99.088 104.701 98.924 105.245 98.596C105.789 98.268 106.217 97.804 106.529 97.204C106.849 96.604 107.009 95.896 107.009 95.08C107.009 94.264 106.849 93.556 106.529 92.956C106.217 92.356 105.789 91.892 105.245 91.564C104.701 91.228 104.081 91.06 103.385 91.06C102.753 91.06 102.149 91.224 101.573 91.552C101.005 91.872 100.541 92.332 100.181 92.932C99.8207 93.532 99.6407 94.248 99.6407 95.08ZM114.763 89.86C115.219 89.86 115.647 89.912 116.047 90.016C116.455 90.112 116.811 90.236 117.115 90.388C117.419 90.532 117.647 90.664 117.799 90.784L117.139 91.732C116.971 91.572 116.679 91.404 116.263 91.228C115.847 91.044 115.379 90.952 114.859 90.952C114.219 90.952 113.671 91.084 113.215 91.348C112.767 91.612 112.543 91.996 112.543 92.5C112.543 92.988 112.771 93.376 113.227 93.664C113.683 93.952 114.283 94.188 115.027 94.372C115.595 94.516 116.111 94.696 116.575 94.912C117.047 95.128 117.423 95.424 117.703 95.8C117.983 96.168 118.123 96.66 118.123 97.276C118.123 97.804 118.015 98.26 117.799 98.644C117.583 99.02 117.287 99.328 116.911 99.568C116.543 99.808 116.123 99.988 115.651 100.108C115.179 100.228 114.683 100.288 114.163 100.288C113.627 100.288 113.131 100.228 112.675 100.108C112.219 99.988 111.827 99.844 111.499 99.676C111.179 99.508 110.935 99.352 110.767 99.208L111.451 98.14C111.659 98.356 111.999 98.58 112.471 98.812C112.951 99.036 113.511 99.148 114.151 99.148C114.895 99.148 115.507 98.976 115.987 98.632C116.475 98.288 116.719 97.836 116.719 97.276C116.719 96.868 116.603 96.54 116.371 96.292C116.139 96.044 115.835 95.848 115.459 95.704C115.083 95.552 114.683 95.424 114.259 95.32C113.851 95.216 113.459 95.092 113.083 94.948C112.715 94.796 112.387 94.608 112.099 94.384C111.811 94.16 111.583 93.892 111.415 93.58C111.255 93.26 111.175 92.888 111.175 92.464C111.175 91.936 111.339 91.48 111.667 91.096C111.995 90.704 112.431 90.4 112.975 90.184C113.527 89.968 114.123 89.86 114.763 89.86ZM121.043 100V90.148H122.399V100H121.043ZM121.739 86.152C121.451 86.152 121.203 86.052 120.995 85.852C120.795 85.644 120.695 85.396 120.695 85.108C120.695 84.812 120.799 84.564 121.007 84.364C121.215 84.156 121.459 84.052 121.739 84.052C121.931 84.052 122.107 84.1 122.267 84.196C122.435 84.292 122.567 84.42 122.663 84.58C122.767 84.732 122.819 84.908 122.819 85.108C122.819 85.396 122.711 85.644 122.495 85.852C122.287 86.052 122.035 86.152 121.739 86.152ZM127.543 100.288C127.167 100.288 126.847 100.156 126.583 99.892C126.327 99.628 126.199 99.312 126.199 98.944C126.199 98.56 126.327 98.236 126.583 97.972C126.847 97.708 127.167 97.576 127.543 97.576C127.919 97.576 128.239 97.708 128.503 97.972C128.767 98.236 128.899 98.56 128.899 98.944C128.899 99.312 128.767 99.628 128.503 99.892C128.239 100.156 127.919 100.288 127.543 100.288ZM127.543 92.38C127.167 92.38 126.847 92.248 126.583 91.984C126.327 91.72 126.199 91.404 126.199 91.036C126.199 90.652 126.327 90.328 126.583 90.064C126.847 89.8 127.167 89.668 127.543 89.668C127.919 89.668 128.239 89.8 128.503 90.064C128.767 90.328 128.899 90.652 128.899 91.036C128.899 91.404 128.767 91.72 128.503 91.984C128.239 92.248 127.919 92.38 127.543 92.38ZM138.79 96.94C138.83 97.052 138.922 97.224 139.066 97.456C139.21 97.68 139.418 97.916 139.69 98.164C139.97 98.404 140.322 98.612 140.746 98.788C141.17 98.964 141.682 99.052 142.282 99.052C143.49 99.052 144.438 98.664 145.126 97.888C145.822 97.112 146.162 96.08 146.146 94.792C146.13 93.6 145.814 92.688 145.198 92.056C144.582 91.416 143.774 91.096 142.774 91.096C142.15 91.096 141.602 91.212 141.13 91.444C140.666 91.668 140.286 91.944 139.99 92.272C139.702 92.6 139.498 92.912 139.378 93.208L138.118 92.812L139.438 84.16H146.866V85.42H140.65L139.786 91.252C139.826 91.172 139.97 91.024 140.218 90.808C140.466 90.592 140.826 90.388 141.298 90.196C141.77 89.996 142.354 89.896 143.05 89.896C143.858 89.896 144.598 90.076 145.27 90.436C145.942 90.796 146.482 91.336 146.89 92.056C147.298 92.776 147.502 93.676 147.502 94.756C147.51 95.828 147.314 96.78 146.914 97.612C146.522 98.444 145.938 99.1 145.162 99.58C144.386 100.052 143.438 100.288 142.318 100.288C141.51 100.288 140.818 100.18 140.242 99.964C139.674 99.748 139.202 99.484 138.826 99.172C138.45 98.86 138.162 98.56 137.962 98.272C137.762 97.976 137.634 97.756 137.578 97.612L138.79 96.94ZM156.133 95.14V93.928H162.313V95.14H156.133ZM176.507 89.788C177.435 89.788 178.283 90.016 179.051 90.472C179.819 90.92 180.435 91.54 180.899 92.332C181.363 93.116 181.595 94.012 181.595 95.02C181.595 96.036 181.347 96.94 180.851 97.732C180.363 98.524 179.707 99.148 178.883 99.604C178.059 100.06 177.155 100.288 176.171 100.288C175.163 100.288 174.255 100.06 173.447 99.604C172.639 99.14 171.999 98.496 171.527 97.672C171.055 96.848 170.819 95.896 170.819 94.816C170.819 93.712 171.011 92.772 171.395 91.996C171.787 91.212 172.255 90.48 172.799 89.8L177.287 84.16H178.943L173.579 90.772C173.787 90.54 174.147 90.32 174.659 90.112C175.171 89.896 175.787 89.788 176.507 89.788ZM176.231 99.088C176.975 99.088 177.651 98.904 178.259 98.536C178.875 98.168 179.363 97.68 179.723 97.072C180.091 96.456 180.275 95.772 180.275 95.02C180.275 94.268 180.091 93.588 179.723 92.98C179.363 92.364 178.875 91.876 178.259 91.516C177.651 91.156 176.975 90.976 176.231 90.976C175.479 90.976 174.795 91.156 174.179 91.516C173.563 91.876 173.071 92.364 172.703 92.98C172.343 93.588 172.163 94.268 172.163 95.02C172.163 95.772 172.343 96.456 172.703 97.072C173.071 97.68 173.563 98.168 174.179 98.536C174.795 98.904 175.479 99.088 176.231 99.088ZM190.165 84.16H193.429C195.117 84.16 196.501 84.5 197.581 85.18C198.661 85.852 199.457 86.784 199.969 87.976C200.489 89.168 200.749 90.532 200.749 92.068C200.749 93.612 200.493 94.98 199.981 96.172C199.469 97.364 198.673 98.3 197.593 98.98C196.513 99.66 195.125 100 193.429 100H190.165V84.16ZM191.497 85.432V98.728H193.321C194.729 98.728 195.873 98.444 196.753 97.876C197.641 97.308 198.293 96.528 198.709 95.536C199.133 94.536 199.349 93.388 199.357 92.092C199.365 90.796 199.161 89.648 198.745 88.648C198.329 87.648 197.673 86.864 196.777 86.296C195.889 85.72 194.737 85.432 193.321 85.432H191.497ZM211.541 100V97.936C211.485 98.152 211.297 98.448 210.977 98.824C210.665 99.2 210.229 99.54 209.669 99.844C209.117 100.14 208.461 100.288 207.701 100.288C206.813 100.288 205.993 100.084 205.241 99.676C204.497 99.26 203.897 98.664 203.441 97.888C202.993 97.104 202.769 96.168 202.769 95.08C202.769 93.992 202.993 93.06 203.441 92.284C203.897 91.5 204.497 90.9 205.241 90.484C205.993 90.068 206.813 89.86 207.701 89.86C208.461 89.86 209.117 90.004 209.669 90.292C210.221 90.572 210.657 90.896 210.977 91.264C211.305 91.632 211.489 91.94 211.529 92.188V90.148H212.873V100H211.541ZM204.125 95.08C204.125 95.912 204.305 96.628 204.665 97.228C205.025 97.828 205.489 98.288 206.057 98.608C206.633 98.928 207.237 99.088 207.869 99.088C208.565 99.088 209.185 98.924 209.729 98.596C210.273 98.268 210.701 97.804 211.013 97.204C211.333 96.604 211.493 95.896 211.493 95.08C211.493 94.264 211.333 93.556 211.013 92.956C210.701 92.356 210.273 91.892 209.729 91.564C209.185 91.228 208.565 91.06 207.869 91.06C207.237 91.06 206.633 91.224 206.057 91.552C205.489 91.872 205.025 92.332 204.665 92.932C204.305 93.532 204.125 94.248 204.125 95.08ZM219.584 98.68L223.208 90.148H224.624L218.024 104.992H216.608L218.84 100L214.796 90.148H216.224L219.584 98.68ZM229.748 89.86C230.204 89.86 230.632 89.912 231.032 90.016C231.44 90.112 231.796 90.236 232.1 90.388C232.404 90.532 232.632 90.664 232.784 90.784L232.124 91.732C231.956 91.572 231.664 91.404 231.248 91.228C230.832 91.044 230.364 90.952 229.844 90.952C229.204 90.952 228.656 91.084 228.2 91.348C227.752 91.612 227.528 91.996 227.528 92.5C227.528 92.988 227.756 93.376 228.212 93.664C228.668 93.952 229.268 94.188 230.012 94.372C230.58 94.516 231.096 94.696 231.56 94.912C232.032 95.128 232.408 95.424 232.688 95.8C232.968 96.168 233.108 96.66 233.108 97.276C233.108 97.804 233 98.26 232.784 98.644C232.568 99.02 232.272 99.328 231.896 99.568C231.528 99.808 231.108 99.988 230.636 100.108C230.164 100.228 229.668 100.288 229.148 100.288C228.612 100.288 228.116 100.228 227.66 100.108C227.204 99.988 226.812 99.844 226.484 99.676C226.164 99.508 225.92 99.352 225.752 99.208L226.436 98.14C226.644 98.356 226.984 98.58 227.456 98.812C227.936 99.036 228.496 99.148 229.136 99.148C229.88 99.148 230.492 98.976 230.972 98.632C231.46 98.288 231.704 97.836 231.704 97.276C231.704 96.868 231.588 96.54 231.356 96.292C231.124 96.044 230.82 95.848 230.444 95.704C230.068 95.552 229.668 95.424 229.244 95.32C228.836 95.216 228.444 95.092 228.068 94.948C227.7 94.796 227.372 94.608 227.084 94.384C226.796 94.16 226.568 93.892 226.4 93.58C226.24 93.26 226.16 92.888 226.16 92.464C226.16 91.936 226.324 91.48 226.652 91.096C226.98 90.704 227.416 90.4 227.96 90.184C228.512 89.968 229.108 89.86 229.748 89.86Z" fill="white"/>
<line x1="411.325" y1="98.502" x2="430.05" y2="115.066" stroke="#4C3BCF" stroke-width="4"/>
<line y1="-2" x2="25" y2="-2" transform="matrix(0.748997 -0.662574 -0.662574 -0.748997 410 128.564)" stroke="#4C3BCF" stroke-width="4"/>
<defs>
<filter id="filter0_d_141_24" x="0" y="0" width="479" height="238" filterUnits="userSpaceOnUse" color-interpolation-filters="sRGB">
<feFlood flood-opacity="0" result="BackgroundImageFix"/>
<feColorMatrix in="SourceAlpha" type="matrix" values="0 0 0 0 0 0 0 0 0 0 0 0 0 0 0 0 0 0 127 0" result="hardAlpha"/>
<feOffset dx="5" dy="5"/>
<feGaussianBlur stdDeviation="10"/>
<feComposite in2="hardAlpha" operator="out"/>
<feColorMatrix type="matrix" values="0 0 0 0 0 0 0 0 0 0 0 0 0 0 0 0 0 0 0.5 0"/>
<feBlend mode="normal" in2="BackgroundImageFix" result="effect1_dropShadow_141_24"/>
<feBlend mode="normal" in="SourceGraphic" in2="effect1_dropShadow_141_24" result="shape"/>
</filter>
</defs>
</svg>
