<svg width="550" height="230" viewBox="0 0 550 230" fill="none" xmlns="http://www.w3.org/2000/svg">
<g clip-path="url(#clip0_208_329)">
<rect width="550" height="230" rx="25" fill="#402E7A"/>
<path d="M101.511 177.06H89.0748H39.6748V87.4664C39.6748 82.1097 43.9927 77.7674 49.3189 77.7674H91.8672C97.1936 77.7674 101.511 82.11 101.511 87.4664V133.54" fill="#4B70F5"/>
<path d="M62.9091 77.7674H49.3186C43.9922 77.7674 39.6746 82.11 39.6746 87.4664V177.06H53.2645V87.4664C53.2651 82.11 57.5827 77.7674 62.9091 77.7674Z" fill="#402E7A"/>
<path d="M147.696 158.172H80.5467C80.3695 157.389 80.2747 156.575 80.2747 155.738C80.2747 153.624 80.8792 151.651 81.9201 149.987L113.372 144.917H135.282L147.696 158.172Z" fill="#F4819A"/>
<path d="M135.282 158.172H80.5467H75.0249V162.93C75.0249 170.733 81.3159 177.06 89.0749 177.06H101.511H135.282H143.31" fill="#E6E6E6"/>
<path d="M88.9918 162.93V158.172H80.5467H75.0249V162.93C75.0249 170.733 81.3159 177.06 89.0749 177.06H101.511H103.042C95.2825 177.06 88.9918 170.733 88.9918 162.93Z" fill="#CCCCCC"/>
<path d="M174.277 87.3308V177.06H135.282V87.3308C135.282 82.9104 138.848 79.3236 143.244 79.3236H166.316C170.711 79.3239 174.277 82.9104 174.277 87.3308Z" fill="#4B70F5"/>
<path d="M153.705 79.3242H143.245C138.848 79.3242 135.282 82.9096 135.282 87.3321V177.06H145.743V87.3321C145.743 82.9093 149.308 79.3242 153.705 79.3242Z" fill="#402E7A"/>
<path d="M174.277 87.3308V107.683H135.282V87.3308C135.282 82.9104 138.848 79.3236 143.244 79.3236H166.316C170.711 79.3239 174.277 82.9104 174.277 87.3308Z" fill="#FDBD1D"/>
<path d="M153.705 79.3239C149.307 79.3239 145.743 82.9104 145.743 87.331V107.683H135.282V87.331C135.282 82.9106 138.848 79.3239 143.244 79.3239H153.705Z" fill="#B28106"/>
<path d="M89.2636 62.8099H51.9231V77.7675H89.2636V62.8099Z" fill="#E6E6E6"/>
<path d="M63.5359 62.8099H51.9231V77.7675H63.5359V62.8099Z" fill="#CCCCCC"/>
<path d="M79.7715 41.4874H61.4177V62.8099H79.7715V41.4874Z" fill="#E6E6E6"/>
<path d="M70.5946 41.4874H61.4177V62.8099H70.5946V41.4874Z" fill="#CCCCCC"/>
<path d="M108.141 137.669C107.127 137.669 106.181 137.949 105.366 138.429C104.635 135.208 101.771 132.802 98.3458 132.802C96.8009 132.802 95.3708 133.293 94.1982 134.126C93.4165 132.026 91.4093 130.529 89.0492 130.529C86.1582 130.529 83.7929 132.773 83.5691 135.623C83.1594 135.55 82.7381 135.51 82.3077 135.51C78.3299 135.51 75.1052 138.753 75.1052 142.753C75.1052 146.753 78.3299 149.997 82.3077 149.997C84.0327 149.997 85.6155 149.386 86.8557 148.369C87.8162 149.192 89.0593 149.691 90.4199 149.691C92.5754 149.691 94.4356 148.442 95.3389 146.628C96.2544 147.051 97.2724 147.29 98.3463 147.29C100.18 147.29 101.851 146.6 103.123 145.466C103.983 147.393 105.904 148.737 108.141 148.737C111.18 148.737 113.644 146.26 113.644 143.203C113.644 140.147 111.18 137.669 108.141 137.669Z" fill="#E6E6E6"/>
<path d="M39.675 159.177C40.986 159.177 42.0482 158.109 42.0482 156.791V87.4664C42.0482 83.4345 45.3097 80.1544 49.3188 80.1544H91.8671C95.8762 80.1544 99.1377 83.4345 99.1377 87.4664V126.082C99.1377 127.4 100.2 128.468 101.511 128.468C102.822 128.468 103.884 127.4 103.884 126.082V87.4664C103.884 80.8024 98.4931 75.3807 91.8668 75.3807H91.6362V62.8099C91.6362 61.4917 90.5741 60.4232 89.263 60.4232H82.1432V50.6431H98.3628C99.1306 50.6431 99.7545 51.271 99.7545 52.0427V53.0298C99.7545 54.348 100.817 55.4165 102.128 55.4165C103.439 55.4165 104.501 54.3477 104.501 53.0298V52.0427C104.501 48.6387 101.747 45.8694 98.3625 45.8694H82.1429V41.4874C82.1429 40.1692 81.0807 39.1007 79.7697 39.1007H61.4162C60.1052 39.1007 59.043 40.1694 59.043 41.4874V60.4229H51.9228C50.6118 60.4229 49.5496 61.4917 49.5496 62.8096V75.3802H49.3191C42.6928 75.3802 37.3015 80.8019 37.3015 87.4659V156.79C37.3015 158.109 38.364 159.177 39.675 159.177ZM63.7899 43.8744H77.3971V60.4232H63.7899V43.8744ZM54.2966 65.1969H86.8904V75.3807H54.2966V65.1969Z" fill="#4C3BCF"/>
<path d="M166.314 76.9371H143.245C137.546 76.9371 132.909 81.6004 132.909 87.3321V174.673H109.422C108.111 174.673 107.049 175.742 107.049 177.06C107.049 178.378 108.111 179.447 109.422 179.447H174.277C175.588 179.447 176.65 178.378 176.65 177.06V128.946C176.65 127.628 175.588 126.559 174.277 126.559C172.966 126.559 171.904 127.628 171.904 128.946V174.673H137.656V110.069H145.744C147.055 110.069 148.117 109.001 148.117 107.683C148.117 106.364 147.055 105.296 145.744 105.296H137.656V87.3321C137.656 84.2324 140.164 81.7108 143.245 81.7108H166.315C169.397 81.7108 171.904 84.2327 171.904 87.3321V105.296H153.655C152.344 105.296 151.282 106.365 151.282 107.683C151.282 109.001 152.344 110.069 153.655 110.069H171.904V120.354C171.904 121.672 172.966 122.74 174.277 122.74C175.588 122.74 176.651 121.671 176.651 120.354V87.3321C176.651 81.6001 172.014 76.9371 166.314 76.9371Z" fill="#4C3BCF"/>
<path d="M101.511 174.673H89.0749C82.6362 174.673 77.3981 169.405 77.3981 162.93V160.559H127.613C128.924 160.559 129.986 159.49 129.986 158.172C129.986 156.855 128.924 155.786 127.613 155.786H82.6496C82.6496 155.77 82.6482 155.754 82.6482 155.738C82.6482 154.552 82.8946 153.39 83.3669 152.321C84.5927 152.183 85.7824 151.81 86.8639 151.222C87.9599 151.781 89.1777 152.078 90.4198 152.078C92.7006 152.078 94.808 151.106 96.2782 149.451C96.9525 149.601 97.6435 149.676 98.3461 149.676C99.7967 149.676 101.214 149.346 102.499 148.723C103.957 150.229 105.983 151.123 108.141 151.123C110.991 151.123 113.494 149.592 114.876 147.304H127.613C128.924 147.304 129.986 146.236 129.986 144.918C129.986 143.599 128.924 142.531 127.613 142.531H115.987C115.646 138.477 112.259 135.282 108.141 135.282C107.673 135.282 107.206 135.325 106.747 135.409C105.106 132.377 101.936 130.416 98.3464 130.416C97.2218 130.416 96.1223 130.611 95.0858 130.989C93.6139 129.225 91.4105 128.143 89.0499 128.143C85.7745 128.143 82.9069 130.208 81.7381 133.14C76.7221 133.438 72.7324 137.636 72.7324 142.753C72.7324 146.728 75.1397 150.148 78.5644 151.617C78.1324 152.939 77.9018 154.327 77.9018 155.738C77.9018 155.754 77.9032 155.77 77.9032 155.786H75.0252C73.7142 155.786 72.652 156.855 72.652 158.173V162.931C72.652 167.52 74.5248 171.678 77.5401 174.674H42.0482V164.747C42.0482 163.429 40.986 162.36 39.675 162.36C38.3639 162.36 37.3018 163.429 37.3018 164.747V177.06C37.3018 178.379 38.3639 179.447 39.675 179.447H101.511C102.822 179.447 103.884 178.378 103.884 177.06C103.885 175.742 102.822 174.673 101.511 174.673ZM82.3078 137.896C82.5847 137.896 82.8701 137.922 83.1565 137.973C83.8145 138.09 84.4926 137.922 85.0219 137.51C85.551 137.099 85.883 136.481 85.9356 135.811C86.0631 134.188 87.4311 132.916 89.0501 132.916C90.3448 132.916 91.5209 133.739 91.9766 134.963C92.2342 135.656 92.797 136.189 93.5 136.407C94.204 136.625 94.9669 136.503 95.5676 136.076C96.3845 135.497 97.3453 135.19 98.3464 135.19C100.614 135.19 102.549 136.741 103.052 138.961C103.221 139.702 103.73 140.319 104.424 140.621C105.118 140.923 105.914 140.874 106.566 140.49C107.054 140.202 107.584 140.057 108.141 140.057C109.867 140.057 111.27 141.468 111.27 143.203C111.27 144.939 109.867 146.351 108.141 146.351C106.913 146.351 105.794 145.619 105.288 144.488C104.978 143.795 104.36 143.292 103.621 143.132C102.883 142.973 102.113 143.176 101.548 143.68C100.664 144.469 99.5269 144.903 98.3461 144.903C97.6446 144.903 96.9667 144.754 96.3311 144.46C95.167 143.921 93.7892 144.408 93.2162 145.56C92.6809 146.637 91.6089 147.306 90.4198 147.306C89.4718 147.306 88.795 146.897 88.3949 146.553C87.5224 145.806 86.2438 145.792 85.3558 146.52C84.4858 147.233 83.4318 147.61 82.3078 147.61C79.6448 147.61 77.4785 145.432 77.4785 142.754C77.4785 140.075 79.6448 137.896 82.3078 137.896Z" fill="#4C3BCF"/>
<path d="M224.443 65.54C225.83 65.54 227.063 65.3467 228.143 64.96C229.223 64.56 230.016 64.1667 230.523 63.78L232.663 68.04C232.05 68.5733 230.99 69.1133 229.483 69.66C227.99 70.2067 226.203 70.48 224.123 70.48C222.176 70.48 220.356 70.14 218.663 69.46C216.97 68.7667 215.483 67.8067 214.203 66.58C212.923 65.34 211.923 63.8933 211.203 62.24C210.483 60.5733 210.123 58.7733 210.123 56.84C210.123 54.9067 210.476 53.1067 211.183 51.44C211.903 49.76 212.903 48.3 214.183 47.06C215.463 45.82 216.95 44.8533 218.643 44.16C220.35 43.4667 222.176 43.12 224.123 43.12C226.203 43.12 227.99 43.3933 229.483 43.94C230.99 44.4867 232.05 45.0267 232.663 45.56L230.523 49.82C230.016 49.4333 229.223 49.0467 228.143 48.66C227.063 48.26 225.83 48.06 224.443 48.06C223.03 48.06 221.77 48.2867 220.663 48.74C219.57 49.1933 218.636 49.8267 217.863 50.64C217.103 51.44 216.523 52.3667 216.123 53.42C215.723 54.4733 215.523 55.5933 215.523 56.78C215.523 57.98 215.723 59.1133 216.123 60.18C216.523 61.2333 217.103 62.1667 217.863 62.98C218.636 63.78 219.57 64.4067 220.663 64.86C221.77 65.3133 223.03 65.54 224.443 65.54ZM236.589 43.6H241.589V65.58H251.489V70H236.589V43.6ZM255.61 43.6H271.99V48.02H260.57V54.62H271.83V58.9H260.57V65.58H271.99V70H255.61V43.6ZM284.419 43.6H289.439L299.599 70H294.279L292.219 64.3H281.659L279.559 70H274.219L284.419 43.6ZM283.299 59.88H290.579L286.959 49.64H286.899L283.299 59.88ZM306.657 48.22L306.997 48.28V70H302.017V43.6H308.897L320.737 65.28L320.397 65.36V43.6H325.377V70H318.457L306.657 48.22ZM330.46 43.6H335.46V70H330.46V43.6ZM345.133 48.22L345.473 48.28V70H340.493V43.6H347.373L359.213 65.28L358.873 65.36V43.6H363.853V70H356.933L345.133 48.22ZM380.796 55.4H394.196V56.98C394.196 58.86 393.876 60.62 393.236 62.26C392.61 63.8867 391.71 65.32 390.536 66.56C389.363 67.7867 387.97 68.7467 386.356 69.44C384.756 70.1333 382.99 70.48 381.056 70.48C379.07 70.48 377.256 70.1267 375.616 69.42C373.976 68.7133 372.563 67.7333 371.376 66.48C370.19 65.2267 369.27 63.7733 368.616 62.12C367.976 60.4533 367.656 58.6733 367.656 56.78C367.656 54.9 367.976 53.1333 368.616 51.48C369.27 49.8133 370.19 48.36 371.376 47.12C372.563 45.8667 373.976 44.8867 375.616 44.18C377.256 43.4733 379.07 43.12 381.056 43.12C382.59 43.12 383.956 43.2867 385.156 43.62C386.356 43.9533 387.403 44.4067 388.296 44.98C389.203 45.54 389.983 46.1667 390.636 46.86C391.303 47.54 391.856 48.2267 392.296 48.92L387.616 51.2C386.976 50.2667 386.123 49.4667 385.056 48.8C384.003 48.1333 382.67 47.8 381.056 47.8C379.856 47.8 378.75 48.04 377.736 48.52C376.736 48.9867 375.87 49.6333 375.136 50.46C374.416 51.2867 373.856 52.2467 373.456 53.34C373.056 54.42 372.856 55.5667 372.856 56.78C372.856 58.0067 373.056 59.16 373.456 60.24C373.856 61.32 374.416 62.28 375.136 63.12C375.87 63.9467 376.736 64.5933 377.736 65.06C378.75 65.5267 379.856 65.76 381.056 65.76C382.15 65.76 383.143 65.6 384.036 65.28C384.93 64.96 385.703 64.5067 386.356 63.92C387.023 63.3333 387.55 62.6467 387.936 61.86C388.323 61.06 388.543 60.2 388.596 59.28H380.796V55.4Z" fill="white"/>
<path d="M219.844 103.968C220.948 103.968 221.884 103.82 222.652 103.524C223.428 103.228 223.976 102.94 224.296 102.66L224.884 103.824C224.54 104.144 223.924 104.468 223.036 104.796C222.156 105.124 221.092 105.288 219.844 105.288C218.676 105.288 217.596 105.08 216.604 104.664C215.62 104.24 214.76 103.656 214.024 102.912C213.288 102.16 212.716 101.292 212.308 100.308C211.9 99.316 211.696 98.248 211.696 97.104C211.696 95.96 211.896 94.892 212.296 93.9C212.704 92.9 213.276 92.024 214.012 91.272C214.748 90.52 215.612 89.932 216.604 89.508C217.596 89.084 218.676 88.872 219.844 88.872C221.092 88.872 222.156 89.036 223.036 89.364C223.924 89.692 224.54 90.016 224.884 90.336L224.296 91.5C223.976 91.22 223.428 90.932 222.652 90.636C221.884 90.34 220.948 90.192 219.844 90.192C218.916 90.192 218.048 90.36 217.24 90.696C216.432 91.024 215.72 91.492 215.104 92.1C214.488 92.708 214.004 93.436 213.652 94.284C213.308 95.124 213.136 96.052 213.136 97.068C213.136 98.092 213.308 99.028 213.652 99.876C214.004 100.724 214.488 101.452 215.104 102.06C215.72 102.668 216.432 103.14 217.24 103.476C218.048 103.804 218.916 103.968 219.844 103.968ZM228.891 105H227.499V88.488H228.891V105ZM232.797 100.236C232.805 100.924 232.941 101.568 233.205 102.168C233.477 102.768 233.885 103.252 234.429 103.62C234.973 103.988 235.657 104.172 236.481 104.172C237.153 104.172 237.713 104.064 238.161 103.848C238.617 103.624 238.977 103.368 239.241 103.08C239.513 102.784 239.705 102.52 239.817 102.288L240.669 103.128C240.373 103.584 240.029 103.976 239.637 104.304C239.253 104.624 238.797 104.868 238.269 105.036C237.749 105.204 237.129 105.288 236.409 105.288C235.361 105.288 234.465 105.056 233.721 104.592C232.985 104.12 232.421 103.48 232.029 102.672C231.645 101.864 231.453 100.956 231.453 99.948C231.453 98.988 231.645 98.124 232.029 97.356C232.413 96.588 232.965 95.98 233.685 95.532C234.413 95.084 235.289 94.86 236.313 94.86C237.241 94.86 238.045 95.064 238.725 95.472C239.413 95.88 239.945 96.448 240.321 97.176C240.705 97.896 240.897 98.736 240.897 99.696C240.897 99.768 240.893 99.86 240.885 99.972C240.885 100.084 240.881 100.172 240.873 100.236H232.797ZM239.529 99.096C239.521 98.664 239.413 98.208 239.205 97.728C239.005 97.24 238.673 96.828 238.209 96.492C237.753 96.148 237.125 95.976 236.325 95.976C235.493 95.976 234.829 96.144 234.333 96.48C233.845 96.808 233.489 97.212 233.265 97.692C233.041 98.172 232.905 98.64 232.857 99.096H239.529ZM251.428 105V102.936C251.372 103.152 251.184 103.448 250.864 103.824C250.552 104.2 250.116 104.54 249.556 104.844C249.004 105.14 248.348 105.288 247.588 105.288C246.7 105.288 245.88 105.084 245.128 104.676C244.384 104.26 243.784 103.664 243.328 102.888C242.88 102.104 242.656 101.168 242.656 100.08C242.656 98.992 242.88 98.06 243.328 97.284C243.784 96.5 244.384 95.9 245.128 95.484C245.88 95.068 246.7 94.86 247.588 94.86C248.348 94.86 249.004 95.004 249.556 95.292C250.108 95.572 250.544 95.896 250.864 96.264C251.192 96.632 251.376 96.94 251.416 97.188V95.148H252.76V105H251.428ZM244.012 100.08C244.012 100.912 244.192 101.628 244.552 102.228C244.912 102.828 245.376 103.288 245.944 103.608C246.52 103.928 247.124 104.088 247.756 104.088C248.452 104.088 249.072 103.924 249.616 103.596C250.16 103.268 250.588 102.804 250.9 102.204C251.22 101.604 251.38 100.896 251.38 100.08C251.38 99.264 251.22 98.556 250.9 97.956C250.588 97.356 250.16 96.892 249.616 96.564C249.072 96.228 248.452 96.06 247.756 96.06C247.124 96.06 246.52 96.224 245.944 96.552C245.376 96.872 244.912 97.332 244.552 97.932C244.192 98.532 244.012 99.248 244.012 100.08ZM260.706 94.86C261.33 94.86 261.938 94.996 262.53 95.268C263.122 95.532 263.61 95.956 263.994 96.54C264.378 97.116 264.57 97.864 264.57 98.784V105H263.178V99.108C263.178 98.012 262.922 97.224 262.41 96.744C261.898 96.256 261.242 96.012 260.442 96.012C259.914 96.012 259.402 96.164 258.906 96.468C258.418 96.772 258.014 97.188 257.694 97.716C257.382 98.244 257.226 98.836 257.226 99.492V105H255.858V95.148H257.226V97.044C257.282 96.764 257.47 96.456 257.79 96.12C258.118 95.776 258.534 95.48 259.038 95.232C259.55 94.984 260.106 94.86 260.706 94.86ZM267.875 105V95.148H269.231V105H267.875ZM268.571 91.152C268.283 91.152 268.035 91.052 267.827 90.852C267.627 90.644 267.527 90.396 267.527 90.108C267.527 89.812 267.631 89.564 267.839 89.364C268.047 89.156 268.291 89.052 268.571 89.052C268.763 89.052 268.939 89.1 269.099 89.196C269.267 89.292 269.399 89.42 269.495 89.58C269.599 89.732 269.651 89.908 269.651 90.108C269.651 90.396 269.543 90.644 269.327 90.852C269.119 91.052 268.867 91.152 268.571 91.152ZM277.675 94.86C278.299 94.86 278.907 94.996 279.499 95.268C280.091 95.532 280.579 95.956 280.963 96.54C281.347 97.116 281.539 97.864 281.539 98.784V105H280.147V99.108C280.147 98.012 279.891 97.224 279.379 96.744C278.867 96.256 278.211 96.012 277.411 96.012C276.883 96.012 276.371 96.164 275.875 96.468C275.387 96.772 274.983 97.188 274.663 97.716C274.351 98.244 274.195 98.836 274.195 99.492V105H272.827V95.148H274.195V97.044C274.251 96.764 274.439 96.456 274.759 96.12C275.087 95.776 275.503 95.48 276.007 95.232C276.519 94.984 277.075 94.86 277.675 94.86ZM289.056 110.256C288.24 110.256 287.528 110.168 286.92 109.992C286.312 109.816 285.8 109.58 285.384 109.284C284.976 108.996 284.66 108.684 284.436 108.348L285.444 107.46C285.588 107.66 285.788 107.884 286.044 108.132C286.3 108.38 286.664 108.592 287.136 108.768C287.608 108.952 288.236 109.044 289.02 109.044C289.804 109.044 290.46 108.868 290.988 108.516C291.524 108.164 291.928 107.696 292.2 107.112C292.472 106.528 292.608 105.884 292.608 105.18V104.832H293.94V105.288C293.94 106.36 293.72 107.264 293.28 108C292.848 108.744 292.26 109.304 291.516 109.68C290.78 110.064 289.96 110.256 289.056 110.256ZM292.608 105V102.936C292.552 103.152 292.364 103.448 292.044 103.824C291.732 104.2 291.296 104.54 290.736 104.844C290.184 105.14 289.528 105.288 288.768 105.288C287.88 105.288 287.06 105.084 286.308 104.676C285.564 104.26 284.964 103.664 284.508 102.888C284.06 102.104 283.836 101.168 283.836 100.08C283.836 98.992 284.06 98.06 284.508 97.284C284.964 96.5 285.564 95.9 286.308 95.484C287.06 95.068 287.88 94.86 288.768 94.86C289.528 94.86 290.184 95.004 290.736 95.292C291.288 95.572 291.724 95.896 292.044 96.264C292.372 96.632 292.556 96.94 292.596 97.188V95.148H293.94V105H292.608ZM285.192 100.08C285.192 100.912 285.372 101.628 285.732 102.228C286.092 102.828 286.556 103.288 287.124 103.608C287.7 103.928 288.304 104.088 288.936 104.088C289.632 104.088 290.252 103.924 290.796 103.596C291.34 103.268 291.768 102.804 292.08 102.204C292.4 101.604 292.56 100.896 292.56 100.08C292.56 99.264 292.4 98.556 292.08 97.956C291.768 97.356 291.34 96.892 290.796 96.564C290.252 96.228 289.632 96.06 288.936 96.06C288.304 96.06 287.7 96.224 287.124 96.552C286.556 96.872 286.092 97.332 285.732 97.932C285.372 98.532 285.192 99.248 285.192 100.08ZM306.22 94.86C306.676 94.86 307.104 94.912 307.504 95.016C307.912 95.112 308.268 95.236 308.572 95.388C308.876 95.532 309.104 95.664 309.256 95.784L308.596 96.732C308.428 96.572 308.136 96.404 307.72 96.228C307.304 96.044 306.836 95.952 306.316 95.952C305.676 95.952 305.128 96.084 304.672 96.348C304.224 96.612 304 96.996 304 97.5C304 97.988 304.228 98.376 304.684 98.664C305.14 98.952 305.74 99.188 306.484 99.372C307.052 99.516 307.568 99.696 308.032 99.912C308.504 100.128 308.88 100.424 309.16 100.8C309.44 101.168 309.58 101.66 309.58 102.276C309.58 102.804 309.472 103.26 309.256 103.644C309.04 104.02 308.744 104.328 308.368 104.568C308 104.808 307.58 104.988 307.108 105.108C306.636 105.228 306.14 105.288 305.62 105.288C305.084 105.288 304.588 105.228 304.132 105.108C303.676 104.988 303.284 104.844 302.956 104.676C302.636 104.508 302.392 104.352 302.224 104.208L302.908 103.14C303.116 103.356 303.456 103.58 303.928 103.812C304.408 104.036 304.968 104.148 305.608 104.148C306.352 104.148 306.964 103.976 307.444 103.632C307.932 103.288 308.176 102.836 308.176 102.276C308.176 101.868 308.06 101.54 307.828 101.292C307.596 101.044 307.292 100.848 306.916 100.704C306.54 100.552 306.14 100.424 305.716 100.32C305.308 100.216 304.916 100.092 304.54 99.948C304.172 99.796 303.844 99.608 303.556 99.384C303.268 99.16 303.04 98.892 302.872 98.58C302.712 98.26 302.632 97.888 302.632 97.464C302.632 96.936 302.796 96.48 303.124 96.096C303.452 95.704 303.888 95.4 304.432 95.184C304.984 94.968 305.58 94.86 306.22 94.86ZM317.216 94.86C317.832 94.86 318.436 94.996 319.028 95.268C319.62 95.532 320.108 95.956 320.492 96.54C320.876 97.116 321.068 97.864 321.068 98.784V105H319.676V99.108C319.676 98.012 319.42 97.224 318.908 96.744C318.404 96.256 317.756 96.012 316.964 96.012C316.428 96.012 315.912 96.164 315.416 96.468C314.928 96.772 314.524 97.188 314.204 97.716C313.884 98.244 313.724 98.836 313.724 99.492V105H312.332V88.488H313.724V97.044C313.78 96.764 313.968 96.456 314.288 96.12C314.616 95.776 315.032 95.48 315.536 95.232C316.048 94.984 316.608 94.86 317.216 94.86ZM328.544 105.288C327.56 105.288 326.684 105.06 325.916 104.604C325.156 104.14 324.556 103.516 324.116 102.732C323.684 101.948 323.468 101.072 323.468 100.104C323.468 99.136 323.684 98.256 324.116 97.464C324.556 96.664 325.156 96.032 325.916 95.568C326.684 95.096 327.56 94.86 328.544 94.86C329.528 94.86 330.396 95.096 331.148 95.568C331.908 96.032 332.504 96.664 332.936 97.464C333.368 98.256 333.584 99.136 333.584 100.104C333.584 101.072 333.368 101.948 332.936 102.732C332.504 103.516 331.908 104.14 331.148 104.604C330.396 105.06 329.528 105.288 328.544 105.288ZM328.544 104.052C329.288 104.052 329.936 103.88 330.488 103.536C331.048 103.192 331.48 102.72 331.784 102.12C332.096 101.52 332.252 100.848 332.252 100.104C332.252 99.352 332.096 98.676 331.784 98.076C331.48 97.468 331.048 96.988 330.488 96.636C329.936 96.276 329.288 96.096 328.544 96.096C327.792 96.096 327.136 96.276 326.576 96.636C326.016 96.988 325.58 97.468 325.268 98.076C324.956 98.676 324.8 99.352 324.8 100.104C324.8 100.848 324.956 101.52 325.268 102.12C325.58 102.72 326.016 103.192 326.576 103.536C327.136 103.88 327.792 104.052 328.544 104.052ZM336.672 100.236C336.68 100.924 336.816 101.568 337.08 102.168C337.352 102.768 337.76 103.252 338.304 103.62C338.848 103.988 339.532 104.172 340.356 104.172C341.028 104.172 341.588 104.064 342.036 103.848C342.492 103.624 342.852 103.368 343.116 103.08C343.388 102.784 343.58 102.52 343.692 102.288L344.544 103.128C344.248 103.584 343.904 103.976 343.512 104.304C343.128 104.624 342.672 104.868 342.144 105.036C341.624 105.204 341.004 105.288 340.284 105.288C339.236 105.288 338.34 105.056 337.596 104.592C336.86 104.12 336.296 103.48 335.904 102.672C335.52 101.864 335.328 100.956 335.328 99.948C335.328 98.988 335.52 98.124 335.904 97.356C336.288 96.588 336.84 95.98 337.56 95.532C338.288 95.084 339.164 94.86 340.188 94.86C341.116 94.86 341.92 95.064 342.6 95.472C343.288 95.88 343.82 96.448 344.196 97.176C344.58 97.896 344.772 98.736 344.772 99.696C344.772 99.768 344.768 99.86 344.76 99.972C344.76 100.084 344.756 100.172 344.748 100.236H336.672ZM343.404 99.096C343.396 98.664 343.288 98.208 343.08 97.728C342.88 97.24 342.548 96.828 342.084 96.492C341.628 96.148 341 95.976 340.2 95.976C339.368 95.976 338.704 96.144 338.208 96.48C337.72 96.808 337.364 97.212 337.14 97.692C336.916 98.172 336.78 98.64 336.732 99.096H343.404ZM350.611 94.86C351.067 94.86 351.495 94.912 351.895 95.016C352.303 95.112 352.659 95.236 352.963 95.388C353.267 95.532 353.495 95.664 353.647 95.784L352.987 96.732C352.819 96.572 352.527 96.404 352.111 96.228C351.695 96.044 351.227 95.952 350.707 95.952C350.067 95.952 349.519 96.084 349.063 96.348C348.615 96.612 348.391 96.996 348.391 97.5C348.391 97.988 348.619 98.376 349.075 98.664C349.531 98.952 350.131 99.188 350.875 99.372C351.443 99.516 351.959 99.696 352.423 99.912C352.895 100.128 353.271 100.424 353.551 100.8C353.831 101.168 353.971 101.66 353.971 102.276C353.971 102.804 353.863 103.26 353.647 103.644C353.431 104.02 353.135 104.328 352.759 104.568C352.391 104.808 351.971 104.988 351.499 105.108C351.027 105.228 350.531 105.288 350.011 105.288C349.475 105.288 348.979 105.228 348.523 105.108C348.067 104.988 347.675 104.844 347.347 104.676C347.027 104.508 346.783 104.352 346.615 104.208L347.299 103.14C347.507 103.356 347.847 103.58 348.319 103.812C348.799 104.036 349.359 104.148 349.999 104.148C350.743 104.148 351.355 103.976 351.835 103.632C352.323 103.288 352.567 102.836 352.567 102.276C352.567 101.868 352.451 101.54 352.219 101.292C351.987 101.044 351.683 100.848 351.307 100.704C350.931 100.552 350.531 100.424 350.107 100.32C349.699 100.216 349.307 100.092 348.931 99.948C348.563 99.796 348.235 99.608 347.947 99.384C347.659 99.16 347.431 98.892 347.263 98.58C347.103 98.26 347.023 97.888 347.023 97.464C347.023 96.936 347.187 96.48 347.515 96.096C347.843 95.704 348.279 95.4 348.823 95.184C349.375 94.968 349.971 94.86 350.611 94.86ZM368.403 96.852L365.811 105H364.203L361.791 95.148H363.255L365.127 103.476L367.695 95.34H369.111L371.667 103.476L373.563 95.148H375.027L372.627 105H371.019L368.403 96.852ZM377.867 105V95.148H379.223V105H377.867ZM378.563 91.152C378.275 91.152 378.027 91.052 377.819 90.852C377.619 90.644 377.519 90.396 377.519 90.108C377.519 89.812 377.623 89.564 377.831 89.364C378.039 89.156 378.283 89.052 378.563 89.052C378.755 89.052 378.931 89.1 379.091 89.196C379.259 89.292 379.391 89.42 379.487 89.58C379.591 89.732 379.643 89.908 379.643 90.108C379.643 90.396 379.535 90.644 379.319 90.852C379.111 91.052 378.859 91.152 378.563 91.152ZM381.907 95.148H383.959V91.104H385.315V95.148H388.003V96.384H385.315V102.228C385.315 102.884 385.435 103.352 385.675 103.632C385.915 103.912 386.215 104.052 386.575 104.052C386.919 104.052 387.179 103.992 387.355 103.872C387.531 103.752 387.635 103.672 387.667 103.632L388.303 104.676C388.255 104.716 388.147 104.788 387.979 104.892C387.811 104.988 387.591 105.076 387.319 105.156C387.047 105.244 386.719 105.288 386.335 105.288C385.671 105.288 385.107 105.076 384.643 104.652C384.187 104.22 383.959 103.532 383.959 102.588V96.384H381.907V95.148ZM395.333 94.86C395.949 94.86 396.553 94.996 397.145 95.268C397.737 95.532 398.225 95.956 398.609 96.54C398.993 97.116 399.185 97.864 399.185 98.784V105H397.793V99.108C397.793 98.012 397.537 97.224 397.025 96.744C396.521 96.256 395.873 96.012 395.081 96.012C394.545 96.012 394.029 96.164 393.533 96.468C393.045 96.772 392.641 97.188 392.321 97.716C392.001 98.244 391.841 98.836 391.841 99.492V105H390.449V88.488H391.841V97.044C391.897 96.764 392.085 96.456 392.405 96.12C392.733 95.776 393.149 95.48 393.653 95.232C394.165 94.984 394.725 94.86 395.333 94.86ZM411.478 94.86C411.934 94.86 412.362 94.912 412.762 95.016C413.17 95.112 413.526 95.236 413.83 95.388C414.134 95.532 414.362 95.664 414.514 95.784L413.854 96.732C413.686 96.572 413.394 96.404 412.978 96.228C412.562 96.044 412.094 95.952 411.574 95.952C410.934 95.952 410.386 96.084 409.93 96.348C409.482 96.612 409.258 96.996 409.258 97.5C409.258 97.988 409.486 98.376 409.942 98.664C410.398 98.952 410.998 99.188 411.742 99.372C412.31 99.516 412.826 99.696 413.29 99.912C413.762 100.128 414.138 100.424 414.418 100.8C414.698 101.168 414.838 101.66 414.838 102.276C414.838 102.804 414.73 103.26 414.514 103.644C414.298 104.02 414.002 104.328 413.626 104.568C413.258 104.808 412.838 104.988 412.366 105.108C411.894 105.228 411.398 105.288 410.878 105.288C410.342 105.288 409.846 105.228 409.39 105.108C408.934 104.988 408.542 104.844 408.214 104.676C407.894 104.508 407.65 104.352 407.482 104.208L408.166 103.14C408.374 103.356 408.714 103.58 409.186 103.812C409.666 104.036 410.226 104.148 410.866 104.148C411.61 104.148 412.222 103.976 412.702 103.632C413.19 103.288 413.434 102.836 413.434 102.276C413.434 101.868 413.318 101.54 413.086 101.292C412.854 101.044 412.55 100.848 412.174 100.704C411.798 100.552 411.398 100.424 410.974 100.32C410.566 100.216 410.174 100.092 409.798 99.948C409.43 99.796 409.102 99.608 408.814 99.384C408.526 99.16 408.298 98.892 408.13 98.58C407.97 98.26 407.89 97.888 407.89 97.464C407.89 96.936 408.054 96.48 408.382 96.096C408.71 95.704 409.146 95.4 409.69 95.184C410.242 94.968 410.838 94.86 411.478 94.86ZM418.094 100.236C418.102 100.924 418.238 101.568 418.502 102.168C418.774 102.768 419.182 103.252 419.726 103.62C420.27 103.988 420.954 104.172 421.778 104.172C422.45 104.172 423.01 104.064 423.458 103.848C423.914 103.624 424.274 103.368 424.538 103.08C424.81 102.784 425.002 102.52 425.114 102.288L425.966 103.128C425.67 103.584 425.326 103.976 424.934 104.304C424.55 104.624 424.094 104.868 423.566 105.036C423.046 105.204 422.426 105.288 421.706 105.288C420.658 105.288 419.762 105.056 419.018 104.592C418.282 104.12 417.718 103.48 417.326 102.672C416.942 101.864 416.75 100.956 416.75 99.948C416.75 98.988 416.942 98.124 417.326 97.356C417.71 96.588 418.262 95.98 418.982 95.532C419.71 95.084 420.586 94.86 421.61 94.86C422.538 94.86 423.342 95.064 424.022 95.472C424.71 95.88 425.242 96.448 425.618 97.176C426.002 97.896 426.194 98.736 426.194 99.696C426.194 99.768 426.19 99.86 426.182 99.972C426.182 100.084 426.178 100.172 426.17 100.236H418.094ZM424.826 99.096C424.818 98.664 424.71 98.208 424.502 97.728C424.302 97.24 423.97 96.828 423.506 96.492C423.05 96.148 422.422 95.976 421.622 95.976C420.79 95.976 420.126 96.144 419.63 96.48C419.142 96.808 418.786 97.212 418.562 97.692C418.338 98.172 418.202 98.64 418.154 99.096H424.826ZM427.665 95.148H429.129L432.741 103.704L436.341 95.148H437.805L433.545 105H431.937L427.665 95.148ZM440.617 100.236C440.625 100.924 440.761 101.568 441.025 102.168C441.297 102.768 441.705 103.252 442.249 103.62C442.793 103.988 443.477 104.172 444.301 104.172C444.973 104.172 445.533 104.064 445.981 103.848C446.437 103.624 446.797 103.368 447.061 103.08C447.333 102.784 447.525 102.52 447.637 102.288L448.489 103.128C448.193 103.584 447.849 103.976 447.457 104.304C447.073 104.624 446.617 104.868 446.089 105.036C445.569 105.204 444.949 105.288 444.229 105.288C443.181 105.288 442.285 105.056 441.541 104.592C440.805 104.12 440.241 103.48 439.849 102.672C439.465 101.864 439.273 100.956 439.273 99.948C439.273 98.988 439.465 98.124 439.849 97.356C440.233 96.588 440.785 95.98 441.505 95.532C442.233 95.084 443.109 94.86 444.133 94.86C445.061 94.86 445.865 95.064 446.545 95.472C447.233 95.88 447.765 96.448 448.141 97.176C448.525 97.896 448.717 98.736 448.717 99.696C448.717 99.768 448.713 99.86 448.705 99.972C448.705 100.084 448.701 100.172 448.693 100.236H440.617ZM447.349 99.096C447.341 98.664 447.233 98.208 447.025 97.728C446.825 97.24 446.493 96.828 446.029 96.492C445.573 96.148 444.945 95.976 444.145 95.976C443.313 95.976 442.649 96.144 442.153 96.48C441.665 96.808 441.309 97.212 441.085 97.692C440.861 98.172 440.725 98.64 440.677 99.096H447.349ZM452.66 105H451.316V95.148H452.66V96.924H452.6C452.632 96.716 452.776 96.452 453.032 96.132C453.296 95.804 453.652 95.512 454.1 95.256C454.548 94.992 455.076 94.86 455.684 94.86C456.148 94.86 456.544 94.92 456.872 95.04C457.208 95.152 457.44 95.268 457.568 95.388L456.968 96.552C456.864 96.448 456.668 96.344 456.38 96.24C456.1 96.136 455.76 96.084 455.36 96.084C454.808 96.084 454.328 96.268 453.92 96.636C453.52 97.004 453.208 97.444 452.984 97.956C452.768 98.46 452.66 98.924 452.66 99.348V105ZM466.912 105V102.936C466.856 103.152 466.668 103.448 466.348 103.824C466.036 104.2 465.6 104.54 465.04 104.844C464.488 105.14 463.832 105.288 463.072 105.288C462.184 105.288 461.364 105.084 460.612 104.676C459.868 104.26 459.268 103.664 458.812 102.888C458.364 102.104 458.14 101.168 458.14 100.08C458.14 98.992 458.364 98.06 458.812 97.284C459.268 96.5 459.868 95.9 460.612 95.484C461.364 95.068 462.184 94.86 463.072 94.86C463.832 94.86 464.488 95.004 465.04 95.292C465.592 95.572 466.028 95.896 466.348 96.264C466.676 96.632 466.86 96.94 466.9 97.188V95.148H468.244V105H466.912ZM459.496 100.08C459.496 100.912 459.676 101.628 460.036 102.228C460.396 102.828 460.86 103.288 461.428 103.608C462.004 103.928 462.608 104.088 463.24 104.088C463.936 104.088 464.556 103.924 465.1 103.596C465.644 103.268 466.072 102.804 466.384 102.204C466.704 101.604 466.864 100.896 466.864 100.08C466.864 99.264 466.704 98.556 466.384 97.956C466.072 97.356 465.644 96.892 465.1 96.564C464.556 96.228 463.936 96.06 463.24 96.06C462.608 96.06 462.004 96.224 461.428 96.552C460.86 96.872 460.396 97.332 460.036 97.932C459.676 98.532 459.496 99.248 459.496 100.08ZM472.759 105H471.367V88.488H472.759V105ZM213.868 129H212.476V112.488H213.868V129ZM217.773 124.236C217.781 124.924 217.917 125.568 218.181 126.168C218.453 126.768 218.861 127.252 219.405 127.62C219.949 127.988 220.633 128.172 221.457 128.172C222.129 128.172 222.689 128.064 223.137 127.848C223.593 127.624 223.953 127.368 224.217 127.08C224.489 126.784 224.681 126.52 224.793 126.288L225.645 127.128C225.349 127.584 225.005 127.976 224.613 128.304C224.229 128.624 223.773 128.868 223.245 129.036C222.725 129.204 222.105 129.288 221.385 129.288C220.337 129.288 219.441 129.056 218.697 128.592C217.961 128.12 217.397 127.48 217.005 126.672C216.621 125.864 216.429 124.956 216.429 123.948C216.429 122.988 216.621 122.124 217.005 121.356C217.389 120.588 217.941 119.98 218.661 119.532C219.389 119.084 220.265 118.86 221.289 118.86C222.217 118.86 223.021 119.064 223.701 119.472C224.389 119.88 224.921 120.448 225.297 121.176C225.681 121.896 225.873 122.736 225.873 123.696C225.873 123.768 225.869 123.86 225.861 123.972C225.861 124.084 225.857 124.172 225.849 124.236H217.773ZM224.505 123.096C224.497 122.664 224.389 122.208 224.181 121.728C223.981 121.24 223.649 120.828 223.185 120.492C222.729 120.148 222.101 119.976 221.301 119.976C220.469 119.976 219.805 120.144 219.309 120.48C218.821 120.808 218.465 121.212 218.241 121.692C218.017 122.172 217.881 122.64 217.833 123.096H224.505ZM227.344 119.148H228.808L232.42 127.704L236.02 119.148H237.484L233.224 129H231.616L227.344 119.148ZM240.297 124.236C240.305 124.924 240.441 125.568 240.705 126.168C240.977 126.768 241.385 127.252 241.929 127.62C242.473 127.988 243.157 128.172 243.981 128.172C244.653 128.172 245.213 128.064 245.661 127.848C246.117 127.624 246.477 127.368 246.741 127.08C247.013 126.784 247.205 126.52 247.317 126.288L248.169 127.128C247.873 127.584 247.529 127.976 247.137 128.304C246.753 128.624 246.297 128.868 245.769 129.036C245.249 129.204 244.629 129.288 243.909 129.288C242.861 129.288 241.965 129.056 241.221 128.592C240.485 128.12 239.921 127.48 239.529 126.672C239.145 125.864 238.953 124.956 238.953 123.948C238.953 122.988 239.145 122.124 239.529 121.356C239.913 120.588 240.465 119.98 241.185 119.532C241.913 119.084 242.789 118.86 243.813 118.86C244.741 118.86 245.545 119.064 246.225 119.472C246.913 119.88 247.445 120.448 247.821 121.176C248.205 121.896 248.397 122.736 248.397 123.696C248.397 123.768 248.393 123.86 248.385 123.972C248.385 124.084 248.381 124.172 248.373 124.236H240.297ZM247.029 123.096C247.021 122.664 246.913 122.208 246.705 121.728C246.505 121.24 246.173 120.828 245.709 120.492C245.253 120.148 244.625 119.976 243.825 119.976C242.993 119.976 242.329 120.144 241.833 120.48C241.345 120.808 240.989 121.212 240.765 121.692C240.541 122.172 240.405 122.64 240.357 123.096H247.029ZM252.376 129H250.984V112.488H252.376V129ZM259.017 118.86C259.473 118.86 259.901 118.912 260.301 119.016C260.709 119.112 261.065 119.236 261.369 119.388C261.673 119.532 261.901 119.664 262.053 119.784L261.393 120.732C261.225 120.572 260.933 120.404 260.517 120.228C260.101 120.044 259.633 119.952 259.113 119.952C258.473 119.952 257.925 120.084 257.469 120.348C257.021 120.612 256.797 120.996 256.797 121.5C256.797 121.988 257.025 122.376 257.481 122.664C257.937 122.952 258.537 123.188 259.281 123.372C259.849 123.516 260.365 123.696 260.829 123.912C261.301 124.128 261.677 124.424 261.957 124.8C262.237 125.168 262.377 125.66 262.377 126.276C262.377 126.804 262.269 127.26 262.053 127.644C261.837 128.02 261.541 128.328 261.165 128.568C260.797 128.808 260.377 128.988 259.905 129.108C259.433 129.228 258.937 129.288 258.417 129.288C257.881 129.288 257.385 129.228 256.929 129.108C256.473 128.988 256.081 128.844 255.753 128.676C255.433 128.508 255.189 128.352 255.021 128.208L255.705 127.14C255.913 127.356 256.253 127.58 256.725 127.812C257.205 128.036 257.765 128.148 258.405 128.148C259.149 128.148 259.761 127.976 260.241 127.632C260.729 127.288 260.973 126.836 260.973 126.276C260.973 125.868 260.857 125.54 260.625 125.292C260.393 125.044 260.089 124.848 259.713 124.704C259.337 124.552 258.937 124.424 258.513 124.32C258.105 124.216 257.713 124.092 257.337 123.948C256.969 123.796 256.641 123.608 256.353 123.384C256.065 123.16 255.837 122.892 255.669 122.58C255.509 122.26 255.429 121.888 255.429 121.464C255.429 120.936 255.593 120.48 255.921 120.096C256.249 119.704 256.685 119.4 257.229 119.184C257.781 118.968 258.377 118.86 259.017 118.86ZM275.177 129.288C274.193 129.288 273.317 129.06 272.549 128.604C271.789 128.14 271.189 127.516 270.749 126.732C270.317 125.948 270.101 125.072 270.101 124.104C270.101 123.136 270.317 122.256 270.749 121.464C271.189 120.664 271.789 120.032 272.549 119.568C273.317 119.096 274.193 118.86 275.177 118.86C276.161 118.86 277.029 119.096 277.781 119.568C278.541 120.032 279.137 120.664 279.569 121.464C280.001 122.256 280.217 123.136 280.217 124.104C280.217 125.072 280.001 125.948 279.569 126.732C279.137 127.516 278.541 128.14 277.781 128.604C277.029 129.06 276.161 129.288 275.177 129.288ZM275.177 128.052C275.921 128.052 276.569 127.88 277.121 127.536C277.681 127.192 278.113 126.72 278.417 126.12C278.729 125.52 278.885 124.848 278.885 124.104C278.885 123.352 278.729 122.676 278.417 122.076C278.113 121.468 277.681 120.988 277.121 120.636C276.569 120.276 275.921 120.096 275.177 120.096C274.425 120.096 273.769 120.276 273.209 120.636C272.649 120.988 272.213 121.468 271.901 122.076C271.589 122.676 271.433 123.352 271.433 124.104C271.433 124.848 271.589 125.52 271.901 126.12C272.213 126.72 272.649 127.192 273.209 127.536C273.769 127.88 274.425 128.052 275.177 128.052ZM281.591 119.148H283.787V116.268C283.787 115.244 283.947 114.44 284.267 113.856C284.587 113.264 284.991 112.84 285.479 112.584C285.967 112.328 286.467 112.2 286.979 112.2C287.587 112.2 288.059 112.288 288.395 112.464C288.731 112.632 288.927 112.74 288.983 112.788L288.395 113.88C288.347 113.832 288.207 113.744 287.975 113.616C287.751 113.488 287.435 113.424 287.027 113.424C286.723 113.424 286.427 113.5 286.139 113.652C285.851 113.796 285.611 114.084 285.419 114.516C285.227 114.948 285.131 115.596 285.131 116.46V119.148H288.107V120.372H285.131V129H283.787V120.372H281.591V119.148ZM300.302 128.088C301.006 128.088 301.57 127.98 301.994 127.764C302.418 127.54 302.678 127.384 302.774 127.296L303.494 128.352C303.43 128.4 303.25 128.504 302.954 128.664C302.658 128.816 302.274 128.956 301.802 129.084C301.338 129.22 300.81 129.288 300.218 129.288C299.426 129.288 298.662 129.092 297.926 128.7C297.19 128.308 296.582 127.724 296.102 126.948C295.63 126.172 295.394 125.212 295.394 124.068C295.394 122.916 295.63 121.956 296.102 121.188C296.582 120.412 297.19 119.832 297.926 119.448C298.662 119.056 299.426 118.86 300.218 118.86C300.81 118.86 301.33 118.932 301.778 119.076C302.226 119.22 302.594 119.38 302.882 119.556C303.17 119.732 303.35 119.86 303.422 119.94L302.714 120.984C302.642 120.92 302.506 120.816 302.306 120.672C302.114 120.52 301.85 120.38 301.514 120.252C301.178 120.124 300.774 120.06 300.302 120.06C299.734 120.06 299.174 120.216 298.622 120.528C298.07 120.84 297.614 121.296 297.254 121.896C296.902 122.488 296.726 123.212 296.726 124.068C296.726 124.924 296.902 125.652 297.254 126.252C297.614 126.852 298.07 127.308 298.622 127.62C299.174 127.932 299.734 128.088 300.302 128.088ZM307.29 129H305.898V112.488H307.29V129ZM311.195 124.236C311.203 124.924 311.339 125.568 311.603 126.168C311.875 126.768 312.283 127.252 312.827 127.62C313.371 127.988 314.055 128.172 314.879 128.172C315.551 128.172 316.111 128.064 316.559 127.848C317.015 127.624 317.375 127.368 317.639 127.08C317.911 126.784 318.103 126.52 318.215 126.288L319.067 127.128C318.771 127.584 318.427 127.976 318.035 128.304C317.651 128.624 317.195 128.868 316.667 129.036C316.147 129.204 315.527 129.288 314.807 129.288C313.759 129.288 312.863 129.056 312.119 128.592C311.383 128.12 310.819 127.48 310.427 126.672C310.043 125.864 309.851 124.956 309.851 123.948C309.851 122.988 310.043 122.124 310.427 121.356C310.811 120.588 311.363 119.98 312.083 119.532C312.811 119.084 313.687 118.86 314.711 118.86C315.639 118.86 316.443 119.064 317.123 119.472C317.811 119.88 318.343 120.448 318.719 121.176C319.103 121.896 319.295 122.736 319.295 123.696C319.295 123.768 319.291 123.86 319.283 123.972C319.283 124.084 319.279 124.172 319.271 124.236H311.195ZM317.927 123.096C317.919 122.664 317.811 122.208 317.603 121.728C317.403 121.24 317.071 120.828 316.607 120.492C316.151 120.148 315.523 119.976 314.723 119.976C313.891 119.976 313.227 120.144 312.731 120.48C312.243 120.808 311.887 121.212 311.663 121.692C311.439 122.172 311.303 122.64 311.255 123.096H317.927ZM329.826 129V126.936C329.77 127.152 329.582 127.448 329.262 127.824C328.95 128.2 328.514 128.54 327.954 128.844C327.402 129.14 326.746 129.288 325.986 129.288C325.098 129.288 324.278 129.084 323.526 128.676C322.782 128.26 322.182 127.664 321.726 126.888C321.278 126.104 321.054 125.168 321.054 124.08C321.054 122.992 321.278 122.06 321.726 121.284C322.182 120.5 322.782 119.9 323.526 119.484C324.278 119.068 325.098 118.86 325.986 118.86C326.746 118.86 327.402 119.004 327.954 119.292C328.506 119.572 328.942 119.896 329.262 120.264C329.59 120.632 329.774 120.94 329.814 121.188V119.148H331.158V129H329.826ZM322.41 124.08C322.41 124.912 322.59 125.628 322.95 126.228C323.31 126.828 323.774 127.288 324.342 127.608C324.918 127.928 325.522 128.088 326.154 128.088C326.85 128.088 327.47 127.924 328.014 127.596C328.558 127.268 328.986 126.804 329.298 126.204C329.618 125.604 329.778 124.896 329.778 124.08C329.778 123.264 329.618 122.556 329.298 121.956C328.986 121.356 328.558 120.892 328.014 120.564C327.47 120.228 326.85 120.06 326.154 120.06C325.522 120.06 324.918 120.224 324.342 120.552C323.774 120.872 323.31 121.332 322.95 121.932C322.59 122.532 322.41 123.248 322.41 124.08ZM339.105 118.86C339.729 118.86 340.337 118.996 340.929 119.268C341.521 119.532 342.009 119.956 342.393 120.54C342.777 121.116 342.969 121.864 342.969 122.784V129H341.577V123.108C341.577 122.012 341.321 121.224 340.809 120.744C340.297 120.256 339.641 120.012 338.841 120.012C338.313 120.012 337.801 120.164 337.305 120.468C336.817 120.772 336.413 121.188 336.093 121.716C335.781 122.244 335.625 122.836 335.625 123.492V129H334.257V119.148H335.625V121.044C335.681 120.764 335.869 120.456 336.189 120.12C336.517 119.776 336.933 119.48 337.437 119.232C337.949 118.984 338.505 118.86 339.105 118.86ZM347.485 129H346.093V112.488H347.485V129ZM351.054 129V119.148H352.41V129H351.054ZM351.75 115.152C351.462 115.152 351.214 115.052 351.006 114.852C350.806 114.644 350.706 114.396 350.706 114.108C350.706 113.812 350.81 113.564 351.018 113.364C351.226 113.156 351.47 113.052 351.75 113.052C351.942 113.052 352.118 113.1 352.278 113.196C352.446 113.292 352.578 113.42 352.674 113.58C352.778 113.732 352.83 113.908 352.83 114.108C352.83 114.396 352.722 114.644 352.506 114.852C352.298 115.052 352.046 115.152 351.75 115.152ZM360.855 118.86C361.479 118.86 362.087 118.996 362.679 119.268C363.271 119.532 363.759 119.956 364.143 120.54C364.527 121.116 364.719 121.864 364.719 122.784V129H363.327V123.108C363.327 122.012 363.071 121.224 362.559 120.744C362.047 120.256 361.391 120.012 360.591 120.012C360.063 120.012 359.551 120.164 359.055 120.468C358.567 120.772 358.163 121.188 357.843 121.716C357.531 122.244 357.375 122.836 357.375 123.492V129H356.007V119.148H357.375V121.044C357.431 120.764 357.619 120.456 357.939 120.12C358.267 119.776 358.683 119.48 359.187 119.232C359.699 118.984 360.255 118.86 360.855 118.86ZM368.359 124.236C368.367 124.924 368.503 125.568 368.767 126.168C369.039 126.768 369.447 127.252 369.991 127.62C370.535 127.988 371.219 128.172 372.043 128.172C372.715 128.172 373.275 128.064 373.723 127.848C374.179 127.624 374.539 127.368 374.803 127.08C375.075 126.784 375.267 126.52 375.379 126.288L376.231 127.128C375.935 127.584 375.591 127.976 375.199 128.304C374.815 128.624 374.359 128.868 373.831 129.036C373.311 129.204 372.691 129.288 371.971 129.288C370.923 129.288 370.027 129.056 369.283 128.592C368.547 128.12 367.983 127.48 367.591 126.672C367.207 125.864 367.015 124.956 367.015 123.948C367.015 122.988 367.207 122.124 367.591 121.356C367.975 120.588 368.527 119.98 369.247 119.532C369.975 119.084 370.851 118.86 371.875 118.86C372.803 118.86 373.607 119.064 374.287 119.472C374.975 119.88 375.507 120.448 375.883 121.176C376.267 121.896 376.459 122.736 376.459 123.696C376.459 123.768 376.455 123.86 376.447 123.972C376.447 124.084 376.443 124.172 376.435 124.236H368.359ZM375.091 123.096C375.083 122.664 374.975 122.208 374.767 121.728C374.567 121.24 374.235 120.828 373.771 120.492C373.315 120.148 372.687 119.976 371.887 119.976C371.055 119.976 370.391 120.144 369.895 120.48C369.407 120.808 369.051 121.212 368.827 121.692C368.603 122.172 368.467 122.64 368.419 123.096H375.091ZM382.298 118.86C382.754 118.86 383.182 118.912 383.582 119.016C383.99 119.112 384.346 119.236 384.65 119.388C384.954 119.532 385.182 119.664 385.334 119.784L384.674 120.732C384.506 120.572 384.214 120.404 383.798 120.228C383.382 120.044 382.914 119.952 382.394 119.952C381.754 119.952 381.206 120.084 380.75 120.348C380.302 120.612 380.078 120.996 380.078 121.5C380.078 121.988 380.306 122.376 380.762 122.664C381.218 122.952 381.818 123.188 382.562 123.372C383.13 123.516 383.646 123.696 384.11 123.912C384.582 124.128 384.958 124.424 385.238 124.8C385.518 125.168 385.658 125.66 385.658 126.276C385.658 126.804 385.55 127.26 385.334 127.644C385.118 128.02 384.822 128.328 384.446 128.568C384.078 128.808 383.658 128.988 383.186 129.108C382.714 129.228 382.218 129.288 381.698 129.288C381.162 129.288 380.666 129.228 380.21 129.108C379.754 128.988 379.362 128.844 379.034 128.676C378.714 128.508 378.47 128.352 378.302 128.208L378.986 127.14C379.194 127.356 379.534 127.58 380.006 127.812C380.486 128.036 381.046 128.148 381.686 128.148C382.43 128.148 383.042 127.976 383.522 127.632C384.01 127.288 384.254 126.836 384.254 126.276C384.254 125.868 384.138 125.54 383.906 125.292C383.674 125.044 383.37 124.848 382.994 124.704C382.618 124.552 382.218 124.424 381.794 124.32C381.386 124.216 380.994 124.092 380.618 123.948C380.25 123.796 379.922 123.608 379.634 123.384C379.346 123.16 379.118 122.892 378.95 122.58C378.79 122.26 378.71 121.888 378.71 121.464C378.71 120.936 378.874 120.48 379.202 120.096C379.53 119.704 379.966 119.4 380.51 119.184C381.062 118.968 381.658 118.86 382.298 118.86ZM391.65 118.86C392.106 118.86 392.534 118.912 392.934 119.016C393.342 119.112 393.698 119.236 394.002 119.388C394.306 119.532 394.534 119.664 394.686 119.784L394.026 120.732C393.858 120.572 393.566 120.404 393.15 120.228C392.734 120.044 392.266 119.952 391.746 119.952C391.106 119.952 390.558 120.084 390.102 120.348C389.654 120.612 389.43 120.996 389.43 121.5C389.43 121.988 389.658 122.376 390.114 122.664C390.57 122.952 391.17 123.188 391.914 123.372C392.482 123.516 392.998 123.696 393.462 123.912C393.934 124.128 394.31 124.424 394.59 124.8C394.87 125.168 395.01 125.66 395.01 126.276C395.01 126.804 394.902 127.26 394.686 127.644C394.47 128.02 394.174 128.328 393.798 128.568C393.43 128.808 393.01 128.988 392.538 129.108C392.066 129.228 391.57 129.288 391.05 129.288C390.514 129.288 390.018 129.228 389.562 129.108C389.106 128.988 388.714 128.844 388.386 128.676C388.066 128.508 387.822 128.352 387.654 128.208L388.338 127.14C388.546 127.356 388.886 127.58 389.358 127.812C389.838 128.036 390.398 128.148 391.038 128.148C391.782 128.148 392.394 127.976 392.874 127.632C393.362 127.288 393.606 126.836 393.606 126.276C393.606 125.868 393.49 125.54 393.258 125.292C393.026 125.044 392.722 124.848 392.346 124.704C391.97 124.552 391.57 124.424 391.146 124.32C390.738 124.216 390.346 124.092 389.97 123.948C389.602 123.796 389.274 123.608 388.986 123.384C388.698 123.16 388.47 122.892 388.302 122.58C388.142 122.26 388.062 121.888 388.062 121.464C388.062 120.936 388.226 120.48 388.554 120.096C388.882 119.704 389.318 119.4 389.862 119.184C390.414 118.968 391.01 118.86 391.65 118.86ZM406.814 118.86C407.27 118.86 407.698 118.912 408.098 119.016C408.506 119.112 408.862 119.236 409.166 119.388C409.47 119.532 409.698 119.664 409.85 119.784L409.19 120.732C409.022 120.572 408.73 120.404 408.314 120.228C407.898 120.044 407.43 119.952 406.91 119.952C406.27 119.952 405.722 120.084 405.266 120.348C404.818 120.612 404.594 120.996 404.594 121.5C404.594 121.988 404.822 122.376 405.278 122.664C405.734 122.952 406.334 123.188 407.078 123.372C407.646 123.516 408.162 123.696 408.626 123.912C409.098 124.128 409.474 124.424 409.754 124.8C410.034 125.168 410.174 125.66 410.174 126.276C410.174 126.804 410.066 127.26 409.85 127.644C409.634 128.02 409.338 128.328 408.962 128.568C408.594 128.808 408.174 128.988 407.702 129.108C407.23 129.228 406.734 129.288 406.214 129.288C405.678 129.288 405.182 129.228 404.726 129.108C404.27 128.988 403.878 128.844 403.55 128.676C403.23 128.508 402.986 128.352 402.818 128.208L403.502 127.14C403.71 127.356 404.05 127.58 404.522 127.812C405.002 128.036 405.562 128.148 406.202 128.148C406.946 128.148 407.558 127.976 408.038 127.632C408.526 127.288 408.77 126.836 408.77 126.276C408.77 125.868 408.654 125.54 408.422 125.292C408.19 125.044 407.886 124.848 407.51 124.704C407.134 124.552 406.734 124.424 406.31 124.32C405.902 124.216 405.51 124.092 405.134 123.948C404.766 123.796 404.438 123.608 404.15 123.384C403.862 123.16 403.634 122.892 403.466 122.58C403.306 122.26 403.226 121.888 403.226 121.464C403.226 120.936 403.39 120.48 403.718 120.096C404.046 119.704 404.482 119.4 405.026 119.184C405.578 118.968 406.174 118.86 406.814 118.86ZM414.09 124.296C414.09 125.448 414.342 126.364 414.846 127.044C415.358 127.716 416.126 128.052 417.15 128.052C418.182 128.052 418.95 127.716 419.454 127.044C419.958 126.364 420.21 125.448 420.21 124.296V119.148H421.578V124.536C421.578 125.456 421.406 126.276 421.062 126.996C420.718 127.708 420.218 128.268 419.562 128.676C418.906 129.084 418.102 129.288 417.15 129.288C416.206 129.288 415.406 129.084 414.75 128.676C414.094 128.268 413.594 127.708 413.25 126.996C412.906 126.276 412.734 125.456 412.734 124.536V119.148H414.09V124.296ZM429.02 128.088C429.724 128.088 430.288 127.98 430.712 127.764C431.136 127.54 431.396 127.384 431.492 127.296L432.212 128.352C432.148 128.4 431.968 128.504 431.672 128.664C431.376 128.816 430.992 128.956 430.52 129.084C430.056 129.22 429.528 129.288 428.936 129.288C428.144 129.288 427.38 129.092 426.644 128.7C425.908 128.308 425.3 127.724 424.82 126.948C424.348 126.172 424.112 125.212 424.112 124.068C424.112 122.916 424.348 121.956 424.82 121.188C425.3 120.412 425.908 119.832 426.644 119.448C427.38 119.056 428.144 118.86 428.936 118.86C429.528 118.86 430.048 118.932 430.496 119.076C430.944 119.22 431.312 119.38 431.6 119.556C431.888 119.732 432.068 119.86 432.14 119.94L431.432 120.984C431.36 120.92 431.224 120.816 431.024 120.672C430.832 120.52 430.568 120.38 430.232 120.252C429.896 120.124 429.492 120.06 429.02 120.06C428.452 120.06 427.892 120.216 427.34 120.528C426.788 120.84 426.332 121.296 425.972 121.896C425.62 122.488 425.444 123.212 425.444 124.068C425.444 124.924 425.62 125.652 425.972 126.252C426.332 126.852 426.788 127.308 427.34 127.62C427.892 127.932 428.452 128.088 429.02 128.088ZM439.513 118.86C440.129 118.86 440.733 118.996 441.325 119.268C441.917 119.532 442.405 119.956 442.789 120.54C443.173 121.116 443.365 121.864 443.365 122.784V129H441.973V123.108C441.973 122.012 441.717 121.224 441.205 120.744C440.701 120.256 440.053 120.012 439.261 120.012C438.725 120.012 438.209 120.164 437.713 120.468C437.225 120.772 436.821 121.188 436.501 121.716C436.181 122.244 436.021 122.836 436.021 123.492V129H434.629V112.488H436.021V121.044C436.077 120.764 436.265 120.456 436.585 120.12C436.913 119.776 437.329 119.48 437.833 119.232C438.345 118.984 438.905 118.86 439.513 118.86ZM460.35 129V126.936C460.294 127.152 460.106 127.448 459.786 127.824C459.474 128.2 459.038 128.54 458.478 128.844C457.926 129.14 457.27 129.288 456.51 129.288C455.622 129.288 454.802 129.084 454.05 128.676C453.306 128.26 452.706 127.664 452.25 126.888C451.802 126.104 451.578 125.168 451.578 124.08C451.578 122.992 451.802 122.06 452.25 121.284C452.706 120.5 453.306 119.9 454.05 119.484C454.802 119.068 455.622 118.86 456.51 118.86C457.27 118.86 457.926 119.004 458.478 119.292C459.03 119.572 459.466 119.896 459.786 120.264C460.114 120.632 460.298 120.94 460.338 121.188V119.148H461.682V129H460.35ZM452.934 124.08C452.934 124.912 453.114 125.628 453.474 126.228C453.834 126.828 454.298 127.288 454.866 127.608C455.442 127.928 456.046 128.088 456.678 128.088C457.374 128.088 457.994 127.924 458.538 127.596C459.082 127.268 459.51 126.804 459.822 126.204C460.142 125.604 460.302 124.896 460.302 124.08C460.302 123.264 460.142 122.556 459.822 121.956C459.51 121.356 459.082 120.892 458.538 120.564C457.994 120.228 457.374 120.06 456.678 120.06C456.046 120.06 455.442 120.224 454.866 120.552C454.298 120.872 453.834 121.332 453.474 121.932C453.114 122.532 452.934 123.248 452.934 124.08ZM468.056 118.86C468.512 118.86 468.94 118.912 469.34 119.016C469.748 119.112 470.104 119.236 470.408 119.388C470.712 119.532 470.94 119.664 471.092 119.784L470.432 120.732C470.264 120.572 469.972 120.404 469.556 120.228C469.14 120.044 468.672 119.952 468.152 119.952C467.512 119.952 466.964 120.084 466.508 120.348C466.06 120.612 465.836 120.996 465.836 121.5C465.836 121.988 466.064 122.376 466.52 122.664C466.976 122.952 467.576 123.188 468.32 123.372C468.888 123.516 469.404 123.696 469.868 123.912C470.34 124.128 470.716 124.424 470.996 124.8C471.276 125.168 471.416 125.66 471.416 126.276C471.416 126.804 471.308 127.26 471.092 127.644C470.876 128.02 470.58 128.328 470.204 128.568C469.836 128.808 469.416 128.988 468.944 129.108C468.472 129.228 467.976 129.288 467.456 129.288C466.92 129.288 466.424 129.228 465.968 129.108C465.512 128.988 465.12 128.844 464.792 128.676C464.472 128.508 464.228 128.352 464.06 128.208L464.744 127.14C464.952 127.356 465.292 127.58 465.764 127.812C466.244 128.036 466.804 128.148 467.444 128.148C468.188 128.148 468.8 127.976 469.28 127.632C469.768 127.288 470.012 126.836 470.012 126.276C470.012 125.868 469.896 125.54 469.664 125.292C469.432 125.044 469.128 124.848 468.752 124.704C468.376 124.552 467.976 124.424 467.552 124.32C467.144 124.216 466.752 124.092 466.376 123.948C466.008 123.796 465.68 123.608 465.392 123.384C465.104 123.16 464.876 122.892 464.708 122.58C464.548 122.26 464.468 121.888 464.468 121.464C464.468 120.936 464.632 120.48 464.96 120.096C465.288 119.704 465.724 119.4 466.268 119.184C466.82 118.968 467.416 118.86 468.056 118.86ZM213.832 153H212.488V143.148H213.832V144.924H213.772C213.804 144.716 213.948 144.452 214.204 144.132C214.468 143.804 214.824 143.512 215.272 143.256C215.72 142.992 216.248 142.86 216.856 142.86C217.32 142.86 217.716 142.92 218.044 143.04C218.38 143.152 218.612 143.268 218.74 143.388L218.14 144.552C218.036 144.448 217.84 144.344 217.552 144.24C217.272 144.136 216.932 144.084 216.532 144.084C215.98 144.084 215.5 144.268 215.092 144.636C214.692 145.004 214.38 145.444 214.156 145.956C213.94 146.46 213.832 146.924 213.832 147.348V153ZM220.656 148.236C220.664 148.924 220.8 149.568 221.064 150.168C221.336 150.768 221.744 151.252 222.288 151.62C222.832 151.988 223.516 152.172 224.34 152.172C225.012 152.172 225.572 152.064 226.02 151.848C226.476 151.624 226.836 151.368 227.1 151.08C227.372 150.784 227.564 150.52 227.676 150.288L228.528 151.128C228.232 151.584 227.888 151.976 227.496 152.304C227.112 152.624 226.656 152.868 226.128 153.036C225.608 153.204 224.988 153.288 224.268 153.288C223.22 153.288 222.324 153.056 221.58 152.592C220.844 152.12 220.28 151.48 219.888 150.672C219.504 149.864 219.312 148.956 219.312 147.948C219.312 146.988 219.504 146.124 219.888 145.356C220.272 144.588 220.824 143.98 221.544 143.532C222.272 143.084 223.148 142.86 224.172 142.86C225.1 142.86 225.904 143.064 226.584 143.472C227.272 143.88 227.804 144.448 228.18 145.176C228.564 145.896 228.756 146.736 228.756 147.696C228.756 147.768 228.752 147.86 228.744 147.972C228.744 148.084 228.74 148.172 228.732 148.236H220.656ZM227.388 147.096C227.38 146.664 227.272 146.208 227.064 145.728C226.864 145.24 226.532 144.828 226.068 144.492C225.612 144.148 224.984 143.976 224.184 143.976C223.352 143.976 222.688 144.144 222.192 144.48C221.704 144.808 221.348 145.212 221.124 145.692C220.9 146.172 220.764 146.64 220.716 147.096H227.388ZM235.735 158.256C234.919 158.256 234.207 158.168 233.599 157.992C232.991 157.816 232.479 157.58 232.063 157.284C231.655 156.996 231.339 156.684 231.115 156.348L232.123 155.46C232.267 155.66 232.467 155.884 232.723 156.132C232.979 156.38 233.343 156.592 233.815 156.768C234.287 156.952 234.915 157.044 235.699 157.044C236.483 157.044 237.139 156.868 237.667 156.516C238.203 156.164 238.607 155.696 238.879 155.112C239.151 154.528 239.287 153.884 239.287 153.18V152.832H240.619V153.288C240.619 154.36 240.399 155.264 239.959 156C239.527 156.744 238.939 157.304 238.195 157.68C237.459 158.064 236.639 158.256 235.735 158.256ZM239.287 153V150.936C239.231 151.152 239.043 151.448 238.723 151.824C238.411 152.2 237.975 152.54 237.415 152.844C236.863 153.14 236.207 153.288 235.447 153.288C234.559 153.288 233.739 153.084 232.987 152.676C232.243 152.26 231.643 151.664 231.187 150.888C230.739 150.104 230.515 149.168 230.515 148.08C230.515 146.992 230.739 146.06 231.187 145.284C231.643 144.5 232.243 143.9 232.987 143.484C233.739 143.068 234.559 142.86 235.447 142.86C236.207 142.86 236.863 143.004 237.415 143.292C237.967 143.572 238.403 143.896 238.723 144.264C239.051 144.632 239.235 144.94 239.275 145.188V143.148H240.619V153H239.287ZM231.871 148.08C231.871 148.912 232.051 149.628 232.411 150.228C232.771 150.828 233.235 151.288 233.803 151.608C234.379 151.928 234.983 152.088 235.615 152.088C236.311 152.088 236.931 151.924 237.475 151.596C238.019 151.268 238.447 150.804 238.759 150.204C239.079 149.604 239.239 148.896 239.239 148.08C239.239 147.264 239.079 146.556 238.759 145.956C238.447 145.356 238.019 144.892 237.475 144.564C236.931 144.228 236.311 144.06 235.615 144.06C234.983 144.06 234.379 144.224 233.803 144.552C233.235 144.872 232.771 145.332 232.411 145.932C232.051 146.532 231.871 147.248 231.871 148.08ZM245.011 148.296C245.011 149.448 245.263 150.364 245.767 151.044C246.279 151.716 247.047 152.052 248.071 152.052C249.103 152.052 249.871 151.716 250.375 151.044C250.879 150.364 251.131 149.448 251.131 148.296V143.148H252.499V148.536C252.499 149.456 252.327 150.276 251.983 150.996C251.639 151.708 251.139 152.268 250.483 152.676C249.827 153.084 249.023 153.288 248.071 153.288C247.127 153.288 246.327 153.084 245.671 152.676C245.015 152.268 244.515 151.708 244.171 150.996C243.827 150.276 243.655 149.456 243.655 148.536V143.148H245.011V148.296ZM257.11 153H255.718V136.488H257.11V153ZM268.443 153V150.936C268.387 151.152 268.199 151.448 267.879 151.824C267.567 152.2 267.131 152.54 266.571 152.844C266.019 153.14 265.363 153.288 264.603 153.288C263.715 153.288 262.895 153.084 262.143 152.676C261.399 152.26 260.799 151.664 260.343 150.888C259.895 150.104 259.671 149.168 259.671 148.08C259.671 146.992 259.895 146.06 260.343 145.284C260.799 144.5 261.399 143.9 262.143 143.484C262.895 143.068 263.715 142.86 264.603 142.86C265.363 142.86 266.019 143.004 266.571 143.292C267.123 143.572 267.559 143.896 267.879 144.264C268.207 144.632 268.391 144.94 268.431 145.188V143.148H269.775V153H268.443ZM261.027 148.08C261.027 148.912 261.207 149.628 261.567 150.228C261.927 150.828 262.391 151.288 262.959 151.608C263.535 151.928 264.139 152.088 264.771 152.088C265.467 152.088 266.087 151.924 266.631 151.596C267.175 151.268 267.603 150.804 267.915 150.204C268.235 149.604 268.395 148.896 268.395 148.08C268.395 147.264 268.235 146.556 267.915 145.956C267.603 145.356 267.175 144.892 266.631 144.564C266.087 144.228 265.467 144.06 264.771 144.06C264.139 144.06 263.535 144.224 262.959 144.552C262.391 144.872 261.927 145.332 261.567 145.932C261.207 146.532 261.027 147.248 261.027 148.08ZM274.254 153H272.91V143.148H274.254V144.924H274.194C274.226 144.716 274.37 144.452 274.626 144.132C274.89 143.804 275.246 143.512 275.694 143.256C276.142 142.992 276.67 142.86 277.278 142.86C277.742 142.86 278.138 142.92 278.466 143.04C278.802 143.152 279.034 143.268 279.162 143.388L278.562 144.552C278.458 144.448 278.262 144.344 277.974 144.24C277.694 144.136 277.354 144.084 276.954 144.084C276.402 144.084 275.922 144.268 275.514 144.636C275.114 145.004 274.802 145.444 274.578 145.956C274.362 146.46 274.254 146.924 274.254 147.348V153ZM282.309 150.48C282.749 150.48 283.121 150.636 283.425 150.948C283.737 151.252 283.893 151.648 283.893 152.136C283.893 152.672 283.785 153.172 283.569 153.636C283.361 154.1 283.085 154.512 282.741 154.872C282.397 155.24 282.021 155.532 281.613 155.748L280.905 155.076C281.137 154.964 281.381 154.816 281.637 154.632C281.901 154.448 282.137 154.232 282.345 153.984C282.553 153.744 282.685 153.48 282.741 153.192C282.565 153.28 282.369 153.324 282.153 153.324C281.777 153.316 281.461 153.176 281.205 152.904C280.949 152.632 280.821 152.32 280.821 151.968C280.821 151.672 280.885 151.412 281.013 151.188C281.141 150.964 281.317 150.792 281.541 150.672C281.773 150.544 282.029 150.48 282.309 150.48ZM297.386 153.288C296.498 153.288 295.694 153.084 294.974 152.676C294.254 152.26 293.682 151.664 293.258 150.888C292.834 150.104 292.622 149.168 292.622 148.08C292.622 146.992 292.834 146.06 293.258 145.284C293.682 144.5 294.254 143.9 294.974 143.484C295.694 143.068 296.498 142.86 297.386 142.86C298.146 142.86 298.818 143 299.402 143.28C299.986 143.56 300.45 143.884 300.794 144.252C301.138 144.612 301.326 144.924 301.358 145.188V136.488H302.75V153H301.394V150.936C301.338 151.192 301.134 151.504 300.782 151.872C300.438 152.24 299.974 152.568 299.39 152.856C298.806 153.144 298.138 153.288 297.386 153.288ZM297.554 152.088C298.25 152.088 298.886 151.924 299.462 151.596C300.038 151.268 300.498 150.804 300.842 150.204C301.186 149.604 301.358 148.896 301.358 148.08C301.358 147.264 301.186 146.556 300.842 145.956C300.498 145.356 300.038 144.892 299.462 144.564C298.886 144.228 298.25 144.06 297.554 144.06C296.93 144.06 296.346 144.224 295.802 144.552C295.266 144.872 294.83 145.332 294.494 145.932C294.158 146.532 293.99 147.248 293.99 148.08C293.99 148.912 294.158 149.628 294.494 150.228C294.83 150.828 295.266 151.288 295.802 151.608C296.346 151.928 296.93 152.088 297.554 152.088ZM305.781 148.236C305.789 148.924 305.925 149.568 306.189 150.168C306.461 150.768 306.869 151.252 307.413 151.62C307.957 151.988 308.641 152.172 309.465 152.172C310.137 152.172 310.697 152.064 311.145 151.848C311.601 151.624 311.961 151.368 312.225 151.08C312.497 150.784 312.689 150.52 312.801 150.288L313.653 151.128C313.357 151.584 313.013 151.976 312.621 152.304C312.237 152.624 311.781 152.868 311.253 153.036C310.733 153.204 310.113 153.288 309.393 153.288C308.345 153.288 307.449 153.056 306.705 152.592C305.969 152.12 305.405 151.48 305.013 150.672C304.629 149.864 304.437 148.956 304.437 147.948C304.437 146.988 304.629 146.124 305.013 145.356C305.397 144.588 305.949 143.98 306.669 143.532C307.397 143.084 308.273 142.86 309.297 142.86C310.225 142.86 311.029 143.064 311.709 143.472C312.397 143.88 312.929 144.448 313.305 145.176C313.689 145.896 313.881 146.736 313.881 147.696C313.881 147.768 313.877 147.86 313.869 147.972C313.869 148.084 313.865 148.172 313.857 148.236H305.781ZM312.513 147.096C312.505 146.664 312.397 146.208 312.189 145.728C311.989 145.24 311.657 144.828 311.193 144.492C310.737 144.148 310.109 143.976 309.309 143.976C308.477 143.976 307.813 144.144 307.317 144.48C306.829 144.808 306.473 145.212 306.249 145.692C306.025 146.172 305.889 146.64 305.841 147.096H312.513ZM316.984 148.236C316.992 148.924 317.128 149.568 317.392 150.168C317.664 150.768 318.072 151.252 318.616 151.62C319.16 151.988 319.844 152.172 320.668 152.172C321.34 152.172 321.9 152.064 322.348 151.848C322.804 151.624 323.164 151.368 323.428 151.08C323.7 150.784 323.892 150.52 324.004 150.288L324.856 151.128C324.56 151.584 324.216 151.976 323.824 152.304C323.44 152.624 322.984 152.868 322.456 153.036C321.936 153.204 321.316 153.288 320.596 153.288C319.548 153.288 318.652 153.056 317.908 152.592C317.172 152.12 316.608 151.48 316.216 150.672C315.832 149.864 315.64 148.956 315.64 147.948C315.64 146.988 315.832 146.124 316.216 145.356C316.6 144.588 317.152 143.98 317.872 143.532C318.6 143.084 319.476 142.86 320.5 142.86C321.428 142.86 322.232 143.064 322.912 143.472C323.6 143.88 324.132 144.448 324.508 145.176C324.892 145.896 325.084 146.736 325.084 147.696C325.084 147.768 325.08 147.86 325.072 147.972C325.072 148.084 325.068 148.172 325.06 148.236H316.984ZM323.716 147.096C323.708 146.664 323.6 146.208 323.392 145.728C323.192 145.24 322.86 144.828 322.396 144.492C321.94 144.148 321.312 143.976 320.512 143.976C319.68 143.976 319.016 144.144 318.52 144.48C318.032 144.808 317.676 145.212 317.452 145.692C317.228 146.172 317.092 146.64 317.044 147.096H323.716ZM329.003 157.992H327.635V143.148H329.039V145.188C329.087 144.924 329.279 144.612 329.615 144.252C329.959 143.884 330.419 143.56 330.995 143.28C331.579 143 332.251 142.86 333.011 142.86C333.907 142.86 334.711 143.068 335.423 143.484C336.143 143.9 336.715 144.5 337.139 145.284C337.563 146.06 337.775 146.992 337.775 148.08C337.775 149.168 337.559 150.104 337.127 150.888C336.703 151.664 336.131 152.26 335.411 152.676C334.691 153.084 333.883 153.288 332.987 153.288C332.211 153.288 331.527 153.14 330.935 152.844C330.351 152.548 329.891 152.212 329.555 151.836C329.227 151.46 329.043 151.16 329.003 150.936V157.992ZM336.407 148.08C336.407 147.248 336.239 146.532 335.903 145.932C335.567 145.332 335.127 144.872 334.583 144.552C334.047 144.224 333.463 144.06 332.831 144.06C332.135 144.06 331.499 144.228 330.923 144.564C330.347 144.892 329.887 145.356 329.543 145.956C329.207 146.556 329.039 147.264 329.039 148.08C329.039 148.896 329.207 149.604 329.543 150.204C329.887 150.804 330.347 151.268 330.923 151.596C331.499 151.924 332.135 152.088 332.831 152.088C333.463 152.088 334.047 151.928 334.583 151.608C335.127 151.288 335.567 150.828 335.903 150.228C336.239 149.628 336.407 148.912 336.407 148.08ZM341.746 150.48C342.186 150.48 342.558 150.636 342.862 150.948C343.174 151.252 343.33 151.648 343.33 152.136C343.33 152.672 343.222 153.172 343.006 153.636C342.798 154.1 342.522 154.512 342.178 154.872C341.834 155.24 341.458 155.532 341.05 155.748L340.342 155.076C340.574 154.964 340.818 154.816 341.074 154.632C341.338 154.448 341.574 154.232 341.782 153.984C341.99 153.744 342.122 153.48 342.178 153.192C342.002 153.28 341.806 153.324 341.59 153.324C341.214 153.316 340.898 153.176 340.642 152.904C340.386 152.632 340.258 152.32 340.258 151.968C340.258 151.672 340.322 151.412 340.45 151.188C340.578 150.964 340.754 150.792 340.978 150.672C341.21 150.544 341.466 150.48 341.746 150.48ZM353.691 148.296C353.691 149.448 353.943 150.364 354.447 151.044C354.959 151.716 355.727 152.052 356.751 152.052C357.783 152.052 358.551 151.716 359.055 151.044C359.559 150.364 359.811 149.448 359.811 148.296V143.148H361.179V148.536C361.179 149.456 361.007 150.276 360.663 150.996C360.319 151.708 359.819 152.268 359.163 152.676C358.507 153.084 357.703 153.288 356.751 153.288C355.807 153.288 355.007 153.084 354.351 152.676C353.695 152.268 353.195 151.708 352.851 150.996C352.507 150.276 352.335 149.456 352.335 148.536V143.148H353.691V148.296ZM369.222 142.86C369.846 142.86 370.454 142.996 371.046 143.268C371.638 143.532 372.126 143.956 372.51 144.54C372.894 145.116 373.086 145.864 373.086 146.784V153H371.694V147.108C371.694 146.012 371.438 145.224 370.926 144.744C370.414 144.256 369.758 144.012 368.958 144.012C368.43 144.012 367.918 144.164 367.422 144.468C366.934 144.772 366.53 145.188 366.21 145.716C365.898 146.244 365.742 146.836 365.742 147.492V153H364.374V143.148H365.742V145.044C365.798 144.764 365.986 144.456 366.306 144.12C366.634 143.776 367.05 143.48 367.554 143.232C368.066 142.984 368.622 142.86 369.222 142.86ZM379.798 151.68L383.422 143.148H384.838L378.238 157.992H376.822L379.054 153L375.01 143.148H376.438L379.798 151.68ZM387.226 148.236C387.234 148.924 387.37 149.568 387.634 150.168C387.906 150.768 388.314 151.252 388.858 151.62C389.402 151.988 390.086 152.172 390.91 152.172C391.582 152.172 392.142 152.064 392.59 151.848C393.046 151.624 393.406 151.368 393.67 151.08C393.942 150.784 394.134 150.52 394.246 150.288L395.098 151.128C394.802 151.584 394.458 151.976 394.066 152.304C393.682 152.624 393.226 152.868 392.698 153.036C392.178 153.204 391.558 153.288 390.838 153.288C389.79 153.288 388.894 153.056 388.15 152.592C387.414 152.12 386.85 151.48 386.458 150.672C386.074 149.864 385.882 148.956 385.882 147.948C385.882 146.988 386.074 146.124 386.458 145.356C386.842 144.588 387.394 143.98 388.114 143.532C388.842 143.084 389.718 142.86 390.742 142.86C391.67 142.86 392.474 143.064 393.154 143.472C393.842 143.88 394.374 144.448 394.75 145.176C395.134 145.896 395.326 146.736 395.326 147.696C395.326 147.768 395.322 147.86 395.314 147.972C395.314 148.084 395.31 148.172 395.302 148.236H387.226ZM393.958 147.096C393.95 146.664 393.842 146.208 393.634 145.728C393.434 145.24 393.102 144.828 392.638 144.492C392.182 144.148 391.554 143.976 390.754 143.976C389.922 143.976 389.258 144.144 388.762 144.48C388.274 144.808 387.918 145.212 387.694 145.692C387.47 146.172 387.334 146.64 387.286 147.096H393.958ZM399.306 153H397.914V136.488H399.306V153ZM404.087 153H402.695V136.488H404.087V153ZM411.724 153.288C410.74 153.288 409.864 153.06 409.096 152.604C408.336 152.14 407.736 151.516 407.296 150.732C406.864 149.948 406.648 149.072 406.648 148.104C406.648 147.136 406.864 146.256 407.296 145.464C407.736 144.664 408.336 144.032 409.096 143.568C409.864 143.096 410.74 142.86 411.724 142.86C412.708 142.86 413.576 143.096 414.328 143.568C415.088 144.032 415.684 144.664 416.116 145.464C416.548 146.256 416.764 147.136 416.764 148.104C416.764 149.072 416.548 149.948 416.116 150.732C415.684 151.516 415.088 152.14 414.328 152.604C413.576 153.06 412.708 153.288 411.724 153.288ZM411.724 152.052C412.468 152.052 413.116 151.88 413.668 151.536C414.228 151.192 414.66 150.72 414.964 150.12C415.276 149.52 415.432 148.848 415.432 148.104C415.432 147.352 415.276 146.676 414.964 146.076C414.66 145.468 414.228 144.988 413.668 144.636C413.116 144.276 412.468 144.096 411.724 144.096C410.972 144.096 410.316 144.276 409.756 144.636C409.196 144.988 408.76 145.468 408.448 146.076C408.136 146.676 407.98 147.352 407.98 148.104C407.98 148.848 408.136 149.52 408.448 150.12C408.76 150.72 409.196 151.192 409.756 151.536C410.316 151.88 410.972 152.052 411.724 152.052ZM425.215 144.852L422.623 153H421.015L418.603 143.148H420.067L421.939 151.476L424.507 143.34H425.923L428.479 151.476L430.375 143.148H431.839L429.439 153H427.831L425.215 144.852ZM434.679 153V143.148H436.035V153H434.679ZM435.375 139.152C435.087 139.152 434.839 139.052 434.631 138.852C434.431 138.644 434.331 138.396 434.331 138.108C434.331 137.812 434.435 137.564 434.643 137.364C434.851 137.156 435.095 137.052 435.375 137.052C435.567 137.052 435.743 137.1 435.903 137.196C436.071 137.292 436.203 137.42 436.299 137.58C436.403 137.732 436.455 137.908 436.455 138.108C436.455 138.396 436.347 138.644 436.131 138.852C435.923 139.052 435.671 139.152 435.375 139.152ZM444.48 142.86C445.104 142.86 445.712 142.996 446.304 143.268C446.896 143.532 447.384 143.956 447.768 144.54C448.152 145.116 448.344 145.864 448.344 146.784V153H446.952V147.108C446.952 146.012 446.696 145.224 446.184 144.744C445.672 144.256 445.016 144.012 444.216 144.012C443.688 144.012 443.176 144.164 442.68 144.468C442.192 144.772 441.788 145.188 441.468 145.716C441.156 146.244 441 146.836 441 147.492V153H439.632V143.148H441V145.044C441.056 144.764 441.244 144.456 441.564 144.12C441.892 143.776 442.308 143.48 442.812 143.232C443.324 142.984 443.88 142.86 444.48 142.86ZM455.86 158.256C455.044 158.256 454.332 158.168 453.724 157.992C453.116 157.816 452.604 157.58 452.188 157.284C451.78 156.996 451.464 156.684 451.24 156.348L452.248 155.46C452.392 155.66 452.592 155.884 452.848 156.132C453.104 156.38 453.468 156.592 453.94 156.768C454.412 156.952 455.04 157.044 455.824 157.044C456.608 157.044 457.264 156.868 457.792 156.516C458.328 156.164 458.732 155.696 459.004 155.112C459.276 154.528 459.412 153.884 459.412 153.18V152.832H460.744V153.288C460.744 154.36 460.524 155.264 460.084 156C459.652 156.744 459.064 157.304 458.32 157.68C457.584 158.064 456.764 158.256 455.86 158.256ZM459.412 153V150.936C459.356 151.152 459.168 151.448 458.848 151.824C458.536 152.2 458.1 152.54 457.54 152.844C456.988 153.14 456.332 153.288 455.572 153.288C454.684 153.288 453.864 153.084 453.112 152.676C452.368 152.26 451.768 151.664 451.312 150.888C450.864 150.104 450.64 149.168 450.64 148.08C450.64 146.992 450.864 146.06 451.312 145.284C451.768 144.5 452.368 143.9 453.112 143.484C453.864 143.068 454.684 142.86 455.572 142.86C456.332 142.86 456.988 143.004 457.54 143.292C458.092 143.572 458.528 143.896 458.848 144.264C459.176 144.632 459.36 144.94 459.4 145.188V143.148H460.744V153H459.412ZM451.996 148.08C451.996 148.912 452.176 149.628 452.536 150.228C452.896 150.828 453.36 151.288 453.928 151.608C454.504 151.928 455.108 152.088 455.74 152.088C456.436 152.088 457.056 151.924 457.6 151.596C458.144 151.268 458.572 150.804 458.884 150.204C459.204 149.604 459.364 148.896 459.364 148.08C459.364 147.264 459.204 146.556 458.884 145.956C458.572 145.356 458.144 144.892 457.6 144.564C457.056 144.228 456.436 144.06 455.74 144.06C455.108 144.06 454.504 144.224 453.928 144.552C453.36 144.872 452.896 145.332 452.536 145.932C452.176 146.532 451.996 147.248 451.996 148.08ZM465.496 150.48C465.936 150.48 466.308 150.636 466.612 150.948C466.924 151.252 467.08 151.648 467.08 152.136C467.08 152.672 466.972 153.172 466.756 153.636C466.548 154.1 466.272 154.512 465.928 154.872C465.584 155.24 465.208 155.532 464.8 155.748L464.092 155.076C464.324 154.964 464.568 154.816 464.824 154.632C465.088 154.448 465.324 154.232 465.532 153.984C465.74 153.744 465.872 153.48 465.928 153.192C465.752 153.28 465.556 153.324 465.34 153.324C464.964 153.316 464.648 153.176 464.392 152.904C464.136 152.632 464.008 152.32 464.008 151.968C464.008 151.672 464.072 151.412 464.2 151.188C464.328 150.964 464.504 150.792 464.728 150.672C464.96 150.544 465.216 150.48 465.496 150.48ZM220.42 177V174.936C220.364 175.152 220.176 175.448 219.856 175.824C219.544 176.2 219.108 176.54 218.548 176.844C217.996 177.14 217.34 177.288 216.58 177.288C215.692 177.288 214.872 177.084 214.12 176.676C213.376 176.26 212.776 175.664 212.32 174.888C211.872 174.104 211.648 173.168 211.648 172.08C211.648 170.992 211.872 170.06 212.32 169.284C212.776 168.5 213.376 167.9 214.12 167.484C214.872 167.068 215.692 166.86 216.58 166.86C217.34 166.86 217.996 167.004 218.548 167.292C219.1 167.572 219.536 167.896 219.856 168.264C220.184 168.632 220.368 168.94 220.408 169.188V167.148H221.752V177H220.42ZM213.004 172.08C213.004 172.912 213.184 173.628 213.544 174.228C213.904 174.828 214.368 175.288 214.936 175.608C215.512 175.928 216.116 176.088 216.748 176.088C217.444 176.088 218.064 175.924 218.608 175.596C219.152 175.268 219.58 174.804 219.892 174.204C220.212 173.604 220.372 172.896 220.372 172.08C220.372 171.264 220.212 170.556 219.892 169.956C219.58 169.356 219.152 168.892 218.608 168.564C218.064 168.228 217.444 168.06 216.748 168.06C216.116 168.06 215.512 168.224 214.936 168.552C214.368 168.872 213.904 169.332 213.544 169.932C213.184 170.532 213.004 171.248 213.004 172.08ZM229.698 166.86C230.322 166.86 230.93 166.996 231.522 167.268C232.114 167.532 232.602 167.956 232.986 168.54C233.37 169.116 233.562 169.864 233.562 170.784V177H232.17V171.108C232.17 170.012 231.914 169.224 231.402 168.744C230.89 168.256 230.234 168.012 229.434 168.012C228.906 168.012 228.394 168.164 227.898 168.468C227.41 168.772 227.006 169.188 226.686 169.716C226.374 170.244 226.218 170.836 226.218 171.492V177H224.85V167.148H226.218V169.044C226.274 168.764 226.462 168.456 226.782 168.12C227.11 167.776 227.526 167.48 228.03 167.232C228.542 166.984 229.098 166.86 229.698 166.86ZM240.995 177.288C240.107 177.288 239.303 177.084 238.583 176.676C237.863 176.26 237.291 175.664 236.867 174.888C236.443 174.104 236.231 173.168 236.231 172.08C236.231 170.992 236.443 170.06 236.867 169.284C237.291 168.5 237.863 167.9 238.583 167.484C239.303 167.068 240.107 166.86 240.995 166.86C241.755 166.86 242.427 167 243.011 167.28C243.595 167.56 244.059 167.884 244.403 168.252C244.747 168.612 244.935 168.924 244.967 169.188V160.488H246.359V177H245.003V174.936C244.947 175.192 244.743 175.504 244.391 175.872C244.047 176.24 243.583 176.568 242.999 176.856C242.415 177.144 241.747 177.288 240.995 177.288ZM241.163 176.088C241.859 176.088 242.495 175.924 243.071 175.596C243.647 175.268 244.107 174.804 244.451 174.204C244.795 173.604 244.967 172.896 244.967 172.08C244.967 171.264 244.795 170.556 244.451 169.956C244.107 169.356 243.647 168.892 243.071 168.564C242.495 168.228 241.859 168.06 241.163 168.06C240.539 168.06 239.955 168.224 239.411 168.552C238.875 168.872 238.439 169.332 238.103 169.932C237.767 170.532 237.599 171.248 237.599 172.08C237.599 172.912 237.767 173.628 238.103 174.228C238.439 174.828 238.875 175.288 239.411 175.608C239.955 175.928 240.539 176.088 241.163 176.088ZM260.567 168.852L257.975 177H256.367L253.955 167.148H255.419L257.291 175.476L259.859 167.34H261.275L263.831 175.476L265.727 167.148H267.191L264.791 177H263.183L260.567 168.852ZM274.747 166.86C275.363 166.86 275.967 166.996 276.559 167.268C277.151 167.532 277.639 167.956 278.023 168.54C278.407 169.116 278.599 169.864 278.599 170.784V177H277.207V171.108C277.207 170.012 276.951 169.224 276.439 168.744C275.935 168.256 275.287 168.012 274.495 168.012C273.959 168.012 273.443 168.164 272.947 168.468C272.459 168.772 272.055 169.188 271.735 169.716C271.415 170.244 271.255 170.836 271.255 171.492V177H269.863V160.488H271.255V169.044C271.311 168.764 271.499 168.456 271.819 168.12C272.147 167.776 272.563 167.48 273.067 167.232C273.579 166.984 274.139 166.86 274.747 166.86ZM282.008 177V167.148H283.364V177H282.008ZM282.704 163.152C282.416 163.152 282.168 163.052 281.96 162.852C281.76 162.644 281.66 162.396 281.66 162.108C281.66 161.812 281.764 161.564 281.972 161.364C282.18 161.156 282.424 161.052 282.704 161.052C282.896 161.052 283.072 161.1 283.232 161.196C283.4 161.292 283.532 161.42 283.628 161.58C283.732 161.732 283.784 161.908 283.784 162.108C283.784 162.396 283.676 162.644 283.46 162.852C283.252 163.052 283 163.152 282.704 163.152ZM286.048 167.148H288.1V163.104H289.456V167.148H292.144V168.384H289.456V174.228C289.456 174.884 289.576 175.352 289.816 175.632C290.056 175.912 290.356 176.052 290.716 176.052C291.06 176.052 291.32 175.992 291.496 175.872C291.672 175.752 291.776 175.672 291.808 175.632L292.444 176.676C292.396 176.716 292.288 176.788 292.12 176.892C291.952 176.988 291.732 177.076 291.46 177.156C291.188 177.244 290.86 177.288 290.476 177.288C289.812 177.288 289.248 177.076 288.784 176.652C288.328 176.22 288.1 175.532 288.1 174.588V168.384H286.048V167.148ZM295.094 172.236C295.102 172.924 295.238 173.568 295.502 174.168C295.774 174.768 296.182 175.252 296.726 175.62C297.27 175.988 297.954 176.172 298.778 176.172C299.45 176.172 300.01 176.064 300.458 175.848C300.914 175.624 301.274 175.368 301.538 175.08C301.81 174.784 302.002 174.52 302.114 174.288L302.966 175.128C302.67 175.584 302.326 175.976 301.934 176.304C301.55 176.624 301.094 176.868 300.566 177.036C300.046 177.204 299.426 177.288 298.706 177.288C297.658 177.288 296.762 177.056 296.018 176.592C295.282 176.12 294.718 175.48 294.326 174.672C293.942 173.864 293.75 172.956 293.75 171.948C293.75 170.988 293.942 170.124 294.326 169.356C294.71 168.588 295.262 167.98 295.982 167.532C296.71 167.084 297.586 166.86 298.61 166.86C299.538 166.86 300.342 167.064 301.022 167.472C301.71 167.88 302.242 168.448 302.618 169.176C303.002 169.896 303.194 170.736 303.194 171.696C303.194 171.768 303.19 171.86 303.182 171.972C303.182 172.084 303.178 172.172 303.17 172.236H295.094ZM301.826 171.096C301.818 170.664 301.71 170.208 301.502 169.728C301.302 169.24 300.97 168.828 300.506 168.492C300.05 168.148 299.422 167.976 298.622 167.976C297.79 167.976 297.126 168.144 296.63 168.48C296.142 168.808 295.786 169.212 295.562 169.692C295.338 170.172 295.202 170.64 295.154 171.096H301.826ZM310.605 166.86C311.229 166.86 311.837 166.996 312.429 167.268C313.021 167.532 313.509 167.956 313.893 168.54C314.277 169.116 314.469 169.864 314.469 170.784V177H313.077V171.108C313.077 170.012 312.821 169.224 312.309 168.744C311.797 168.256 311.141 168.012 310.341 168.012C309.813 168.012 309.301 168.164 308.805 168.468C308.317 168.772 307.913 169.188 307.593 169.716C307.281 170.244 307.125 170.836 307.125 171.492V177H305.757V167.148H307.125V169.044C307.181 168.764 307.369 168.456 307.689 168.12C308.017 167.776 308.433 167.48 308.937 167.232C309.449 166.984 310.005 166.86 310.605 166.86ZM317.773 177V167.148H319.129V177H317.773ZM318.469 163.152C318.181 163.152 317.933 163.052 317.725 162.852C317.525 162.644 317.425 162.396 317.425 162.108C317.425 161.812 317.529 161.564 317.737 161.364C317.945 161.156 318.189 161.052 318.469 161.052C318.661 161.052 318.837 161.1 318.997 161.196C319.165 161.292 319.297 161.42 319.393 161.58C319.497 161.732 319.549 161.908 319.549 162.108C319.549 162.396 319.441 162.644 319.225 162.852C319.017 163.052 318.765 163.152 318.469 163.152ZM327.573 166.86C328.197 166.86 328.805 166.996 329.397 167.268C329.989 167.532 330.477 167.956 330.861 168.54C331.245 169.116 331.437 169.864 331.437 170.784V177H330.045V171.108C330.045 170.012 329.789 169.224 329.277 168.744C328.765 168.256 328.109 168.012 327.309 168.012C326.781 168.012 326.269 168.164 325.773 168.468C325.285 168.772 324.881 169.188 324.561 169.716C324.249 170.244 324.093 170.836 324.093 171.492V177H322.725V167.148H324.093V169.044C324.149 168.764 324.337 168.456 324.657 168.12C324.985 167.776 325.401 167.48 325.905 167.232C326.417 166.984 326.973 166.86 327.573 166.86ZM338.954 182.256C338.138 182.256 337.426 182.168 336.818 181.992C336.21 181.816 335.698 181.58 335.282 181.284C334.874 180.996 334.558 180.684 334.334 180.348L335.342 179.46C335.486 179.66 335.686 179.884 335.942 180.132C336.198 180.38 336.562 180.592 337.034 180.768C337.506 180.952 338.134 181.044 338.918 181.044C339.702 181.044 340.358 180.868 340.886 180.516C341.422 180.164 341.826 179.696 342.098 179.112C342.37 178.528 342.506 177.884 342.506 177.18V176.832H343.838V177.288C343.838 178.36 343.618 179.264 343.178 180C342.746 180.744 342.158 181.304 341.414 181.68C340.678 182.064 339.858 182.256 338.954 182.256ZM342.506 177V174.936C342.45 175.152 342.262 175.448 341.942 175.824C341.63 176.2 341.194 176.54 340.634 176.844C340.082 177.14 339.426 177.288 338.666 177.288C337.778 177.288 336.958 177.084 336.206 176.676C335.462 176.26 334.862 175.664 334.406 174.888C333.958 174.104 333.734 173.168 333.734 172.08C333.734 170.992 333.958 170.06 334.406 169.284C334.862 168.5 335.462 167.9 336.206 167.484C336.958 167.068 337.778 166.86 338.666 166.86C339.426 166.86 340.082 167.004 340.634 167.292C341.186 167.572 341.622 167.896 341.942 168.264C342.27 168.632 342.454 168.94 342.494 169.188V167.148H343.838V177H342.506ZM335.09 172.08C335.09 172.912 335.27 173.628 335.63 174.228C335.99 174.828 336.454 175.288 337.022 175.608C337.598 175.928 338.202 176.088 338.834 176.088C339.53 176.088 340.15 175.924 340.694 175.596C341.238 175.268 341.666 174.804 341.978 174.204C342.298 173.604 342.458 172.896 342.458 172.08C342.458 171.264 342.298 170.556 341.978 169.956C341.666 169.356 341.238 168.892 340.694 168.564C340.15 168.228 339.53 168.06 338.834 168.06C338.202 168.06 337.598 168.224 337.022 168.552C336.454 168.872 335.99 169.332 335.63 169.932C335.27 170.532 335.09 171.248 335.09 172.08ZM349.094 177.288C348.718 177.288 348.398 177.156 348.134 176.892C347.878 176.628 347.75 176.312 347.75 175.944C347.75 175.56 347.878 175.236 348.134 174.972C348.398 174.708 348.718 174.576 349.094 174.576C349.47 174.576 349.79 174.708 350.054 174.972C350.318 175.236 350.45 175.56 350.45 175.944C350.45 176.312 350.318 176.628 350.054 176.892C349.79 177.156 349.47 177.288 349.094 177.288Z" fill="white"/>
<path d="M510.172 199.686L516.935 192.884M516.935 192.884L510.172 186.083M516.935 192.884H498.9M528.207 192.884C528.207 204.154 519.123 213.289 507.918 213.289C496.712 213.289 487.628 204.154 487.628 192.884C487.628 181.615 496.712 172.479 507.918 172.479C519.123 172.479 528.207 181.615 528.207 192.884Z" stroke="white" stroke-width="4" stroke-linecap="round" stroke-linejoin="round"/>
</g>
<defs>
<clipPath id="clip0_208_329">
<rect width="550" height="230" fill="white"/>
</clipPath>
</defs>
</svg>
