<svg width="233" height="36" viewBox="0 0 233 36" fill="none" xmlns="http://www.w3.org/2000/svg">
<path d="M0.839453 2H10.7645C14.2811 2 17.1895 2.70833 19.4895 4.125C21.8061 5.525 23.5395 7.46667 24.6895 9.95C25.8395 12.4333 26.4145 15.275 26.4145 18.475C26.4145 21.6917 25.8395 24.5417 24.6895 27.025C23.5395 29.5083 21.8061 31.4583 19.4895 32.875C17.1895 34.2917 14.2811 35 10.7645 35H0.839453V2ZM8.28945 8.625V28.375H10.0895C11.9728 28.375 13.5311 27.95 14.7645 27.1C15.9978 26.2333 16.9228 25.0583 17.5395 23.575C18.1728 22.075 18.4895 20.3917 18.4895 18.525C18.4895 16.6417 18.1811 14.9583 17.5645 13.475C16.9645 11.975 16.0395 10.7917 14.7895 9.925C13.5395 9.05833 11.9728 8.625 10.0895 8.625H8.28945ZM46.7438 35V31.675C46.5938 32.0083 46.2104 32.4917 45.5938 33.125C44.9938 33.7583 44.1938 34.3333 43.1938 34.85C42.1938 35.35 41.0271 35.6 39.6938 35.6C37.6938 35.6 35.9438 35.1167 34.4438 34.15C32.9438 33.1667 31.7771 31.8583 30.9438 30.225C30.1104 28.575 29.6938 26.75 29.6938 24.75C29.6938 22.75 30.1104 20.9333 30.9438 19.3C31.7771 17.65 32.9438 16.3333 34.4438 15.35C35.9438 14.3667 37.6938 13.875 39.6938 13.875C40.9771 13.875 42.1021 14.0833 43.0688 14.5C44.0354 14.9 44.8188 15.3833 45.4188 15.95C46.0188 16.5 46.4354 17.0083 46.6688 17.475V14.475H54.2188V35H46.7438ZM37.1438 24.75C37.1438 25.6833 37.3604 26.525 37.7938 27.275C38.2271 28.0083 38.8021 28.5833 39.5188 29C40.2521 29.4167 41.0604 29.625 41.9438 29.625C42.8604 29.625 43.6688 29.4167 44.3688 29C45.0688 28.5833 45.6188 28.0083 46.0188 27.275C46.4354 26.525 46.6438 25.6833 46.6438 24.75C46.6438 23.8167 46.4354 22.9833 46.0188 22.25C45.6188 21.5 45.0688 20.9167 44.3688 20.5C43.6688 20.0667 42.8604 19.85 41.9438 19.85C41.0604 19.85 40.2521 20.0667 39.5188 20.5C38.8021 20.9167 38.2271 21.5 37.7938 22.25C37.3604 22.9833 37.1438 23.8167 37.1438 24.75ZM68.2414 13.875C69.5914 13.875 70.8247 13.9917 71.9414 14.225C73.0581 14.4417 73.9914 14.6917 74.7414 14.975C75.5081 15.2583 75.9997 15.4917 76.2164 15.675L73.7414 20.15C73.4247 19.9167 72.8331 19.6167 71.9664 19.25C71.1164 18.8833 70.1664 18.7 69.1164 18.7C68.3164 18.7 67.6414 18.825 67.0914 19.075C66.5414 19.3083 66.2664 19.6833 66.2664 20.2C66.2664 20.7167 66.5664 21.1333 67.1664 21.45C67.7831 21.75 68.6664 22.0167 69.8164 22.25C70.8164 22.45 71.8331 22.7667 72.8664 23.2C73.8997 23.6333 74.7581 24.275 75.4414 25.125C76.1414 25.9583 76.4914 27.075 76.4914 28.475C76.4914 29.9083 76.1831 31.0917 75.5664 32.025C74.9497 32.9583 74.1331 33.6833 73.1164 34.2C72.0997 34.7167 70.9997 35.075 69.8164 35.275C68.6331 35.4917 67.4831 35.6 66.3664 35.6C64.7997 35.6 63.4331 35.4583 62.2664 35.175C61.1164 34.8917 60.1831 34.5667 59.4664 34.2C58.7497 33.8333 58.2497 33.5417 57.9664 33.325L60.4164 28.325C60.8497 28.6917 61.5581 29.1083 62.5414 29.575C63.5247 30.025 64.5664 30.25 65.6664 30.25C66.7331 30.25 67.5581 30.0917 68.1414 29.775C68.7247 29.4583 69.0164 29.0417 69.0164 28.525C69.0164 28.1083 68.8747 27.775 68.5914 27.525C68.3081 27.275 67.9081 27.0583 67.3914 26.875C66.8747 26.6917 66.2497 26.525 65.5164 26.375C64.8497 26.2417 64.1414 26.0333 63.3914 25.75C62.6414 25.4667 61.9331 25.0833 61.2664 24.6C60.5997 24.1 60.0581 23.475 59.6414 22.725C59.2247 21.975 59.0164 21.0667 59.0164 20C59.0164 18.6333 59.4581 17.5 60.3414 16.6C61.2247 15.7 62.3664 15.025 63.7664 14.575C65.1664 14.1083 66.6581 13.875 68.2414 13.875ZM94.8258 13.875C96.2591 13.875 97.6591 14.1667 99.0258 14.75C100.392 15.3333 101.517 16.2583 102.401 17.525C103.284 18.775 103.726 20.425 103.726 22.475V35H96.1258V23.725C96.1258 22.2583 95.7924 21.1583 95.1258 20.425C94.4758 19.675 93.5841 19.3 92.4508 19.3C91.7008 19.3 90.9841 19.5 90.3008 19.9C89.6174 20.2833 89.0591 20.8333 88.6258 21.55C88.2091 22.25 88.0008 23.0583 88.0008 23.975V35H80.3758V0.599999H88.0008V17.5C88.1841 16.95 88.5924 16.4 89.2258 15.85C89.8758 15.2833 90.6841 14.8167 91.6508 14.45C92.6341 14.0667 93.6924 13.875 94.8258 13.875ZM108.086 35V0.599999H115.686V17.475C115.836 17.0083 116.22 16.5 116.836 15.95C117.47 15.3833 118.295 14.9 119.311 14.5C120.345 14.0833 121.511 13.875 122.811 13.875C124.811 13.875 126.545 14.3667 128.011 15.35C129.478 16.3333 130.611 17.65 131.411 19.3C132.211 20.9333 132.611 22.75 132.611 24.75C132.611 26.75 132.211 28.575 131.411 30.225C130.611 31.8583 129.478 33.1667 128.011 34.15C126.545 35.1167 124.811 35.6 122.811 35.6C121.711 35.6 120.67 35.4 119.686 35C118.72 34.6167 117.878 34.125 117.161 33.525C116.461 32.9083 115.945 32.2917 115.611 31.675V35H108.086ZM125.161 24.75C125.161 23.8167 124.953 22.9833 124.536 22.25C124.136 21.5 123.578 20.9167 122.861 20.5C122.161 20.0667 121.37 19.85 120.486 19.85C119.57 19.85 118.745 20.0667 118.011 20.5C117.295 20.9167 116.728 21.5 116.311 22.25C115.895 22.9833 115.686 23.8167 115.686 24.75C115.686 25.6833 115.895 26.525 116.311 27.275C116.728 28.0083 117.295 28.5833 118.011 29C118.745 29.4167 119.57 29.625 120.486 29.625C121.37 29.625 122.161 29.4167 122.861 29C123.578 28.5833 124.136 28.0083 124.536 27.275C124.953 26.525 125.161 25.6833 125.161 24.75ZM146.591 35.6C144.341 35.6 142.341 35.1417 140.591 34.225C138.858 33.2917 137.491 32.0167 136.491 30.4C135.508 28.7667 135.016 26.9 135.016 24.8C135.016 22.7 135.508 20.8333 136.491 19.2C137.491 17.55 138.858 16.25 140.591 15.3C142.341 14.35 144.341 13.875 146.591 13.875C148.841 13.875 150.824 14.35 152.541 15.3C154.258 16.25 155.599 17.55 156.566 19.2C157.533 20.8333 158.016 22.7 158.016 24.8C158.016 26.9 157.533 28.7667 156.566 30.4C155.599 32.0167 154.258 33.2917 152.541 34.225C150.824 35.1417 148.841 35.6 146.591 35.6ZM146.591 29.35C147.458 29.35 148.208 29.1583 148.841 28.775C149.474 28.3917 149.966 27.85 150.316 27.15C150.666 26.45 150.841 25.6583 150.841 24.775C150.841 23.875 150.666 23.075 150.316 22.375C149.966 21.675 149.474 21.125 148.841 20.725C148.208 20.325 147.458 20.125 146.591 20.125C145.724 20.125 144.966 20.325 144.316 20.725C143.683 21.125 143.183 21.675 142.816 22.375C142.466 23.075 142.291 23.875 142.291 24.775C142.291 25.6583 142.466 26.45 142.816 27.15C143.183 27.85 143.683 28.3917 144.316 28.775C144.966 29.1583 145.724 29.35 146.591 29.35ZM177.896 35V31.675C177.746 32.0083 177.363 32.4917 176.746 33.125C176.146 33.7583 175.346 34.3333 174.346 34.85C173.346 35.35 172.179 35.6 170.846 35.6C168.846 35.6 167.096 35.1167 165.596 34.15C164.096 33.1667 162.929 31.8583 162.096 30.225C161.263 28.575 160.846 26.75 160.846 24.75C160.846 22.75 161.263 20.9333 162.096 19.3C162.929 17.65 164.096 16.3333 165.596 15.35C167.096 14.3667 168.846 13.875 170.846 13.875C172.129 13.875 173.254 14.0833 174.221 14.5C175.188 14.9 175.971 15.3833 176.571 15.95C177.171 16.5 177.588 17.0083 177.821 17.475V14.475H185.371V35H177.896ZM168.296 24.75C168.296 25.6833 168.513 26.525 168.946 27.275C169.379 28.0083 169.954 28.5833 170.671 29C171.404 29.4167 172.213 29.625 173.096 29.625C174.013 29.625 174.821 29.4167 175.521 29C176.221 28.5833 176.771 28.0083 177.171 27.275C177.588 26.525 177.796 25.6833 177.796 24.75C177.796 23.8167 177.588 22.9833 177.171 22.25C176.771 21.5 176.221 20.9167 175.521 20.5C174.821 20.0667 174.013 19.85 173.096 19.85C172.213 19.85 171.404 20.0667 170.671 20.5C169.954 20.9167 169.379 21.5 168.946 22.25C168.513 22.9833 168.296 23.8167 168.296 24.75ZM197.144 35H189.544V14.475H197.144V17.65H197.019C197.152 17.2667 197.477 16.7833 197.994 16.2C198.51 15.6 199.235 15.0667 200.169 14.6C201.102 14.1167 202.244 13.875 203.594 13.875C204.544 13.875 205.419 14.025 206.219 14.325C207.019 14.6083 207.602 14.8833 207.969 15.15L205.019 21.325C204.785 21.0417 204.369 20.75 203.769 20.45C203.185 20.1333 202.452 19.975 201.569 19.975C200.552 19.975 199.71 20.2333 199.044 20.75C198.394 21.2667 197.91 21.8917 197.594 22.625C197.294 23.3583 197.144 24.05 197.144 24.7V35ZM218.281 35.6C216.298 35.6 214.573 35.1167 213.106 34.15C211.639 33.1667 210.498 31.8583 209.681 30.225C208.881 28.575 208.481 26.75 208.481 24.75C208.481 22.75 208.881 20.9333 209.681 19.3C210.498 17.65 211.639 16.3333 213.106 15.35C214.573 14.3667 216.298 13.875 218.281 13.875C219.598 13.875 220.764 14.0833 221.781 14.5C222.798 14.9 223.623 15.3833 224.256 15.95C224.889 16.5 225.273 17.0083 225.406 17.475V0.599999H233.006V35H225.481V31.675C225.164 32.2917 224.648 32.9083 223.931 33.525C223.214 34.125 222.373 34.6167 221.406 35C220.439 35.4 219.398 35.6 218.281 35.6ZM220.606 29.625C221.523 29.625 222.339 29.4167 223.056 29C223.789 28.5833 224.364 28.0083 224.781 27.275C225.198 26.525 225.406 25.6833 225.406 24.75C225.406 23.8167 225.198 22.9833 224.781 22.25C224.364 21.5 223.789 20.9167 223.056 20.5C222.339 20.0667 221.523 19.85 220.606 19.85C219.723 19.85 218.923 20.0667 218.206 20.5C217.506 20.9167 216.948 21.5 216.531 22.25C216.131 22.9833 215.931 23.8167 215.931 24.75C215.931 25.6833 216.131 26.525 216.531 27.275C216.948 28.0083 217.506 28.5833 218.206 29C218.923 29.4167 219.723 29.625 220.606 29.625Z" fill="#1E2C90"/>
</svg>
