<svg width="480" height="230" viewBox="0 0 480 230" fill="none" xmlns="http://www.w3.org/2000/svg">
<rect width="480" height="230" rx="20" fill="#1E2C90"/>
<path d="M37.3741 177.6H45.7741C47.2541 177.6 48.6341 177.8 49.9141 178.2C51.1941 178.6 52.2274 179.267 53.0141 180.2C53.8141 181.133 54.2141 182.407 54.2141 184.02C54.2141 185.1 54.0074 186.067 53.5941 186.92C53.1807 187.773 52.6541 188.473 52.0141 189.02C51.3741 189.553 50.7007 189.893 49.9941 190.04C50.5941 190.107 51.2074 190.287 51.8341 190.58C52.4607 190.873 53.0407 191.28 53.5741 191.8C54.1074 192.32 54.5341 192.973 54.8541 193.76C55.1874 194.547 55.3541 195.467 55.3541 196.52C55.3541 197.987 55.0341 199.287 54.3941 200.42C53.7674 201.54 52.8341 202.42 51.5941 203.06C50.3674 203.687 48.8407 204 47.0141 204H37.3741V177.6ZM42.3741 199.96H45.9941C47.0074 199.96 47.8141 199.793 48.4141 199.46C49.0274 199.127 49.4674 198.673 49.7341 198.1C50.0007 197.527 50.1341 196.873 50.1341 196.14C50.1341 194.967 49.7607 194.067 49.0141 193.44C48.2674 192.813 47.2074 192.5 45.8341 192.5H42.3741V199.96ZM42.3741 188.54H45.5541C46.3807 188.54 47.0607 188.38 47.5941 188.06C48.1407 187.727 48.5541 187.287 48.8341 186.74C49.1141 186.18 49.2541 185.573 49.2541 184.92C49.2541 183.667 48.8874 182.807 48.1541 182.34C47.4341 181.873 46.4541 181.64 45.2141 181.64H42.3741V188.54ZM72.1272 204V201.14C72.0072 201.433 71.7005 201.847 71.2072 202.38C70.7139 202.913 70.0472 203.4 69.2072 203.84C68.3805 204.267 67.4072 204.48 66.2872 204.48C64.7139 204.48 63.3205 204.107 62.1072 203.36C60.8939 202.6 59.9405 201.567 59.2472 200.26C58.5672 198.94 58.2272 197.453 58.2272 195.8C58.2272 194.147 58.5672 192.667 59.2472 191.36C59.9405 190.04 60.8939 189 62.1072 188.24C63.3205 187.48 64.7139 187.1 66.2872 187.1C67.3805 187.1 68.3272 187.287 69.1272 187.66C69.9405 188.02 70.5939 188.447 71.0872 188.94C71.5939 189.42 71.9205 189.853 72.0672 190.24V187.58H77.1072V204H72.1272ZM63.2072 195.8C63.2072 196.72 63.4139 197.533 63.8272 198.24C64.2405 198.933 64.7872 199.473 65.4672 199.86C66.1472 200.247 66.8872 200.44 67.6872 200.44C68.5272 200.44 69.2739 200.247 69.9272 199.86C70.5805 199.46 71.0939 198.913 71.4672 198.22C71.8539 197.513 72.0472 196.707 72.0472 195.8C72.0472 194.893 71.8539 194.093 71.4672 193.4C71.0939 192.693 70.5805 192.14 69.9272 191.74C69.2739 191.34 68.5272 191.14 67.6872 191.14C66.8872 191.14 66.1472 191.34 65.4672 191.74C64.7872 192.127 64.2405 192.673 63.8272 193.38C63.4139 194.073 63.2072 194.88 63.2072 195.8ZM89.5975 212.78C88.3975 212.78 87.2442 212.667 86.1375 212.44C85.0442 212.213 84.0508 211.86 83.1575 211.38C82.2642 210.9 81.5175 210.273 80.9175 209.5L83.9975 206.38C84.2775 206.74 84.6375 207.1 85.0775 207.46C85.5308 207.833 86.1042 208.14 86.7975 208.38C87.4908 208.633 88.3575 208.76 89.3975 208.76C90.3842 208.76 91.2308 208.567 91.9375 208.18C92.6575 207.807 93.2108 207.273 93.5975 206.58C93.9975 205.887 94.1975 205.08 94.1975 204.16V203.7H99.1775V204.46C99.1775 206.273 98.7508 207.8 97.8975 209.04C97.0442 210.28 95.8975 211.213 94.4575 211.84C93.0175 212.467 91.3975 212.78 89.5975 212.78ZM94.1975 204V201.14C94.0775 201.433 93.7708 201.847 93.2775 202.38C92.7842 202.913 92.1175 203.4 91.2775 203.84C90.4508 204.267 89.4775 204.48 88.3575 204.48C86.7842 204.48 85.3908 204.107 84.1775 203.36C82.9642 202.6 82.0108 201.567 81.3175 200.26C80.6375 198.94 80.2975 197.453 80.2975 195.8C80.2975 194.147 80.6375 192.667 81.3175 191.36C82.0108 190.04 82.9642 189 84.1775 188.24C85.3908 187.48 86.7842 187.1 88.3575 187.1C89.4508 187.1 90.3975 187.287 91.1975 187.66C92.0108 188.02 92.6642 188.447 93.1575 188.94C93.6642 189.42 93.9908 189.853 94.1375 190.24V187.58H99.1775V204H94.1975ZM85.2775 195.8C85.2775 196.72 85.4842 197.533 85.8975 198.24C86.3108 198.933 86.8575 199.473 87.5375 199.86C88.2175 200.247 88.9575 200.44 89.7575 200.44C90.5975 200.44 91.3442 200.247 91.9975 199.86C92.6508 199.46 93.1642 198.913 93.5375 198.22C93.9242 197.513 94.1175 196.707 94.1175 195.8C94.1175 194.893 93.9242 194.093 93.5375 193.4C93.1642 192.693 92.6508 192.14 91.9975 191.74C91.3442 191.34 90.5975 191.14 89.7575 191.14C88.9575 191.14 88.2175 191.34 87.5375 191.74C86.8575 192.127 86.3108 192.673 85.8975 193.38C85.4842 194.073 85.2775 194.88 85.2775 195.8Z" fill="white"/>
<rect x="148" y="178" width="313" height="37" rx="18.5" fill="white"/>
<path d="M440.605 200.667L444.762 196.5M444.762 196.5L440.605 192.333M444.762 196.5H433.676M451.691 196.5C451.691 203.404 446.107 209 439.219 209C432.331 209 426.747 203.404 426.747 196.5C426.747 189.596 432.331 184 439.219 184C446.107 184 451.691 189.596 451.691 196.5Z" stroke="#1E2C90" stroke-width="4" stroke-linecap="round" stroke-linejoin="round"/>
</svg>
