<?xml version="1.0" standalone="no"?>
<!DOCTYPE svg PUBLIC "-//W3C//DTD SVG 20010904//EN"
 "http://www.w3.org/TR/2001/REC-SVG-20010904/DTD/svg10.dtd">
<svg version="1.0" xmlns="http://www.w3.org/2000/svg"
 width="512.000000pt" height="512.000000pt" viewBox="0 0 512.000000 512.000000"
 preserveAspectRatio="xMidYMid meet">

<g transform="translate(0.000000,512.000000) scale(0.100000,-0.100000)"
fill="#000000" stroke="none">
<path d="M2283 4865 c-261 -33 -501 -105 -738 -220 -475 -230 -838 -593 -1071
-1070 -561 -1151 -81 -2542 1071 -3100 348 -169 697 -244 1080 -232 284 9 531
58 773 152 790 309 1342 1010 1464 1860 17 117 17 493 0 610 -148 1033 -928
1828 -1952 1990 -146 23 -482 28 -627 10z m-202 -1661 l479 -479 453 453 453
452 48 0 c41 0 53 -5 82 -34 29 -29 34 -41 34 -82 l0 -48 -452 -453 -453 -453
478 -478 c446 -446 479 -481 484 -519 13 -97 -87 -165 -175 -119 -15 8 -236
224 -492 480 l-465 466 -452 -451 -451 -452 -53 5 c-72 7 -109 47 -109 115 l0
47 450 451 450 450 -466 465 c-256 256 -472 477 -480 492 -29 56 -9 133 44
163 17 10 43 14 71 11 43 -4 53 -13 522 -482z"/>
</g>
</svg>
