<svg width="480" height="230" viewBox="0 0 480 230" fill="none" xmlns="http://www.w3.org/2000/svg">
<rect width="480" height="230" rx="20" fill="#1E2C90"/>
<path d="M48.4781 199.54C49.8648 199.54 51.0981 199.347 52.1781 198.96C53.2581 198.56 54.0515 198.167 54.5581 197.78L56.6981 202.04C56.0848 202.573 55.0248 203.113 53.5181 203.66C52.0248 204.207 50.2381 204.48 48.1581 204.48C46.2115 204.48 44.3915 204.14 42.6981 203.46C41.0048 202.767 39.5181 201.807 38.2381 200.58C36.9581 199.34 35.9581 197.893 35.2381 196.24C34.5181 194.573 34.1581 192.773 34.1581 190.84C34.1581 188.907 34.5115 187.107 35.2181 185.44C35.9381 183.76 36.9381 182.3 38.2181 181.06C39.4981 179.82 40.9848 178.853 42.6781 178.16C44.3848 177.467 46.2115 177.12 48.1581 177.12C50.2381 177.12 52.0248 177.393 53.5181 177.94C55.0248 178.487 56.0848 179.027 56.6981 179.56L54.5581 183.82C54.0515 183.433 53.2581 183.047 52.1781 182.66C51.0981 182.26 49.8648 182.06 48.4781 182.06C47.0648 182.06 45.8048 182.287 44.6981 182.74C43.6048 183.193 42.6715 183.827 41.8981 184.64C41.1381 185.44 40.5581 186.367 40.1581 187.42C39.7581 188.473 39.5581 189.593 39.5581 190.78C39.5581 191.98 39.7581 193.113 40.1581 194.18C40.5581 195.233 41.1381 196.167 41.8981 196.98C42.6715 197.78 43.6048 198.407 44.6981 198.86C45.8048 199.313 47.0648 199.54 48.4781 199.54ZM73.4241 204V201.14C73.3041 201.433 72.9974 201.847 72.5041 202.38C72.0107 202.913 71.3441 203.4 70.5041 203.84C69.6774 204.267 68.7041 204.48 67.5841 204.48C66.0107 204.48 64.6174 204.107 63.4041 203.36C62.1907 202.6 61.2374 201.567 60.5441 200.26C59.8641 198.94 59.5241 197.453 59.5241 195.8C59.5241 194.147 59.8641 192.667 60.5441 191.36C61.2374 190.04 62.1907 189 63.4041 188.24C64.6174 187.48 66.0107 187.1 67.5841 187.1C68.6774 187.1 69.6241 187.287 70.4241 187.66C71.2374 188.02 71.8907 188.447 72.3841 188.94C72.8907 189.42 73.2174 189.853 73.3641 190.24V187.58H78.4041V204H73.4241ZM64.5041 195.8C64.5041 196.72 64.7107 197.533 65.1241 198.24C65.5374 198.933 66.0841 199.473 66.7641 199.86C67.4441 200.247 68.1841 200.44 68.9841 200.44C69.8241 200.44 70.5707 200.247 71.2241 199.86C71.8774 199.46 72.3907 198.913 72.7641 198.22C73.1507 197.513 73.3441 196.707 73.3441 195.8C73.3441 194.893 73.1507 194.093 72.7641 193.4C72.3907 192.693 71.8774 192.14 71.2241 191.74C70.5707 191.34 69.8241 191.14 68.9841 191.14C68.1841 191.14 67.4441 191.34 66.7641 191.74C66.0841 192.127 65.5374 192.673 65.1241 193.38C64.7107 194.073 64.5041 194.88 64.5041 195.8ZM87.6144 212.32H82.5744V187.58H87.6744V190.24C87.8344 189.853 88.181 189.413 88.7144 188.92C89.2477 188.427 89.941 188 90.7944 187.64C91.661 187.28 92.6477 187.1 93.7544 187.1C95.3144 187.1 96.6744 187.48 97.8344 188.24C98.9944 189 99.8877 190.04 100.514 191.36C101.154 192.667 101.474 194.147 101.474 195.8C101.474 197.453 101.141 198.94 100.474 200.26C99.8077 201.567 98.881 202.6 97.6944 203.36C96.5077 204.107 95.1277 204.48 93.5544 204.48C92.3677 204.48 91.3477 204.267 90.4944 203.84C89.641 203.413 88.9744 202.933 88.4944 202.4C88.0144 201.867 87.721 201.447 87.6144 201.14V212.32ZM96.4944 195.8C96.4944 194.88 96.2944 194.073 95.8944 193.38C95.5077 192.673 94.9877 192.127 94.3344 191.74C93.681 191.34 92.9544 191.14 92.1544 191.14C91.3144 191.14 90.5544 191.34 89.8744 191.74C89.1944 192.14 88.6544 192.693 88.2544 193.4C87.8677 194.093 87.6744 194.893 87.6744 195.8C87.6744 196.707 87.8677 197.513 88.2544 198.22C88.6544 198.913 89.1944 199.46 89.8744 199.86C90.5544 200.247 91.3144 200.44 92.1544 200.44C92.9544 200.44 93.681 200.247 94.3344 199.86C94.9877 199.473 95.5077 198.933 95.8944 198.24C96.2944 197.533 96.4944 196.72 96.4944 195.8Z" fill="white"/>
<rect x="148" y="178" width="313" height="37" rx="18.5" fill="white"/>
<path d="M440.605 200.667L444.762 196.5M444.762 196.5L440.605 192.333M444.762 196.5H433.676M451.691 196.5C451.691 203.404 446.107 209 439.219 209C432.331 209 426.747 203.404 426.747 196.5C426.747 189.596 432.331 184 439.219 184C446.107 184 451.691 189.596 451.691 196.5Z" stroke="#1E2C90" stroke-width="4" stroke-linecap="round" stroke-linejoin="round"/>
</svg>
