<svg width="480" height="230" viewBox="0 0 480 230" fill="none" xmlns="http://www.w3.org/2000/svg">
<rect width="480" height="230" rx="20" fill="#1E2C90"/>
<path d="M34.6383 201.54C36.0249 201.54 37.2583 201.347 38.3383 200.96C39.4183 200.56 40.2116 200.167 40.7183 199.78L42.8583 204.04C42.245 204.573 41.1849 205.113 39.6783 205.66C38.1849 206.207 36.3983 206.48 34.3183 206.48C32.3716 206.48 30.5516 206.14 28.8583 205.46C27.1649 204.767 25.6783 203.807 24.3983 202.58C23.1183 201.34 22.1183 199.893 21.3983 198.24C20.6783 196.573 20.3183 194.773 20.3183 192.84C20.3183 190.907 20.6716 189.107 21.3783 187.44C22.0983 185.76 23.0983 184.3 24.3783 183.06C25.6583 181.82 27.1449 180.853 28.8383 180.16C30.5449 179.467 32.3716 179.12 34.3183 179.12C36.3983 179.12 38.1849 179.393 39.6783 179.94C41.1849 180.487 42.245 181.027 42.8583 181.56L40.7183 185.82C40.2116 185.433 39.4183 185.047 38.3383 184.66C37.2583 184.26 36.0249 184.06 34.6383 184.06C33.2249 184.06 31.9649 184.287 30.8583 184.74C29.7649 185.193 28.8316 185.827 28.0583 186.64C27.2983 187.44 26.7183 188.367 26.3183 189.42C25.9183 190.473 25.7183 191.593 25.7183 192.78C25.7183 193.98 25.9183 195.113 26.3183 196.18C26.7183 197.233 27.2983 198.167 28.0583 198.98C28.8316 199.78 29.7649 200.407 30.8583 200.86C31.9649 201.313 33.2249 201.54 34.6383 201.54ZM51.8042 206H46.7042V178.48H51.8042V206ZM59.8973 198.92C59.9373 199.667 60.1373 200.333 60.4973 200.92C60.8573 201.507 61.3773 201.967 62.0573 202.3C62.7507 202.633 63.5773 202.8 64.5373 202.8C65.404 202.8 66.164 202.693 66.8173 202.48C67.484 202.267 68.044 202.007 68.4973 201.7C68.964 201.38 69.3107 201.073 69.5373 200.78L71.6373 203.9C71.264 204.367 70.764 204.8 70.1373 205.2C69.524 205.587 68.7373 205.893 67.7773 206.12C66.8307 206.36 65.644 206.48 64.2173 206.48C62.4173 206.48 60.8373 206.127 59.4773 205.42C58.1173 204.713 57.0573 203.693 56.2973 202.36C55.5373 201.027 55.1573 199.44 55.1573 197.6C55.1573 196 55.4973 194.56 56.1773 193.28C56.8573 191.987 57.844 190.967 59.1373 190.22C60.444 189.473 62.0107 189.1 63.8373 189.1C65.5573 189.1 67.044 189.433 68.2973 190.1C69.564 190.753 70.544 191.713 71.2373 192.98C71.9307 194.247 72.2773 195.793 72.2773 197.62C72.2773 197.727 72.2707 197.947 72.2573 198.28C72.2573 198.6 72.244 198.813 72.2173 198.92H59.8973ZM67.5173 195.78C67.504 195.353 67.3707 194.893 67.1173 194.4C66.8773 193.907 66.4973 193.487 65.9773 193.14C65.4573 192.793 64.764 192.62 63.8973 192.62C63.0307 192.62 62.3173 192.787 61.7573 193.12C61.2107 193.453 60.7973 193.867 60.5173 194.36C60.2373 194.84 60.0773 195.313 60.0373 195.78H67.5173ZM88.6077 206V203.14C88.4877 203.433 88.181 203.847 87.6877 204.38C87.1943 204.913 86.5277 205.4 85.6877 205.84C84.861 206.267 83.8877 206.48 82.7677 206.48C81.1943 206.48 79.801 206.107 78.5877 205.36C77.3743 204.6 76.421 203.567 75.7277 202.26C75.0477 200.94 74.7077 199.453 74.7077 197.8C74.7077 196.147 75.0477 194.667 75.7277 193.36C76.421 192.04 77.3743 191 78.5877 190.24C79.801 189.48 81.1943 189.1 82.7677 189.1C83.861 189.1 84.8077 189.287 85.6077 189.66C86.421 190.02 87.0743 190.447 87.5677 190.94C88.0743 191.42 88.401 191.853 88.5477 192.24V189.58H93.5877V206H88.6077ZM79.6877 197.8C79.6877 198.72 79.8943 199.533 80.3077 200.24C80.721 200.933 81.2677 201.473 81.9477 201.86C82.6277 202.247 83.3677 202.44 84.1677 202.44C85.0077 202.44 85.7543 202.247 86.4077 201.86C87.061 201.46 87.5743 200.913 87.9477 200.22C88.3343 199.513 88.5277 198.707 88.5277 197.8C88.5277 196.893 88.3343 196.093 87.9477 195.4C87.5743 194.693 87.061 194.14 86.4077 193.74C85.7543 193.34 85.0077 193.14 84.1677 193.14C83.3677 193.14 82.6277 193.34 81.9477 193.74C81.2677 194.127 80.721 194.673 80.3077 195.38C79.8943 196.073 79.6877 196.88 79.6877 197.8ZM108.238 189.1C109.358 189.1 110.451 189.333 111.518 189.8C112.585 190.253 113.458 190.98 114.138 191.98C114.831 192.98 115.178 194.287 115.178 195.9V206H110.078V196.78C110.078 195.433 109.758 194.433 109.118 193.78C108.491 193.127 107.665 192.8 106.638 192.8C105.971 192.8 105.331 192.987 104.718 193.36C104.118 193.72 103.625 194.227 103.238 194.88C102.865 195.52 102.678 196.253 102.678 197.08V206H97.598V189.58H102.678V192.2C102.825 191.747 103.158 191.28 103.678 190.8C104.198 190.32 104.858 189.92 105.658 189.6C106.458 189.267 107.318 189.1 108.238 189.1ZM119.405 206V189.58H124.465V206H119.405ZM122.005 185.34C121.165 185.34 120.452 185.047 119.865 184.46C119.292 183.873 119.005 183.173 119.005 182.36C119.005 181.547 119.298 180.84 119.885 180.24C120.472 179.64 121.178 179.34 122.005 179.34C122.552 179.34 123.052 179.48 123.505 179.76C123.958 180.027 124.325 180.387 124.605 180.84C124.885 181.293 125.025 181.8 125.025 182.36C125.025 183.173 124.725 183.873 124.125 184.46C123.538 185.047 122.832 185.34 122.005 185.34ZM139.566 189.1C140.686 189.1 141.779 189.333 142.846 189.8C143.913 190.253 144.786 190.98 145.466 191.98C146.159 192.98 146.506 194.287 146.506 195.9V206H141.406V196.78C141.406 195.433 141.086 194.433 140.446 193.78C139.819 193.127 138.993 192.8 137.966 192.8C137.299 192.8 136.659 192.987 136.046 193.36C135.446 193.72 134.953 194.227 134.566 194.88C134.193 195.52 134.006 196.253 134.006 197.08V206H128.926V189.58H134.006V192.2C134.153 191.747 134.486 191.28 135.006 190.8C135.526 190.32 136.186 189.92 136.986 189.6C137.786 189.267 138.646 189.1 139.566 189.1ZM158.773 214.78C157.573 214.78 156.42 214.667 155.313 214.44C154.22 214.213 153.227 213.86 152.333 213.38C151.44 212.9 150.693 212.273 150.093 211.5L153.173 208.38C153.453 208.74 153.813 209.1 154.253 209.46C154.707 209.833 155.28 210.14 155.973 210.38C156.667 210.633 157.533 210.76 158.573 210.76C159.56 210.76 160.407 210.567 161.113 210.18C161.833 209.807 162.387 209.273 162.773 208.58C163.173 207.887 163.373 207.08 163.373 206.16V205.7H168.353V206.46C168.353 208.273 167.927 209.8 167.073 211.04C166.22 212.28 165.073 213.213 163.633 213.84C162.193 214.467 160.573 214.78 158.773 214.78ZM163.373 206V203.14C163.253 203.433 162.947 203.847 162.453 204.38C161.96 204.913 161.293 205.4 160.453 205.84C159.627 206.267 158.653 206.48 157.533 206.48C155.96 206.48 154.567 206.107 153.353 205.36C152.14 204.6 151.187 203.567 150.493 202.26C149.813 200.94 149.473 199.453 149.473 197.8C149.473 196.147 149.813 194.667 150.493 193.36C151.187 192.04 152.14 191 153.353 190.24C154.567 189.48 155.96 189.1 157.533 189.1C158.627 189.1 159.573 189.287 160.373 189.66C161.187 190.02 161.84 190.447 162.333 190.94C162.84 191.42 163.167 191.853 163.313 192.24V189.58H168.353V206H163.373ZM154.453 197.8C154.453 198.72 154.66 199.533 155.073 200.24C155.487 200.933 156.033 201.473 156.713 201.86C157.393 202.247 158.133 202.44 158.933 202.44C159.773 202.44 160.52 202.247 161.173 201.86C161.827 201.46 162.34 200.913 162.713 200.22C163.1 199.513 163.293 198.707 163.293 197.8C163.293 196.893 163.1 196.093 162.713 195.4C162.34 194.693 161.827 194.14 161.173 193.74C160.52 193.34 159.773 193.14 158.933 193.14C158.133 193.14 157.393 193.34 156.713 193.74C156.033 194.127 155.487 194.673 155.073 195.38C154.66 196.073 154.453 196.88 154.453 197.8Z" fill="white"/>
<rect x="190" y="178" width="270" height="37" rx="18.5" fill="white"/>
<path d="M440.843 200.667L445 196.5M445 196.5L440.843 192.333M445 196.5H433.914M451.929 196.5C451.929 203.404 446.345 209 439.457 209C432.569 209 426.985 203.404 426.985 196.5C426.985 189.596 432.569 184 439.457 184C446.345 184 451.929 189.596 451.929 196.5Z" stroke="#1E2C90" stroke-width="4" stroke-linecap="round" stroke-linejoin="round"/>
</svg>
