<svg width="100" height="44" viewBox="0 0 100 44" fill="none" xmlns="http://www.w3.org/2000/svg">
<path d="M0.416602 -1.3113e-06H10.3416C13.8583 -1.3113e-06 16.7666 0.708332 19.0666 2.125C21.3833 3.525 23.1166 5.46667 24.2666 7.95C25.4166 10.4333 25.9916 13.275 25.9916 16.475C25.9916 19.6917 25.4166 22.5417 24.2666 25.025C23.1166 27.5083 21.3833 29.4583 19.0666 30.875C16.7666 32.2917 13.8583 33 10.3416 33H0.416602V-1.3113e-06ZM7.8666 6.625V26.375H9.6666C11.5499 26.375 13.1083 25.95 14.3416 25.1C15.5749 24.2333 16.4999 23.0583 17.1166 21.575C17.7499 20.075 18.0666 18.3917 18.0666 16.525C18.0666 14.6417 17.7583 12.9583 17.1416 11.475C16.5416 9.975 15.6166 8.79167 14.3666 7.925C13.1166 7.05833 11.5499 6.625 9.6666 6.625H7.8666ZM37.3459 33H29.7459V12.475H37.3459V15.65H37.2209C37.3542 15.2667 37.6792 14.7833 38.1959 14.2C38.7126 13.6 39.4376 13.0667 40.3709 12.6C41.3042 12.1167 42.4459 11.875 43.7959 11.875C44.7459 11.875 45.6209 12.025 46.4209 12.325C47.2209 12.6083 47.8042 12.8833 48.1709 13.15L45.2209 19.325C44.9876 19.0417 44.5709 18.75 43.9709 18.45C43.3876 18.1333 42.6542 17.975 41.7709 17.975C40.7542 17.975 39.9126 18.2333 39.2459 18.75C38.5959 19.2667 38.1126 19.8917 37.7959 20.625C37.4959 21.3583 37.3459 22.05 37.3459 22.7V33ZM60.133 33.6C57.883 33.6 55.883 33.1417 54.133 32.225C52.3997 31.2917 51.033 30.0167 50.033 28.4C49.0497 26.7667 48.558 24.9 48.558 22.8C48.558 20.7 49.0497 18.8333 50.033 17.2C51.033 15.55 52.3997 14.25 54.133 13.3C55.883 12.35 57.883 11.875 60.133 11.875C62.383 11.875 64.3663 12.35 66.083 13.3C67.7997 14.25 69.1413 15.55 70.108 17.2C71.0747 18.8333 71.558 20.7 71.558 22.8C71.558 24.9 71.0747 26.7667 70.108 28.4C69.1413 30.0167 67.7997 31.2917 66.083 32.225C64.3663 33.1417 62.383 33.6 60.133 33.6ZM60.133 27.35C60.9997 27.35 61.7497 27.1583 62.383 26.775C63.0163 26.3917 63.508 25.85 63.858 25.15C64.208 24.45 64.383 23.6583 64.383 22.775C64.383 21.875 64.208 21.075 63.858 20.375C63.508 19.675 63.0163 19.125 62.383 18.725C61.7497 18.325 60.9997 18.125 60.133 18.125C59.2663 18.125 58.508 18.325 57.858 18.725C57.2247 19.125 56.7247 19.675 56.358 20.375C56.008 21.075 55.833 21.875 55.833 22.775C55.833 23.6583 56.008 24.45 56.358 25.15C56.7247 25.85 57.2247 26.3917 57.858 26.775C58.508 27.1583 59.2663 27.35 60.133 27.35ZM82.9881 43.4H75.4631V12.475H83.0631V15.475C83.2964 15.0083 83.7381 14.5 84.3881 13.95C85.0548 13.3833 85.8964 12.9 86.9131 12.5C87.9464 12.0833 89.1131 11.875 90.4131 11.875C92.4131 11.875 94.1214 12.3667 95.5381 13.35C96.9714 14.3333 98.0714 15.65 98.8381 17.3C99.6048 18.9333 99.9881 20.75 99.9881 22.75C99.9881 24.75 99.5798 26.575 98.7631 28.225C97.9464 29.8583 96.7964 31.1667 95.3131 32.15C93.8464 33.1167 92.1131 33.6 90.1131 33.6C88.6798 33.6 87.4548 33.35 86.4381 32.85C85.4381 32.3333 84.6464 31.7667 84.0631 31.15C83.4964 30.5167 83.1381 30.025 82.9881 29.675V43.4ZM92.5631 22.75C92.5631 21.8167 92.3548 20.9833 91.9381 20.25C91.5214 19.5 90.9548 18.9167 90.2381 18.5C89.5381 18.0667 88.7464 17.85 87.8631 17.85C86.9464 17.85 86.1214 18.0667 85.3881 18.5C84.6714 18.9167 84.1048 19.5 83.6881 20.25C83.2714 20.9833 83.0631 21.8167 83.0631 22.75C83.0631 23.6833 83.2714 24.525 83.6881 25.275C84.1048 26.0083 84.6714 26.5833 85.3881 27C86.1214 27.4167 86.9464 27.625 87.8631 27.625C88.7464 27.625 89.5381 27.4167 90.2381 27C90.9548 26.5833 91.5214 26.0083 91.9381 25.275C92.3548 24.525 92.5631 23.6833 92.5631 22.75Z" fill="#1E2C90"/>
</svg>
