<svg width="572" height="64" viewBox="0 0 572 64" fill="none" xmlns="http://www.w3.org/2000/svg">
<rect width="572" height="64" fill="white"/>
<path d="M13.68 28V16.8H14.992L22.4 26H21.712V16.8H23.312V28H22L14.592 18.8H15.28V28H13.68ZM30.2164 28.096C29.3097 28.096 28.5097 27.9093 27.8164 27.536C27.1337 27.1627 26.6004 26.6507 26.2164 26C25.843 25.3493 25.6564 24.6027 25.6564 23.76C25.6564 22.9173 25.8377 22.1707 26.2004 21.52C26.5737 20.8693 27.0804 20.3627 27.7204 20C28.371 19.6267 29.1017 19.44 29.9124 19.44C30.7337 19.44 31.459 19.6213 32.0884 19.984C32.7177 20.3467 33.2084 20.8587 33.5604 21.52C33.923 22.1707 34.1044 22.9333 34.1044 23.808C34.1044 23.872 34.099 23.9467 34.0884 24.032C34.0884 24.1173 34.083 24.1973 34.0724 24.272H26.8564V23.168H33.2724L32.6484 23.552C32.659 23.008 32.547 22.5227 32.3124 22.096C32.0777 21.6693 31.7524 21.3387 31.3364 21.104C30.931 20.8587 30.4564 20.736 29.9124 20.736C29.379 20.736 28.9044 20.8587 28.4884 21.104C28.0724 21.3387 27.747 21.6747 27.5124 22.112C27.2777 22.5387 27.1604 23.0293 27.1604 23.584V23.84C27.1604 24.4053 27.2884 24.912 27.5444 25.36C27.811 25.7973 28.179 26.1387 28.6484 26.384C29.1177 26.6293 29.6564 26.752 30.2644 26.752C30.7657 26.752 31.219 26.6667 31.6244 26.496C32.0404 26.3253 32.403 26.0693 32.7124 25.728L33.5604 26.72C33.1764 27.168 32.6964 27.5093 32.1204 27.744C31.555 27.9787 30.9204 28.096 30.2164 28.096ZM37.873 28L34.721 19.52H36.177L38.977 27.2H38.289L41.201 19.52H42.497L45.345 27.2H44.673L47.537 19.52H48.913L45.745 28H44.273L41.601 20.992H42.049L39.345 28H37.873ZM60.0005 28.128C59.1472 28.128 58.3578 27.9893 57.6325 27.712C56.9178 27.424 56.2938 27.024 55.7605 26.512C55.2378 25.9893 54.8272 25.3813 54.5285 24.688C54.2298 23.9947 54.0805 23.232 54.0805 22.4C54.0805 21.568 54.2298 20.8053 54.5285 20.112C54.8272 19.4187 55.2432 18.816 55.7765 18.304C56.3098 17.7813 56.9338 17.3813 57.6485 17.104C58.3738 16.816 59.1632 16.672 60.0165 16.672C60.8805 16.672 61.6752 16.8213 62.4005 17.12C63.1365 17.408 63.7605 17.84 64.2725 18.416L63.2325 19.424C62.8058 18.976 62.3258 18.6453 61.7925 18.432C61.2592 18.208 60.6885 18.096 60.0805 18.096C59.4512 18.096 58.8645 18.2027 58.3205 18.416C57.7872 18.6293 57.3232 18.928 56.9285 19.312C56.5338 19.696 56.2245 20.1547 56.0005 20.688C55.7872 21.2107 55.6805 21.7813 55.6805 22.4C55.6805 23.0187 55.7872 23.5947 56.0005 24.128C56.2245 24.6507 56.5338 25.104 56.9285 25.488C57.3232 25.872 57.7872 26.1707 58.3205 26.384C58.8645 26.5973 59.4512 26.704 60.0805 26.704C60.6885 26.704 61.2592 26.5973 61.7925 26.384C62.3258 26.16 62.8058 25.8187 63.2325 25.36L64.2725 26.368C63.7605 26.944 63.1365 27.3813 62.4005 27.68C61.6752 27.9787 60.8752 28.128 60.0005 28.128ZM69.6334 28.096C68.908 28.096 68.268 27.9627 67.7134 27.696C67.1694 27.4293 66.7427 27.024 66.4334 26.48C66.1347 25.9253 65.9854 25.232 65.9854 24.4V19.52H67.5214V24.224C67.5214 25.056 67.7187 25.68 68.1134 26.096C68.5187 26.512 69.084 26.72 69.8094 26.72C70.3427 26.72 70.8067 26.6133 71.2014 26.4C71.596 26.176 71.9 25.856 72.1134 25.44C72.3267 25.0133 72.4334 24.5013 72.4334 23.904V19.52H73.9694V28H72.5134V25.712L72.7534 26.32C72.476 26.8853 72.06 27.3227 71.5054 27.632C70.9507 27.9413 70.3267 28.096 69.6334 28.096ZM79.3255 28.096C78.6215 28.096 77.9495 28 77.3095 27.808C76.6802 27.616 76.1842 27.3813 75.8215 27.104L76.4615 25.888C76.8242 26.1333 77.2722 26.3413 77.8055 26.512C78.3388 26.6827 78.8828 26.768 79.4375 26.768C80.1522 26.768 80.6642 26.6667 80.9735 26.464C81.2935 26.2613 81.4535 25.9787 81.4535 25.616C81.4535 25.3493 81.3575 25.1413 81.1655 24.992C80.9735 24.8427 80.7175 24.7307 80.3975 24.656C80.0882 24.5813 79.7415 24.5173 79.3575 24.464C78.9735 24.4 78.5895 24.3253 78.2055 24.24C77.8215 24.144 77.4695 24.016 77.1495 23.856C76.8295 23.6853 76.5735 23.456 76.3815 23.168C76.1895 22.8693 76.0935 22.4747 76.0935 21.984C76.0935 21.472 76.2375 21.024 76.5255 20.64C76.8135 20.256 77.2188 19.9627 77.7415 19.76C78.2748 19.5467 78.9042 19.44 79.6295 19.44C80.1842 19.44 80.7442 19.5093 81.3095 19.648C81.8855 19.776 82.3548 19.9627 82.7175 20.208L82.0615 21.424C81.6775 21.168 81.2775 20.992 80.8615 20.896C80.4455 20.8 80.0295 20.752 79.6135 20.752C78.9415 20.752 78.4402 20.864 78.1095 21.088C77.7788 21.3013 77.6135 21.5787 77.6135 21.92C77.6135 22.208 77.7095 22.432 77.9015 22.592C78.1042 22.7413 78.3602 22.8587 78.6695 22.944C78.9895 23.0293 79.3415 23.104 79.7255 23.168C80.1095 23.2213 80.4935 23.296 80.8775 23.392C81.2615 23.4773 81.6082 23.6 81.9175 23.76C82.2375 23.92 82.4935 24.144 82.6855 24.432C82.8882 24.72 82.9895 25.104 82.9895 25.584C82.9895 26.096 82.8402 26.5387 82.5415 26.912C82.2428 27.2853 81.8215 27.5787 81.2775 27.792C80.7335 27.9947 80.0828 28.096 79.3255 28.096ZM87.8211 28.096C86.9678 28.096 86.3065 27.8667 85.8371 27.408C85.3678 26.9493 85.1331 26.2933 85.1331 25.44V17.664H86.6691V25.376C86.6691 25.8347 86.7811 26.1867 87.0051 26.432C87.2398 26.6773 87.5705 26.8 87.9971 26.8C88.4771 26.8 88.8771 26.6667 89.1971 26.4L89.6771 27.504C89.4425 27.7067 89.1598 27.856 88.8291 27.952C88.5091 28.048 88.1731 28.096 87.8211 28.096ZM83.6931 20.784V19.52H89.1011V20.784H83.6931ZM94.8849 28.096C94.0315 28.096 93.2742 27.9093 92.6129 27.536C91.9515 27.1627 91.4289 26.6507 91.0449 26C90.6609 25.3387 90.4689 24.592 90.4689 23.76C90.4689 22.9173 90.6609 22.1707 91.0449 21.52C91.4289 20.8693 91.9515 20.3627 92.6129 20C93.2742 19.6267 94.0315 19.44 94.8849 19.44C95.7275 19.44 96.4795 19.6267 97.1409 20C97.8129 20.3627 98.3355 20.8693 98.7089 21.52C99.0929 22.16 99.2849 22.9067 99.2849 23.76C99.2849 24.6027 99.0929 25.3493 98.7089 26C98.3355 26.6507 97.8129 27.1627 97.1409 27.536C96.4795 27.9093 95.7275 28.096 94.8849 28.096ZM94.8849 26.752C95.4289 26.752 95.9142 26.6293 96.3409 26.384C96.7782 26.1387 97.1195 25.792 97.3649 25.344C97.6102 24.8853 97.7329 24.3573 97.7329 23.76C97.7329 23.152 97.6102 22.6293 97.3649 22.192C97.1195 21.744 96.7782 21.3973 96.3409 21.152C95.9142 20.9067 95.4289 20.784 94.8849 20.784C94.3409 20.784 93.8555 20.9067 93.4289 21.152C93.0022 21.3973 92.6609 21.744 92.4049 22.192C92.1489 22.6293 92.0209 23.152 92.0209 23.76C92.0209 24.3573 92.1489 24.8853 92.4049 25.344C92.6609 25.792 93.0022 26.1387 93.4289 26.384C93.8555 26.6293 94.3409 26.752 94.8849 26.752ZM112.017 19.44C112.7 19.44 113.302 19.5733 113.825 19.84C114.348 20.1067 114.753 20.512 115.041 21.056C115.34 21.6 115.489 22.288 115.489 23.12V28H113.953V23.296C113.953 22.4747 113.761 21.856 113.377 21.44C112.993 21.024 112.454 20.816 111.761 20.816C111.249 20.816 110.801 20.9227 110.417 21.136C110.033 21.3493 109.734 21.664 109.521 22.08C109.318 22.496 109.217 23.0133 109.217 23.632V28H107.681V23.296C107.681 22.4747 107.489 21.856 107.105 21.44C106.732 21.024 106.193 20.816 105.489 20.816C104.988 20.816 104.545 20.9227 104.161 21.136C103.777 21.3493 103.478 21.664 103.265 22.08C103.052 22.496 102.945 23.0133 102.945 23.632V28H101.409V19.52H102.881V21.776L102.641 21.2C102.908 20.6453 103.318 20.2133 103.873 19.904C104.428 19.5947 105.073 19.44 105.809 19.44C106.62 19.44 107.318 19.6427 107.905 20.048C108.492 20.4427 108.876 21.0453 109.057 21.856L108.433 21.6C108.689 20.9493 109.137 20.4267 109.777 20.032C110.417 19.6373 111.164 19.44 112.017 19.44ZM122.091 28.096C121.185 28.096 120.385 27.9093 119.691 27.536C119.009 27.1627 118.475 26.6507 118.091 26C117.718 25.3493 117.531 24.6027 117.531 23.76C117.531 22.9173 117.713 22.1707 118.075 21.52C118.449 20.8693 118.955 20.3627 119.595 20C120.246 19.6267 120.977 19.44 121.787 19.44C122.609 19.44 123.334 19.6213 123.963 19.984C124.593 20.3467 125.083 20.8587 125.435 21.52C125.798 22.1707 125.979 22.9333 125.979 23.808C125.979 23.872 125.974 23.9467 125.963 24.032C125.963 24.1173 125.958 24.1973 125.947 24.272H118.731V23.168H125.147L124.523 23.552C124.534 23.008 124.422 22.5227 124.187 22.096C123.953 21.6693 123.627 21.3387 123.211 21.104C122.806 20.8587 122.331 20.736 121.787 20.736C121.254 20.736 120.779 20.8587 120.363 21.104C119.947 21.3387 119.622 21.6747 119.387 22.112C119.153 22.5387 119.035 23.0293 119.035 23.584V23.84C119.035 24.4053 119.163 24.912 119.419 25.36C119.686 25.7973 120.054 26.1387 120.523 26.384C120.993 26.6293 121.531 26.752 122.139 26.752C122.641 26.752 123.094 26.6667 123.499 26.496C123.915 26.3253 124.278 26.0693 124.587 25.728L125.435 26.72C125.051 27.168 124.571 27.5093 123.995 27.744C123.43 27.9787 122.795 28.096 122.091 28.096ZM128.112 28V19.52H129.584V21.824L129.44 21.248C129.675 20.6613 130.07 20.2133 130.624 19.904C131.179 19.5947 131.862 19.44 132.672 19.44V20.928C132.608 20.9173 132.544 20.912 132.48 20.912C132.427 20.912 132.374 20.912 132.32 20.912C131.499 20.912 130.848 21.1573 130.368 21.648C129.888 22.1387 129.648 22.848 129.648 23.776V28H128.112ZM137.091 28.096C136.387 28.096 135.715 28 135.075 27.808C134.446 27.616 133.95 27.3813 133.587 27.104L134.227 25.888C134.59 26.1333 135.038 26.3413 135.571 26.512C136.104 26.6827 136.648 26.768 137.203 26.768C137.918 26.768 138.43 26.6667 138.739 26.464C139.059 26.2613 139.219 25.9787 139.219 25.616C139.219 25.3493 139.123 25.1413 138.931 24.992C138.739 24.8427 138.483 24.7307 138.163 24.656C137.854 24.5813 137.507 24.5173 137.123 24.464C136.739 24.4 136.355 24.3253 135.971 24.24C135.587 24.144 135.235 24.016 134.915 23.856C134.595 23.6853 134.339 23.456 134.147 23.168C133.955 22.8693 133.859 22.4747 133.859 21.984C133.859 21.472 134.003 21.024 134.291 20.64C134.579 20.256 134.984 19.9627 135.507 19.76C136.04 19.5467 136.67 19.44 137.395 19.44C137.95 19.44 138.51 19.5093 139.075 19.648C139.651 19.776 140.12 19.9627 140.483 20.208L139.827 21.424C139.443 21.168 139.043 20.992 138.627 20.896C138.211 20.8 137.795 20.752 137.379 20.752C136.707 20.752 136.206 20.864 135.875 21.088C135.544 21.3013 135.379 21.5787 135.379 21.92C135.379 22.208 135.475 22.432 135.667 22.592C135.87 22.7413 136.126 22.8587 136.435 22.944C136.755 23.0293 137.107 23.104 137.491 23.168C137.875 23.2213 138.259 23.296 138.643 23.392C139.027 23.4773 139.374 23.6 139.683 23.76C140.003 23.92 140.259 24.144 140.451 24.432C140.654 24.72 140.755 25.104 140.755 25.584C140.755 26.096 140.606 26.5387 140.307 26.912C140.008 27.2853 139.587 27.5787 139.043 27.792C138.499 27.9947 137.848 28.096 137.091 28.096Z" fill="black"/>
<line x1="12" y1="51.5" x2="560" y2="51.5" stroke="black"/>
</svg>
