<svg width="572" height="64" viewBox="0 0 572 64" fill="none" xmlns="http://www.w3.org/2000/svg">
<rect width="572" height="64" fill="white"/>
<path d="M13.68 28V16.8H14.992L22.4 26H21.712V16.8H23.312V28H22L14.592 18.8H15.28V28H13.68ZM30.2164 28.096C29.3097 28.096 28.5097 27.9093 27.8164 27.536C27.1337 27.1627 26.6004 26.6507 26.2164 26C25.843 25.3493 25.6564 24.6027 25.6564 23.76C25.6564 22.9173 25.8377 22.1707 26.2004 21.52C26.5737 20.8693 27.0804 20.3627 27.7204 20C28.371 19.6267 29.1017 19.44 29.9124 19.44C30.7337 19.44 31.459 19.6213 32.0884 19.984C32.7177 20.3467 33.2084 20.8587 33.5604 21.52C33.923 22.1707 34.1044 22.9333 34.1044 23.808C34.1044 23.872 34.099 23.9467 34.0884 24.032C34.0884 24.1173 34.083 24.1973 34.0724 24.272H26.8564V23.168H33.2724L32.6484 23.552C32.659 23.008 32.547 22.5227 32.3124 22.096C32.0777 21.6693 31.7524 21.3387 31.3364 21.104C30.931 20.8587 30.4564 20.736 29.9124 20.736C29.379 20.736 28.9044 20.8587 28.4884 21.104C28.0724 21.3387 27.747 21.6747 27.5124 22.112C27.2777 22.5387 27.1604 23.0293 27.1604 23.584V23.84C27.1604 24.4053 27.2884 24.912 27.5444 25.36C27.811 25.7973 28.179 26.1387 28.6484 26.384C29.1177 26.6293 29.6564 26.752 30.2644 26.752C30.7657 26.752 31.219 26.6667 31.6244 26.496C32.0404 26.3253 32.403 26.0693 32.7124 25.728L33.5604 26.72C33.1764 27.168 32.6964 27.5093 32.1204 27.744C31.555 27.9787 30.9204 28.096 30.2164 28.096ZM37.873 28L34.721 19.52H36.177L38.977 27.2H38.289L41.201 19.52H42.497L45.345 27.2H44.673L47.537 19.52H48.913L45.745 28H44.273L41.601 20.992H42.049L39.345 28H37.873ZM54.9925 28V16.8H60.0165C61.3072 16.8 62.2992 17.0613 62.9925 17.584C63.6858 18.096 64.0325 18.8 64.0325 19.696C64.0325 20.304 63.8938 20.816 63.6165 21.232C63.3498 21.648 62.9872 21.968 62.5285 22.192C62.0698 22.416 61.5738 22.528 61.0405 22.528L61.3285 22.048C61.9685 22.048 62.5338 22.16 63.0245 22.384C63.5152 22.608 63.9045 22.9387 64.1925 23.376C64.4805 23.8027 64.6245 24.336 64.6245 24.976C64.6245 25.936 64.2618 26.6827 63.5365 27.216C62.8218 27.7387 61.7552 28 60.3365 28H54.9925ZM56.5925 26.704H60.2725C61.1578 26.704 61.8352 26.5547 62.3045 26.256C62.7738 25.9573 63.0085 25.488 63.0085 24.848C63.0085 24.1973 62.7738 23.7227 62.3045 23.424C61.8352 23.1253 61.1578 22.976 60.2725 22.976H56.4485V21.68H59.8725C60.6832 21.68 61.3125 21.5307 61.7605 21.232C62.2085 20.9333 62.4325 20.4853 62.4325 19.888C62.4325 19.2907 62.2085 18.8427 61.7605 18.544C61.3125 18.2453 60.6832 18.096 59.8725 18.096H56.5925V26.704ZM72.1419 28V26.208L72.0619 25.872V22.816C72.0619 22.1653 71.8699 21.664 71.4859 21.312C71.1125 20.9493 70.5472 20.768 69.7899 20.768C69.2885 20.768 68.7979 20.8533 68.3179 21.024C67.8379 21.184 67.4325 21.4027 67.1019 21.68L66.4619 20.528C66.8992 20.176 67.4219 19.9093 68.0299 19.728C68.6485 19.536 69.2939 19.44 69.9659 19.44C71.1285 19.44 72.0245 19.7227 72.6539 20.288C73.2832 20.8533 73.5979 21.7173 73.5979 22.88V28H72.1419ZM69.3579 28.096C68.7285 28.096 68.1739 27.9893 67.6939 27.776C67.2245 27.5627 66.8619 27.2693 66.6059 26.896C66.3499 26.512 66.2219 26.08 66.2219 25.6C66.2219 25.1413 66.3285 24.7253 66.5419 24.352C66.7659 23.9787 67.1232 23.68 67.6139 23.456C68.1152 23.232 68.7872 23.12 69.6299 23.12H72.3179V24.224H69.6939C68.9259 24.224 68.4085 24.352 68.1419 24.608C67.8752 24.864 67.7419 25.1733 67.7419 25.536C67.7419 25.952 67.9072 26.288 68.2379 26.544C68.5685 26.7893 69.0272 26.912 69.6139 26.912C70.1899 26.912 70.6912 26.784 71.1179 26.528C71.5552 26.272 71.8699 25.8987 72.0619 25.408L72.3659 26.464C72.1632 26.9653 71.8059 27.3653 71.2939 27.664C70.7819 27.952 70.1365 28.096 69.3579 28.096ZM76.4404 28V19.52H77.9124V21.824L77.7684 21.248C78.003 20.6613 78.3977 20.2133 78.9524 19.904C79.507 19.5947 80.1897 19.44 81.0004 19.44V20.928C80.9364 20.9173 80.8724 20.912 80.8084 20.912C80.755 20.912 80.7017 20.912 80.6484 20.912C79.827 20.912 79.1764 21.1573 78.6964 21.648C78.2164 22.1387 77.9764 22.848 77.9764 23.776V28H76.4404ZM87.5325 28V26.208L87.4525 25.872V22.816C87.4525 22.1653 87.2605 21.664 86.8765 21.312C86.5032 20.9493 85.9378 20.768 85.1805 20.768C84.6792 20.768 84.1885 20.8533 83.7085 21.024C83.2285 21.184 82.8232 21.4027 82.4925 21.68L81.8525 20.528C82.2898 20.176 82.8125 19.9093 83.4205 19.728C84.0392 19.536 84.6845 19.44 85.3565 19.44C86.5192 19.44 87.4152 19.7227 88.0445 20.288C88.6738 20.8533 88.9885 21.7173 88.9885 22.88V28H87.5325ZM84.7485 28.096C84.1192 28.096 83.5645 27.9893 83.0845 27.776C82.6152 27.5627 82.2525 27.2693 81.9965 26.896C81.7405 26.512 81.6125 26.08 81.6125 25.6C81.6125 25.1413 81.7192 24.7253 81.9325 24.352C82.1565 23.9787 82.5138 23.68 83.0045 23.456C83.5058 23.232 84.1778 23.12 85.0205 23.12H87.7085V24.224H85.0845C84.3165 24.224 83.7992 24.352 83.5325 24.608C83.2658 24.864 83.1325 25.1733 83.1325 25.536C83.1325 25.952 83.2978 26.288 83.6285 26.544C83.9592 26.7893 84.4178 26.912 85.0045 26.912C85.5805 26.912 86.0818 26.784 86.5085 26.528C86.9458 26.272 87.2605 25.8987 87.4525 25.408L87.7565 26.464C87.5538 26.9653 87.1965 27.3653 86.6845 27.664C86.1725 27.952 85.5272 28.096 84.7485 28.096ZM96.359 19.44C97.0523 19.44 97.6603 19.5733 98.183 19.84C98.7163 20.1067 99.1323 20.512 99.431 21.056C99.7297 21.6 99.879 22.288 99.879 23.12V28H98.343V23.296C98.343 22.4747 98.1403 21.856 97.735 21.44C97.3403 21.024 96.7803 20.816 96.055 20.816C95.511 20.816 95.0363 20.9227 94.631 21.136C94.2257 21.3493 93.911 21.664 93.687 22.08C93.4737 22.496 93.367 23.0133 93.367 23.632V28H91.831V19.52H93.303V21.808L93.063 21.2C93.3403 20.6453 93.767 20.2133 94.343 19.904C94.919 19.5947 95.591 19.44 96.359 19.44ZM106.434 31.2C105.655 31.2 104.898 31.088 104.162 30.864C103.436 30.6507 102.844 30.3413 102.386 29.936L103.122 28.752C103.516 29.0933 104.002 29.36 104.578 29.552C105.154 29.7547 105.756 29.856 106.386 29.856C107.388 29.856 108.124 29.6213 108.594 29.152C109.063 28.6827 109.298 27.968 109.298 27.008V25.216L109.458 23.536L109.378 21.84V19.52H110.834V26.848C110.834 28.3413 110.46 29.44 109.714 30.144C108.967 30.848 107.874 31.2 106.434 31.2ZM106.242 27.648C105.42 27.648 104.684 27.4773 104.034 27.136C103.394 26.784 102.882 26.2987 102.498 25.68C102.124 25.0613 101.938 24.3467 101.938 23.536C101.938 22.7147 102.124 22 102.498 21.392C102.882 20.7733 103.394 20.2933 104.034 19.952C104.684 19.6107 105.42 19.44 106.242 19.44C106.967 19.44 107.628 19.5893 108.226 19.888C108.823 20.176 109.298 20.624 109.65 21.232C110.012 21.84 110.194 22.608 110.194 23.536C110.194 24.4533 110.012 25.216 109.65 25.824C109.298 26.432 108.823 26.8907 108.226 27.2C107.628 27.4987 106.967 27.648 106.242 27.648ZM106.418 26.304C106.983 26.304 107.484 26.1867 107.922 25.952C108.359 25.7173 108.7 25.392 108.946 24.976C109.202 24.56 109.33 24.08 109.33 23.536C109.33 22.992 109.202 22.512 108.946 22.096C108.7 21.68 108.359 21.36 107.922 21.136C107.484 20.9013 106.983 20.784 106.418 20.784C105.852 20.784 105.346 20.9013 104.898 21.136C104.46 21.36 104.114 21.68 103.858 22.096C103.612 22.512 103.49 22.992 103.49 23.536C103.49 24.08 103.612 24.56 103.858 24.976C104.114 25.392 104.46 25.7173 104.898 25.952C105.346 26.1867 105.852 26.304 106.418 26.304Z" fill="black"/>
<line x1="12" y1="51.5" x2="560" y2="51.5" stroke="black"/>
</svg>
