<svg width="572" height="64" viewBox="0 0 572 64" fill="none" xmlns="http://www.w3.org/2000/svg">
<rect width="572" height="64" fill="white"/>
<path d="M13.68 28V16.8H14.992L22.4 26H21.712V16.8H23.312V28H22L14.592 18.8H15.28V28H13.68ZM30.2164 28.096C29.3097 28.096 28.5097 27.9093 27.8164 27.536C27.1337 27.1627 26.6004 26.6507 26.2164 26C25.843 25.3493 25.6564 24.6027 25.6564 23.76C25.6564 22.9173 25.8377 22.1707 26.2004 21.52C26.5737 20.8693 27.0804 20.3627 27.7204 20C28.371 19.6267 29.1017 19.44 29.9124 19.44C30.7337 19.44 31.459 19.6213 32.0884 19.984C32.7177 20.3467 33.2084 20.8587 33.5604 21.52C33.923 22.1707 34.1044 22.9333 34.1044 23.808C34.1044 23.872 34.099 23.9467 34.0884 24.032C34.0884 24.1173 34.083 24.1973 34.0724 24.272H26.8564V23.168H33.2724L32.6484 23.552C32.659 23.008 32.547 22.5227 32.3124 22.096C32.0777 21.6693 31.7524 21.3387 31.3364 21.104C30.931 20.8587 30.4564 20.736 29.9124 20.736C29.379 20.736 28.9044 20.8587 28.4884 21.104C28.0724 21.3387 27.747 21.6747 27.5124 22.112C27.2777 22.5387 27.1604 23.0293 27.1604 23.584V23.84C27.1604 24.4053 27.2884 24.912 27.5444 25.36C27.811 25.7973 28.179 26.1387 28.6484 26.384C29.1177 26.6293 29.6564 26.752 30.2644 26.752C30.7657 26.752 31.219 26.6667 31.6244 26.496C32.0404 26.3253 32.403 26.0693 32.7124 25.728L33.5604 26.72C33.1764 27.168 32.6964 27.5093 32.1204 27.744C31.555 27.9787 30.9204 28.096 30.2164 28.096ZM37.873 28L34.721 19.52H36.177L38.977 27.2H38.289L41.201 19.52H42.497L45.345 27.2H44.673L47.537 19.52H48.913L45.745 28H44.273L41.601 20.992H42.049L39.345 28H37.873ZM60.0485 28.128C59.1952 28.128 58.4005 27.984 57.6645 27.696C56.9392 27.408 56.3098 27.008 55.7765 26.496C55.2432 25.9733 54.8272 25.3653 54.5285 24.672C54.2298 23.9787 54.0805 23.2213 54.0805 22.4C54.0805 21.5787 54.2298 20.8213 54.5285 20.128C54.8272 19.4347 55.2432 18.832 55.7765 18.32C56.3098 17.7973 56.9392 17.392 57.6645 17.104C58.3898 16.816 59.1845 16.672 60.0485 16.672C60.9018 16.672 61.6858 16.816 62.4005 17.104C63.1258 17.3813 63.7552 17.7813 64.2885 18.304C64.8325 18.816 65.2485 19.4187 65.5365 20.112C65.8352 20.8053 65.9845 21.568 65.9845 22.4C65.9845 23.232 65.8352 23.9947 65.5365 24.688C65.2485 25.3813 64.8325 25.9893 64.2885 26.512C63.7552 27.024 63.1258 27.424 62.4005 27.712C61.6858 27.9893 60.9018 28.128 60.0485 28.128ZM60.0485 26.704C60.6672 26.704 61.2378 26.5973 61.7605 26.384C62.2938 26.1707 62.7525 25.872 63.1365 25.488C63.5312 25.0933 63.8352 24.6347 64.0485 24.112C64.2725 23.5893 64.3845 23.0187 64.3845 22.4C64.3845 21.7813 64.2725 21.2107 64.0485 20.688C63.8352 20.1653 63.5312 19.712 63.1365 19.328C62.7525 18.9333 62.2938 18.6293 61.7605 18.416C61.2378 18.2027 60.6672 18.096 60.0485 18.096C59.4192 18.096 58.8378 18.2027 58.3045 18.416C57.7818 18.6293 57.3232 18.9333 56.9285 19.328C56.5338 19.712 56.2245 20.1653 56.0005 20.688C55.7872 21.2107 55.6805 21.7813 55.6805 22.4C55.6805 23.0187 55.7872 23.5893 56.0005 24.112C56.2245 24.6347 56.5338 25.0933 56.9285 25.488C57.3232 25.872 57.7818 26.1707 58.3045 26.384C58.8378 26.5973 59.4192 26.704 60.0485 26.704ZM68.206 28V19.52H69.678V21.824L69.534 21.248C69.7687 20.6613 70.1633 20.2133 70.718 19.904C71.2727 19.5947 71.9553 19.44 72.766 19.44V20.928C72.702 20.9173 72.638 20.912 72.574 20.912C72.5207 20.912 72.4673 20.912 72.414 20.912C71.5927 20.912 70.942 21.1573 70.462 21.648C69.982 22.1387 69.742 22.848 69.742 23.776V28H68.206ZM78.085 28.096C77.2637 28.096 76.5277 27.9147 75.877 27.552C75.237 27.1893 74.7303 26.6827 74.357 26.032C73.9837 25.3813 73.797 24.624 73.797 23.76C73.797 22.896 73.9837 22.144 74.357 21.504C74.7303 20.8533 75.237 20.3467 75.877 19.984C76.5277 19.6213 77.2637 19.44 78.085 19.44C78.7997 19.44 79.445 19.6 80.021 19.92C80.597 20.24 81.0557 20.72 81.397 21.36C81.749 22 81.925 22.8 81.925 23.76C81.925 24.72 81.7543 25.52 81.413 26.16C81.0823 26.8 80.629 27.2853 80.053 27.616C79.477 27.936 78.821 28.096 78.085 28.096ZM78.213 26.752C78.7463 26.752 79.2263 26.6293 79.653 26.384C80.0903 26.1387 80.4317 25.792 80.677 25.344C80.933 24.8853 81.061 24.3573 81.061 23.76C81.061 23.152 80.933 22.6293 80.677 22.192C80.4317 21.744 80.0903 21.3973 79.653 21.152C79.2263 20.9067 78.7463 20.784 78.213 20.784C77.669 20.784 77.1837 20.9067 76.757 21.152C76.3303 21.3973 75.989 21.744 75.733 22.192C75.477 22.6293 75.349 23.152 75.349 23.76C75.349 24.3573 75.477 24.8853 75.733 25.344C75.989 25.792 76.3303 26.1387 76.757 26.384C77.1837 26.6293 77.669 26.752 78.213 26.752ZM81.109 28V25.712L81.205 23.744L81.045 21.776V16.128H82.581V28H81.109ZM89.2633 28.096C88.3566 28.096 87.5566 27.9093 86.8633 27.536C86.1806 27.1627 85.6473 26.6507 85.2633 26C84.8899 25.3493 84.7033 24.6027 84.7033 23.76C84.7033 22.9173 84.8846 22.1707 85.2473 21.52C85.6206 20.8693 86.1273 20.3627 86.7673 20C87.4179 19.6267 88.1486 19.44 88.9593 19.44C89.7806 19.44 90.5059 19.6213 91.1353 19.984C91.7646 20.3467 92.2553 20.8587 92.6073 21.52C92.9699 22.1707 93.1513 22.9333 93.1513 23.808C93.1513 23.872 93.1459 23.9467 93.1353 24.032C93.1353 24.1173 93.1299 24.1973 93.1193 24.272H85.9033V23.168H92.3193L91.6953 23.552C91.7059 23.008 91.5939 22.5227 91.3593 22.096C91.1246 21.6693 90.7993 21.3387 90.3833 21.104C89.9779 20.8587 89.5033 20.736 88.9593 20.736C88.4259 20.736 87.9513 20.8587 87.5353 21.104C87.1193 21.3387 86.7939 21.6747 86.5593 22.112C86.3246 22.5387 86.2073 23.0293 86.2073 23.584V23.84C86.2073 24.4053 86.3353 24.912 86.5913 25.36C86.8579 25.7973 87.2259 26.1387 87.6953 26.384C88.1646 26.6293 88.7033 26.752 89.3113 26.752C89.8126 26.752 90.2659 26.6667 90.6713 26.496C91.0873 26.3253 91.4499 26.0693 91.7593 25.728L92.6073 26.72C92.2233 27.168 91.7433 27.5093 91.1673 27.744C90.6019 27.9787 89.9673 28.096 89.2633 28.096ZM95.2841 28V19.52H96.7561V21.824L96.6121 21.248C96.8468 20.6613 97.2415 20.2133 97.7961 19.904C98.3508 19.5947 99.0335 19.44 99.8441 19.44V20.928C99.7801 20.9173 99.7161 20.912 99.6521 20.912C99.5988 20.912 99.5455 20.912 99.4921 20.912C98.6708 20.912 98.0201 21.1573 97.5401 21.648C97.0601 22.1387 96.8201 22.848 96.8201 23.776V28H95.2841Z" fill="black"/>
<line x1="12" y1="51.5" x2="560" y2="51.5" stroke="black"/>
</svg>
