<svg width="572" height="64" viewBox="0 0 572 64" fill="none" xmlns="http://www.w3.org/2000/svg">
<rect width="572" height="64" fill="white"/>
<path d="M13.68 28V16.8H14.992L22.4 26H21.712V16.8H23.312V28H22L14.592 18.8H15.28V28H13.68ZM30.2164 28.096C29.3097 28.096 28.5097 27.9093 27.8164 27.536C27.1337 27.1627 26.6004 26.6507 26.2164 26C25.843 25.3493 25.6564 24.6027 25.6564 23.76C25.6564 22.9173 25.8377 22.1707 26.2004 21.52C26.5737 20.8693 27.0804 20.3627 27.7204 20C28.371 19.6267 29.1017 19.44 29.9124 19.44C30.7337 19.44 31.459 19.6213 32.0884 19.984C32.7177 20.3467 33.2084 20.8587 33.5604 21.52C33.923 22.1707 34.1044 22.9333 34.1044 23.808C34.1044 23.872 34.099 23.9467 34.0884 24.032C34.0884 24.1173 34.083 24.1973 34.0724 24.272H26.8564V23.168H33.2724L32.6484 23.552C32.659 23.008 32.547 22.5227 32.3124 22.096C32.0777 21.6693 31.7524 21.3387 31.3364 21.104C30.931 20.8587 30.4564 20.736 29.9124 20.736C29.379 20.736 28.9044 20.8587 28.4884 21.104C28.0724 21.3387 27.747 21.6747 27.5124 22.112C27.2777 22.5387 27.1604 23.0293 27.1604 23.584V23.84C27.1604 24.4053 27.2884 24.912 27.5444 25.36C27.811 25.7973 28.179 26.1387 28.6484 26.384C29.1177 26.6293 29.6564 26.752 30.2644 26.752C30.7657 26.752 31.219 26.6667 31.6244 26.496C32.0404 26.3253 32.403 26.0693 32.7124 25.728L33.5604 26.72C33.1764 27.168 32.6964 27.5093 32.1204 27.744C31.555 27.9787 30.9204 28.096 30.2164 28.096ZM37.873 28L34.721 19.52H36.177L38.977 27.2H38.289L41.201 19.52H42.497L45.345 27.2H44.673L47.537 19.52H48.913L45.745 28H44.273L41.601 20.992H42.049L39.345 28H37.873ZM54.9925 28V16.8H59.3605C60.3418 16.8 61.1792 16.9547 61.8725 17.264C62.5658 17.5733 63.0992 18.0213 63.4725 18.608C63.8458 19.1947 64.0325 19.8933 64.0325 20.704C64.0325 21.5147 63.8458 22.2133 63.4725 22.8C63.0992 23.376 62.5658 23.824 61.8725 24.144C61.1792 24.4533 60.3418 24.608 59.3605 24.608H55.8725L56.5925 23.856V28H54.9925ZM56.5925 24.016L55.8725 23.216H59.3125C60.3365 23.216 61.1098 22.9973 61.6325 22.56C62.1658 22.1227 62.4325 21.504 62.4325 20.704C62.4325 19.904 62.1658 19.2853 61.6325 18.848C61.1098 18.4107 60.3365 18.192 59.3125 18.192H55.8725L56.5925 17.392V24.016ZM69.9039 28.096C68.9972 28.096 68.1972 27.9093 67.5039 27.536C66.8212 27.1627 66.2879 26.6507 65.9039 26C65.5305 25.3493 65.3439 24.6027 65.3439 23.76C65.3439 22.9173 65.5252 22.1707 65.8879 21.52C66.2612 20.8693 66.7679 20.3627 67.4079 20C68.0585 19.6267 68.7892 19.44 69.5999 19.44C70.4212 19.44 71.1465 19.6213 71.7759 19.984C72.4052 20.3467 72.8959 20.8587 73.2479 21.52C73.6105 22.1707 73.7919 22.9333 73.7919 23.808C73.7919 23.872 73.7865 23.9467 73.7759 24.032C73.7759 24.1173 73.7705 24.1973 73.7599 24.272H66.5439V23.168H72.9599L72.3359 23.552C72.3465 23.008 72.2345 22.5227 71.9999 22.096C71.7652 21.6693 71.4399 21.3387 71.0239 21.104C70.6185 20.8587 70.1439 20.736 69.5999 20.736C69.0665 20.736 68.5919 20.8587 68.1759 21.104C67.7599 21.3387 67.4345 21.6747 67.1999 22.112C66.9652 22.5387 66.8479 23.0293 66.8479 23.584V23.84C66.8479 24.4053 66.9759 24.912 67.2319 25.36C67.4985 25.7973 67.8665 26.1387 68.3359 26.384C68.8052 26.6293 69.3439 26.752 69.9519 26.752C70.4532 26.752 70.9065 26.6667 71.3119 26.496C71.7279 26.3253 72.0905 26.0693 72.3999 25.728L73.2479 26.72C72.8639 27.168 72.3839 27.5093 71.8079 27.744C71.2425 27.9787 70.6079 28.096 69.9039 28.096ZM75.9248 28V16.128H77.4608V28H75.9248ZM85.6575 28V26.208L85.5775 25.872V22.816C85.5775 22.1653 85.3855 21.664 85.0015 21.312C84.6282 20.9493 84.0628 20.768 83.3055 20.768C82.8042 20.768 82.3135 20.8533 81.8335 21.024C81.3535 21.184 80.9482 21.4027 80.6175 21.68L79.9775 20.528C80.4148 20.176 80.9375 19.9093 81.5455 19.728C82.1642 19.536 82.8095 19.44 83.4815 19.44C84.6442 19.44 85.5402 19.7227 86.1695 20.288C86.7988 20.8533 87.1135 21.7173 87.1135 22.88V28H85.6575ZM82.8735 28.096C82.2442 28.096 81.6895 27.9893 81.2095 27.776C80.7402 27.5627 80.3775 27.2693 80.1215 26.896C79.8655 26.512 79.7375 26.08 79.7375 25.6C79.7375 25.1413 79.8442 24.7253 80.0575 24.352C80.2815 23.9787 80.6388 23.68 81.1295 23.456C81.6308 23.232 82.3028 23.12 83.1455 23.12H85.8335V24.224H83.2095C82.4415 24.224 81.9242 24.352 81.6575 24.608C81.3908 24.864 81.2575 25.1733 81.2575 25.536C81.2575 25.952 81.4228 26.288 81.7535 26.544C82.0842 26.7893 82.5428 26.912 83.1295 26.912C83.7055 26.912 84.2068 26.784 84.6335 26.528C85.0708 26.272 85.3855 25.8987 85.5775 25.408L85.8815 26.464C85.6788 26.9653 85.3215 27.3653 84.8095 27.664C84.2975 27.952 83.6522 28.096 82.8735 28.096ZM94.484 19.44C95.1773 19.44 95.7853 19.5733 96.308 19.84C96.8413 20.1067 97.2573 20.512 97.556 21.056C97.8547 21.6 98.004 22.288 98.004 23.12V28H96.468V23.296C96.468 22.4747 96.2653 21.856 95.86 21.44C95.4653 21.024 94.9053 20.816 94.18 20.816C93.636 20.816 93.1613 20.9227 92.756 21.136C92.3507 21.3493 92.036 21.664 91.812 22.08C91.5987 22.496 91.492 23.0133 91.492 23.632V28H89.956V19.52H91.428V21.808L91.188 21.2C91.4653 20.6453 91.892 20.2133 92.468 19.904C93.044 19.5947 93.716 19.44 94.484 19.44ZM104.559 31.2C103.78 31.2 103.023 31.088 102.287 30.864C101.561 30.6507 100.969 30.3413 100.511 29.936L101.247 28.752C101.641 29.0933 102.127 29.36 102.703 29.552C103.279 29.7547 103.881 29.856 104.511 29.856C105.513 29.856 106.249 29.6213 106.719 29.152C107.188 28.6827 107.423 27.968 107.423 27.008V25.216L107.583 23.536L107.503 21.84V19.52H108.959V26.848C108.959 28.3413 108.585 29.44 107.839 30.144C107.092 30.848 105.999 31.2 104.559 31.2ZM104.367 27.648C103.545 27.648 102.809 27.4773 102.159 27.136C101.519 26.784 101.007 26.2987 100.623 25.68C100.249 25.0613 100.063 24.3467 100.063 23.536C100.063 22.7147 100.249 22 100.623 21.392C101.007 20.7733 101.519 20.2933 102.159 19.952C102.809 19.6107 103.545 19.44 104.367 19.44C105.092 19.44 105.753 19.5893 106.351 19.888C106.948 20.176 107.423 20.624 107.775 21.232C108.137 21.84 108.319 22.608 108.319 23.536C108.319 24.4533 108.137 25.216 107.775 25.824C107.423 26.432 106.948 26.8907 106.351 27.2C105.753 27.4987 105.092 27.648 104.367 27.648ZM104.543 26.304C105.108 26.304 105.609 26.1867 106.047 25.952C106.484 25.7173 106.825 25.392 107.071 24.976C107.327 24.56 107.455 24.08 107.455 23.536C107.455 22.992 107.327 22.512 107.071 22.096C106.825 21.68 106.484 21.36 106.047 21.136C105.609 20.9013 105.108 20.784 104.543 20.784C103.977 20.784 103.471 20.9013 103.023 21.136C102.585 21.36 102.239 21.68 101.983 22.096C101.737 22.512 101.615 22.992 101.615 23.536C101.615 24.08 101.737 24.56 101.983 24.976C102.239 25.392 102.585 25.7173 103.023 25.952C103.471 26.1867 103.977 26.304 104.543 26.304ZM115.606 31.2C114.827 31.2 114.07 31.088 113.334 30.864C112.608 30.6507 112.016 30.3413 111.558 29.936L112.294 28.752C112.688 29.0933 113.174 29.36 113.75 29.552C114.326 29.7547 114.928 29.856 115.558 29.856C116.56 29.856 117.296 29.6213 117.766 29.152C118.235 28.6827 118.47 27.968 118.47 27.008V25.216L118.63 23.536L118.55 21.84V19.52H120.006V26.848C120.006 28.3413 119.632 29.44 118.885 30.144C118.139 30.848 117.046 31.2 115.606 31.2ZM115.414 27.648C114.592 27.648 113.856 27.4773 113.206 27.136C112.566 26.784 112.054 26.2987 111.67 25.68C111.296 25.0613 111.11 24.3467 111.11 23.536C111.11 22.7147 111.296 22 111.67 21.392C112.054 20.7733 112.566 20.2933 113.206 19.952C113.856 19.6107 114.592 19.44 115.414 19.44C116.139 19.44 116.8 19.5893 117.398 19.888C117.995 20.176 118.47 20.624 118.822 21.232C119.184 21.84 119.366 22.608 119.366 23.536C119.366 24.4533 119.184 25.216 118.822 25.824C118.47 26.432 117.995 26.8907 117.398 27.2C116.8 27.4987 116.139 27.648 115.414 27.648ZM115.59 26.304C116.155 26.304 116.656 26.1867 117.094 25.952C117.531 25.7173 117.872 25.392 118.118 24.976C118.374 24.56 118.502 24.08 118.502 23.536C118.502 22.992 118.374 22.512 118.118 22.096C117.872 21.68 117.531 21.36 117.094 21.136C116.656 20.9013 116.155 20.784 115.59 20.784C115.024 20.784 114.518 20.9013 114.07 21.136C113.632 21.36 113.286 21.68 113.03 22.096C112.784 22.512 112.662 22.992 112.662 23.536C112.662 24.08 112.784 24.56 113.03 24.976C113.286 25.392 113.632 25.7173 114.07 25.952C114.518 26.1867 115.024 26.304 115.59 26.304ZM128.204 28V26.208L128.124 25.872V22.816C128.124 22.1653 127.932 21.664 127.548 21.312C127.175 20.9493 126.61 20.768 125.852 20.768C125.351 20.768 124.86 20.8533 124.38 21.024C123.9 21.184 123.495 21.4027 123.164 21.68L122.524 20.528C122.962 20.176 123.484 19.9093 124.092 19.728C124.711 19.536 125.356 19.44 126.028 19.44C127.191 19.44 128.087 19.7227 128.716 20.288C129.346 20.8533 129.66 21.7173 129.66 22.88V28H128.204ZM125.42 28.096C124.791 28.096 124.236 27.9893 123.756 27.776C123.287 27.5627 122.924 27.2693 122.668 26.896C122.412 26.512 122.284 26.08 122.284 25.6C122.284 25.1413 122.391 24.7253 122.604 24.352C122.828 23.9787 123.186 23.68 123.676 23.456C124.178 23.232 124.85 23.12 125.692 23.12H128.38V24.224H125.756C124.988 24.224 124.471 24.352 124.204 24.608C123.938 24.864 123.804 25.1733 123.804 25.536C123.804 25.952 123.97 26.288 124.3 26.544C124.631 26.7893 125.09 26.912 125.676 26.912C126.252 26.912 126.754 26.784 127.18 26.528C127.618 26.272 127.932 25.8987 128.124 25.408L128.428 26.464C128.226 26.9653 127.868 27.3653 127.356 27.664C126.844 27.952 126.199 28.096 125.42 28.096ZM137.031 19.44C137.724 19.44 138.332 19.5733 138.855 19.84C139.388 20.1067 139.804 20.512 140.103 21.056C140.402 21.6 140.551 22.288 140.551 23.12V28H139.015V23.296C139.015 22.4747 138.812 21.856 138.407 21.44C138.012 21.024 137.452 20.816 136.727 20.816C136.183 20.816 135.708 20.9227 135.303 21.136C134.898 21.3493 134.583 21.664 134.359 22.08C134.146 22.496 134.039 23.0133 134.039 23.632V28H132.503V19.52H133.975V21.808L133.735 21.2C134.012 20.6453 134.439 20.2133 135.015 19.904C135.591 19.5947 136.263 19.44 137.031 19.44Z" fill="black"/>
<line x1="12" y1="51.5" x2="560" y2="51.5" stroke="black"/>
</svg>
