<svg width="480" height="230" viewBox="0 0 480 230" fill="none" xmlns="http://www.w3.org/2000/svg">
<rect width="480" height="230" rx="20" fill="#1E2C90"/>
<path d="M12.2023 177.6H22.3623C23.8557 177.6 25.1957 177.913 26.3823 178.54C27.569 179.153 28.509 180.053 29.2023 181.24C29.909 182.413 30.2623 183.833 30.2623 185.5C30.2623 187.153 29.9557 188.513 29.3423 189.58C28.729 190.633 27.989 191.427 27.1223 191.96C26.269 192.493 25.4757 192.8 24.7423 192.88L31.2223 204H25.5823L19.7223 193.26H17.1823V204H12.2023V177.6ZM17.1823 189.74H20.5823C21.849 189.74 22.9223 189.427 23.8023 188.8C24.6957 188.173 25.1423 187.12 25.1423 185.64C25.1423 184.16 24.7023 183.12 23.8223 182.52C22.9423 181.907 21.8757 181.6 20.6223 181.6H17.1823V189.74ZM39.1083 196.92C39.1483 197.667 39.3483 198.333 39.7083 198.92C40.0683 199.507 40.5883 199.967 41.2683 200.3C41.9616 200.633 42.7883 200.8 43.7483 200.8C44.6149 200.8 45.3749 200.693 46.0283 200.48C46.6949 200.267 47.2549 200.007 47.7083 199.7C48.1749 199.38 48.5216 199.073 48.7483 198.78L50.8483 201.9C50.4749 202.367 49.9749 202.8 49.3483 203.2C48.7349 203.587 47.9483 203.893 46.9883 204.12C46.0416 204.36 44.8549 204.48 43.4283 204.48C41.6283 204.48 40.0483 204.127 38.6883 203.42C37.3283 202.713 36.2683 201.693 35.5083 200.36C34.7483 199.027 34.3683 197.44 34.3683 195.6C34.3683 194 34.7083 192.56 35.3883 191.28C36.0683 189.987 37.0549 188.967 38.3483 188.22C39.6549 187.473 41.2216 187.1 43.0483 187.1C44.7683 187.1 46.2549 187.433 47.5083 188.1C48.7749 188.753 49.7549 189.713 50.4483 190.98C51.1416 192.247 51.4883 193.793 51.4883 195.62C51.4883 195.727 51.4816 195.947 51.4683 196.28C51.4683 196.6 51.4549 196.813 51.4283 196.92H39.1083ZM46.7283 193.78C46.7149 193.353 46.5816 192.893 46.3283 192.4C46.0883 191.907 45.7083 191.487 45.1883 191.14C44.6683 190.793 43.9749 190.62 43.1083 190.62C42.2416 190.62 41.5283 190.787 40.9683 191.12C40.4216 191.453 40.0083 191.867 39.7283 192.36C39.4483 192.84 39.2883 193.313 39.2483 193.78H46.7283ZM63.2186 212.78C62.0186 212.78 60.8653 212.667 59.7586 212.44C58.6653 212.213 57.6719 211.86 56.7786 211.38C55.8853 210.9 55.1386 210.273 54.5386 209.5L57.6186 206.38C57.8986 206.74 58.2586 207.1 58.6986 207.46C59.1519 207.833 59.7253 208.14 60.4186 208.38C61.1119 208.633 61.9786 208.76 63.0186 208.76C64.0053 208.76 64.8519 208.567 65.5586 208.18C66.2786 207.807 66.8319 207.273 67.2186 206.58C67.6186 205.887 67.8186 205.08 67.8186 204.16V203.7H72.7986V204.46C72.7986 206.273 72.3719 207.8 71.5186 209.04C70.6653 210.28 69.5186 211.213 68.0786 211.84C66.6386 212.467 65.0186 212.78 63.2186 212.78ZM67.8186 204V201.14C67.6986 201.433 67.3919 201.847 66.8986 202.38C66.4053 202.913 65.7386 203.4 64.8986 203.84C64.0719 204.267 63.0986 204.48 61.9786 204.48C60.4053 204.48 59.0119 204.107 57.7986 203.36C56.5853 202.6 55.6319 201.567 54.9386 200.26C54.2586 198.94 53.9186 197.453 53.9186 195.8C53.9186 194.147 54.2586 192.667 54.9386 191.36C55.6319 190.04 56.5853 189 57.7986 188.24C59.0119 187.48 60.4053 187.1 61.9786 187.1C63.0719 187.1 64.0186 187.287 64.8186 187.66C65.6319 188.02 66.2853 188.447 66.7786 188.94C67.2853 189.42 67.6119 189.853 67.7586 190.24V187.58H72.7986V204H67.8186ZM58.8986 195.8C58.8986 196.72 59.1053 197.533 59.5186 198.24C59.9319 198.933 60.4786 199.473 61.1586 199.86C61.8386 200.247 62.5786 200.44 63.3786 200.44C64.2186 200.44 64.9653 200.247 65.6186 199.86C66.2719 199.46 66.7853 198.913 67.1586 198.22C67.5453 197.513 67.7386 196.707 67.7386 195.8C67.7386 194.893 67.5453 194.093 67.1586 193.4C66.7853 192.693 66.2719 192.14 65.6186 191.74C64.9653 191.34 64.2186 191.14 63.3786 191.14C62.5786 191.14 61.8386 191.34 61.1586 191.74C60.4786 192.127 59.9319 192.673 59.5186 193.38C59.1053 194.073 58.8986 194.88 58.8986 195.8ZM82.187 204H77.087V176.48H82.187V204ZM91.3002 195.44C91.3002 196.907 91.5935 198.08 92.1802 198.96C92.7668 199.827 93.7135 200.26 95.0202 200.26C96.3402 200.26 97.2935 199.827 97.8802 198.96C98.4668 198.08 98.7602 196.907 98.7602 195.44V187.58H103.76V196.02C103.76 197.713 103.42 199.2 102.74 200.48C102.06 201.747 101.067 202.733 99.7602 203.44C98.4668 204.133 96.8868 204.48 95.0202 204.48C93.1668 204.48 91.5868 204.133 90.2802 203.44C88.9868 202.733 88.0002 201.747 87.3202 200.48C86.6402 199.2 86.3002 197.713 86.3002 196.02V187.58H91.3002V195.44ZM111.647 196.92C111.687 197.667 111.887 198.333 112.247 198.92C112.607 199.507 113.127 199.967 113.807 200.3C114.501 200.633 115.327 200.8 116.287 200.8C117.154 200.8 117.914 200.693 118.567 200.48C119.234 200.267 119.794 200.007 120.247 199.7C120.714 199.38 121.061 199.073 121.287 198.78L123.387 201.9C123.014 202.367 122.514 202.8 121.887 203.2C121.274 203.587 120.487 203.893 119.527 204.12C118.581 204.36 117.394 204.48 115.967 204.48C114.167 204.48 112.587 204.127 111.227 203.42C109.867 202.713 108.807 201.693 108.047 200.36C107.287 199.027 106.907 197.44 106.907 195.6C106.907 194 107.247 192.56 107.927 191.28C108.607 189.987 109.594 188.967 110.887 188.22C112.194 187.473 113.761 187.1 115.587 187.1C117.307 187.1 118.794 187.433 120.047 188.1C121.314 188.753 122.294 189.713 122.987 190.98C123.681 192.247 124.027 193.793 124.027 195.62C124.027 195.727 124.021 195.947 124.007 196.28C124.007 196.6 123.994 196.813 123.967 196.92H111.647ZM119.267 193.78C119.254 193.353 119.121 192.893 118.867 192.4C118.627 191.907 118.247 191.487 117.727 191.14C117.207 190.793 116.514 190.62 115.647 190.62C114.781 190.62 114.067 190.787 113.507 191.12C112.961 191.453 112.547 191.867 112.267 192.36C111.987 192.84 111.827 193.313 111.787 193.78H119.267Z" fill="white"/>
<rect x="148" y="178" width="313" height="37" rx="18.5" fill="white"/>
<path d="M440.605 200.667L444.762 196.5M444.762 196.5L440.605 192.333M444.762 196.5H433.676M451.691 196.5C451.691 203.404 446.107 209 439.219 209C432.331 209 426.747 203.404 426.747 196.5C426.747 189.596 432.331 184 439.219 184C446.107 184 451.691 189.596 451.691 196.5Z" stroke="#1E2C90" stroke-width="4" stroke-linecap="round" stroke-linejoin="round"/>
</svg>
