<svg width="480" height="230" viewBox="0 0 480 230" fill="none" xmlns="http://www.w3.org/2000/svg">
<rect width="480" height="230" rx="20" fill="#1E2C90"/>
<path d="M31.1672 179.6H41.3272C42.8205 179.6 44.1605 179.913 45.3472 180.54C46.5339 181.153 47.4739 182.053 48.1672 183.24C48.8739 184.413 49.2272 185.833 49.2272 187.5C49.2272 189.153 48.9205 190.513 48.3072 191.58C47.6939 192.633 46.9539 193.427 46.0872 193.96C45.2339 194.493 44.4405 194.8 43.7072 194.88L50.1872 206H44.5472L38.6872 195.26H36.1472V206H31.1672V179.6ZM36.1472 191.74H39.5472C40.8139 191.74 41.8872 191.427 42.7672 190.8C43.6605 190.173 44.1072 189.12 44.1072 187.64C44.1072 186.16 43.6672 185.12 42.7872 184.52C41.9072 183.907 40.8405 183.6 39.5872 183.6H36.1472V191.74ZM58.0731 198.92C58.1131 199.667 58.3131 200.333 58.6731 200.92C59.0331 201.507 59.5531 201.967 60.2331 202.3C60.9265 202.633 61.7531 202.8 62.7131 202.8C63.5798 202.8 64.3398 202.693 64.9931 202.48C65.6598 202.267 66.2198 202.007 66.6731 201.7C67.1398 201.38 67.4865 201.073 67.7131 200.78L69.8131 203.9C69.4398 204.367 68.9398 204.8 68.3131 205.2C67.6998 205.587 66.9131 205.893 65.9531 206.12C65.0065 206.36 63.8198 206.48 62.3931 206.48C60.5931 206.48 59.0131 206.127 57.6531 205.42C56.2931 204.713 55.2331 203.693 54.4731 202.36C53.7131 201.027 53.3331 199.44 53.3331 197.6C53.3331 196 53.6731 194.56 54.3531 193.28C55.0331 191.987 56.0198 190.967 57.3131 190.22C58.6198 189.473 60.1865 189.1 62.0131 189.1C63.7331 189.1 65.2198 189.433 66.4731 190.1C67.7398 190.753 68.7198 191.713 69.4131 192.98C70.1065 194.247 70.4531 195.793 70.4531 197.62C70.4531 197.727 70.4465 197.947 70.4331 198.28C70.4331 198.6 70.4198 198.813 70.3931 198.92H58.0731ZM65.6931 195.78C65.6798 195.353 65.5465 194.893 65.2931 194.4C65.0531 193.907 64.6731 193.487 64.1531 193.14C63.6331 192.793 62.9398 192.62 62.0731 192.62C61.2065 192.62 60.4931 192.787 59.9331 193.12C59.3865 193.453 58.9731 193.867 58.6931 194.36C58.4131 194.84 58.2531 195.313 58.2131 195.78H65.6931ZM78.9034 214.32H73.8634V189.58H78.9634V192.24C79.1234 191.853 79.4701 191.413 80.0034 190.92C80.5368 190.427 81.2301 190 82.0834 189.64C82.9501 189.28 83.9368 189.1 85.0434 189.1C86.6034 189.1 87.9634 189.48 89.1234 190.24C90.2834 191 91.1768 192.04 91.8034 193.36C92.4434 194.667 92.7634 196.147 92.7634 197.8C92.7634 199.453 92.4301 200.94 91.7634 202.26C91.0968 203.567 90.1701 204.6 88.9834 205.36C87.7968 206.107 86.4168 206.48 84.8434 206.48C83.6568 206.48 82.6368 206.267 81.7834 205.84C80.9301 205.413 80.2634 204.933 79.7834 204.4C79.3034 203.867 79.0101 203.447 78.9034 203.14V214.32ZM87.7834 197.8C87.7834 196.88 87.5834 196.073 87.1834 195.38C86.7968 194.673 86.2768 194.127 85.6234 193.74C84.9701 193.34 84.2434 193.14 83.4434 193.14C82.6034 193.14 81.8434 193.34 81.1634 193.74C80.4834 194.14 79.9434 194.693 79.5434 195.4C79.1568 196.093 78.9634 196.893 78.9634 197.8C78.9634 198.707 79.1568 199.513 79.5434 200.22C79.9434 200.913 80.4834 201.46 81.1634 201.86C81.8434 202.247 82.6034 202.44 83.4434 202.44C84.2434 202.44 84.9701 202.247 85.6234 201.86C86.2768 201.473 86.7968 200.933 87.1834 200.24C87.5834 199.533 87.7834 198.72 87.7834 197.8ZM108.971 206V203.14C108.851 203.433 108.544 203.847 108.051 204.38C107.558 204.913 106.891 205.4 106.051 205.84C105.224 206.267 104.251 206.48 103.131 206.48C101.558 206.48 100.164 206.107 98.9509 205.36C97.7376 204.6 96.7843 203.567 96.0909 202.26C95.4109 200.94 95.0709 199.453 95.0709 197.8C95.0709 196.147 95.4109 194.667 96.0909 193.36C96.7843 192.04 97.7376 191 98.9509 190.24C100.164 189.48 101.558 189.1 103.131 189.1C104.224 189.1 105.171 189.287 105.971 189.66C106.784 190.02 107.438 190.447 107.931 190.94C108.438 191.42 108.764 191.853 108.911 192.24V189.58H113.951V206H108.971ZM100.051 197.8C100.051 198.72 100.258 199.533 100.671 200.24C101.084 200.933 101.631 201.473 102.311 201.86C102.991 202.247 103.731 202.44 104.531 202.44C105.371 202.44 106.118 202.247 106.771 201.86C107.424 201.46 107.938 200.913 108.311 200.22C108.698 199.513 108.891 198.707 108.891 197.8C108.891 196.893 108.698 196.093 108.311 195.4C107.938 194.693 107.424 194.14 106.771 193.74C106.118 193.34 105.371 193.14 104.531 193.14C103.731 193.14 102.991 193.34 102.311 193.74C101.631 194.127 101.084 194.673 100.671 195.38C100.258 196.073 100.051 196.88 100.051 197.8ZM118.401 206V189.58H123.461V206H118.401ZM121.001 185.34C120.161 185.34 119.448 185.047 118.861 184.46C118.288 183.873 118.001 183.173 118.001 182.36C118.001 181.547 118.295 180.84 118.881 180.24C119.468 179.64 120.175 179.34 121.001 179.34C121.548 179.34 122.048 179.48 122.501 179.76C122.955 180.027 123.321 180.387 123.601 180.84C123.881 181.293 124.021 181.8 124.021 182.36C124.021 183.173 123.721 183.873 123.121 184.46C122.535 185.047 121.828 185.34 121.001 185.34ZM138.562 189.1C139.682 189.1 140.776 189.333 141.842 189.8C142.909 190.253 143.782 190.98 144.462 191.98C145.156 192.98 145.502 194.287 145.502 195.9V206H140.402V196.78C140.402 195.433 140.082 194.433 139.442 193.78C138.816 193.127 137.989 192.8 136.962 192.8C136.296 192.8 135.656 192.987 135.042 193.36C134.442 193.72 133.949 194.227 133.562 194.88C133.189 195.52 133.002 196.253 133.002 197.08V206H127.922V189.58H133.002V192.2C133.149 191.747 133.482 191.28 134.002 190.8C134.522 190.32 135.182 189.92 135.982 189.6C136.782 189.267 137.642 189.1 138.562 189.1ZM148.049 189.58H151.009V182.84H156.049V189.58H159.929V193.8H156.049V199.74C156.049 200.527 156.176 201.14 156.429 201.58C156.683 202.007 157.083 202.22 157.629 202.22C158.043 202.22 158.383 202.14 158.649 201.98C158.916 201.807 159.076 201.687 159.129 201.62L160.929 205.26C160.849 205.34 160.589 205.48 160.149 205.68C159.723 205.88 159.169 206.06 158.489 206.22C157.823 206.393 157.069 206.48 156.229 206.48C154.723 206.48 153.476 206.047 152.489 205.18C151.503 204.3 151.009 202.94 151.009 201.1V193.8H148.049V189.58Z" fill="white"/>
<rect x="190" y="178" width="270" height="37" rx="18.5" fill="white"/>
<path d="M440.843 200.667L445 196.5M445 196.5L440.843 192.333M445 196.5H433.914M451.929 196.5C451.929 203.404 446.345 209 439.457 209C432.569 209 426.985 203.404 426.985 196.5C426.985 189.596 432.569 184 439.457 184C446.345 184 451.929 189.596 451.929 196.5Z" stroke="#1E2C90" stroke-width="4" stroke-linecap="round" stroke-linejoin="round"/>
</svg>
