<svg width="137" height="20" viewBox="0 0 137 20" fill="none" xmlns="http://www.w3.org/2000/svg">
<path d="M42.5358 4.8H46.5058C47.9124 4.8 49.0758 5.08333 49.9958 5.65C50.9224 6.21 51.6158 6.98667 52.0758 7.98C52.5358 8.97333 52.7658 10.11 52.7658 11.39C52.7658 12.6767 52.5358 13.8167 52.0758 14.81C51.6158 15.8033 50.9224 16.5833 49.9958 17.15C49.0758 17.7167 47.9124 18 46.5058 18H42.5358V4.8ZM45.5158 7.45V15.35H46.2358C46.9891 15.35 47.6124 15.18 48.1058 14.84C48.5991 14.4933 48.9691 14.0233 49.2158 13.43C49.4691 12.83 49.5958 12.1567 49.5958 11.41C49.5958 10.6567 49.4724 9.98333 49.2258 9.39C48.9858 8.79 48.6158 8.31667 48.1158 7.97C47.6158 7.62333 46.9891 7.45 46.2358 7.45H45.5158ZM60.8975 18V16.67C60.8375 16.8033 60.6842 16.9967 60.4375 17.25C60.1975 17.5033 59.8775 17.7333 59.4775 17.94C59.0775 18.14 58.6108 18.24 58.0775 18.24C57.2775 18.24 56.5775 18.0467 55.9775 17.66C55.3775 17.2667 54.9108 16.7433 54.5775 16.09C54.2442 15.43 54.0775 14.7 54.0775 13.9C54.0775 13.1 54.2442 12.3733 54.5775 11.72C54.9108 11.06 55.3775 10.5333 55.9775 10.14C56.5775 9.74667 57.2775 9.55 58.0775 9.55C58.5908 9.55 59.0408 9.63333 59.4275 9.8C59.8142 9.96 60.1275 10.1533 60.3675 10.38C60.6075 10.6 60.7742 10.8033 60.8675 10.99V9.79H63.8875V18H60.8975ZM57.0575 13.9C57.0575 14.2733 57.1442 14.61 57.3175 14.91C57.4908 15.2033 57.7208 15.4333 58.0075 15.6C58.3008 15.7667 58.6242 15.85 58.9775 15.85C59.3442 15.85 59.6675 15.7667 59.9475 15.6C60.2275 15.4333 60.4475 15.2033 60.6075 14.91C60.7742 14.61 60.8575 14.2733 60.8575 13.9C60.8575 13.5267 60.7742 13.1933 60.6075 12.9C60.4475 12.6 60.2275 12.3667 59.9475 12.2C59.6675 12.0267 59.3442 11.94 58.9775 11.94C58.6242 11.94 58.3008 12.0267 58.0075 12.2C57.7208 12.3667 57.4908 12.6 57.3175 12.9C57.1442 13.1933 57.0575 13.5267 57.0575 13.9ZM69.4966 9.55C70.0366 9.55 70.5299 9.59667 70.9766 9.69C71.4232 9.77667 71.7966 9.87667 72.0966 9.99C72.4032 10.1033 72.5999 10.1967 72.6866 10.27L71.6966 12.06C71.5699 11.9667 71.3332 11.8467 70.9866 11.7C70.6466 11.5533 70.2666 11.48 69.8466 11.48C69.5266 11.48 69.2566 11.53 69.0366 11.63C68.8166 11.7233 68.7066 11.8733 68.7066 12.08C68.7066 12.2867 68.8266 12.4533 69.0666 12.58C69.3132 12.7 69.6666 12.8067 70.1266 12.9C70.5266 12.98 70.9332 13.1067 71.3466 13.28C71.7599 13.4533 72.1032 13.71 72.3766 14.05C72.6566 14.3833 72.7966 14.83 72.7966 15.39C72.7966 15.9633 72.6732 16.4367 72.4266 16.81C72.1799 17.1833 71.8532 17.4733 71.4466 17.68C71.0399 17.8867 70.5999 18.03 70.1266 18.11C69.6532 18.1967 69.1932 18.24 68.7466 18.24C68.1199 18.24 67.5732 18.1833 67.1066 18.07C66.6466 17.9567 66.2732 17.8267 65.9866 17.68C65.6999 17.5333 65.4999 17.4167 65.3866 17.33L66.3666 15.33C66.5399 15.4767 66.8232 15.6433 67.2166 15.83C67.6099 16.01 68.0266 16.1 68.4666 16.1C68.8932 16.1 69.2232 16.0367 69.4566 15.91C69.6899 15.7833 69.8066 15.6167 69.8066 15.41C69.8066 15.2433 69.7499 15.11 69.6366 15.01C69.5232 14.91 69.3632 14.8233 69.1566 14.75C68.9499 14.6767 68.6999 14.61 68.4066 14.55C68.1399 14.4967 67.8566 14.4133 67.5566 14.3C67.2566 14.1867 66.9732 14.0333 66.7066 13.84C66.4399 13.64 66.2232 13.39 66.0566 13.09C65.8899 12.79 65.8066 12.4267 65.8066 12C65.8066 11.4533 65.9832 11 66.3366 10.64C66.6899 10.28 67.1466 10.01 67.7066 9.83C68.2666 9.64333 68.8632 9.55 69.4966 9.55ZM80.1303 9.55C80.7036 9.55 81.2636 9.66667 81.8103 9.9C82.357 10.1333 82.807 10.5033 83.1603 11.01C83.5136 11.51 83.6903 12.17 83.6903 12.99V18H80.6503V13.49C80.6503 12.9033 80.517 12.4633 80.2503 12.17C79.9903 11.87 79.6336 11.72 79.1803 11.72C78.8803 11.72 78.5936 11.8 78.3203 11.96C78.047 12.1133 77.8236 12.3333 77.6503 12.62C77.4836 12.9 77.4003 13.2233 77.4003 13.59V18H74.3503V4.24H77.4003V11C77.4736 10.78 77.637 10.56 77.8903 10.34C78.1503 10.1133 78.4736 9.92667 78.8603 9.78C79.2536 9.62667 79.677 9.55 80.1303 9.55ZM85.4345 18V4.24H88.4745V10.99C88.5345 10.8033 88.6879 10.6 88.9345 10.38C89.1879 10.1533 89.5179 9.96 89.9245 9.8C90.3379 9.63333 90.8045 9.55 91.3245 9.55C92.1245 9.55 92.8179 9.74667 93.4045 10.14C93.9912 10.5333 94.4445 11.06 94.7645 11.72C95.0845 12.3733 95.2445 13.1 95.2445 13.9C95.2445 14.7 95.0845 15.43 94.7645 16.09C94.4445 16.7433 93.9912 17.2667 93.4045 17.66C92.8179 18.0467 92.1245 18.24 91.3245 18.24C90.8845 18.24 90.4679 18.16 90.0745 18C89.6879 17.8467 89.3512 17.65 89.0645 17.41C88.7845 17.1633 88.5779 16.9167 88.4445 16.67V18H85.4345ZM92.2645 13.9C92.2645 13.5267 92.1812 13.1933 92.0145 12.9C91.8545 12.6 91.6312 12.3667 91.3445 12.2C91.0645 12.0267 90.7479 11.94 90.3945 11.94C90.0279 11.94 89.6979 12.0267 89.4045 12.2C89.1179 12.3667 88.8912 12.6 88.7245 12.9C88.5579 13.1933 88.4745 13.5267 88.4745 13.9C88.4745 14.2733 88.5579 14.61 88.7245 14.91C88.8912 15.2033 89.1179 15.4333 89.4045 15.6C89.6979 15.7667 90.0279 15.85 90.3945 15.85C90.7479 15.85 91.0645 15.7667 91.3445 15.6C91.6312 15.4333 91.8545 15.2033 92.0145 14.91C92.1812 14.61 92.2645 14.2733 92.2645 13.9ZM100.836 18.24C99.9364 18.24 99.1364 18.0567 98.4364 17.69C97.7431 17.3167 97.1964 16.8067 96.7964 16.16C96.4031 15.5067 96.2064 14.76 96.2064 13.92C96.2064 13.08 96.4031 12.3333 96.7964 11.68C97.1964 11.02 97.7431 10.5 98.4364 10.12C99.1364 9.74 99.9364 9.55 100.836 9.55C101.736 9.55 102.53 9.74 103.216 10.12C103.903 10.5 104.44 11.02 104.826 11.68C105.213 12.3333 105.406 13.08 105.406 13.92C105.406 14.76 105.213 15.5067 104.826 16.16C104.44 16.8067 103.903 17.3167 103.216 17.69C102.53 18.0567 101.736 18.24 100.836 18.24ZM100.836 15.74C101.183 15.74 101.483 15.6633 101.736 15.51C101.99 15.3567 102.186 15.14 102.326 14.86C102.466 14.58 102.536 14.2633 102.536 13.91C102.536 13.55 102.466 13.23 102.326 12.95C102.186 12.67 101.99 12.45 101.736 12.29C101.483 12.13 101.183 12.05 100.836 12.05C100.49 12.05 100.186 12.13 99.9264 12.29C99.6731 12.45 99.4731 12.67 99.3264 12.95C99.1864 13.23 99.1164 13.55 99.1164 13.91C99.1164 14.2633 99.1864 14.58 99.3264 14.86C99.4731 15.14 99.6731 15.3567 99.9264 15.51C100.186 15.6633 100.49 15.74 100.836 15.74ZM113.358 18V16.67C113.298 16.8033 113.145 16.9967 112.898 17.25C112.658 17.5033 112.338 17.7333 111.938 17.94C111.538 18.14 111.072 18.24 110.538 18.24C109.738 18.24 109.038 18.0467 108.438 17.66C107.838 17.2667 107.372 16.7433 107.038 16.09C106.705 15.43 106.538 14.7 106.538 13.9C106.538 13.1 106.705 12.3733 107.038 11.72C107.372 11.06 107.838 10.5333 108.438 10.14C109.038 9.74667 109.738 9.55 110.538 9.55C111.052 9.55 111.502 9.63333 111.888 9.8C112.275 9.96 112.588 10.1533 112.828 10.38C113.068 10.6 113.235 10.8033 113.328 10.99V9.79H116.348V18H113.358ZM109.518 13.9C109.518 14.2733 109.605 14.61 109.778 14.91C109.952 15.2033 110.182 15.4333 110.468 15.6C110.762 15.7667 111.085 15.85 111.438 15.85C111.805 15.85 112.128 15.7667 112.408 15.6C112.688 15.4333 112.908 15.2033 113.068 14.91C113.235 14.61 113.318 14.2733 113.318 13.9C113.318 13.5267 113.235 13.1933 113.068 12.9C112.908 12.6 112.688 12.3667 112.408 12.2C112.128 12.0267 111.805 11.94 111.438 11.94C111.085 11.94 110.762 12.0267 110.468 12.2C110.182 12.3667 109.952 12.6 109.778 12.9C109.605 13.1933 109.518 13.5267 109.518 13.9ZM121.058 18H118.018V9.79H121.058V11.06H121.008C121.061 10.9067 121.191 10.7133 121.398 10.48C121.604 10.24 121.894 10.0267 122.268 9.84C122.641 9.64667 123.098 9.55 123.638 9.55C124.018 9.55 124.368 9.61 124.688 9.73C125.008 9.84333 125.241 9.95333 125.388 10.06L124.208 12.53C124.114 12.4167 123.948 12.3 123.708 12.18C123.474 12.0533 123.181 11.99 122.828 11.99C122.421 11.99 122.084 12.0933 121.818 12.3C121.558 12.5067 121.364 12.7567 121.238 13.05C121.118 13.3433 121.058 13.62 121.058 13.88V18ZM129.512 18.24C128.719 18.24 128.029 18.0467 127.442 17.66C126.856 17.2667 126.399 16.7433 126.072 16.09C125.752 15.43 125.592 14.7 125.592 13.9C125.592 13.1 125.752 12.3733 126.072 11.72C126.399 11.06 126.856 10.5333 127.442 10.14C128.029 9.74667 128.719 9.55 129.512 9.55C130.039 9.55 130.506 9.63333 130.912 9.8C131.319 9.96 131.649 10.1533 131.902 10.38C132.156 10.6 132.309 10.8033 132.362 10.99V4.24H135.402V18H132.392V16.67C132.266 16.9167 132.059 17.1633 131.772 17.41C131.486 17.65 131.149 17.8467 130.762 18C130.376 18.16 129.959 18.24 129.512 18.24ZM130.442 15.85C130.809 15.85 131.136 15.7667 131.422 15.6C131.716 15.4333 131.946 15.2033 132.112 14.91C132.279 14.61 132.362 14.2733 132.362 13.9C132.362 13.5267 132.279 13.1933 132.112 12.9C131.946 12.6 131.716 12.3667 131.422 12.2C131.136 12.0267 130.809 11.94 130.442 11.94C130.089 11.94 129.769 12.0267 129.482 12.2C129.202 12.3667 128.979 12.6 128.812 12.9C128.652 13.1933 128.572 13.5267 128.572 13.9C128.572 14.2733 128.652 14.61 128.812 14.91C128.979 15.2033 129.202 15.4333 129.482 15.6C129.769 15.7667 130.089 15.85 130.442 15.85Z" fill="#8C8C8C"/>
<path d="M13.024 20C14.2771 20 15.3524 19.9342 16.2508 19.7345C17.1607 19.5323 17.9494 19.1798 18.5646 18.5646C19.1798 17.9494 19.5323 17.1607 19.7345 16.2508C19.9342 15.3524 20 14.2771 20 13.024V10C20 8.8954 19.1046 8 18 8H10C8.8954 8 8 8.8954 8 10V18C8 19.1046 8.8954 20 10 20H13.024Z" fill="#8C8C8C"/>
<path d="M0 13.1009C0 14.3732 0.0658401 15.465 0.26552 16.3772C0.46772 17.301 0.82021 18.1018 1.43543 18.7264C2.05065 19.351 2.83933 19.7089 3.74915 19.9142C3.83628 19.9338 3.92385 19.9523 4.01178 19.9695C5.09629 20.1822 6 19.2503 6 18.1288V10.0306C6 8.90911 5.10457 8 4 8H2C0.89543 8 0 8.90911 0 10.0306V13.1009Z" fill="#8C8C8C"/>
<path d="M6.91572 0C5.63905 0 4.5436 0.0658401 3.62825 0.26552C2.70134 0.46772 1.89784 0.82021 1.27107 1.43543C0.64429 2.05065 0.285179 2.83933 0.0791804 3.74915C0.0622686 3.82386 0.0463551 3.89881 0.0314095 3.97398C-0.186998 5.07267 0.76524 6 1.90567 6H18.1224C19.2477 6 20.1829 5.09629 19.9694 4.01178C19.9521 3.92385 19.9336 3.83628 19.9139 3.74915C19.7078 2.83933 19.3488 2.05065 18.7219 1.43543C18.0952 0.82021 17.2917 0.46772 16.3648 0.26552C15.4494 0.0658401 14.354 0 13.0774 0H6.91572Z" fill="#8C8C8C"/>
</svg>
