<svg width="20" height="20" viewBox="0 0 20 20" fill="none" xmlns="http://www.w3.org/2000/svg">
<path fill-rule="evenodd" clip-rule="evenodd" d="M5.25007 0.38782C6.54878 0.0992 8.1243 0 10 0C11.8757 0 13.4512 0.0992 14.7499 0.38782C16.06 0.67897 17.1488 1.176 17.9864 2.01358C18.824 2.85116 19.321 3.94002 19.6122 5.25007C19.9008 6.54878 20 8.1243 20 10C20 11.8757 19.9008 13.4512 19.6122 14.7499C19.321 16.06 18.824 17.1488 17.9864 17.9864C17.1488 18.824 16.06 19.321 14.7499 19.6122C13.4512 19.9008 11.8757 20 10 20C8.1243 20 6.54878 19.9008 5.25007 19.6122C3.94002 19.321 2.85116 18.824 2.01358 17.9864C1.176 17.1488 0.67897 16.06 0.38782 14.7499C0.0992 13.4512 0 11.8757 0 10C0 8.1243 0.0992 6.54878 0.38782 5.25007C0.67897 3.94002 1.176 2.85116 2.01358 2.01358C2.85116 1.176 3.94002 0.67897 5.25007 0.38782ZM10 4C7.79086 4 6 5.79086 6 8C6 10.2091 7.79086 12 10 12C12.2091 12 14 10.2091 14 8C14 5.79086 12.2091 4 10 4ZM16.3775 15.2942C16.7303 15.8695 16.6055 16.63 16.0369 16.9935C15.5199 17.3241 14.9158 17.5265 14.3159 17.6598C13.2322 17.9006 11.8299 18 9.9998 18C8.1698 18 6.76744 17.9006 5.68381 17.6598C5.09516 17.529 4.50205 17.3319 3.99131 17.012C3.41247 16.6495 3.28523 15.8786 3.64674 15.2991C4.06303 14.6318 4.63676 14.1075 5.40882 13.7344C6.58022 13.1684 8.1157 13 9.9996 13C11.8771 13 13.4109 13.1548 14.5807 13.7047C15.3727 14.077 15.9572 14.6089 16.3775 15.2942Z" fill="#8C8C8C"/>
</svg>
