<svg width="126" height="21" viewBox="0 0 126 21" fill="none" xmlns="http://www.w3.org/2000/svg">
<path d="M42.9452 2.8H51.3752V5.42H45.9252V8.11H51.3252V10.65H45.9252V13.38H51.3752V16H42.9452V2.8ZM64.9288 7.55C65.5488 7.55 66.0955 7.68 66.5688 7.94C67.0422 8.19333 67.4122 8.58667 67.6788 9.12C67.9522 9.65333 68.0888 10.34 68.0888 11.18V16H65.0988V11.64C65.0988 11.0667 65.0122 10.6033 64.8388 10.25C64.6655 9.89667 64.3222 9.72 63.8088 9.72C63.5022 9.72 63.2322 9.8 62.9988 9.96C62.7655 10.12 62.5855 10.3433 62.4588 10.63C62.3322 10.91 62.2688 11.2467 62.2688 11.64V16H59.4788V11.64C59.4788 11.0667 59.3822 10.6033 59.1888 10.25C59.0022 9.89667 58.6688 9.72 58.1888 9.72C57.8822 9.72 57.6122 9.8 57.3788 9.96C57.1455 10.1133 56.9655 10.3333 56.8388 10.62C56.7188 10.9 56.6588 11.24 56.6588 11.64V16H53.6388V7.79H56.6588V8.96C56.7388 8.75333 56.9122 8.54333 57.1788 8.33C57.4522 8.11 57.7888 7.92667 58.1888 7.78C58.5888 7.62667 59.0122 7.55 59.4588 7.55C59.9455 7.55 60.3522 7.62333 60.6788 7.77C61.0055 7.91 61.2722 8.1 61.4788 8.34C61.6922 8.58 61.8622 8.84 61.9888 9.12C62.0822 8.88 62.2655 8.64 62.5388 8.4C62.8188 8.15333 63.1655 7.95 63.5788 7.79C63.9988 7.63 64.4488 7.55 64.9288 7.55ZM72.8398 20.16H69.8298V7.79H72.8698V8.99C72.9631 8.80333 73.1398 8.6 73.3998 8.38C73.6664 8.15333 74.0031 7.96 74.4098 7.8C74.8231 7.63333 75.2898 7.55 75.8098 7.55C76.6098 7.55 77.2931 7.74667 77.8598 8.14C78.4331 8.53333 78.8731 9.06 79.1798 9.72C79.4864 10.3733 79.6398 11.1 79.6398 11.9C79.6398 12.7 79.4764 13.43 79.1498 14.09C78.8231 14.7433 78.3631 15.2667 77.7698 15.66C77.1831 16.0467 76.4898 16.24 75.6898 16.24C75.1164 16.24 74.6264 16.14 74.2198 15.94C73.8198 15.7333 73.5031 15.5067 73.2698 15.26C73.0431 15.0067 72.8998 14.81 72.8398 14.67V20.16ZM76.6698 11.9C76.6698 11.5267 76.5864 11.1933 76.4198 10.9C76.2531 10.6 76.0264 10.3667 75.7398 10.2C75.4598 10.0267 75.1431 9.94 74.7898 9.94C74.4231 9.94 74.0931 10.0267 73.7998 10.2C73.5131 10.3667 73.2864 10.6 73.1198 10.9C72.9531 11.1933 72.8698 11.5267 72.8698 11.9C72.8698 12.2733 72.9531 12.61 73.1198 12.91C73.2864 13.2033 73.5131 13.4333 73.7998 13.6C74.0931 13.7667 74.4231 13.85 74.7898 13.85C75.1431 13.85 75.4598 13.7667 75.7398 13.6C76.0264 13.4333 76.2531 13.2033 76.4198 12.91C76.5864 12.61 76.6698 12.2733 76.6698 11.9ZM84.2179 16H81.1679V2.24H84.2179V16ZM90.3579 16.24C89.4579 16.24 88.6579 16.0567 87.9579 15.69C87.2646 15.3167 86.7179 14.8067 86.3179 14.16C85.9246 13.5067 85.7279 12.76 85.7279 11.92C85.7279 11.08 85.9246 10.3333 86.3179 9.68C86.7179 9.02 87.2646 8.5 87.9579 8.12C88.6579 7.74 89.4579 7.55 90.3579 7.55C91.2579 7.55 92.0512 7.74 92.7379 8.12C93.4246 8.5 93.9612 9.02 94.3479 9.68C94.7346 10.3333 94.9279 11.08 94.9279 11.92C94.9279 12.76 94.7346 13.5067 94.3479 14.16C93.9612 14.8067 93.4246 15.3167 92.7379 15.69C92.0512 16.0567 91.2579 16.24 90.3579 16.24ZM90.3579 13.74C90.7046 13.74 91.0046 13.6633 91.2579 13.51C91.5112 13.3567 91.7079 13.14 91.8479 12.86C91.9879 12.58 92.0579 12.2633 92.0579 11.91C92.0579 11.55 91.9879 11.23 91.8479 10.95C91.7079 10.67 91.5112 10.45 91.2579 10.29C91.0046 10.13 90.7046 10.05 90.3579 10.05C90.0112 10.05 89.7079 10.13 89.4479 10.29C89.1946 10.45 88.9946 10.67 88.8479 10.95C88.7079 11.23 88.6379 11.55 88.6379 11.91C88.6379 12.2633 88.7079 12.58 88.8479 12.86C88.9946 13.14 89.1946 13.3567 89.4479 13.51C89.7079 13.6633 90.0112 13.74 90.3579 13.74ZM100.65 13.37L102.87 7.79H105.85L100.21 20.16H97.1699L99.0699 16L95.6399 7.79H98.6699L100.65 13.37ZM109.223 12.54C109.243 12.8333 109.336 13.0933 109.503 13.32C109.67 13.5467 109.9 13.7267 110.193 13.86C110.493 13.9867 110.846 14.05 111.253 14.05C111.64 14.05 111.986 14.01 112.293 13.93C112.606 13.85 112.876 13.75 113.103 13.63C113.336 13.51 113.516 13.3867 113.643 13.26L114.823 15.14C114.656 15.32 114.42 15.4967 114.113 15.67C113.813 15.8367 113.416 15.9733 112.923 16.08C112.43 16.1867 111.806 16.24 111.053 16.24C110.146 16.24 109.34 16.07 108.633 15.73C107.926 15.39 107.37 14.89 106.963 14.23C106.556 13.57 106.353 12.7633 106.353 11.81C106.353 11.01 106.526 10.29 106.873 9.65C107.226 9.00333 107.736 8.49333 108.403 8.12C109.07 7.74 109.873 7.55 110.813 7.55C111.706 7.55 112.48 7.71333 113.133 8.04C113.793 8.36667 114.3 8.85333 114.653 9.5C115.013 10.14 115.193 10.94 115.193 11.9C115.193 11.9533 115.19 12.06 115.183 12.22C115.183 12.38 115.176 12.4867 115.163 12.54H109.223ZM112.333 10.95C112.326 10.7367 112.27 10.5267 112.163 10.32C112.056 10.1067 111.896 9.93333 111.683 9.8C111.47 9.66 111.196 9.59 110.863 9.59C110.53 9.59 110.246 9.65667 110.013 9.79C109.786 9.91667 109.613 10.0833 109.493 10.29C109.373 10.4967 109.306 10.7167 109.293 10.95H112.333ZM119.184 12.54C119.204 12.8333 119.297 13.0933 119.464 13.32C119.63 13.5467 119.86 13.7267 120.154 13.86C120.454 13.9867 120.807 14.05 121.214 14.05C121.6 14.05 121.947 14.01 122.254 13.93C122.567 13.85 122.837 13.75 123.064 13.63C123.297 13.51 123.477 13.3867 123.604 13.26L124.784 15.14C124.617 15.32 124.38 15.4967 124.074 15.67C123.774 15.8367 123.377 15.9733 122.884 16.08C122.39 16.1867 121.767 16.24 121.014 16.24C120.107 16.24 119.3 16.07 118.594 15.73C117.887 15.39 117.33 14.89 116.924 14.23C116.517 13.57 116.314 12.7633 116.314 11.81C116.314 11.01 116.487 10.29 116.834 9.65C117.187 9.00333 117.697 8.49333 118.364 8.12C119.03 7.74 119.834 7.55 120.774 7.55C121.667 7.55 122.44 7.71333 123.094 8.04C123.754 8.36667 124.26 8.85333 124.614 9.5C124.974 10.14 125.154 10.94 125.154 11.9C125.154 11.9533 125.15 12.06 125.144 12.22C125.144 12.38 125.137 12.4867 125.124 12.54H119.184ZM122.294 10.95C122.287 10.7367 122.23 10.5267 122.124 10.32C122.017 10.1067 121.857 9.93333 121.644 9.8C121.43 9.66 121.157 9.59 120.824 9.59C120.49 9.59 120.207 9.65667 119.974 9.79C119.747 9.91667 119.574 10.0833 119.454 10.29C119.334 10.4967 119.267 10.7167 119.254 10.95H122.294Z" fill="#1E2C90"/>
<path fill-rule="evenodd" clip-rule="evenodd" d="M5.25007 0.38782C6.54878 0.0992 8.1243 0 10 0C11.8757 0 13.4512 0.0992 14.7499 0.38782C16.06 0.67897 17.1488 1.176 17.9864 2.01358C18.824 2.85116 19.321 3.94002 19.6122 5.25007C19.9008 6.54878 20 8.1243 20 10C20 11.8757 19.9008 13.4512 19.6122 14.7499C19.321 16.06 18.824 17.1488 17.9864 17.9864C17.1488 18.824 16.06 19.321 14.7499 19.6122C13.4512 19.9008 11.8757 20 10 20C8.1243 20 6.54878 19.9008 5.25007 19.6122C3.94002 19.321 2.85116 18.824 2.01358 17.9864C1.176 17.1488 0.67897 16.06 0.38782 14.7499C0.0992 13.4512 0 11.8757 0 10C0 8.1243 0.0992 6.54878 0.38782 5.25007C0.67897 3.94002 1.176 2.85116 2.01358 2.01358C2.85116 1.176 3.94002 0.67897 5.25007 0.38782ZM10 4C7.79086 4 6 5.79086 6 8C6 10.2091 7.79086 12 10 12C12.2091 12 14 10.2091 14 8C14 5.79086 12.2091 4 10 4ZM16.3775 15.2942C16.7303 15.8695 16.6055 16.63 16.0369 16.9935C15.5199 17.3241 14.9158 17.5265 14.3159 17.6598C13.2322 17.9006 11.8299 18 9.9998 18C8.1698 18 6.76744 17.9006 5.68381 17.6598C5.09516 17.529 4.50205 17.3319 3.99131 17.012C3.41247 16.6495 3.28523 15.8786 3.64674 15.2991C4.06303 14.6318 4.63676 14.1075 5.40882 13.7344C6.58022 13.1684 8.1157 13 9.9996 13C11.8771 13 13.4109 13.1548 14.5807 13.7047C15.3727 14.077 15.9572 14.6089 16.3775 15.2942Z" fill="#1E2C90"/>
</svg>
