<svg width="20" height="20" viewBox="0 0 20 20" fill="none" xmlns="http://www.w3.org/2000/svg">
<path d="M13.024 20C14.2771 20 15.3524 19.9342 16.2508 19.7345C17.1607 19.5323 17.9494 19.1798 18.5646 18.5646C19.1798 17.9494 19.5323 17.1607 19.7345 16.2508C19.9342 15.3524 20 14.2771 20 13.024V10C20 8.8954 19.1046 8 18 8H10C8.8954 8 8 8.8954 8 10V18C8 19.1046 8.8954 20 10 20H13.024Z" fill="#1E2C90"/>
<path d="M0 13.1009C0 14.3732 0.0658401 15.465 0.26552 16.3772C0.46772 17.301 0.82021 18.1018 1.43543 18.7264C2.05065 19.351 2.83933 19.7089 3.74915 19.9142C3.83628 19.9338 3.92385 19.9523 4.01178 19.9695C5.09629 20.1822 6 19.2503 6 18.1288V10.0306C6 8.90911 5.10457 8 4 8H2C0.89543 8 0 8.90911 0 10.0306V13.1009Z" fill="#1E2C90"/>
<path d="M6.91572 0C5.63905 0 4.5436 0.0658401 3.62825 0.26552C2.70134 0.46772 1.89784 0.82021 1.27107 1.43543C0.64429 2.05065 0.285179 2.83933 0.0791804 3.74915C0.0622686 3.82386 0.0463551 3.89881 0.0314095 3.97398C-0.186998 5.07267 0.76524 6 1.90567 6H18.1224C19.2477 6 20.1829 5.09629 19.9694 4.01178C19.9521 3.92385 19.9336 3.83628 19.9139 3.74915C19.7078 2.83933 19.3488 2.05065 18.7219 1.43543C18.0952 0.82021 17.2917 0.46772 16.3648 0.26552C15.4494 0.0658401 14.354 0 13.0774 0H6.91572Z" fill="#1E2C90"/>
</svg>
