<svg width="21" height="21" viewBox="0 0 21 21" fill="none" xmlns="http://www.w3.org/2000/svg">
<path fill-rule="evenodd" clip-rule="evenodd" d="M9.17334 1.88126C8.53417 0.798827 7.13534 0.395867 6.03257 1.05268L4.39187 1.99868C3.18172 2.6957 2.7714 4.25862 3.46271 5.46417L3.4632 5.46502C3.81982 6.08494 3.76385 6.48094 3.65254 6.67557C3.54116 6.8703 3.22931 7.11709 2.52051 7.11709C1.1254 7.11709 0 8.26552 0 9.65666V11.3433C0 12.7345 1.1254 13.8829 2.52051 13.8829C3.22931 13.8829 3.54116 14.1297 3.65254 14.3244C3.76385 14.5191 3.81982 14.915 3.4632 15.535L3.46271 15.5358C2.7714 16.7414 3.1821 18.3046 4.39226 19.0016L6.03265 19.9473C7.13542 20.6041 8.53417 20.2012 9.17334 19.1188L9.28224 18.9293C9.63892 18.3094 10.0088 18.1595 10.233 18.1595C10.4562 18.1595 10.8233 18.3081 11.1752 18.9266L11.1767 18.9293L11.2813 19.1114L11.2856 19.1188C11.9248 20.2012 13.3235 20.6041 14.4263 19.9473L16.0671 19.0014C17.2781 18.3038 17.6858 16.7517 16.998 15.5388L16.9958 15.535C16.6391 14.915 16.6951 14.5191 16.8064 14.3244C16.9178 14.1297 17.2297 13.8829 17.9384 13.8829C19.3336 13.8829 20.459 12.7345 20.459 11.3433V9.65666C20.459 8.25101 19.3191 7.11709 17.9384 7.11709C17.2297 7.11709 16.9178 6.8703 16.8064 6.67557C16.6951 6.48094 16.6391 6.08494 16.9958 5.46502L16.9962 5.46417C17.6876 4.2585 17.2771 2.69537 16.0667 1.99846L14.4264 1.05268C13.3236 0.395867 11.9248 0.798788 11.2856 1.88124L11.1767 2.07072C10.82 2.69068 10.4501 2.84053 10.2259 2.84053C10.0027 2.84053 9.63568 2.69195 9.28376 2.07338L9.28224 2.07072L9.17762 1.88861L9.17334 1.88126ZM13.0781 10.5C13.0781 12.0879 11.8007 13.375 10.2247 13.375C8.64878 13.375 7.37131 12.0879 7.37131 10.5C7.37131 8.91213 8.64878 7.625 10.2247 7.625C11.8007 7.625 13.0781 8.91213 13.0781 10.5Z" fill="#1E2C90"/>
</svg>
