<svg width="26" height="21" viewBox="0 0 26 21" fill="none" xmlns="http://www.w3.org/2000/svg">
<path d="M3.24813 11.8857L0.74292 14.4497V17.0785L1.6154 18.5714L5.94292 16.3645" fill="white"/>
<path d="M24.2249 5.2L25.257 7.07L2.51854 20.8L1.4856 18.93L6.11577 16.1344L21.4011 6.90527L24.2249 5.2Z" fill="#1E2C90"/>
<path d="M24.5143 5.06174L21.5518 6.68571C20.5421 5.02323 20.5817 3.05822 21.4777 1.48571C22.5614 2.33215 23.6115 3.5775 24.5143 5.06174Z" fill="white"/>
<path d="M21.5427 7.32048L6.13025 16.3429L6.07814 16.2505L4.45703 13.4043L10.6938 3.78436C11.3752 4.65559 12.4275 5.20876 13.594 5.20876C13.6553 5.20876 13.7166 5.20795 13.7786 5.20459C15.8227 5.1039 17.3991 3.34209 17.2989 1.27057L17.3171 1.10603C18.5755 0.3699 20.0533 0.797918 21.4715 1.98317C20.6106 3.5971 20.5724 5.61406 21.5427 7.32048Z" fill="#1E2C90"/>
<path d="M4.28025 12.6286C4.17809 12.6285 4.07785 12.6031 3.99016 12.555C3.90247 12.5069 3.83059 12.4379 3.78213 12.3554C3.73367 12.2728 3.71044 12.1798 3.71489 12.0861C3.71935 11.9924 3.75133 11.9016 3.80745 11.8233L9.90185 3.31341C9.98434 3.19821 10.1133 3.11781 10.2604 3.08989C10.4075 3.06197 10.5606 3.08882 10.6861 3.16453C10.8116 3.24023 10.8992 3.3586 10.9297 3.49359C10.9601 3.62858 10.9308 3.76913 10.8483 3.88432L4.75395 12.3942C4.70242 12.4663 4.63212 12.5255 4.54942 12.5664C4.46671 12.6073 4.3742 12.6287 4.28025 12.6286ZM20.977 7.24691C20.8774 7.24701 20.7796 7.223 20.6933 7.17729C20.6071 7.13159 20.5355 7.06581 20.4858 6.9866C19.4656 5.36221 19.4367 3.40771 20.4088 1.75823C20.4803 1.63698 20.6013 1.54674 20.7452 1.50737C20.8892 1.468 21.0442 1.48271 21.1763 1.54828C21.3085 1.61385 21.4068 1.7249 21.4497 1.857C21.4926 1.9891 21.4765 2.13143 21.4051 2.25268C20.6215 3.5824 20.6447 5.15803 21.4672 6.46742C21.5168 6.54641 21.5429 6.636 21.5429 6.72719C21.5429 6.81838 21.5168 6.90796 21.4671 6.98694C21.4174 7.06592 21.346 7.13152 21.26 7.17715C21.174 7.22279 21.0764 7.24684 20.977 7.24691ZM12.1255 11.7205C12.0514 11.7205 11.978 11.7071 11.9095 11.681L8.26889 10.3007C8.20015 10.2746 8.13768 10.2364 8.08504 10.1882C8.03239 10.1399 7.99062 10.0827 7.96209 10.0196C7.93356 9.95658 7.91885 9.889 7.91878 9.82074C7.91871 9.75248 7.93329 9.68487 7.96169 9.62178C8.01904 9.49437 8.12919 9.39308 8.26792 9.3402C8.3366 9.31402 8.41024 9.30051 8.48461 9.30045C8.55899 9.30039 8.63265 9.31377 8.70139 9.33983L12.342 10.7202C12.4634 10.766 12.5637 10.8491 12.6257 10.9552C12.6878 11.0613 12.7077 11.184 12.6822 11.3021C12.6566 11.4203 12.5871 11.5266 12.4856 11.6029C12.384 11.6792 12.2568 11.7208 12.1255 11.7205ZM14.1481 10.4582C14.074 10.4582 14.0006 10.4448 13.9321 10.4188L10.2915 9.0385C10.1526 8.98586 10.0423 8.88476 9.98466 8.75745C9.92705 8.63013 9.9269 8.48702 9.98425 8.35961C10.0416 8.23219 10.1518 8.13091 10.2905 8.07803C10.4292 8.02515 10.5851 8.02502 10.724 8.07766L14.3646 9.45803C14.4856 9.50407 14.5855 9.58718 14.6473 9.69323C14.7091 9.79928 14.7289 9.9217 14.7034 10.0396C14.6778 10.1576 14.6085 10.2638 14.5073 10.3401C14.406 10.4164 14.2791 10.4582 14.1481 10.4582ZM16.4133 9.41879C16.3392 9.41879 16.2658 9.40537 16.1973 9.37931L12.5568 7.99894C12.418 7.9463 12.3077 7.8452 12.25 7.71788C12.1924 7.59057 12.1923 7.44746 12.2496 7.32004C12.307 7.19263 12.4171 7.09134 12.5559 7.03847C12.6946 6.98559 12.8505 6.98546 12.9893 7.03809L16.63 8.41847C16.7511 8.46446 16.8511 8.54758 16.9129 8.65367C16.9748 8.75976 16.9946 8.88224 16.969 9.00025C16.9435 9.11825 16.8741 9.22447 16.7728 9.30079C16.6715 9.37711 16.5444 9.41882 16.4133 9.41879Z" fill="white"/>
<path d="M10.4 3.6559L4.01773 13.3714L2.97144 11.5582L9.58587 1.48571C9.62298 2.27665 9.9078 3.03588 10.4 3.6559Z" fill="#1E2C90"/>
<path d="M24.6681 6.02493C24.5644 6.02503 24.4626 5.99821 24.3728 5.94715C24.283 5.8961 24.2085 5.82262 24.1566 5.73411C23.2984 4.26845 22.3182 3.06644 21.322 2.25828C20.3845 1.4963 19.0065 0.736844 17.7627 1.44439C17.6273 1.51899 17.4676 1.53805 17.3181 1.49743C17.1686 1.45681 17.0413 1.35978 16.9638 1.22734C16.8863 1.0949 16.8648 0.93769 16.904 0.789728C16.9431 0.641765 17.0397 0.514947 17.173 0.43671C18.6003 -0.375449 20.3401 -0.047631 22.0719 1.36014C23.1757 2.25562 24.2499 3.56702 25.1782 5.15234C25.2299 5.24074 25.2571 5.34098 25.2571 5.44301C25.2571 5.54505 25.2299 5.64529 25.1783 5.73368C25.1266 5.82208 25.0522 5.89552 24.9627 5.94664C24.8731 5.99776 24.7715 6.02476 24.6681 6.02493ZM1.32882 19.3143C1.22517 19.3144 1.12331 19.2876 1.03352 19.2365C0.943738 19.1854 0.869197 19.1119 0.817416 19.0233C0.00529426 17.6363 -0.210525 16.0208 0.209641 14.4743C0.629806 12.9279 1.63561 11.6355 3.04174 10.8355C3.17727 10.7584 3.3383 10.7375 3.48941 10.7775C3.64053 10.8175 3.76934 10.915 3.84752 11.0487C3.9257 11.1823 3.94684 11.3411 3.90629 11.4901C3.86574 11.6392 3.76682 11.7662 3.6313 11.8433C2.49821 12.4879 1.68771 13.5291 1.3492 14.7753C1.01056 16.0216 1.18467 17.3236 1.83915 18.4414C1.89095 18.5298 1.91825 18.6301 1.91831 18.7322C1.91836 18.8343 1.89116 18.9346 1.83944 19.0231C1.78773 19.1116 1.71332 19.185 1.62369 19.2361C1.53405 19.2873 1.43236 19.3142 1.32882 19.3143Z" fill="#1E2C90"/>
<path d="M3.30785 11.6816C3.20278 11.6815 3.09969 11.6533 3.00951 11.6C2.91932 11.5466 2.84539 11.4701 2.79556 11.3786C2.74572 11.2871 2.72184 11.1839 2.72643 11.0801C2.73103 10.9762 2.76393 10.8755 2.82166 10.7887L9.31834 1.00508C9.40255 0.87691 9.53477 0.787097 9.68591 0.755392C9.83705 0.723687 9.99473 0.752688 10.1243 0.836015C10.2538 0.919342 10.3446 1.05017 10.3766 1.19972C10.4086 1.34926 10.3793 1.50528 10.2951 1.63345L10.2921 1.63806L3.79524 11.4218C3.74216 11.5017 3.66982 11.5673 3.58474 11.6126C3.49965 11.658 3.4045 11.6817 3.30785 11.6816ZM2.37278 20.8C2.27045 20.8001 2.16989 20.7735 2.08124 20.7229C1.99259 20.6724 1.91897 20.5996 1.8678 20.5119L0.820916 18.7185C0.743716 18.5861 0.722798 18.4288 0.762757 18.2811C0.802716 18.1335 0.900283 18.0075 1.03402 17.931L24.0801 4.76409C24.1464 4.72621 24.2195 4.70162 24.2954 4.69173C24.3713 4.68185 24.4484 4.68685 24.5223 4.70645C24.5962 4.72606 24.6654 4.75989 24.7261 4.80601C24.7868 4.85212 24.8377 4.90962 24.8759 4.97522L25.922 6.76854C25.9603 6.83409 25.9851 6.90645 25.9951 6.98149C26.0051 7.05653 26 7.13278 25.9802 7.20589C25.9604 7.27899 25.9262 7.34753 25.8797 7.40757C25.8331 7.46761 25.775 7.51799 25.7088 7.55582L2.66346 20.7226C2.57514 20.7733 2.47487 20.8 2.37278 20.8ZM2.12116 18.641L2.58536 19.436L24.6219 6.84543L24.1582 6.0505L2.12116 18.641Z" fill="#1E2C90"/>
<path d="M13.5885 5.68064C12.2902 5.68064 11.0815 5.10092 10.2723 4.09039C9.72017 3.40138 9.40555 2.57141 9.36242 1.69042C9.35495 1.54014 9.40806 1.39309 9.51009 1.28159C9.61211 1.1701 9.75469 1.10331 9.90644 1.09591C9.98159 1.09224 10.0567 1.10327 10.1276 1.12836C10.1984 1.15345 10.2636 1.1921 10.3193 1.24213C10.4319 1.34315 10.4994 1.48433 10.5068 1.6346V1.63551C10.5365 2.27329 10.7685 2.88556 11.17 3.38516C11.7607 4.12284 12.6422 4.54588 13.5884 4.54588C13.6388 4.54588 13.6892 4.54536 13.7404 4.5425C14.5676 4.50265 15.3271 4.1475 15.8817 3.54209C16.1552 3.24519 16.3665 2.8975 16.5034 2.51916C16.6402 2.14081 16.6999 1.73934 16.6789 1.33799C16.6753 1.26359 16.6864 1.18919 16.7118 1.11905C16.7371 1.04891 16.7762 0.984396 16.8267 0.929202C16.8772 0.874008 16.9382 0.82921 17.0063 0.797367C17.0743 0.765524 17.148 0.747259 17.2231 0.743615C17.5385 0.727519 17.8079 0.969607 17.8234 1.28257C17.8788 2.40149 17.4907 3.47472 16.7303 4.30457C15.9701 5.13442 14.9289 5.62145 13.7988 5.67583C13.7377 5.67921 13.672 5.68064 13.5885 5.68064ZM6.15845 16.3429C6.05777 16.343 5.95885 16.3168 5.87164 16.267C5.78444 16.2172 5.71204 16.1455 5.66175 16.0591L3.04821 11.577C3.01059 11.5125 2.98616 11.4413 2.97634 11.3674C2.96652 11.2936 2.97148 11.2185 2.99095 11.1465C3.01042 11.0746 3.04402 11.0071 3.08982 10.948C3.13562 10.8889 3.19273 10.8393 3.25789 10.802C3.32305 10.7648 3.39498 10.7406 3.46957 10.7309C3.54417 10.7212 3.61997 10.7261 3.69265 10.7453C3.76533 10.7646 3.83346 10.7979 3.89315 10.8432C3.95285 10.8886 4.00294 10.9451 4.04056 11.0097L6.6541 15.4917C6.70434 15.5779 6.7308 15.6757 6.73081 15.7753C6.73082 15.8748 6.7044 15.9726 6.65418 16.0588C6.60396 16.1451 6.53172 16.2167 6.44471 16.2666C6.3577 16.3164 6.25898 16.3427 6.15845 16.3429Z" fill="#1E2C90"/>
</svg>
