<svg width="20" height="22" viewBox="0 0 20 22" fill="none" xmlns="http://www.w3.org/2000/svg">
<path d="M6.07146 4.28571H13.9286C14.3215 4.28571 14.6429 3.96429 14.6429 3.57143V2.14286C14.6429 0.964286 13.6786 0 12.5 0H7.50004C6.32146 0 5.35718 0.964286 5.35718 2.14286V3.57143C5.35718 3.96429 5.67861 4.28571 6.07146 4.28571Z" fill="#8C8C8C"/>
<path d="M17.8571 1.78572H17.1429C16.9286 1.78572 16.7857 1.92858 16.7857 2.14286V3.57143C16.7857 5.14286 15.5 6.42858 13.9286 6.42858H6.07143C4.5 6.42858 3.21429 5.14286 3.21429 3.57143V2.14286C3.21429 1.92858 3.07143 1.78572 2.85714 1.78572H2.14286C0.964286 1.78572 0 2.75001 0 3.92858V19.2857C0 20.4643 0.964286 21.4286 2.14286 21.4286H17.8571C19.0357 21.4286 20 20.4643 20 19.2857V3.92858C20 2.75001 19.0357 1.78572 17.8571 1.78572ZM7.5 16.4286C7.5 16.8214 7.17857 17.1429 6.78571 17.1429H6.07143C5.67857 17.1429 5.35714 16.8214 5.35714 16.4286V12.8571C5.35714 12.4643 5.67857 12.1429 6.07143 12.1429H6.78571C7.17857 12.1429 7.5 12.4643 7.5 12.8571V16.4286ZM11.0714 16.4286C11.0714 16.8214 10.75 17.1429 10.3571 17.1429H9.64286C9.25 17.1429 8.92857 16.8214 8.92857 16.4286V9.64286C8.92857 9.25001 9.25 8.92858 9.64286 8.92858H10.3571C10.75 8.92858 11.0714 9.25001 11.0714 9.64286V16.4286ZM14.6429 16.4286C14.6429 16.8214 14.3214 17.1429 13.9286 17.1429H13.2143C12.8214 17.1429 12.5 16.8214 12.5 16.4286V11.0714C12.5 10.6786 12.8214 10.3571 13.2143 10.3571H13.9286C14.3214 10.3571 14.6429 10.6786 14.6429 11.0714V16.4286Z" fill="#8C8C8C"/>
</svg>
