<svg width="103" height="22" viewBox="0 0 103 22" fill="none" xmlns="http://www.w3.org/2000/svg">
<path d="M6.07146 4.28571H13.9286C14.3215 4.28571 14.6429 3.96429 14.6429 3.57143V2.14286C14.6429 0.964286 13.6786 0 12.5 0H7.50004C6.32146 0 5.35718 0.964286 5.35718 2.14286V3.57143C5.35718 3.96429 5.67861 4.28571 6.07146 4.28571Z" fill="#1E2C90"/>
<path d="M17.8571 1.78572H17.1429C16.9286 1.78572 16.7857 1.92858 16.7857 2.14286V3.57143C16.7857 5.14286 15.5 6.42858 13.9286 6.42858H6.07143C4.5 6.42858 3.21429 5.14286 3.21429 3.57143V2.14286C3.21429 1.92858 3.07143 1.78572 2.85714 1.78572H2.14286C0.964286 1.78572 0 2.75001 0 3.92858V19.2857C0 20.4643 0.964286 21.4286 2.14286 21.4286H17.8571C19.0357 21.4286 20 20.4643 20 19.2857V3.92858C20 2.75001 19.0357 1.78572 17.8571 1.78572ZM7.5 16.4286C7.5 16.8214 7.17857 17.1429 6.78571 17.1429H6.07143C5.67857 17.1429 5.35714 16.8214 5.35714 16.4286V12.8571C5.35714 12.4643 5.67857 12.1429 6.07143 12.1429H6.78571C7.17857 12.1429 7.5 12.4643 7.5 12.8571V16.4286ZM11.0714 16.4286C11.0714 16.8214 10.75 17.1429 10.3571 17.1429H9.64286C9.25 17.1429 8.92857 16.8214 8.92857 16.4286V9.64286C8.92857 9.25001 9.25 8.92858 9.64286 8.92858H10.3571C10.75 8.92858 11.0714 9.25001 11.0714 9.64286V16.4286ZM14.6429 16.4286C14.6429 16.8214 14.3214 17.1429 13.9286 17.1429H13.2143C12.8214 17.1429 12.5 16.8214 12.5 16.4286V11.0714C12.5 10.6786 12.8214 10.3571 13.2143 10.3571H13.9286C14.3214 10.3571 14.6429 10.6786 14.6429 11.0714V16.4286Z" fill="#1E2C90"/>
<path d="M42.8266 3.8H48.2066C48.9733 3.8 49.6566 3.96 50.2566 4.28C50.8566 4.6 51.33 5.06333 51.6766 5.67C52.03 6.27 52.2066 6.98667 52.2066 7.82C52.2066 8.65333 52.0566 9.33667 51.7566 9.87C51.4633 10.3967 51.11 10.7933 50.6966 11.06C50.2833 11.32 49.9 11.4767 49.5466 11.53L52.7566 17H49.3966L46.5366 11.76H45.8166V17H42.8266V3.8ZM45.8166 9.69H47.1366C47.67 9.69 48.1366 9.56 48.5366 9.3C48.9366 9.04 49.1366 8.58 49.1366 7.92C49.1366 7.26 48.94 6.80333 48.5466 6.55C48.1533 6.29 47.69 6.16 47.1566 6.16H45.8166V9.69ZM57.1526 13.54C57.1726 13.8333 57.2659 14.0933 57.4326 14.32C57.5992 14.5467 57.8292 14.7267 58.1226 14.86C58.4226 14.9867 58.7759 15.05 59.1826 15.05C59.5692 15.05 59.9159 15.01 60.2226 14.93C60.5359 14.85 60.8059 14.75 61.0326 14.63C61.2659 14.51 61.4459 14.3867 61.5726 14.26L62.7526 16.14C62.5859 16.32 62.3492 16.4967 62.0426 16.67C61.7426 16.8367 61.3459 16.9733 60.8526 17.08C60.3592 17.1867 59.7359 17.24 58.9826 17.24C58.0759 17.24 57.2692 17.07 56.5626 16.73C55.8559 16.39 55.2992 15.89 54.8926 15.23C54.4859 14.57 54.2826 13.7633 54.2826 12.81C54.2826 12.01 54.4559 11.29 54.8026 10.65C55.1559 10.0033 55.6659 9.49333 56.3326 9.12C56.9992 8.74 57.8026 8.55 58.7426 8.55C59.6359 8.55 60.4092 8.71333 61.0626 9.04C61.7226 9.36667 62.2292 9.85333 62.5826 10.5C62.9426 11.14 63.1226 11.94 63.1226 12.9C63.1226 12.9533 63.1192 13.06 63.1126 13.22C63.1126 13.38 63.1059 13.4867 63.0926 13.54H57.1526ZM60.2626 11.95C60.2559 11.7367 60.1992 11.5267 60.0926 11.32C59.9859 11.1067 59.8259 10.9333 59.6126 10.8C59.3992 10.66 59.1259 10.59 58.7926 10.59C58.4592 10.59 58.1759 10.6567 57.9426 10.79C57.7159 10.9167 57.5426 11.0833 57.4226 11.29C57.3026 11.4967 57.2359 11.7167 57.2226 11.95H60.2626ZM67.6835 21.16H64.6735V8.79H67.7135V9.99C67.8068 9.80333 67.9835 9.6 68.2435 9.38C68.5102 9.15333 68.8468 8.96 69.2535 8.8C69.6668 8.63333 70.1335 8.55 70.6535 8.55C71.4535 8.55 72.1368 8.74667 72.7035 9.14C73.2768 9.53333 73.7168 10.06 74.0235 10.72C74.3302 11.3733 74.4835 12.1 74.4835 12.9C74.4835 13.7 74.3202 14.43 73.9935 15.09C73.6668 15.7433 73.2068 16.2667 72.6135 16.66C72.0268 17.0467 71.3335 17.24 70.5335 17.24C69.9602 17.24 69.4702 17.14 69.0635 16.94C68.6635 16.7333 68.3468 16.5067 68.1135 16.26C67.8868 16.0067 67.7435 15.81 67.6835 15.67V21.16ZM71.5135 12.9C71.5135 12.5267 71.4302 12.1933 71.2635 11.9C71.0968 11.6 70.8702 11.3667 70.5835 11.2C70.3035 11.0267 69.9868 10.94 69.6335 10.94C69.2668 10.94 68.9368 11.0267 68.6435 11.2C68.3568 11.3667 68.1302 11.6 67.9635 11.9C67.7968 12.1933 67.7135 12.5267 67.7135 12.9C67.7135 13.2733 67.7968 13.61 67.9635 13.91C68.1302 14.2033 68.3568 14.4333 68.6435 14.6C68.9368 14.7667 69.2668 14.85 69.6335 14.85C69.9868 14.85 70.3035 14.7667 70.5835 14.6C70.8702 14.4333 71.0968 14.2033 71.2635 13.91C71.4302 13.61 71.5135 13.2733 71.5135 12.9ZM80.2016 17.24C79.3016 17.24 78.5016 17.0567 77.8016 16.69C77.1083 16.3167 76.5616 15.8067 76.1616 15.16C75.7683 14.5067 75.5716 13.76 75.5716 12.92C75.5716 12.08 75.7683 11.3333 76.1616 10.68C76.5616 10.02 77.1083 9.5 77.8016 9.12C78.5016 8.74 79.3016 8.55 80.2016 8.55C81.1016 8.55 81.895 8.74 82.5816 9.12C83.2683 9.5 83.805 10.02 84.1916 10.68C84.5783 11.3333 84.7716 12.08 84.7716 12.92C84.7716 13.76 84.5783 14.5067 84.1916 15.16C83.805 15.8067 83.2683 16.3167 82.5816 16.69C81.895 17.0567 81.1016 17.24 80.2016 17.24ZM80.2016 14.74C80.5483 14.74 80.8483 14.6633 81.1016 14.51C81.355 14.3567 81.5516 14.14 81.6916 13.86C81.8316 13.58 81.9016 13.2633 81.9016 12.91C81.9016 12.55 81.8316 12.23 81.6916 11.95C81.5516 11.67 81.355 11.45 81.1016 11.29C80.8483 11.13 80.5483 11.05 80.2016 11.05C79.855 11.05 79.5516 11.13 79.2916 11.29C79.0383 11.45 78.8383 11.67 78.6916 11.95C78.5516 12.23 78.4816 12.55 78.4816 12.91C78.4816 13.2633 78.5516 13.58 78.6916 13.86C78.8383 14.14 79.0383 14.3567 79.2916 14.51C79.5516 14.6633 79.855 14.74 80.2016 14.74ZM89.1337 17H86.0937V8.79H89.1337V10.06H89.0837C89.137 9.90667 89.267 9.71333 89.4737 9.48C89.6803 9.24 89.9703 9.02667 90.3437 8.84C90.717 8.64667 91.1737 8.55 91.7137 8.55C92.0937 8.55 92.4437 8.61 92.7637 8.73C93.0837 8.84333 93.317 8.95333 93.4637 9.06L92.2837 11.53C92.1903 11.4167 92.0237 11.3 91.7837 11.18C91.5503 11.0533 91.257 10.99 90.9037 10.99C90.497 10.99 90.1603 11.0933 89.8937 11.3C89.6337 11.5067 89.4403 11.7567 89.3137 12.05C89.1937 12.3433 89.1337 12.62 89.1337 12.88V17ZM93.8177 8.79H95.2177V5.42H98.2277V8.79H100.068V11.29H98.2277V13.58C98.2277 13.92 98.2777 14.1967 98.3777 14.41C98.4777 14.6167 98.6611 14.72 98.9277 14.72C99.1077 14.72 99.2611 14.68 99.3877 14.6C99.5144 14.52 99.5911 14.4667 99.6177 14.44L100.658 16.6C100.611 16.64 100.464 16.7133 100.218 16.82C99.9777 16.9267 99.6711 17.0233 99.2977 17.11C98.9244 17.1967 98.5077 17.24 98.0477 17.24C97.2277 17.24 96.5511 17.01 96.0177 16.55C95.4844 16.0833 95.2177 15.3667 95.2177 14.4V11.29H93.8177V8.79Z" fill="#1E2C90"/>
</svg>
