<svg width="100" height="90" viewBox="0 0 100 90" fill="none" xmlns="http://www.w3.org/2000/svg">
<path d="M11.8025 55.9563V59.9621L100 60.0629V71.7983L2.07961e-07 72V55.9667C-0.000340022 53.8511 0.416791 51.7561 1.22757 49.8015C2.03835 47.8468 3.2269 46.0708 4.72535 44.5747C6.22379 43.0786 8.00278 41.8919 9.96071 41.0822C11.9186 40.2725 14.0172 39.8558 16.1365 39.8558H87.998V31.9063H51.9144V16.2712C51.9144 11.9558 53.6317 7.81719 56.6885 4.76574C59.7453 1.71429 63.8911 0 68.2141 0H99.9948V11.95H67.8721C66.8083 11.95 65.7881 12.3717 65.0356 13.1223C64.2831 13.873 63.8601 14.8912 63.8594 15.9532V19.9667H99.9948V51.9532H15.8023C14.7405 51.9559 13.7232 52.3789 12.9734 53.1293C12.2236 53.8798 11.8025 54.8964 11.8025 55.9563Z" fill="#1E2C90"/>
<path d="M24.9998 21.484L26.6966 22.5519C29.2514 24.161 31.4281 26.3151 33.0746 28.8638L34.3971 30.9013L35.3952 29.341C37.194 26.5245 39.589 24.1477 42.4071 22.3828L43.8269 21.4941L41.9155 20.2317C39.1961 18.439 36.8967 16.0668 35.1781 13.281L34.4296 12.0515L33.636 13.3719C31.8633 16.3154 29.4141 18.7822 26.4969 20.5624L24.9998 21.484Z" fill="#1E2C90"/>
<path d="M15.3643 83.239L17.3187 83.8742C16.9098 84.5113 16.3375 85.0271 15.6615 85.368C14.9855 85.7089 14.2305 85.8623 13.4751 85.8122C12.2867 85.8807 11.1183 85.4835 10.2179 84.7047C9.8251 84.3345 9.51697 83.8838 9.31458 83.3835C9.11219 82.8831 9.02032 82.345 9.04526 81.8058C9.03015 81.2431 9.12914 80.6832 9.33627 80.1597C9.54339 79.6363 9.85437 79.1603 10.2504 78.7603C10.6505 78.354 11.1309 78.0356 11.6608 77.8253C12.1908 77.615 12.7588 77.5174 13.3285 77.5388C14.1612 77.5265 14.9783 77.7649 15.6738 78.2228C16.2913 78.6424 16.7681 79.2383 17.0418 79.9329C17.3031 80.6585 17.43 81.4256 17.4164 82.1967H11.5371C11.5268 82.4871 11.5831 82.7761 11.7016 83.0414C11.8202 83.3067 11.9979 83.5415 12.2211 83.7276C12.6057 84.0072 13.065 84.166 13.5403 84.1836C13.8927 84.1589 14.2363 84.0623 14.55 83.8999C14.8636 83.7374 15.1408 83.5125 15.3643 83.239ZM14.892 80.7961C14.8532 80.3977 14.7006 80.0188 14.4523 79.7049C14.2982 79.552 14.1151 79.4314 13.9137 79.3503C13.7123 79.2692 13.4967 79.2292 13.2797 79.2326C12.3514 79.2326 11.8139 79.77 11.6511 80.8612L14.892 80.7961Z" fill="#1E2C90"/>
<path d="M27.4813 85.6331H24.6475V81.8872C24.6638 81.5834 24.6638 81.279 24.6475 80.9752C24.6413 80.7436 24.5858 80.5159 24.4847 80.3075C24.3851 80.1423 24.2373 80.0116 24.0612 79.9329C23.8256 79.8528 23.5767 79.8196 23.3283 79.8352C23.0915 79.8345 22.8557 79.8674 22.628 79.9329C22.3658 80.0303 22.1101 80.1446 21.8626 80.2749V85.6331H18.9636V78.0763H21.8137V78.9231C22.2279 78.5865 22.6819 78.3021 23.1655 78.0763C23.6318 77.8926 24.1302 77.804 24.6312 77.8157C25.0169 77.784 25.4049 77.8313 25.7717 77.9545C26.1385 78.0777 26.4764 78.2743 26.7647 78.5323C27.0299 78.8259 27.2306 79.1717 27.3541 79.5476C27.4775 79.9235 27.5208 80.321 27.4813 80.7146V85.6331Z" fill="#1E2C90"/>
<path d="M34.8425 85.2911V84.379C34.556 84.779 34.1801 85.1066 33.7446 85.3356C33.3092 85.5646 32.8263 85.6888 32.3344 85.6982C31.8503 85.7102 31.3695 85.6141 30.9272 85.4169C30.4849 85.2197 30.0921 84.9263 29.7775 84.5582C29.0933 83.7696 28.7326 82.7515 28.7677 81.7081C28.741 80.667 29.1207 79.6565 29.8263 78.8906C30.1377 78.5216 30.5271 78.2264 30.9665 78.0265C31.4059 77.8265 31.8843 77.7267 32.367 77.7343C32.8423 77.7649 33.3062 77.8936 33.7295 78.1122C34.1527 78.3308 34.5261 78.6346 34.8262 79.0046V77.9297H37.2528V85.8448C37.2245 86.3767 37.074 86.895 36.8131 87.3594C36.5043 87.9506 35.9792 88.3998 35.3474 88.6135C34.5809 88.8944 33.7695 89.0324 32.9533 89.0206C32.0128 89.0623 31.0785 88.8484 30.2498 88.4017C29.5239 87.9115 29.0071 87.1682 28.8003 86.3171H31.5038C31.6867 86.6181 31.9387 86.8711 32.2389 87.0552C32.5391 87.2394 32.879 87.3492 33.2302 87.3757C33.4561 87.3764 33.6793 87.3254 33.8825 87.2266C34.0857 87.1278 34.2637 86.9838 34.4028 86.8057C34.7084 86.3612 34.8626 85.8301 34.8425 85.2911ZM31.3409 81.7732C31.346 81.995 31.3962 82.2134 31.4886 82.415C31.581 82.6167 31.7137 82.7973 31.8784 82.9459C32.0348 83.1289 32.2299 83.2749 32.4496 83.3735C32.6692 83.472 32.908 83.5207 33.1487 83.5159C33.376 83.5153 33.6006 83.4672 33.8082 83.3747C34.0157 83.2821 34.2016 83.1471 34.3539 82.9784C34.6684 82.6077 34.841 82.1373 34.841 81.6511C34.841 81.1649 34.6684 80.6945 34.3539 80.3238C34.195 80.1568 34.0026 80.0255 33.7892 79.9385C33.5758 79.8515 33.3464 79.8107 33.1161 79.8189C32.8753 79.8076 32.6349 79.85 32.4124 79.943C32.1899 80.0359 31.9908 80.1771 31.8295 80.3563C31.6565 80.5472 31.5241 80.7712 31.4401 81.0147C31.3561 81.2583 31.3224 81.5163 31.3409 81.7732Z" fill="#1E2C90"/>
<path d="M39.2891 73.6464H42.1392V81.0241L44.9078 77.9786H48.2953L45.1521 81.4312L48.6536 85.8122H45.3964L42.1392 81.6592V85.8122H39.2891V73.6464Z" fill="#1E2C90"/>
<path d="M49.3213 77.8483H51.6991V81.6104C51.6837 82.0933 51.8267 82.568 52.1062 82.9621C52.2204 83.1286 52.3737 83.2646 52.5525 83.3583C52.7313 83.4519 52.9304 83.5005 53.1323 83.4996C53.3415 83.4997 53.5482 83.453 53.737 83.3628C53.9258 83.2726 54.092 83.1413 54.2234 82.9784C54.5191 82.6033 54.6746 82.1367 54.6632 81.6592V77.8483H57.041V82.4084C57.0479 82.8697 56.9521 83.3267 56.7605 83.7464C56.569 84.1662 56.2865 84.538 55.9335 84.835C55.1733 85.4983 54.1894 85.8477 53.1811 85.8122C52.1532 85.8611 51.1473 85.5043 50.3799 84.8188C50.0254 84.4869 49.7471 84.082 49.5643 83.6321C49.3816 83.1823 49.2986 82.698 49.3213 82.213V77.8483Z" fill="#1E2C90"/>
<path d="M64.6791 82.9622V85.2911C64.0724 85.6049 63.4066 85.788 62.7248 85.8285C62.205 85.8415 61.6878 85.752 61.2027 85.565C60.7175 85.378 60.274 85.0973 59.8974 84.7389C59.5208 84.3804 59.2185 83.9513 59.0078 83.476C58.7971 83.0006 58.6822 82.4885 58.6695 81.9687V81.757C58.6319 80.6819 59.0179 79.6351 59.7444 78.8418C60.0899 78.4629 60.5134 78.1633 60.9857 77.9637C61.458 77.7641 61.968 77.6692 62.4805 77.6854C63.2577 77.6899 64.0226 77.8797 64.7117 78.2392V80.3564C64.1425 80.058 63.5136 79.8911 62.8713 79.8678C62.6435 79.8554 62.4155 79.891 62.2023 79.9724C61.989 80.0538 61.7953 80.179 61.6336 80.3401C61.3258 80.6838 61.1624 81.133 61.1776 81.5941C61.1607 81.8235 61.1927 82.0538 61.2713 82.27C61.3499 82.4861 61.4733 82.6832 61.6336 82.8482C61.792 83.0101 61.9825 83.1371 62.1928 83.2213C62.4031 83.3054 62.6287 83.3447 62.8551 83.3367C63.4801 83.3177 64.0971 83.1909 64.6791 82.9622Z" fill="#1E2C90"/>
<path d="M66.3245 73.9071H68.8325V85.6983H66.3245V73.9071Z" fill="#1E2C90"/>
<path d="M76.8124 83.2065L78.7667 83.8416C78.3571 84.477 77.7842 84.9906 77.108 85.3287C76.4318 85.6667 75.6773 85.8169 74.9232 85.7634C74.3351 85.8048 73.7447 85.7298 73.1858 85.5425C72.6268 85.3553 72.1103 85.0595 71.6659 84.6722C71.2757 84.3001 70.9693 83.849 70.7671 83.3492C70.5649 82.8493 70.4716 82.3121 70.4933 81.7733C70.4626 80.6729 70.8682 79.605 71.6218 78.8025C72.3755 78.0001 73.4158 77.5283 74.516 77.49H74.7115C75.5441 77.4777 76.3612 77.716 77.0567 78.174C77.6657 78.5674 78.1423 79.1349 78.4247 79.8026C78.6872 80.5336 78.8142 81.3062 78.7993 82.0827H72.9851C72.971 82.3737 73.0256 82.6638 73.1445 82.9298C73.2633 83.1957 73.443 83.43 73.6691 83.6136C74.0513 83.896 74.5132 84.0499 74.9883 84.0533C75.6834 84.0195 76.3379 83.7156 76.8124 83.2065ZM76.3401 80.7635C76.2891 80.3417 76.1133 79.9448 75.8352 79.6235C75.6888 79.475 75.5136 79.3579 75.3204 79.2795C75.1272 79.2011 74.9199 79.1629 74.7115 79.1675C73.7831 79.1675 73.2457 79.6886 73.0828 80.7961L76.3401 80.7635Z" fill="#1E2C90"/>
<path d="M86.4868 85.6493V84.3464C86.1605 84.7843 85.7577 85.1595 85.2979 85.4539C84.8413 85.6914 84.33 85.8038 83.8159 85.7796C83.3224 85.7906 82.8328 85.6893 82.3842 85.4834C81.9356 85.2774 81.5397 84.9722 81.2264 84.5907C80.534 83.8317 80.1501 82.8413 80.1501 81.8139C80.1501 80.7865 80.534 79.7962 81.2264 79.0371C81.5557 78.6674 81.9596 78.3717 82.4116 78.1696C82.8636 77.9675 83.3533 77.8635 83.8484 77.8645C84.2993 77.863 84.7446 77.9632 85.1513 78.1577C85.6048 78.4009 86.0171 78.7142 86.3728 79.086V78.0762H88.8809V85.6331L86.4868 85.6493ZM84.4836 80.0469L84.2719 80.3889C83.9478 80.9222 83.494 81.3648 82.9527 81.6755L82.6107 81.8872L82.9038 82.0664C83.4365 82.3842 83.8793 82.8326 84.1904 83.3693L84.4347 83.809L84.6628 83.3856C84.949 82.8193 85.4121 82.3618 85.9819 82.0827L86.3891 81.8872L86.0634 81.7081C85.4959 81.4008 85.023 80.9448 84.6953 80.3889L84.4836 80.0469Z" fill="#1E2C90"/>
<path d="M98.7659 85.6494H95.8833V80.9915C95.864 80.76 95.8034 80.5338 95.7041 80.3238C95.6134 80.1514 95.4628 80.0182 95.2807 79.9492C95.0451 79.8691 94.7961 79.8359 94.5478 79.8515C94.3109 79.8508 94.0751 79.8837 93.8475 79.9492C93.5852 80.0466 93.3296 80.1609 93.082 80.2912V85.6494H90.2319V78.0763H93.0657V78.9069C93.4894 78.5884 93.942 78.3103 94.4175 78.0763C94.8851 77.8952 95.3819 77.8014 95.8833 77.7994C96.2697 77.7746 96.6571 77.8266 97.0233 77.9524C97.3895 78.0782 97.7272 78.2753 98.0168 78.5323C98.2801 78.815 98.4825 79.1488 98.6114 79.513C98.7403 79.8772 98.7929 80.2641 98.7659 80.6495V85.6494Z" fill="#1E2C90"/>
<path d="M4.56671 85.8122C4.01713 85.8288 3.46816 85.7629 2.93809 85.6168C2.52553 85.5018 2.12258 85.3548 1.73291 85.1771V83.0924H1.99349L2.36807 83.3856C2.5518 83.5186 2.74818 83.6331 2.95438 83.7276C3.19011 83.8411 3.43535 83.9338 3.68726 84.0045C3.97384 84.0824 4.26974 84.1207 4.56671 84.1185C4.86298 84.1293 5.15791 84.0736 5.42988 83.9556C5.50279 83.9367 5.57123 83.9035 5.63124 83.858C5.69125 83.8125 5.74164 83.7555 5.77951 83.6904C5.81737 83.6253 5.84194 83.5533 5.85182 83.4786C5.86169 83.4039 5.85667 83.328 5.83704 83.2553C5.80349 83.1399 5.73526 83.0375 5.6416 82.9622C5.4356 82.8377 5.20973 82.7495 4.97387 82.7016L4.30613 82.555C4.06289 82.5071 3.8234 82.4418 3.58954 82.3596C3.07459 82.2165 2.61481 81.9213 2.27036 81.5127C1.9628 81.0814 1.80804 80.5598 1.83063 80.0306C1.83234 79.6867 1.91021 79.3474 2.05863 79.0372C2.22114 78.7123 2.45498 78.4284 2.74266 78.2066C3.06379 77.9443 3.4351 77.7503 3.83383 77.6366C4.30715 77.4845 4.80261 77.413 5.29959 77.4248C5.78211 77.4217 6.26327 77.4764 6.73278 77.5877C7.11587 77.7169 7.48653 77.8805 7.84025 78.0763V80.0469H7.6611L7.27023 79.7863L6.78164 79.4932C6.57367 79.3931 6.35516 79.3167 6.13019 79.2652C5.88587 79.1997 5.63396 79.1668 5.38102 79.1675C5.08867 79.1608 4.79877 79.2222 4.53414 79.3466C4.43758 79.3885 4.35451 79.4564 4.29414 79.5426C4.23377 79.6288 4.19846 79.7301 4.19213 79.8352C4.1856 79.9135 4.19686 79.9922 4.22507 80.0656C4.25327 80.1389 4.29769 80.2049 4.35499 80.2586C4.58283 80.4084 4.83707 80.5134 5.10416 80.5681L5.78818 80.7147C6.0421 80.7625 6.29242 80.8278 6.53735 80.9101C7.00787 81.0538 7.42654 81.331 7.74253 81.7081C8.03495 82.1213 8.1837 82.6191 8.16597 83.125C8.16723 83.4942 8.08254 83.8585 7.91858 84.1893C7.75463 84.52 7.51592 84.808 7.22137 85.0305C6.88746 85.2918 6.50573 85.4855 6.09762 85.6005C5.60004 85.7438 5.08451 85.8151 4.56671 85.8122Z" fill="#1E2C90"/>
</svg>
