<svg width="106" height="21" viewBox="0 0 106 21" fill="none" xmlns="http://www.w3.org/2000/svg">
<path d="M47.3351 2.56C48.1551 2.56 48.8717 2.65 49.4851 2.83C50.0984 3.01 50.5917 3.2 50.9651 3.4C51.3384 3.6 51.5651 3.73333 51.6451 3.8L50.2051 6.21C50.0984 6.13 49.9151 6.01333 49.6551 5.86C49.4017 5.70667 49.0984 5.57 48.7451 5.45C48.3984 5.33 48.0351 5.27 47.6551 5.27C47.1417 5.27 46.7251 5.36333 46.4051 5.55C46.0917 5.73 45.9351 6 45.9351 6.36C45.9351 6.60667 46.0184 6.83 46.1851 7.03C46.3584 7.22333 46.6184 7.41 46.9651 7.59C47.3184 7.76333 47.7651 7.95333 48.3051 8.16C48.7984 8.34 49.2617 8.55333 49.6951 8.8C50.1284 9.04667 50.5084 9.34 50.8351 9.68C51.1684 10.0133 51.4317 10.4 51.6251 10.84C51.8184 11.28 51.9151 11.78 51.9151 12.34C51.9151 13.0067 51.7784 13.5867 51.5051 14.08C51.2317 14.5667 50.8584 14.97 50.3851 15.29C49.9184 15.61 49.3851 15.8467 48.7851 16C48.1917 16.16 47.5751 16.24 46.9351 16.24C46.0284 16.24 45.2151 16.1367 44.4951 15.93C43.7817 15.7233 43.2051 15.5 42.7651 15.26C42.3251 15.02 42.0617 14.86 41.9751 14.78L43.4651 12.27C43.5451 12.33 43.6984 12.4267 43.9251 12.56C44.1584 12.6933 44.4417 12.8333 44.7751 12.98C45.1084 13.12 45.4617 13.24 45.8351 13.34C46.2151 13.44 46.5884 13.49 46.9551 13.49C47.5684 13.49 48.0284 13.3733 48.3351 13.14C48.6417 12.9 48.7951 12.5867 48.7951 12.2C48.7951 11.9133 48.6984 11.6567 48.5051 11.43C48.3117 11.2033 48.0217 10.99 47.6351 10.79C47.2484 10.5833 46.7651 10.3667 46.1851 10.14C45.6051 9.90667 45.0617 9.62333 44.5551 9.29C44.0551 8.95667 43.6484 8.54 43.3351 8.04C43.0217 7.54 42.8651 6.92 42.8651 6.18C42.8651 5.44 43.0717 4.8 43.4851 4.26C43.9051 3.71333 44.4551 3.29333 45.1351 3C45.8217 2.70667 46.5551 2.56 47.3351 2.56ZM56.1465 12.54C56.1665 12.8333 56.2598 13.0933 56.4265 13.32C56.5931 13.5467 56.8231 13.7267 57.1165 13.86C57.4165 13.9867 57.7698 14.05 58.1765 14.05C58.5631 14.05 58.9098 14.01 59.2165 13.93C59.5298 13.85 59.7998 13.75 60.0265 13.63C60.2598 13.51 60.4398 13.3867 60.5665 13.26L61.7465 15.14C61.5798 15.32 61.3431 15.4967 61.0365 15.67C60.7365 15.8367 60.3398 15.9733 59.8465 16.08C59.3531 16.1867 58.7298 16.24 57.9765 16.24C57.0698 16.24 56.2631 16.07 55.5565 15.73C54.8498 15.39 54.2931 14.89 53.8865 14.23C53.4798 13.57 53.2765 12.7633 53.2765 11.81C53.2765 11.01 53.4498 10.29 53.7965 9.65C54.1498 9.00333 54.6598 8.49333 55.3265 8.12C55.9931 7.74 56.7965 7.55 57.7365 7.55C58.6298 7.55 59.4031 7.71333 60.0565 8.04C60.7165 8.36667 61.2231 8.85333 61.5765 9.5C61.9365 10.14 62.1165 10.94 62.1165 11.9C62.1165 11.9533 62.1131 12.06 62.1065 12.22C62.1065 12.38 62.0998 12.4867 62.0865 12.54H56.1465ZM59.2565 10.95C59.2498 10.7367 59.1931 10.5267 59.0865 10.32C58.9798 10.1067 58.8198 9.93333 58.6065 9.8C58.3931 9.66 58.1198 9.59 57.7865 9.59C57.4531 9.59 57.1698 9.65667 56.9365 9.79C56.7098 9.91667 56.5365 10.0833 56.4165 10.29C56.2965 10.4967 56.2298 10.7167 56.2165 10.95H59.2565ZM62.9874 7.79H64.3874V4.42H67.3974V7.79H69.2374V10.29H67.3974V12.58C67.3974 12.92 67.4474 13.1967 67.5474 13.41C67.6474 13.6167 67.8307 13.72 68.0974 13.72C68.2774 13.72 68.4307 13.68 68.5574 13.6C68.6841 13.52 68.7607 13.4667 68.7874 13.44L69.8274 15.6C69.7807 15.64 69.6341 15.7133 69.3874 15.82C69.1474 15.9267 68.8407 16.0233 68.4674 16.11C68.0941 16.1967 67.6774 16.24 67.2174 16.24C66.3974 16.24 65.7207 16.01 65.1874 15.55C64.6541 15.0833 64.3874 14.3667 64.3874 13.4V10.29H62.9874V7.79ZM70.1554 7.79H71.5554V4.42H74.5654V7.79H76.4054V10.29H74.5654V12.58C74.5654 12.92 74.6154 13.1967 74.7154 13.41C74.8154 13.6167 74.9987 13.72 75.2654 13.72C75.4454 13.72 75.5987 13.68 75.7254 13.6C75.852 13.52 75.9287 13.4667 75.9554 13.44L76.9954 15.6C76.9487 15.64 76.802 15.7133 76.5554 15.82C76.3154 15.9267 76.0087 16.0233 75.6354 16.11C75.262 16.1967 74.8454 16.24 74.3854 16.24C73.5654 16.24 72.8887 16.01 72.3554 15.55C71.822 15.0833 71.5554 14.3667 71.5554 13.4V10.29H70.1554V7.79ZM78.221 16V7.79H81.261V16H78.221ZM79.781 6.1C79.301 6.1 78.8943 5.93333 78.561 5.6C78.2277 5.26 78.061 4.85667 78.061 4.39C78.061 3.92333 78.2277 3.52 78.561 3.18C78.901 2.83333 79.3077 2.66 79.781 2.66C80.0943 2.66 80.381 2.74 80.641 2.9C80.901 3.05333 81.111 3.26 81.271 3.52C81.431 3.78 81.511 4.07 81.511 4.39C81.511 4.85667 81.341 5.26 81.001 5.6C80.661 5.93333 80.2543 6.1 79.781 6.1ZM89.0054 7.55C89.5787 7.55 90.1387 7.66667 90.6854 7.9C91.232 8.13333 91.682 8.50333 92.0354 9.01C92.3887 9.51 92.5654 10.17 92.5654 10.99V16H89.5154V11.49C89.5154 10.9033 89.3754 10.4633 89.0954 10.17C88.8154 9.87 88.4487 9.72 87.9954 9.72C87.6954 9.72 87.412 9.8 87.1454 9.96C86.8854 10.1133 86.672 10.3333 86.5054 10.62C86.3454 10.9 86.2654 11.2233 86.2654 11.59V16H83.2254V7.79H86.2654V9C86.3454 8.78 86.512 8.56 86.7654 8.34C87.0254 8.11333 87.3487 7.92667 87.7354 7.78C88.1287 7.62667 88.552 7.55 89.0054 7.55ZM98.6419 20.39C98.0686 20.39 97.4986 20.34 96.9319 20.24C96.3719 20.14 95.8486 19.97 95.3619 19.73C94.8753 19.49 94.4653 19.16 94.1319 18.74L95.9119 16.89C96.0653 17.07 96.2519 17.2467 96.4719 17.42C96.6986 17.5933 96.9753 17.7367 97.3019 17.85C97.6353 17.9633 98.0386 18.02 98.5119 18.02C98.9519 18.02 99.3353 17.9433 99.6619 17.79C99.9886 17.6367 100.242 17.4133 100.422 17.12C100.609 16.8267 100.702 16.47 100.702 16.05V15.85H103.692V16.23C103.692 17.1367 103.465 17.9 103.012 18.52C102.565 19.14 101.962 19.6067 101.202 19.92C100.442 20.2333 99.5886 20.39 98.6419 20.39ZM100.702 16V14.67C100.642 14.8033 100.489 14.9967 100.242 15.25C100.002 15.5033 99.6819 15.7333 99.2819 15.94C98.8819 16.14 98.4153 16.24 97.8819 16.24C97.0819 16.24 96.3819 16.0467 95.7819 15.66C95.1819 15.2667 94.7153 14.7433 94.3819 14.09C94.0486 13.43 93.8819 12.7 93.8819 11.9C93.8819 11.1 94.0486 10.3733 94.3819 9.72C94.7153 9.06 95.1819 8.53333 95.7819 8.14C96.3819 7.74667 97.0819 7.55 97.8819 7.55C98.3953 7.55 98.8453 7.63333 99.2319 7.8C99.6186 7.96 99.9319 8.15333 100.172 8.38C100.412 8.6 100.579 8.80333 100.672 8.99V7.79H103.692V16H100.702ZM96.8619 11.9C96.8619 12.2733 96.9486 12.61 97.1219 12.91C97.2953 13.2033 97.5253 13.4333 97.8119 13.6C98.1053 13.7667 98.4286 13.85 98.7819 13.85C99.1486 13.85 99.4719 13.7667 99.7519 13.6C100.032 13.4333 100.252 13.2033 100.412 12.91C100.579 12.61 100.662 12.2733 100.662 11.9C100.662 11.5267 100.579 11.1933 100.412 10.9C100.252 10.6 100.032 10.3667 99.7519 10.2C99.4719 10.0267 99.1486 9.94 98.7819 9.94C98.4286 9.94 98.1053 10.0267 97.8119 10.2C97.5253 10.3667 97.2953 10.6 97.1219 10.9C96.9486 11.1933 96.8619 11.5267 96.8619 11.9Z" fill="#1E2C90"/>
<path fill-rule="evenodd" clip-rule="evenodd" d="M9.17334 1.88126C8.53417 0.798827 7.13534 0.395867 6.03257 1.05268L4.39187 1.99868C3.18172 2.6957 2.7714 4.25862 3.46271 5.46417L3.4632 5.46502C3.81982 6.08494 3.76385 6.48094 3.65254 6.67557C3.54116 6.8703 3.22931 7.11709 2.52051 7.11709C1.1254 7.11709 0 8.26552 0 9.65666V11.3433C0 12.7345 1.1254 13.8829 2.52051 13.8829C3.22931 13.8829 3.54116 14.1297 3.65254 14.3244C3.76385 14.5191 3.81982 14.915 3.4632 15.535L3.46271 15.5358C2.7714 16.7414 3.1821 18.3046 4.39226 19.0016L6.03265 19.9473C7.13542 20.6041 8.53417 20.2012 9.17334 19.1188L9.28224 18.9293C9.63892 18.3094 10.0088 18.1595 10.233 18.1595C10.4562 18.1595 10.8233 18.3081 11.1752 18.9266L11.1767 18.9293L11.2813 19.1114L11.2856 19.1188C11.9248 20.2012 13.3235 20.6041 14.4263 19.9473L16.0671 19.0014C17.2781 18.3038 17.6858 16.7517 16.998 15.5388L16.9958 15.535C16.6391 14.915 16.6951 14.5191 16.8064 14.3244C16.9178 14.1297 17.2297 13.8829 17.9384 13.8829C19.3336 13.8829 20.459 12.7345 20.459 11.3433V9.65666C20.459 8.25101 19.3191 7.11709 17.9384 7.11709C17.2297 7.11709 16.9178 6.8703 16.8064 6.67557C16.6951 6.48094 16.6391 6.08494 16.9958 5.46502L16.9962 5.46417C17.6876 4.2585 17.2771 2.69537 16.0667 1.99846L14.4264 1.05268C13.3236 0.395867 11.9248 0.798788 11.2856 1.88124L11.1767 2.07072C10.82 2.69068 10.4501 2.84053 10.2259 2.84053C10.0027 2.84053 9.63568 2.69195 9.28376 2.07338L9.28224 2.07072L9.17762 1.88861L9.17334 1.88126ZM13.0781 10.5C13.0781 12.0879 11.8007 13.375 10.2247 13.375C8.64878 13.375 7.37131 12.0879 7.37131 10.5C7.37131 8.91213 8.64878 7.625 10.2247 7.625C11.8007 7.625 13.0781 8.91213 13.0781 10.5Z" fill="#1E2C90"/>
</svg>
