<svg width="21" height="21" viewBox="0 0 21 21" fill="none" xmlns="http://www.w3.org/2000/svg">
<path fill-rule="evenodd" clip-rule="evenodd" d="M9.44074 1.88126C8.79674 0.798827 7.38733 0.395867 6.27621 1.05268L4.62309 1.99868C3.4038 2.6957 2.99037 4.25862 3.68691 5.46417L3.6874 5.46502C4.04672 6.08494 3.99032 6.48094 3.87817 6.67557C3.76595 6.8703 3.45174 7.11709 2.73758 7.11709C1.33192 7.11709 0.197998 8.26552 0.197998 9.65666V11.3433C0.197998 12.7345 1.33192 13.8829 2.73758 13.8829C3.45174 13.8829 3.76595 14.1297 3.87817 14.3244C3.99032 14.5191 4.04672 14.915 3.6874 15.535L3.68691 15.5358C2.99037 16.7414 3.40418 18.3046 4.62349 19.0016L6.27629 19.9473C7.38741 20.6041 8.79674 20.2012 9.44074 19.1188L9.55047 18.9293C9.90984 18.3094 10.2825 18.1595 10.5084 18.1595C10.7333 18.1595 11.1032 18.3081 11.4577 18.9266L11.4593 18.9293L11.5647 19.1114L11.569 19.1188C12.213 20.2012 13.6223 20.6041 14.7334 19.9473L16.3866 19.0014C17.6068 18.3038 18.0176 16.7517 17.3246 15.5388L17.3224 15.535C16.963 14.915 17.0194 14.5191 17.1316 14.3244C17.2438 14.1297 17.558 13.8829 18.2722 13.8829C19.6778 13.8829 20.8117 12.7345 20.8117 11.3433V9.65666C20.8117 8.25101 19.6633 7.11709 18.2722 7.11709C17.558 7.11709 17.2438 6.8703 17.1316 6.67557C17.0194 6.48094 16.963 6.08494 17.3224 5.46502L17.3228 5.46417C18.0195 4.2585 17.6058 2.69537 16.3863 1.99846L14.7335 1.05268C13.6224 0.395867 12.213 0.798788 11.569 1.88124L11.4593 2.07072C11.0999 2.69068 10.7272 2.84053 10.5012 2.84053C10.2764 2.84053 9.90659 2.69195 9.552 2.07338L9.55047 2.07072L9.44505 1.88861L9.44074 1.88126ZM13.3751 10.5C13.3751 12.0879 12.0879 13.375 10.5001 13.375C8.91222 13.375 7.62508 12.0879 7.62508 10.5C7.62508 8.91213 8.91222 7.625 10.5001 7.625C12.0879 7.625 13.3751 8.91213 13.3751 10.5Z" fill="#8C8C8C"/>
</svg>
