<svg width="80" height="44" viewBox="0 0 80 44" fill="none" xmlns="http://www.w3.org/2000/svg">
<path d="M0.0630861 -1.3113e-06H11.3881C13.2714 -1.3113e-06 15.0131 0.258332 16.6131 0.774999C18.2298 1.29167 19.5298 2.14167 20.5131 3.325C21.5131 4.49166 22.0131 6.075 22.0131 8.075C22.0131 9.39167 21.7631 10.5667 21.2631 11.6C20.7798 12.6333 20.1298 13.4833 19.3131 14.15C18.5131 14.8 17.6381 15.2333 16.6881 15.45C17.5214 15.55 18.3298 15.7917 19.1131 16.175C19.9131 16.5417 20.6298 17.0583 21.2631 17.725C21.9131 18.375 22.4214 19.1917 22.7881 20.175C23.1714 21.1417 23.3631 22.2917 23.3631 23.625C23.3631 25.475 22.9464 27.1083 22.1131 28.525C21.2964 29.925 20.0964 31.025 18.5131 31.825C16.9464 32.6083 15.0214 33 12.7381 33H0.0630861V-1.3113e-06ZM7.53809 27.025H10.9381C12.0048 27.025 12.8714 26.8667 13.5381 26.55C14.2214 26.2167 14.7214 25.75 15.0381 25.15C15.3548 24.5333 15.5131 23.8 15.5131 22.95C15.5131 21.6167 15.0964 20.6417 14.2631 20.025C13.4464 19.3917 12.2964 19.075 10.8131 19.075H7.53809V27.025ZM7.53809 13.225H10.5631C11.4464 13.225 12.1798 13.0667 12.7631 12.75C13.3631 12.4333 13.8131 11.9917 14.1131 11.425C14.4298 10.8417 14.5881 10.175 14.5881 9.425C14.5881 8.075 14.2048 7.16667 13.4381 6.7C12.6714 6.21666 11.6214 5.975 10.2881 5.975H7.53809V13.225ZM43.7428 33V29.675C43.5928 30.0083 43.2094 30.4917 42.5928 31.125C41.9928 31.7583 41.1928 32.3333 40.1928 32.85C39.1928 33.35 38.0261 33.6 36.6928 33.6C34.6928 33.6 32.9428 33.1167 31.4428 32.15C29.9428 31.1667 28.7761 29.8583 27.9428 28.225C27.1094 26.575 26.6928 24.75 26.6928 22.75C26.6928 20.75 27.1094 18.9333 27.9428 17.3C28.7761 15.65 29.9428 14.3333 31.4428 13.35C32.9428 12.3667 34.6928 11.875 36.6928 11.875C37.9761 11.875 39.1011 12.0833 40.0678 12.5C41.0344 12.9 41.8178 13.3833 42.4178 13.95C43.0178 14.5 43.4344 15.0083 43.6678 15.475V12.475H51.2178V33H43.7428ZM34.1428 22.75C34.1428 23.6833 34.3594 24.525 34.7928 25.275C35.2261 26.0083 35.8011 26.5833 36.5178 27C37.2511 27.4167 38.0594 27.625 38.9428 27.625C39.8594 27.625 40.6678 27.4167 41.3678 27C42.0678 26.5833 42.6178 26.0083 43.0178 25.275C43.4344 24.525 43.6428 23.6833 43.6428 22.75C43.6428 21.8167 43.4344 20.9833 43.0178 20.25C42.6178 19.5 42.0678 18.9167 41.3678 18.5C40.6678 18.0667 39.8594 17.85 38.9428 17.85C38.0594 17.85 37.2511 18.0667 36.5178 18.5C35.8011 18.9167 35.2261 19.5 34.7928 20.25C34.3594 20.9833 34.1428 21.8167 34.1428 22.75ZM66.8154 43.975C65.3821 43.975 63.9571 43.85 62.5404 43.6C61.1404 43.35 59.8321 42.925 58.6154 42.325C57.3988 41.725 56.3738 40.9 55.5404 39.85L59.9904 35.225C60.3738 35.675 60.8404 36.1167 61.3904 36.55C61.9571 36.9833 62.6488 37.3417 63.4654 37.625C64.2988 37.9083 65.3071 38.05 66.4904 38.05C67.5904 38.05 68.5488 37.8583 69.3654 37.475C70.1821 37.0917 70.8154 36.5333 71.2654 35.8C71.7321 35.0667 71.9654 34.175 71.9654 33.125V32.625H79.4404V33.575C79.4404 35.8417 78.8738 37.75 77.7404 39.3C76.6238 40.85 75.1154 42.0167 73.2154 42.8C71.3154 43.5833 69.1821 43.975 66.8154 43.975ZM71.9654 33V29.675C71.8154 30.0083 71.4321 30.4917 70.8154 31.125C70.2154 31.7583 69.4154 32.3333 68.4154 32.85C67.4154 33.35 66.2488 33.6 64.9154 33.6C62.9154 33.6 61.1654 33.1167 59.6654 32.15C58.1654 31.1667 56.9988 29.8583 56.1654 28.225C55.3321 26.575 54.9154 24.75 54.9154 22.75C54.9154 20.75 55.3321 18.9333 56.1654 17.3C56.9988 15.65 58.1654 14.3333 59.6654 13.35C61.1654 12.3667 62.9154 11.875 64.9154 11.875C66.1988 11.875 67.3238 12.0833 68.2904 12.5C69.2571 12.9 70.0404 13.3833 70.6404 13.95C71.2404 14.5 71.6571 15.0083 71.8904 15.475V12.475H79.4404V33H71.9654ZM62.3654 22.75C62.3654 23.6833 62.5821 24.525 63.0154 25.275C63.4488 26.0083 64.0238 26.5833 64.7404 27C65.4738 27.4167 66.2821 27.625 67.1654 27.625C68.0821 27.625 68.8904 27.4167 69.5904 27C70.2904 26.5833 70.8404 26.0083 71.2404 25.275C71.6571 24.525 71.8654 23.6833 71.8654 22.75C71.8654 21.8167 71.6571 20.9833 71.2404 20.25C70.8404 19.5 70.2904 18.9167 69.5904 18.5C68.8904 18.0667 68.0821 17.85 67.1654 17.85C66.2821 17.85 65.4738 18.0667 64.7404 18.5C64.0238 18.9167 63.4488 19.5 63.0154 20.25C62.5821 20.9833 62.3654 21.8167 62.3654 22.75Z" fill="#1E2C90"/>
</svg>
