<svg width="87" height="45" viewBox="0 0 87 45" fill="none" xmlns="http://www.w3.org/2000/svg">
<path d="M18.6652 27.2C20.1986 27.2 21.5902 26.975 22.8402 26.525C24.1069 26.075 25.0486 25.6333 25.6652 25.2L28.8652 31.55C28.0819 32.2167 26.7402 32.8917 24.8402 33.575C22.9569 34.2583 20.7152 34.6 18.1152 34.6C15.6819 34.6 13.3986 34.175 11.2652 33.325C9.1319 32.475 7.24857 31.2833 5.61523 29.75C3.99857 28.2 2.72357 26.3917 1.79023 24.325C0.873568 22.2417 0.415234 19.9833 0.415234 17.55C0.415234 15.1167 0.873568 12.8583 1.79023 10.775C2.7069 8.675 3.97357 6.85 5.59023 5.3C7.22357 3.75 9.1069 2.55 11.2402 1.7C13.3902 0.833331 15.6819 0.399997 18.1152 0.399997C20.7152 0.399997 22.9569 0.741664 24.8402 1.425C26.7402 2.10833 28.0819 2.78333 28.8652 3.45L25.6652 9.8C25.0486 9.35 24.1069 8.90833 22.8402 8.475C21.5902 8.025 20.1986 7.8 18.6652 7.8C16.9652 7.8 15.4819 8.06666 14.2152 8.6C12.9486 9.11667 11.8902 9.83333 11.0402 10.75C10.1902 11.6667 9.5569 12.7 9.14023 13.85C8.72357 15 8.51523 16.2083 8.51523 17.475C8.51523 18.7583 8.72357 19.9833 9.14023 21.15C9.5569 22.3 10.1902 23.3333 11.0402 24.25C11.8902 25.1667 12.9486 25.8917 14.2152 26.425C15.4819 26.9417 16.9652 27.2 18.6652 27.2ZM49.3668 34V30.675C49.2168 31.0083 48.8335 31.4917 48.2168 32.125C47.6168 32.7583 46.8168 33.3333 45.8168 33.85C44.8168 34.35 43.6501 34.6 42.3168 34.6C40.3168 34.6 38.5668 34.1167 37.0668 33.15C35.5668 32.1667 34.4001 30.8583 33.5668 29.225C32.7335 27.575 32.3168 25.75 32.3168 23.75C32.3168 21.75 32.7335 19.9333 33.5668 18.3C34.4001 16.65 35.5668 15.3333 37.0668 14.35C38.5668 13.3667 40.3168 12.875 42.3168 12.875C43.6001 12.875 44.7251 13.0833 45.6918 13.5C46.6585 13.9 47.4418 14.3833 48.0418 14.95C48.6418 15.5 49.0585 16.0083 49.2918 16.475V13.475H56.8418V34H49.3668ZM39.7668 23.75C39.7668 24.6833 39.9835 25.525 40.4168 26.275C40.8501 27.0083 41.4251 27.5833 42.1418 28C42.8751 28.4167 43.6835 28.625 44.5668 28.625C45.4835 28.625 46.2918 28.4167 46.9918 28C47.6918 27.5833 48.2418 27.0083 48.6418 26.275C49.0585 25.525 49.2668 24.6833 49.2668 23.75C49.2668 22.8167 49.0585 21.9833 48.6418 21.25C48.2418 20.5 47.6918 19.9167 46.9918 19.5C46.2918 19.0667 45.4835 18.85 44.5668 18.85C43.6835 18.85 42.8751 19.0667 42.1418 19.5C41.4251 19.9167 40.8501 20.5 40.4168 21.25C39.9835 21.9833 39.7668 22.8167 39.7668 23.75ZM69.1395 44.4H61.6145V13.475H69.2145V16.475C69.4478 16.0083 69.8895 15.5 70.5395 14.95C71.2061 14.3833 72.0478 13.9 73.0645 13.5C74.0978 13.0833 75.2645 12.875 76.5645 12.875C78.5645 12.875 80.2728 13.3667 81.6895 14.35C83.1228 15.3333 84.2228 16.65 84.9895 18.3C85.7561 19.9333 86.1395 21.75 86.1395 23.75C86.1395 25.75 85.7311 27.575 84.9145 29.225C84.0978 30.8583 82.9478 32.1667 81.4645 33.15C79.9978 34.1167 78.2645 34.6 76.2645 34.6C74.8311 34.6 73.6061 34.35 72.5895 33.85C71.5895 33.3333 70.7978 32.7667 70.2145 32.15C69.6478 31.5167 69.2895 31.025 69.1395 30.675V44.4ZM78.7145 23.75C78.7145 22.8167 78.5061 21.9833 78.0895 21.25C77.6728 20.5 77.1061 19.9167 76.3895 19.5C75.6895 19.0667 74.8978 18.85 74.0145 18.85C73.0978 18.85 72.2728 19.0667 71.5395 19.5C70.8228 19.9167 70.2561 20.5 69.8395 21.25C69.4228 21.9833 69.2145 22.8167 69.2145 23.75C69.2145 24.6833 69.4228 25.525 69.8395 26.275C70.2561 27.0083 70.8228 27.5833 71.5395 28C72.2728 28.4167 73.0978 28.625 74.0145 28.625C74.8978 28.625 75.6895 28.4167 76.3895 28C77.1061 27.5833 77.6728 27.0083 78.0895 26.275C78.5061 25.525 78.7145 24.6833 78.7145 23.75Z" fill="#1E2C90"/>
</svg>
