<svg width="479" height="238" viewBox="0 0 479 238" fill="none" xmlns="http://www.w3.org/2000/svg">
<g filter="url(#filter0_d_2058_1054)">
<rect x="15" y="15" width="439" height="198" rx="25" fill="#4B70F5"/>
</g>
<path d="M388 20H425C438.807 20 450 31.1929 450 45V183C450 196.807 438.807 208 425 208H388V20Z" fill="white"/>
<path d="M58.443 68.54C59.8296 68.54 61.063 68.3467 62.143 67.96C63.223 67.56 64.0163 67.1667 64.523 66.78L66.663 71.04C66.0496 71.5733 64.9896 72.1133 63.483 72.66C61.9896 73.2067 60.203 73.48 58.123 73.48C56.1763 73.48 54.3563 73.14 52.663 72.46C50.9696 71.7667 49.483 70.8067 48.203 69.58C46.923 68.34 45.923 66.8933 45.203 65.24C44.483 63.5733 44.123 61.7733 44.123 59.84C44.123 57.9067 44.4763 56.1067 45.183 54.44C45.903 52.76 46.903 51.3 48.183 50.06C49.463 48.82 50.9496 47.8533 52.643 47.16C54.3496 46.4667 56.1763 46.12 58.123 46.12C60.203 46.12 61.9896 46.3933 63.483 46.94C64.9896 47.4867 66.0496 48.0267 66.663 48.56L64.523 52.82C64.0163 52.4333 63.223 52.0467 62.143 51.66C61.063 51.26 59.8296 51.06 58.443 51.06C57.0296 51.06 55.7696 51.2867 54.663 51.74C53.5696 52.1933 52.6363 52.8267 51.863 53.64C51.103 54.44 50.523 55.3667 50.123 56.42C49.723 57.4733 49.523 58.5933 49.523 59.78C49.523 60.98 49.723 62.1133 50.123 63.18C50.523 64.2333 51.103 65.1667 51.863 65.98C52.6363 66.78 53.5696 67.4067 54.663 67.86C55.7696 68.3133 57.0296 68.54 58.443 68.54ZM70.5889 46.6H75.5889V68.58H85.4889V73H70.5889V46.6ZM89.6105 46.6H105.99V51.02H94.5705V57.62H105.83V61.9H94.5705V68.58H105.99V73H89.6105V46.6ZM118.419 46.6H123.439L133.599 73H128.279L126.219 67.3H115.659L113.559 73H108.219L118.419 46.6ZM117.299 62.88H124.579L120.959 52.64H120.899L117.299 62.88ZM140.657 51.22L140.997 51.28V73H136.017V46.6H142.897L154.737 68.28L154.397 68.36V46.6H159.377V73H152.457L140.657 51.22ZM164.46 46.6H169.46V73H164.46V46.6ZM179.133 51.22L179.473 51.28V73H174.493V46.6H181.373L193.213 68.28L192.873 68.36V46.6H197.853V73H190.933L179.133 51.22ZM214.796 58.4H228.196V59.98C228.196 61.86 227.876 63.62 227.236 65.26C226.61 66.8867 225.71 68.32 224.536 69.56C223.363 70.7867 221.97 71.7467 220.356 72.44C218.756 73.1333 216.99 73.48 215.056 73.48C213.07 73.48 211.256 73.1267 209.616 72.42C207.976 71.7133 206.563 70.7333 205.376 69.48C204.19 68.2267 203.27 66.7733 202.616 65.12C201.976 63.4533 201.656 61.6733 201.656 59.78C201.656 57.9 201.976 56.1333 202.616 54.48C203.27 52.8133 204.19 51.36 205.376 50.12C206.563 48.8667 207.976 47.8867 209.616 47.18C211.256 46.4733 213.07 46.12 215.056 46.12C216.59 46.12 217.956 46.2867 219.156 46.62C220.356 46.9533 221.403 47.4067 222.296 47.98C223.203 48.54 223.983 49.1667 224.636 49.86C225.303 50.54 225.856 51.2267 226.296 51.92L221.616 54.2C220.976 53.2667 220.123 52.4667 219.056 51.8C218.003 51.1333 216.67 50.8 215.056 50.8C213.856 50.8 212.75 51.04 211.736 51.52C210.736 51.9867 209.87 52.6333 209.136 53.46C208.416 54.2867 207.856 55.2467 207.456 56.34C207.056 57.42 206.856 58.5667 206.856 59.78C206.856 61.0067 207.056 62.16 207.456 63.24C207.856 64.32 208.416 65.28 209.136 66.12C209.87 66.9467 210.736 67.5933 211.736 68.06C212.75 68.5267 213.856 68.76 215.056 68.76C216.15 68.76 217.143 68.6 218.036 68.28C218.93 67.96 219.703 67.5067 220.356 66.92C221.023 66.3333 221.55 65.6467 221.936 64.86C222.323 64.06 222.543 63.2 222.596 62.28H214.796V58.4Z" fill="white"/>
<path d="M44.856 123.88C45.112 122.877 45.6027 121.8 46.328 120.648C47.0747 119.496 48.0667 118.419 49.304 117.416C50.5413 116.413 52.0453 115.592 53.816 114.952C55.608 114.312 57.6667 113.992 59.992 113.992C62.6587 113.992 65.0693 114.483 67.224 115.464C69.3787 116.445 71.0853 117.843 72.344 119.656C73.6027 121.448 74.232 123.581 74.232 126.056C74.232 127.4 73.9973 128.637 73.528 129.768C73.0587 130.899 72.4613 131.848 71.736 132.616C71.0107 133.363 70.2427 133.864 69.432 134.12C70.4133 134.269 71.4053 134.76 72.408 135.592C73.4107 136.424 74.2533 137.523 74.936 138.888C75.6187 140.232 75.96 141.821 75.96 143.656C75.96 146.408 75.256 148.851 73.848 150.984C72.44 153.096 70.52 154.76 68.088 155.976C65.6773 157.171 62.9253 157.768 59.832 157.768C56.5253 157.768 53.7307 157.192 51.448 156.04C49.1653 154.867 47.3627 153.427 46.04 151.72C44.7173 150.013 43.8427 148.381 43.416 146.824L53.624 141.8C53.8373 142.717 54.2107 143.677 54.744 144.68C55.2987 145.661 56.0027 146.493 56.856 147.176C57.7093 147.859 58.6907 148.2 59.8 148.2C60.8667 148.2 61.784 147.997 62.552 147.592C63.32 147.165 63.9173 146.589 64.344 145.864C64.7707 145.117 64.984 144.253 64.984 143.272C64.984 142.269 64.7493 141.437 64.28 140.776C63.8107 140.115 63.1813 139.613 62.392 139.272C61.624 138.931 60.76 138.76 59.8 138.76H58.968V130.952H60.056C60.8667 130.952 61.592 130.792 62.232 130.472C62.872 130.131 63.3733 129.651 63.736 129.032C64.12 128.413 64.312 127.699 64.312 126.888C64.312 125.757 63.9173 124.808 63.128 124.04C62.36 123.251 61.2827 122.856 59.896 122.856C58.9573 122.856 58.1253 123.027 57.4 123.368C56.696 123.709 56.088 124.157 55.576 124.712C55.0853 125.267 54.68 125.843 54.36 126.44C54.0613 127.037 53.8587 127.592 53.752 128.104L44.856 123.88ZM79.0255 135.912C79.0255 132.285 79.4948 129.107 80.4335 126.376C81.3722 123.624 82.6628 121.331 84.3055 119.496C85.9695 117.661 87.8575 116.285 89.9695 115.368C92.0815 114.451 94.3108 113.992 96.6575 113.992C99.0468 113.992 101.298 114.451 103.41 115.368C105.522 116.285 107.388 117.661 109.01 119.496C110.652 121.331 111.943 123.624 112.882 126.376C113.82 129.107 114.29 132.285 114.29 135.912C114.29 139.859 113.82 143.219 112.882 145.992C111.943 148.765 110.652 151.016 109.01 152.744C107.388 154.472 105.522 155.741 103.41 156.552C101.298 157.363 99.0468 157.768 96.6575 157.768C94.3108 157.768 92.0815 157.363 89.9695 156.552C87.8575 155.741 85.9695 154.472 84.3055 152.744C82.6628 151.016 81.3722 148.765 80.4335 145.992C79.4948 143.219 79.0255 139.859 79.0255 135.912ZM90.1615 135.912C90.1615 138.685 90.4068 140.968 90.8975 142.76C91.4095 144.531 92.1455 145.853 93.1055 146.728C94.0655 147.581 95.2495 148.008 96.6575 148.008C98.0868 148.008 99.2815 147.581 100.242 146.728C101.202 145.853 101.916 144.52 102.386 142.728C102.876 140.936 103.122 138.664 103.122 135.912C103.122 133.373 102.876 131.208 102.386 129.416C101.916 127.603 101.202 126.205 100.242 125.224C99.2815 124.243 98.0868 123.752 96.6575 123.752C95.2495 123.752 94.0655 124.243 93.1055 125.224C92.1455 126.205 91.4095 127.603 90.8975 129.416C90.4068 131.229 90.1615 133.395 90.1615 135.912ZM138.364 134.984L153.916 157H140.668L128.732 138.92V157H117.596V114.76H128.732V131.272L139.612 114.76H152.156L138.364 134.984Z" fill="white"/>
<path d="M45.3783 84.16H54.4023V85.42H46.7103V91.432H54.2103V92.68H46.7103V98.74H54.4023V100H45.3783V84.16ZM61.1225 89.86C61.5785 89.86 62.0065 89.912 62.4065 90.016C62.8145 90.112 63.1705 90.236 63.4745 90.388C63.7785 90.532 64.0065 90.664 64.1585 90.784L63.4985 91.732C63.3305 91.572 63.0385 91.404 62.6225 91.228C62.2065 91.044 61.7385 90.952 61.2185 90.952C60.5785 90.952 60.0305 91.084 59.5745 91.348C59.1265 91.612 58.9025 91.996 58.9025 92.5C58.9025 92.988 59.1305 93.376 59.5865 93.664C60.0425 93.952 60.6425 94.188 61.3865 94.372C61.9545 94.516 62.4705 94.696 62.9345 94.912C63.4065 95.128 63.7825 95.424 64.0625 95.8C64.3425 96.168 64.4825 96.66 64.4825 97.276C64.4825 97.804 64.3745 98.26 64.1585 98.644C63.9425 99.02 63.6465 99.328 63.2705 99.568C62.9025 99.808 62.4825 99.988 62.0105 100.108C61.5385 100.228 61.0425 100.288 60.5225 100.288C59.9865 100.288 59.4905 100.228 59.0345 100.108C58.5785 99.988 58.1865 99.844 57.8585 99.676C57.5385 99.508 57.2945 99.352 57.1265 99.208L57.8105 98.14C58.0185 98.356 58.3585 98.58 58.8305 98.812C59.3105 99.036 59.8705 99.148 60.5105 99.148C61.2545 99.148 61.8665 98.976 62.3465 98.632C62.8345 98.288 63.0785 97.836 63.0785 97.276C63.0785 96.868 62.9625 96.54 62.7305 96.292C62.4985 96.044 62.1945 95.848 61.8185 95.704C61.4425 95.552 61.0425 95.424 60.6185 95.32C60.2105 95.216 59.8185 95.092 59.4425 94.948C59.0745 94.796 58.7465 94.608 58.4585 94.384C58.1705 94.16 57.9425 93.892 57.7745 93.58C57.6145 93.26 57.5345 92.888 57.5345 92.464C57.5345 91.936 57.6985 91.48 58.0265 91.096C58.3545 90.704 58.7905 90.4 59.3345 90.184C59.8865 89.968 60.4825 89.86 61.1225 89.86ZM66.122 90.148H68.174V86.104H69.53V90.148H72.218V91.384H69.53V97.228C69.53 97.884 69.65 98.352 69.89 98.632C70.13 98.912 70.43 99.052 70.79 99.052C71.134 99.052 71.394 98.992 71.57 98.872C71.746 98.752 71.85 98.672 71.882 98.632L72.518 99.676C72.47 99.716 72.362 99.788 72.194 99.892C72.026 99.988 71.806 100.076 71.534 100.156C71.262 100.244 70.934 100.288 70.55 100.288C69.886 100.288 69.322 100.076 68.858 99.652C68.402 99.22 68.174 98.532 68.174 97.588V91.384H66.122V90.148ZM74.8318 100V90.148H76.1878V100H74.8318ZM75.5278 86.152C75.2398 86.152 74.9918 86.052 74.7838 85.852C74.5838 85.644 74.4838 85.396 74.4838 85.108C74.4838 84.812 74.5878 84.564 74.7958 84.364C75.0038 84.156 75.2478 84.052 75.5278 84.052C75.7198 84.052 75.8958 84.1 76.0558 84.196C76.2238 84.292 76.3558 84.42 76.4518 84.58C76.5558 84.732 76.6078 84.908 76.6078 85.108C76.6078 85.396 76.4998 85.644 76.2838 85.852C76.0758 86.052 75.8238 86.152 75.5278 86.152ZM90.728 89.86C91.456 89.86 92.068 90.02 92.564 90.34C93.06 90.66 93.432 91.148 93.68 91.804C93.936 92.452 94.064 93.28 94.064 94.288V100H92.708V94.648C92.708 93.408 92.54 92.496 92.204 91.912C91.868 91.328 91.268 91.036 90.404 91.036C89.964 91.036 89.528 91.16 89.096 91.408C88.672 91.648 88.32 92.032 88.04 92.56C87.76 93.088 87.62 93.784 87.62 94.648V100H86.312V94.648C86.312 93.408 86.096 92.496 85.664 91.912C85.232 91.328 84.664 91.036 83.96 91.036C83.512 91.036 83.076 91.152 82.652 91.384C82.236 91.616 81.892 92 81.62 92.536C81.356 93.064 81.224 93.768 81.224 94.648V100H79.868V90.148H81.224V91.708C81.304 91.46 81.484 91.192 81.764 90.904C82.052 90.616 82.42 90.372 82.868 90.172C83.316 89.964 83.828 89.86 84.404 89.86C85.012 89.86 85.516 89.996 85.916 90.268C86.316 90.54 86.628 90.864 86.852 91.24C87.076 91.616 87.216 91.96 87.272 92.272C87.392 91.896 87.608 91.524 87.92 91.156C88.232 90.788 88.628 90.48 89.108 90.232C89.588 89.984 90.128 89.86 90.728 89.86ZM105.33 100V97.936C105.274 98.152 105.086 98.448 104.766 98.824C104.454 99.2 104.018 99.54 103.458 99.844C102.906 100.14 102.25 100.288 101.49 100.288C100.602 100.288 99.7822 100.084 99.0302 99.676C98.2862 99.26 97.6862 98.664 97.2302 97.888C96.7822 97.104 96.5582 96.168 96.5582 95.08C96.5582 93.992 96.7822 93.06 97.2302 92.284C97.6862 91.5 98.2862 90.9 99.0302 90.484C99.7822 90.068 100.602 89.86 101.49 89.86C102.25 89.86 102.906 90.004 103.458 90.292C104.01 90.572 104.446 90.896 104.766 91.264C105.094 91.632 105.278 91.94 105.318 92.188V90.148H106.662V100H105.33ZM97.9142 95.08C97.9142 95.912 98.0942 96.628 98.4542 97.228C98.8142 97.828 99.2782 98.288 99.8462 98.608C100.422 98.928 101.026 99.088 101.658 99.088C102.354 99.088 102.974 98.924 103.518 98.596C104.062 98.268 104.49 97.804 104.802 97.204C105.122 96.604 105.282 95.896 105.282 95.08C105.282 94.264 105.122 93.556 104.802 92.956C104.49 92.356 104.062 91.892 103.518 91.564C102.974 91.228 102.354 91.06 101.658 91.06C101.026 91.06 100.422 91.224 99.8462 91.552C99.2782 91.872 98.8142 92.332 98.4542 92.932C98.0942 93.532 97.9142 94.248 97.9142 95.08ZM113.037 89.86C113.493 89.86 113.921 89.912 114.321 90.016C114.729 90.112 115.085 90.236 115.389 90.388C115.693 90.532 115.921 90.664 116.073 90.784L115.413 91.732C115.245 91.572 114.953 91.404 114.537 91.228C114.121 91.044 113.653 90.952 113.133 90.952C112.493 90.952 111.945 91.084 111.489 91.348C111.041 91.612 110.817 91.996 110.817 92.5C110.817 92.988 111.045 93.376 111.501 93.664C111.957 93.952 112.557 94.188 113.301 94.372C113.869 94.516 114.385 94.696 114.849 94.912C115.321 95.128 115.697 95.424 115.977 95.8C116.257 96.168 116.397 96.66 116.397 97.276C116.397 97.804 116.289 98.26 116.073 98.644C115.857 99.02 115.561 99.328 115.185 99.568C114.817 99.808 114.397 99.988 113.925 100.108C113.453 100.228 112.957 100.288 112.437 100.288C111.901 100.288 111.405 100.228 110.949 100.108C110.493 99.988 110.101 99.844 109.773 99.676C109.453 99.508 109.209 99.352 109.041 99.208L109.725 98.14C109.933 98.356 110.273 98.58 110.745 98.812C111.225 99.036 111.785 99.148 112.425 99.148C113.169 99.148 113.781 98.976 114.261 98.632C114.749 98.288 114.993 97.836 114.993 97.276C114.993 96.868 114.877 96.54 114.645 96.292C114.413 96.044 114.109 95.848 113.733 95.704C113.357 95.552 112.957 95.424 112.533 95.32C112.125 95.216 111.733 95.092 111.357 94.948C110.989 94.796 110.661 94.608 110.373 94.384C110.085 94.16 109.857 93.892 109.689 93.58C109.529 93.26 109.449 92.888 109.449 92.464C109.449 91.936 109.613 91.48 109.941 91.096C110.269 90.704 110.705 90.4 111.249 90.184C111.801 89.968 112.397 89.86 113.037 89.86ZM119.316 100V90.148H120.672V100H119.316ZM120.012 86.152C119.724 86.152 119.476 86.052 119.268 85.852C119.068 85.644 118.968 85.396 118.968 85.108C118.968 84.812 119.072 84.564 119.28 84.364C119.488 84.156 119.732 84.052 120.012 84.052C120.204 84.052 120.38 84.1 120.54 84.196C120.708 84.292 120.84 84.42 120.936 84.58C121.04 84.732 121.092 84.908 121.092 85.108C121.092 85.396 120.984 85.644 120.768 85.852C120.56 86.052 120.308 86.152 120.012 86.152ZM125.816 100.288C125.44 100.288 125.12 100.156 124.856 99.892C124.6 99.628 124.472 99.312 124.472 98.944C124.472 98.56 124.6 98.236 124.856 97.972C125.12 97.708 125.44 97.576 125.816 97.576C126.192 97.576 126.512 97.708 126.776 97.972C127.04 98.236 127.172 98.56 127.172 98.944C127.172 99.312 127.04 99.628 126.776 99.892C126.512 100.156 126.192 100.288 125.816 100.288ZM125.816 92.38C125.44 92.38 125.12 92.248 124.856 91.984C124.6 91.72 124.472 91.404 124.472 91.036C124.472 90.652 124.6 90.328 124.856 90.064C125.12 89.8 125.44 89.668 125.816 89.668C126.192 89.668 126.512 89.8 126.776 90.064C127.04 90.328 127.172 90.652 127.172 91.036C127.172 91.404 127.04 91.72 126.776 91.984C126.512 92.248 126.192 92.38 125.816 92.38ZM135.947 86.392C135.987 86.264 136.099 86.064 136.283 85.792C136.475 85.52 136.747 85.24 137.099 84.952C137.459 84.656 137.915 84.404 138.467 84.196C139.027 83.98 139.691 83.872 140.459 83.872C141.475 83.872 142.327 84.06 143.015 84.436C143.703 84.812 144.219 85.312 144.563 85.936C144.915 86.56 145.091 87.256 145.091 88.024C145.091 88.672 144.959 89.256 144.695 89.776C144.431 90.296 144.091 90.72 143.675 91.048C143.259 91.368 142.815 91.56 142.343 91.624C142.823 91.664 143.307 91.84 143.795 92.152C144.291 92.464 144.703 92.9 145.031 93.46C145.367 94.012 145.535 94.68 145.535 95.464C145.535 96.368 145.319 97.188 144.887 97.924C144.463 98.652 143.867 99.228 143.099 99.652C142.339 100.076 141.443 100.288 140.411 100.288C139.443 100.288 138.615 100.124 137.927 99.796C137.239 99.468 136.683 99.068 136.259 98.596C135.843 98.124 135.555 97.668 135.395 97.228L136.631 96.556C136.759 96.908 136.979 97.276 137.291 97.66C137.611 98.044 138.031 98.372 138.551 98.644C139.071 98.908 139.683 99.04 140.387 99.04C141.195 99.04 141.879 98.876 142.439 98.548C142.999 98.22 143.423 97.784 143.711 97.24C143.999 96.696 144.143 96.096 144.143 95.44C144.143 94.696 143.963 94.092 143.603 93.628C143.251 93.164 142.791 92.82 142.223 92.596C141.655 92.372 141.043 92.26 140.387 92.26H140.075V91.132H140.483C141.059 91.132 141.599 91.012 142.103 90.772C142.615 90.532 143.027 90.188 143.339 89.74C143.651 89.284 143.807 88.736 143.807 88.096C143.807 87.256 143.527 86.544 142.967 85.96C142.415 85.376 141.567 85.084 140.423 85.084C139.815 85.084 139.303 85.172 138.887 85.348C138.471 85.516 138.139 85.716 137.891 85.948C137.643 86.18 137.459 86.396 137.339 86.596C137.227 86.788 137.167 86.904 137.159 86.944L135.947 86.392ZM154.031 95.14V93.928H160.211V95.14H154.031ZM171.345 85.792L168.489 87.46V86.104L171.765 84.16H172.701V100H171.345V85.792ZM175.819 92.092C175.819 90.668 175.983 89.44 176.311 88.408C176.647 87.368 177.091 86.516 177.643 85.852C178.203 85.18 178.823 84.684 179.503 84.364C180.191 84.036 180.887 83.872 181.591 83.872C182.295 83.872 182.987 84.036 183.667 84.364C184.355 84.684 184.975 85.18 185.527 85.852C186.079 86.516 186.519 87.368 186.847 88.408C187.175 89.44 187.339 90.668 187.339 92.092C187.339 93.516 187.175 94.744 186.847 95.776C186.519 96.8 186.079 97.648 185.527 98.32C184.975 98.984 184.355 99.48 183.667 99.808C182.987 100.128 182.295 100.288 181.591 100.288C180.887 100.288 180.191 100.128 179.503 99.808C178.823 99.48 178.203 98.984 177.643 98.32C177.091 97.648 176.647 96.8 176.311 95.776C175.983 94.744 175.819 93.516 175.819 92.092ZM177.211 92.092C177.211 93.636 177.415 94.924 177.823 95.956C178.239 96.98 178.779 97.748 179.443 98.26C180.107 98.764 180.823 99.016 181.591 99.016C182.367 99.016 183.083 98.764 183.739 98.26C184.403 97.748 184.935 96.98 185.335 95.956C185.743 94.924 185.947 93.636 185.947 92.092C185.947 90.54 185.743 89.252 185.335 88.228C184.935 87.196 184.403 86.424 183.739 85.912C183.083 85.4 182.367 85.144 181.591 85.144C180.823 85.144 180.107 85.4 179.443 85.912C178.779 86.424 178.239 87.196 177.823 88.228C177.415 89.26 177.211 90.548 177.211 92.092ZM195.892 84.16H199.156C200.844 84.16 202.228 84.5 203.308 85.18C204.388 85.852 205.184 86.784 205.696 87.976C206.216 89.168 206.476 90.532 206.476 92.068C206.476 93.612 206.22 94.98 205.708 96.172C205.196 97.364 204.4 98.3 203.32 98.98C202.24 99.66 200.852 100 199.156 100H195.892V84.16ZM197.224 85.432V98.728H199.048C200.456 98.728 201.6 98.444 202.48 97.876C203.368 97.308 204.02 96.528 204.436 95.536C204.86 94.536 205.076 93.388 205.084 92.092C205.092 90.796 204.888 89.648 204.472 88.648C204.056 87.648 203.4 86.864 202.504 86.296C201.616 85.72 200.464 85.432 199.048 85.432H197.224ZM217.268 100V97.936C217.212 98.152 217.024 98.448 216.704 98.824C216.392 99.2 215.956 99.54 215.396 99.844C214.844 100.14 214.188 100.288 213.428 100.288C212.54 100.288 211.72 100.084 210.968 99.676C210.224 99.26 209.624 98.664 209.168 97.888C208.72 97.104 208.496 96.168 208.496 95.08C208.496 93.992 208.72 93.06 209.168 92.284C209.624 91.5 210.224 90.9 210.968 90.484C211.72 90.068 212.54 89.86 213.428 89.86C214.188 89.86 214.844 90.004 215.396 90.292C215.948 90.572 216.384 90.896 216.704 91.264C217.032 91.632 217.216 91.94 217.256 92.188V90.148H218.6V100H217.268ZM209.852 95.08C209.852 95.912 210.032 96.628 210.392 97.228C210.752 97.828 211.216 98.288 211.784 98.608C212.36 98.928 212.964 99.088 213.596 99.088C214.292 99.088 214.912 98.924 215.456 98.596C216 98.268 216.428 97.804 216.74 97.204C217.06 96.604 217.22 95.896 217.22 95.08C217.22 94.264 217.06 93.556 216.74 92.956C216.428 92.356 216 91.892 215.456 91.564C214.912 91.228 214.292 91.06 213.596 91.06C212.964 91.06 212.36 91.224 211.784 91.552C211.216 91.872 210.752 92.332 210.392 92.932C210.032 93.532 209.852 94.248 209.852 95.08ZM225.31 98.68L228.934 90.148H230.35L223.75 104.992H222.334L224.566 100L220.522 90.148H221.95L225.31 98.68ZM235.474 89.86C235.93 89.86 236.358 89.912 236.758 90.016C237.166 90.112 237.522 90.236 237.826 90.388C238.13 90.532 238.358 90.664 238.51 90.784L237.85 91.732C237.682 91.572 237.39 91.404 236.974 91.228C236.558 91.044 236.09 90.952 235.57 90.952C234.93 90.952 234.382 91.084 233.926 91.348C233.478 91.612 233.254 91.996 233.254 92.5C233.254 92.988 233.482 93.376 233.938 93.664C234.394 93.952 234.994 94.188 235.738 94.372C236.306 94.516 236.822 94.696 237.286 94.912C237.758 95.128 238.134 95.424 238.414 95.8C238.694 96.168 238.834 96.66 238.834 97.276C238.834 97.804 238.726 98.26 238.51 98.644C238.294 99.02 237.998 99.328 237.622 99.568C237.254 99.808 236.834 99.988 236.362 100.108C235.89 100.228 235.394 100.288 234.874 100.288C234.338 100.288 233.842 100.228 233.386 100.108C232.93 99.988 232.538 99.844 232.21 99.676C231.89 99.508 231.646 99.352 231.478 99.208L232.162 98.14C232.37 98.356 232.71 98.58 233.182 98.812C233.662 99.036 234.222 99.148 234.862 99.148C235.606 99.148 236.218 98.976 236.698 98.632C237.186 98.288 237.43 97.836 237.43 97.276C237.43 96.868 237.314 96.54 237.082 96.292C236.85 96.044 236.546 95.848 236.17 95.704C235.794 95.552 235.394 95.424 234.97 95.32C234.562 95.216 234.17 95.092 233.794 94.948C233.426 94.796 233.098 94.608 232.81 94.384C232.522 94.16 232.294 93.892 232.126 93.58C231.966 93.26 231.886 92.888 231.886 92.464C231.886 91.936 232.05 91.48 232.378 91.096C232.706 90.704 233.142 90.4 233.686 90.184C234.238 89.968 234.834 89.86 235.474 89.86Z" fill="white"/>
<line x1="411.325" y1="98.502" x2="430.05" y2="115.066" stroke="#4B70F5" stroke-width="4"/>
<line y1="-2" x2="25" y2="-2" transform="matrix(0.748997 -0.662574 -0.662574 -0.748997 410 128.564)" stroke="#4B70F5" stroke-width="4"/>
<defs>
<filter id="filter0_d_2058_1054" x="0" y="0" width="479" height="238" filterUnits="userSpaceOnUse" color-interpolation-filters="sRGB">
<feFlood flood-opacity="0" result="BackgroundImageFix"/>
<feColorMatrix in="SourceAlpha" type="matrix" values="0 0 0 0 0 0 0 0 0 0 0 0 0 0 0 0 0 0 127 0" result="hardAlpha"/>
<feOffset dx="5" dy="5"/>
<feGaussianBlur stdDeviation="10"/>
<feComposite in2="hardAlpha" operator="out"/>
<feColorMatrix type="matrix" values="0 0 0 0 0 0 0 0 0 0 0 0 0 0 0 0 0 0 0.5 0"/>
<feBlend mode="normal" in2="BackgroundImageFix" result="effect1_dropShadow_2058_1054"/>
<feBlend mode="normal" in="SourceGraphic" in2="effect1_dropShadow_2058_1054" result="shape"/>
</filter>
</defs>
</svg>
