<svg width="479" height="238" viewBox="0 0 479 238" fill="none" xmlns="http://www.w3.org/2000/svg">
<g filter="url(#filter0_d_142_116)">
<rect x="15" y="15" width="439" height="198" rx="25" fill="#4C3BCF"/>
</g>
<path d="M388 20H425C438.807 20 450 31.1929 450 45V183C450 196.807 438.807 208 425 208H388V20Z" fill="white"/>
<path d="M74.6413 46.6V73H69.6613V56.1L69.9013 52.26L69.0013 56.62L63.8213 71.12H58.9013L53.7413 56.62L52.8613 52.26L53.0813 56.1V73H48.0813V46.6H55.0013L61.0413 65.42L61.3613 67.22L61.6813 65.42L67.7413 46.6H74.6413ZM79.7238 46.6H96.1038V51.02H84.6838V57.62H95.9438V61.9H84.6838V68.58H96.1038V73H79.7238V46.6ZM100.974 46.6H108.254C111.067 46.6 113.387 47.1667 115.214 48.3C117.054 49.42 118.427 50.9733 119.334 52.96C120.24 54.9467 120.694 57.22 120.694 59.78C120.694 62.3533 120.24 64.6333 119.334 66.62C118.427 68.6067 117.054 70.1667 115.214 71.3C113.387 72.4333 111.067 73 108.254 73H100.974V46.6ZM105.934 51.06V68.54H107.814C109.534 68.54 110.947 68.1667 112.054 67.42C113.174 66.66 114.007 65.62 114.554 64.3C115.114 62.98 115.394 61.4867 115.394 59.82C115.407 58.14 115.14 56.64 114.594 55.32C114.047 54 113.207 52.96 112.074 52.2C110.954 51.44 109.534 51.06 107.814 51.06H105.934ZM124.768 46.6H129.768V73H124.768V46.6ZM150.522 46.6H155.522V62.88C155.522 65.0533 155.089 66.9333 154.222 68.52C153.369 70.1067 152.162 71.3333 150.602 72.2C149.055 73.0533 147.229 73.48 145.122 73.48C143.002 73.48 141.155 73.0533 139.582 72.2C138.022 71.3333 136.809 70.1067 135.942 68.52C135.089 66.9333 134.662 65.0533 134.662 62.88V46.6H139.642V62.62C139.642 63.9533 139.869 65.0933 140.322 66.04C140.789 66.9733 141.435 67.6867 142.262 68.18C143.089 68.66 144.042 68.9 145.122 68.9C146.189 68.9 147.129 68.66 147.942 68.18C148.755 67.6867 149.389 66.9733 149.842 66.04C150.295 65.0933 150.522 63.9533 150.522 62.62V46.6ZM186.516 46.6V73H181.536V56.1L181.776 52.26L180.876 56.62L175.696 71.12H170.776L165.616 56.62L164.736 52.26L164.956 56.1V73H159.956V46.6H166.876L172.916 65.42L173.236 67.22L173.556 65.42L179.616 46.6H186.516Z" fill="white"/>
<path d="M46.3873 123.88C46.6433 122.877 47.1339 121.8 47.8593 120.648C48.6059 119.496 49.5979 118.419 50.8353 117.416C52.0726 116.413 53.5766 115.592 55.3473 114.952C57.1393 114.312 59.1979 113.992 61.5233 113.992C64.1899 113.992 66.6006 114.483 68.7553 115.464C70.9099 116.445 72.6166 117.843 73.8753 119.656C75.1339 121.448 75.7633 123.581 75.7633 126.056C75.7633 127.4 75.5286 128.637 75.0593 129.768C74.5899 130.899 73.9926 131.848 73.2673 132.616C72.5419 133.363 71.7739 133.864 70.9633 134.12C71.9446 134.269 72.9366 134.76 73.9393 135.592C74.9419 136.424 75.7846 137.523 76.4673 138.888C77.1499 140.232 77.4913 141.821 77.4913 143.656C77.4913 146.408 76.7873 148.851 75.3793 150.984C73.9713 153.096 72.0513 154.76 69.6193 155.976C67.2086 157.171 64.4566 157.768 61.3633 157.768C58.0566 157.768 55.2619 157.192 52.9792 156.04C50.6966 154.867 48.8939 153.427 47.5713 151.72C46.2486 150.013 45.3739 148.381 44.9473 146.824L55.1553 141.8C55.3686 142.717 55.7419 143.677 56.2753 144.68C56.8299 145.661 57.5339 146.493 58.3873 147.176C59.2406 147.859 60.2219 148.2 61.3313 148.2C62.3979 148.2 63.3153 147.997 64.0833 147.592C64.8513 147.165 65.4486 146.589 65.8753 145.864C66.3019 145.117 66.5153 144.253 66.5153 143.272C66.5153 142.269 66.2806 141.437 65.8113 140.776C65.3419 140.115 64.7126 139.613 63.9233 139.272C63.1553 138.931 62.2913 138.76 61.3313 138.76H60.4993V130.952H61.5873C62.3979 130.952 63.1233 130.792 63.7633 130.472C64.4033 130.131 64.9046 129.651 65.2673 129.032C65.6513 128.413 65.8433 127.699 65.8433 126.888C65.8433 125.757 65.4486 124.808 64.6593 124.04C63.8913 123.251 62.8139 122.856 61.4272 122.856C60.4886 122.856 59.6566 123.027 58.9313 123.368C58.2273 123.709 57.6193 124.157 57.1073 124.712C56.6166 125.267 56.2113 125.843 55.8913 126.44C55.5926 127.037 55.3899 127.592 55.2833 128.104L46.3873 123.88ZM80.5568 135.912C80.5568 132.285 81.0261 129.107 81.9648 126.376C82.9034 123.624 84.1941 121.331 85.8368 119.496C87.5008 117.661 89.3888 116.285 91.5008 115.368C93.6128 114.451 95.8421 113.992 98.1888 113.992C100.578 113.992 102.829 114.451 104.941 115.368C107.053 116.285 108.919 117.661 110.541 119.496C112.183 121.331 113.474 123.624 114.413 126.376C115.351 129.107 115.821 132.285 115.821 135.912C115.821 139.859 115.351 143.219 114.413 145.992C113.474 148.765 112.183 151.016 110.541 152.744C108.919 154.472 107.053 155.741 104.941 156.552C102.829 157.363 100.578 157.768 98.1888 157.768C95.8421 157.768 93.6128 157.363 91.5008 156.552C89.3888 155.741 87.5008 154.472 85.8368 152.744C84.1941 151.016 82.9034 148.765 81.9648 145.992C81.0261 143.219 80.5568 139.859 80.5568 135.912ZM91.6928 135.912C91.6928 138.685 91.9381 140.968 92.4288 142.76C92.9408 144.531 93.6768 145.853 94.6368 146.728C95.5968 147.581 96.7808 148.008 98.1888 148.008C99.6181 148.008 100.813 147.581 101.773 146.728C102.733 145.853 103.447 144.52 103.917 142.728C104.407 140.936 104.653 138.664 104.653 135.912C104.653 133.373 104.407 131.208 103.917 129.416C103.447 127.603 102.733 126.205 101.773 125.224C100.813 124.243 99.6181 123.752 98.1888 123.752C96.7808 123.752 95.5968 124.243 94.6368 125.224C93.6768 126.205 92.9408 127.603 92.4288 129.416C91.9381 131.229 91.6928 133.395 91.6928 135.912ZM138.454 147.24V137.64H154.934V147.24H138.454ZM186.931 144.136C187.145 144.797 187.411 145.405 187.731 145.96C188.051 146.493 188.435 146.952 188.883 147.336C189.353 147.72 189.897 148.019 190.515 148.232C191.134 148.424 191.849 148.52 192.659 148.52C194.323 148.52 195.603 147.997 196.499 146.952C197.395 145.885 197.843 144.52 197.843 142.856C197.843 141.235 197.406 139.955 196.531 139.016C195.657 138.056 194.43 137.576 192.851 137.576C191.849 137.576 190.974 137.757 190.227 138.12C189.502 138.461 188.915 138.856 188.467 139.304C188.019 139.752 187.71 140.157 187.539 140.52L178.419 137.16L182.227 114.76H206.995V124.392H191.539L190.451 130.344C190.579 130.216 190.91 130.035 191.443 129.8C191.977 129.544 192.659 129.32 193.491 129.128C194.345 128.915 195.262 128.808 196.243 128.808C198.313 128.808 200.318 129.267 202.259 130.184C204.222 131.08 205.843 132.52 207.123 134.504C208.403 136.467 209.043 139.027 209.043 142.184C209.065 145.384 208.371 148.157 206.963 150.504C205.555 152.829 203.646 154.621 201.235 155.88C198.846 157.139 196.137 157.768 193.107 157.768C190.803 157.768 188.766 157.501 186.995 156.968C185.225 156.413 183.71 155.688 182.451 154.792C181.193 153.896 180.147 152.883 179.315 151.752C178.483 150.6 177.843 149.427 177.395 148.232L186.931 144.136ZM212.494 135.912C212.494 132.285 212.964 129.107 213.902 126.376C214.841 123.624 216.132 121.331 217.774 119.496C219.438 117.661 221.326 116.285 223.438 115.368C225.55 114.451 227.78 113.992 230.126 113.992C232.516 113.992 234.766 114.451 236.878 115.368C238.99 116.285 240.857 117.661 242.478 119.496C244.121 121.331 245.412 123.624 246.35 126.376C247.289 129.107 247.758 132.285 247.758 135.912C247.758 139.859 247.289 143.219 246.35 145.992C245.412 148.765 244.121 151.016 242.478 152.744C240.857 154.472 238.99 155.741 236.878 156.552C234.766 157.363 232.516 157.768 230.126 157.768C227.78 157.768 225.55 157.363 223.438 156.552C221.326 155.741 219.438 154.472 217.774 152.744C216.132 151.016 214.841 148.765 213.902 145.992C212.964 143.219 212.494 139.859 212.494 135.912ZM223.63 135.912C223.63 138.685 223.876 140.968 224.366 142.76C224.878 144.531 225.614 145.853 226.574 146.728C227.534 147.581 228.718 148.008 230.126 148.008C231.556 148.008 232.75 147.581 233.71 146.728C234.67 145.853 235.385 144.52 235.854 142.728C236.345 140.936 236.59 138.664 236.59 135.912C236.59 133.373 236.345 131.208 235.854 129.416C235.385 127.603 234.67 126.205 233.71 125.224C232.75 124.243 231.556 123.752 230.126 123.752C228.718 123.752 227.534 124.243 226.574 125.224C225.614 126.205 224.878 127.603 224.366 129.416C223.876 131.229 223.63 133.395 223.63 135.912ZM271.832 134.984L287.384 157H274.136L262.2 138.92V157H251.064V114.76H262.2V131.272L273.08 114.76H285.624L271.832 134.984Z" fill="white"/>
<path d="M47.7377 84.16H56.7617V85.42H49.0697V91.432H56.5697V92.68H49.0697V98.74H56.7617V100H47.7377V84.16ZM63.4819 89.86C63.9379 89.86 64.3659 89.912 64.7659 90.016C65.1739 90.112 65.5299 90.236 65.8339 90.388C66.1379 90.532 66.3659 90.664 66.5179 90.784L65.8579 91.732C65.6899 91.572 65.3979 91.404 64.9819 91.228C64.5659 91.044 64.0979 90.952 63.5779 90.952C62.9379 90.952 62.3899 91.084 61.9339 91.348C61.4859 91.612 61.2619 91.996 61.2619 92.5C61.2619 92.988 61.4899 93.376 61.9459 93.664C62.4019 93.952 63.0019 94.188 63.7459 94.372C64.3139 94.516 64.8299 94.696 65.2939 94.912C65.7659 95.128 66.1419 95.424 66.4219 95.8C66.7019 96.168 66.8419 96.66 66.8419 97.276C66.8419 97.804 66.7339 98.26 66.5179 98.644C66.3019 99.02 66.0059 99.328 65.6299 99.568C65.2619 99.808 64.8419 99.988 64.3699 100.108C63.8979 100.228 63.4019 100.288 62.8819 100.288C62.3459 100.288 61.8499 100.228 61.3939 100.108C60.9379 99.988 60.5459 99.844 60.2179 99.676C59.8979 99.508 59.6539 99.352 59.4859 99.208L60.1699 98.14C60.3779 98.356 60.7179 98.58 61.1899 98.812C61.6699 99.036 62.2299 99.148 62.8699 99.148C63.6139 99.148 64.2259 98.976 64.7059 98.632C65.1939 98.288 65.4379 97.836 65.4379 97.276C65.4379 96.868 65.3219 96.54 65.0899 96.292C64.8579 96.044 64.5539 95.848 64.1779 95.704C63.8019 95.552 63.4019 95.424 62.9779 95.32C62.5699 95.216 62.1779 95.092 61.8019 94.948C61.4339 94.796 61.1059 94.608 60.8179 94.384C60.5299 94.16 60.3019 93.892 60.1339 93.58C59.9739 93.26 59.8939 92.888 59.8939 92.464C59.8939 91.936 60.0579 91.48 60.3859 91.096C60.7139 90.704 61.1499 90.4 61.6939 90.184C62.2459 89.968 62.8419 89.86 63.4819 89.86ZM68.4814 90.148H70.5334V86.104H71.8894V90.148H74.5774V91.384H71.8894V97.228C71.8894 97.884 72.0094 98.352 72.2494 98.632C72.4894 98.912 72.7894 99.052 73.1494 99.052C73.4934 99.052 73.7534 98.992 73.9294 98.872C74.1054 98.752 74.2094 98.672 74.2414 98.632L74.8774 99.676C74.8294 99.716 74.7214 99.788 74.5534 99.892C74.3854 99.988 74.1654 100.076 73.8934 100.156C73.6214 100.244 73.2934 100.288 72.9094 100.288C72.2454 100.288 71.6814 100.076 71.2174 99.652C70.7614 99.22 70.5334 98.532 70.5334 97.588V91.384H68.4814V90.148ZM77.1912 100V90.148H78.5472V100H77.1912ZM77.8872 86.152C77.5992 86.152 77.3512 86.052 77.1432 85.852C76.9432 85.644 76.8432 85.396 76.8432 85.108C76.8432 84.812 76.9472 84.564 77.1552 84.364C77.3632 84.156 77.6072 84.052 77.8872 84.052C78.0792 84.052 78.2552 84.1 78.4152 84.196C78.5832 84.292 78.7152 84.42 78.8112 84.58C78.9152 84.732 78.9672 84.908 78.9672 85.108C78.9672 85.396 78.8592 85.644 78.6432 85.852C78.4352 86.052 78.1832 86.152 77.8872 86.152ZM93.0874 89.86C93.8154 89.86 94.4274 90.02 94.9234 90.34C95.4194 90.66 95.7914 91.148 96.0394 91.804C96.2954 92.452 96.4234 93.28 96.4234 94.288V100H95.0674V94.648C95.0674 93.408 94.8994 92.496 94.5634 91.912C94.2274 91.328 93.6274 91.036 92.7634 91.036C92.3234 91.036 91.8874 91.16 91.4554 91.408C91.0314 91.648 90.6794 92.032 90.3994 92.56C90.1194 93.088 89.9794 93.784 89.9794 94.648V100H88.6714V94.648C88.6714 93.408 88.4554 92.496 88.0234 91.912C87.5914 91.328 87.0234 91.036 86.3194 91.036C85.8714 91.036 85.4354 91.152 85.0114 91.384C84.5954 91.616 84.2514 92 83.9794 92.536C83.7154 93.064 83.5834 93.768 83.5834 94.648V100H82.2274V90.148H83.5834V91.708C83.6634 91.46 83.8434 91.192 84.1234 90.904C84.4114 90.616 84.7794 90.372 85.2274 90.172C85.6754 89.964 86.1874 89.86 86.7634 89.86C87.3714 89.86 87.8754 89.996 88.2754 90.268C88.6754 90.54 88.9874 90.864 89.2114 91.24C89.4354 91.616 89.5754 91.96 89.6314 92.272C89.7514 91.896 89.9674 91.524 90.2794 91.156C90.5914 90.788 90.9874 90.48 91.4674 90.232C91.9474 89.984 92.4874 89.86 93.0874 89.86ZM107.69 100V97.936C107.634 98.152 107.446 98.448 107.126 98.824C106.814 99.2 106.378 99.54 105.818 99.844C105.266 100.14 104.61 100.288 103.85 100.288C102.962 100.288 102.142 100.084 101.39 99.676C100.646 99.26 100.046 98.664 99.5895 97.888C99.1415 97.104 98.9175 96.168 98.9175 95.08C98.9175 93.992 99.1415 93.06 99.5895 92.284C100.046 91.5 100.646 90.9 101.39 90.484C102.142 90.068 102.962 89.86 103.85 89.86C104.61 89.86 105.266 90.004 105.818 90.292C106.37 90.572 106.806 90.896 107.126 91.264C107.454 91.632 107.638 91.94 107.678 92.188V90.148H109.022V100H107.69ZM100.274 95.08C100.274 95.912 100.454 96.628 100.814 97.228C101.174 97.828 101.638 98.288 102.206 98.608C102.782 98.928 103.386 99.088 104.018 99.088C104.714 99.088 105.334 98.924 105.878 98.596C106.422 98.268 106.85 97.804 107.162 97.204C107.482 96.604 107.642 95.896 107.642 95.08C107.642 94.264 107.482 93.556 107.162 92.956C106.85 92.356 106.422 91.892 105.878 91.564C105.334 91.228 104.714 91.06 104.018 91.06C103.386 91.06 102.782 91.224 102.206 91.552C101.638 91.872 101.174 92.332 100.814 92.932C100.454 93.532 100.274 94.248 100.274 95.08ZM115.396 89.86C115.852 89.86 116.28 89.912 116.68 90.016C117.088 90.112 117.444 90.236 117.748 90.388C118.052 90.532 118.28 90.664 118.432 90.784L117.772 91.732C117.604 91.572 117.312 91.404 116.896 91.228C116.48 91.044 116.012 90.952 115.492 90.952C114.852 90.952 114.304 91.084 113.848 91.348C113.4 91.612 113.176 91.996 113.176 92.5C113.176 92.988 113.404 93.376 113.86 93.664C114.316 93.952 114.916 94.188 115.66 94.372C116.228 94.516 116.744 94.696 117.208 94.912C117.68 95.128 118.056 95.424 118.336 95.8C118.616 96.168 118.756 96.66 118.756 97.276C118.756 97.804 118.648 98.26 118.432 98.644C118.216 99.02 117.92 99.328 117.544 99.568C117.176 99.808 116.756 99.988 116.284 100.108C115.812 100.228 115.316 100.288 114.796 100.288C114.26 100.288 113.764 100.228 113.308 100.108C112.852 99.988 112.46 99.844 112.132 99.676C111.812 99.508 111.568 99.352 111.4 99.208L112.084 98.14C112.292 98.356 112.632 98.58 113.104 98.812C113.584 99.036 114.144 99.148 114.784 99.148C115.528 99.148 116.14 98.976 116.62 98.632C117.108 98.288 117.352 97.836 117.352 97.276C117.352 96.868 117.236 96.54 117.004 96.292C116.772 96.044 116.468 95.848 116.092 95.704C115.716 95.552 115.316 95.424 114.892 95.32C114.484 95.216 114.092 95.092 113.716 94.948C113.348 94.796 113.02 94.608 112.732 94.384C112.444 94.16 112.216 93.892 112.048 93.58C111.888 93.26 111.808 92.888 111.808 92.464C111.808 91.936 111.972 91.48 112.3 91.096C112.628 90.704 113.064 90.4 113.608 90.184C114.16 89.968 114.756 89.86 115.396 89.86ZM121.676 100V90.148H123.032V100H121.676ZM122.372 86.152C122.084 86.152 121.836 86.052 121.628 85.852C121.428 85.644 121.328 85.396 121.328 85.108C121.328 84.812 121.432 84.564 121.64 84.364C121.848 84.156 122.092 84.052 122.372 84.052C122.564 84.052 122.74 84.1 122.9 84.196C123.068 84.292 123.2 84.42 123.296 84.58C123.4 84.732 123.452 84.908 123.452 85.108C123.452 85.396 123.344 85.644 123.128 85.852C122.92 86.052 122.668 86.152 122.372 86.152ZM128.176 100.288C127.8 100.288 127.48 100.156 127.216 99.892C126.96 99.628 126.832 99.312 126.832 98.944C126.832 98.56 126.96 98.236 127.216 97.972C127.48 97.708 127.8 97.576 128.176 97.576C128.552 97.576 128.872 97.708 129.136 97.972C129.4 98.236 129.532 98.56 129.532 98.944C129.532 99.312 129.4 99.628 129.136 99.892C128.872 100.156 128.552 100.288 128.176 100.288ZM128.176 92.38C127.8 92.38 127.48 92.248 127.216 91.984C126.96 91.72 126.832 91.404 126.832 91.036C126.832 90.652 126.96 90.328 127.216 90.064C127.48 89.8 127.8 89.668 128.176 89.668C128.552 89.668 128.872 89.8 129.136 90.064C129.4 90.328 129.532 90.652 129.532 91.036C129.532 91.404 129.4 91.72 129.136 91.984C128.872 92.248 128.552 92.38 128.176 92.38ZM138.307 86.392C138.347 86.264 138.459 86.064 138.643 85.792C138.835 85.52 139.107 85.24 139.459 84.952C139.819 84.656 140.275 84.404 140.827 84.196C141.387 83.98 142.051 83.872 142.819 83.872C143.835 83.872 144.687 84.06 145.375 84.436C146.063 84.812 146.579 85.312 146.923 85.936C147.275 86.56 147.451 87.256 147.451 88.024C147.451 88.672 147.319 89.256 147.055 89.776C146.791 90.296 146.451 90.72 146.035 91.048C145.619 91.368 145.175 91.56 144.703 91.624C145.183 91.664 145.667 91.84 146.155 92.152C146.651 92.464 147.063 92.9 147.391 93.46C147.727 94.012 147.895 94.68 147.895 95.464C147.895 96.368 147.679 97.188 147.247 97.924C146.823 98.652 146.227 99.228 145.459 99.652C144.699 100.076 143.803 100.288 142.771 100.288C141.803 100.288 140.975 100.124 140.287 99.796C139.599 99.468 139.043 99.068 138.619 98.596C138.203 98.124 137.915 97.668 137.755 97.228L138.991 96.556C139.119 96.908 139.339 97.276 139.651 97.66C139.971 98.044 140.391 98.372 140.911 98.644C141.431 98.908 142.043 99.04 142.747 99.04C143.555 99.04 144.239 98.876 144.799 98.548C145.359 98.22 145.783 97.784 146.071 97.24C146.359 96.696 146.503 96.096 146.503 95.44C146.503 94.696 146.323 94.092 145.963 93.628C145.611 93.164 145.151 92.82 144.583 92.596C144.015 92.372 143.403 92.26 142.747 92.26H142.435V91.132H142.843C143.419 91.132 143.959 91.012 144.463 90.772C144.975 90.532 145.387 90.188 145.699 89.74C146.011 89.284 146.167 88.736 146.167 88.096C146.167 87.256 145.887 86.544 145.327 85.96C144.775 85.376 143.927 85.084 142.783 85.084C142.175 85.084 141.663 85.172 141.247 85.348C140.831 85.516 140.499 85.716 140.251 85.948C140.003 86.18 139.819 86.396 139.699 86.596C139.587 86.788 139.527 86.904 139.519 86.944L138.307 86.392ZM156.391 95.14V93.928H162.571V95.14H156.391ZM171.628 84.16H181.324V85.216L172.912 100H171.376L179.716 85.42H171.628V84.16ZM189.532 84.16H192.796C194.484 84.16 195.868 84.5 196.948 85.18C198.028 85.852 198.824 86.784 199.336 87.976C199.856 89.168 200.116 90.532 200.116 92.068C200.116 93.612 199.86 94.98 199.348 96.172C198.836 97.364 198.04 98.3 196.96 98.98C195.88 99.66 194.492 100 192.796 100H189.532V84.16ZM190.864 85.432V98.728H192.688C194.096 98.728 195.24 98.444 196.12 97.876C197.008 97.308 197.66 96.528 198.076 95.536C198.5 94.536 198.716 93.388 198.724 92.092C198.732 90.796 198.528 89.648 198.112 88.648C197.696 87.648 197.04 86.864 196.144 86.296C195.256 85.72 194.104 85.432 192.688 85.432H190.864ZM210.908 100V97.936C210.852 98.152 210.664 98.448 210.344 98.824C210.032 99.2 209.596 99.54 209.036 99.844C208.484 100.14 207.828 100.288 207.068 100.288C206.18 100.288 205.36 100.084 204.608 99.676C203.864 99.26 203.264 98.664 202.808 97.888C202.36 97.104 202.136 96.168 202.136 95.08C202.136 93.992 202.36 93.06 202.808 92.284C203.264 91.5 203.864 90.9 204.608 90.484C205.36 90.068 206.18 89.86 207.068 89.86C207.828 89.86 208.484 90.004 209.036 90.292C209.588 90.572 210.024 90.896 210.344 91.264C210.672 91.632 210.856 91.94 210.896 92.188V90.148H212.24V100H210.908ZM203.492 95.08C203.492 95.912 203.672 96.628 204.032 97.228C204.392 97.828 204.856 98.288 205.424 98.608C206 98.928 206.604 99.088 207.236 99.088C207.932 99.088 208.552 98.924 209.096 98.596C209.64 98.268 210.068 97.804 210.38 97.204C210.7 96.604 210.86 95.896 210.86 95.08C210.86 94.264 210.7 93.556 210.38 92.956C210.068 92.356 209.64 91.892 209.096 91.564C208.552 91.228 207.932 91.06 207.236 91.06C206.604 91.06 206 91.224 205.424 91.552C204.856 91.872 204.392 92.332 204.032 92.932C203.672 93.532 203.492 94.248 203.492 95.08ZM218.951 98.68L222.575 90.148H223.991L217.391 104.992H215.975L218.207 100L214.163 90.148H215.591L218.951 98.68ZM229.115 89.86C229.571 89.86 229.999 89.912 230.399 90.016C230.807 90.112 231.163 90.236 231.467 90.388C231.771 90.532 231.999 90.664 232.151 90.784L231.491 91.732C231.323 91.572 231.031 91.404 230.615 91.228C230.199 91.044 229.731 90.952 229.211 90.952C228.571 90.952 228.023 91.084 227.567 91.348C227.119 91.612 226.895 91.996 226.895 92.5C226.895 92.988 227.123 93.376 227.579 93.664C228.035 93.952 228.635 94.188 229.379 94.372C229.947 94.516 230.463 94.696 230.927 94.912C231.399 95.128 231.775 95.424 232.055 95.8C232.335 96.168 232.475 96.66 232.475 97.276C232.475 97.804 232.367 98.26 232.151 98.644C231.935 99.02 231.639 99.328 231.263 99.568C230.895 99.808 230.475 99.988 230.003 100.108C229.531 100.228 229.035 100.288 228.515 100.288C227.979 100.288 227.483 100.228 227.027 100.108C226.571 99.988 226.179 99.844 225.851 99.676C225.531 99.508 225.287 99.352 225.119 99.208L225.803 98.14C226.011 98.356 226.351 98.58 226.823 98.812C227.303 99.036 227.863 99.148 228.503 99.148C229.247 99.148 229.859 98.976 230.339 98.632C230.827 98.288 231.071 97.836 231.071 97.276C231.071 96.868 230.955 96.54 230.723 96.292C230.491 96.044 230.187 95.848 229.811 95.704C229.435 95.552 229.035 95.424 228.611 95.32C228.203 95.216 227.811 95.092 227.435 94.948C227.067 94.796 226.739 94.608 226.451 94.384C226.163 94.16 225.935 93.892 225.767 93.58C225.607 93.26 225.527 92.888 225.527 92.464C225.527 91.936 225.691 91.48 226.019 91.096C226.347 90.704 226.783 90.4 227.327 90.184C227.879 89.968 228.475 89.86 229.115 89.86Z" fill="white"/>
<line x1="411.325" y1="98.502" x2="430.05" y2="115.066" stroke="#4C3BCF" stroke-width="4"/>
<line y1="-2" x2="25" y2="-2" transform="matrix(0.748997 -0.662574 -0.662574 -0.748997 410 128.564)" stroke="#4C3BCF" stroke-width="4"/>
<defs>
<filter id="filter0_d_142_116" x="0" y="0" width="479" height="238" filterUnits="userSpaceOnUse" color-interpolation-filters="sRGB">
<feFlood flood-opacity="0" result="BackgroundImageFix"/>
<feColorMatrix in="SourceAlpha" type="matrix" values="0 0 0 0 0 0 0 0 0 0 0 0 0 0 0 0 0 0 127 0" result="hardAlpha"/>
<feOffset dx="5" dy="5"/>
<feGaussianBlur stdDeviation="10"/>
<feComposite in2="hardAlpha" operator="out"/>
<feColorMatrix type="matrix" values="0 0 0 0 0 0 0 0 0 0 0 0 0 0 0 0 0 0 0.5 0"/>
<feBlend mode="normal" in2="BackgroundImageFix" result="effect1_dropShadow_142_116"/>
<feBlend mode="normal" in="SourceGraphic" in2="effect1_dropShadow_142_116" result="shape"/>
</filter>
</defs>
</svg>
