<svg width="479" height="238" viewBox="0 0 479 238" fill="none" xmlns="http://www.w3.org/2000/svg">
<g filter="url(#filter0_d_142_161)">
<rect x="15" y="15" width="439" height="198" rx="25" fill="#4B70F5"/>
</g>
<path d="M388 20H425C438.807 20 450 31.1929 450 45V183C450 196.807 438.807 208 425 208H388V20Z" fill="white"/>
<path d="M72.8444 46.6V73H67.8644V56.1L68.1044 52.26L67.2044 56.62L62.0244 71.12H57.1044L51.9444 56.62L51.0644 52.26L51.2844 56.1V73H46.2844V46.6H53.2044L59.2444 65.42L59.5644 67.22L59.8844 65.42L65.9444 46.6H72.8444ZM78.1669 46.6H83.1669V73H78.1669V46.6ZM88.2003 46.6H95.4803C98.2936 46.6 100.614 47.1667 102.44 48.3C104.28 49.42 105.654 50.9733 106.56 52.96C107.467 54.9467 107.92 57.22 107.92 59.78C107.92 62.3533 107.467 64.6333 106.56 66.62C105.654 68.6067 104.28 70.1667 102.44 71.3C100.614 72.4333 98.2936 73 95.4803 73H88.2003V46.6ZM93.1603 51.06V68.54H95.0403C96.7603 68.54 98.1736 68.1667 99.2803 67.42C100.4 66.66 101.234 65.62 101.78 64.3C102.34 62.98 102.62 61.4867 102.62 59.82C102.634 58.14 102.367 56.64 101.82 55.32C101.274 54 100.434 52.96 99.3003 52.2C98.1803 51.44 96.7603 51.06 95.0403 51.06H93.1603ZM120.835 46.12C122.422 46.12 123.802 46.3 124.975 46.66C126.162 47.0067 127.102 47.38 127.795 47.78C128.502 48.18 128.928 48.44 129.075 48.56L126.635 52.62C126.422 52.4467 126.055 52.2067 125.535 51.9C125.028 51.58 124.415 51.3 123.695 51.06C122.975 50.8067 122.195 50.68 121.355 50.68C120.142 50.68 119.168 50.9133 118.435 51.38C117.715 51.8333 117.355 52.4933 117.355 53.36C117.355 53.9467 117.548 54.4733 117.935 54.94C118.322 55.3933 118.888 55.82 119.635 56.22C120.395 56.62 121.322 57.04 122.415 57.48C123.375 57.8533 124.288 58.2867 125.155 58.78C126.035 59.2733 126.815 59.8533 127.495 60.52C128.188 61.1867 128.735 61.96 129.135 62.84C129.548 63.72 129.755 64.7267 129.755 65.86C129.755 67.1267 129.495 68.2333 128.975 69.18C128.468 70.1267 127.762 70.92 126.855 71.56C125.962 72.2 124.935 72.68 123.775 73C122.615 73.32 121.395 73.48 120.115 73.48C118.382 73.48 116.822 73.28 115.435 72.88C114.062 72.4667 112.948 72.0267 112.095 71.56C111.242 71.0933 110.742 70.7933 110.595 70.66L113.155 66.44C113.315 66.56 113.615 66.7533 114.055 67.02C114.508 67.2867 115.055 67.56 115.695 67.84C116.348 68.12 117.055 68.36 117.815 68.56C118.588 68.76 119.375 68.86 120.175 68.86C121.615 68.86 122.702 68.56 123.435 67.96C124.168 67.36 124.535 66.58 124.535 65.62C124.535 64.9 124.302 64.2667 123.835 63.72C123.368 63.1733 122.708 62.6733 121.855 62.22C121.015 61.7533 120.008 61.28 118.835 60.8C117.662 60.3067 116.568 59.7333 115.555 59.08C114.555 58.4133 113.748 57.6 113.135 56.64C112.522 55.6667 112.215 54.4733 112.215 53.06C112.215 51.66 112.608 50.44 113.395 49.4C114.195 48.36 115.248 47.5533 116.555 46.98C117.875 46.4067 119.302 46.12 120.835 46.12ZM137.829 59.78C137.829 61.46 138.176 62.98 138.869 64.34C139.576 65.7 140.542 66.78 141.769 67.58C142.996 68.3667 144.416 68.76 146.029 68.76C147.642 68.76 149.062 68.3667 150.289 67.58C151.529 66.78 152.496 65.7 153.189 64.34C153.882 62.98 154.229 61.46 154.229 59.78C154.229 58.1 153.882 56.5867 153.189 55.24C152.496 53.88 151.529 52.8 150.289 52C149.062 51.2 147.642 50.8 146.029 50.8C144.416 50.8 142.996 51.2 141.769 52C140.542 52.8 139.576 53.88 138.869 55.24C138.176 56.5867 137.829 58.1 137.829 59.78ZM132.629 59.78C132.629 57.86 132.962 56.0733 133.629 54.42C134.309 52.7533 135.256 51.3 136.469 50.06C137.682 48.82 139.102 47.8533 140.729 47.16C142.369 46.4667 144.136 46.12 146.029 46.12C147.949 46.12 149.722 46.4667 151.349 47.16C152.976 47.8533 154.389 48.82 155.589 50.06C156.802 51.3 157.742 52.7533 158.409 54.42C159.076 56.0733 159.409 57.86 159.409 59.78C159.409 61.7133 159.082 63.5133 158.429 65.18C157.776 66.8333 156.849 68.2867 155.649 69.54C154.449 70.78 153.036 71.7467 151.409 72.44C149.782 73.1333 147.989 73.48 146.029 73.48C144.042 73.48 142.229 73.1333 140.589 72.44C138.962 71.7467 137.549 70.78 136.349 69.54C135.162 68.2867 134.242 66.8333 133.589 65.18C132.949 63.5133 132.629 61.7133 132.629 59.78ZM163.124 46.6H168.124V68.58H178.024V73H163.124V46.6ZM182.146 46.6H198.526V51.02H187.106V57.62H198.366V61.9H187.106V68.58H198.526V73H182.146V46.6Z" fill="white"/>
<path d="M59.135 157.768C56.319 157.768 53.695 157.235 51.263 156.168C48.831 155.101 46.8577 153.629 45.343 151.752C43.8283 149.853 43.071 147.667 43.071 145.192C43.071 143.272 43.3803 141.619 43.999 140.232C44.639 138.845 45.5137 137.672 46.623 136.712C47.7323 135.731 48.9803 134.899 50.367 134.216C49.3003 133.576 48.351 132.861 47.519 132.072C46.687 131.261 46.0363 130.312 45.567 129.224C45.0977 128.115 44.863 126.76 44.863 125.16C44.863 122.856 45.503 120.872 46.783 119.208C48.0843 117.544 49.8123 116.264 51.967 115.368C54.1217 114.451 56.4897 113.992 59.071 113.992C61.7163 113.992 64.095 114.451 66.207 115.368C68.3403 116.264 70.0257 117.544 71.263 119.208C72.5003 120.872 73.119 122.856 73.119 125.16C73.119 127.549 72.6177 129.416 71.615 130.76C70.6337 132.083 69.3643 133.235 67.807 134.216C69.1937 134.899 70.431 135.731 71.519 136.712C72.6283 137.672 73.503 138.845 74.143 140.232C74.783 141.619 75.103 143.272 75.103 145.192C75.103 147.667 74.3563 149.853 72.863 151.752C71.3697 153.629 69.407 155.101 66.975 156.168C64.543 157.235 61.9297 157.768 59.135 157.768ZM59.071 148.136C59.903 148.136 60.6497 147.944 61.311 147.56C61.9937 147.155 62.5377 146.611 62.943 145.928C63.3483 145.245 63.551 144.499 63.551 143.688C63.551 142.877 63.3483 142.131 62.943 141.448C62.5377 140.765 61.9937 140.232 61.311 139.848C60.6497 139.443 59.903 139.24 59.071 139.24C58.2603 139.24 57.5137 139.443 56.831 139.848C56.1697 140.253 55.6363 140.797 55.231 141.48C54.8257 142.141 54.623 142.877 54.623 143.688C54.623 144.499 54.8257 145.245 55.231 145.928C55.6363 146.589 56.1697 147.123 56.831 147.528C57.5137 147.933 58.2603 148.136 59.071 148.136ZM59.135 130.792C59.8817 130.792 60.5643 130.611 61.183 130.248C61.8017 129.864 62.2923 129.352 62.655 128.712C63.039 128.072 63.231 127.379 63.231 126.632C63.231 125.864 63.039 125.171 62.655 124.552C62.2923 123.933 61.8017 123.443 61.183 123.08C60.5643 122.696 59.8817 122.504 59.135 122.504C58.367 122.504 57.663 122.696 57.023 123.08C56.4043 123.443 55.903 123.933 55.519 124.552C55.1563 125.171 54.975 125.864 54.975 126.632C54.975 127.379 55.1563 128.072 55.519 128.712C55.903 129.331 56.4043 129.832 57.023 130.216C57.663 130.6 58.367 130.792 59.135 130.792ZM78.6505 135.912C78.6505 132.285 79.1198 129.107 80.0585 126.376C80.9972 123.624 82.2878 121.331 83.9305 119.496C85.5945 117.661 87.4825 116.285 89.5945 115.368C91.7065 114.451 93.9358 113.992 96.2825 113.992C98.6718 113.992 100.923 114.451 103.035 115.368C105.147 116.285 107.013 117.661 108.635 119.496C110.277 121.331 111.568 123.624 112.507 126.376C113.445 129.107 113.915 132.285 113.915 135.912C113.915 139.859 113.445 143.219 112.507 145.992C111.568 148.765 110.277 151.016 108.635 152.744C107.013 154.472 105.147 155.741 103.035 156.552C100.923 157.363 98.6718 157.768 96.2825 157.768C93.9358 157.768 91.7065 157.363 89.5945 156.552C87.4825 155.741 85.5945 154.472 83.9305 152.744C82.2878 151.016 80.9972 148.765 80.0585 145.992C79.1198 143.219 78.6505 139.859 78.6505 135.912ZM89.7865 135.912C89.7865 138.685 90.0318 140.968 90.5225 142.76C91.0345 144.531 91.7705 145.853 92.7305 146.728C93.6905 147.581 94.8745 148.008 96.2825 148.008C97.7118 148.008 98.9065 147.581 99.8665 146.728C100.827 145.853 101.541 144.52 102.011 142.728C102.501 140.936 102.747 138.664 102.747 135.912C102.747 133.373 102.501 131.208 102.011 129.416C101.541 127.603 100.827 126.205 99.8665 125.224C98.9065 124.243 97.7118 123.752 96.2825 123.752C94.8745 123.752 93.6905 124.243 92.7305 125.224C91.7705 126.205 91.0345 127.603 90.5225 129.416C90.0318 131.229 89.7865 133.395 89.7865 135.912ZM137.989 134.984L153.541 157H140.293L128.357 138.92V157H117.221V114.76H128.357V131.272L139.237 114.76H151.781L137.989 134.984Z" fill="white"/>
<path d="M46.5502 84.16H55.5742V85.42H47.8822V91.432H55.3822V92.68H47.8822V98.74H55.5742V100H46.5502V84.16ZM62.2944 89.86C62.7504 89.86 63.1784 89.912 63.5784 90.016C63.9864 90.112 64.3424 90.236 64.6464 90.388C64.9504 90.532 65.1784 90.664 65.3304 90.784L64.6704 91.732C64.5024 91.572 64.2104 91.404 63.7944 91.228C63.3784 91.044 62.9104 90.952 62.3904 90.952C61.7504 90.952 61.2024 91.084 60.7464 91.348C60.2984 91.612 60.0744 91.996 60.0744 92.5C60.0744 92.988 60.3024 93.376 60.7584 93.664C61.2144 93.952 61.8144 94.188 62.5584 94.372C63.1264 94.516 63.6424 94.696 64.1064 94.912C64.5784 95.128 64.9544 95.424 65.2344 95.8C65.5144 96.168 65.6544 96.66 65.6544 97.276C65.6544 97.804 65.5464 98.26 65.3304 98.644C65.1144 99.02 64.8184 99.328 64.4424 99.568C64.0744 99.808 63.6544 99.988 63.1824 100.108C62.7104 100.228 62.2144 100.288 61.6944 100.288C61.1584 100.288 60.6624 100.228 60.2064 100.108C59.7504 99.988 59.3584 99.844 59.0304 99.676C58.7104 99.508 58.4664 99.352 58.2984 99.208L58.9824 98.14C59.1904 98.356 59.5304 98.58 60.0024 98.812C60.4824 99.036 61.0424 99.148 61.6824 99.148C62.4264 99.148 63.0384 98.976 63.5184 98.632C64.0064 98.288 64.2504 97.836 64.2504 97.276C64.2504 96.868 64.1344 96.54 63.9024 96.292C63.6704 96.044 63.3664 95.848 62.9904 95.704C62.6144 95.552 62.2144 95.424 61.7904 95.32C61.3824 95.216 60.9904 95.092 60.6144 94.948C60.2464 94.796 59.9184 94.608 59.6304 94.384C59.3424 94.16 59.1144 93.892 58.9464 93.58C58.7864 93.26 58.7064 92.888 58.7064 92.464C58.7064 91.936 58.8704 91.48 59.1984 91.096C59.5264 90.704 59.9624 90.4 60.5064 90.184C61.0584 89.968 61.6544 89.86 62.2944 89.86ZM67.2939 90.148H69.3459V86.104H70.7019V90.148H73.3899V91.384H70.7019V97.228C70.7019 97.884 70.8219 98.352 71.0619 98.632C71.3019 98.912 71.6019 99.052 71.9619 99.052C72.3059 99.052 72.5659 98.992 72.7419 98.872C72.9179 98.752 73.0219 98.672 73.0539 98.632L73.6899 99.676C73.6419 99.716 73.5339 99.788 73.3659 99.892C73.1979 99.988 72.9779 100.076 72.7059 100.156C72.4339 100.244 72.1059 100.288 71.7219 100.288C71.0579 100.288 70.4939 100.076 70.0299 99.652C69.5739 99.22 69.3459 98.532 69.3459 97.588V91.384H67.2939V90.148ZM76.0037 100V90.148H77.3597V100H76.0037ZM76.6997 86.152C76.4117 86.152 76.1637 86.052 75.9557 85.852C75.7557 85.644 75.6557 85.396 75.6557 85.108C75.6557 84.812 75.7597 84.564 75.9677 84.364C76.1757 84.156 76.4197 84.052 76.6997 84.052C76.8917 84.052 77.0677 84.1 77.2277 84.196C77.3957 84.292 77.5277 84.42 77.6237 84.58C77.7277 84.732 77.7797 84.908 77.7797 85.108C77.7797 85.396 77.6717 85.644 77.4557 85.852C77.2477 86.052 76.9957 86.152 76.6997 86.152ZM91.8999 89.86C92.6279 89.86 93.2399 90.02 93.7359 90.34C94.2319 90.66 94.6039 91.148 94.8519 91.804C95.1079 92.452 95.2359 93.28 95.2359 94.288V100H93.8799V94.648C93.8799 93.408 93.7119 92.496 93.3759 91.912C93.0399 91.328 92.4399 91.036 91.5759 91.036C91.1359 91.036 90.6999 91.16 90.2679 91.408C89.8439 91.648 89.4919 92.032 89.2119 92.56C88.9319 93.088 88.7919 93.784 88.7919 94.648V100H87.4839V94.648C87.4839 93.408 87.2679 92.496 86.8359 91.912C86.4039 91.328 85.8359 91.036 85.1319 91.036C84.6839 91.036 84.2479 91.152 83.8239 91.384C83.4079 91.616 83.0639 92 82.7919 92.536C82.5279 93.064 82.3959 93.768 82.3959 94.648V100H81.0399V90.148H82.3959V91.708C82.4759 91.46 82.6559 91.192 82.9359 90.904C83.2239 90.616 83.5919 90.372 84.0399 90.172C84.4879 89.964 84.9999 89.86 85.5759 89.86C86.1839 89.86 86.6879 89.996 87.0879 90.268C87.4879 90.54 87.7999 90.864 88.0239 91.24C88.2479 91.616 88.3879 91.96 88.4439 92.272C88.5639 91.896 88.7799 91.524 89.0919 91.156C89.4039 90.788 89.7999 90.48 90.2799 90.232C90.7599 89.984 91.2999 89.86 91.8999 89.86ZM106.502 100V97.936C106.446 98.152 106.258 98.448 105.938 98.824C105.626 99.2 105.19 99.54 104.63 99.844C104.078 100.14 103.422 100.288 102.662 100.288C101.774 100.288 100.954 100.084 100.202 99.676C99.458 99.26 98.858 98.664 98.402 97.888C97.954 97.104 97.73 96.168 97.73 95.08C97.73 93.992 97.954 93.06 98.402 92.284C98.858 91.5 99.458 90.9 100.202 90.484C100.954 90.068 101.774 89.86 102.662 89.86C103.422 89.86 104.078 90.004 104.63 90.292C105.182 90.572 105.618 90.896 105.938 91.264C106.266 91.632 106.45 91.94 106.49 92.188V90.148H107.834V100H106.502ZM99.086 95.08C99.086 95.912 99.266 96.628 99.626 97.228C99.986 97.828 100.45 98.288 101.018 98.608C101.594 98.928 102.198 99.088 102.83 99.088C103.526 99.088 104.146 98.924 104.69 98.596C105.234 98.268 105.662 97.804 105.974 97.204C106.294 96.604 106.454 95.896 106.454 95.08C106.454 94.264 106.294 93.556 105.974 92.956C105.662 92.356 105.234 91.892 104.69 91.564C104.146 91.228 103.526 91.06 102.83 91.06C102.198 91.06 101.594 91.224 101.018 91.552C100.45 91.872 99.986 92.332 99.626 92.932C99.266 93.532 99.086 94.248 99.086 95.08ZM114.208 89.86C114.664 89.86 115.092 89.912 115.492 90.016C115.9 90.112 116.256 90.236 116.56 90.388C116.864 90.532 117.092 90.664 117.244 90.784L116.584 91.732C116.416 91.572 116.124 91.404 115.708 91.228C115.292 91.044 114.824 90.952 114.304 90.952C113.664 90.952 113.116 91.084 112.66 91.348C112.212 91.612 111.988 91.996 111.988 92.5C111.988 92.988 112.216 93.376 112.672 93.664C113.128 93.952 113.728 94.188 114.472 94.372C115.04 94.516 115.556 94.696 116.02 94.912C116.492 95.128 116.868 95.424 117.148 95.8C117.428 96.168 117.568 96.66 117.568 97.276C117.568 97.804 117.46 98.26 117.244 98.644C117.028 99.02 116.732 99.328 116.356 99.568C115.988 99.808 115.568 99.988 115.096 100.108C114.624 100.228 114.128 100.288 113.608 100.288C113.072 100.288 112.576 100.228 112.12 100.108C111.664 99.988 111.272 99.844 110.944 99.676C110.624 99.508 110.38 99.352 110.212 99.208L110.896 98.14C111.104 98.356 111.444 98.58 111.916 98.812C112.396 99.036 112.956 99.148 113.596 99.148C114.34 99.148 114.952 98.976 115.432 98.632C115.92 98.288 116.164 97.836 116.164 97.276C116.164 96.868 116.048 96.54 115.816 96.292C115.584 96.044 115.28 95.848 114.904 95.704C114.528 95.552 114.128 95.424 113.704 95.32C113.296 95.216 112.904 95.092 112.528 94.948C112.16 94.796 111.832 94.608 111.544 94.384C111.256 94.16 111.028 93.892 110.86 93.58C110.7 93.26 110.62 92.888 110.62 92.464C110.62 91.936 110.784 91.48 111.112 91.096C111.44 90.704 111.876 90.4 112.42 90.184C112.972 89.968 113.568 89.86 114.208 89.86ZM120.488 100V90.148H121.844V100H120.488ZM121.184 86.152C120.896 86.152 120.648 86.052 120.44 85.852C120.24 85.644 120.14 85.396 120.14 85.108C120.14 84.812 120.244 84.564 120.452 84.364C120.66 84.156 120.904 84.052 121.184 84.052C121.376 84.052 121.552 84.1 121.712 84.196C121.88 84.292 122.012 84.42 122.108 84.58C122.212 84.732 122.264 84.908 122.264 85.108C122.264 85.396 122.156 85.644 121.94 85.852C121.732 86.052 121.48 86.152 121.184 86.152ZM126.988 100.288C126.612 100.288 126.292 100.156 126.028 99.892C125.772 99.628 125.644 99.312 125.644 98.944C125.644 98.56 125.772 98.236 126.028 97.972C126.292 97.708 126.612 97.576 126.988 97.576C127.364 97.576 127.684 97.708 127.948 97.972C128.212 98.236 128.344 98.56 128.344 98.944C128.344 99.312 128.212 99.628 127.948 99.892C127.684 100.156 127.364 100.288 126.988 100.288ZM126.988 92.38C126.612 92.38 126.292 92.248 126.028 91.984C125.772 91.72 125.644 91.404 125.644 91.036C125.644 90.652 125.772 90.328 126.028 90.064C126.292 89.8 126.612 89.668 126.988 89.668C127.364 89.668 127.684 89.8 127.948 90.064C128.212 90.328 128.344 90.652 128.344 91.036C128.344 91.404 128.212 91.72 127.948 91.984C127.684 92.248 127.364 92.38 126.988 92.38ZM137.347 84.16H147.043V85.216L138.631 100H137.095L145.435 85.42H137.347V84.16ZM155.203 95.14V93.928H161.383V95.14H155.203ZM172.517 85.792L169.661 87.46V86.104L172.937 84.16H173.873V100H172.517V85.792ZM184.67 84.16V95.404H186.47V96.664H184.67V100H183.314V96.664H176.582V95.488L183.314 84.16H184.67ZM183.314 95.404V86.584L178.094 95.404H183.314ZM194.72 84.16H197.984C199.672 84.16 201.056 84.5 202.136 85.18C203.216 85.852 204.012 86.784 204.524 87.976C205.044 89.168 205.304 90.532 205.304 92.068C205.304 93.612 205.048 94.98 204.536 96.172C204.024 97.364 203.228 98.3 202.148 98.98C201.068 99.66 199.68 100 197.984 100H194.72V84.16ZM196.052 85.432V98.728H197.876C199.284 98.728 200.428 98.444 201.308 97.876C202.196 97.308 202.848 96.528 203.264 95.536C203.688 94.536 203.904 93.388 203.912 92.092C203.92 90.796 203.716 89.648 203.3 88.648C202.884 87.648 202.228 86.864 201.332 86.296C200.444 85.72 199.292 85.432 197.876 85.432H196.052ZM216.096 100V97.936C216.04 98.152 215.852 98.448 215.532 98.824C215.22 99.2 214.784 99.54 214.224 99.844C213.672 100.14 213.016 100.288 212.256 100.288C211.368 100.288 210.548 100.084 209.796 99.676C209.052 99.26 208.452 98.664 207.996 97.888C207.548 97.104 207.324 96.168 207.324 95.08C207.324 93.992 207.548 93.06 207.996 92.284C208.452 91.5 209.052 90.9 209.796 90.484C210.548 90.068 211.368 89.86 212.256 89.86C213.016 89.86 213.672 90.004 214.224 90.292C214.776 90.572 215.212 90.896 215.532 91.264C215.86 91.632 216.044 91.94 216.084 92.188V90.148H217.428V100H216.096ZM208.68 95.08C208.68 95.912 208.86 96.628 209.22 97.228C209.58 97.828 210.044 98.288 210.612 98.608C211.188 98.928 211.792 99.088 212.424 99.088C213.12 99.088 213.74 98.924 214.284 98.596C214.828 98.268 215.256 97.804 215.568 97.204C215.888 96.604 216.048 95.896 216.048 95.08C216.048 94.264 215.888 93.556 215.568 92.956C215.256 92.356 214.828 91.892 214.284 91.564C213.74 91.228 213.12 91.06 212.424 91.06C211.792 91.06 211.188 91.224 210.612 91.552C210.044 91.872 209.58 92.332 209.22 92.932C208.86 93.532 208.68 94.248 208.68 95.08ZM224.138 98.68L227.762 90.148H229.178L222.578 104.992H221.162L223.394 100L219.35 90.148H220.778L224.138 98.68ZM234.302 89.86C234.758 89.86 235.186 89.912 235.586 90.016C235.994 90.112 236.35 90.236 236.654 90.388C236.958 90.532 237.186 90.664 237.338 90.784L236.678 91.732C236.51 91.572 236.218 91.404 235.802 91.228C235.386 91.044 234.918 90.952 234.398 90.952C233.758 90.952 233.21 91.084 232.754 91.348C232.306 91.612 232.082 91.996 232.082 92.5C232.082 92.988 232.31 93.376 232.766 93.664C233.222 93.952 233.822 94.188 234.566 94.372C235.134 94.516 235.65 94.696 236.114 94.912C236.586 95.128 236.962 95.424 237.242 95.8C237.522 96.168 237.662 96.66 237.662 97.276C237.662 97.804 237.554 98.26 237.338 98.644C237.122 99.02 236.826 99.328 236.45 99.568C236.082 99.808 235.662 99.988 235.19 100.108C234.718 100.228 234.222 100.288 233.702 100.288C233.166 100.288 232.67 100.228 232.214 100.108C231.758 99.988 231.366 99.844 231.038 99.676C230.718 99.508 230.474 99.352 230.306 99.208L230.99 98.14C231.198 98.356 231.538 98.58 232.01 98.812C232.49 99.036 233.05 99.148 233.69 99.148C234.434 99.148 235.046 98.976 235.526 98.632C236.014 98.288 236.258 97.836 236.258 97.276C236.258 96.868 236.142 96.54 235.91 96.292C235.678 96.044 235.374 95.848 234.998 95.704C234.622 95.552 234.222 95.424 233.798 95.32C233.39 95.216 232.998 95.092 232.622 94.948C232.254 94.796 231.926 94.608 231.638 94.384C231.35 94.16 231.122 93.892 230.954 93.58C230.794 93.26 230.714 92.888 230.714 92.464C230.714 91.936 230.878 91.48 231.206 91.096C231.534 90.704 231.97 90.4 232.514 90.184C233.066 89.968 233.662 89.86 234.302 89.86Z" fill="white"/>
<line x1="411.325" y1="98.502" x2="430.05" y2="115.066" stroke="#4B70F5" stroke-width="4"/>
<line y1="-2" x2="25" y2="-2" transform="matrix(0.748997 -0.662574 -0.662574 -0.748997 410 128.564)" stroke="#4B70F5" stroke-width="4"/>
<defs>
<filter id="filter0_d_142_161" x="0" y="0" width="479" height="238" filterUnits="userSpaceOnUse" color-interpolation-filters="sRGB">
<feFlood flood-opacity="0" result="BackgroundImageFix"/>
<feColorMatrix in="SourceAlpha" type="matrix" values="0 0 0 0 0 0 0 0 0 0 0 0 0 0 0 0 0 0 127 0" result="hardAlpha"/>
<feOffset dx="5" dy="5"/>
<feGaussianBlur stdDeviation="10"/>
<feComposite in2="hardAlpha" operator="out"/>
<feColorMatrix type="matrix" values="0 0 0 0 0 0 0 0 0 0 0 0 0 0 0 0 0 0 0.5 0"/>
<feBlend mode="normal" in2="BackgroundImageFix" result="effect1_dropShadow_142_161"/>
<feBlend mode="normal" in="SourceGraphic" in2="effect1_dropShadow_142_161" result="shape"/>
</filter>
</defs>
</svg>
