<svg width="168" height="45" viewBox="0 0 168 45" fill="none" xmlns="http://www.w3.org/2000/svg">
<path d="M0.0617189 0.999999H13.5117C15.4284 0.999999 17.1367 1.4 18.6367 2.2C20.1367 3 21.3201 4.15833 22.1867 5.675C23.0701 7.175 23.5117 8.96666 23.5117 11.05C23.5117 13.1333 23.1367 14.8417 22.3867 16.175C21.6534 17.4917 20.7701 18.4833 19.7367 19.15C18.7034 19.8 17.7451 20.1917 16.8617 20.325L24.8867 34H16.4867L9.33672 20.9H7.53672V34H0.0617189V0.999999ZM7.53672 15.725H10.8367C12.1701 15.725 13.3367 15.4 14.3367 14.75C15.3367 14.1 15.8367 12.95 15.8367 11.3C15.8367 9.65 15.3451 8.50833 14.3617 7.875C13.3784 7.225 12.2201 6.9 10.8867 6.9H7.53672V15.725ZM35.8766 25.35C35.9266 26.0833 36.1599 26.7333 36.5766 27.3C36.9932 27.8667 37.5682 28.3167 38.3016 28.65C39.0516 28.9667 39.9349 29.125 40.9516 29.125C41.9182 29.125 42.7849 29.025 43.5516 28.825C44.3349 28.625 45.0099 28.375 45.5766 28.075C46.1599 27.775 46.6099 27.4667 46.9266 27.15L49.8766 31.85C49.4599 32.3 48.8682 32.7417 48.1016 33.175C47.3516 33.5917 46.3599 33.9333 45.1266 34.2C43.8932 34.4667 42.3349 34.6 40.4516 34.6C38.1849 34.6 36.1682 34.175 34.4016 33.325C32.6349 32.475 31.2432 31.225 30.2266 29.575C29.2099 27.925 28.7016 25.9083 28.7016 23.525C28.7016 21.525 29.1349 19.725 30.0016 18.125C30.8849 16.5083 32.1599 15.2333 33.8266 14.3C35.4932 13.35 37.5016 12.875 39.8516 12.875C42.0849 12.875 44.0182 13.2833 45.6516 14.1C47.3016 14.9167 48.5682 16.1333 49.4516 17.75C50.3516 19.35 50.8016 21.35 50.8016 23.75C50.8016 23.8833 50.7932 24.15 50.7766 24.55C50.7766 24.95 50.7599 25.2167 50.7266 25.35H35.8766ZM43.6516 21.375C43.6349 20.8417 43.4932 20.3167 43.2266 19.8C42.9599 19.2667 42.5599 18.8333 42.0266 18.5C41.4932 18.15 40.8099 17.975 39.9766 17.975C39.1432 17.975 38.4349 18.1417 37.8516 18.475C37.2849 18.7917 36.8516 19.2083 36.5516 19.725C36.2516 20.2417 36.0849 20.7917 36.0516 21.375H43.6516ZM62.2039 44.4H54.6789V13.475H62.2789V16.475C62.5122 16.0083 62.9539 15.5 63.6039 14.95C64.2706 14.3833 65.1122 13.9 66.1289 13.5C67.1622 13.0833 68.3289 12.875 69.6289 12.875C71.6289 12.875 73.3372 13.3667 74.7539 14.35C76.1872 15.3333 77.2872 16.65 78.0539 18.3C78.8206 19.9333 79.2039 21.75 79.2039 23.75C79.2039 25.75 78.7956 27.575 77.9789 29.225C77.1622 30.8583 76.0122 32.1667 74.5289 33.15C73.0622 34.1167 71.3289 34.6 69.3289 34.6C67.8956 34.6 66.6706 34.35 65.6539 33.85C64.6539 33.3333 63.8622 32.7667 63.2789 32.15C62.7122 31.5167 62.3539 31.025 62.2039 30.675V44.4ZM71.7789 23.75C71.7789 22.8167 71.5706 21.9833 71.1539 21.25C70.7372 20.5 70.1706 19.9167 69.4539 19.5C68.7539 19.0667 67.9622 18.85 67.0789 18.85C66.1622 18.85 65.3372 19.0667 64.6039 19.5C63.8872 19.9167 63.3206 20.5 62.9039 21.25C62.4872 21.9833 62.2789 22.8167 62.2789 23.75C62.2789 24.6833 62.4872 25.525 62.9039 26.275C63.3206 27.0083 63.8872 27.5833 64.6039 28C65.3372 28.4167 66.1622 28.625 67.0789 28.625C67.9622 28.625 68.7539 28.4167 69.4539 28C70.1706 27.5833 70.7372 27.0083 71.1539 26.275C71.5706 25.525 71.7789 24.6833 71.7789 23.75ZM98.9742 34V30.675C98.8242 31.0083 98.4409 31.4917 97.8242 32.125C97.2242 32.7583 96.4242 33.3333 95.4242 33.85C94.4242 34.35 93.2576 34.6 91.9242 34.6C89.9242 34.6 88.1742 34.1167 86.6742 33.15C85.1742 32.1667 84.0076 30.8583 83.1742 29.225C82.3409 27.575 81.9242 25.75 81.9242 23.75C81.9242 21.75 82.3409 19.9333 83.1742 18.3C84.0076 16.65 85.1742 15.3333 86.6742 14.35C88.1742 13.3667 89.9242 12.875 91.9242 12.875C93.2076 12.875 94.3326 13.0833 95.2992 13.5C96.2659 13.9 97.0492 14.3833 97.6492 14.95C98.2492 15.5 98.6659 16.0083 98.8992 16.475V13.475H106.449V34H98.9742ZM89.3742 23.75C89.3742 24.6833 89.5909 25.525 90.0242 26.275C90.4576 27.0083 91.0326 27.5833 91.7492 28C92.4826 28.4167 93.2909 28.625 94.1742 28.625C95.0909 28.625 95.8992 28.4167 96.5992 28C97.2992 27.5833 97.8492 27.0083 98.2492 26.275C98.6659 25.525 98.8742 24.6833 98.8742 23.75C98.8742 22.8167 98.6659 21.9833 98.2492 21.25C97.8492 20.5 97.2992 19.9167 96.5992 19.5C95.8992 19.0667 95.0909 18.85 94.1742 18.85C93.2909 18.85 92.4826 19.0667 91.7492 19.5C91.0326 19.9167 90.4576 20.5 90.0242 21.25C89.5909 21.9833 89.3742 22.8167 89.3742 23.75ZM111.522 34V13.475H119.122V34H111.522ZM115.422 9.25C114.222 9.25 113.205 8.83333 112.372 8C111.539 7.15 111.122 6.14167 111.122 4.975C111.122 3.80833 111.539 2.8 112.372 1.95C113.222 1.08333 114.239 0.649997 115.422 0.649997C116.205 0.649997 116.922 0.849998 117.572 1.25C118.222 1.63333 118.747 2.15 119.147 2.8C119.547 3.45 119.747 4.175 119.747 4.975C119.747 6.14167 119.322 7.15 118.472 8C117.622 8.83333 116.605 9.25 115.422 9.25ZM138.483 12.875C139.916 12.875 141.316 13.1667 142.683 13.75C144.049 14.3333 145.174 15.2583 146.058 16.525C146.941 17.775 147.383 19.425 147.383 21.475V34H139.758V22.725C139.758 21.2583 139.408 20.1583 138.708 19.425C138.008 18.675 137.091 18.3 135.958 18.3C135.208 18.3 134.499 18.5 133.833 18.9C133.183 19.2833 132.649 19.8333 132.233 20.55C131.833 21.25 131.633 22.0583 131.633 22.975V34H124.033V13.475H131.633V16.5C131.833 15.95 132.249 15.4 132.883 14.85C133.533 14.2833 134.341 13.8167 135.308 13.45C136.291 13.0667 137.349 12.875 138.483 12.875ZM150.049 13.475H153.549V5.05H161.074V13.475H165.674V19.725H161.074V25.45C161.074 26.3 161.199 26.9917 161.449 27.525C161.699 28.0417 162.158 28.3 162.824 28.3C163.274 28.3 163.658 28.2 163.974 28C164.291 27.8 164.483 27.6667 164.549 27.6L167.149 33C167.033 33.1 166.666 33.2833 166.049 33.55C165.449 33.8167 164.683 34.0583 163.749 34.275C162.816 34.4917 161.774 34.6 160.624 34.6C158.574 34.6 156.883 34.025 155.549 32.875C154.216 31.7083 153.549 29.9167 153.549 27.5V19.725H150.049V13.475Z" fill="#1E2C90"/>
</svg>
