<svg width="479" height="238" viewBox="0 0 479 238" fill="none" xmlns="http://www.w3.org/2000/svg">
<g filter="url(#filter0_d_2058_1063)">
<rect x="15" y="15" width="439" height="198" rx="25" fill="#4C3BCF"/>
</g>
<path d="M388 20H425C438.807 20 450 31.1929 450 45V183C450 196.807 438.807 208 425 208H388V20Z" fill="white"/>
<path d="M43.0695 46.6H53.2295C54.7229 46.6 56.0629 46.9133 57.2495 47.54C58.4362 48.1533 59.3762 49.0533 60.0695 50.24C60.7762 51.4133 61.1295 52.8333 61.1295 54.5C61.1295 56.1533 60.8229 57.5133 60.2095 58.58C59.5962 59.6333 58.8562 60.4267 57.9895 60.96C57.1362 61.4933 56.3429 61.8 55.6095 61.88L62.0895 73H56.4495L50.5895 62.26H48.0495V73H43.0695V46.6ZM48.0495 58.74H51.4495C52.7162 58.74 53.7895 58.4267 54.6695 57.8C55.5629 57.1733 56.0095 56.12 56.0095 54.64C56.0095 53.16 55.5695 52.12 54.6895 51.52C53.8095 50.9067 52.7429 50.6 51.4895 50.6H48.0495V58.74ZM66.2355 46.6H82.6155V51.02H71.1955V57.62H82.4555V61.9H71.1955V68.58H82.6155V73H66.2355V46.6ZM87.5855 46.6H96.3655C98.0321 46.6 99.5388 46.8867 100.885 47.46C102.245 48.0333 103.325 48.9133 104.125 50.1C104.925 51.2733 105.325 52.7733 105.325 54.6C105.325 56.4133 104.925 57.94 104.125 59.18C103.325 60.42 102.245 61.36 100.885 62C99.5388 62.6267 98.0321 62.94 96.3655 62.94H92.5655V73H87.5855V46.6ZM92.5655 58.92H94.9855C95.9188 58.92 96.7588 58.7867 97.5055 58.52C98.2655 58.24 98.8721 57.7933 99.3255 57.18C99.7788 56.5667 100.005 55.7467 100.005 54.72C100.005 53.68 99.7788 52.8667 99.3255 52.28C98.8721 51.68 98.2655 51.2533 97.5055 51C96.7588 50.7333 95.9188 50.6 94.9855 50.6H92.5655V58.92ZM114.38 46.6H119.4L129.56 73H124.24L122.18 67.3H111.62L109.52 73H104.18L114.38 46.6ZM113.26 62.88H120.54L116.92 52.64H116.86L113.26 62.88ZM132.218 46.6H137.218V73H132.218V46.6ZM146.891 51.22L147.231 51.28V73H142.251V46.6H149.131L160.971 68.28L160.631 68.36V46.6H165.611V73H158.691L146.891 51.22ZM175.574 51.02H168.954V46.6H187.174V51.02H180.574V73H175.574V51.02Z" fill="white"/>
<path d="M60.635 157.768C57.819 157.768 55.195 157.235 52.763 156.168C50.331 155.101 48.3577 153.629 46.843 151.752C45.3283 149.853 44.571 147.667 44.571 145.192C44.571 143.272 44.8803 141.619 45.499 140.232C46.139 138.845 47.0137 137.672 48.123 136.712C49.2323 135.731 50.4803 134.899 51.867 134.216C50.8003 133.576 49.851 132.861 49.019 132.072C48.187 131.261 47.5363 130.312 47.067 129.224C46.5977 128.115 46.363 126.76 46.363 125.16C46.363 122.856 47.003 120.872 48.283 119.208C49.5843 117.544 51.3123 116.264 53.467 115.368C55.6217 114.451 57.9897 113.992 60.571 113.992C63.2163 113.992 65.595 114.451 67.707 115.368C69.8403 116.264 71.5257 117.544 72.763 119.208C74.0003 120.872 74.619 122.856 74.619 125.16C74.619 127.549 74.1177 129.416 73.115 130.76C72.1337 132.083 70.8643 133.235 69.307 134.216C70.6937 134.899 71.931 135.731 73.019 136.712C74.1283 137.672 75.003 138.845 75.643 140.232C76.283 141.619 76.603 143.272 76.603 145.192C76.603 147.667 75.8563 149.853 74.363 151.752C72.8697 153.629 70.907 155.101 68.475 156.168C66.043 157.235 63.4297 157.768 60.635 157.768ZM60.571 148.136C61.403 148.136 62.1497 147.944 62.811 147.56C63.4937 147.155 64.0377 146.611 64.443 145.928C64.8483 145.245 65.051 144.499 65.051 143.688C65.051 142.877 64.8483 142.131 64.443 141.448C64.0377 140.765 63.4937 140.232 62.811 139.848C62.1497 139.443 61.403 139.24 60.571 139.24C59.7603 139.24 59.0137 139.443 58.331 139.848C57.6697 140.253 57.1363 140.797 56.731 141.48C56.3257 142.141 56.123 142.877 56.123 143.688C56.123 144.499 56.3257 145.245 56.731 145.928C57.1363 146.589 57.6697 147.123 58.331 147.528C59.0137 147.933 59.7603 148.136 60.571 148.136ZM60.635 130.792C61.3817 130.792 62.0643 130.611 62.683 130.248C63.3017 129.864 63.7923 129.352 64.155 128.712C64.539 128.072 64.731 127.379 64.731 126.632C64.731 125.864 64.539 125.171 64.155 124.552C63.7923 123.933 63.3017 123.443 62.683 123.08C62.0643 122.696 61.3817 122.504 60.635 122.504C59.867 122.504 59.163 122.696 58.523 123.08C57.9043 123.443 57.403 123.933 57.019 124.552C56.6563 125.171 56.475 125.864 56.475 126.632C56.475 127.379 56.6563 128.072 57.019 128.712C57.403 129.331 57.9043 129.832 58.523 130.216C59.163 130.6 59.867 130.792 60.635 130.792ZM80.1505 135.912C80.1505 132.285 80.6198 129.107 81.5585 126.376C82.4972 123.624 83.7878 121.331 85.4305 119.496C87.0945 117.661 88.9825 116.285 91.0945 115.368C93.2065 114.451 95.4358 113.992 97.7825 113.992C100.172 113.992 102.423 114.451 104.535 115.368C106.647 116.285 108.513 117.661 110.135 119.496C111.777 121.331 113.068 123.624 114.007 126.376C114.945 129.107 115.415 132.285 115.415 135.912C115.415 139.859 114.945 143.219 114.007 145.992C113.068 148.765 111.777 151.016 110.135 152.744C108.513 154.472 106.647 155.741 104.535 156.552C102.423 157.363 100.172 157.768 97.7825 157.768C95.4358 157.768 93.2065 157.363 91.0945 156.552C88.9825 155.741 87.0945 154.472 85.4305 152.744C83.7878 151.016 82.4972 148.765 81.5585 145.992C80.6198 143.219 80.1505 139.859 80.1505 135.912ZM91.2865 135.912C91.2865 138.685 91.5318 140.968 92.0225 142.76C92.5345 144.531 93.2705 145.853 94.2305 146.728C95.1905 147.581 96.3745 148.008 97.7825 148.008C99.2118 148.008 100.407 147.581 101.367 146.728C102.327 145.853 103.041 144.52 103.511 142.728C104.001 140.936 104.247 138.664 104.247 135.912C104.247 133.373 104.001 131.208 103.511 129.416C103.041 127.603 102.327 126.205 101.367 125.224C100.407 124.243 99.2118 123.752 97.7825 123.752C96.3745 123.752 95.1905 124.243 94.2305 125.224C93.2705 126.205 92.5345 127.603 92.0225 129.416C91.5318 131.229 91.2865 133.395 91.2865 135.912ZM139.489 134.984L155.041 157H141.793L129.857 138.92V157H118.721V114.76H129.857V131.272L140.737 114.76H153.281L139.489 134.984Z" fill="white"/>
<path d="M44.3783 84.16H53.4023V85.42H45.7103V91.432H53.2103V92.68H45.7103V98.74H53.4023V100H44.3783V84.16ZM60.1225 89.86C60.5785 89.86 61.0065 89.912 61.4065 90.016C61.8145 90.112 62.1705 90.236 62.4745 90.388C62.7785 90.532 63.0065 90.664 63.1585 90.784L62.4985 91.732C62.3305 91.572 62.0385 91.404 61.6225 91.228C61.2065 91.044 60.7385 90.952 60.2185 90.952C59.5785 90.952 59.0305 91.084 58.5745 91.348C58.1265 91.612 57.9025 91.996 57.9025 92.5C57.9025 92.988 58.1305 93.376 58.5865 93.664C59.0425 93.952 59.6425 94.188 60.3865 94.372C60.9545 94.516 61.4705 94.696 61.9345 94.912C62.4065 95.128 62.7825 95.424 63.0625 95.8C63.3425 96.168 63.4825 96.66 63.4825 97.276C63.4825 97.804 63.3745 98.26 63.1585 98.644C62.9425 99.02 62.6465 99.328 62.2705 99.568C61.9025 99.808 61.4825 99.988 61.0105 100.108C60.5385 100.228 60.0425 100.288 59.5225 100.288C58.9865 100.288 58.4905 100.228 58.0345 100.108C57.5785 99.988 57.1865 99.844 56.8585 99.676C56.5385 99.508 56.2945 99.352 56.1265 99.208L56.8105 98.14C57.0185 98.356 57.3585 98.58 57.8305 98.812C58.3105 99.036 58.8705 99.148 59.5105 99.148C60.2545 99.148 60.8665 98.976 61.3465 98.632C61.8345 98.288 62.0785 97.836 62.0785 97.276C62.0785 96.868 61.9625 96.54 61.7305 96.292C61.4985 96.044 61.1945 95.848 60.8185 95.704C60.4425 95.552 60.0425 95.424 59.6185 95.32C59.2105 95.216 58.8185 95.092 58.4425 94.948C58.0745 94.796 57.7465 94.608 57.4585 94.384C57.1705 94.16 56.9425 93.892 56.7745 93.58C56.6145 93.26 56.5345 92.888 56.5345 92.464C56.5345 91.936 56.6985 91.48 57.0265 91.096C57.3545 90.704 57.7905 90.4 58.3345 90.184C58.8865 89.968 59.4825 89.86 60.1225 89.86ZM65.122 90.148H67.174V86.104H68.53V90.148H71.218V91.384H68.53V97.228C68.53 97.884 68.65 98.352 68.89 98.632C69.13 98.912 69.43 99.052 69.79 99.052C70.134 99.052 70.394 98.992 70.57 98.872C70.746 98.752 70.85 98.672 70.882 98.632L71.518 99.676C71.47 99.716 71.362 99.788 71.194 99.892C71.026 99.988 70.806 100.076 70.534 100.156C70.262 100.244 69.934 100.288 69.55 100.288C68.886 100.288 68.322 100.076 67.858 99.652C67.402 99.22 67.174 98.532 67.174 97.588V91.384H65.122V90.148ZM73.8318 100V90.148H75.1878V100H73.8318ZM74.5278 86.152C74.2398 86.152 73.9918 86.052 73.7838 85.852C73.5838 85.644 73.4838 85.396 73.4838 85.108C73.4838 84.812 73.5878 84.564 73.7958 84.364C74.0038 84.156 74.2478 84.052 74.5278 84.052C74.7198 84.052 74.8958 84.1 75.0558 84.196C75.2238 84.292 75.3558 84.42 75.4518 84.58C75.5558 84.732 75.6078 84.908 75.6078 85.108C75.6078 85.396 75.4998 85.644 75.2838 85.852C75.0758 86.052 74.8238 86.152 74.5278 86.152ZM89.728 89.86C90.456 89.86 91.068 90.02 91.564 90.34C92.06 90.66 92.432 91.148 92.68 91.804C92.936 92.452 93.064 93.28 93.064 94.288V100H91.708V94.648C91.708 93.408 91.54 92.496 91.204 91.912C90.868 91.328 90.268 91.036 89.404 91.036C88.964 91.036 88.528 91.16 88.096 91.408C87.672 91.648 87.32 92.032 87.04 92.56C86.76 93.088 86.62 93.784 86.62 94.648V100H85.312V94.648C85.312 93.408 85.096 92.496 84.664 91.912C84.232 91.328 83.664 91.036 82.96 91.036C82.512 91.036 82.076 91.152 81.652 91.384C81.236 91.616 80.892 92 80.62 92.536C80.356 93.064 80.224 93.768 80.224 94.648V100H78.868V90.148H80.224V91.708C80.304 91.46 80.484 91.192 80.764 90.904C81.052 90.616 81.42 90.372 81.868 90.172C82.316 89.964 82.828 89.86 83.404 89.86C84.012 89.86 84.516 89.996 84.916 90.268C85.316 90.54 85.628 90.864 85.852 91.24C86.076 91.616 86.216 91.96 86.272 92.272C86.392 91.896 86.608 91.524 86.92 91.156C87.232 90.788 87.628 90.48 88.108 90.232C88.588 89.984 89.128 89.86 89.728 89.86ZM104.33 100V97.936C104.274 98.152 104.086 98.448 103.766 98.824C103.454 99.2 103.018 99.54 102.458 99.844C101.906 100.14 101.25 100.288 100.49 100.288C99.6022 100.288 98.7822 100.084 98.0302 99.676C97.2862 99.26 96.6862 98.664 96.2302 97.888C95.7822 97.104 95.5582 96.168 95.5582 95.08C95.5582 93.992 95.7822 93.06 96.2302 92.284C96.6862 91.5 97.2862 90.9 98.0302 90.484C98.7822 90.068 99.6022 89.86 100.49 89.86C101.25 89.86 101.906 90.004 102.458 90.292C103.01 90.572 103.446 90.896 103.766 91.264C104.094 91.632 104.278 91.94 104.318 92.188V90.148H105.662V100H104.33ZM96.9142 95.08C96.9142 95.912 97.0942 96.628 97.4542 97.228C97.8142 97.828 98.2782 98.288 98.8462 98.608C99.4222 98.928 100.026 99.088 100.658 99.088C101.354 99.088 101.974 98.924 102.518 98.596C103.062 98.268 103.49 97.804 103.802 97.204C104.122 96.604 104.282 95.896 104.282 95.08C104.282 94.264 104.122 93.556 103.802 92.956C103.49 92.356 103.062 91.892 102.518 91.564C101.974 91.228 101.354 91.06 100.658 91.06C100.026 91.06 99.4222 91.224 98.8462 91.552C98.2782 91.872 97.8142 92.332 97.4542 92.932C97.0942 93.532 96.9142 94.248 96.9142 95.08ZM112.037 89.86C112.493 89.86 112.921 89.912 113.321 90.016C113.729 90.112 114.085 90.236 114.389 90.388C114.693 90.532 114.921 90.664 115.073 90.784L114.413 91.732C114.245 91.572 113.953 91.404 113.537 91.228C113.121 91.044 112.653 90.952 112.133 90.952C111.493 90.952 110.945 91.084 110.489 91.348C110.041 91.612 109.817 91.996 109.817 92.5C109.817 92.988 110.045 93.376 110.501 93.664C110.957 93.952 111.557 94.188 112.301 94.372C112.869 94.516 113.385 94.696 113.849 94.912C114.321 95.128 114.697 95.424 114.977 95.8C115.257 96.168 115.397 96.66 115.397 97.276C115.397 97.804 115.289 98.26 115.073 98.644C114.857 99.02 114.561 99.328 114.185 99.568C113.817 99.808 113.397 99.988 112.925 100.108C112.453 100.228 111.957 100.288 111.437 100.288C110.901 100.288 110.405 100.228 109.949 100.108C109.493 99.988 109.101 99.844 108.773 99.676C108.453 99.508 108.209 99.352 108.041 99.208L108.725 98.14C108.933 98.356 109.273 98.58 109.745 98.812C110.225 99.036 110.785 99.148 111.425 99.148C112.169 99.148 112.781 98.976 113.261 98.632C113.749 98.288 113.993 97.836 113.993 97.276C113.993 96.868 113.877 96.54 113.645 96.292C113.413 96.044 113.109 95.848 112.733 95.704C112.357 95.552 111.957 95.424 111.533 95.32C111.125 95.216 110.733 95.092 110.357 94.948C109.989 94.796 109.661 94.608 109.373 94.384C109.085 94.16 108.857 93.892 108.689 93.58C108.529 93.26 108.449 92.888 108.449 92.464C108.449 91.936 108.613 91.48 108.941 91.096C109.269 90.704 109.705 90.4 110.249 90.184C110.801 89.968 111.397 89.86 112.037 89.86ZM118.316 100V90.148H119.672V100H118.316ZM119.012 86.152C118.724 86.152 118.476 86.052 118.268 85.852C118.068 85.644 117.968 85.396 117.968 85.108C117.968 84.812 118.072 84.564 118.28 84.364C118.488 84.156 118.732 84.052 119.012 84.052C119.204 84.052 119.38 84.1 119.54 84.196C119.708 84.292 119.84 84.42 119.936 84.58C120.04 84.732 120.092 84.908 120.092 85.108C120.092 85.396 119.984 85.644 119.768 85.852C119.56 86.052 119.308 86.152 119.012 86.152ZM124.816 100.288C124.44 100.288 124.12 100.156 123.856 99.892C123.6 99.628 123.472 99.312 123.472 98.944C123.472 98.56 123.6 98.236 123.856 97.972C124.12 97.708 124.44 97.576 124.816 97.576C125.192 97.576 125.512 97.708 125.776 97.972C126.04 98.236 126.172 98.56 126.172 98.944C126.172 99.312 126.04 99.628 125.776 99.892C125.512 100.156 125.192 100.288 124.816 100.288ZM124.816 92.38C124.44 92.38 124.12 92.248 123.856 91.984C123.6 91.72 123.472 91.404 123.472 91.036C123.472 90.652 123.6 90.328 123.856 90.064C124.12 89.8 124.44 89.668 124.816 89.668C125.192 89.668 125.512 89.8 125.776 90.064C126.04 90.328 126.172 90.652 126.172 91.036C126.172 91.404 126.04 91.72 125.776 91.984C125.512 92.248 125.192 92.38 124.816 92.38ZM134.947 86.392C134.987 86.264 135.099 86.064 135.283 85.792C135.475 85.52 135.747 85.24 136.099 84.952C136.459 84.656 136.915 84.404 137.467 84.196C138.027 83.98 138.691 83.872 139.459 83.872C140.475 83.872 141.327 84.06 142.015 84.436C142.703 84.812 143.219 85.312 143.563 85.936C143.915 86.56 144.091 87.256 144.091 88.024C144.091 88.672 143.959 89.256 143.695 89.776C143.431 90.296 143.091 90.72 142.675 91.048C142.259 91.368 141.815 91.56 141.343 91.624C141.823 91.664 142.307 91.84 142.795 92.152C143.291 92.464 143.703 92.9 144.031 93.46C144.367 94.012 144.535 94.68 144.535 95.464C144.535 96.368 144.319 97.188 143.887 97.924C143.463 98.652 142.867 99.228 142.099 99.652C141.339 100.076 140.443 100.288 139.411 100.288C138.443 100.288 137.615 100.124 136.927 99.796C136.239 99.468 135.683 99.068 135.259 98.596C134.843 98.124 134.555 97.668 134.395 97.228L135.631 96.556C135.759 96.908 135.979 97.276 136.291 97.66C136.611 98.044 137.031 98.372 137.551 98.644C138.071 98.908 138.683 99.04 139.387 99.04C140.195 99.04 140.879 98.876 141.439 98.548C141.999 98.22 142.423 97.784 142.711 97.24C142.999 96.696 143.143 96.096 143.143 95.44C143.143 94.696 142.963 94.092 142.603 93.628C142.251 93.164 141.791 92.82 141.223 92.596C140.655 92.372 140.043 92.26 139.387 92.26H139.075V91.132H139.483C140.059 91.132 140.599 91.012 141.103 90.772C141.615 90.532 142.027 90.188 142.339 89.74C142.651 89.284 142.807 88.736 142.807 88.096C142.807 87.256 142.527 86.544 141.967 85.96C141.415 85.376 140.567 85.084 139.423 85.084C138.815 85.084 138.303 85.172 137.887 85.348C137.471 85.516 137.139 85.716 136.891 85.948C136.643 86.18 136.459 86.396 136.339 86.596C136.227 86.788 136.167 86.904 136.159 86.944L134.947 86.392ZM153.031 95.14V93.928H159.211V95.14H153.031ZM170.345 85.792L167.489 87.46V86.104L170.765 84.16H171.701V100H170.345V85.792ZM174.819 92.092C174.819 90.668 174.983 89.44 175.311 88.408C175.647 87.368 176.091 86.516 176.643 85.852C177.203 85.18 177.823 84.684 178.503 84.364C179.191 84.036 179.887 83.872 180.591 83.872C181.295 83.872 181.987 84.036 182.667 84.364C183.355 84.684 183.975 85.18 184.527 85.852C185.079 86.516 185.519 87.368 185.847 88.408C186.175 89.44 186.339 90.668 186.339 92.092C186.339 93.516 186.175 94.744 185.847 95.776C185.519 96.8 185.079 97.648 184.527 98.32C183.975 98.984 183.355 99.48 182.667 99.808C181.987 100.128 181.295 100.288 180.591 100.288C179.887 100.288 179.191 100.128 178.503 99.808C177.823 99.48 177.203 98.984 176.643 98.32C176.091 97.648 175.647 96.8 175.311 95.776C174.983 94.744 174.819 93.516 174.819 92.092ZM176.211 92.092C176.211 93.636 176.415 94.924 176.823 95.956C177.239 96.98 177.779 97.748 178.443 98.26C179.107 98.764 179.823 99.016 180.591 99.016C181.367 99.016 182.083 98.764 182.739 98.26C183.403 97.748 183.935 96.98 184.335 95.956C184.743 94.924 184.947 93.636 184.947 92.092C184.947 90.54 184.743 89.252 184.335 88.228C183.935 87.196 183.403 86.424 182.739 85.912C182.083 85.4 181.367 85.144 180.591 85.144C179.823 85.144 179.107 85.4 178.443 85.912C177.779 86.424 177.239 87.196 176.823 88.228C176.415 89.26 176.211 90.548 176.211 92.092ZM194.892 84.16H198.156C199.844 84.16 201.228 84.5 202.308 85.18C203.388 85.852 204.184 86.784 204.696 87.976C205.216 89.168 205.476 90.532 205.476 92.068C205.476 93.612 205.22 94.98 204.708 96.172C204.196 97.364 203.4 98.3 202.32 98.98C201.24 99.66 199.852 100 198.156 100H194.892V84.16ZM196.224 85.432V98.728H198.048C199.456 98.728 200.6 98.444 201.48 97.876C202.368 97.308 203.02 96.528 203.436 95.536C203.86 94.536 204.076 93.388 204.084 92.092C204.092 90.796 203.888 89.648 203.472 88.648C203.056 87.648 202.4 86.864 201.504 86.296C200.616 85.72 199.464 85.432 198.048 85.432H196.224ZM216.268 100V97.936C216.212 98.152 216.024 98.448 215.704 98.824C215.392 99.2 214.956 99.54 214.396 99.844C213.844 100.14 213.188 100.288 212.428 100.288C211.54 100.288 210.72 100.084 209.968 99.676C209.224 99.26 208.624 98.664 208.168 97.888C207.72 97.104 207.496 96.168 207.496 95.08C207.496 93.992 207.72 93.06 208.168 92.284C208.624 91.5 209.224 90.9 209.968 90.484C210.72 90.068 211.54 89.86 212.428 89.86C213.188 89.86 213.844 90.004 214.396 90.292C214.948 90.572 215.384 90.896 215.704 91.264C216.032 91.632 216.216 91.94 216.256 92.188V90.148H217.6V100H216.268ZM208.852 95.08C208.852 95.912 209.032 96.628 209.392 97.228C209.752 97.828 210.216 98.288 210.784 98.608C211.36 98.928 211.964 99.088 212.596 99.088C213.292 99.088 213.912 98.924 214.456 98.596C215 98.268 215.428 97.804 215.74 97.204C216.06 96.604 216.22 95.896 216.22 95.08C216.22 94.264 216.06 93.556 215.74 92.956C215.428 92.356 215 91.892 214.456 91.564C213.912 91.228 213.292 91.06 212.596 91.06C211.964 91.06 211.36 91.224 210.784 91.552C210.216 91.872 209.752 92.332 209.392 92.932C209.032 93.532 208.852 94.248 208.852 95.08ZM224.31 98.68L227.934 90.148H229.35L222.75 104.992H221.334L223.566 100L219.522 90.148H220.95L224.31 98.68ZM234.474 89.86C234.93 89.86 235.358 89.912 235.758 90.016C236.166 90.112 236.522 90.236 236.826 90.388C237.13 90.532 237.358 90.664 237.51 90.784L236.85 91.732C236.682 91.572 236.39 91.404 235.974 91.228C235.558 91.044 235.09 90.952 234.57 90.952C233.93 90.952 233.382 91.084 232.926 91.348C232.478 91.612 232.254 91.996 232.254 92.5C232.254 92.988 232.482 93.376 232.938 93.664C233.394 93.952 233.994 94.188 234.738 94.372C235.306 94.516 235.822 94.696 236.286 94.912C236.758 95.128 237.134 95.424 237.414 95.8C237.694 96.168 237.834 96.66 237.834 97.276C237.834 97.804 237.726 98.26 237.51 98.644C237.294 99.02 236.998 99.328 236.622 99.568C236.254 99.808 235.834 99.988 235.362 100.108C234.89 100.228 234.394 100.288 233.874 100.288C233.338 100.288 232.842 100.228 232.386 100.108C231.93 99.988 231.538 99.844 231.21 99.676C230.89 99.508 230.646 99.352 230.478 99.208L231.162 98.14C231.37 98.356 231.71 98.58 232.182 98.812C232.662 99.036 233.222 99.148 233.862 99.148C234.606 99.148 235.218 98.976 235.698 98.632C236.186 98.288 236.43 97.836 236.43 97.276C236.43 96.868 236.314 96.54 236.082 96.292C235.85 96.044 235.546 95.848 235.17 95.704C234.794 95.552 234.394 95.424 233.97 95.32C233.562 95.216 233.17 95.092 232.794 94.948C232.426 94.796 232.098 94.608 231.81 94.384C231.522 94.16 231.294 93.892 231.126 93.58C230.966 93.26 230.886 92.888 230.886 92.464C230.886 91.936 231.05 91.48 231.378 91.096C231.706 90.704 232.142 90.4 232.686 90.184C233.238 89.968 233.834 89.86 234.474 89.86Z" fill="white"/>
<line x1="411.325" y1="98.502" x2="430.05" y2="115.066" stroke="#4C3BCF" stroke-width="4"/>
<line y1="-2" x2="25" y2="-2" transform="matrix(0.748997 -0.662574 -0.662574 -0.748997 410 128.564)" stroke="#4C3BCF" stroke-width="4"/>
<defs>
<filter id="filter0_d_2058_1063" x="0" y="0" width="479" height="238" filterUnits="userSpaceOnUse" color-interpolation-filters="sRGB">
<feFlood flood-opacity="0" result="BackgroundImageFix"/>
<feColorMatrix in="SourceAlpha" type="matrix" values="0 0 0 0 0 0 0 0 0 0 0 0 0 0 0 0 0 0 127 0" result="hardAlpha"/>
<feOffset dx="5" dy="5"/>
<feGaussianBlur stdDeviation="10"/>
<feComposite in2="hardAlpha" operator="out"/>
<feColorMatrix type="matrix" values="0 0 0 0 0 0 0 0 0 0 0 0 0 0 0 0 0 0 0.5 0"/>
<feBlend mode="normal" in2="BackgroundImageFix" result="effect1_dropShadow_2058_1063"/>
<feBlend mode="normal" in="SourceGraphic" in2="effect1_dropShadow_2058_1063" result="shape"/>
</filter>
</defs>
</svg>
