<svg width="479" height="238" viewBox="0 0 479 238" fill="none" xmlns="http://www.w3.org/2000/svg">
<g filter="url(#filter0_d_142_107)">
<rect x="15" y="15" width="439" height="198" rx="25" fill="#4B70F5"/>
</g>
<path d="M388 20H425C438.807 20 450 31.1929 450 45V183C450 196.807 438.807 208 425 208H388V20Z" fill="white"/>
<path d="M57.1514 46.12C58.7381 46.12 60.1181 46.3 61.2914 46.66C62.4781 47.0067 63.4181 47.38 64.1114 47.78C64.8181 48.18 65.2447 48.44 65.3914 48.56L62.9514 52.62C62.7381 52.4467 62.3714 52.2067 61.8514 51.9C61.3447 51.58 60.7314 51.3 60.0114 51.06C59.2914 50.8067 58.5114 50.68 57.6714 50.68C56.4581 50.68 55.4847 50.9133 54.7514 51.38C54.0314 51.8333 53.6714 52.4933 53.6714 53.36C53.6714 53.9467 53.8647 54.4733 54.2514 54.94C54.6381 55.3933 55.2047 55.82 55.9514 56.22C56.7114 56.62 57.6381 57.04 58.7314 57.48C59.6914 57.8533 60.6047 58.2867 61.4714 58.78C62.3514 59.2733 63.1314 59.8533 63.8114 60.52C64.5047 61.1867 65.0514 61.96 65.4514 62.84C65.8647 63.72 66.0714 64.7267 66.0714 65.86C66.0714 67.1267 65.8114 68.2333 65.2914 69.18C64.7847 70.1267 64.0781 70.92 63.1714 71.56C62.2781 72.2 61.2514 72.68 60.0914 73C58.9314 73.32 57.7114 73.48 56.4314 73.48C54.6981 73.48 53.1381 73.28 51.7514 72.88C50.3781 72.4667 49.2647 72.0267 48.4114 71.56C47.5581 71.0933 47.0581 70.7933 46.9114 70.66L49.4714 66.44C49.6314 66.56 49.9314 66.7533 50.3714 67.02C50.8247 67.2867 51.3714 67.56 52.0114 67.84C52.6647 68.12 53.3714 68.36 54.1314 68.56C54.9047 68.76 55.6914 68.86 56.4914 68.86C57.9314 68.86 59.0181 68.56 59.7514 67.96C60.4847 67.36 60.8514 66.58 60.8514 65.62C60.8514 64.9 60.6181 64.2667 60.1514 63.72C59.6847 63.1733 59.0247 62.6733 58.1714 62.22C57.3314 61.7533 56.3247 61.28 55.1514 60.8C53.9781 60.3067 52.8847 59.7333 51.8714 59.08C50.8714 58.4133 50.0647 57.6 49.4514 56.64C48.8381 55.6667 48.5314 54.4733 48.5314 53.06C48.5314 51.66 48.9247 50.44 49.7114 49.4C50.5114 48.36 51.5647 47.5533 52.8714 46.98C54.1914 46.4067 55.6181 46.12 57.1514 46.12ZM96.4655 46.6V73H91.4855V56.1L91.7255 52.26L90.8255 56.62L85.6455 71.12H80.7255L75.5655 56.62L74.6855 52.26L74.9055 56.1V73H69.9055V46.6H76.8255L82.8655 65.42L83.1855 67.22L83.5055 65.42L89.5655 46.6H96.4655ZM109.888 46.6H114.908L125.068 73H119.748L117.688 67.3H107.128L105.028 73H99.688L109.888 46.6ZM108.768 62.88H116.048L112.428 52.64H112.368L108.768 62.88ZM127.565 46.6H132.565V68.58H142.465V73H127.565V46.6ZM146.667 46.6H151.667V68.58H161.567V73H146.667V46.6Z" fill="white"/>
<path d="M60.769 123.368C59.489 123.368 58.3583 123.699 57.377 124.36C56.3957 125.021 55.5637 125.789 54.881 126.664C54.2197 127.539 53.7077 128.339 53.345 129.064C52.9823 129.789 52.7797 130.216 52.737 130.344L43.265 125.96C43.3077 125.683 43.5103 125.096 43.873 124.2C44.2357 123.304 44.8117 122.28 45.601 121.128C46.4117 119.976 47.4783 118.856 48.801 117.768C50.145 116.68 51.7983 115.784 53.761 115.08C55.7237 114.355 58.0597 113.992 60.769 113.992C64.033 113.992 66.6997 114.461 68.769 115.4C70.8597 116.339 72.481 117.544 73.633 119.016C74.8063 120.467 75.6277 122.003 76.097 123.624C76.5877 125.224 76.833 126.685 76.833 128.008C76.833 129.864 76.481 131.624 75.777 133.288C75.073 134.931 74.1663 136.467 73.057 137.896C71.969 139.304 70.7957 140.584 69.537 141.736C68.2997 142.867 67.105 143.848 65.953 144.68C64.8223 145.491 63.873 146.131 63.105 146.6C62.337 147.048 61.8997 147.304 61.793 147.368H76.481V157H45.121V148.232C45.313 148.104 45.9317 147.688 46.977 146.984C48.0437 146.259 49.345 145.331 50.881 144.2C52.4383 143.069 54.0703 141.811 55.777 140.424C57.4837 139.037 59.0837 137.608 60.577 136.136C62.0703 134.643 63.2863 133.192 64.225 131.784C65.185 130.355 65.665 129.043 65.665 127.848C65.665 126.227 65.2383 125.075 64.385 124.392C63.5317 123.709 62.3263 123.368 60.769 123.368ZM90.0875 144.136C90.3008 144.797 90.5675 145.405 90.8875 145.96C91.2075 146.493 91.5915 146.952 92.0395 147.336C92.5088 147.72 93.0528 148.019 93.6715 148.232C94.2902 148.424 95.0048 148.52 95.8155 148.52C97.4795 148.52 98.7595 147.997 99.6555 146.952C100.552 145.885 101 144.52 101 142.856C101 141.235 100.562 139.955 99.6875 139.016C98.8128 138.056 97.5862 137.576 96.0075 137.576C95.0048 137.576 94.1302 137.757 93.3835 138.12C92.6582 138.461 92.0715 138.856 91.6235 139.304C91.1755 139.752 90.8662 140.157 90.6955 140.52L81.5755 137.16L85.3835 114.76H110.152V124.392H94.6955L93.6075 130.344C93.7355 130.216 94.0662 130.035 94.5995 129.8C95.1328 129.544 95.8155 129.32 96.6475 129.128C97.5008 128.915 98.4182 128.808 99.3995 128.808C101.469 128.808 103.474 129.267 105.416 130.184C107.378 131.08 109 132.52 110.28 134.504C111.56 136.467 112.2 139.027 112.2 142.184C112.221 145.384 111.528 148.157 110.12 150.504C108.712 152.829 106.802 154.621 104.392 155.88C102.002 157.139 99.2928 157.768 96.2635 157.768C93.9595 157.768 91.9222 157.501 90.1515 156.968C88.3808 156.413 86.8662 155.688 85.6075 154.792C84.3488 153.896 83.3035 152.883 82.4715 151.752C81.6395 150.6 80.9995 149.427 80.5515 148.232L90.0875 144.136ZM136.739 134.984L152.291 157H139.043L127.107 138.92V157H115.971V114.76H127.107V131.272L137.987 114.76H150.531L136.739 134.984Z" fill="white"/>
<path d="M47.7377 84.16H56.7617V85.42H49.0697V91.432H56.5697V92.68H49.0697V98.74H56.7617V100H47.7377V84.16ZM63.4819 89.86C63.9379 89.86 64.3659 89.912 64.7659 90.016C65.1739 90.112 65.5299 90.236 65.8339 90.388C66.1379 90.532 66.3659 90.664 66.5179 90.784L65.8579 91.732C65.6899 91.572 65.3979 91.404 64.9819 91.228C64.5659 91.044 64.0979 90.952 63.5779 90.952C62.9379 90.952 62.3899 91.084 61.9339 91.348C61.4859 91.612 61.2619 91.996 61.2619 92.5C61.2619 92.988 61.4899 93.376 61.9459 93.664C62.4019 93.952 63.0019 94.188 63.7459 94.372C64.3139 94.516 64.8299 94.696 65.2939 94.912C65.7659 95.128 66.1419 95.424 66.4219 95.8C66.7019 96.168 66.8419 96.66 66.8419 97.276C66.8419 97.804 66.7339 98.26 66.5179 98.644C66.3019 99.02 66.0059 99.328 65.6299 99.568C65.2619 99.808 64.8419 99.988 64.3699 100.108C63.8979 100.228 63.4019 100.288 62.8819 100.288C62.3459 100.288 61.8499 100.228 61.3939 100.108C60.9379 99.988 60.5459 99.844 60.2179 99.676C59.8979 99.508 59.6539 99.352 59.4859 99.208L60.1699 98.14C60.3779 98.356 60.7179 98.58 61.1899 98.812C61.6699 99.036 62.2299 99.148 62.8699 99.148C63.6139 99.148 64.2259 98.976 64.7059 98.632C65.1939 98.288 65.4379 97.836 65.4379 97.276C65.4379 96.868 65.3219 96.54 65.0899 96.292C64.8579 96.044 64.5539 95.848 64.1779 95.704C63.8019 95.552 63.4019 95.424 62.9779 95.32C62.5699 95.216 62.1779 95.092 61.8019 94.948C61.4339 94.796 61.1059 94.608 60.8179 94.384C60.5299 94.16 60.3019 93.892 60.1339 93.58C59.9739 93.26 59.8939 92.888 59.8939 92.464C59.8939 91.936 60.0579 91.48 60.3859 91.096C60.7139 90.704 61.1499 90.4 61.6939 90.184C62.2459 89.968 62.8419 89.86 63.4819 89.86ZM68.4814 90.148H70.5334V86.104H71.8894V90.148H74.5774V91.384H71.8894V97.228C71.8894 97.884 72.0094 98.352 72.2494 98.632C72.4894 98.912 72.7894 99.052 73.1494 99.052C73.4934 99.052 73.7534 98.992 73.9294 98.872C74.1054 98.752 74.2094 98.672 74.2414 98.632L74.8774 99.676C74.8294 99.716 74.7214 99.788 74.5534 99.892C74.3854 99.988 74.1654 100.076 73.8934 100.156C73.6214 100.244 73.2934 100.288 72.9094 100.288C72.2454 100.288 71.6814 100.076 71.2174 99.652C70.7614 99.22 70.5334 98.532 70.5334 97.588V91.384H68.4814V90.148ZM77.1912 100V90.148H78.5472V100H77.1912ZM77.8872 86.152C77.5992 86.152 77.3512 86.052 77.1432 85.852C76.9432 85.644 76.8432 85.396 76.8432 85.108C76.8432 84.812 76.9472 84.564 77.1552 84.364C77.3632 84.156 77.6072 84.052 77.8872 84.052C78.0792 84.052 78.2552 84.1 78.4152 84.196C78.5832 84.292 78.7152 84.42 78.8112 84.58C78.9152 84.732 78.9672 84.908 78.9672 85.108C78.9672 85.396 78.8592 85.644 78.6432 85.852C78.4352 86.052 78.1832 86.152 77.8872 86.152ZM93.0874 89.86C93.8154 89.86 94.4274 90.02 94.9234 90.34C95.4194 90.66 95.7914 91.148 96.0394 91.804C96.2954 92.452 96.4234 93.28 96.4234 94.288V100H95.0674V94.648C95.0674 93.408 94.8994 92.496 94.5634 91.912C94.2274 91.328 93.6274 91.036 92.7634 91.036C92.3234 91.036 91.8874 91.16 91.4554 91.408C91.0314 91.648 90.6794 92.032 90.3994 92.56C90.1194 93.088 89.9794 93.784 89.9794 94.648V100H88.6714V94.648C88.6714 93.408 88.4554 92.496 88.0234 91.912C87.5914 91.328 87.0234 91.036 86.3194 91.036C85.8714 91.036 85.4354 91.152 85.0114 91.384C84.5954 91.616 84.2514 92 83.9794 92.536C83.7154 93.064 83.5834 93.768 83.5834 94.648V100H82.2274V90.148H83.5834V91.708C83.6634 91.46 83.8434 91.192 84.1234 90.904C84.4114 90.616 84.7794 90.372 85.2274 90.172C85.6754 89.964 86.1874 89.86 86.7634 89.86C87.3714 89.86 87.8754 89.996 88.2754 90.268C88.6754 90.54 88.9874 90.864 89.2114 91.24C89.4354 91.616 89.5754 91.96 89.6314 92.272C89.7514 91.896 89.9674 91.524 90.2794 91.156C90.5914 90.788 90.9874 90.48 91.4674 90.232C91.9474 89.984 92.4874 89.86 93.0874 89.86ZM107.69 100V97.936C107.634 98.152 107.446 98.448 107.126 98.824C106.814 99.2 106.378 99.54 105.818 99.844C105.266 100.14 104.61 100.288 103.85 100.288C102.962 100.288 102.142 100.084 101.39 99.676C100.646 99.26 100.046 98.664 99.5895 97.888C99.1415 97.104 98.9175 96.168 98.9175 95.08C98.9175 93.992 99.1415 93.06 99.5895 92.284C100.046 91.5 100.646 90.9 101.39 90.484C102.142 90.068 102.962 89.86 103.85 89.86C104.61 89.86 105.266 90.004 105.818 90.292C106.37 90.572 106.806 90.896 107.126 91.264C107.454 91.632 107.638 91.94 107.678 92.188V90.148H109.022V100H107.69ZM100.274 95.08C100.274 95.912 100.454 96.628 100.814 97.228C101.174 97.828 101.638 98.288 102.206 98.608C102.782 98.928 103.386 99.088 104.018 99.088C104.714 99.088 105.334 98.924 105.878 98.596C106.422 98.268 106.85 97.804 107.162 97.204C107.482 96.604 107.642 95.896 107.642 95.08C107.642 94.264 107.482 93.556 107.162 92.956C106.85 92.356 106.422 91.892 105.878 91.564C105.334 91.228 104.714 91.06 104.018 91.06C103.386 91.06 102.782 91.224 102.206 91.552C101.638 91.872 101.174 92.332 100.814 92.932C100.454 93.532 100.274 94.248 100.274 95.08ZM115.396 89.86C115.852 89.86 116.28 89.912 116.68 90.016C117.088 90.112 117.444 90.236 117.748 90.388C118.052 90.532 118.28 90.664 118.432 90.784L117.772 91.732C117.604 91.572 117.312 91.404 116.896 91.228C116.48 91.044 116.012 90.952 115.492 90.952C114.852 90.952 114.304 91.084 113.848 91.348C113.4 91.612 113.176 91.996 113.176 92.5C113.176 92.988 113.404 93.376 113.86 93.664C114.316 93.952 114.916 94.188 115.66 94.372C116.228 94.516 116.744 94.696 117.208 94.912C117.68 95.128 118.056 95.424 118.336 95.8C118.616 96.168 118.756 96.66 118.756 97.276C118.756 97.804 118.648 98.26 118.432 98.644C118.216 99.02 117.92 99.328 117.544 99.568C117.176 99.808 116.756 99.988 116.284 100.108C115.812 100.228 115.316 100.288 114.796 100.288C114.26 100.288 113.764 100.228 113.308 100.108C112.852 99.988 112.46 99.844 112.132 99.676C111.812 99.508 111.568 99.352 111.4 99.208L112.084 98.14C112.292 98.356 112.632 98.58 113.104 98.812C113.584 99.036 114.144 99.148 114.784 99.148C115.528 99.148 116.14 98.976 116.62 98.632C117.108 98.288 117.352 97.836 117.352 97.276C117.352 96.868 117.236 96.54 117.004 96.292C116.772 96.044 116.468 95.848 116.092 95.704C115.716 95.552 115.316 95.424 114.892 95.32C114.484 95.216 114.092 95.092 113.716 94.948C113.348 94.796 113.02 94.608 112.732 94.384C112.444 94.16 112.216 93.892 112.048 93.58C111.888 93.26 111.808 92.888 111.808 92.464C111.808 91.936 111.972 91.48 112.3 91.096C112.628 90.704 113.064 90.4 113.608 90.184C114.16 89.968 114.756 89.86 115.396 89.86ZM121.676 100V90.148H123.032V100H121.676ZM122.372 86.152C122.084 86.152 121.836 86.052 121.628 85.852C121.428 85.644 121.328 85.396 121.328 85.108C121.328 84.812 121.432 84.564 121.64 84.364C121.848 84.156 122.092 84.052 122.372 84.052C122.564 84.052 122.74 84.1 122.9 84.196C123.068 84.292 123.2 84.42 123.296 84.58C123.4 84.732 123.452 84.908 123.452 85.108C123.452 85.396 123.344 85.644 123.128 85.852C122.92 86.052 122.668 86.152 122.372 86.152ZM128.176 100.288C127.8 100.288 127.48 100.156 127.216 99.892C126.96 99.628 126.832 99.312 126.832 98.944C126.832 98.56 126.96 98.236 127.216 97.972C127.48 97.708 127.8 97.576 128.176 97.576C128.552 97.576 128.872 97.708 129.136 97.972C129.4 98.236 129.532 98.56 129.532 98.944C129.532 99.312 129.4 99.628 129.136 99.892C128.872 100.156 128.552 100.288 128.176 100.288ZM128.176 92.38C127.8 92.38 127.48 92.248 127.216 91.984C126.96 91.72 126.832 91.404 126.832 91.036C126.832 90.652 126.96 90.328 127.216 90.064C127.48 89.8 127.8 89.668 128.176 89.668C128.552 89.668 128.872 89.8 129.136 90.064C129.4 90.328 129.532 90.652 129.532 91.036C129.532 91.404 129.4 91.72 129.136 91.984C128.872 92.248 128.552 92.38 128.176 92.38ZM138.307 86.392C138.347 86.264 138.459 86.064 138.643 85.792C138.835 85.52 139.107 85.24 139.459 84.952C139.819 84.656 140.275 84.404 140.827 84.196C141.387 83.98 142.051 83.872 142.819 83.872C143.835 83.872 144.687 84.06 145.375 84.436C146.063 84.812 146.579 85.312 146.923 85.936C147.275 86.56 147.451 87.256 147.451 88.024C147.451 88.672 147.319 89.256 147.055 89.776C146.791 90.296 146.451 90.72 146.035 91.048C145.619 91.368 145.175 91.56 144.703 91.624C145.183 91.664 145.667 91.84 146.155 92.152C146.651 92.464 147.063 92.9 147.391 93.46C147.727 94.012 147.895 94.68 147.895 95.464C147.895 96.368 147.679 97.188 147.247 97.924C146.823 98.652 146.227 99.228 145.459 99.652C144.699 100.076 143.803 100.288 142.771 100.288C141.803 100.288 140.975 100.124 140.287 99.796C139.599 99.468 139.043 99.068 138.619 98.596C138.203 98.124 137.915 97.668 137.755 97.228L138.991 96.556C139.119 96.908 139.339 97.276 139.651 97.66C139.971 98.044 140.391 98.372 140.911 98.644C141.431 98.908 142.043 99.04 142.747 99.04C143.555 99.04 144.239 98.876 144.799 98.548C145.359 98.22 145.783 97.784 146.071 97.24C146.359 96.696 146.503 96.096 146.503 95.44C146.503 94.696 146.323 94.092 145.963 93.628C145.611 93.164 145.151 92.82 144.583 92.596C144.015 92.372 143.403 92.26 142.747 92.26H142.435V91.132H142.843C143.419 91.132 143.959 91.012 144.463 90.772C144.975 90.532 145.387 90.188 145.699 89.74C146.011 89.284 146.167 88.736 146.167 88.096C146.167 87.256 145.887 86.544 145.327 85.96C144.775 85.376 143.927 85.084 142.783 85.084C142.175 85.084 141.663 85.172 141.247 85.348C140.831 85.516 140.499 85.716 140.251 85.948C140.003 86.18 139.819 86.396 139.699 86.596C139.587 86.788 139.527 86.904 139.519 86.944L138.307 86.392ZM156.391 95.14V93.928H162.571V95.14H156.391ZM171.628 84.16H181.324V85.216L172.912 100H171.376L179.716 85.42H171.628V84.16ZM189.532 84.16H192.796C194.484 84.16 195.868 84.5 196.948 85.18C198.028 85.852 198.824 86.784 199.336 87.976C199.856 89.168 200.116 90.532 200.116 92.068C200.116 93.612 199.86 94.98 199.348 96.172C198.836 97.364 198.04 98.3 196.96 98.98C195.88 99.66 194.492 100 192.796 100H189.532V84.16ZM190.864 85.432V98.728H192.688C194.096 98.728 195.24 98.444 196.12 97.876C197.008 97.308 197.66 96.528 198.076 95.536C198.5 94.536 198.716 93.388 198.724 92.092C198.732 90.796 198.528 89.648 198.112 88.648C197.696 87.648 197.04 86.864 196.144 86.296C195.256 85.72 194.104 85.432 192.688 85.432H190.864ZM210.908 100V97.936C210.852 98.152 210.664 98.448 210.344 98.824C210.032 99.2 209.596 99.54 209.036 99.844C208.484 100.14 207.828 100.288 207.068 100.288C206.18 100.288 205.36 100.084 204.608 99.676C203.864 99.26 203.264 98.664 202.808 97.888C202.36 97.104 202.136 96.168 202.136 95.08C202.136 93.992 202.36 93.06 202.808 92.284C203.264 91.5 203.864 90.9 204.608 90.484C205.36 90.068 206.18 89.86 207.068 89.86C207.828 89.86 208.484 90.004 209.036 90.292C209.588 90.572 210.024 90.896 210.344 91.264C210.672 91.632 210.856 91.94 210.896 92.188V90.148H212.24V100H210.908ZM203.492 95.08C203.492 95.912 203.672 96.628 204.032 97.228C204.392 97.828 204.856 98.288 205.424 98.608C206 98.928 206.604 99.088 207.236 99.088C207.932 99.088 208.552 98.924 209.096 98.596C209.64 98.268 210.068 97.804 210.38 97.204C210.7 96.604 210.86 95.896 210.86 95.08C210.86 94.264 210.7 93.556 210.38 92.956C210.068 92.356 209.64 91.892 209.096 91.564C208.552 91.228 207.932 91.06 207.236 91.06C206.604 91.06 206 91.224 205.424 91.552C204.856 91.872 204.392 92.332 204.032 92.932C203.672 93.532 203.492 94.248 203.492 95.08ZM218.951 98.68L222.575 90.148H223.991L217.391 104.992H215.975L218.207 100L214.163 90.148H215.591L218.951 98.68ZM229.115 89.86C229.571 89.86 229.999 89.912 230.399 90.016C230.807 90.112 231.163 90.236 231.467 90.388C231.771 90.532 231.999 90.664 232.151 90.784L231.491 91.732C231.323 91.572 231.031 91.404 230.615 91.228C230.199 91.044 229.731 90.952 229.211 90.952C228.571 90.952 228.023 91.084 227.567 91.348C227.119 91.612 226.895 91.996 226.895 92.5C226.895 92.988 227.123 93.376 227.579 93.664C228.035 93.952 228.635 94.188 229.379 94.372C229.947 94.516 230.463 94.696 230.927 94.912C231.399 95.128 231.775 95.424 232.055 95.8C232.335 96.168 232.475 96.66 232.475 97.276C232.475 97.804 232.367 98.26 232.151 98.644C231.935 99.02 231.639 99.328 231.263 99.568C230.895 99.808 230.475 99.988 230.003 100.108C229.531 100.228 229.035 100.288 228.515 100.288C227.979 100.288 227.483 100.228 227.027 100.108C226.571 99.988 226.179 99.844 225.851 99.676C225.531 99.508 225.287 99.352 225.119 99.208L225.803 98.14C226.011 98.356 226.351 98.58 226.823 98.812C227.303 99.036 227.863 99.148 228.503 99.148C229.247 99.148 229.859 98.976 230.339 98.632C230.827 98.288 231.071 97.836 231.071 97.276C231.071 96.868 230.955 96.54 230.723 96.292C230.491 96.044 230.187 95.848 229.811 95.704C229.435 95.552 229.035 95.424 228.611 95.32C228.203 95.216 227.811 95.092 227.435 94.948C227.067 94.796 226.739 94.608 226.451 94.384C226.163 94.16 225.935 93.892 225.767 93.58C225.607 93.26 225.527 92.888 225.527 92.464C225.527 91.936 225.691 91.48 226.019 91.096C226.347 90.704 226.783 90.4 227.327 90.184C227.879 89.968 228.475 89.86 229.115 89.86Z" fill="white"/>
<line x1="411.325" y1="98.502" x2="430.05" y2="115.066" stroke="#4B70F5" stroke-width="4"/>
<line y1="-2" x2="25" y2="-2" transform="matrix(0.748997 -0.662574 -0.662574 -0.748997 410 128.564)" stroke="#4B70F5" stroke-width="4"/>
<defs>
<filter id="filter0_d_142_107" x="0" y="0" width="479" height="238" filterUnits="userSpaceOnUse" color-interpolation-filters="sRGB">
<feFlood flood-opacity="0" result="BackgroundImageFix"/>
<feColorMatrix in="SourceAlpha" type="matrix" values="0 0 0 0 0 0 0 0 0 0 0 0 0 0 0 0 0 0 127 0" result="hardAlpha"/>
<feOffset dx="5" dy="5"/>
<feGaussianBlur stdDeviation="10"/>
<feComposite in2="hardAlpha" operator="out"/>
<feColorMatrix type="matrix" values="0 0 0 0 0 0 0 0 0 0 0 0 0 0 0 0 0 0 0.5 0"/>
<feBlend mode="normal" in2="BackgroundImageFix" result="effect1_dropShadow_142_107"/>
<feBlend mode="normal" in="SourceGraphic" in2="effect1_dropShadow_142_107" result="shape"/>
</filter>
</defs>
</svg>
