<svg width="479" height="238" viewBox="0 0 479 238" fill="none" xmlns="http://www.w3.org/2000/svg">
<g filter="url(#filter0_d_142_170)">
<rect x="15" y="15" width="439" height="198" rx="25" fill="#4C3BCF"/>
</g>
<path d="M388 20H425C438.807 20 450 31.1929 450 45V183C450 196.807 438.807 208 425 208H388V20Z" fill="white"/>
<path d="M62.7523 46.6H67.7523V62.88C67.7523 65.0533 67.319 66.9333 66.4523 68.52C65.599 70.1067 64.3923 71.3333 62.8323 72.2C61.2857 73.0533 59.459 73.48 57.3523 73.48C55.2323 73.48 53.3857 73.0533 51.8123 72.2C50.2523 71.3333 49.039 70.1067 48.1723 68.52C47.319 66.9333 46.8923 65.0533 46.8923 62.88V46.6H51.8723V62.62C51.8723 63.9533 52.099 65.0933 52.5523 66.04C53.019 66.9733 53.6657 67.6867 54.4923 68.18C55.319 68.66 56.2723 68.9 57.3523 68.9C58.419 68.9 59.359 68.66 60.1723 68.18C60.9857 67.6867 61.619 66.9733 62.0723 66.04C62.5257 65.0933 62.7523 63.9533 62.7523 62.62V46.6ZM72.3667 46.6H81.1467C82.8134 46.6 84.3201 46.8867 85.6667 47.46C87.0267 48.0333 88.1067 48.9133 88.9067 50.1C89.7067 51.2733 90.1067 52.7733 90.1067 54.6C90.1067 56.4133 89.7067 57.94 88.9067 59.18C88.1067 60.42 87.0267 61.36 85.6667 62C84.3201 62.6267 82.8134 62.94 81.1467 62.94H77.3467V73H72.3667V46.6ZM77.3467 58.92H79.7667C80.7001 58.92 81.5401 58.7867 82.2867 58.52C83.0467 58.24 83.6534 57.7933 84.1067 57.18C84.5601 56.5667 84.7867 55.7467 84.7867 54.72C84.7867 53.68 84.5601 52.8667 84.1067 52.28C83.6534 51.68 83.0467 51.2533 82.2867 51C81.5401 50.7333 80.7001 50.6 79.7667 50.6H77.3467V58.92ZM93.9292 46.6H102.709C104.376 46.6 105.883 46.8867 107.229 47.46C108.589 48.0333 109.669 48.9133 110.469 50.1C111.269 51.2733 111.669 52.7733 111.669 54.6C111.669 56.4133 111.269 57.94 110.469 59.18C109.669 60.42 108.589 61.36 107.229 62C105.883 62.6267 104.376 62.94 102.709 62.94H98.9092V73H93.9292V46.6ZM98.9092 58.92H101.329C102.263 58.92 103.103 58.7867 103.849 58.52C104.609 58.24 105.216 57.7933 105.669 57.18C106.123 56.5667 106.349 55.7467 106.349 54.72C106.349 53.68 106.123 52.8667 105.669 52.28C105.216 51.68 104.609 51.2533 103.849 51C103.103 50.7333 102.263 50.6 101.329 50.6H98.9092V58.92ZM115.392 46.6H131.772V51.02H120.352V57.62H131.612V61.9H120.352V68.58H131.772V73H115.392V46.6ZM136.562 46.6H146.722C148.215 46.6 149.555 46.9133 150.742 47.54C151.928 48.1533 152.868 49.0533 153.562 50.24C154.268 51.4133 154.622 52.8333 154.622 54.5C154.622 56.1533 154.315 57.5133 153.702 58.58C153.088 59.6333 152.348 60.4267 151.482 60.96C150.628 61.4933 149.835 61.8 149.102 61.88L155.582 73H149.942L144.082 62.26H141.542V73H136.562V46.6ZM141.542 58.74H144.942C146.208 58.74 147.282 58.4267 148.162 57.8C149.055 57.1733 149.502 56.12 149.502 54.64C149.502 53.16 149.062 52.12 148.182 51.52C147.302 50.9067 146.235 50.6 144.982 50.6H141.542V58.74Z" fill="white"/>
<path d="M52.3823 128.936L45.8863 132.2V121.704L58.4623 114.76H63.5183V157H52.3823V128.936ZM67.9943 135.912C67.9943 132.285 68.4636 129.107 69.4023 126.376C70.3409 123.624 71.6316 121.331 73.2743 119.496C74.9383 117.661 76.8263 116.285 78.9383 115.368C81.0503 114.451 83.2796 113.992 85.6263 113.992C88.0156 113.992 90.2663 114.451 92.3783 115.368C94.4903 116.285 96.3569 117.661 97.9783 119.496C99.6209 121.331 100.912 123.624 101.85 126.376C102.789 129.107 103.258 132.285 103.258 135.912C103.258 139.859 102.789 143.219 101.85 145.992C100.912 148.765 99.6209 151.016 97.9783 152.744C96.3569 154.472 94.4903 155.741 92.3783 156.552C90.2663 157.363 88.0156 157.768 85.6263 157.768C83.2796 157.768 81.0503 157.363 78.9383 156.552C76.8263 155.741 74.9383 154.472 73.2743 152.744C71.6316 151.016 70.3409 148.765 69.4023 145.992C68.4636 143.219 67.9943 139.859 67.9943 135.912ZM79.1303 135.912C79.1303 138.685 79.3756 140.968 79.8663 142.76C80.3783 144.531 81.1143 145.853 82.0743 146.728C83.0343 147.581 84.2183 148.008 85.6263 148.008C87.0556 148.008 88.2503 147.581 89.2103 146.728C90.1703 145.853 90.8849 144.52 91.3543 142.728C91.8449 140.936 92.0903 138.664 92.0903 135.912C92.0903 133.373 91.8449 131.208 91.3543 129.416C90.8849 127.603 90.1703 126.205 89.2103 125.224C88.2503 124.243 87.0556 123.752 85.6263 123.752C84.2183 123.752 83.0343 124.243 82.0743 125.224C81.1143 126.205 80.3783 127.603 79.8663 129.416C79.3756 131.229 79.1303 133.395 79.1303 135.912ZM106.244 135.912C106.244 132.285 106.714 129.107 107.652 126.376C108.591 123.624 109.882 121.331 111.524 119.496C113.188 117.661 115.076 116.285 117.188 115.368C119.3 114.451 121.53 113.992 123.876 113.992C126.266 113.992 128.516 114.451 130.628 115.368C132.74 116.285 134.607 117.661 136.228 119.496C137.871 121.331 139.162 123.624 140.1 126.376C141.039 129.107 141.508 132.285 141.508 135.912C141.508 139.859 141.039 143.219 140.1 145.992C139.162 148.765 137.871 151.016 136.228 152.744C134.607 154.472 132.74 155.741 130.628 156.552C128.516 157.363 126.266 157.768 123.876 157.768C121.53 157.768 119.3 157.363 117.188 156.552C115.076 155.741 113.188 154.472 111.524 152.744C109.882 151.016 108.591 148.765 107.652 145.992C106.714 143.219 106.244 139.859 106.244 135.912ZM117.38 135.912C117.38 138.685 117.626 140.968 118.116 142.76C118.628 144.531 119.364 145.853 120.324 146.728C121.284 147.581 122.468 148.008 123.876 148.008C125.306 148.008 126.5 147.581 127.46 146.728C128.42 145.853 129.135 144.52 129.604 142.728C130.095 140.936 130.34 138.664 130.34 135.912C130.34 133.373 130.095 131.208 129.604 129.416C129.135 127.603 128.42 126.205 127.46 125.224C126.5 124.243 125.306 123.752 123.876 123.752C122.468 123.752 121.284 124.243 120.324 125.224C119.364 126.205 118.628 127.603 118.116 129.416C117.626 131.229 117.38 133.395 117.38 135.912ZM164.141 147.24V137.64H180.621V147.24H164.141ZM220.363 123.368C219.083 123.368 217.952 123.699 216.971 124.36C215.989 125.021 215.157 125.789 214.475 126.664C213.813 127.539 213.301 128.339 212.939 129.064C212.576 129.789 212.373 130.216 212.331 130.344L202.859 125.96C202.901 125.683 203.104 125.096 203.467 124.2C203.829 123.304 204.405 122.28 205.195 121.128C206.005 119.976 207.072 118.856 208.395 117.768C209.739 116.68 211.392 115.784 213.355 115.08C215.317 114.355 217.653 113.992 220.363 113.992C223.627 113.992 226.293 114.461 228.363 115.4C230.453 116.339 232.075 117.544 233.227 119.016C234.4 120.467 235.221 122.003 235.691 123.624C236.181 125.224 236.427 126.685 236.427 128.008C236.427 129.864 236.075 131.624 235.371 133.288C234.667 134.931 233.76 136.467 232.651 137.896C231.563 139.304 230.389 140.584 229.131 141.736C227.893 142.867 226.699 143.848 225.547 144.68C224.416 145.491 223.467 146.131 222.699 146.6C221.931 147.048 221.493 147.304 221.387 147.368H236.075V157H204.715V148.232C204.907 148.104 205.525 147.688 206.571 146.984C207.637 146.259 208.939 145.331 210.475 144.2C212.032 143.069 213.664 141.811 215.371 140.424C217.077 139.037 218.677 137.608 220.171 136.136C221.664 134.643 222.88 133.192 223.819 131.784C224.779 130.355 225.259 129.043 225.259 127.848C225.259 126.227 224.832 125.075 223.979 124.392C223.125 123.709 221.92 123.368 220.363 123.368ZM240.369 135.912C240.369 132.285 240.839 129.107 241.777 126.376C242.716 123.624 244.007 121.331 245.649 119.496C247.313 117.661 249.201 116.285 251.313 115.368C253.425 114.451 255.655 113.992 258.001 113.992C260.391 113.992 262.641 114.451 264.753 115.368C266.865 116.285 268.732 117.661 270.353 119.496C271.996 121.331 273.287 123.624 274.225 126.376C275.164 129.107 275.633 132.285 275.633 135.912C275.633 139.859 275.164 143.219 274.225 145.992C273.287 148.765 271.996 151.016 270.353 152.744C268.732 154.472 266.865 155.741 264.753 156.552C262.641 157.363 260.391 157.768 258.001 157.768C255.655 157.768 253.425 157.363 251.313 156.552C249.201 155.741 247.313 154.472 245.649 152.744C244.007 151.016 242.716 148.765 241.777 145.992C240.839 143.219 240.369 139.859 240.369 135.912ZM251.505 135.912C251.505 138.685 251.751 140.968 252.241 142.76C252.753 144.531 253.489 145.853 254.449 146.728C255.409 147.581 256.593 148.008 258.001 148.008C259.431 148.008 260.625 147.581 261.585 146.728C262.545 145.853 263.26 144.52 263.729 142.728C264.22 140.936 264.465 138.664 264.465 135.912C264.465 133.373 264.22 131.208 263.729 129.416C263.26 127.603 262.545 126.205 261.585 125.224C260.625 124.243 259.431 123.752 258.001 123.752C256.593 123.752 255.409 124.243 254.449 125.224C253.489 126.205 252.753 127.603 252.241 129.416C251.751 131.229 251.505 133.395 251.505 135.912ZM278.619 135.912C278.619 132.285 279.089 129.107 280.027 126.376C280.966 123.624 282.257 121.331 283.899 119.496C285.563 117.661 287.451 116.285 289.563 115.368C291.675 114.451 293.905 113.992 296.251 113.992C298.641 113.992 300.891 114.451 303.003 115.368C305.115 116.285 306.982 117.661 308.603 119.496C310.246 121.331 311.537 123.624 312.475 126.376C313.414 129.107 313.883 132.285 313.883 135.912C313.883 139.859 313.414 143.219 312.475 145.992C311.537 148.765 310.246 151.016 308.603 152.744C306.982 154.472 305.115 155.741 303.003 156.552C300.891 157.363 298.641 157.768 296.251 157.768C293.905 157.768 291.675 157.363 289.563 156.552C287.451 155.741 285.563 154.472 283.899 152.744C282.257 151.016 280.966 148.765 280.027 145.992C279.089 143.219 278.619 139.859 278.619 135.912ZM289.755 135.912C289.755 138.685 290.001 140.968 290.491 142.76C291.003 144.531 291.739 145.853 292.699 146.728C293.659 147.581 294.843 148.008 296.251 148.008C297.681 148.008 298.875 147.581 299.835 146.728C300.795 145.853 301.51 144.52 301.979 142.728C302.47 140.936 302.715 138.664 302.715 135.912C302.715 133.373 302.47 131.208 301.979 129.416C301.51 127.603 300.795 126.205 299.835 125.224C298.875 124.243 297.681 123.752 296.251 123.752C294.843 123.752 293.659 124.243 292.699 125.224C291.739 126.205 291.003 127.603 290.491 129.416C290.001 131.229 289.755 133.395 289.755 135.912ZM337.957 134.984L353.509 157H340.261L328.325 138.92V157H317.189V114.76H328.325V131.272L339.205 114.76H351.749L337.957 134.984Z" fill="white"/>
<path d="M45.5502 84.16H54.5742V85.42H46.8822V91.432H54.3822V92.68H46.8822V98.74H54.5742V100H45.5502V84.16ZM61.2944 89.86C61.7504 89.86 62.1784 89.912 62.5784 90.016C62.9864 90.112 63.3424 90.236 63.6464 90.388C63.9504 90.532 64.1784 90.664 64.3304 90.784L63.6704 91.732C63.5024 91.572 63.2104 91.404 62.7944 91.228C62.3784 91.044 61.9104 90.952 61.3904 90.952C60.7504 90.952 60.2024 91.084 59.7464 91.348C59.2984 91.612 59.0744 91.996 59.0744 92.5C59.0744 92.988 59.3024 93.376 59.7584 93.664C60.2144 93.952 60.8144 94.188 61.5584 94.372C62.1264 94.516 62.6424 94.696 63.1064 94.912C63.5784 95.128 63.9544 95.424 64.2344 95.8C64.5144 96.168 64.6544 96.66 64.6544 97.276C64.6544 97.804 64.5464 98.26 64.3304 98.644C64.1144 99.02 63.8184 99.328 63.4424 99.568C63.0744 99.808 62.6544 99.988 62.1824 100.108C61.7104 100.228 61.2144 100.288 60.6944 100.288C60.1584 100.288 59.6624 100.228 59.2064 100.108C58.7504 99.988 58.3584 99.844 58.0304 99.676C57.7104 99.508 57.4664 99.352 57.2984 99.208L57.9824 98.14C58.1904 98.356 58.5304 98.58 59.0024 98.812C59.4824 99.036 60.0424 99.148 60.6824 99.148C61.4264 99.148 62.0384 98.976 62.5184 98.632C63.0064 98.288 63.2504 97.836 63.2504 97.276C63.2504 96.868 63.1344 96.54 62.9024 96.292C62.6704 96.044 62.3664 95.848 61.9904 95.704C61.6144 95.552 61.2144 95.424 60.7904 95.32C60.3824 95.216 59.9904 95.092 59.6144 94.948C59.2464 94.796 58.9184 94.608 58.6304 94.384C58.3424 94.16 58.1144 93.892 57.9464 93.58C57.7864 93.26 57.7064 92.888 57.7064 92.464C57.7064 91.936 57.8704 91.48 58.1984 91.096C58.5264 90.704 58.9624 90.4 59.5064 90.184C60.0584 89.968 60.6544 89.86 61.2944 89.86ZM66.2939 90.148H68.3459V86.104H69.7019V90.148H72.3899V91.384H69.7019V97.228C69.7019 97.884 69.8219 98.352 70.0619 98.632C70.3019 98.912 70.6019 99.052 70.9619 99.052C71.3059 99.052 71.5659 98.992 71.7419 98.872C71.9179 98.752 72.0219 98.672 72.0539 98.632L72.6899 99.676C72.6419 99.716 72.5339 99.788 72.3659 99.892C72.1979 99.988 71.9779 100.076 71.7059 100.156C71.4339 100.244 71.1059 100.288 70.7219 100.288C70.0579 100.288 69.4939 100.076 69.0299 99.652C68.5739 99.22 68.3459 98.532 68.3459 97.588V91.384H66.2939V90.148ZM75.0037 100V90.148H76.3597V100H75.0037ZM75.6997 86.152C75.4117 86.152 75.1637 86.052 74.9557 85.852C74.7557 85.644 74.6557 85.396 74.6557 85.108C74.6557 84.812 74.7597 84.564 74.9677 84.364C75.1757 84.156 75.4197 84.052 75.6997 84.052C75.8917 84.052 76.0677 84.1 76.2277 84.196C76.3957 84.292 76.5277 84.42 76.6237 84.58C76.7277 84.732 76.7797 84.908 76.7797 85.108C76.7797 85.396 76.6717 85.644 76.4557 85.852C76.2477 86.052 75.9957 86.152 75.6997 86.152ZM90.8999 89.86C91.6279 89.86 92.2399 90.02 92.7359 90.34C93.2319 90.66 93.6039 91.148 93.8519 91.804C94.1079 92.452 94.2359 93.28 94.2359 94.288V100H92.8799V94.648C92.8799 93.408 92.7119 92.496 92.3759 91.912C92.0399 91.328 91.4399 91.036 90.5759 91.036C90.1359 91.036 89.6999 91.16 89.2679 91.408C88.8439 91.648 88.4919 92.032 88.2119 92.56C87.9319 93.088 87.7919 93.784 87.7919 94.648V100H86.4839V94.648C86.4839 93.408 86.2679 92.496 85.8359 91.912C85.4039 91.328 84.8359 91.036 84.1319 91.036C83.6839 91.036 83.2479 91.152 82.8239 91.384C82.4079 91.616 82.0639 92 81.7919 92.536C81.5279 93.064 81.3959 93.768 81.3959 94.648V100H80.0399V90.148H81.3959V91.708C81.4759 91.46 81.6559 91.192 81.9359 90.904C82.2239 90.616 82.5919 90.372 83.0399 90.172C83.4879 89.964 83.9999 89.86 84.5759 89.86C85.1839 89.86 85.6879 89.996 86.0879 90.268C86.4879 90.54 86.7999 90.864 87.0239 91.24C87.2479 91.616 87.3879 91.96 87.4439 92.272C87.5639 91.896 87.7799 91.524 88.0919 91.156C88.4039 90.788 88.7999 90.48 89.2799 90.232C89.7599 89.984 90.2999 89.86 90.8999 89.86ZM105.502 100V97.936C105.446 98.152 105.258 98.448 104.938 98.824C104.626 99.2 104.19 99.54 103.63 99.844C103.078 100.14 102.422 100.288 101.662 100.288C100.774 100.288 99.954 100.084 99.202 99.676C98.458 99.26 97.858 98.664 97.402 97.888C96.954 97.104 96.73 96.168 96.73 95.08C96.73 93.992 96.954 93.06 97.402 92.284C97.858 91.5 98.458 90.9 99.202 90.484C99.954 90.068 100.774 89.86 101.662 89.86C102.422 89.86 103.078 90.004 103.63 90.292C104.182 90.572 104.618 90.896 104.938 91.264C105.266 91.632 105.45 91.94 105.49 92.188V90.148H106.834V100H105.502ZM98.086 95.08C98.086 95.912 98.266 96.628 98.626 97.228C98.986 97.828 99.45 98.288 100.018 98.608C100.594 98.928 101.198 99.088 101.83 99.088C102.526 99.088 103.146 98.924 103.69 98.596C104.234 98.268 104.662 97.804 104.974 97.204C105.294 96.604 105.454 95.896 105.454 95.08C105.454 94.264 105.294 93.556 104.974 92.956C104.662 92.356 104.234 91.892 103.69 91.564C103.146 91.228 102.526 91.06 101.83 91.06C101.198 91.06 100.594 91.224 100.018 91.552C99.45 91.872 98.986 92.332 98.626 92.932C98.266 93.532 98.086 94.248 98.086 95.08ZM113.208 89.86C113.664 89.86 114.092 89.912 114.492 90.016C114.9 90.112 115.256 90.236 115.56 90.388C115.864 90.532 116.092 90.664 116.244 90.784L115.584 91.732C115.416 91.572 115.124 91.404 114.708 91.228C114.292 91.044 113.824 90.952 113.304 90.952C112.664 90.952 112.116 91.084 111.66 91.348C111.212 91.612 110.988 91.996 110.988 92.5C110.988 92.988 111.216 93.376 111.672 93.664C112.128 93.952 112.728 94.188 113.472 94.372C114.04 94.516 114.556 94.696 115.02 94.912C115.492 95.128 115.868 95.424 116.148 95.8C116.428 96.168 116.568 96.66 116.568 97.276C116.568 97.804 116.46 98.26 116.244 98.644C116.028 99.02 115.732 99.328 115.356 99.568C114.988 99.808 114.568 99.988 114.096 100.108C113.624 100.228 113.128 100.288 112.608 100.288C112.072 100.288 111.576 100.228 111.12 100.108C110.664 99.988 110.272 99.844 109.944 99.676C109.624 99.508 109.38 99.352 109.212 99.208L109.896 98.14C110.104 98.356 110.444 98.58 110.916 98.812C111.396 99.036 111.956 99.148 112.596 99.148C113.34 99.148 113.952 98.976 114.432 98.632C114.92 98.288 115.164 97.836 115.164 97.276C115.164 96.868 115.048 96.54 114.816 96.292C114.584 96.044 114.28 95.848 113.904 95.704C113.528 95.552 113.128 95.424 112.704 95.32C112.296 95.216 111.904 95.092 111.528 94.948C111.16 94.796 110.832 94.608 110.544 94.384C110.256 94.16 110.028 93.892 109.86 93.58C109.7 93.26 109.62 92.888 109.62 92.464C109.62 91.936 109.784 91.48 110.112 91.096C110.44 90.704 110.876 90.4 111.42 90.184C111.972 89.968 112.568 89.86 113.208 89.86ZM119.488 100V90.148H120.844V100H119.488ZM120.184 86.152C119.896 86.152 119.648 86.052 119.44 85.852C119.24 85.644 119.14 85.396 119.14 85.108C119.14 84.812 119.244 84.564 119.452 84.364C119.66 84.156 119.904 84.052 120.184 84.052C120.376 84.052 120.552 84.1 120.712 84.196C120.88 84.292 121.012 84.42 121.108 84.58C121.212 84.732 121.264 84.908 121.264 85.108C121.264 85.396 121.156 85.644 120.94 85.852C120.732 86.052 120.48 86.152 120.184 86.152ZM125.988 100.288C125.612 100.288 125.292 100.156 125.028 99.892C124.772 99.628 124.644 99.312 124.644 98.944C124.644 98.56 124.772 98.236 125.028 97.972C125.292 97.708 125.612 97.576 125.988 97.576C126.364 97.576 126.684 97.708 126.948 97.972C127.212 98.236 127.344 98.56 127.344 98.944C127.344 99.312 127.212 99.628 126.948 99.892C126.684 100.156 126.364 100.288 125.988 100.288ZM125.988 92.38C125.612 92.38 125.292 92.248 125.028 91.984C124.772 91.72 124.644 91.404 124.644 91.036C124.644 90.652 124.772 90.328 125.028 90.064C125.292 89.8 125.612 89.668 125.988 89.668C126.364 89.668 126.684 89.8 126.948 90.064C127.212 90.328 127.344 90.652 127.344 91.036C127.344 91.404 127.212 91.72 126.948 91.984C126.684 92.248 126.364 92.38 125.988 92.38ZM136.347 84.16H146.043V85.216L137.631 100H136.095L144.435 85.42H136.347V84.16ZM154.203 95.14V93.928H160.383V95.14H154.203ZM171.517 85.792L168.661 87.46V86.104L171.937 84.16H172.873V100H171.517V85.792ZM183.67 84.16V95.404H185.47V96.664H183.67V100H182.314V96.664H175.582V95.488L182.314 84.16H183.67ZM182.314 95.404V86.584L177.094 95.404H182.314ZM193.72 84.16H196.984C198.672 84.16 200.056 84.5 201.136 85.18C202.216 85.852 203.012 86.784 203.524 87.976C204.044 89.168 204.304 90.532 204.304 92.068C204.304 93.612 204.048 94.98 203.536 96.172C203.024 97.364 202.228 98.3 201.148 98.98C200.068 99.66 198.68 100 196.984 100H193.72V84.16ZM195.052 85.432V98.728H196.876C198.284 98.728 199.428 98.444 200.308 97.876C201.196 97.308 201.848 96.528 202.264 95.536C202.688 94.536 202.904 93.388 202.912 92.092C202.92 90.796 202.716 89.648 202.3 88.648C201.884 87.648 201.228 86.864 200.332 86.296C199.444 85.72 198.292 85.432 196.876 85.432H195.052ZM215.096 100V97.936C215.04 98.152 214.852 98.448 214.532 98.824C214.22 99.2 213.784 99.54 213.224 99.844C212.672 100.14 212.016 100.288 211.256 100.288C210.368 100.288 209.548 100.084 208.796 99.676C208.052 99.26 207.452 98.664 206.996 97.888C206.548 97.104 206.324 96.168 206.324 95.08C206.324 93.992 206.548 93.06 206.996 92.284C207.452 91.5 208.052 90.9 208.796 90.484C209.548 90.068 210.368 89.86 211.256 89.86C212.016 89.86 212.672 90.004 213.224 90.292C213.776 90.572 214.212 90.896 214.532 91.264C214.86 91.632 215.044 91.94 215.084 92.188V90.148H216.428V100H215.096ZM207.68 95.08C207.68 95.912 207.86 96.628 208.22 97.228C208.58 97.828 209.044 98.288 209.612 98.608C210.188 98.928 210.792 99.088 211.424 99.088C212.12 99.088 212.74 98.924 213.284 98.596C213.828 98.268 214.256 97.804 214.568 97.204C214.888 96.604 215.048 95.896 215.048 95.08C215.048 94.264 214.888 93.556 214.568 92.956C214.256 92.356 213.828 91.892 213.284 91.564C212.74 91.228 212.12 91.06 211.424 91.06C210.792 91.06 210.188 91.224 209.612 91.552C209.044 91.872 208.58 92.332 208.22 92.932C207.86 93.532 207.68 94.248 207.68 95.08ZM223.138 98.68L226.762 90.148H228.178L221.578 104.992H220.162L222.394 100L218.35 90.148H219.778L223.138 98.68ZM233.302 89.86C233.758 89.86 234.186 89.912 234.586 90.016C234.994 90.112 235.35 90.236 235.654 90.388C235.958 90.532 236.186 90.664 236.338 90.784L235.678 91.732C235.51 91.572 235.218 91.404 234.802 91.228C234.386 91.044 233.918 90.952 233.398 90.952C232.758 90.952 232.21 91.084 231.754 91.348C231.306 91.612 231.082 91.996 231.082 92.5C231.082 92.988 231.31 93.376 231.766 93.664C232.222 93.952 232.822 94.188 233.566 94.372C234.134 94.516 234.65 94.696 235.114 94.912C235.586 95.128 235.962 95.424 236.242 95.8C236.522 96.168 236.662 96.66 236.662 97.276C236.662 97.804 236.554 98.26 236.338 98.644C236.122 99.02 235.826 99.328 235.45 99.568C235.082 99.808 234.662 99.988 234.19 100.108C233.718 100.228 233.222 100.288 232.702 100.288C232.166 100.288 231.67 100.228 231.214 100.108C230.758 99.988 230.366 99.844 230.038 99.676C229.718 99.508 229.474 99.352 229.306 99.208L229.99 98.14C230.198 98.356 230.538 98.58 231.01 98.812C231.49 99.036 232.05 99.148 232.69 99.148C233.434 99.148 234.046 98.976 234.526 98.632C235.014 98.288 235.258 97.836 235.258 97.276C235.258 96.868 235.142 96.54 234.91 96.292C234.678 96.044 234.374 95.848 233.998 95.704C233.622 95.552 233.222 95.424 232.798 95.32C232.39 95.216 231.998 95.092 231.622 94.948C231.254 94.796 230.926 94.608 230.638 94.384C230.35 94.16 230.122 93.892 229.954 93.58C229.794 93.26 229.714 92.888 229.714 92.464C229.714 91.936 229.878 91.48 230.206 91.096C230.534 90.704 230.97 90.4 231.514 90.184C232.066 89.968 232.662 89.86 233.302 89.86Z" fill="white"/>
<line x1="411.325" y1="98.502" x2="430.05" y2="115.066" stroke="#4C3BCF" stroke-width="4"/>
<line y1="-2" x2="25" y2="-2" transform="matrix(0.748997 -0.662574 -0.662574 -0.748997 410 128.564)" stroke="#4C3BCF" stroke-width="4"/>
<defs>
<filter id="filter0_d_142_170" x="0" y="0" width="479" height="238" filterUnits="userSpaceOnUse" color-interpolation-filters="sRGB">
<feFlood flood-opacity="0" result="BackgroundImageFix"/>
<feColorMatrix in="SourceAlpha" type="matrix" values="0 0 0 0 0 0 0 0 0 0 0 0 0 0 0 0 0 0 127 0" result="hardAlpha"/>
<feOffset dx="5" dy="5"/>
<feGaussianBlur stdDeviation="10"/>
<feComposite in2="hardAlpha" operator="out"/>
<feColorMatrix type="matrix" values="0 0 0 0 0 0 0 0 0 0 0 0 0 0 0 0 0 0 0.5 0"/>
<feBlend mode="normal" in2="BackgroundImageFix" result="effect1_dropShadow_142_170"/>
<feBlend mode="normal" in="SourceGraphic" in2="effect1_dropShadow_142_170" result="shape"/>
</filter>
</defs>
</svg>
